%TF.GenerationSoftware,KiCad,Pcbnew,7.0.5*%
%TF.CreationDate,2023-07-02T21:33:01+09:00*%
%TF.ProjectId,robotrace_v2_Extended_UI,726f626f-7472-4616-9365-5f76325f4578,rev?*%
%TF.SameCoordinates,Original*%
%TF.FileFunction,Soldermask,Top*%
%TF.FilePolarity,Negative*%
%FSLAX46Y46*%
G04 Gerber Fmt 4.6, Leading zero omitted, Abs format (unit mm)*
G04 Created by KiCad (PCBNEW 7.0.5) date 2023-07-02 21:33:01*
%MOMM*%
%LPD*%
G01*
G04 APERTURE LIST*
G04 Aperture macros list*
%AMRoundRect*
0 Rectangle with rounded corners*
0 $1 Rounding radius*
0 $2 $3 $4 $5 $6 $7 $8 $9 X,Y pos of 4 corners*
0 Add a 4 corners polygon primitive as box body*
4,1,4,$2,$3,$4,$5,$6,$7,$8,$9,$2,$3,0*
0 Add four circle primitives for the rounded corners*
1,1,$1+$1,$2,$3*
1,1,$1+$1,$4,$5*
1,1,$1+$1,$6,$7*
1,1,$1+$1,$8,$9*
0 Add four rect primitives between the rounded corners*
20,1,$1+$1,$2,$3,$4,$5,0*
20,1,$1+$1,$4,$5,$6,$7,0*
20,1,$1+$1,$6,$7,$8,$9,0*
20,1,$1+$1,$8,$9,$2,$3,0*%
G04 Aperture macros list end*
%ADD10O,1.700000X1.700000*%
%ADD11R,1.700000X1.700000*%
%ADD12R,0.300000X1.000000*%
%ADD13R,2.000000X1.300000*%
%ADD14O,1.000000X2.100000*%
%ADD15O,1.000000X1.600000*%
%ADD16C,0.650000*%
%ADD17O,1.000000X1.000000*%
%ADD18R,1.000000X1.000000*%
%ADD19RoundRect,0.250000X-0.477297X0.123744X0.123744X-0.477297X0.477297X-0.123744X-0.123744X0.477297X0*%
%ADD20RoundRect,0.450000X-0.707107X0.070711X0.070711X-0.707107X0.707107X-0.070711X-0.070711X0.707107X0*%
%ADD21C,1.524000*%
G04 APERTURE END LIST*
D10*
%TO.C,J2*%
X148120000Y-93000000D03*
X145580000Y-93000000D03*
X143040000Y-93000000D03*
D11*
X140500000Y-93000000D03*
%TD*%
D12*
%TO.C,J1*%
X153950000Y-115592500D03*
X154450000Y-115592500D03*
X154950000Y-115592500D03*
X155450000Y-115592500D03*
X155950000Y-115592500D03*
X156450000Y-115592500D03*
X156950000Y-115592500D03*
X157450000Y-115592500D03*
X157950000Y-115592500D03*
X158450000Y-115592500D03*
X158950000Y-115592500D03*
X159450000Y-115592500D03*
X159950000Y-115592500D03*
X160450000Y-115592500D03*
X160950000Y-115592500D03*
X161450000Y-115592500D03*
D13*
X151650000Y-118292500D03*
X163750000Y-118292500D03*
%TD*%
D14*
%TO.C,J3*%
X133480000Y-113995000D03*
D15*
X133480000Y-118175000D03*
D14*
X142120000Y-113995000D03*
D15*
X142120000Y-118175000D03*
D16*
X134910000Y-114495000D03*
X140690000Y-114495000D03*
%TD*%
D17*
%TO.C,J4*%
X141600000Y-104050000D03*
X141600000Y-105320000D03*
X141600000Y-106590000D03*
X141600000Y-107860000D03*
X141600000Y-109130000D03*
D18*
X141600000Y-110400000D03*
%TD*%
D19*
%TO.C,SW1*%
X164137658Y-105922779D03*
X163130030Y-106930406D03*
X162122403Y-107938033D03*
X169193471Y-110978592D03*
X168185844Y-111986220D03*
X167178217Y-112993847D03*
D20*
X168380298Y-106453109D03*
X162794155Y-112322095D03*
%TD*%
D21*
%TO.C,SW2*%
X166240000Y-100192500D03*
X163700000Y-100192500D03*
X161160000Y-100192500D03*
X158620000Y-100192500D03*
X163700000Y-92572500D03*
%TD*%
M02*
