%TF.GenerationSoftware,KiCad,Pcbnew,7.0.5*%
%TF.CreationDate,2023-07-02T21:33:01+09:00*%
%TF.ProjectId,robotrace_v2_Extended_UI,726f626f-7472-4616-9365-5f76325f4578,rev?*%
%TF.SameCoordinates,Original*%
%TF.FileFunction,Legend,Top*%
%TF.FilePolarity,Positive*%
%FSLAX46Y46*%
G04 Gerber Fmt 4.6, Leading zero omitted, Abs format (unit mm)*
G04 Created by KiCad (PCBNEW 7.0.5) date 2023-07-02 21:33:01*
%MOMM*%
%LPD*%
G01*
G04 APERTURE LIST*
G04 Aperture macros list*
%AMRoundRect*
0 Rectangle with rounded corners*
0 $1 Rounding radius*
0 $2 $3 $4 $5 $6 $7 $8 $9 X,Y pos of 4 corners*
0 Add a 4 corners polygon primitive as box body*
4,1,4,$2,$3,$4,$5,$6,$7,$8,$9,$2,$3,0*
0 Add four circle primitives for the rounded corners*
1,1,$1+$1,$2,$3*
1,1,$1+$1,$4,$5*
1,1,$1+$1,$6,$7*
1,1,$1+$1,$8,$9*
0 Add four rect primitives between the rounded corners*
20,1,$1+$1,$2,$3,$4,$5,0*
20,1,$1+$1,$4,$5,$6,$7,0*
20,1,$1+$1,$6,$7,$8,$9,0*
20,1,$1+$1,$8,$9,$2,$3,0*%
G04 Aperture macros list end*
%ADD10C,0.150000*%
%ADD11C,0.125000*%
%ADD12C,0.120000*%
%ADD13O,1.700000X1.700000*%
%ADD14R,1.700000X1.700000*%
%ADD15R,0.300000X1.000000*%
%ADD16R,2.000000X1.300000*%
%ADD17O,1.000000X2.100000*%
%ADD18O,1.000000X1.600000*%
%ADD19C,0.650000*%
%ADD20O,1.000000X1.000000*%
%ADD21R,1.000000X1.000000*%
%ADD22RoundRect,0.250000X-0.477297X0.123744X0.123744X-0.477297X0.477297X-0.123744X-0.123744X0.477297X0*%
%ADD23RoundRect,0.450000X-0.707107X0.070711X0.070711X-0.707107X0.707107X-0.070711X-0.070711X0.707107X0*%
%ADD24C,1.524000*%
G04 APERTURE END LIST*
D10*
%TO.C,J2*%
X137624819Y-93333333D02*
X138339104Y-93333333D01*
X138339104Y-93333333D02*
X138481961Y-93380952D01*
X138481961Y-93380952D02*
X138577200Y-93476190D01*
X138577200Y-93476190D02*
X138624819Y-93619047D01*
X138624819Y-93619047D02*
X138624819Y-93714285D01*
X137720057Y-92904761D02*
X137672438Y-92857142D01*
X137672438Y-92857142D02*
X137624819Y-92761904D01*
X137624819Y-92761904D02*
X137624819Y-92523809D01*
X137624819Y-92523809D02*
X137672438Y-92428571D01*
X137672438Y-92428571D02*
X137720057Y-92380952D01*
X137720057Y-92380952D02*
X137815295Y-92333333D01*
X137815295Y-92333333D02*
X137910533Y-92333333D01*
X137910533Y-92333333D02*
X138053390Y-92380952D01*
X138053390Y-92380952D02*
X138624819Y-92952380D01*
X138624819Y-92952380D02*
X138624819Y-92333333D01*
X147251064Y-96922200D02*
X147365350Y-96969819D01*
X147365350Y-96969819D02*
X147555826Y-96969819D01*
X147555826Y-96969819D02*
X147632017Y-96922200D01*
X147632017Y-96922200D02*
X147670112Y-96874580D01*
X147670112Y-96874580D02*
X147708207Y-96779342D01*
X147708207Y-96779342D02*
X147708207Y-96684104D01*
X147708207Y-96684104D02*
X147670112Y-96588866D01*
X147670112Y-96588866D02*
X147632017Y-96541247D01*
X147632017Y-96541247D02*
X147555826Y-96493628D01*
X147555826Y-96493628D02*
X147403445Y-96446009D01*
X147403445Y-96446009D02*
X147327255Y-96398390D01*
X147327255Y-96398390D02*
X147289160Y-96350771D01*
X147289160Y-96350771D02*
X147251064Y-96255533D01*
X147251064Y-96255533D02*
X147251064Y-96160295D01*
X147251064Y-96160295D02*
X147289160Y-96065057D01*
X147289160Y-96065057D02*
X147327255Y-96017438D01*
X147327255Y-96017438D02*
X147403445Y-95969819D01*
X147403445Y-95969819D02*
X147593922Y-95969819D01*
X147593922Y-95969819D02*
X147708207Y-96017438D01*
X148051065Y-96969819D02*
X148051065Y-95969819D01*
X148051065Y-95969819D02*
X148241541Y-95969819D01*
X148241541Y-95969819D02*
X148355827Y-96017438D01*
X148355827Y-96017438D02*
X148432017Y-96112676D01*
X148432017Y-96112676D02*
X148470112Y-96207914D01*
X148470112Y-96207914D02*
X148508208Y-96398390D01*
X148508208Y-96398390D02*
X148508208Y-96541247D01*
X148508208Y-96541247D02*
X148470112Y-96731723D01*
X148470112Y-96731723D02*
X148432017Y-96826961D01*
X148432017Y-96826961D02*
X148355827Y-96922200D01*
X148355827Y-96922200D02*
X148241541Y-96969819D01*
X148241541Y-96969819D02*
X148051065Y-96969819D01*
X148812969Y-96684104D02*
X149193922Y-96684104D01*
X148736779Y-96969819D02*
X149003446Y-95969819D01*
X149003446Y-95969819D02*
X149270112Y-96969819D01*
X142074874Y-95969819D02*
X142341541Y-96969819D01*
X142341541Y-96969819D02*
X142608207Y-95969819D01*
X143332017Y-96874580D02*
X143293921Y-96922200D01*
X143293921Y-96922200D02*
X143179636Y-96969819D01*
X143179636Y-96969819D02*
X143103445Y-96969819D01*
X143103445Y-96969819D02*
X142989159Y-96922200D01*
X142989159Y-96922200D02*
X142912969Y-96826961D01*
X142912969Y-96826961D02*
X142874874Y-96731723D01*
X142874874Y-96731723D02*
X142836778Y-96541247D01*
X142836778Y-96541247D02*
X142836778Y-96398390D01*
X142836778Y-96398390D02*
X142874874Y-96207914D01*
X142874874Y-96207914D02*
X142912969Y-96112676D01*
X142912969Y-96112676D02*
X142989159Y-96017438D01*
X142989159Y-96017438D02*
X143103445Y-95969819D01*
X143103445Y-95969819D02*
X143179636Y-95969819D01*
X143179636Y-95969819D02*
X143293921Y-96017438D01*
X143293921Y-96017438D02*
X143332017Y-96065057D01*
X144132017Y-96874580D02*
X144093921Y-96922200D01*
X144093921Y-96922200D02*
X143979636Y-96969819D01*
X143979636Y-96969819D02*
X143903445Y-96969819D01*
X143903445Y-96969819D02*
X143789159Y-96922200D01*
X143789159Y-96922200D02*
X143712969Y-96826961D01*
X143712969Y-96826961D02*
X143674874Y-96731723D01*
X143674874Y-96731723D02*
X143636778Y-96541247D01*
X143636778Y-96541247D02*
X143636778Y-96398390D01*
X143636778Y-96398390D02*
X143674874Y-96207914D01*
X143674874Y-96207914D02*
X143712969Y-96112676D01*
X143712969Y-96112676D02*
X143789159Y-96017438D01*
X143789159Y-96017438D02*
X143903445Y-95969819D01*
X143903445Y-95969819D02*
X143979636Y-95969819D01*
X143979636Y-95969819D02*
X144093921Y-96017438D01*
X144093921Y-96017438D02*
X144132017Y-96065057D01*
X144751064Y-96922200D02*
X144865350Y-96969819D01*
X144865350Y-96969819D02*
X145055826Y-96969819D01*
X145055826Y-96969819D02*
X145132017Y-96922200D01*
X145132017Y-96922200D02*
X145170112Y-96874580D01*
X145170112Y-96874580D02*
X145208207Y-96779342D01*
X145208207Y-96779342D02*
X145208207Y-96684104D01*
X145208207Y-96684104D02*
X145170112Y-96588866D01*
X145170112Y-96588866D02*
X145132017Y-96541247D01*
X145132017Y-96541247D02*
X145055826Y-96493628D01*
X145055826Y-96493628D02*
X144903445Y-96446009D01*
X144903445Y-96446009D02*
X144827255Y-96398390D01*
X144827255Y-96398390D02*
X144789160Y-96350771D01*
X144789160Y-96350771D02*
X144751064Y-96255533D01*
X144751064Y-96255533D02*
X144751064Y-96160295D01*
X144751064Y-96160295D02*
X144789160Y-96065057D01*
X144789160Y-96065057D02*
X144827255Y-96017438D01*
X144827255Y-96017438D02*
X144903445Y-95969819D01*
X144903445Y-95969819D02*
X145093922Y-95969819D01*
X145093922Y-95969819D02*
X145208207Y-96017438D01*
X146008208Y-96874580D02*
X145970112Y-96922200D01*
X145970112Y-96922200D02*
X145855827Y-96969819D01*
X145855827Y-96969819D02*
X145779636Y-96969819D01*
X145779636Y-96969819D02*
X145665350Y-96922200D01*
X145665350Y-96922200D02*
X145589160Y-96826961D01*
X145589160Y-96826961D02*
X145551065Y-96731723D01*
X145551065Y-96731723D02*
X145512969Y-96541247D01*
X145512969Y-96541247D02*
X145512969Y-96398390D01*
X145512969Y-96398390D02*
X145551065Y-96207914D01*
X145551065Y-96207914D02*
X145589160Y-96112676D01*
X145589160Y-96112676D02*
X145665350Y-96017438D01*
X145665350Y-96017438D02*
X145779636Y-95969819D01*
X145779636Y-95969819D02*
X145855827Y-95969819D01*
X145855827Y-95969819D02*
X145970112Y-96017438D01*
X145970112Y-96017438D02*
X146008208Y-96065057D01*
X146732017Y-96969819D02*
X146351065Y-96969819D01*
X146351065Y-96969819D02*
X146351065Y-95969819D01*
D11*
X139891759Y-96018738D02*
X139815569Y-95971119D01*
X139815569Y-95971119D02*
X139701283Y-95971119D01*
X139701283Y-95971119D02*
X139586997Y-96018738D01*
X139586997Y-96018738D02*
X139510807Y-96113976D01*
X139510807Y-96113976D02*
X139472712Y-96209214D01*
X139472712Y-96209214D02*
X139434616Y-96399690D01*
X139434616Y-96399690D02*
X139434616Y-96542547D01*
X139434616Y-96542547D02*
X139472712Y-96733023D01*
X139472712Y-96733023D02*
X139510807Y-96828261D01*
X139510807Y-96828261D02*
X139586997Y-96923500D01*
X139586997Y-96923500D02*
X139701283Y-96971119D01*
X139701283Y-96971119D02*
X139777474Y-96971119D01*
X139777474Y-96971119D02*
X139891759Y-96923500D01*
X139891759Y-96923500D02*
X139929855Y-96875880D01*
X139929855Y-96875880D02*
X139929855Y-96542547D01*
X139929855Y-96542547D02*
X139777474Y-96542547D01*
X140272712Y-96971119D02*
X140272712Y-95971119D01*
X140272712Y-95971119D02*
X140729855Y-96971119D01*
X140729855Y-96971119D02*
X140729855Y-95971119D01*
X141110807Y-96971119D02*
X141110807Y-95971119D01*
X141110807Y-95971119D02*
X141301283Y-95971119D01*
X141301283Y-95971119D02*
X141415569Y-96018738D01*
X141415569Y-96018738D02*
X141491759Y-96113976D01*
X141491759Y-96113976D02*
X141529854Y-96209214D01*
X141529854Y-96209214D02*
X141567950Y-96399690D01*
X141567950Y-96399690D02*
X141567950Y-96542547D01*
X141567950Y-96542547D02*
X141529854Y-96733023D01*
X141529854Y-96733023D02*
X141491759Y-96828261D01*
X141491759Y-96828261D02*
X141415569Y-96923500D01*
X141415569Y-96923500D02*
X141301283Y-96971119D01*
X141301283Y-96971119D02*
X141110807Y-96971119D01*
D10*
%TO.C,J1*%
X157366666Y-112647319D02*
X157366666Y-113361604D01*
X157366666Y-113361604D02*
X157319047Y-113504461D01*
X157319047Y-113504461D02*
X157223809Y-113599700D01*
X157223809Y-113599700D02*
X157080952Y-113647319D01*
X157080952Y-113647319D02*
X156985714Y-113647319D01*
X158366666Y-113647319D02*
X157795238Y-113647319D01*
X158080952Y-113647319D02*
X158080952Y-112647319D01*
X158080952Y-112647319D02*
X157985714Y-112790176D01*
X157985714Y-112790176D02*
X157890476Y-112885414D01*
X157890476Y-112885414D02*
X157795238Y-112933033D01*
%TO.C,J4*%
X141266666Y-111549819D02*
X141266666Y-112264104D01*
X141266666Y-112264104D02*
X141219047Y-112406961D01*
X141219047Y-112406961D02*
X141123809Y-112502200D01*
X141123809Y-112502200D02*
X140980952Y-112549819D01*
X140980952Y-112549819D02*
X140885714Y-112549819D01*
X142171428Y-111883152D02*
X142171428Y-112549819D01*
X141933333Y-111502200D02*
X141695238Y-112216485D01*
X141695238Y-112216485D02*
X142314285Y-112216485D01*
%TO.C,SW1*%
X168066667Y-104507200D02*
X168209524Y-104554819D01*
X168209524Y-104554819D02*
X168447619Y-104554819D01*
X168447619Y-104554819D02*
X168542857Y-104507200D01*
X168542857Y-104507200D02*
X168590476Y-104459580D01*
X168590476Y-104459580D02*
X168638095Y-104364342D01*
X168638095Y-104364342D02*
X168638095Y-104269104D01*
X168638095Y-104269104D02*
X168590476Y-104173866D01*
X168590476Y-104173866D02*
X168542857Y-104126247D01*
X168542857Y-104126247D02*
X168447619Y-104078628D01*
X168447619Y-104078628D02*
X168257143Y-104031009D01*
X168257143Y-104031009D02*
X168161905Y-103983390D01*
X168161905Y-103983390D02*
X168114286Y-103935771D01*
X168114286Y-103935771D02*
X168066667Y-103840533D01*
X168066667Y-103840533D02*
X168066667Y-103745295D01*
X168066667Y-103745295D02*
X168114286Y-103650057D01*
X168114286Y-103650057D02*
X168161905Y-103602438D01*
X168161905Y-103602438D02*
X168257143Y-103554819D01*
X168257143Y-103554819D02*
X168495238Y-103554819D01*
X168495238Y-103554819D02*
X168638095Y-103602438D01*
X168971429Y-103554819D02*
X169209524Y-104554819D01*
X169209524Y-104554819D02*
X169400000Y-103840533D01*
X169400000Y-103840533D02*
X169590476Y-104554819D01*
X169590476Y-104554819D02*
X169828572Y-103554819D01*
X170733333Y-104554819D02*
X170161905Y-104554819D01*
X170447619Y-104554819D02*
X170447619Y-103554819D01*
X170447619Y-103554819D02*
X170352381Y-103697676D01*
X170352381Y-103697676D02*
X170257143Y-103792914D01*
X170257143Y-103792914D02*
X170161905Y-103840533D01*
%TO.C,SW2*%
X163733332Y-96485300D02*
X163590475Y-96437680D01*
X163590475Y-96437680D02*
X163352380Y-96437680D01*
X163352380Y-96437680D02*
X163257142Y-96485300D01*
X163257142Y-96485300D02*
X163209523Y-96532919D01*
X163209523Y-96532919D02*
X163161904Y-96628157D01*
X163161904Y-96628157D02*
X163161904Y-96723395D01*
X163161904Y-96723395D02*
X163209523Y-96818633D01*
X163209523Y-96818633D02*
X163257142Y-96866252D01*
X163257142Y-96866252D02*
X163352380Y-96913871D01*
X163352380Y-96913871D02*
X163542856Y-96961490D01*
X163542856Y-96961490D02*
X163638094Y-97009109D01*
X163638094Y-97009109D02*
X163685713Y-97056728D01*
X163685713Y-97056728D02*
X163733332Y-97151966D01*
X163733332Y-97151966D02*
X163733332Y-97247204D01*
X163733332Y-97247204D02*
X163685713Y-97342442D01*
X163685713Y-97342442D02*
X163638094Y-97390061D01*
X163638094Y-97390061D02*
X163542856Y-97437680D01*
X163542856Y-97437680D02*
X163304761Y-97437680D01*
X163304761Y-97437680D02*
X163161904Y-97390061D01*
X162828570Y-97437680D02*
X162590475Y-96437680D01*
X162590475Y-96437680D02*
X162399999Y-97151966D01*
X162399999Y-97151966D02*
X162209523Y-96437680D01*
X162209523Y-96437680D02*
X161971428Y-97437680D01*
X161638094Y-97342442D02*
X161590475Y-97390061D01*
X161590475Y-97390061D02*
X161495237Y-97437680D01*
X161495237Y-97437680D02*
X161257142Y-97437680D01*
X161257142Y-97437680D02*
X161161904Y-97390061D01*
X161161904Y-97390061D02*
X161114285Y-97342442D01*
X161114285Y-97342442D02*
X161066666Y-97247204D01*
X161066666Y-97247204D02*
X161066666Y-97151966D01*
X161066666Y-97151966D02*
X161114285Y-97009109D01*
X161114285Y-97009109D02*
X161685713Y-96437680D01*
X161685713Y-96437680D02*
X161066666Y-96437680D01*
D12*
%TO.C,J2*%
X131700000Y-91600000D02*
X156900000Y-91600000D01*
X156900000Y-91600000D02*
X156900000Y-117600000D01*
X156900000Y-117600000D02*
X131700000Y-117600000D01*
X131700000Y-117600000D02*
X131700000Y-91600000D01*
X155200000Y-93600000D02*
G75*
G03*
X155200000Y-93600000I-1000000J0D01*
G01*
X141770000Y-91670000D02*
X149450000Y-91670000D01*
X149450000Y-94330000D02*
X149450000Y-91670000D01*
X141770000Y-94330000D02*
X141770000Y-91670000D01*
X141770000Y-94330000D02*
X149450000Y-94330000D01*
X140500000Y-94330000D02*
X139170000Y-94330000D01*
X139170000Y-94330000D02*
X139170000Y-93000000D01*
X155200000Y-106800000D02*
X133400000Y-106800000D01*
X133400000Y-106800000D02*
X133400000Y-95600000D01*
X133400000Y-95600000D02*
X155200000Y-95600000D01*
X155200000Y-95600000D02*
X155200000Y-106800000D01*
X135400000Y-93600000D02*
G75*
G03*
X135400000Y-93600000I-1000000J0D01*
G01*
X133000000Y-91600000D02*
X155600000Y-91600000D01*
X155600000Y-91600000D02*
X155600000Y-110800000D01*
X155600000Y-110800000D02*
X133000000Y-110800000D01*
X133000000Y-110800000D02*
X133000000Y-91600000D01*
X135400000Y-108800000D02*
G75*
G03*
X135400000Y-108800000I-1000000J0D01*
G01*
X155200000Y-108800000D02*
G75*
G03*
X155200000Y-108800000I-1000000J0D01*
G01*
%TO.C,J1*%
X151350000Y-115792500D02*
X151350000Y-117342500D01*
X151350000Y-119542500D02*
X151350000Y-119242500D01*
X151350000Y-119542500D02*
X152150000Y-119542500D01*
X152150000Y-119542500D02*
X152150000Y-119242500D01*
X152300000Y-117542500D02*
X163100000Y-117542500D01*
X153540000Y-115792500D02*
X151350000Y-115792500D01*
X153540000Y-115792500D02*
X153540000Y-115392500D01*
X161860000Y-115792500D02*
X164050000Y-115792500D01*
X163250000Y-119542500D02*
X163250000Y-119242500D01*
X164050000Y-115792500D02*
X164050000Y-117342500D01*
X164050000Y-119542500D02*
X163250000Y-119542500D01*
X164050000Y-119542500D02*
X164050000Y-119242500D01*
%TO.C,J4*%
X140490000Y-109640000D02*
X140490000Y-103355000D01*
X141036529Y-109640000D02*
X140490000Y-109640000D01*
X141292470Y-103355000D02*
X140490000Y-103355000D01*
X142710000Y-103355000D02*
X141907530Y-103355000D01*
X142710000Y-109640000D02*
X142163471Y-109640000D01*
X142710000Y-109640000D02*
X142710000Y-103355000D01*
X142710000Y-110400000D02*
X142710000Y-111160000D01*
X142710000Y-111160000D02*
X141600000Y-111160000D01*
%TO.C,SW1*%
X160354636Y-109458313D02*
X161500000Y-108300000D01*
X160354636Y-109458313D02*
X162200000Y-111300000D01*
X165657937Y-104155012D02*
X164500000Y-105300000D01*
X165657937Y-104155012D02*
X167300000Y-105800000D01*
X165657937Y-114761614D02*
X163800000Y-112900000D01*
X165657937Y-114761614D02*
X166800000Y-113600000D01*
X170961238Y-109458313D02*
X169000000Y-107500000D01*
X170961238Y-109458313D02*
X169800000Y-110600000D01*
%TO.C,SW2*%
X167400000Y-101392500D02*
X157400000Y-101392500D01*
X157400000Y-101392500D02*
X157400000Y-91392500D01*
X157400000Y-91392500D02*
X167400000Y-91392500D01*
X167400000Y-91392500D02*
X167400000Y-101392500D01*
%TD*%
%LPC*%
D13*
%TO.C,J2*%
X148120000Y-93000000D03*
X145580000Y-93000000D03*
X143040000Y-93000000D03*
D14*
X140500000Y-93000000D03*
%TD*%
D15*
%TO.C,J1*%
X153950000Y-115592500D03*
X154450000Y-115592500D03*
X154950000Y-115592500D03*
X155450000Y-115592500D03*
X155950000Y-115592500D03*
X156450000Y-115592500D03*
X156950000Y-115592500D03*
X157450000Y-115592500D03*
X157950000Y-115592500D03*
X158450000Y-115592500D03*
X158950000Y-115592500D03*
X159450000Y-115592500D03*
X159950000Y-115592500D03*
X160450000Y-115592500D03*
X160950000Y-115592500D03*
X161450000Y-115592500D03*
D16*
X151650000Y-118292500D03*
X163750000Y-118292500D03*
%TD*%
D17*
%TO.C,J3*%
X133480000Y-113995000D03*
D18*
X133480000Y-118175000D03*
D17*
X142120000Y-113995000D03*
D18*
X142120000Y-118175000D03*
D19*
X134910000Y-114495000D03*
X140690000Y-114495000D03*
%TD*%
D20*
%TO.C,J4*%
X141600000Y-104050000D03*
X141600000Y-105320000D03*
X141600000Y-106590000D03*
X141600000Y-107860000D03*
X141600000Y-109130000D03*
D21*
X141600000Y-110400000D03*
%TD*%
D22*
%TO.C,SW1*%
X164137658Y-105922779D03*
X163130030Y-106930406D03*
X162122403Y-107938033D03*
X169193471Y-110978592D03*
X168185844Y-111986220D03*
X167178217Y-112993847D03*
D23*
X168380298Y-106453109D03*
X162794155Y-112322095D03*
%TD*%
D24*
%TO.C,SW2*%
X166240000Y-100192500D03*
X163700000Y-100192500D03*
X161160000Y-100192500D03*
X158620000Y-100192500D03*
X163700000Y-92572500D03*
%TD*%
%LPD*%
M02*
