%TF.GenerationSoftware,KiCad,Pcbnew,7.0.5*%
%TF.CreationDate,2023-07-02T21:33:01+09:00*%
%TF.ProjectId,robotrace_v2_Extended_UI,726f626f-7472-4616-9365-5f76325f4578,rev?*%
%TF.SameCoordinates,Original*%
%TF.FileFunction,Copper,L2,Bot*%
%TF.FilePolarity,Positive*%
%FSLAX46Y46*%
G04 Gerber Fmt 4.6, Leading zero omitted, Abs format (unit mm)*
G04 Created by KiCad (PCBNEW 7.0.5) date 2023-07-02 21:33:01*
%MOMM*%
%LPD*%
G01*
G04 APERTURE LIST*
G04 Aperture macros list*
%AMRoundRect*
0 Rectangle with rounded corners*
0 $1 Rounding radius*
0 $2 $3 $4 $5 $6 $7 $8 $9 X,Y pos of 4 corners*
0 Add a 4 corners polygon primitive as box body*
4,1,4,$2,$3,$4,$5,$6,$7,$8,$9,$2,$3,0*
0 Add four circle primitives for the rounded corners*
1,1,$1+$1,$2,$3*
1,1,$1+$1,$4,$5*
1,1,$1+$1,$6,$7*
1,1,$1+$1,$8,$9*
0 Add four rect primitives between the rounded corners*
20,1,$1+$1,$2,$3,$4,$5,0*
20,1,$1+$1,$4,$5,$6,$7,0*
20,1,$1+$1,$6,$7,$8,$9,0*
20,1,$1+$1,$8,$9,$2,$3,0*%
G04 Aperture macros list end*
%TA.AperFunction,ComponentPad*%
%ADD10O,1.700000X1.700000*%
%TD*%
%TA.AperFunction,ComponentPad*%
%ADD11R,1.700000X1.700000*%
%TD*%
%TA.AperFunction,SMDPad,CuDef*%
%ADD12RoundRect,0.237500X0.237500X-0.250000X0.237500X0.250000X-0.237500X0.250000X-0.237500X-0.250000X0*%
%TD*%
%TA.AperFunction,SMDPad,CuDef*%
%ADD13RoundRect,0.237500X-0.237500X0.250000X-0.237500X-0.250000X0.237500X-0.250000X0.237500X0.250000X0*%
%TD*%
%TA.AperFunction,SMDPad,CuDef*%
%ADD14RoundRect,0.155000X-0.155000X0.212500X-0.155000X-0.212500X0.155000X-0.212500X0.155000X0.212500X0*%
%TD*%
%TA.AperFunction,ComponentPad*%
%ADD15O,1.000000X2.100000*%
%TD*%
%TA.AperFunction,ComponentPad*%
%ADD16O,1.000000X1.600000*%
%TD*%
%TA.AperFunction,SMDPad,CuDef*%
%ADD17R,0.300000X1.150000*%
%TD*%
%TA.AperFunction,ComponentPad*%
%ADD18O,1.000000X1.000000*%
%TD*%
%TA.AperFunction,ComponentPad*%
%ADD19R,1.000000X1.000000*%
%TD*%
%TA.AperFunction,ComponentPad*%
%ADD20C,1.524000*%
%TD*%
%TA.AperFunction,ViaPad*%
%ADD21C,0.600000*%
%TD*%
%TA.AperFunction,ViaPad*%
%ADD22C,0.700000*%
%TD*%
%TA.AperFunction,Conductor*%
%ADD23C,0.800000*%
%TD*%
%TA.AperFunction,Conductor*%
%ADD24C,0.500000*%
%TD*%
%TA.AperFunction,Conductor*%
%ADD25C,0.300000*%
%TD*%
%TA.AperFunction,Conductor*%
%ADD26C,0.600000*%
%TD*%
G04 APERTURE END LIST*
D10*
%TO.P,J2,4,Pin_4*%
%TO.N,SDA*%
X148120000Y-93000000D03*
%TO.P,J2,3,Pin_3*%
%TO.N,SCL*%
X145580000Y-93000000D03*
%TO.P,J2,2,Pin_2*%
%TO.N,+5V*%
X143040000Y-93000000D03*
D11*
%TO.P,J2,1,Pin_1*%
%TO.N,GND*%
X140500000Y-93000000D03*
%TD*%
D12*
%TO.P,R1,1*%
%TO.N,+3V3*%
X152300000Y-118023389D03*
%TO.P,R1,2*%
%TO.N,5Dir_IN1*%
X152300000Y-116198389D03*
%TD*%
D13*
%TO.P,R9,1*%
%TO.N,+3V3*%
X158700000Y-96567500D03*
%TO.P,R9,2*%
%TO.N,Rotary_IN1*%
X158700000Y-98392500D03*
%TD*%
D12*
%TO.P,R3,1*%
%TO.N,+3V3*%
X158700000Y-117892500D03*
%TO.P,R3,2*%
%TO.N,5Dir_IN3*%
X158700000Y-116067500D03*
%TD*%
%TO.P,R5,1*%
%TO.N,+3V3*%
X165100000Y-117892500D03*
%TO.P,R5,2*%
%TO.N,5Dir_IN5*%
X165100000Y-116067500D03*
%TD*%
D13*
%TO.P,R8,1*%
%TO.N,+3V3*%
X161200000Y-96567500D03*
%TO.P,R8,2*%
%TO.N,Rotary_IN2*%
X161200000Y-98392500D03*
%TD*%
D14*
%TO.P,C3,1*%
%TO.N,5Dir_IN3*%
X157100000Y-116443389D03*
%TO.P,C3,2*%
%TO.N,GND*%
X157100000Y-117578389D03*
%TD*%
D15*
%TO.P,J3,S1,SHIELD*%
%TO.N,GND*%
X133480000Y-113995000D03*
D16*
X133480000Y-118175000D03*
D15*
X142120000Y-113995000D03*
D16*
X142120000Y-118175000D03*
D17*
%TO.P,J3,B12,GND*%
X140850000Y-113430000D03*
%TO.P,J3,B9,VBUS*%
%TO.N,U5V*%
X140050000Y-113430000D03*
%TO.P,J3,B8,SBU2*%
%TO.N,SWDIO*%
X139550000Y-113430000D03*
%TO.P,J3,B7,D-*%
%TO.N,SWO*%
X138550000Y-113430000D03*
%TO.P,J3,B6,D+*%
%TO.N,SWCLK*%
X137050000Y-113430000D03*
%TO.P,J3,B5,CC2*%
%TO.N,RESET*%
X136050000Y-113430000D03*
%TO.P,J3,B4,VBUS*%
%TO.N,U5V*%
X135550000Y-113430000D03*
%TO.P,J3,B1,GND*%
%TO.N,GND*%
X134750000Y-113430000D03*
%TO.P,J3,A12,GND*%
X134450000Y-113430000D03*
%TO.P,J3,A9,VBUS*%
%TO.N,U5V*%
X135250000Y-113430000D03*
%TO.P,J3,A8,SBU1*%
%TO.N,SWDIO*%
X136550000Y-113430000D03*
%TO.P,J3,A7,D-*%
%TO.N,SWO*%
X137550000Y-113430000D03*
%TO.P,J3,A6,D+*%
%TO.N,SWCLK*%
X138050000Y-113430000D03*
%TO.P,J3,A5,CC1*%
%TO.N,RESET*%
X139050000Y-113430000D03*
%TO.P,J3,A4,VBUS*%
%TO.N,U5V*%
X140350000Y-113430000D03*
%TO.P,J3,A1,GND*%
%TO.N,GND*%
X141150000Y-113430000D03*
%TD*%
D13*
%TO.P,R7,1*%
%TO.N,+3V3*%
X163700000Y-96567500D03*
%TO.P,R7,2*%
%TO.N,Rotary_IN3*%
X163700000Y-98392500D03*
%TD*%
D14*
%TO.P,C2,1*%
%TO.N,5Dir_IN2*%
X153900000Y-116506778D03*
%TO.P,C2,2*%
%TO.N,GND*%
X153900000Y-117641778D03*
%TD*%
D12*
%TO.P,R4,1*%
%TO.N,+3V3*%
X161900000Y-117892500D03*
%TO.P,R4,2*%
%TO.N,5Dir_IN4*%
X161900000Y-116067500D03*
%TD*%
D18*
%TO.P,J4,6,Pin_6*%
%TO.N,U5V*%
X141600000Y-104050000D03*
%TO.P,J4,5,Pin_5*%
%TO.N,SWDIO*%
X141600000Y-105320000D03*
%TO.P,J4,4,Pin_4*%
%TO.N,SWCLK*%
X141600000Y-106590000D03*
%TO.P,J4,3,Pin_3*%
%TO.N,SWO*%
X141600000Y-107860000D03*
%TO.P,J4,2,Pin_2*%
%TO.N,RESET*%
X141600000Y-109130000D03*
D19*
%TO.P,J4,1,Pin_1*%
%TO.N,GND*%
X141600000Y-110400000D03*
%TD*%
D14*
%TO.P,C1,1*%
%TO.N,5Dir_IN1*%
X150600000Y-116543389D03*
%TO.P,C1,2*%
%TO.N,GND*%
X150600000Y-117678389D03*
%TD*%
D12*
%TO.P,R2,1*%
%TO.N,+3V3*%
X155500000Y-117923389D03*
%TO.P,R2,2*%
%TO.N,5Dir_IN2*%
X155500000Y-116098389D03*
%TD*%
D14*
%TO.P,C5,1*%
%TO.N,5Dir_IN5*%
X163500000Y-116443389D03*
%TO.P,C5,2*%
%TO.N,GND*%
X163500000Y-117578389D03*
%TD*%
D13*
%TO.P,R6,1*%
%TO.N,+3V3*%
X166200000Y-96567500D03*
%TO.P,R6,2*%
%TO.N,Rotary_IN4*%
X166200000Y-98392500D03*
%TD*%
D14*
%TO.P,C4,1*%
%TO.N,5Dir_IN4*%
X160300000Y-116443389D03*
%TO.P,C4,2*%
%TO.N,GND*%
X160300000Y-117578389D03*
%TD*%
D20*
%TO.P,SW2,1,1*%
%TO.N,Rotary_IN4*%
X166240000Y-100192500D03*
%TO.P,SW2,2,2*%
%TO.N,Rotary_IN3*%
X163700000Y-100192500D03*
%TO.P,SW2,4,4*%
%TO.N,Rotary_IN2*%
X161160000Y-100192500D03*
%TO.P,SW2,8,8*%
%TO.N,Rotary_IN1*%
X158620000Y-100192500D03*
%TO.P,SW2,C,C*%
%TO.N,GND*%
X163700000Y-92572500D03*
%TD*%
D21*
%TO.N,Rotary_IN1*%
X159000000Y-113592500D03*
%TO.N,5Dir_IN5*%
X158100000Y-112300000D03*
%TO.N,5Dir_IN1*%
X158100000Y-108550000D03*
%TO.N,5Dir_IN2*%
X158100000Y-109500000D03*
%TO.N,Rotary_IN3*%
X161900000Y-111200000D03*
%TO.N,Rotary_IN2*%
X160500000Y-112400000D03*
D22*
%TO.N,+3V3*%
X167500000Y-115100000D03*
D21*
%TO.N,5Dir_IN3*%
X158100000Y-110450000D03*
%TO.N,5Dir_IN4*%
X158100000Y-111400000D03*
%TO.N,Rotary_IN4*%
X164846250Y-112346250D03*
%TD*%
D23*
%TO.N,+3V3*%
X169800000Y-98700000D02*
X167667500Y-96567500D01*
X169800000Y-112800000D02*
X169800000Y-98700000D01*
X167667500Y-96567500D02*
X166200000Y-96567500D01*
X167500000Y-115100000D02*
X169800000Y-112800000D01*
D24*
%TO.N,Rotary_IN3*%
X161900000Y-111200000D02*
X163700000Y-109400000D01*
X163700000Y-109400000D02*
X163700000Y-100192500D01*
%TO.N,Rotary_IN4*%
X166240000Y-110952500D02*
X166240000Y-100192500D01*
X164846250Y-112346250D02*
X166240000Y-110952500D01*
%TO.N,Rotary_IN2*%
X161160000Y-108732500D02*
X161160000Y-100192500D01*
X160500000Y-109392500D02*
X161160000Y-108732500D01*
X160500000Y-112400000D02*
X160500000Y-109392500D01*
D23*
%TO.N,+3V3*%
X167500000Y-118092500D02*
X165700000Y-119892500D01*
X167500000Y-115100000D02*
X167500000Y-118092500D01*
D24*
%TO.N,Rotary_IN1*%
X159000000Y-113592500D02*
X159000000Y-100572500D01*
X159000000Y-100572500D02*
X158620000Y-100192500D01*
%TO.N,5Dir_IN1*%
X158100000Y-108550000D02*
X152300000Y-114350000D01*
X152300000Y-114350000D02*
X152300000Y-116198389D01*
D25*
%TO.N,GND*%
X140500000Y-94700000D02*
X140500000Y-93000000D01*
X133480000Y-101720000D02*
X140500000Y-94700000D01*
X133480000Y-113995000D02*
X133480000Y-101720000D01*
D24*
%TO.N,5Dir_IN4*%
X158492500Y-115092500D02*
X160925000Y-115092500D01*
X161100000Y-115267500D02*
X161100000Y-116067500D01*
%TO.N,5Dir_IN3*%
X157017500Y-116067500D02*
X158700000Y-116067500D01*
X156600000Y-115650000D02*
X157017500Y-116067500D01*
X156600000Y-111950000D02*
X156600000Y-115650000D01*
X158100000Y-110450000D02*
X156600000Y-111950000D01*
%TO.N,5Dir_IN4*%
X157350000Y-113950000D02*
X158492500Y-115092500D01*
X158075104Y-111400000D02*
X157350000Y-112125104D01*
X158100000Y-111400000D02*
X158075104Y-111400000D01*
X157350000Y-112125104D02*
X157350000Y-113950000D01*
%TO.N,5Dir_IN2*%
X155500000Y-112100000D02*
X155500000Y-116098389D01*
X158100000Y-109500000D02*
X155500000Y-112100000D01*
X154308389Y-116098389D02*
X153900000Y-116506778D01*
X155500000Y-116098389D02*
X154308389Y-116098389D01*
%TO.N,5Dir_IN5*%
X163425000Y-114392500D02*
X164512500Y-115480000D01*
X158875104Y-114392500D02*
X163425000Y-114392500D01*
X158100000Y-113617396D02*
X158875104Y-114392500D01*
X158100000Y-112300000D02*
X158100000Y-113617396D01*
D25*
%TO.N,GND*%
X150103389Y-118175000D02*
X150600000Y-117678389D01*
X142120000Y-118175000D02*
X150103389Y-118175000D01*
X142120000Y-118175000D02*
X133480000Y-118175000D01*
%TO.N,SWDIO*%
X142800000Y-106000000D02*
X142120000Y-105320000D01*
X142200000Y-111400000D02*
X142800000Y-110800000D01*
X142120000Y-105320000D02*
X141600000Y-105320000D01*
X140400000Y-111400000D02*
X142200000Y-111400000D01*
X139550000Y-112250000D02*
X140400000Y-111400000D01*
X142800000Y-110800000D02*
X142800000Y-106000000D01*
X139550000Y-113430000D02*
X139550000Y-112250000D01*
D26*
%TO.N,U5V*%
X140600000Y-112100000D02*
X140200000Y-112500000D01*
X142400000Y-112100000D02*
X140600000Y-112100000D01*
X143600000Y-110900000D02*
X142400000Y-112100000D01*
X142450000Y-104050000D02*
X143600000Y-105200000D01*
X141600000Y-104050000D02*
X142450000Y-104050000D01*
X143600000Y-105200000D02*
X143600000Y-110900000D01*
X141597207Y-104050000D02*
X135400000Y-110247207D01*
X141600000Y-104050000D02*
X141597207Y-104050000D01*
X135400000Y-110247207D02*
X135400000Y-112700000D01*
D25*
%TO.N,RESET*%
X139050000Y-111350000D02*
X139050000Y-113430000D01*
X141270000Y-109130000D02*
X139050000Y-111350000D01*
X141600000Y-109130000D02*
X141270000Y-109130000D01*
%TO.N,SWO*%
X141440000Y-107860000D02*
X138550000Y-110750000D01*
%TO.N,SWCLK*%
X141510000Y-106590000D02*
X137575000Y-110525000D01*
X141600000Y-106590000D02*
X141510000Y-106590000D01*
%TO.N,SWDIO*%
X136550000Y-110350000D02*
X136550000Y-113430000D01*
%TO.N,SWO*%
X138550000Y-110750000D02*
X138550000Y-113430000D01*
%TO.N,SWDIO*%
X141580000Y-105320000D02*
X136550000Y-110350000D01*
X141600000Y-105320000D02*
X141580000Y-105320000D01*
%TO.N,SWCLK*%
X137575000Y-110525000D02*
X137575000Y-111475000D01*
%TO.N,SWO*%
X141600000Y-107860000D02*
X141440000Y-107860000D01*
%TO.N,U5V*%
X140350000Y-113430000D02*
X140350000Y-112650000D01*
X140350000Y-112650000D02*
X140200000Y-112500000D01*
D23*
%TO.N,Rotary_IN3*%
X163700000Y-98392500D02*
X163700000Y-100192500D01*
%TO.N,Rotary_IN2*%
X161200000Y-98392500D02*
X161200000Y-100152500D01*
%TO.N,Rotary_IN4*%
X166200000Y-98392500D02*
X166200000Y-100152500D01*
X166200000Y-100152500D02*
X166240000Y-100192500D01*
D24*
%TO.N,5Dir_IN4*%
X161900000Y-116067500D02*
X160925000Y-115092500D01*
X161100000Y-116067500D02*
X160675889Y-116067500D01*
D23*
%TO.N,Rotary_IN2*%
X161200000Y-100152500D02*
X161160000Y-100192500D01*
D24*
%TO.N,5Dir_IN3*%
X158700000Y-116067500D02*
X157475889Y-116067500D01*
%TO.N,5Dir_IN5*%
X163875889Y-116067500D02*
X163925000Y-116067500D01*
%TO.N,5Dir_IN4*%
X160925000Y-115092500D02*
X161100000Y-115267500D01*
%TO.N,5Dir_IN5*%
X165100000Y-116067500D02*
X163875889Y-116067500D01*
X163925000Y-116067500D02*
X164512500Y-115480000D01*
%TO.N,5Dir_IN3*%
X157475889Y-116067500D02*
X157100000Y-116443389D01*
D23*
%TO.N,Rotary_IN1*%
X158620000Y-98472500D02*
X158620000Y-100192500D01*
D24*
%TO.N,5Dir_IN4*%
X161900000Y-116067500D02*
X161100000Y-116067500D01*
X160675889Y-116067500D02*
X160300000Y-116443389D01*
%TO.N,5Dir_IN5*%
X163875889Y-116067500D02*
X163500000Y-116443389D01*
X165100000Y-116067500D02*
X164512500Y-115480000D01*
D23*
%TO.N,Rotary_IN1*%
X158700000Y-98392500D02*
X158620000Y-98472500D01*
D24*
%TO.N,5Dir_IN1*%
X150945000Y-116198389D02*
X150600000Y-116543389D01*
D25*
%TO.N,SWCLK*%
X138000000Y-112000000D02*
X137800000Y-112000000D01*
%TO.N,SWO*%
X137745000Y-114500000D02*
X138355000Y-114500000D01*
X137550000Y-114305000D02*
X137745000Y-114500000D01*
%TO.N,SWCLK*%
X138050000Y-111950000D02*
X138050000Y-112500000D01*
X138050000Y-112500000D02*
X138050000Y-113430000D01*
%TO.N,RESET*%
X138520685Y-114900000D02*
X136600000Y-114900000D01*
%TO.N,SWCLK*%
X138050000Y-111950000D02*
X138000000Y-112000000D01*
%TO.N,SWO*%
X138550000Y-114305000D02*
X138550000Y-113430000D01*
%TO.N,SWCLK*%
X137575000Y-111475000D02*
X137800000Y-111700000D01*
X137400000Y-112000000D02*
X137050000Y-112000000D01*
X137050000Y-112000000D02*
X137275000Y-111775000D01*
X137800000Y-111700000D02*
X138050000Y-111950000D01*
X137800000Y-112000000D02*
X137400000Y-112000000D01*
X137275000Y-111775000D02*
X137575000Y-111475000D01*
%TO.N,RESET*%
X136600000Y-114900000D02*
X136050000Y-114350000D01*
X139050000Y-113430000D02*
X139050000Y-114370686D01*
X139050000Y-114370686D02*
X138520685Y-114900000D01*
%TO.N,SWCLK*%
X137050000Y-113430000D02*
X137050000Y-112500000D01*
X137050000Y-112350000D02*
X137400000Y-112000000D01*
%TO.N,SWO*%
X138355000Y-114500000D02*
X138550000Y-114305000D01*
%TO.N,SWCLK*%
X137050000Y-112500000D02*
X137050000Y-112000000D01*
X138050000Y-112350000D02*
X137700000Y-112000000D01*
X137350000Y-111700000D02*
X137800000Y-111700000D01*
X137275000Y-111775000D02*
X137350000Y-111700000D01*
%TO.N,SWO*%
X137550000Y-113430000D02*
X137550000Y-114305000D01*
%TO.N,SWCLK*%
X137050000Y-112500000D02*
X137050000Y-112350000D01*
%TO.N,RESET*%
X136050000Y-114350000D02*
X136050000Y-113430000D01*
%TO.N,SWCLK*%
X138050000Y-112500000D02*
X138050000Y-112350000D01*
D24*
%TO.N,5Dir_IN1*%
X152300000Y-116198389D02*
X150945000Y-116198389D01*
D23*
%TO.N,+3V3*%
X158700000Y-96567500D02*
X166200000Y-96567500D01*
X155500000Y-117923389D02*
X155500000Y-119292500D01*
X156100000Y-119892500D02*
X155500000Y-119892500D01*
X165100000Y-119892500D02*
X164500000Y-119892500D01*
X165700000Y-119892500D02*
X165100000Y-119892500D01*
X164500000Y-119892500D02*
X162500000Y-119892500D01*
X162500000Y-119892500D02*
X161900000Y-119892500D01*
X161300000Y-119892500D02*
X159300000Y-119892500D01*
X153400000Y-119892500D02*
X152300000Y-118792500D01*
X161900000Y-119292500D02*
X162500000Y-119892500D01*
X159300000Y-119892500D02*
X158700000Y-119892500D01*
X155500000Y-119292500D02*
X155500000Y-119892500D01*
X152300000Y-118792500D02*
X152300000Y-118023389D01*
X161900000Y-119292500D02*
X161300000Y-119892500D01*
X158100000Y-119892500D02*
X156100000Y-119892500D01*
X158700000Y-119292500D02*
X158100000Y-119892500D01*
X158700000Y-119892500D02*
X158100000Y-119892500D01*
X158700000Y-119292500D02*
X158700000Y-119892500D01*
X165100000Y-117892500D02*
X165100000Y-119292500D01*
X165100000Y-119292500D02*
X165100000Y-119892500D01*
X165100000Y-119292500D02*
X165700000Y-119892500D01*
X161900000Y-117892500D02*
X161900000Y-119292500D01*
X155500000Y-119892500D02*
X154900000Y-119892500D01*
X154900000Y-119892500D02*
X153400000Y-119892500D01*
X161900000Y-119892500D02*
X161300000Y-119892500D01*
X155500000Y-119292500D02*
X154900000Y-119892500D01*
X161900000Y-119292500D02*
X161900000Y-119892500D01*
X158700000Y-119292500D02*
X159300000Y-119892500D01*
X155500000Y-119292500D02*
X156100000Y-119892500D01*
X158700000Y-117892500D02*
X158700000Y-119292500D01*
X165100000Y-119292500D02*
X164500000Y-119892500D01*
D25*
%TO.N,GND*%
X160723389Y-117155000D02*
X163076611Y-117155000D01*
X153900000Y-117641778D02*
X154355889Y-117185889D01*
X160300000Y-117578389D02*
X160723389Y-117155000D01*
X150992500Y-117285889D02*
X153544111Y-117285889D01*
X156707500Y-117185889D02*
X157100000Y-117578389D01*
X157523389Y-117155000D02*
X159876611Y-117155000D01*
X163076611Y-117155000D02*
X163500000Y-117578389D01*
X150600000Y-117678389D02*
X150992500Y-117285889D01*
X153544111Y-117285889D02*
X153900000Y-117641778D01*
D24*
X133480000Y-113995000D02*
X133885000Y-113995000D01*
X142120000Y-113995000D02*
X141715000Y-113995000D01*
X133885000Y-113995000D02*
X134450000Y-113430000D01*
D25*
X154355889Y-117185889D02*
X156707500Y-117185889D01*
D24*
X133480000Y-118175000D02*
X133480000Y-113995000D01*
D25*
X159876611Y-117155000D02*
X160300000Y-117578389D01*
D24*
X142120000Y-118175000D02*
X142120000Y-113995000D01*
D25*
X157100000Y-117578389D02*
X157523389Y-117155000D01*
D24*
X141715000Y-113995000D02*
X141150000Y-113430000D01*
%TD*%
%TA.AperFunction,Conductor*%
%TO.N,U5V*%
G36*
X140443039Y-112519685D02*
G01*
X140488794Y-112572489D01*
X140500000Y-112624000D01*
X140500000Y-112827128D01*
X140499701Y-112833208D01*
X140499500Y-112835249D01*
X140499500Y-113863807D01*
X140479815Y-113930846D01*
X140427011Y-113976601D01*
X140422953Y-113978368D01*
X140393517Y-113990561D01*
X140346064Y-114000000D01*
X140024500Y-114000000D01*
X139957461Y-113980315D01*
X139911706Y-113927511D01*
X139900500Y-113876000D01*
X139900500Y-112624000D01*
X139920185Y-112556961D01*
X139972989Y-112511206D01*
X140024500Y-112500000D01*
X140376000Y-112500000D01*
X140443039Y-112519685D01*
G37*
%TD.AperFunction*%
%TD*%
%TA.AperFunction,Conductor*%
%TO.N,GND*%
G36*
X142409746Y-109439364D02*
G01*
X142445564Y-109499355D01*
X142449500Y-109530351D01*
X142449500Y-110603455D01*
X142429815Y-110670494D01*
X142413181Y-110691136D01*
X142091137Y-111013181D01*
X142029814Y-111046666D01*
X142003456Y-111049500D01*
X140449212Y-111049500D01*
X140423766Y-111046861D01*
X140422836Y-111046666D01*
X140414686Y-111044957D01*
X140414685Y-111044957D01*
X140414683Y-111044957D01*
X140382062Y-111049023D01*
X140374386Y-111049500D01*
X140370960Y-111049500D01*
X140350733Y-111052875D01*
X140348200Y-111053244D01*
X140298611Y-111059425D01*
X140291547Y-111061528D01*
X140284619Y-111063907D01*
X140240679Y-111087685D01*
X140238403Y-111088856D01*
X140193516Y-111110801D01*
X140187564Y-111115049D01*
X140181739Y-111119583D01*
X140147913Y-111156329D01*
X140146139Y-111158177D01*
X139612181Y-111692136D01*
X139550858Y-111725621D01*
X139481167Y-111720637D01*
X139425233Y-111678766D01*
X139400816Y-111613301D01*
X139400500Y-111604455D01*
X139400500Y-111546542D01*
X139420185Y-111479503D01*
X139436814Y-111458866D01*
X141125319Y-109770361D01*
X141186640Y-109736878D01*
X141256332Y-109741862D01*
X141270619Y-109748245D01*
X141349775Y-109789790D01*
X141514944Y-109830500D01*
X141685056Y-109830500D01*
X141850225Y-109789790D01*
X141947185Y-109738901D01*
X142000849Y-109710736D01*
X142000850Y-109710734D01*
X142000852Y-109710734D01*
X142128183Y-109597929D01*
X142223451Y-109459909D01*
X142277733Y-109415921D01*
X142347181Y-109408261D01*
X142409746Y-109439364D01*
G37*
%TD.AperFunction*%
%TA.AperFunction,Conductor*%
G36*
X170531407Y-91293098D02*
G01*
X170662979Y-91300486D01*
X170798965Y-91308123D01*
X170805858Y-91308899D01*
X171097633Y-91358474D01*
X171104408Y-91360021D01*
X171388798Y-91441951D01*
X171395359Y-91444248D01*
X171453962Y-91468522D01*
X171668782Y-91557504D01*
X171675032Y-91560514D01*
X171934071Y-91703679D01*
X171939933Y-91707362D01*
X172181315Y-91878632D01*
X172186737Y-91882956D01*
X172255512Y-91944417D01*
X172407414Y-92080165D01*
X172412334Y-92085085D01*
X172609540Y-92305758D01*
X172613869Y-92311187D01*
X172785134Y-92552562D01*
X172788823Y-92558433D01*
X172926802Y-92808088D01*
X172931981Y-92817459D01*
X172935000Y-92823728D01*
X173048251Y-93097140D01*
X173050550Y-93103708D01*
X173132477Y-93388086D01*
X173134025Y-93394869D01*
X173183598Y-93686629D01*
X173184377Y-93693544D01*
X173199402Y-93961097D01*
X173199500Y-93964574D01*
X173199500Y-117990758D01*
X173199402Y-117994235D01*
X173182721Y-118291270D01*
X173181942Y-118298184D01*
X173132401Y-118589757D01*
X173130853Y-118596541D01*
X173048976Y-118880742D01*
X173046677Y-118887309D01*
X172933499Y-119160548D01*
X172930480Y-119166817D01*
X172787417Y-119425670D01*
X172783715Y-119431562D01*
X172612570Y-119672768D01*
X172608232Y-119678208D01*
X172411156Y-119898736D01*
X172406236Y-119903656D01*
X172185708Y-120100732D01*
X172180268Y-120105070D01*
X171939062Y-120276215D01*
X171933170Y-120279917D01*
X171674317Y-120422980D01*
X171668048Y-120425999D01*
X171394809Y-120539177D01*
X171388242Y-120541476D01*
X171104041Y-120623353D01*
X171097257Y-120624901D01*
X170805684Y-120674442D01*
X170798770Y-120675221D01*
X170501735Y-120691902D01*
X170498258Y-120692000D01*
X165962409Y-120692000D01*
X165895370Y-120672315D01*
X165849615Y-120619511D01*
X165839671Y-120550353D01*
X165868696Y-120486797D01*
X165914957Y-120453439D01*
X166040362Y-120401494D01*
X166064013Y-120370096D01*
X166128282Y-120320782D01*
X166149983Y-120292499D01*
X166155311Y-120286422D01*
X167893922Y-118547811D01*
X167899999Y-118542483D01*
X167928282Y-118520782D01*
X168024536Y-118395341D01*
X168085044Y-118249262D01*
X168100500Y-118131861D01*
X168105682Y-118092500D01*
X168101030Y-118057169D01*
X168100500Y-118049071D01*
X168100500Y-117992501D01*
X168594645Y-117992501D01*
X168614039Y-118263660D01*
X168614040Y-118263667D01*
X168662472Y-118486305D01*
X168671825Y-118529301D01*
X168713953Y-118642250D01*
X168766830Y-118784019D01*
X168897109Y-119022607D01*
X168897110Y-119022608D01*
X168897113Y-119022613D01*
X169060029Y-119240242D01*
X169060033Y-119240246D01*
X169060038Y-119240252D01*
X169252247Y-119432461D01*
X169252253Y-119432466D01*
X169252258Y-119432471D01*
X169469887Y-119595387D01*
X169469891Y-119595389D01*
X169469892Y-119595390D01*
X169708481Y-119725669D01*
X169708480Y-119725669D01*
X169708484Y-119725670D01*
X169708487Y-119725672D01*
X169963199Y-119820675D01*
X170228840Y-119878461D01*
X170480604Y-119896467D01*
X170499999Y-119897855D01*
X170500000Y-119897855D01*
X170500001Y-119897855D01*
X170518100Y-119896560D01*
X170771160Y-119878461D01*
X171036801Y-119820675D01*
X171291513Y-119725672D01*
X171291517Y-119725669D01*
X171291519Y-119725669D01*
X171410813Y-119660529D01*
X171530113Y-119595387D01*
X171747742Y-119432471D01*
X171939971Y-119240242D01*
X172102887Y-119022613D01*
X172207470Y-118831083D01*
X172233169Y-118784019D01*
X172233169Y-118784017D01*
X172233172Y-118784013D01*
X172328175Y-118529301D01*
X172385961Y-118263660D01*
X172405355Y-117992500D01*
X172405230Y-117990758D01*
X172401951Y-117944902D01*
X172385961Y-117721340D01*
X172328175Y-117455699D01*
X172233172Y-117200987D01*
X172233170Y-117200984D01*
X172233169Y-117200980D01*
X172102890Y-116962392D01*
X172102889Y-116962391D01*
X172102887Y-116962387D01*
X171939971Y-116744758D01*
X171939966Y-116744753D01*
X171939961Y-116744747D01*
X171747752Y-116552538D01*
X171747746Y-116552533D01*
X171747742Y-116552529D01*
X171530113Y-116389613D01*
X171530108Y-116389610D01*
X171530107Y-116389609D01*
X171291518Y-116259330D01*
X171291519Y-116259330D01*
X171207643Y-116228046D01*
X171036801Y-116164325D01*
X171036794Y-116164323D01*
X171036793Y-116164323D01*
X170771167Y-116106540D01*
X170771160Y-116106539D01*
X170500001Y-116087145D01*
X170499999Y-116087145D01*
X170228839Y-116106539D01*
X170228832Y-116106540D01*
X169963206Y-116164323D01*
X169963202Y-116164324D01*
X169963199Y-116164325D01*
X169875187Y-116197152D01*
X169708480Y-116259330D01*
X169469892Y-116389609D01*
X169469891Y-116389610D01*
X169252259Y-116552528D01*
X169252247Y-116552538D01*
X169060038Y-116744747D01*
X169060028Y-116744759D01*
X168897110Y-116962391D01*
X168897109Y-116962392D01*
X168766830Y-117200980D01*
X168748217Y-117250884D01*
X168671825Y-117455699D01*
X168671824Y-117455702D01*
X168671823Y-117455706D01*
X168614040Y-117721332D01*
X168614039Y-117721339D01*
X168594645Y-117992498D01*
X168594645Y-117992501D01*
X168100500Y-117992501D01*
X168100500Y-115400096D01*
X168120185Y-115333057D01*
X168136814Y-115312420D01*
X170193923Y-113255310D01*
X170199998Y-113249984D01*
X170228282Y-113228282D01*
X170324536Y-113102841D01*
X170385044Y-112956762D01*
X170400500Y-112839361D01*
X170405682Y-112800000D01*
X170401030Y-112764669D01*
X170400500Y-112756571D01*
X170400500Y-98743427D01*
X170401031Y-98735326D01*
X170402411Y-98724849D01*
X170405682Y-98700000D01*
X170405057Y-98695256D01*
X170385044Y-98543239D01*
X170385042Y-98543234D01*
X170324538Y-98397163D01*
X170324535Y-98397158D01*
X170319880Y-98391092D01*
X170290758Y-98353139D01*
X170228282Y-98271718D01*
X170200005Y-98250020D01*
X170193904Y-98244669D01*
X169201960Y-97252725D01*
X168122820Y-96173585D01*
X168117480Y-96167495D01*
X168095782Y-96139218D01*
X167970341Y-96042964D01*
X167876971Y-96004289D01*
X167824262Y-95982456D01*
X167824260Y-95982455D01*
X167706861Y-95967000D01*
X167667500Y-95961818D01*
X167632170Y-95966469D01*
X167624072Y-95967000D01*
X166740989Y-95967000D01*
X166673950Y-95947315D01*
X166667356Y-95942771D01*
X166644474Y-95925883D01*
X166519848Y-95882274D01*
X166519849Y-95882274D01*
X166490260Y-95879500D01*
X166490256Y-95879500D01*
X165909744Y-95879500D01*
X165909740Y-95879500D01*
X165880150Y-95882274D01*
X165755525Y-95925883D01*
X165732644Y-95942771D01*
X165667015Y-95966741D01*
X165659011Y-95967000D01*
X164240989Y-95967000D01*
X164173950Y-95947315D01*
X164167356Y-95942771D01*
X164144474Y-95925883D01*
X164019848Y-95882274D01*
X164019849Y-95882274D01*
X163990260Y-95879500D01*
X163990256Y-95879500D01*
X163409744Y-95879500D01*
X163409740Y-95879500D01*
X163380150Y-95882274D01*
X163255525Y-95925883D01*
X163232644Y-95942771D01*
X163167015Y-95966741D01*
X163159011Y-95967000D01*
X161740989Y-95967000D01*
X161673950Y-95947315D01*
X161667356Y-95942771D01*
X161644474Y-95925883D01*
X161519848Y-95882274D01*
X161519849Y-95882274D01*
X161490260Y-95879500D01*
X161490256Y-95879500D01*
X160909744Y-95879500D01*
X160909740Y-95879500D01*
X160880150Y-95882274D01*
X160755525Y-95925883D01*
X160732644Y-95942771D01*
X160667015Y-95966741D01*
X160659011Y-95967000D01*
X159240989Y-95967000D01*
X159173950Y-95947315D01*
X159167356Y-95942771D01*
X159144474Y-95925883D01*
X159019848Y-95882274D01*
X159019849Y-95882274D01*
X158990260Y-95879500D01*
X158990256Y-95879500D01*
X158409744Y-95879500D01*
X158409740Y-95879500D01*
X158380150Y-95882274D01*
X158255523Y-95925884D01*
X158149289Y-96004288D01*
X158149288Y-96004289D01*
X158070884Y-96110523D01*
X158027274Y-96235150D01*
X158024500Y-96264739D01*
X158024500Y-96870260D01*
X158027274Y-96899849D01*
X158070884Y-97024476D01*
X158149288Y-97130710D01*
X158149289Y-97130711D01*
X158255523Y-97209115D01*
X158255524Y-97209115D01*
X158255525Y-97209116D01*
X158380151Y-97252725D01*
X158380150Y-97252725D01*
X158409740Y-97255500D01*
X158409744Y-97255500D01*
X158990260Y-97255500D01*
X159019849Y-97252725D01*
X159019848Y-97252724D01*
X159144475Y-97209116D01*
X159167356Y-97192228D01*
X159232985Y-97168259D01*
X159240989Y-97168000D01*
X160659011Y-97168000D01*
X160726050Y-97187685D01*
X160732644Y-97192229D01*
X160755525Y-97209116D01*
X160880151Y-97252725D01*
X160880150Y-97252725D01*
X160909740Y-97255500D01*
X160909744Y-97255500D01*
X161490260Y-97255500D01*
X161519849Y-97252725D01*
X161644475Y-97209116D01*
X161667356Y-97192228D01*
X161732985Y-97168259D01*
X161740989Y-97168000D01*
X163159011Y-97168000D01*
X163226050Y-97187685D01*
X163232644Y-97192229D01*
X163255525Y-97209116D01*
X163380151Y-97252725D01*
X163380150Y-97252725D01*
X163409740Y-97255500D01*
X163409744Y-97255500D01*
X163990260Y-97255500D01*
X164019849Y-97252725D01*
X164144475Y-97209116D01*
X164167356Y-97192228D01*
X164232985Y-97168259D01*
X164240989Y-97168000D01*
X165659011Y-97168000D01*
X165726050Y-97187685D01*
X165732644Y-97192229D01*
X165755525Y-97209116D01*
X165880151Y-97252725D01*
X165880150Y-97252725D01*
X165909740Y-97255500D01*
X165909744Y-97255500D01*
X166490260Y-97255500D01*
X166519849Y-97252725D01*
X166519848Y-97252724D01*
X166644475Y-97209116D01*
X166667356Y-97192228D01*
X166732985Y-97168259D01*
X166740989Y-97168000D01*
X167367403Y-97168000D01*
X167434442Y-97187685D01*
X167455084Y-97204319D01*
X169163181Y-98912416D01*
X169196666Y-98973739D01*
X169199500Y-99000097D01*
X169199500Y-112499902D01*
X169179815Y-112566941D01*
X169163181Y-112587583D01*
X167106096Y-114644668D01*
X167099994Y-114650019D01*
X167071720Y-114671715D01*
X167071717Y-114671718D01*
X167071718Y-114671718D01*
X167006080Y-114757259D01*
X167006079Y-114757259D01*
X166975464Y-114797157D01*
X166914956Y-114943237D01*
X166914955Y-114943239D01*
X166894318Y-115099998D01*
X166894318Y-115100000D01*
X166898969Y-115135326D01*
X166899500Y-115143427D01*
X166899500Y-117792402D01*
X166879815Y-117859441D01*
X166863181Y-117880083D01*
X165912180Y-118831083D01*
X165850857Y-118864568D01*
X165781165Y-118859584D01*
X165725232Y-118817712D01*
X165700815Y-118752248D01*
X165700499Y-118743417D01*
X165700499Y-118429051D01*
X165720184Y-118362013D01*
X165724733Y-118355413D01*
X165729116Y-118349475D01*
X165759142Y-118263667D01*
X165772725Y-118224851D01*
X165772725Y-118224849D01*
X165775500Y-118195260D01*
X165775500Y-117589739D01*
X165772725Y-117560150D01*
X165739924Y-117466412D01*
X165729116Y-117435525D01*
X165650711Y-117329289D01*
X165586329Y-117281773D01*
X165544476Y-117250884D01*
X165419848Y-117207274D01*
X165419849Y-117207274D01*
X165390260Y-117204500D01*
X165390256Y-117204500D01*
X164809744Y-117204500D01*
X164809740Y-117204500D01*
X164780150Y-117207274D01*
X164655523Y-117250884D01*
X164549289Y-117329288D01*
X164549288Y-117329289D01*
X164470884Y-117435523D01*
X164427274Y-117560150D01*
X164424500Y-117589739D01*
X164424500Y-118195260D01*
X164427274Y-118224849D01*
X164440858Y-118263667D01*
X164470884Y-118349475D01*
X164475269Y-118355416D01*
X164499241Y-118421044D01*
X164499500Y-118429051D01*
X164499500Y-118992403D01*
X164479815Y-119059442D01*
X164463181Y-119080084D01*
X164287584Y-119255681D01*
X164226261Y-119289166D01*
X164199903Y-119292000D01*
X162800097Y-119292000D01*
X162733058Y-119272315D01*
X162712416Y-119255681D01*
X162536819Y-119080083D01*
X162503334Y-119018760D01*
X162500500Y-118992402D01*
X162500500Y-118429051D01*
X162520185Y-118362012D01*
X162524731Y-118355416D01*
X162529116Y-118349475D01*
X162572725Y-118224849D01*
X162575500Y-118195256D01*
X162575500Y-117589744D01*
X162572725Y-117560151D01*
X162529116Y-117435525D01*
X162450711Y-117329289D01*
X162386329Y-117281773D01*
X162344476Y-117250884D01*
X162219848Y-117207274D01*
X162219849Y-117207274D01*
X162190260Y-117204500D01*
X162190256Y-117204500D01*
X161609744Y-117204500D01*
X161609740Y-117204500D01*
X161580150Y-117207274D01*
X161455523Y-117250884D01*
X161349289Y-117329288D01*
X161349288Y-117329289D01*
X161270884Y-117435523D01*
X161227274Y-117560150D01*
X161224500Y-117589739D01*
X161224500Y-118195260D01*
X161227274Y-118224849D01*
X161270884Y-118349475D01*
X161275272Y-118355421D01*
X161299241Y-118421050D01*
X161299499Y-118429051D01*
X161299499Y-118992403D01*
X161279814Y-119059442D01*
X161263180Y-119080084D01*
X161087584Y-119255681D01*
X161026261Y-119289166D01*
X160999903Y-119292000D01*
X159600097Y-119292000D01*
X159533058Y-119272315D01*
X159512416Y-119255681D01*
X159336818Y-119080083D01*
X159303333Y-119018760D01*
X159300499Y-118992410D01*
X159300499Y-118429051D01*
X159320184Y-118362013D01*
X159324733Y-118355413D01*
X159329116Y-118349475D01*
X159359142Y-118263667D01*
X159372725Y-118224851D01*
X159372725Y-118224849D01*
X159375500Y-118195260D01*
X159375500Y-117589739D01*
X159372725Y-117560150D01*
X159339924Y-117466412D01*
X159329116Y-117435525D01*
X159250711Y-117329289D01*
X159186329Y-117281773D01*
X159144476Y-117250884D01*
X159019848Y-117207274D01*
X159019849Y-117207274D01*
X158990260Y-117204500D01*
X158990256Y-117204500D01*
X158409744Y-117204500D01*
X158409740Y-117204500D01*
X158380150Y-117207274D01*
X158255523Y-117250884D01*
X158149289Y-117329288D01*
X158149288Y-117329289D01*
X158070884Y-117435523D01*
X158027274Y-117560150D01*
X158024500Y-117589739D01*
X158024500Y-118195260D01*
X158027274Y-118224849D01*
X158040858Y-118263667D01*
X158070884Y-118349475D01*
X158075269Y-118355416D01*
X158099241Y-118421044D01*
X158099500Y-118429051D01*
X158099500Y-118992402D01*
X158079815Y-119059441D01*
X158063181Y-119080083D01*
X157887584Y-119255681D01*
X157826261Y-119289166D01*
X157799903Y-119292000D01*
X156400097Y-119292000D01*
X156333058Y-119272315D01*
X156312416Y-119255681D01*
X156136819Y-119080084D01*
X156103334Y-119018761D01*
X156100500Y-118992403D01*
X156100500Y-118459940D01*
X156120185Y-118392901D01*
X156124731Y-118386305D01*
X156129116Y-118380364D01*
X156172725Y-118255738D01*
X156173332Y-118249262D01*
X156175500Y-118226149D01*
X156175500Y-117620628D01*
X156172725Y-117591039D01*
X156129115Y-117466412D01*
X156050711Y-117360178D01*
X156050710Y-117360177D01*
X155944476Y-117281773D01*
X155819848Y-117238163D01*
X155819849Y-117238163D01*
X155790260Y-117235389D01*
X155790256Y-117235389D01*
X155209744Y-117235389D01*
X155209740Y-117235389D01*
X155180150Y-117238163D01*
X155055523Y-117281773D01*
X154949289Y-117360177D01*
X154949288Y-117360178D01*
X154870884Y-117466412D01*
X154827274Y-117591039D01*
X154824500Y-117620628D01*
X154824500Y-118226149D01*
X154827274Y-118255738D01*
X154851912Y-118326145D01*
X154870884Y-118380364D01*
X154875269Y-118386305D01*
X154899241Y-118451933D01*
X154899500Y-118459940D01*
X154899500Y-118992403D01*
X154879815Y-119059442D01*
X154863181Y-119080084D01*
X154687584Y-119255681D01*
X154626261Y-119289166D01*
X154599903Y-119292000D01*
X153700097Y-119292000D01*
X153633058Y-119272315D01*
X153612416Y-119255681D01*
X152960357Y-118603622D01*
X152926872Y-118542299D01*
X152930996Y-118474989D01*
X152972725Y-118355738D01*
X152975500Y-118326145D01*
X152975500Y-117720633D01*
X152972725Y-117691040D01*
X152929116Y-117566414D01*
X152915559Y-117548045D01*
X152850711Y-117460178D01*
X152850710Y-117460177D01*
X152744476Y-117381773D01*
X152619848Y-117338163D01*
X152619849Y-117338163D01*
X152590260Y-117335389D01*
X152590256Y-117335389D01*
X152009744Y-117335389D01*
X152009740Y-117335389D01*
X151980150Y-117338163D01*
X151855523Y-117381773D01*
X151749289Y-117460177D01*
X151749288Y-117460178D01*
X151670884Y-117566412D01*
X151627274Y-117691039D01*
X151624500Y-117720628D01*
X151624500Y-118326149D01*
X151627274Y-118355738D01*
X151652929Y-118429052D01*
X151670884Y-118480364D01*
X151675269Y-118486305D01*
X151699241Y-118551933D01*
X151699500Y-118559940D01*
X151699500Y-118749071D01*
X151698969Y-118757173D01*
X151694318Y-118792499D01*
X151694318Y-118792500D01*
X151699500Y-118831860D01*
X151714955Y-118949260D01*
X151714956Y-118949262D01*
X151745336Y-119022607D01*
X151775464Y-119095341D01*
X151871718Y-119220782D01*
X151899995Y-119242480D01*
X151906085Y-119247820D01*
X152450813Y-119792548D01*
X152944669Y-120286404D01*
X152950022Y-120292507D01*
X152971718Y-120320782D01*
X153097337Y-120417174D01*
X153099032Y-120417812D01*
X153185044Y-120453439D01*
X153239447Y-120497280D01*
X153261512Y-120563574D01*
X153244233Y-120631273D01*
X153193096Y-120678884D01*
X153137591Y-120692000D01*
X128501742Y-120692000D01*
X128498265Y-120691902D01*
X128201229Y-120675221D01*
X128194315Y-120674442D01*
X127902742Y-120624901D01*
X127895958Y-120623353D01*
X127611757Y-120541476D01*
X127605190Y-120539177D01*
X127370282Y-120441876D01*
X127331947Y-120425997D01*
X127325682Y-120422980D01*
X127316338Y-120417816D01*
X127229990Y-120370093D01*
X127066829Y-120279917D01*
X127060937Y-120276215D01*
X126819731Y-120105070D01*
X126814291Y-120100732D01*
X126593763Y-119903656D01*
X126588843Y-119898736D01*
X126391767Y-119678208D01*
X126387429Y-119672768D01*
X126216284Y-119431562D01*
X126212582Y-119425670D01*
X126127794Y-119272258D01*
X126069515Y-119166809D01*
X126066505Y-119160560D01*
X125978983Y-118949262D01*
X125953322Y-118887309D01*
X125951023Y-118880742D01*
X125944927Y-118859584D01*
X125869146Y-118596541D01*
X125867598Y-118589757D01*
X125857325Y-118529293D01*
X125818055Y-118298170D01*
X125817279Y-118291282D01*
X125800596Y-117994219D01*
X125800548Y-117992501D01*
X126594645Y-117992501D01*
X126614039Y-118263660D01*
X126614040Y-118263667D01*
X126662472Y-118486305D01*
X126671825Y-118529301D01*
X126713953Y-118642250D01*
X126766830Y-118784019D01*
X126897109Y-119022607D01*
X126897110Y-119022608D01*
X126897113Y-119022613D01*
X127060029Y-119240242D01*
X127060033Y-119240246D01*
X127060038Y-119240252D01*
X127252247Y-119432461D01*
X127252253Y-119432466D01*
X127252258Y-119432471D01*
X127469887Y-119595387D01*
X127469891Y-119595389D01*
X127469892Y-119595390D01*
X127708481Y-119725669D01*
X127708480Y-119725669D01*
X127708484Y-119725670D01*
X127708487Y-119725672D01*
X127963199Y-119820675D01*
X128228840Y-119878461D01*
X128480604Y-119896467D01*
X128499999Y-119897855D01*
X128500000Y-119897855D01*
X128500001Y-119897855D01*
X128518100Y-119896560D01*
X128771160Y-119878461D01*
X129036801Y-119820675D01*
X129291513Y-119725672D01*
X129291517Y-119725669D01*
X129291519Y-119725669D01*
X129410812Y-119660529D01*
X129530113Y-119595387D01*
X129747742Y-119432471D01*
X129939971Y-119240242D01*
X130102887Y-119022613D01*
X130207470Y-118831083D01*
X130233169Y-118784019D01*
X130233169Y-118784017D01*
X130233172Y-118784013D01*
X130328175Y-118529301D01*
X130385961Y-118263660D01*
X130405355Y-117992500D01*
X130405230Y-117990758D01*
X130401951Y-117944902D01*
X130385961Y-117721340D01*
X130328175Y-117455699D01*
X130233172Y-117200987D01*
X130233170Y-117200984D01*
X130233169Y-117200980D01*
X130102890Y-116962392D01*
X130102889Y-116962391D01*
X130102887Y-116962387D01*
X129973563Y-116789631D01*
X150089500Y-116789631D01*
X150096839Y-116840004D01*
X150099567Y-116858731D01*
X150151676Y-116965319D01*
X150235569Y-117049212D01*
X150342157Y-117101321D01*
X150342158Y-117101321D01*
X150342160Y-117101322D01*
X150411258Y-117111389D01*
X150411264Y-117111389D01*
X150788736Y-117111389D01*
X150788742Y-117111389D01*
X150857840Y-117101322D01*
X150964429Y-117049213D01*
X151048324Y-116965318D01*
X151100433Y-116858729D01*
X151110500Y-116789631D01*
X151110500Y-116772888D01*
X151130185Y-116705850D01*
X151182989Y-116660095D01*
X151234500Y-116648889D01*
X151603507Y-116648889D01*
X151670546Y-116668574D01*
X151703277Y-116699256D01*
X151749288Y-116761599D01*
X151749289Y-116761600D01*
X151855523Y-116840004D01*
X151855524Y-116840004D01*
X151855525Y-116840005D01*
X151980151Y-116883614D01*
X151980150Y-116883614D01*
X152009740Y-116886389D01*
X152009744Y-116886389D01*
X152590260Y-116886389D01*
X152619849Y-116883614D01*
X152619849Y-116883613D01*
X152744475Y-116840005D01*
X152850711Y-116761600D01*
X152929116Y-116655364D01*
X152972725Y-116530738D01*
X152973903Y-116518173D01*
X152975500Y-116501149D01*
X152975500Y-115895628D01*
X152972725Y-115866039D01*
X152943823Y-115783445D01*
X152929116Y-115741414D01*
X152924493Y-115735150D01*
X152850713Y-115635180D01*
X152850707Y-115635175D01*
X152800866Y-115598390D01*
X152758615Y-115542742D01*
X152750500Y-115498620D01*
X152750500Y-114587965D01*
X152770185Y-114520926D01*
X152786819Y-114500284D01*
X153694604Y-113592499D01*
X154837821Y-112449281D01*
X154899142Y-112415798D01*
X154968834Y-112420782D01*
X155024767Y-112462654D01*
X155049184Y-112528118D01*
X155049500Y-112536964D01*
X155049500Y-115398620D01*
X155029815Y-115465659D01*
X154999134Y-115498390D01*
X154949292Y-115535175D01*
X154949286Y-115535180D01*
X154903277Y-115597522D01*
X154847630Y-115639773D01*
X154803507Y-115647889D01*
X154337172Y-115647889D01*
X154330233Y-115647499D01*
X154314711Y-115645750D01*
X154291352Y-115643118D01*
X154234061Y-115653959D01*
X154231776Y-115654347D01*
X154174104Y-115663040D01*
X154165921Y-115665564D01*
X154157918Y-115668365D01*
X154106350Y-115695619D01*
X154104281Y-115696664D01*
X154051746Y-115721963D01*
X154044727Y-115726748D01*
X154037849Y-115731824D01*
X153996628Y-115773045D01*
X153994960Y-115774652D01*
X153952193Y-115814335D01*
X153946402Y-115821597D01*
X153945751Y-115821078D01*
X153936359Y-115833314D01*
X153867217Y-115902458D01*
X153805894Y-115935944D01*
X153779534Y-115938778D01*
X153711258Y-115938778D01*
X153665192Y-115945489D01*
X153642157Y-115948845D01*
X153535569Y-116000954D01*
X153535568Y-116000956D01*
X153451677Y-116084846D01*
X153451676Y-116084847D01*
X153399567Y-116191435D01*
X153395791Y-116217349D01*
X153389500Y-116260536D01*
X153389500Y-116753020D01*
X153394362Y-116786389D01*
X153399567Y-116822120D01*
X153451676Y-116928708D01*
X153535569Y-117012601D01*
X153642157Y-117064710D01*
X153642158Y-117064710D01*
X153642160Y-117064711D01*
X153711258Y-117074778D01*
X153711264Y-117074778D01*
X154088736Y-117074778D01*
X154088742Y-117074778D01*
X154157840Y-117064711D01*
X154264429Y-117012602D01*
X154264430Y-117012601D01*
X154264432Y-117012600D01*
X154348322Y-116928710D01*
X154348323Y-116928708D01*
X154348324Y-116928707D01*
X154400433Y-116822118D01*
X154410500Y-116753020D01*
X154410500Y-116684743D01*
X154430185Y-116617704D01*
X154446819Y-116597062D01*
X154458673Y-116585208D01*
X154519996Y-116551723D01*
X154546354Y-116548889D01*
X154803507Y-116548889D01*
X154870546Y-116568574D01*
X154903277Y-116599256D01*
X154949288Y-116661599D01*
X154949289Y-116661600D01*
X155055523Y-116740004D01*
X155055524Y-116740004D01*
X155055525Y-116740005D01*
X155180151Y-116783614D01*
X155180150Y-116783614D01*
X155209740Y-116786389D01*
X155209744Y-116786389D01*
X155790260Y-116786389D01*
X155819849Y-116783614D01*
X155819849Y-116783613D01*
X155944475Y-116740005D01*
X156050711Y-116661600D01*
X156129116Y-116555364D01*
X156172725Y-116430738D01*
X156175500Y-116401145D01*
X156175500Y-116161965D01*
X156195185Y-116094926D01*
X156247989Y-116049171D01*
X156317147Y-116039227D01*
X156380703Y-116068252D01*
X156387169Y-116074273D01*
X156474862Y-116161965D01*
X156553181Y-116240284D01*
X156586666Y-116301607D01*
X156589500Y-116327965D01*
X156589500Y-116689631D01*
X156596839Y-116740004D01*
X156599567Y-116758731D01*
X156651676Y-116865319D01*
X156651678Y-116865320D01*
X156735568Y-116949211D01*
X156735569Y-116949212D01*
X156842157Y-117001321D01*
X156842158Y-117001321D01*
X156842160Y-117001322D01*
X156911258Y-117011389D01*
X156911264Y-117011389D01*
X157288736Y-117011389D01*
X157288742Y-117011389D01*
X157357840Y-117001322D01*
X157464429Y-116949213D01*
X157548324Y-116865318D01*
X157600433Y-116758729D01*
X157610500Y-116689631D01*
X157610500Y-116642000D01*
X157630185Y-116574961D01*
X157682989Y-116529206D01*
X157734500Y-116518000D01*
X158003507Y-116518000D01*
X158070546Y-116537685D01*
X158103277Y-116568367D01*
X158149288Y-116630710D01*
X158149289Y-116630711D01*
X158255523Y-116709115D01*
X158255524Y-116709115D01*
X158255525Y-116709116D01*
X158380151Y-116752725D01*
X158380150Y-116752725D01*
X158409740Y-116755500D01*
X158409744Y-116755500D01*
X158990260Y-116755500D01*
X159019849Y-116752725D01*
X159042617Y-116744758D01*
X159144475Y-116709116D01*
X159250711Y-116630711D01*
X159329116Y-116524475D01*
X159372725Y-116399849D01*
X159375500Y-116370256D01*
X159375500Y-115764744D01*
X159375340Y-115763041D01*
X159372725Y-115735151D01*
X159363209Y-115707956D01*
X159359646Y-115638178D01*
X159394374Y-115577550D01*
X159456367Y-115545322D01*
X159480250Y-115543000D01*
X160262886Y-115543000D01*
X160329925Y-115562685D01*
X160375680Y-115615489D01*
X160385624Y-115684647D01*
X160356599Y-115748203D01*
X160347228Y-115757898D01*
X160319692Y-115783447D01*
X160313902Y-115790708D01*
X160313251Y-115790189D01*
X160303860Y-115802424D01*
X160291951Y-115814334D01*
X160274462Y-115831824D01*
X160267218Y-115839068D01*
X160205895Y-115872554D01*
X160179534Y-115875389D01*
X160111258Y-115875389D01*
X160065192Y-115882100D01*
X160042157Y-115885456D01*
X159935569Y-115937565D01*
X159935568Y-115937567D01*
X159851678Y-116021457D01*
X159851676Y-116021458D01*
X159799567Y-116128046D01*
X159799567Y-116128049D01*
X159789500Y-116197147D01*
X159789500Y-116689631D01*
X159796839Y-116740004D01*
X159799567Y-116758731D01*
X159851676Y-116865319D01*
X159851678Y-116865320D01*
X159935568Y-116949211D01*
X159935569Y-116949212D01*
X160042157Y-117001321D01*
X160042158Y-117001321D01*
X160042160Y-117001322D01*
X160111258Y-117011389D01*
X160111264Y-117011389D01*
X160488736Y-117011389D01*
X160488742Y-117011389D01*
X160557840Y-117001322D01*
X160664429Y-116949213D01*
X160748324Y-116865318D01*
X160800433Y-116758729D01*
X160810500Y-116689631D01*
X160810500Y-116642000D01*
X160830185Y-116574961D01*
X160882989Y-116529206D01*
X160934500Y-116518000D01*
X161032098Y-116518000D01*
X161035268Y-116518000D01*
X161062859Y-116521108D01*
X161065954Y-116521815D01*
X161114561Y-116518172D01*
X161119178Y-116518000D01*
X161203507Y-116518000D01*
X161270546Y-116537685D01*
X161303277Y-116568367D01*
X161349288Y-116630710D01*
X161349289Y-116630711D01*
X161455523Y-116709115D01*
X161455524Y-116709115D01*
X161455525Y-116709116D01*
X161580151Y-116752725D01*
X161580150Y-116752725D01*
X161609740Y-116755500D01*
X161609744Y-116755500D01*
X162190260Y-116755500D01*
X162219849Y-116752725D01*
X162242617Y-116744758D01*
X162344475Y-116709116D01*
X162450711Y-116630711D01*
X162529116Y-116524475D01*
X162572725Y-116399849D01*
X162575500Y-116370256D01*
X162575500Y-115764744D01*
X162575340Y-115763041D01*
X162572725Y-115735150D01*
X162537743Y-115635180D01*
X162529116Y-115610525D01*
X162527904Y-115608883D01*
X162450711Y-115504289D01*
X162450710Y-115504288D01*
X162344476Y-115425884D01*
X162219848Y-115382274D01*
X162219849Y-115382274D01*
X162190260Y-115379500D01*
X162190256Y-115379500D01*
X161900465Y-115379500D01*
X161833426Y-115359815D01*
X161812784Y-115343181D01*
X161524284Y-115054681D01*
X161490799Y-114993358D01*
X161495783Y-114923666D01*
X161537655Y-114867733D01*
X161603119Y-114843316D01*
X161611965Y-114843000D01*
X163187034Y-114843000D01*
X163254073Y-114862685D01*
X163274715Y-114879319D01*
X163787715Y-115392319D01*
X163821200Y-115453642D01*
X163816216Y-115523334D01*
X163787716Y-115567679D01*
X163746513Y-115608883D01*
X163722729Y-115632667D01*
X163692990Y-115654615D01*
X163673860Y-115664726D01*
X163671790Y-115665771D01*
X163619242Y-115691077D01*
X163612227Y-115695859D01*
X163605349Y-115700935D01*
X163564128Y-115742156D01*
X163562460Y-115743763D01*
X163519693Y-115783446D01*
X163513902Y-115790708D01*
X163513251Y-115790189D01*
X163503860Y-115802424D01*
X163491951Y-115814334D01*
X163474462Y-115831824D01*
X163467218Y-115839068D01*
X163405895Y-115872554D01*
X163379534Y-115875389D01*
X163311258Y-115875389D01*
X163265192Y-115882100D01*
X163242157Y-115885456D01*
X163135569Y-115937565D01*
X163135568Y-115937567D01*
X163051678Y-116021457D01*
X163051676Y-116021458D01*
X162999567Y-116128046D01*
X162999567Y-116128049D01*
X162989500Y-116197147D01*
X162989500Y-116689631D01*
X162996839Y-116740004D01*
X162999567Y-116758731D01*
X163051676Y-116865319D01*
X163135569Y-116949212D01*
X163242157Y-117001321D01*
X163242158Y-117001321D01*
X163242160Y-117001322D01*
X163311258Y-117011389D01*
X163311264Y-117011389D01*
X163688736Y-117011389D01*
X163688742Y-117011389D01*
X163757840Y-117001322D01*
X163864429Y-116949213D01*
X163948324Y-116865318D01*
X164000433Y-116758729D01*
X164010500Y-116689631D01*
X164010500Y-116642000D01*
X164030185Y-116574961D01*
X164082989Y-116529206D01*
X164134500Y-116518000D01*
X164403507Y-116518000D01*
X164470546Y-116537685D01*
X164503277Y-116568367D01*
X164549288Y-116630710D01*
X164549289Y-116630711D01*
X164655523Y-116709115D01*
X164655524Y-116709115D01*
X164655525Y-116709116D01*
X164780151Y-116752725D01*
X164780150Y-116752725D01*
X164809740Y-116755500D01*
X164809744Y-116755500D01*
X165390260Y-116755500D01*
X165419849Y-116752725D01*
X165442617Y-116744758D01*
X165544475Y-116709116D01*
X165650711Y-116630711D01*
X165729116Y-116524475D01*
X165772725Y-116399849D01*
X165775500Y-116370256D01*
X165775500Y-115764744D01*
X165775340Y-115763041D01*
X165772725Y-115735150D01*
X165737743Y-115635180D01*
X165729116Y-115610525D01*
X165727904Y-115608883D01*
X165650711Y-115504289D01*
X165650710Y-115504288D01*
X165544476Y-115425884D01*
X165419848Y-115382274D01*
X165419849Y-115382274D01*
X165390260Y-115379500D01*
X165390256Y-115379500D01*
X165100465Y-115379500D01*
X165033426Y-115359815D01*
X165012784Y-115343181D01*
X164876824Y-115207221D01*
X164859509Y-115185508D01*
X164857826Y-115182829D01*
X164857820Y-115182822D01*
X164820887Y-115151039D01*
X164817487Y-115147884D01*
X163763908Y-114094305D01*
X163759271Y-114089117D01*
X163734877Y-114058528D01*
X163707872Y-114040117D01*
X163686669Y-114025661D01*
X163684803Y-114024336D01*
X163637886Y-113989710D01*
X163637882Y-113989707D01*
X163637877Y-113989705D01*
X163630297Y-113985698D01*
X163622675Y-113982028D01*
X163566941Y-113964837D01*
X163564752Y-113964117D01*
X163546297Y-113957660D01*
X163509695Y-113944852D01*
X163501326Y-113943268D01*
X163492904Y-113942000D01*
X163492902Y-113942000D01*
X163434578Y-113942000D01*
X163432294Y-113941957D01*
X163408402Y-113941063D01*
X163373989Y-113939775D01*
X163364756Y-113940816D01*
X163364662Y-113939986D01*
X163349364Y-113942000D01*
X159583559Y-113942000D01*
X159516520Y-113922315D01*
X159470765Y-113869511D01*
X159460821Y-113800353D01*
X159470765Y-113766488D01*
X159485165Y-113734956D01*
X159505647Y-113592500D01*
X159485165Y-113450043D01*
X159482484Y-113444173D01*
X159461706Y-113398674D01*
X159450500Y-113347163D01*
X159450500Y-112400000D01*
X159994353Y-112400000D01*
X160014834Y-112542456D01*
X160043105Y-112604359D01*
X160074623Y-112673373D01*
X160168872Y-112782143D01*
X160289947Y-112859953D01*
X160289950Y-112859954D01*
X160289949Y-112859954D01*
X160428036Y-112900499D01*
X160428038Y-112900500D01*
X160428039Y-112900500D01*
X160571962Y-112900500D01*
X160571962Y-112900499D01*
X160710053Y-112859953D01*
X160831128Y-112782143D01*
X160925377Y-112673373D01*
X160985165Y-112542457D01*
X161005647Y-112400000D01*
X160997919Y-112346250D01*
X164340603Y-112346250D01*
X164361084Y-112488706D01*
X164413902Y-112604359D01*
X164420873Y-112619623D01*
X164515122Y-112728393D01*
X164636197Y-112806203D01*
X164636200Y-112806204D01*
X164636199Y-112806204D01*
X164716061Y-112829653D01*
X164764463Y-112843865D01*
X164774286Y-112846749D01*
X164774288Y-112846750D01*
X164774289Y-112846750D01*
X164918212Y-112846750D01*
X164918212Y-112846749D01*
X165056303Y-112806203D01*
X165177378Y-112728393D01*
X165271627Y-112619623D01*
X165314153Y-112526502D01*
X165339260Y-112490342D01*
X166538205Y-111291396D01*
X166543373Y-111286777D01*
X166573970Y-111262379D01*
X166606865Y-111214129D01*
X166608131Y-111212345D01*
X166642793Y-111165382D01*
X166642793Y-111165379D01*
X166642795Y-111165378D01*
X166646787Y-111157824D01*
X166650471Y-111150175D01*
X166651702Y-111146185D01*
X166667673Y-111094402D01*
X166668382Y-111092249D01*
X166687646Y-111037199D01*
X166687646Y-111037196D01*
X166689232Y-111028811D01*
X166690500Y-111020404D01*
X166690500Y-110962078D01*
X166690542Y-110959794D01*
X166692724Y-110901490D01*
X166692723Y-110901489D01*
X166691684Y-110892261D01*
X166692513Y-110892167D01*
X166690500Y-110876866D01*
X166690500Y-101117392D01*
X166710185Y-101050353D01*
X166756049Y-101008033D01*
X166777324Y-100996662D01*
X166923883Y-100876383D01*
X167044162Y-100729824D01*
X167133537Y-100562615D01*
X167188573Y-100381183D01*
X167207157Y-100192500D01*
X167188573Y-100003817D01*
X167133537Y-99822385D01*
X167044162Y-99655176D01*
X167044161Y-99655174D01*
X166923887Y-99508622D01*
X166923885Y-99508620D01*
X166923883Y-99508617D01*
X166845832Y-99444561D01*
X166806500Y-99386818D01*
X166800500Y-99348711D01*
X166800500Y-98929051D01*
X166820185Y-98862012D01*
X166824731Y-98855416D01*
X166829116Y-98849475D01*
X166872725Y-98724849D01*
X166875055Y-98700000D01*
X166875500Y-98695260D01*
X166875500Y-98089739D01*
X166872725Y-98060150D01*
X166829115Y-97935523D01*
X166750711Y-97829289D01*
X166750710Y-97829288D01*
X166644476Y-97750884D01*
X166519848Y-97707274D01*
X166519849Y-97707274D01*
X166490260Y-97704500D01*
X166490256Y-97704500D01*
X165909744Y-97704500D01*
X165909740Y-97704500D01*
X165880150Y-97707274D01*
X165755523Y-97750884D01*
X165649289Y-97829288D01*
X165649288Y-97829289D01*
X165570884Y-97935523D01*
X165527274Y-98060150D01*
X165524500Y-98089739D01*
X165524500Y-98695260D01*
X165527274Y-98724849D01*
X165559579Y-98817169D01*
X165570884Y-98849475D01*
X165575269Y-98855416D01*
X165599241Y-98921044D01*
X165599500Y-98929051D01*
X165599500Y-99414366D01*
X165579815Y-99481405D01*
X165559891Y-99503787D01*
X165560419Y-99504315D01*
X165556115Y-99508617D01*
X165435838Y-99655174D01*
X165435834Y-99655181D01*
X165346466Y-99822377D01*
X165346465Y-99822380D01*
X165291426Y-100003818D01*
X165272843Y-100192499D01*
X165291426Y-100381181D01*
X165291427Y-100381183D01*
X165346463Y-100562615D01*
X165346464Y-100562618D01*
X165346465Y-100562619D01*
X165346466Y-100562622D01*
X165435834Y-100729818D01*
X165435838Y-100729825D01*
X165556116Y-100876383D01*
X165702674Y-100996661D01*
X165702676Y-100996662D01*
X165723950Y-101008033D01*
X165773795Y-101056992D01*
X165789500Y-101117392D01*
X165789500Y-110714533D01*
X165769815Y-110781572D01*
X165753181Y-110802214D01*
X164705155Y-111850240D01*
X164652413Y-111881535D01*
X164636199Y-111886296D01*
X164636195Y-111886298D01*
X164515123Y-111964106D01*
X164420873Y-112072876D01*
X164420872Y-112072878D01*
X164361084Y-112203793D01*
X164340603Y-112346250D01*
X160997919Y-112346250D01*
X160985165Y-112257543D01*
X160976059Y-112237603D01*
X160961706Y-112206174D01*
X160950500Y-112154663D01*
X160950500Y-111200000D01*
X161394353Y-111200000D01*
X161414834Y-111342456D01*
X161468210Y-111459331D01*
X161474623Y-111473373D01*
X161568872Y-111582143D01*
X161689947Y-111659953D01*
X161689950Y-111659954D01*
X161689949Y-111659954D01*
X161828036Y-111700499D01*
X161828038Y-111700500D01*
X161828039Y-111700500D01*
X161971962Y-111700500D01*
X161971962Y-111700499D01*
X162110053Y-111659953D01*
X162231128Y-111582143D01*
X162325377Y-111473373D01*
X162367903Y-111380252D01*
X162393010Y-111344092D01*
X163998210Y-109738892D01*
X164003378Y-109734273D01*
X164033970Y-109709879D01*
X164066840Y-109661666D01*
X164068163Y-109659803D01*
X164102792Y-109612883D01*
X164102793Y-109612877D01*
X164106786Y-109605325D01*
X164110468Y-109597677D01*
X164110472Y-109597673D01*
X164127683Y-109541870D01*
X164128377Y-109539762D01*
X164147646Y-109484700D01*
X164147646Y-109484693D01*
X164149228Y-109476336D01*
X164150500Y-109467899D01*
X164150500Y-109409578D01*
X164150542Y-109407294D01*
X164152724Y-109348990D01*
X164152724Y-109348989D01*
X164151684Y-109339756D01*
X164152513Y-109339662D01*
X164150500Y-109324364D01*
X164150500Y-101117392D01*
X164170185Y-101050353D01*
X164216049Y-101008033D01*
X164237324Y-100996662D01*
X164383883Y-100876383D01*
X164504162Y-100729824D01*
X164593537Y-100562615D01*
X164648573Y-100381183D01*
X164667157Y-100192500D01*
X164648573Y-100003817D01*
X164593537Y-99822385D01*
X164504162Y-99655176D01*
X164504161Y-99655174D01*
X164383886Y-99508620D01*
X164383884Y-99508618D01*
X164383883Y-99508617D01*
X164350726Y-99481405D01*
X164345832Y-99477388D01*
X164306500Y-99419641D01*
X164300500Y-99381537D01*
X164300500Y-98929051D01*
X164320185Y-98862012D01*
X164324731Y-98855416D01*
X164329116Y-98849475D01*
X164372725Y-98724849D01*
X164375055Y-98700000D01*
X164375500Y-98695260D01*
X164375500Y-98089739D01*
X164372725Y-98060150D01*
X164329115Y-97935523D01*
X164250711Y-97829289D01*
X164250710Y-97829288D01*
X164144476Y-97750884D01*
X164019848Y-97707274D01*
X164019849Y-97707274D01*
X163990260Y-97704500D01*
X163990256Y-97704500D01*
X163409744Y-97704500D01*
X163409740Y-97704500D01*
X163380150Y-97707274D01*
X163255523Y-97750884D01*
X163149289Y-97829288D01*
X163149288Y-97829289D01*
X163070884Y-97935523D01*
X163027274Y-98060150D01*
X163024500Y-98089739D01*
X163024500Y-98695260D01*
X163027274Y-98724849D01*
X163059579Y-98817169D01*
X163070884Y-98849475D01*
X163075269Y-98855416D01*
X163099241Y-98921044D01*
X163099500Y-98929051D01*
X163099500Y-99381537D01*
X163079815Y-99448576D01*
X163054168Y-99477388D01*
X163016113Y-99508620D01*
X162895838Y-99655174D01*
X162895834Y-99655181D01*
X162806466Y-99822377D01*
X162806465Y-99822380D01*
X162751426Y-100003818D01*
X162732843Y-100192499D01*
X162751426Y-100381181D01*
X162751427Y-100381183D01*
X162806463Y-100562615D01*
X162806464Y-100562618D01*
X162806465Y-100562619D01*
X162806466Y-100562622D01*
X162895834Y-100729818D01*
X162895838Y-100729825D01*
X163016116Y-100876383D01*
X163162674Y-100996661D01*
X163162676Y-100996662D01*
X163183950Y-101008033D01*
X163233795Y-101056992D01*
X163249500Y-101117392D01*
X163249500Y-109162034D01*
X163229815Y-109229073D01*
X163213181Y-109249715D01*
X161758905Y-110703990D01*
X161706163Y-110735285D01*
X161689949Y-110740046D01*
X161689945Y-110740048D01*
X161568873Y-110817856D01*
X161474623Y-110926626D01*
X161474622Y-110926628D01*
X161414834Y-111057543D01*
X161394353Y-111200000D01*
X160950500Y-111200000D01*
X160950500Y-109630464D01*
X160970185Y-109563425D01*
X160986815Y-109542787D01*
X161458205Y-109071396D01*
X161463373Y-109066777D01*
X161493970Y-109042379D01*
X161526865Y-108994129D01*
X161528131Y-108992345D01*
X161562793Y-108945382D01*
X161562793Y-108945379D01*
X161562795Y-108945378D01*
X161566787Y-108937824D01*
X161570471Y-108930175D01*
X161570472Y-108930173D01*
X161587673Y-108874402D01*
X161588382Y-108872249D01*
X161607646Y-108817199D01*
X161607646Y-108817196D01*
X161609232Y-108808811D01*
X161610500Y-108800404D01*
X161610500Y-108742078D01*
X161610542Y-108739794D01*
X161612724Y-108681490D01*
X161612723Y-108681489D01*
X161611684Y-108672261D01*
X161612513Y-108672167D01*
X161610500Y-108656866D01*
X161610500Y-101117392D01*
X161630185Y-101050353D01*
X161676049Y-101008033D01*
X161697324Y-100996662D01*
X161843883Y-100876383D01*
X161964162Y-100729824D01*
X162053537Y-100562615D01*
X162108573Y-100381183D01*
X162127157Y-100192500D01*
X162108573Y-100003817D01*
X162053537Y-99822385D01*
X161964162Y-99655176D01*
X161964161Y-99655174D01*
X161843884Y-99508617D01*
X161839581Y-99504315D01*
X161840907Y-99502988D01*
X161806498Y-99452464D01*
X161800500Y-99414366D01*
X161800500Y-98929051D01*
X161820185Y-98862012D01*
X161824731Y-98855416D01*
X161829116Y-98849475D01*
X161872725Y-98724849D01*
X161875055Y-98700000D01*
X161875500Y-98695260D01*
X161875500Y-98089739D01*
X161872725Y-98060150D01*
X161829115Y-97935523D01*
X161750711Y-97829289D01*
X161750710Y-97829288D01*
X161644476Y-97750884D01*
X161519848Y-97707274D01*
X161519849Y-97707274D01*
X161490260Y-97704500D01*
X161490256Y-97704500D01*
X160909744Y-97704500D01*
X160909740Y-97704500D01*
X160880150Y-97707274D01*
X160755523Y-97750884D01*
X160649289Y-97829288D01*
X160649288Y-97829289D01*
X160570884Y-97935523D01*
X160527274Y-98060150D01*
X160524500Y-98089739D01*
X160524500Y-98695260D01*
X160527274Y-98724849D01*
X160559579Y-98817169D01*
X160570884Y-98849475D01*
X160575269Y-98855416D01*
X160599241Y-98921044D01*
X160599500Y-98929051D01*
X160599500Y-99348711D01*
X160579815Y-99415750D01*
X160554169Y-99444560D01*
X160476117Y-99508617D01*
X160476114Y-99508619D01*
X160476112Y-99508622D01*
X160355838Y-99655174D01*
X160355834Y-99655181D01*
X160266466Y-99822377D01*
X160266465Y-99822380D01*
X160211426Y-100003818D01*
X160192843Y-100192499D01*
X160211426Y-100381181D01*
X160211427Y-100381183D01*
X160266463Y-100562615D01*
X160266464Y-100562618D01*
X160266465Y-100562619D01*
X160266466Y-100562622D01*
X160355834Y-100729818D01*
X160355838Y-100729825D01*
X160476116Y-100876383D01*
X160622674Y-100996661D01*
X160622676Y-100996662D01*
X160643950Y-101008033D01*
X160693795Y-101056992D01*
X160709500Y-101117392D01*
X160709500Y-108494534D01*
X160689815Y-108561573D01*
X160673181Y-108582215D01*
X160201804Y-109053592D01*
X160196617Y-109058227D01*
X160166033Y-109082617D01*
X160166030Y-109082621D01*
X160133171Y-109130813D01*
X160131832Y-109132700D01*
X160097206Y-109179618D01*
X160093216Y-109187167D01*
X160089528Y-109194825D01*
X160072331Y-109250574D01*
X160071607Y-109252775D01*
X160052353Y-109307804D01*
X160050771Y-109316159D01*
X160049500Y-109324600D01*
X160049500Y-109382920D01*
X160049457Y-109385205D01*
X160048632Y-109407259D01*
X160047275Y-109443510D01*
X160048316Y-109452743D01*
X160047485Y-109452836D01*
X160049500Y-109468135D01*
X160049500Y-112154663D01*
X160038294Y-112206174D01*
X160014835Y-112257541D01*
X160014834Y-112257542D01*
X159994353Y-112400000D01*
X159450500Y-112400000D01*
X159450500Y-100711608D01*
X159465141Y-100653157D01*
X159513537Y-100562615D01*
X159568573Y-100381183D01*
X159587157Y-100192500D01*
X159568573Y-100003817D01*
X159513537Y-99822385D01*
X159424162Y-99655176D01*
X159424161Y-99655174D01*
X159303886Y-99508620D01*
X159303884Y-99508618D01*
X159303883Y-99508617D01*
X159270726Y-99481405D01*
X159265832Y-99477388D01*
X159226500Y-99419641D01*
X159220500Y-99381537D01*
X159220500Y-99037284D01*
X159240185Y-98970245D01*
X159245621Y-98963505D01*
X159245192Y-98963189D01*
X159324731Y-98855416D01*
X159329116Y-98849475D01*
X159372725Y-98724849D01*
X159375055Y-98700000D01*
X159375500Y-98695260D01*
X159375500Y-98089739D01*
X159372725Y-98060150D01*
X159329115Y-97935523D01*
X159250711Y-97829289D01*
X159250710Y-97829288D01*
X159144476Y-97750884D01*
X159019848Y-97707274D01*
X159019849Y-97707274D01*
X158990260Y-97704500D01*
X158990256Y-97704500D01*
X158409744Y-97704500D01*
X158409740Y-97704500D01*
X158380150Y-97707274D01*
X158255523Y-97750884D01*
X158149289Y-97829288D01*
X158149288Y-97829289D01*
X158070884Y-97935523D01*
X158027274Y-98060150D01*
X158024500Y-98089739D01*
X158024500Y-98391092D01*
X158023969Y-98399194D01*
X158014318Y-98472499D01*
X158014318Y-98472500D01*
X158018969Y-98507826D01*
X158019500Y-98515927D01*
X158019500Y-99381537D01*
X157999815Y-99448576D01*
X157974168Y-99477388D01*
X157936113Y-99508620D01*
X157815838Y-99655174D01*
X157815834Y-99655181D01*
X157726466Y-99822377D01*
X157726465Y-99822380D01*
X157671426Y-100003818D01*
X157652843Y-100192499D01*
X157671426Y-100381181D01*
X157671427Y-100381183D01*
X157726463Y-100562615D01*
X157726464Y-100562618D01*
X157726465Y-100562619D01*
X157726466Y-100562622D01*
X157815834Y-100729818D01*
X157815838Y-100729825D01*
X157936116Y-100876383D01*
X158082674Y-100996661D01*
X158082681Y-100996665D01*
X158249877Y-101086033D01*
X158249878Y-101086033D01*
X158249885Y-101086037D01*
X158431317Y-101141073D01*
X158435317Y-101141467D01*
X158437652Y-101141697D01*
X158502440Y-101167857D01*
X158542800Y-101224891D01*
X158549500Y-101265100D01*
X158549499Y-108016841D01*
X158529814Y-108083880D01*
X158477010Y-108129635D01*
X158407852Y-108139579D01*
X158358460Y-108121156D01*
X158340438Y-108109574D01*
X158310051Y-108090045D01*
X158171963Y-108049500D01*
X158171961Y-108049500D01*
X158028039Y-108049500D01*
X158028036Y-108049500D01*
X157889949Y-108090045D01*
X157768873Y-108167856D01*
X157674623Y-108276626D01*
X157674621Y-108276629D01*
X157632095Y-108369745D01*
X157606983Y-108405912D01*
X152001804Y-114011092D01*
X151996617Y-114015727D01*
X151966033Y-114040117D01*
X151966030Y-114040121D01*
X151933171Y-114088313D01*
X151931832Y-114090200D01*
X151897206Y-114137118D01*
X151893216Y-114144667D01*
X151889528Y-114152325D01*
X151872331Y-114208074D01*
X151871607Y-114210275D01*
X151852353Y-114265304D01*
X151850771Y-114273659D01*
X151849500Y-114282100D01*
X151849500Y-114340420D01*
X151849457Y-114342705D01*
X151848930Y-114356807D01*
X151847275Y-114401010D01*
X151848316Y-114410243D01*
X151847485Y-114410336D01*
X151849500Y-114425635D01*
X151849500Y-115498620D01*
X151829815Y-115565659D01*
X151799134Y-115598390D01*
X151749292Y-115635175D01*
X151749286Y-115635180D01*
X151703277Y-115697522D01*
X151647630Y-115739773D01*
X151603507Y-115747889D01*
X150973783Y-115747889D01*
X150966844Y-115747499D01*
X150953630Y-115746010D01*
X150927965Y-115743118D01*
X150870644Y-115753962D01*
X150868362Y-115754350D01*
X150810715Y-115763040D01*
X150802556Y-115765556D01*
X150794529Y-115768365D01*
X150742940Y-115795630D01*
X150740872Y-115796673D01*
X150688358Y-115821964D01*
X150681308Y-115826769D01*
X150674459Y-115831824D01*
X150633240Y-115873044D01*
X150631571Y-115874652D01*
X150588804Y-115914335D01*
X150583013Y-115921597D01*
X150582364Y-115921079D01*
X150572973Y-115933311D01*
X150567221Y-115939063D01*
X150505903Y-115972553D01*
X150479534Y-115975389D01*
X150411258Y-115975389D01*
X150365192Y-115982100D01*
X150342157Y-115985456D01*
X150235569Y-116037565D01*
X150235568Y-116037567D01*
X150151678Y-116121457D01*
X150151676Y-116121458D01*
X150099567Y-116228046D01*
X150099567Y-116228049D01*
X150089500Y-116297147D01*
X150089500Y-116789631D01*
X129973563Y-116789631D01*
X129939971Y-116744758D01*
X129939966Y-116744753D01*
X129939961Y-116744747D01*
X129747752Y-116552538D01*
X129747746Y-116552533D01*
X129747742Y-116552529D01*
X129530113Y-116389613D01*
X129530108Y-116389610D01*
X129530107Y-116389609D01*
X129291518Y-116259330D01*
X129291519Y-116259330D01*
X129207643Y-116228046D01*
X129036801Y-116164325D01*
X129036794Y-116164323D01*
X129036793Y-116164323D01*
X128771167Y-116106540D01*
X128771160Y-116106539D01*
X128500001Y-116087145D01*
X128499999Y-116087145D01*
X128228839Y-116106539D01*
X128228832Y-116106540D01*
X127963206Y-116164323D01*
X127963202Y-116164324D01*
X127963199Y-116164325D01*
X127875187Y-116197152D01*
X127708480Y-116259330D01*
X127469892Y-116389609D01*
X127469891Y-116389610D01*
X127252259Y-116552528D01*
X127252247Y-116552538D01*
X127060038Y-116744747D01*
X127060028Y-116744759D01*
X126897110Y-116962391D01*
X126897109Y-116962392D01*
X126766830Y-117200980D01*
X126748217Y-117250884D01*
X126671825Y-117455699D01*
X126671824Y-117455702D01*
X126671823Y-117455706D01*
X126614040Y-117721332D01*
X126614039Y-117721339D01*
X126594645Y-117992498D01*
X126594645Y-117992501D01*
X125800548Y-117992501D01*
X125800500Y-117990791D01*
X125800500Y-117944905D01*
X125800500Y-114495001D01*
X134325500Y-114495001D01*
X134345415Y-114646278D01*
X134345416Y-114646280D01*
X134403806Y-114787247D01*
X134403807Y-114787249D01*
X134403808Y-114787250D01*
X134496696Y-114908304D01*
X134617750Y-115001192D01*
X134758720Y-115059584D01*
X134815369Y-115067041D01*
X134872019Y-115074500D01*
X134872020Y-115074500D01*
X134947981Y-115074500D01*
X134985746Y-115069528D01*
X135061280Y-115059584D01*
X135202250Y-115001192D01*
X135323304Y-114908304D01*
X135416192Y-114787250D01*
X135474584Y-114646280D01*
X135490638Y-114524331D01*
X135518904Y-114460437D01*
X135577228Y-114421965D01*
X135647093Y-114421133D01*
X135706317Y-114458206D01*
X135722633Y-114481503D01*
X135737692Y-114509331D01*
X135738864Y-114511608D01*
X135760802Y-114556484D01*
X135760804Y-114556486D01*
X135765071Y-114562464D01*
X135769582Y-114568259D01*
X135806341Y-114602098D01*
X135808190Y-114603872D01*
X136317362Y-115113044D01*
X136333486Y-115132899D01*
X136338563Y-115140669D01*
X136338565Y-115140671D01*
X136364505Y-115160860D01*
X136370268Y-115165950D01*
X136372693Y-115168375D01*
X136372695Y-115168377D01*
X136389390Y-115180297D01*
X136391445Y-115181829D01*
X136396172Y-115185508D01*
X136430874Y-115212517D01*
X136430878Y-115212518D01*
X136437346Y-115216018D01*
X136443930Y-115219237D01*
X136443933Y-115219239D01*
X136491842Y-115233502D01*
X136494244Y-115234272D01*
X136541512Y-115250500D01*
X136541514Y-115250500D01*
X136548754Y-115251708D01*
X136556046Y-115252617D01*
X136605950Y-115250552D01*
X136608511Y-115250500D01*
X138471473Y-115250500D01*
X138496918Y-115253138D01*
X138505999Y-115255043D01*
X138521689Y-115253087D01*
X138538623Y-115250977D01*
X138546299Y-115250500D01*
X138549723Y-115250500D01*
X138549725Y-115250500D01*
X138569970Y-115247120D01*
X138572496Y-115246753D01*
X138575477Y-115246381D01*
X138622077Y-115240573D01*
X138622079Y-115240571D01*
X138629097Y-115238482D01*
X138636056Y-115236093D01*
X138636066Y-115236092D01*
X138680050Y-115212287D01*
X138682254Y-115211153D01*
X138727168Y-115189198D01*
X138727172Y-115189193D01*
X138733145Y-115184929D01*
X138738937Y-115180420D01*
X138738943Y-115180418D01*
X138772819Y-115143617D01*
X138774519Y-115141845D01*
X139263046Y-114653320D01*
X139282902Y-114637197D01*
X139290669Y-114632123D01*
X139310873Y-114606163D01*
X139315941Y-114600425D01*
X139318375Y-114597993D01*
X139330325Y-114581253D01*
X139331832Y-114579234D01*
X139362517Y-114539812D01*
X139362519Y-114539804D01*
X139366017Y-114533341D01*
X139369241Y-114526749D01*
X139374426Y-114509331D01*
X139383506Y-114478830D01*
X139384264Y-114476463D01*
X139400500Y-114429174D01*
X139400500Y-114429167D01*
X139401706Y-114421944D01*
X139402617Y-114414637D01*
X139400553Y-114364727D01*
X139400500Y-114362164D01*
X139400500Y-114329500D01*
X139420185Y-114262461D01*
X139472989Y-114216706D01*
X139524500Y-114205500D01*
X139719749Y-114205500D01*
X139750481Y-114199386D01*
X139775808Y-114194349D01*
X139824191Y-114194349D01*
X139880249Y-114205500D01*
X139880252Y-114205500D01*
X140002218Y-114205500D01*
X140069257Y-114225185D01*
X140115012Y-114277989D01*
X140125157Y-114345685D01*
X140105500Y-114494998D01*
X140105500Y-114495001D01*
X140125415Y-114646278D01*
X140125416Y-114646280D01*
X140183806Y-114787247D01*
X140183807Y-114787249D01*
X140183808Y-114787250D01*
X140276696Y-114908304D01*
X140397750Y-115001192D01*
X140538720Y-115059584D01*
X140595369Y-115067041D01*
X140652019Y-115074500D01*
X140652020Y-115074500D01*
X140727981Y-115074500D01*
X140765746Y-115069528D01*
X140841280Y-115059584D01*
X140982250Y-115001192D01*
X141103304Y-114908304D01*
X141196192Y-114787250D01*
X141254584Y-114646280D01*
X141269525Y-114532793D01*
X141274500Y-114495001D01*
X141274500Y-114494998D01*
X141258275Y-114371758D01*
X141254584Y-114343720D01*
X141196192Y-114202750D01*
X141118865Y-114101976D01*
X148399500Y-114101976D01*
X148436976Y-114302456D01*
X148449212Y-114334040D01*
X148510651Y-114492635D01*
X148510655Y-114492642D01*
X148618017Y-114666039D01*
X148618019Y-114666041D01*
X148755418Y-114816762D01*
X148816230Y-114862685D01*
X148918179Y-114939673D01*
X149011764Y-114986272D01*
X149100739Y-115030577D01*
X149100743Y-115030578D01*
X149100750Y-115030582D01*
X149296917Y-115086397D01*
X149499999Y-115105215D01*
X149500000Y-115105215D01*
X149500001Y-115105215D01*
X149601541Y-115095806D01*
X149703083Y-115086397D01*
X149899250Y-115030582D01*
X150081821Y-114939673D01*
X150244579Y-114816764D01*
X150381981Y-114666041D01*
X150489348Y-114492637D01*
X150563024Y-114302456D01*
X150600500Y-114101976D01*
X150600500Y-114000000D01*
X150600500Y-113952405D01*
X150600500Y-113952404D01*
X150600500Y-108972156D01*
X150600500Y-108972155D01*
X150600500Y-108898024D01*
X150563024Y-108697544D01*
X150489348Y-108507363D01*
X150381981Y-108333959D01*
X150314879Y-108260351D01*
X150244581Y-108183237D01*
X150081821Y-108060327D01*
X149899260Y-107969422D01*
X149899247Y-107969417D01*
X149703081Y-107913602D01*
X149703082Y-107913602D01*
X149500001Y-107894785D01*
X149499999Y-107894785D01*
X149296917Y-107913602D01*
X149100752Y-107969417D01*
X149100739Y-107969422D01*
X148918178Y-108060327D01*
X148755418Y-108183237D01*
X148618019Y-108333958D01*
X148618017Y-108333960D01*
X148510655Y-108507357D01*
X148510651Y-108507364D01*
X148446411Y-108673189D01*
X148436976Y-108697544D01*
X148399500Y-108898024D01*
X148399500Y-108943826D01*
X148399500Y-108943827D01*
X148399500Y-113952404D01*
X148399500Y-113952405D01*
X148399500Y-114000000D01*
X148399500Y-114101976D01*
X141118865Y-114101976D01*
X141103304Y-114081696D01*
X140982250Y-113988808D01*
X140982249Y-113988807D01*
X140982247Y-113988806D01*
X140869142Y-113941957D01*
X140841280Y-113930416D01*
X140832708Y-113929287D01*
X140812813Y-113926668D01*
X140748917Y-113898400D01*
X140710446Y-113840075D01*
X140705000Y-113803729D01*
X140705000Y-112843865D01*
X140705075Y-112840814D01*
X140705376Y-112834700D01*
X140705500Y-112829653D01*
X140705500Y-112753674D01*
X140725185Y-112686636D01*
X140741811Y-112666002D01*
X140770998Y-112636815D01*
X140832320Y-112603333D01*
X140858676Y-112600500D01*
X142332857Y-112600500D01*
X142359215Y-112603334D01*
X142363927Y-112604359D01*
X142415671Y-112600657D01*
X142420094Y-112600500D01*
X142435799Y-112600500D01*
X142451342Y-112598264D01*
X142455740Y-112597791D01*
X142507483Y-112594091D01*
X142511992Y-112592408D01*
X142537685Y-112585850D01*
X142542457Y-112585165D01*
X142589646Y-112563613D01*
X142593728Y-112561922D01*
X142622638Y-112551140D01*
X142642329Y-112543797D01*
X142642329Y-112543796D01*
X142642331Y-112543796D01*
X142646189Y-112540907D01*
X142668995Y-112527375D01*
X142673373Y-112525377D01*
X142712564Y-112491416D01*
X142716014Y-112488637D01*
X142718930Y-112486453D01*
X142728593Y-112479221D01*
X142739720Y-112468092D01*
X142742925Y-112465109D01*
X142782143Y-112431128D01*
X142784751Y-112427068D01*
X142801381Y-112406431D01*
X143906428Y-111301383D01*
X143927069Y-111284750D01*
X143931128Y-111282143D01*
X143965129Y-111242902D01*
X143968100Y-111239711D01*
X143979220Y-111228593D01*
X143988645Y-111216000D01*
X143991390Y-111212594D01*
X144025377Y-111173373D01*
X144027375Y-111168995D01*
X144040907Y-111146189D01*
X144043796Y-111142331D01*
X144061922Y-111093728D01*
X144063614Y-111089645D01*
X144075368Y-111063908D01*
X144085165Y-111042457D01*
X144085850Y-111037685D01*
X144092409Y-111011992D01*
X144094091Y-111007483D01*
X144097791Y-110955740D01*
X144098265Y-110951340D01*
X144100500Y-110935799D01*
X144100500Y-110920094D01*
X144100658Y-110915669D01*
X144102339Y-110892167D01*
X144104359Y-110863927D01*
X144103332Y-110859206D01*
X144100500Y-110832858D01*
X144100500Y-105267143D01*
X144103334Y-105240785D01*
X144104359Y-105236073D01*
X144100658Y-105184329D01*
X144100500Y-105179904D01*
X144100500Y-105164201D01*
X144098264Y-105148657D01*
X144097791Y-105144254D01*
X144094091Y-105092517D01*
X144092407Y-105088002D01*
X144085850Y-105062312D01*
X144085165Y-105057543D01*
X144084814Y-105056775D01*
X144063616Y-105010359D01*
X144061932Y-105006295D01*
X144043796Y-104957669D01*
X144040905Y-104953807D01*
X144027379Y-104931010D01*
X144025377Y-104926627D01*
X144017856Y-104917947D01*
X143991411Y-104887427D01*
X143988633Y-104883979D01*
X143979229Y-104871417D01*
X143979224Y-104871412D01*
X143979221Y-104871407D01*
X143968097Y-104860283D01*
X143965103Y-104857067D01*
X143931128Y-104817857D01*
X143931125Y-104817854D01*
X143927066Y-104815246D01*
X143906428Y-104798614D01*
X142851385Y-103743571D01*
X142834750Y-103722928D01*
X142832145Y-103718874D01*
X142832142Y-103718871D01*
X142825147Y-103712810D01*
X142792932Y-103684896D01*
X142789700Y-103681886D01*
X142778596Y-103670782D01*
X142778588Y-103670775D01*
X142766013Y-103661362D01*
X142762583Y-103658598D01*
X142723373Y-103624623D01*
X142723371Y-103624622D01*
X142723367Y-103624619D01*
X142718983Y-103622617D01*
X142696194Y-103609096D01*
X142692331Y-103606204D01*
X142692329Y-103606203D01*
X142643716Y-103588071D01*
X142639642Y-103586383D01*
X142592457Y-103564835D01*
X142592455Y-103564834D01*
X142587682Y-103564148D01*
X142562000Y-103557593D01*
X142557485Y-103555909D01*
X142505740Y-103552207D01*
X142501343Y-103551734D01*
X142485799Y-103549500D01*
X142470094Y-103549500D01*
X142465671Y-103549342D01*
X142448083Y-103548084D01*
X142413929Y-103545641D01*
X142413925Y-103545641D01*
X142409215Y-103546666D01*
X142382857Y-103549500D01*
X142138445Y-103549500D01*
X142071406Y-103529815D01*
X142056218Y-103518316D01*
X142000852Y-103469266D01*
X142000850Y-103469265D01*
X142000849Y-103469264D01*
X141850226Y-103390210D01*
X141685056Y-103349500D01*
X141514944Y-103349500D01*
X141349773Y-103390210D01*
X141199150Y-103469263D01*
X141071816Y-103582072D01*
X140975182Y-103722068D01*
X140975182Y-103722069D01*
X140914860Y-103881124D01*
X140914859Y-103881129D01*
X140900197Y-104001876D01*
X140872574Y-104066054D01*
X140864782Y-104074609D01*
X135093568Y-109845823D01*
X135072938Y-109862450D01*
X135068876Y-109865061D01*
X135068867Y-109865068D01*
X135034905Y-109904262D01*
X135031892Y-109907498D01*
X135020781Y-109918609D01*
X135011354Y-109931203D01*
X135008587Y-109934635D01*
X134995375Y-109949883D01*
X134974623Y-109973833D01*
X134974617Y-109973843D01*
X134972615Y-109978227D01*
X134959100Y-110001006D01*
X134956206Y-110004871D01*
X134956200Y-110004882D01*
X134938078Y-110053471D01*
X134936385Y-110057560D01*
X134914835Y-110104750D01*
X134914833Y-110104757D01*
X134914146Y-110109534D01*
X134907598Y-110135193D01*
X134905910Y-110139720D01*
X134905909Y-110139724D01*
X134902207Y-110191467D01*
X134901734Y-110195863D01*
X134899500Y-110211406D01*
X134899500Y-110227111D01*
X134899342Y-110231536D01*
X134895641Y-110283276D01*
X134895641Y-110283280D01*
X134896666Y-110287992D01*
X134899500Y-110314350D01*
X134899500Y-112280355D01*
X134898238Y-112298002D01*
X134894500Y-112324000D01*
X134894500Y-112829634D01*
X134894624Y-112834709D01*
X134894925Y-112840814D01*
X134895000Y-112843865D01*
X134895000Y-113803729D01*
X134875315Y-113870768D01*
X134822511Y-113916523D01*
X134787187Y-113926668D01*
X134758720Y-113930416D01*
X134758719Y-113930416D01*
X134617752Y-113988806D01*
X134496696Y-114081696D01*
X134403806Y-114202752D01*
X134345416Y-114343719D01*
X134345415Y-114343721D01*
X134325500Y-114494998D01*
X134325500Y-114495001D01*
X125800500Y-114495001D01*
X125800500Y-93992501D01*
X126592979Y-93992501D01*
X126612373Y-94263660D01*
X126612374Y-94263667D01*
X126670157Y-94529293D01*
X126670159Y-94529301D01*
X126712287Y-94642250D01*
X126765164Y-94784019D01*
X126895443Y-95022607D01*
X126895444Y-95022608D01*
X126895447Y-95022613D01*
X127058363Y-95240242D01*
X127058367Y-95240246D01*
X127058372Y-95240252D01*
X127250581Y-95432461D01*
X127250587Y-95432466D01*
X127250592Y-95432471D01*
X127468221Y-95595387D01*
X127468225Y-95595389D01*
X127468226Y-95595390D01*
X127706815Y-95725669D01*
X127706814Y-95725669D01*
X127706818Y-95725670D01*
X127706821Y-95725672D01*
X127961533Y-95820675D01*
X128227174Y-95878461D01*
X128478939Y-95896467D01*
X128498333Y-95897855D01*
X128498334Y-95897855D01*
X128498335Y-95897855D01*
X128516434Y-95896560D01*
X128769494Y-95878461D01*
X129035135Y-95820675D01*
X129289847Y-95725672D01*
X129289851Y-95725669D01*
X129289853Y-95725669D01*
X129409147Y-95660529D01*
X129528447Y-95595387D01*
X129746076Y-95432471D01*
X129938305Y-95240242D01*
X130101221Y-95022613D01*
X130166363Y-94903312D01*
X130231503Y-94784019D01*
X130231503Y-94784017D01*
X130231506Y-94784013D01*
X130326509Y-94529301D01*
X130384295Y-94263660D01*
X130403689Y-93992500D01*
X130384295Y-93721340D01*
X130326509Y-93455699D01*
X130231506Y-93200987D01*
X130231504Y-93200984D01*
X130231503Y-93200980D01*
X130121759Y-92999999D01*
X141984417Y-92999999D01*
X142004699Y-93205932D01*
X142004700Y-93205934D01*
X142064768Y-93403954D01*
X142162315Y-93586450D01*
X142162317Y-93586452D01*
X142293589Y-93746410D01*
X142382579Y-93819441D01*
X142453550Y-93877685D01*
X142636046Y-93975232D01*
X142834066Y-94035300D01*
X142834065Y-94035300D01*
X142852529Y-94037118D01*
X143040000Y-94055583D01*
X143245934Y-94035300D01*
X143443954Y-93975232D01*
X143626450Y-93877685D01*
X143786410Y-93746410D01*
X143917685Y-93586450D01*
X144015232Y-93403954D01*
X144075300Y-93205934D01*
X144095583Y-93000000D01*
X144524417Y-93000000D01*
X144544699Y-93205932D01*
X144544700Y-93205934D01*
X144604768Y-93403954D01*
X144702315Y-93586450D01*
X144702317Y-93586452D01*
X144833589Y-93746410D01*
X144922579Y-93819441D01*
X144993550Y-93877685D01*
X145176046Y-93975232D01*
X145374066Y-94035300D01*
X145374065Y-94035300D01*
X145392529Y-94037118D01*
X145580000Y-94055583D01*
X145785934Y-94035300D01*
X145983954Y-93975232D01*
X146166450Y-93877685D01*
X146326410Y-93746410D01*
X146457685Y-93586450D01*
X146555232Y-93403954D01*
X146615300Y-93205934D01*
X146635583Y-93000000D01*
X147064417Y-93000000D01*
X147084699Y-93205932D01*
X147084700Y-93205934D01*
X147144768Y-93403954D01*
X147242315Y-93586450D01*
X147242317Y-93586452D01*
X147373589Y-93746410D01*
X147462579Y-93819441D01*
X147533550Y-93877685D01*
X147716046Y-93975232D01*
X147914066Y-94035300D01*
X147914065Y-94035300D01*
X147934347Y-94037297D01*
X148120000Y-94055583D01*
X148325934Y-94035300D01*
X148467025Y-93992501D01*
X168592979Y-93992501D01*
X168612373Y-94263660D01*
X168612374Y-94263667D01*
X168670157Y-94529293D01*
X168670159Y-94529301D01*
X168712287Y-94642250D01*
X168765164Y-94784019D01*
X168895443Y-95022607D01*
X168895444Y-95022608D01*
X168895447Y-95022613D01*
X169058363Y-95240242D01*
X169058367Y-95240246D01*
X169058372Y-95240252D01*
X169250581Y-95432461D01*
X169250587Y-95432466D01*
X169250592Y-95432471D01*
X169468221Y-95595387D01*
X169468225Y-95595389D01*
X169468226Y-95595390D01*
X169706815Y-95725669D01*
X169706814Y-95725669D01*
X169706818Y-95725670D01*
X169706821Y-95725672D01*
X169961533Y-95820675D01*
X170227174Y-95878461D01*
X170478939Y-95896467D01*
X170498333Y-95897855D01*
X170498334Y-95897855D01*
X170498335Y-95897855D01*
X170516434Y-95896560D01*
X170769494Y-95878461D01*
X171035135Y-95820675D01*
X171289847Y-95725672D01*
X171289851Y-95725669D01*
X171289853Y-95725669D01*
X171409146Y-95660529D01*
X171528447Y-95595387D01*
X171746076Y-95432471D01*
X171938305Y-95240242D01*
X172101221Y-95022613D01*
X172166363Y-94903312D01*
X172231503Y-94784019D01*
X172231503Y-94784017D01*
X172231506Y-94784013D01*
X172326509Y-94529301D01*
X172384295Y-94263660D01*
X172403689Y-93992500D01*
X172384295Y-93721340D01*
X172326509Y-93455699D01*
X172231506Y-93200987D01*
X172231504Y-93200984D01*
X172231503Y-93200980D01*
X172101224Y-92962392D01*
X172101223Y-92962391D01*
X172101221Y-92962387D01*
X171938305Y-92744758D01*
X171938300Y-92744753D01*
X171938295Y-92744747D01*
X171746086Y-92552538D01*
X171746080Y-92552533D01*
X171746076Y-92552529D01*
X171528447Y-92389613D01*
X171528442Y-92389610D01*
X171528441Y-92389609D01*
X171289852Y-92259330D01*
X171289853Y-92259330D01*
X171240254Y-92240830D01*
X171035135Y-92164325D01*
X171035128Y-92164323D01*
X171035127Y-92164323D01*
X170769501Y-92106540D01*
X170769494Y-92106539D01*
X170498335Y-92087145D01*
X170498333Y-92087145D01*
X170227173Y-92106539D01*
X170227166Y-92106540D01*
X169961540Y-92164323D01*
X169961536Y-92164324D01*
X169961533Y-92164325D01*
X169834177Y-92211826D01*
X169706814Y-92259330D01*
X169468226Y-92389609D01*
X169468225Y-92389610D01*
X169250593Y-92552528D01*
X169250581Y-92552538D01*
X169058372Y-92744747D01*
X169058362Y-92744759D01*
X168895444Y-92962391D01*
X168895443Y-92962392D01*
X168765164Y-93200980D01*
X168717660Y-93328342D01*
X168670159Y-93455699D01*
X168670158Y-93455702D01*
X168670157Y-93455706D01*
X168612374Y-93721332D01*
X168612373Y-93721339D01*
X168592979Y-93992498D01*
X168592979Y-93992501D01*
X148467025Y-93992501D01*
X148523954Y-93975232D01*
X148706450Y-93877685D01*
X148866410Y-93746410D01*
X148997685Y-93586450D01*
X149095232Y-93403954D01*
X149155300Y-93205934D01*
X149175583Y-93000000D01*
X149155300Y-92794066D01*
X149095232Y-92596046D01*
X148997685Y-92413550D01*
X148914541Y-92312238D01*
X148866410Y-92253589D01*
X148706452Y-92122317D01*
X148706453Y-92122317D01*
X148706450Y-92122315D01*
X148523954Y-92024768D01*
X148325934Y-91964700D01*
X148325932Y-91964699D01*
X148325934Y-91964699D01*
X148120000Y-91944417D01*
X147914067Y-91964699D01*
X147716043Y-92024769D01*
X147612406Y-92080165D01*
X147533550Y-92122315D01*
X147533548Y-92122316D01*
X147533547Y-92122317D01*
X147373589Y-92253589D01*
X147242317Y-92413547D01*
X147144769Y-92596043D01*
X147084699Y-92794067D01*
X147064417Y-93000000D01*
X146635583Y-93000000D01*
X146615300Y-92794066D01*
X146555232Y-92596046D01*
X146457685Y-92413550D01*
X146374541Y-92312238D01*
X146326410Y-92253589D01*
X146166452Y-92122317D01*
X146166453Y-92122317D01*
X146166450Y-92122315D01*
X145983954Y-92024768D01*
X145785934Y-91964700D01*
X145785932Y-91964699D01*
X145785934Y-91964699D01*
X145598463Y-91946235D01*
X145580000Y-91944417D01*
X145579999Y-91944417D01*
X145374067Y-91964699D01*
X145176043Y-92024769D01*
X145072406Y-92080165D01*
X144993550Y-92122315D01*
X144993548Y-92122316D01*
X144993547Y-92122317D01*
X144833589Y-92253589D01*
X144702317Y-92413547D01*
X144604769Y-92596043D01*
X144544699Y-92794067D01*
X144524417Y-93000000D01*
X144095583Y-93000000D01*
X144075300Y-92794066D01*
X144015232Y-92596046D01*
X143917685Y-92413550D01*
X143834541Y-92312238D01*
X143786410Y-92253589D01*
X143626452Y-92122317D01*
X143626453Y-92122317D01*
X143626450Y-92122315D01*
X143443954Y-92024768D01*
X143245934Y-91964700D01*
X143245932Y-91964699D01*
X143245934Y-91964699D01*
X143040000Y-91944417D01*
X142834067Y-91964699D01*
X142636043Y-92024769D01*
X142532406Y-92080165D01*
X142453550Y-92122315D01*
X142453548Y-92122316D01*
X142453547Y-92122317D01*
X142293589Y-92253589D01*
X142162317Y-92413547D01*
X142064769Y-92596043D01*
X142004699Y-92794067D01*
X141984417Y-92999999D01*
X130121759Y-92999999D01*
X130101224Y-92962392D01*
X130101223Y-92962391D01*
X130101221Y-92962387D01*
X129938305Y-92744758D01*
X129938300Y-92744753D01*
X129938295Y-92744747D01*
X129746086Y-92552538D01*
X129746080Y-92552533D01*
X129746076Y-92552529D01*
X129528447Y-92389613D01*
X129528442Y-92389610D01*
X129528441Y-92389609D01*
X129289852Y-92259330D01*
X129289853Y-92259330D01*
X129240254Y-92240830D01*
X129035135Y-92164325D01*
X129035128Y-92164323D01*
X129035127Y-92164323D01*
X128769501Y-92106540D01*
X128769494Y-92106539D01*
X128498335Y-92087145D01*
X128498333Y-92087145D01*
X128227173Y-92106539D01*
X128227166Y-92106540D01*
X127961540Y-92164323D01*
X127961536Y-92164324D01*
X127961533Y-92164325D01*
X127834177Y-92211826D01*
X127706814Y-92259330D01*
X127468226Y-92389609D01*
X127468225Y-92389610D01*
X127250593Y-92552528D01*
X127250581Y-92552538D01*
X127058372Y-92744747D01*
X127058362Y-92744759D01*
X126895444Y-92962391D01*
X126895443Y-92962392D01*
X126765164Y-93200980D01*
X126717660Y-93328342D01*
X126670159Y-93455699D01*
X126670158Y-93455702D01*
X126670157Y-93455706D01*
X126612374Y-93721332D01*
X126612373Y-93721339D01*
X126592979Y-93992498D01*
X126592979Y-93992501D01*
X125800500Y-93992501D01*
X125800500Y-93964656D01*
X125800499Y-93964656D01*
X125800500Y-93964570D01*
X125800598Y-93961093D01*
X125808553Y-93819441D01*
X125815613Y-93693722D01*
X125816389Y-93686831D01*
X125865932Y-93395246D01*
X125867480Y-93388463D01*
X125883256Y-93333699D01*
X125949363Y-93104240D01*
X125951649Y-93097709D01*
X126064839Y-92824448D01*
X126067845Y-92818203D01*
X126210934Y-92559307D01*
X126214611Y-92553457D01*
X126385777Y-92312223D01*
X126390094Y-92306811D01*
X126587188Y-92086264D01*
X126592085Y-92081367D01*
X126812632Y-91884277D01*
X126818048Y-91879957D01*
X127059276Y-91708800D01*
X127065168Y-91705098D01*
X127157062Y-91654311D01*
X127324023Y-91562036D01*
X127330273Y-91559026D01*
X127603543Y-91445837D01*
X127610079Y-91443550D01*
X127894294Y-91361672D01*
X127901069Y-91360125D01*
X128192663Y-91310585D01*
X128199549Y-91309809D01*
X128497222Y-91293096D01*
X128500670Y-91293000D01*
X128545925Y-91293001D01*
X128545928Y-91293000D01*
X170527844Y-91293000D01*
X170527930Y-91293000D01*
X170531407Y-91293098D01*
G37*
%TD.AperFunction*%
%TD*%
%TA.AperFunction,Conductor*%
%TO.N,U5V*%
G36*
X135643039Y-112219685D02*
G01*
X135688794Y-112272489D01*
X135700000Y-112324000D01*
X135700000Y-112827128D01*
X135699701Y-112833208D01*
X135699500Y-112835249D01*
X135699500Y-113876000D01*
X135679815Y-113943039D01*
X135627011Y-113988794D01*
X135575500Y-114000000D01*
X135253936Y-114000000D01*
X135206483Y-113990561D01*
X135177047Y-113978368D01*
X135122643Y-113934526D01*
X135100579Y-113868232D01*
X135100500Y-113863807D01*
X135100500Y-112835249D01*
X135100299Y-112833208D01*
X135100000Y-112827128D01*
X135100000Y-112324000D01*
X135119685Y-112256961D01*
X135172489Y-112211206D01*
X135224000Y-112200000D01*
X135576000Y-112200000D01*
X135643039Y-112219685D01*
G37*
%TD.AperFunction*%
%TD*%
M02*
