M48
; DRILL file {KiCad 7.0.5} date Sun Jul  2 21:33:01 2023
; FORMAT={-:-/ absolute / inch / decimal}
; #@! TF.CreationDate,2023-07-02T21:33:01+09:00
; #@! TF.GenerationSoftware,Kicad,Pcbnew,7.0.5
; #@! TF.FileFunction,Plated,1,2,PTH
FMAT,2
INCH
; #@! TA.AperFunction,Plated,PTH,ViaDrill
T1C0.0118
; #@! TA.AperFunction,Plated,PTH,ViaDrill
T2C0.0157
; #@! TA.AperFunction,Plated,PTH,ComponentDrill
T3C0.0236
; #@! TA.AperFunction,Plated,PTH,ComponentDrill
T4C0.0256
; #@! TA.AperFunction,Plated,PTH,ComponentDrill
T5C0.0300
; #@! TA.AperFunction,Plated,PTH,ComponentDrill
T6C0.0394
%
G90
G05
T1
X6.2244Y-4.2736
X6.2244Y-4.311
X6.2244Y-4.3484
X6.2244Y-4.3858
X6.2244Y-4.4213
X6.2598Y-4.4721
X6.3189Y-4.4252
X6.374Y-4.378
X6.49Y-4.4231
T2
X6.5945Y-4.5315
T4
X5.5748Y-4.0965
X5.5748Y-4.1465
X5.5748Y-4.1965
X5.5748Y-4.2465
X5.5748Y-4.2965
X5.5748Y-4.3465
T5
X6.2449Y-3.9446
X6.3449Y-3.9446
X6.4449Y-3.6446
X6.4449Y-3.9446
X6.5449Y-3.9446
T6
X5.5315Y-3.6614
X5.6315Y-3.6614
X5.7315Y-3.6614
X5.8315Y-3.6614
T3
G00X5.2551Y-4.5096
M15
G01X5.2551Y-4.4663
M16
G05
G00X5.2551Y-4.6644
M15
G01X5.2551Y-4.6407
M16
G05
G00X5.5953Y-4.5096
M15
G01X5.5953Y-4.4663
M16
G05
G00X5.5953Y-4.6644
M15
G01X5.5953Y-4.6407
M16
G05
T0
M30
