%TF.GenerationSoftware,KiCad,Pcbnew,7.0.5*%
%TF.CreationDate,2023-07-08T01:12:30+09:00*%
%TF.ProjectId,robotrace_v2_Sidemarker,726f626f-7472-4616-9365-5f76325f5369,rev?*%
%TF.SameCoordinates,Original*%
%TF.FileFunction,Legend,Top*%
%TF.FilePolarity,Positive*%
%FSLAX46Y46*%
G04 Gerber Fmt 4.6, Leading zero omitted, Abs format (unit mm)*
G04 Created by KiCad (PCBNEW 7.0.5) date 2023-07-08 01:12:30*
%MOMM*%
%LPD*%
G01*
G04 APERTURE LIST*
G04 Aperture macros list*
%AMRoundRect*
0 Rectangle with rounded corners*
0 $1 Rounding radius*
0 $2 $3 $4 $5 $6 $7 $8 $9 X,Y pos of 4 corners*
0 Add a 4 corners polygon primitive as box body*
4,1,4,$2,$3,$4,$5,$6,$7,$8,$9,$2,$3,0*
0 Add four circle primitives for the rounded corners*
1,1,$1+$1,$2,$3*
1,1,$1+$1,$4,$5*
1,1,$1+$1,$6,$7*
1,1,$1+$1,$8,$9*
0 Add four rect primitives between the rounded corners*
20,1,$1+$1,$2,$3,$4,$5,0*
20,1,$1+$1,$4,$5,$6,$7,0*
20,1,$1+$1,$6,$7,$8,$9,0*
20,1,$1+$1,$8,$9,$2,$3,0*%
G04 Aperture macros list end*
%ADD10C,0.150000*%
%ADD11C,0.120000*%
%ADD12C,1.524000*%
%ADD13RoundRect,0.237500X0.237500X-0.250000X0.237500X0.250000X-0.237500X0.250000X-0.237500X-0.250000X0*%
%ADD14RoundRect,0.237500X-0.237500X0.250000X-0.237500X-0.250000X0.237500X-0.250000X0.237500X0.250000X0*%
%ADD15R,1.350000X1.350000*%
%ADD16O,1.350000X1.350000*%
%ADD17RoundRect,0.155000X-0.155000X0.212500X-0.155000X-0.212500X0.155000X-0.212500X0.155000X0.212500X0*%
G04 APERTURE END LIST*
D10*
%TO.C,U2*%
X179754819Y-99011904D02*
X180564342Y-99011904D01*
X180564342Y-99011904D02*
X180659580Y-98964285D01*
X180659580Y-98964285D02*
X180707200Y-98916666D01*
X180707200Y-98916666D02*
X180754819Y-98821428D01*
X180754819Y-98821428D02*
X180754819Y-98630952D01*
X180754819Y-98630952D02*
X180707200Y-98535714D01*
X180707200Y-98535714D02*
X180659580Y-98488095D01*
X180659580Y-98488095D02*
X180564342Y-98440476D01*
X180564342Y-98440476D02*
X179754819Y-98440476D01*
X179850057Y-98011904D02*
X179802438Y-97964285D01*
X179802438Y-97964285D02*
X179754819Y-97869047D01*
X179754819Y-97869047D02*
X179754819Y-97630952D01*
X179754819Y-97630952D02*
X179802438Y-97535714D01*
X179802438Y-97535714D02*
X179850057Y-97488095D01*
X179850057Y-97488095D02*
X179945295Y-97440476D01*
X179945295Y-97440476D02*
X180040533Y-97440476D01*
X180040533Y-97440476D02*
X180183390Y-97488095D01*
X180183390Y-97488095D02*
X180754819Y-98059523D01*
X180754819Y-98059523D02*
X180754819Y-97440476D01*
%TO.C,U1*%
X152745180Y-97438095D02*
X151935657Y-97438095D01*
X151935657Y-97438095D02*
X151840419Y-97485714D01*
X151840419Y-97485714D02*
X151792800Y-97533333D01*
X151792800Y-97533333D02*
X151745180Y-97628571D01*
X151745180Y-97628571D02*
X151745180Y-97819047D01*
X151745180Y-97819047D02*
X151792800Y-97914285D01*
X151792800Y-97914285D02*
X151840419Y-97961904D01*
X151840419Y-97961904D02*
X151935657Y-98009523D01*
X151935657Y-98009523D02*
X152745180Y-98009523D01*
X151745180Y-99009523D02*
X151745180Y-98438095D01*
X151745180Y-98723809D02*
X152745180Y-98723809D01*
X152745180Y-98723809D02*
X152602323Y-98628571D01*
X152602323Y-98628571D02*
X152507085Y-98533333D01*
X152507085Y-98533333D02*
X152459466Y-98438095D01*
%TO.C,R4*%
X176154819Y-95966666D02*
X175678628Y-96299999D01*
X176154819Y-96538094D02*
X175154819Y-96538094D01*
X175154819Y-96538094D02*
X175154819Y-96157142D01*
X175154819Y-96157142D02*
X175202438Y-96061904D01*
X175202438Y-96061904D02*
X175250057Y-96014285D01*
X175250057Y-96014285D02*
X175345295Y-95966666D01*
X175345295Y-95966666D02*
X175488152Y-95966666D01*
X175488152Y-95966666D02*
X175583390Y-96014285D01*
X175583390Y-96014285D02*
X175631009Y-96061904D01*
X175631009Y-96061904D02*
X175678628Y-96157142D01*
X175678628Y-96157142D02*
X175678628Y-96538094D01*
X175488152Y-95109523D02*
X176154819Y-95109523D01*
X175107200Y-95347618D02*
X175821485Y-95585713D01*
X175821485Y-95585713D02*
X175821485Y-94966666D01*
%TO.C,R3*%
X179054819Y-95966666D02*
X178578628Y-96299999D01*
X179054819Y-96538094D02*
X178054819Y-96538094D01*
X178054819Y-96538094D02*
X178054819Y-96157142D01*
X178054819Y-96157142D02*
X178102438Y-96061904D01*
X178102438Y-96061904D02*
X178150057Y-96014285D01*
X178150057Y-96014285D02*
X178245295Y-95966666D01*
X178245295Y-95966666D02*
X178388152Y-95966666D01*
X178388152Y-95966666D02*
X178483390Y-96014285D01*
X178483390Y-96014285D02*
X178531009Y-96061904D01*
X178531009Y-96061904D02*
X178578628Y-96157142D01*
X178578628Y-96157142D02*
X178578628Y-96538094D01*
X178054819Y-95633332D02*
X178054819Y-95014285D01*
X178054819Y-95014285D02*
X178435771Y-95347618D01*
X178435771Y-95347618D02*
X178435771Y-95204761D01*
X178435771Y-95204761D02*
X178483390Y-95109523D01*
X178483390Y-95109523D02*
X178531009Y-95061904D01*
X178531009Y-95061904D02*
X178626247Y-95014285D01*
X178626247Y-95014285D02*
X178864342Y-95014285D01*
X178864342Y-95014285D02*
X178959580Y-95061904D01*
X178959580Y-95061904D02*
X179007200Y-95109523D01*
X179007200Y-95109523D02*
X179054819Y-95204761D01*
X179054819Y-95204761D02*
X179054819Y-95490475D01*
X179054819Y-95490475D02*
X179007200Y-95585713D01*
X179007200Y-95585713D02*
X178959580Y-95633332D01*
%TO.C,J2*%
X146354819Y-98533333D02*
X147069104Y-98533333D01*
X147069104Y-98533333D02*
X147211961Y-98580952D01*
X147211961Y-98580952D02*
X147307200Y-98676190D01*
X147307200Y-98676190D02*
X147354819Y-98819047D01*
X147354819Y-98819047D02*
X147354819Y-98914285D01*
X146450057Y-98104761D02*
X146402438Y-98057142D01*
X146402438Y-98057142D02*
X146354819Y-97961904D01*
X146354819Y-97961904D02*
X146354819Y-97723809D01*
X146354819Y-97723809D02*
X146402438Y-97628571D01*
X146402438Y-97628571D02*
X146450057Y-97580952D01*
X146450057Y-97580952D02*
X146545295Y-97533333D01*
X146545295Y-97533333D02*
X146640533Y-97533333D01*
X146640533Y-97533333D02*
X146783390Y-97580952D01*
X146783390Y-97580952D02*
X147354819Y-98152380D01*
X147354819Y-98152380D02*
X147354819Y-97533333D01*
%TO.C,R1*%
X154554819Y-95866666D02*
X154078628Y-96199999D01*
X154554819Y-96438094D02*
X153554819Y-96438094D01*
X153554819Y-96438094D02*
X153554819Y-96057142D01*
X153554819Y-96057142D02*
X153602438Y-95961904D01*
X153602438Y-95961904D02*
X153650057Y-95914285D01*
X153650057Y-95914285D02*
X153745295Y-95866666D01*
X153745295Y-95866666D02*
X153888152Y-95866666D01*
X153888152Y-95866666D02*
X153983390Y-95914285D01*
X153983390Y-95914285D02*
X154031009Y-95961904D01*
X154031009Y-95961904D02*
X154078628Y-96057142D01*
X154078628Y-96057142D02*
X154078628Y-96438094D01*
X154554819Y-94914285D02*
X154554819Y-95485713D01*
X154554819Y-95199999D02*
X153554819Y-95199999D01*
X153554819Y-95199999D02*
X153697676Y-95295237D01*
X153697676Y-95295237D02*
X153792914Y-95390475D01*
X153792914Y-95390475D02*
X153840533Y-95485713D01*
%TO.C,C2*%
X168359580Y-96299166D02*
X168407200Y-96346785D01*
X168407200Y-96346785D02*
X168454819Y-96489642D01*
X168454819Y-96489642D02*
X168454819Y-96584880D01*
X168454819Y-96584880D02*
X168407200Y-96727737D01*
X168407200Y-96727737D02*
X168311961Y-96822975D01*
X168311961Y-96822975D02*
X168216723Y-96870594D01*
X168216723Y-96870594D02*
X168026247Y-96918213D01*
X168026247Y-96918213D02*
X167883390Y-96918213D01*
X167883390Y-96918213D02*
X167692914Y-96870594D01*
X167692914Y-96870594D02*
X167597676Y-96822975D01*
X167597676Y-96822975D02*
X167502438Y-96727737D01*
X167502438Y-96727737D02*
X167454819Y-96584880D01*
X167454819Y-96584880D02*
X167454819Y-96489642D01*
X167454819Y-96489642D02*
X167502438Y-96346785D01*
X167502438Y-96346785D02*
X167550057Y-96299166D01*
X167550057Y-95918213D02*
X167502438Y-95870594D01*
X167502438Y-95870594D02*
X167454819Y-95775356D01*
X167454819Y-95775356D02*
X167454819Y-95537261D01*
X167454819Y-95537261D02*
X167502438Y-95442023D01*
X167502438Y-95442023D02*
X167550057Y-95394404D01*
X167550057Y-95394404D02*
X167645295Y-95346785D01*
X167645295Y-95346785D02*
X167740533Y-95346785D01*
X167740533Y-95346785D02*
X167883390Y-95394404D01*
X167883390Y-95394404D02*
X168454819Y-95965832D01*
X168454819Y-95965832D02*
X168454819Y-95346785D01*
%TO.C,C1*%
X166759580Y-96299166D02*
X166807200Y-96346785D01*
X166807200Y-96346785D02*
X166854819Y-96489642D01*
X166854819Y-96489642D02*
X166854819Y-96584880D01*
X166854819Y-96584880D02*
X166807200Y-96727737D01*
X166807200Y-96727737D02*
X166711961Y-96822975D01*
X166711961Y-96822975D02*
X166616723Y-96870594D01*
X166616723Y-96870594D02*
X166426247Y-96918213D01*
X166426247Y-96918213D02*
X166283390Y-96918213D01*
X166283390Y-96918213D02*
X166092914Y-96870594D01*
X166092914Y-96870594D02*
X165997676Y-96822975D01*
X165997676Y-96822975D02*
X165902438Y-96727737D01*
X165902438Y-96727737D02*
X165854819Y-96584880D01*
X165854819Y-96584880D02*
X165854819Y-96489642D01*
X165854819Y-96489642D02*
X165902438Y-96346785D01*
X165902438Y-96346785D02*
X165950057Y-96299166D01*
X166854819Y-95346785D02*
X166854819Y-95918213D01*
X166854819Y-95632499D02*
X165854819Y-95632499D01*
X165854819Y-95632499D02*
X165997676Y-95727737D01*
X165997676Y-95727737D02*
X166092914Y-95822975D01*
X166092914Y-95822975D02*
X166140533Y-95918213D01*
%TO.C,R2*%
X157454819Y-95866666D02*
X156978628Y-96199999D01*
X157454819Y-96438094D02*
X156454819Y-96438094D01*
X156454819Y-96438094D02*
X156454819Y-96057142D01*
X156454819Y-96057142D02*
X156502438Y-95961904D01*
X156502438Y-95961904D02*
X156550057Y-95914285D01*
X156550057Y-95914285D02*
X156645295Y-95866666D01*
X156645295Y-95866666D02*
X156788152Y-95866666D01*
X156788152Y-95866666D02*
X156883390Y-95914285D01*
X156883390Y-95914285D02*
X156931009Y-95961904D01*
X156931009Y-95961904D02*
X156978628Y-96057142D01*
X156978628Y-96057142D02*
X156978628Y-96438094D01*
X156550057Y-95485713D02*
X156502438Y-95438094D01*
X156502438Y-95438094D02*
X156454819Y-95342856D01*
X156454819Y-95342856D02*
X156454819Y-95104761D01*
X156454819Y-95104761D02*
X156502438Y-95009523D01*
X156502438Y-95009523D02*
X156550057Y-94961904D01*
X156550057Y-94961904D02*
X156645295Y-94914285D01*
X156645295Y-94914285D02*
X156740533Y-94914285D01*
X156740533Y-94914285D02*
X156883390Y-94961904D01*
X156883390Y-94961904D02*
X157454819Y-95533332D01*
X157454819Y-95533332D02*
X157454819Y-94914285D01*
D11*
%TO.C,U2*%
X184400000Y-98900000D02*
X183700000Y-99600000D01*
X181000000Y-99600000D02*
X184400000Y-99600000D01*
X184400000Y-99600000D02*
X184400000Y-96900000D01*
X184400000Y-96900000D02*
X181000000Y-96900000D01*
X181000000Y-96900000D02*
X181000000Y-99600000D01*
X181500000Y-99050000D02*
X182300000Y-99050000D01*
X182300000Y-99050000D02*
X182300000Y-97450000D01*
X182300000Y-97450000D02*
X181500000Y-97450000D01*
X181500000Y-97450000D02*
X181500000Y-99050000D01*
X183100000Y-99050000D02*
X183900000Y-99050000D01*
X183900000Y-99050000D02*
X183900000Y-97450000D01*
X183900000Y-97450000D02*
X183100000Y-97450000D01*
X183100000Y-97450000D02*
X183100000Y-99050000D01*
%TO.C,U1*%
X151400000Y-98900000D02*
X150700000Y-99600000D01*
X148000000Y-99600000D02*
X151400000Y-99600000D01*
X151400000Y-99600000D02*
X151400000Y-96900000D01*
X151400000Y-96900000D02*
X148000000Y-96900000D01*
X148000000Y-96900000D02*
X148000000Y-99600000D01*
X148500000Y-99050000D02*
X149300000Y-99050000D01*
X149300000Y-99050000D02*
X149300000Y-97450000D01*
X149300000Y-97450000D02*
X148500000Y-97450000D01*
X148500000Y-97450000D02*
X148500000Y-99050000D01*
X150100000Y-99050000D02*
X150900000Y-99050000D01*
X150900000Y-99050000D02*
X150900000Y-97450000D01*
X150900000Y-97450000D02*
X150100000Y-97450000D01*
X150100000Y-97450000D02*
X150100000Y-99050000D01*
%TO.C,R4*%
X175177500Y-98642224D02*
X175177500Y-98132776D01*
X176222500Y-98642224D02*
X176222500Y-98132776D01*
%TO.C,R3*%
X179122500Y-98132776D02*
X179122500Y-98642224D01*
X178077500Y-98132776D02*
X178077500Y-98642224D01*
%TO.C,J2*%
X143640000Y-95140000D02*
X144700000Y-95140000D01*
X143640000Y-96200000D02*
X143640000Y-95140000D01*
X143640000Y-97200000D02*
X143640000Y-101260000D01*
X143640000Y-97200000D02*
X145760000Y-97200000D01*
X143640000Y-101260000D02*
X145760000Y-101260000D01*
X145760000Y-97200000D02*
X145760000Y-101260000D01*
%TO.C,R1*%
X154622500Y-98132776D02*
X154622500Y-98642224D01*
X153577500Y-98132776D02*
X153577500Y-98642224D01*
%TO.C,C2*%
X168360000Y-98216665D02*
X168360000Y-98448335D01*
X167640000Y-98216665D02*
X167640000Y-98448335D01*
%TO.C,C1*%
X166760000Y-98216665D02*
X166760000Y-98448335D01*
X166040000Y-98216665D02*
X166040000Y-98448335D01*
%TO.C,R2*%
X156477500Y-98642224D02*
X156477500Y-98132776D01*
X157522500Y-98642224D02*
X157522500Y-98132776D01*
%TD*%
%LPC*%
D12*
%TO.C,U2*%
X183600000Y-100100000D03*
X183600000Y-96400000D03*
X181800000Y-100100000D03*
X181800000Y-96400000D03*
%TD*%
%TO.C,U1*%
X150600000Y-100100000D03*
X150600000Y-96400000D03*
X148800000Y-100100000D03*
X148800000Y-96400000D03*
%TD*%
D13*
%TO.C,R4*%
X175700000Y-99300000D03*
X175700000Y-97475000D03*
%TD*%
D14*
%TO.C,R3*%
X178600000Y-97475000D03*
X178600000Y-99300000D03*
%TD*%
D15*
%TO.C,J2*%
X144700000Y-96200000D03*
D16*
X144700000Y-98200000D03*
X144700000Y-100200000D03*
%TD*%
D14*
%TO.C,R1*%
X154100000Y-97475000D03*
X154100000Y-99300000D03*
%TD*%
D17*
%TO.C,C2*%
X168000000Y-97765000D03*
X168000000Y-98900000D03*
%TD*%
%TO.C,C1*%
X166400000Y-97765000D03*
X166400000Y-98900000D03*
%TD*%
D13*
%TO.C,R2*%
X157000000Y-99300000D03*
X157000000Y-97475000D03*
%TD*%
%LPD*%
M02*
