M48
; DRILL file {KiCad 7.0.5} date Sat Jul  8 01:12:30 2023
; FORMAT={-:-/ absolute / inch / decimal}
; #@! TF.CreationDate,2023-07-08T01:12:30+09:00
; #@! TF.GenerationSoftware,Kicad,Pcbnew,7.0.5
; #@! TF.FileFunction,Plated,1,2,PTH
FMAT,2
INCH
; #@! TA.AperFunction,Plated,PTH,ViaDrill
T1C0.0157
; #@! TA.AperFunction,Plated,PTH,ComponentDrill
T2C0.0300
; #@! TA.AperFunction,Plated,PTH,ComponentDrill
T3C0.0315
%
G90
G05
T1
X6.2677Y-3.8465
X6.2677Y-3.9646
X6.3465Y-3.8465
X6.3465Y-3.9646
X6.4252Y-3.8465
X6.4252Y-3.9646
X6.5039Y-3.8465
X6.5039Y-3.9646
X6.6614Y-3.8465
X6.6614Y-3.9646
X6.7402Y-3.8465
X6.7402Y-3.9646
X6.8189Y-3.8465
X6.8189Y-3.9646
T2
X5.8583Y-3.7953
X5.8583Y-3.9409
X5.9291Y-3.7953
X5.9291Y-3.9409
X7.1575Y-3.7953
X7.1575Y-3.9409
X7.2283Y-3.7953
X7.2283Y-3.9409
T3
X5.6969Y-3.7874
X5.6969Y-3.8661
X5.6969Y-3.9449
T0
M30
