0
SECTION
2
HEADER
9
$INSUNITS
70
4
9
$ACADVER
1
AC1014
9
$HANDSEED
5
FFFF
0
ENDSEC
0
SECTION
2
TABLES
0
TABLE
2
VPORT
5
8
100
AcDbSymbolTable
0
ENDTAB
0
TABLE
2
LTYPE
5
5
100
AcDbSymbolTable
0
LTYPE
5
14
100
AcDbSymbolTableRecord
100
AcDbLinetypeTableRecord
2
BYBLOCK
70
0
0
LTYPE
5
15
100
AcDbSymbolTableRecord
100
AcDbLinetypeTableRecord
2
BYLAYER
70
0
0
ENDTAB
0
TABLE
2
LAYER
5
2
100
AcDbSymbolTable
70
2
0
LAYER
5
50
100
AcDbSymbolTableRecord
100
AcDbLayerTableRecord
2
0
70
0
6
CONTINUOUS
0
ENDTAB
0
TABLE
2
STYLE
5
3
100
AcDbSymbolTable
70
1
0
STYLE
5
11
100
AcDbSymbolTableRecord
100
AcDbTextStyleTableRecord
2
STANDARD
70
0
0
ENDTAB
0
TABLE
2
VIEW
5
6
100
AcDbSymbolTable
70
0
0
ENDTAB
0
TABLE
2
UCS
5
7
100
AcDbSymbolTable
70
0
0
ENDTAB
0
TABLE
2
APPID
5
9
100
AcDbSymbolTable
70
2
0
APPID
5
12
100
AcDbSymbolTableRecord
100
AcDbRegAppTableRecord
2
ACAD
70
0
0
ENDTAB
0
TABLE
2
DIMSTYLE
5
A
100
AcDbSymbolTable
70
1
0
ENDTAB
0
TABLE
2
BLOCK_RECORD
5
1
100
AcDbSymbolTable
70
1
0
BLOCK_RECORD
5
1F
100
AcDbSymbolTableRecord
100
AcDbBlockTableRecord
2
*MODEL_SPACE
0
BLOCK_RECORD
5
1B
100
AcDbSymbolTableRecord
100
AcDbBlockTableRecord
2
*PAPER_SPACE
0
ENDTAB
0
ENDSEC
0
SECTION
2
BLOCKS
0
BLOCK
5
20
100
AcDbEntity
100
AcDbBlockBegin
2
*MODEL_SPACE
0
ENDBLK
5
21
100
AcDbEntity
100
AcDbBlockEnd
0
BLOCK
5
1C
100
AcDbEntity
100
AcDbBlockBegin
2
*PAPER_SPACE
0
ENDBLK
5
1D
100
AcDbEntity
100
AcDbBlockEnd
0
ENDSEC
0
SECTION
2
ENTITIES
0
CIRCLE
5
100
100
AcDbEntity
8
0
100
AcDbCircle
10
7.0000000335986376
20
166.98679797318528
30
0
40
1.4999999999999958
210
-3.0814879110195774e-33
220
-1.9794338629374473e-65
230
1
0
CIRCLE
5
101
100
AcDbEntity
8
0
100
AcDbCircle
10
-6.999999966401357
20
166.98679797318528
30
0
40
1.4999999999999958
210
-3.0814879110195774e-33
220
-1.9794338629374473e-65
230
1
0
LWPOLYLINE
5
102
100
AcDbEntity
8
0
100
AcDbPolyline
90
10
70
1
43
0.0
10
7.0000000335986376
20
163.98679797318525
42
0.41421356237309503
10
10.000000033598656
20
166.98679797318528
10
10.000000033598649
20
167.22507360736165
42
-0.4955078413003971
10
13.798440289676542
20
170.11687117245407
42
-0.15537508918391502
10
40.155423813559281
20
152.93592591264655
42
0.47442836526756305
10
-40.155423746359361
20
152.93592591264968
42
-0.15537508918389453
10
-13.798440222479289
20
170.11687117245404
42
-0.49550784130040004
10
-9.999999966401365
20
167.22507360736165
10
-9.9999999664013579
20
166.98679797318528
42
0.41421356237309515
10
-6.9999999664013561
20
163.98679797318528
0
ARC
5
103
100
AcDbEntity
8
0
100
AcDbCircle
10
43.640785881743831
20
155.78237128427421
30
-3.944304526105059e-30
40
4.5000000000000231
210
1.2441566106258723e-30
220
5.9493832569797731e-31
230
1
100
AcDbArc
50
-140.76197857329564
51
39.23802057293161
0
ARC
5
104
100
AcDbEntity
8
0
100
AcDbCircle
10
3.3598683835123211e-08
20
120.14156540492334
30
1.7516230804060213e-44
40
60.845232568277218
210
-1.4483101805552388e-32
220
1.7733996993575421e-32
230
1
100
AcDbArc
50
39.238021426652764
51
140.76197857334722
0
ARC
5
105
100
AcDbEntity
8
0
100
AcDbCircle
10
-43.640785814546568
20
155.78237128427418
30
-3.944304526105059e-30
40
4.5000000000001092
210
5.9711168560433323e-31
220
-1.3822167259968352e-31
230
1
100
AcDbArc
50
140.76197857334705
51
320.76197857334819
0
LWPOLYLINE
5
106
100
AcDbEntity
8
0
100
AcDbPolyline
90
3
70
1
43
0.0
10
3.3598683835123211e-08
20
120.14156540492334
10
-10.722499770620555
20
180.03455601514631
10
10.722499837817917
20
180.03455601514642
0
LINE
5
107
100
AcDbEntity
8
0
100
AcDbLine
10
3.3598683835123211e-08
20
120.14156540492334
30
-8.2326284779083003e-44
11
3.3598683835123211e-08
21
239.9275466253755
31
-8.2326284779083003e-44
0
ARC
5
108
100
AcDbEntity
8
0
100
AcDbCircle
10
3.3598683835123211e-08
20
120.14156540492334
30
-8.2326284779083003e-44
40
60.777540964497149
210
0
220
-0
230
1
100
AcDbArc
50
39.999354915565391
51
140.00064508443504
0
ARC
5
109
100
AcDbEntity
8
0
100
AcDbCircle
10
3.3598683835123211e-08
20
120.14156540492334
30
-8.2326284779083003e-44
40
60.845232568277162
210
5.1620854456317156e-32
220
4.2158013727510868e-32
230
1
100
AcDbArc
50
39.238021363513205
51
140.76197857334722
0
LINE
5
110
100
AcDbEntity
8
0
100
AcDbLine
10
3.3598683835123211e-08
20
120.14156540492334
30
-8.2326284779083003e-44
11
-21.109380372577174
21
177.20763575460745
31
-1.2056304794990758e-30
0
LINE
5
111
100
AcDbEntity
8
0
100
AcDbLine
10
3.3598688276015309e-08
20
120.14156540492334
30
-8.2326284779083003e-44
11
-30.83552760618538
21
172.59452110299486
31
-1.2056304794990758e-30
0
LINE
5
112
100
AcDbEntity
8
0
100
AcDbLine
10
3.3598679394231112e-08
20
120.14156540492334
30
-8.2326284779083003e-44
11
-39.596508565359784
21
166.33960468215184
31
-1.2056304794990758e-30
0
LINE
5
113
100
AcDbEntity
8
0
100
AcDbLine
10
3.3598679394231112e-08
20
120.14156540492334
30
-8.2326284779083003e-44
11
-47.11810049472767
21
158.63866826851907
31
-1.2056304794990758e-30
0
LINE
5
114
100
AcDbEntity
8
0
100
AcDbLine
10
3.3598683835123211e-08
20
120.14156540492334
30
-8.2326284779083003e-44
11
21.109380439774558
21
177.20763575460757
31
-8.2326284779083003e-44
0
LINE
5
115
100
AcDbEntity
8
0
100
AcDbLine
10
3.3598688276015309e-08
20
120.14156540492334
30
-8.2326284779083003e-44
11
30.835527673382792
21
172.59452110299492
31
-8.2326284779083003e-44
0
LINE
5
116
100
AcDbEntity
8
0
100
AcDbLine
10
3.3598679394231112e-08
20
120.14156540492334
30
-8.2326284779083003e-44
11
39.596508632557189
21
166.33960468215193
31
-8.2326284779083003e-44
0
LINE
5
117
100
AcDbEntity
8
0
100
AcDbLine
10
3.3598679394231112e-08
20
120.14156540492334
30
-8.2326284779083003e-44
11
47.118100561925104
21
158.63866826851913
31
-8.2326284779083003e-44
0
ARC
5
118
100
AcDbEntity
8
0
100
AcDbCircle
10
3.3598683835123211e-08
20
120.14156540492334
30
-8.2326284779083003e-44
40
53.845232568277112
210
-3.1155513674262607e-32
220
-2.5444262594159355e-32
230
1
100
AcDbArc
50
39.238021426648373
51
140.76197857334716
0
ARC
5
119
100
AcDbEntity
8
0
100
AcDbCircle
10
3.3598683835123211e-08
20
120.14156540492334
30
-8.2326284779083003e-44
40
58.777540964497128
210
0
220
-0
230
1
100
AcDbArc
50
39.250000000025807
51
140.74999999997422
0
ARC
5
120
100
AcDbEntity
8
0
100
AcDbCircle
10
3.3598683835123211e-08
20
120.14156540492334
30
1.7516230804060213e-44
40
57.445232568277127
210
0
220
-0
230
1
100
AcDbArc
50
59.550000000025769
51
145.15746581529871
0
ARC
5
121
100
AcDbEntity
8
0
100
AcDbCircle
10
3.3598683835123211e-08
20
120.14156540492334
30
-8.2326284779083003e-44
40
56.945232568277085
210
0
220
-0
230
1
100
AcDbArc
50
39.250000000025778
51
145.27424763924216
0
ARC
5
122
100
AcDbEntity
8
0
100
AcDbCircle
10
3.3598688276015309e-08
20
120.14156540492334
30
-8.2326284779083003e-44
40
55.945232568277163
210
0
220
-0
230
1
100
AcDbArc
50
39.250000000025807
51
145.33726056055474
0
ARC
5
123
100
AcDbEntity
8
0
100
AcDbCircle
10
3.3598683835123211e-08
20
120.14156540492334
30
-8.2326284779083003e-44
40
56.445232568277106
210
0
220
-0
230
1
100
AcDbArc
50
39.250000000025793
51
145.33392246304399
0
ARC
5
124
100
AcDbEntity
8
0
100
AcDbCircle
10
3.3598679394231112e-08
20
120.14156540492334
30
-8.2326284779083003e-44
40
55.44523256827712
210
0
220
-0
230
1
100
AcDbArc
50
39.250000000025793
51
145.28285604722015
0
ENDSEC
0
SECTION
2
OBJECTS
0
DICTIONARY
5
C
100
AcDbDictionary
3
ACAD_GROUP
350
D
3
ACAD_MLINESTYLE
350
17
0
DICTIONARY
5
D
100
AcDbDictionary
0
DICTIONARY
5
1A
330
C
100
AcDbDictionary
0
DICTIONARY
5
17
100
AcDbDictionary
0
ENDSEC
0
EOF
