%TF.GenerationSoftware,KiCad,Pcbnew,7.0.5*%
%TF.CreationDate,2023-06-28T21:22:15+09:00*%
%TF.ProjectId,robotrace_v2_main,726f626f-7472-4616-9365-5f76325f6d61,rev?*%
%TF.SameCoordinates,Original*%
%TF.FileFunction,Copper,L4,Bot*%
%TF.FilePolarity,Positive*%
%FSLAX46Y46*%
G04 Gerber Fmt 4.6, Leading zero omitted, Abs format (unit mm)*
G04 Created by KiCad (PCBNEW 7.0.5) date 2023-06-28 21:22:15*
%MOMM*%
%LPD*%
G01*
G04 APERTURE LIST*
G04 Aperture macros list*
%AMRoundRect*
0 Rectangle with rounded corners*
0 $1 Rounding radius*
0 $2 $3 $4 $5 $6 $7 $8 $9 X,Y pos of 4 corners*
0 Add a 4 corners polygon primitive as box body*
4,1,4,$2,$3,$4,$5,$6,$7,$8,$9,$2,$3,0*
0 Add four circle primitives for the rounded corners*
1,1,$1+$1,$2,$3*
1,1,$1+$1,$4,$5*
1,1,$1+$1,$6,$7*
1,1,$1+$1,$8,$9*
0 Add four rect primitives between the rounded corners*
20,1,$1+$1,$2,$3,$4,$5,0*
20,1,$1+$1,$4,$5,$6,$7,0*
20,1,$1+$1,$6,$7,$8,$9,0*
20,1,$1+$1,$8,$9,$2,$3,0*%
%AMRotRect*
0 Rectangle, with rotation*
0 The origin of the aperture is its center*
0 $1 length*
0 $2 width*
0 $3 Rotation angle, in degrees counterclockwise*
0 Add horizontal line*
21,1,$1,$2,0,0,$3*%
G04 Aperture macros list end*
%TA.AperFunction,ComponentPad*%
%ADD10RoundRect,0.250000X-0.675000X0.600000X-0.675000X-0.600000X0.675000X-0.600000X0.675000X0.600000X0*%
%TD*%
%TA.AperFunction,ComponentPad*%
%ADD11O,1.850000X1.700000*%
%TD*%
%TA.AperFunction,ComponentPad*%
%ADD12R,1.000000X1.000000*%
%TD*%
%TA.AperFunction,ComponentPad*%
%ADD13O,1.000000X1.000000*%
%TD*%
%TA.AperFunction,ComponentPad*%
%ADD14RoundRect,0.250000X0.675000X-0.600000X0.675000X0.600000X-0.675000X0.600000X-0.675000X-0.600000X0*%
%TD*%
%TA.AperFunction,SMDPad,CuDef*%
%ADD15RoundRect,0.135000X-0.135000X-0.185000X0.135000X-0.185000X0.135000X0.185000X-0.135000X0.185000X0*%
%TD*%
%TA.AperFunction,SMDPad,CuDef*%
%ADD16R,0.900000X0.400000*%
%TD*%
%TA.AperFunction,SMDPad,CuDef*%
%ADD17RoundRect,0.200000X0.275000X-0.200000X0.275000X0.200000X-0.275000X0.200000X-0.275000X-0.200000X0*%
%TD*%
%TA.AperFunction,SMDPad,CuDef*%
%ADD18RoundRect,0.140000X0.021213X-0.219203X0.219203X-0.021213X-0.021213X0.219203X-0.219203X0.021213X0*%
%TD*%
%TA.AperFunction,SMDPad,CuDef*%
%ADD19RoundRect,0.237500X0.237500X-0.300000X0.237500X0.300000X-0.237500X0.300000X-0.237500X-0.300000X0*%
%TD*%
%TA.AperFunction,SMDPad,CuDef*%
%ADD20RoundRect,0.135000X-0.226274X-0.035355X-0.035355X-0.226274X0.226274X0.035355X0.035355X0.226274X0*%
%TD*%
%TA.AperFunction,SMDPad,CuDef*%
%ADD21RoundRect,0.140000X-0.021213X0.219203X-0.219203X0.021213X0.021213X-0.219203X0.219203X-0.021213X0*%
%TD*%
%TA.AperFunction,SMDPad,CuDef*%
%ADD22RotRect,1.300000X1.000000X45.000000*%
%TD*%
%TA.AperFunction,SMDPad,CuDef*%
%ADD23RoundRect,0.140000X0.219203X0.021213X0.021213X0.219203X-0.219203X-0.021213X-0.021213X-0.219203X0*%
%TD*%
%TA.AperFunction,SMDPad,CuDef*%
%ADD24RoundRect,0.135000X0.185000X-0.135000X0.185000X0.135000X-0.185000X0.135000X-0.185000X-0.135000X0*%
%TD*%
%TA.AperFunction,SMDPad,CuDef*%
%ADD25RoundRect,0.150000X-0.150000X-0.200000X0.150000X-0.200000X0.150000X0.200000X-0.150000X0.200000X0*%
%TD*%
%TA.AperFunction,SMDPad,CuDef*%
%ADD26RoundRect,0.250000X0.475000X-0.250000X0.475000X0.250000X-0.475000X0.250000X-0.475000X-0.250000X0*%
%TD*%
%TA.AperFunction,SMDPad,CuDef*%
%ADD27RoundRect,0.289157X1.110843X-0.910843X1.110843X0.910843X-1.110843X0.910843X-1.110843X-0.910843X0*%
%TD*%
%TA.AperFunction,SMDPad,CuDef*%
%ADD28RoundRect,0.140000X-0.219203X-0.021213X-0.021213X-0.219203X0.219203X0.021213X0.021213X0.219203X0*%
%TD*%
%TA.AperFunction,SMDPad,CuDef*%
%ADD29R,0.300000X1.000000*%
%TD*%
%TA.AperFunction,SMDPad,CuDef*%
%ADD30R,2.000000X1.300000*%
%TD*%
%TA.AperFunction,SMDPad,CuDef*%
%ADD31RoundRect,0.140000X-0.140000X-0.170000X0.140000X-0.170000X0.140000X0.170000X-0.140000X0.170000X0*%
%TD*%
%TA.AperFunction,SMDPad,CuDef*%
%ADD32RoundRect,0.135000X-0.185000X0.135000X-0.185000X-0.135000X0.185000X-0.135000X0.185000X0.135000X0*%
%TD*%
%TA.AperFunction,SMDPad,CuDef*%
%ADD33RoundRect,0.075000X-0.548008X0.441942X0.441942X-0.548008X0.548008X-0.441942X-0.441942X0.548008X0*%
%TD*%
%TA.AperFunction,SMDPad,CuDef*%
%ADD34RoundRect,0.075000X-0.548008X-0.441942X-0.441942X-0.548008X0.548008X0.441942X0.441942X0.548008X0*%
%TD*%
%TA.AperFunction,SMDPad,CuDef*%
%ADD35RoundRect,0.250000X-0.450000X-0.800000X0.450000X-0.800000X0.450000X0.800000X-0.450000X0.800000X0*%
%TD*%
%TA.AperFunction,ViaPad*%
%ADD36C,0.700000*%
%TD*%
%TA.AperFunction,ViaPad*%
%ADD37C,0.600000*%
%TD*%
%TA.AperFunction,Conductor*%
%ADD38C,0.300000*%
%TD*%
%TA.AperFunction,Conductor*%
%ADD39C,0.400000*%
%TD*%
%TA.AperFunction,Conductor*%
%ADD40C,0.800000*%
%TD*%
%TA.AperFunction,Conductor*%
%ADD41C,0.500000*%
%TD*%
%TA.AperFunction,Conductor*%
%ADD42C,1.000000*%
%TD*%
%TA.AperFunction,Conductor*%
%ADD43C,0.600000*%
%TD*%
%TA.AperFunction,Conductor*%
%ADD44C,2.000000*%
%TD*%
G04 APERTURE END LIST*
D10*
%TO.P,J3,1,Pin_1*%
%TO.N,Net-(J3-Pin_1)*%
X184350000Y-81500000D03*
D11*
%TO.P,J3,2,Pin_2*%
%TO.N,Net-(J3-Pin_2)*%
X184350000Y-84000000D03*
%TD*%
D12*
%TO.P,J5,1,Pin_1*%
%TO.N,unconnected-(J5-Pin_1-Pad1)*%
X149320000Y-74775000D03*
D13*
%TO.P,J5,2,Pin_2*%
%TO.N,+5V*%
X149320000Y-73505000D03*
%TO.P,J5,3,Pin_3*%
%TO.N,GND*%
X150590000Y-74775000D03*
%TO.P,J5,4,Pin_4*%
%TO.N,unconnected-(J5-Pin_4-Pad4)*%
X150590000Y-73505000D03*
%TO.P,J5,5,Pin_5*%
%TO.N,unconnected-(J5-Pin_5-Pad5)*%
X151860000Y-74775000D03*
%TO.P,J5,6,Pin_6*%
%TO.N,TIM3_CH2*%
X151860000Y-73505000D03*
%TO.P,J5,7,Pin_7*%
%TO.N,unconnected-(J5-Pin_7-Pad7)*%
X153130000Y-74775000D03*
%TO.P,J5,8,Pin_8*%
%TO.N,TIM3_CH1*%
X153130000Y-73505000D03*
%TO.P,J5,9,Pin_9*%
%TO.N,unconnected-(J5-Pin_9-Pad9)*%
X154400000Y-74775000D03*
%TO.P,J5,10,Pin_10*%
%TO.N,unconnected-(J5-Pin_10-Pad10)*%
X154400000Y-73505000D03*
%TD*%
D14*
%TO.P,J1,1,Pin_1*%
%TO.N,Net-(J1-Pin_1)*%
X144000000Y-84000000D03*
D11*
%TO.P,J1,2,Pin_2*%
%TO.N,Net-(J1-Pin_2)*%
X144000000Y-81500000D03*
%TD*%
D14*
%TO.P,J2,1,Pin_1*%
%TO.N,+BATT*%
X144000000Y-92400000D03*
D11*
%TO.P,J2,2,Pin_2*%
%TO.N,GND*%
X144000000Y-89900000D03*
%TD*%
D12*
%TO.P,J6,1,Pin_1*%
%TO.N,unconnected-(J6-Pin_1-Pad1)*%
X173800000Y-74825000D03*
D13*
%TO.P,J6,2,Pin_2*%
%TO.N,+5V*%
X173800000Y-73555000D03*
%TO.P,J6,3,Pin_3*%
%TO.N,GND*%
X175070000Y-74825000D03*
%TO.P,J6,4,Pin_4*%
%TO.N,unconnected-(J6-Pin_4-Pad4)*%
X175070000Y-73555000D03*
%TO.P,J6,5,Pin_5*%
%TO.N,unconnected-(J6-Pin_5-Pad5)*%
X176340000Y-74825000D03*
%TO.P,J6,6,Pin_6*%
%TO.N,TIM8_CH2*%
X176340000Y-73555000D03*
%TO.P,J6,7,Pin_7*%
%TO.N,unconnected-(J6-Pin_7-Pad7)*%
X177610000Y-74825000D03*
%TO.P,J6,8,Pin_8*%
%TO.N,TIM8_CH1*%
X177610000Y-73555000D03*
%TO.P,J6,9,Pin_9*%
%TO.N,unconnected-(J6-Pin_9-Pad9)*%
X178880000Y-74825000D03*
%TO.P,J6,10,Pin_10*%
%TO.N,unconnected-(J6-Pin_10-Pad10)*%
X178880000Y-73555000D03*
%TD*%
D15*
%TO.P,R36,1*%
%TO.N,BATTM*%
X177990000Y-77400000D03*
%TO.P,R36,2*%
%TO.N,+BATT*%
X179010000Y-77400000D03*
%TD*%
D16*
%TO.P,U9,1,S*%
%TO.N,MOTOR_DIR2*%
X176100000Y-84750000D03*
%TO.P,U9,2,GND*%
%TO.N,GND*%
X176100000Y-84100000D03*
%TO.P,U9,3,A*%
%TO.N,TIM2_CH3*%
X176100000Y-83450000D03*
%TO.P,U9,4,Y1*%
%TO.N,Net-(U5-IN1)*%
X178300000Y-83450000D03*
%TO.P,U9,5,Vcc*%
%TO.N,+3V3*%
X178300000Y-84100000D03*
%TO.P,U9,6,Y0*%
%TO.N,Net-(U5-IN2)*%
X178300000Y-84750000D03*
%TD*%
D17*
%TO.P,R28,1*%
%TO.N,ADC_IN7*%
X171300000Y-74250000D03*
%TO.P,R28,2*%
%TO.N,VDDA*%
X171300000Y-72600000D03*
%TD*%
D18*
%TO.P,C3,1*%
%TO.N,+3V3*%
X173260589Y-83939411D03*
%TO.P,C3,2*%
%TO.N,GND*%
X173939411Y-83260589D03*
%TD*%
D19*
%TO.P,C9,1*%
%TO.N,+BATT*%
X162600000Y-99800000D03*
%TO.P,C9,2*%
%TO.N,GND*%
X162600000Y-98075000D03*
%TD*%
D20*
%TO.P,R1,1*%
%TO.N,GND*%
X154939376Y-87939376D03*
%TO.P,R1,2*%
%TO.N,Net-(U1-BOOT0)*%
X155660624Y-88660624D03*
%TD*%
D21*
%TO.P,C1,1*%
%TO.N,+3V3*%
X154939411Y-84660589D03*
%TO.P,C1,2*%
%TO.N,GND*%
X154260589Y-85339411D03*
%TD*%
D22*
%TO.P,Y1,1,1*%
%TO.N,+3V3*%
X154185786Y-80541421D03*
%TO.P,Y1,2,2*%
%TO.N,GND*%
X155741421Y-78985786D03*
%TO.P,Y1,3,3*%
%TO.N,Net-(U1-PH0)*%
X157014214Y-80258579D03*
%TO.P,Y1,4,4*%
%TO.N,+3V3*%
X155458579Y-81814214D03*
%TD*%
D23*
%TO.P,C6,1*%
%TO.N,VDDA*%
X159839411Y-77189411D03*
%TO.P,C6,2*%
%TO.N,GND*%
X159160589Y-76510589D03*
%TD*%
D17*
%TO.P,R26,1*%
%TO.N,ADC_IN4*%
X168100000Y-74250000D03*
%TO.P,R26,2*%
%TO.N,VDDA*%
X168100000Y-72600000D03*
%TD*%
D21*
%TO.P,C5,1*%
%TO.N,+3V3*%
X155739411Y-85460589D03*
%TO.P,C5,2*%
%TO.N,GND*%
X155060589Y-86139411D03*
%TD*%
D17*
%TO.P,R20,1*%
%TO.N,ADC_IN12*%
X158500000Y-74250000D03*
%TO.P,R20,2*%
%TO.N,VDDA*%
X158500000Y-72600000D03*
%TD*%
D15*
%TO.P,R35,1*%
%TO.N,GND*%
X174790000Y-77400000D03*
%TO.P,R35,2*%
%TO.N,BATTM*%
X175810000Y-77400000D03*
%TD*%
D17*
%TO.P,R19,1*%
%TO.N,ADC_IN11*%
X156900000Y-74250000D03*
%TO.P,R19,2*%
%TO.N,VDDA*%
X156900000Y-72600000D03*
%TD*%
%TO.P,R27,1*%
%TO.N,ADC_IN5*%
X169700000Y-74250000D03*
%TO.P,R27,2*%
%TO.N,VDDA*%
X169700000Y-72600000D03*
%TD*%
D24*
%TO.P,R13,1*%
%TO.N,Net-(U10-Y0)*%
X149000000Y-81800000D03*
%TO.P,R13,2*%
%TO.N,GND*%
X149000000Y-80780000D03*
%TD*%
D25*
%TO.P,D5,1,K*%
%TO.N,VDDA*%
X179100000Y-78900000D03*
%TO.P,D5,2,A*%
%TO.N,BATTM*%
X177700000Y-78900000D03*
%TD*%
D19*
%TO.P,C11,1*%
%TO.N,+BATT*%
X159390000Y-99800000D03*
%TO.P,C11,2*%
%TO.N,GND*%
X159390000Y-98075000D03*
%TD*%
D17*
%TO.P,R22,1*%
%TO.N,ADC_IN0*%
X161700000Y-74250000D03*
%TO.P,R22,2*%
%TO.N,VDDA*%
X161700000Y-72600000D03*
%TD*%
D26*
%TO.P,C15,1*%
%TO.N,+5V*%
X150400000Y-90850000D03*
%TO.P,C15,2*%
%TO.N,GND*%
X150400000Y-88950000D03*
%TD*%
D21*
%TO.P,C8,1*%
%TO.N,Net-(J13-Pin_2)*%
X154939411Y-77660589D03*
%TO.P,C8,2*%
%TO.N,GND*%
X154260589Y-78339411D03*
%TD*%
D27*
%TO.P,C25,1*%
%TO.N,+BATT*%
X156000000Y-99600000D03*
%TO.P,C25,2*%
%TO.N,GND*%
X156000000Y-93200000D03*
%TD*%
D26*
%TO.P,C14,1*%
%TO.N,+5V*%
X152600000Y-90850000D03*
%TO.P,C14,2*%
%TO.N,GND*%
X152600000Y-88950000D03*
%TD*%
D19*
%TO.P,C10,1*%
%TO.N,+BATT*%
X161000000Y-99800000D03*
%TO.P,C10,2*%
%TO.N,GND*%
X161000000Y-98075000D03*
%TD*%
D23*
%TO.P,C7,1*%
%TO.N,GND*%
X173139411Y-82539411D03*
%TO.P,C7,2*%
%TO.N,Net-(U1-VCAP_1)*%
X172460589Y-81860589D03*
%TD*%
D17*
%TO.P,R25,1*%
%TO.N,ADC_IN3*%
X166500000Y-74250000D03*
%TO.P,R25,2*%
%TO.N,VDDA*%
X166500000Y-72600000D03*
%TD*%
D23*
%TO.P,C2,1*%
%TO.N,+3V3*%
X166939411Y-76539411D03*
%TO.P,C2,2*%
%TO.N,GND*%
X166260589Y-75860589D03*
%TD*%
D26*
%TO.P,C16,1*%
%TO.N,+5V*%
X148200000Y-90850000D03*
%TO.P,C16,2*%
%TO.N,GND*%
X148200000Y-88950000D03*
%TD*%
D28*
%TO.P,C4,1*%
%TO.N,+3V3*%
X166360589Y-93060589D03*
%TO.P,C4,2*%
%TO.N,GND*%
X167039411Y-93739411D03*
%TD*%
D27*
%TO.P,C26,1*%
%TO.N,+BATT*%
X150800000Y-99600000D03*
%TO.P,C26,2*%
%TO.N,GND*%
X150800000Y-93200000D03*
%TD*%
D16*
%TO.P,U10,1,S*%
%TO.N,MOTOR_DIR1*%
X152400000Y-81900000D03*
%TO.P,U10,2,GND*%
%TO.N,GND*%
X152400000Y-82550000D03*
%TO.P,U10,3,A*%
%TO.N,TIM2_CH2*%
X152400000Y-83200000D03*
%TO.P,U10,4,Y1*%
%TO.N,Net-(U10-Y1)*%
X150200000Y-83200000D03*
%TO.P,U10,5,Vcc*%
%TO.N,+3V3*%
X150200000Y-82550000D03*
%TO.P,U10,6,Y0*%
%TO.N,Net-(U10-Y0)*%
X150200000Y-81900000D03*
%TD*%
D17*
%TO.P,R23,1*%
%TO.N,ADC_IN1*%
X163300000Y-74250000D03*
%TO.P,R23,2*%
%TO.N,VDDA*%
X163300000Y-72600000D03*
%TD*%
D29*
%TO.P,J12,1,Pin_1*%
%TO.N,+3V3*%
X176150000Y-95400000D03*
%TO.P,J12,2,Pin_2*%
%TO.N,+5V*%
X175650000Y-95400000D03*
%TO.P,J12,3,Pin_3*%
%TO.N,PB14*%
X175150000Y-95400000D03*
%TO.P,J12,4,Pin_4*%
%TO.N,PB15*%
X174650000Y-95400000D03*
%TO.P,J12,5,Pin_5*%
%TO.N,PB13*%
X174150000Y-95400000D03*
%TO.P,J12,6,Pin_6*%
%TO.N,PB0*%
X173650000Y-95400000D03*
%TO.P,J12,7,Pin_7*%
%TO.N,PB1*%
X173150000Y-95400000D03*
%TO.P,J12,8,Pin_8*%
%TO.N,PC8*%
X172650000Y-95400000D03*
%TO.P,J12,9,Pin_9*%
%TO.N,PC9*%
X172150000Y-95400000D03*
%TO.P,J12,10,Pin_10*%
%TO.N,PA8*%
X171650000Y-95400000D03*
%TO.P,J12,11,Pin_11*%
%TO.N,PA9*%
X171150000Y-95400000D03*
%TO.P,J12,12,Pin_12*%
%TO.N,PB7*%
X170650000Y-95400000D03*
%TO.P,J12,13,Pin_13*%
%TO.N,PB6*%
X170150000Y-95400000D03*
%TO.P,J12,14,Pin_14*%
%TO.N,PB8*%
X169650000Y-95400000D03*
%TO.P,J12,15,Pin_15*%
%TO.N,GND*%
X169150000Y-95400000D03*
%TO.P,J12,16,Pin_16*%
X168650000Y-95400000D03*
D30*
%TO.P,J12,MP*%
%TO.N,N/C*%
X178450000Y-98100000D03*
X166350000Y-98100000D03*
%TD*%
D31*
%TO.P,C31,1*%
%TO.N,GND*%
X174820000Y-78900000D03*
%TO.P,C31,2*%
%TO.N,BATTM*%
X175780000Y-78900000D03*
%TD*%
D32*
%TO.P,R5,1*%
%TO.N,GND*%
X179400000Y-82390000D03*
%TO.P,R5,2*%
%TO.N,Net-(U5-IN1)*%
X179400000Y-83410000D03*
%TD*%
D17*
%TO.P,R24,1*%
%TO.N,ADC_IN2*%
X164900000Y-74250000D03*
%TO.P,R24,2*%
%TO.N,VDDA*%
X164900000Y-72600000D03*
%TD*%
%TO.P,R21,1*%
%TO.N,ADC_IN13*%
X160100000Y-74250000D03*
%TO.P,R21,2*%
%TO.N,VDDA*%
X160100000Y-72600000D03*
%TD*%
D24*
%TO.P,R16,1*%
%TO.N,GND*%
X149000000Y-84310000D03*
%TO.P,R16,2*%
%TO.N,Net-(U10-Y1)*%
X149000000Y-83290000D03*
%TD*%
D33*
%TO.P,U1,1,VBAT*%
%TO.N,+3V3*%
X157434686Y-83200000D03*
%TO.P,U1,2,PC13*%
%TO.N,Sidemarker_L*%
X157788239Y-82846447D03*
%TO.P,U1,3,PC14*%
%TO.N,RGBLED*%
X158141792Y-82492894D03*
%TO.P,U1,4,PC15*%
%TO.N,MOTOR_DIR1*%
X158495346Y-82139340D03*
%TO.P,U1,5,PH0*%
%TO.N,Net-(U1-PH0)*%
X158848899Y-81785787D03*
%TO.P,U1,6,PH1*%
%TO.N,unconnected-(U1-PH1-Pad6)*%
X159202453Y-81432233D03*
%TO.P,U1,7,NRST*%
%TO.N,Net-(J13-Pin_2)*%
X159556006Y-81078680D03*
%TO.P,U1,8,PC0*%
%TO.N,MOTOR_CM1*%
X159909559Y-80725127D03*
%TO.P,U1,9,PC1*%
%TO.N,ADC_IN11*%
X160263113Y-80371573D03*
%TO.P,U1,10,PC2*%
%TO.N,ADC_IN12*%
X160616666Y-80018020D03*
%TO.P,U1,11,PC3*%
%TO.N,ADC_IN13*%
X160970219Y-79664467D03*
%TO.P,U1,12,VSSA*%
%TO.N,GND*%
X161323773Y-79310913D03*
%TO.P,U1,13,VDDA*%
%TO.N,VDDA*%
X161677326Y-78957360D03*
%TO.P,U1,14,PA0*%
%TO.N,ADC_IN0*%
X162030880Y-78603806D03*
%TO.P,U1,15,PA1*%
%TO.N,ADC_IN1*%
X162384433Y-78250253D03*
%TO.P,U1,16,PA2*%
%TO.N,ADC_IN2*%
X162737986Y-77896700D03*
D34*
%TO.P,U1,17,PA3*%
%TO.N,ADC_IN3*%
X165460348Y-77896700D03*
%TO.P,U1,18,VSS*%
%TO.N,GND*%
X165813901Y-78250253D03*
%TO.P,U1,19,VDD*%
%TO.N,+3V3*%
X166167454Y-78603806D03*
%TO.P,U1,20,PA4*%
%TO.N,ADC_IN4*%
X166521008Y-78957360D03*
%TO.P,U1,21,PA5*%
%TO.N,ADC_IN5*%
X166874561Y-79310913D03*
%TO.P,U1,22,PA6*%
%TO.N,TIM13_CH1*%
X167228115Y-79664467D03*
%TO.P,U1,23,PA7*%
%TO.N,ADC_IN7*%
X167581668Y-80018020D03*
%TO.P,U1,24,PC4*%
%TO.N,BATTM*%
X167935221Y-80371573D03*
%TO.P,U1,25,PC5*%
%TO.N,MOTOR_CM2*%
X168288775Y-80725127D03*
%TO.P,U1,26,PB0*%
%TO.N,PB0*%
X168642328Y-81078680D03*
%TO.P,U1,27,PB1*%
%TO.N,PB1*%
X168995881Y-81432233D03*
%TO.P,U1,28,PB2*%
%TO.N,MOTOR_DIR2*%
X169349435Y-81785787D03*
%TO.P,U1,29,PB10*%
%TO.N,TIM2_CH3*%
X169702988Y-82139340D03*
%TO.P,U1,30,VCAP_1*%
%TO.N,Net-(U1-VCAP_1)*%
X170056542Y-82492894D03*
%TO.P,U1,31,VSS*%
%TO.N,GND*%
X170410095Y-82846447D03*
%TO.P,U1,32,VDD*%
%TO.N,+3V3*%
X170763648Y-83200000D03*
D33*
%TO.P,U1,33,PB12*%
%TO.N,Sidemarker_R*%
X170763648Y-85922362D03*
%TO.P,U1,34,PB13*%
%TO.N,PB13*%
X170410095Y-86275915D03*
%TO.P,U1,35,PB14*%
%TO.N,PB14*%
X170056542Y-86629468D03*
%TO.P,U1,36,PB15*%
%TO.N,PB15*%
X169702988Y-86983022D03*
%TO.P,U1,37,PC6*%
%TO.N,TIM8_CH1*%
X169349435Y-87336575D03*
%TO.P,U1,38,PC7*%
%TO.N,TIM8_CH2*%
X168995881Y-87690129D03*
%TO.P,U1,39,PC8*%
%TO.N,PC8*%
X168642328Y-88043682D03*
%TO.P,U1,40,PC9*%
%TO.N,PC9*%
X168288775Y-88397235D03*
%TO.P,U1,41,PA8*%
%TO.N,PA8*%
X167935221Y-88750789D03*
%TO.P,U1,42,PA9*%
%TO.N,PA9*%
X167581668Y-89104342D03*
%TO.P,U1,43,PA10*%
%TO.N,Button1*%
X167228115Y-89457895D03*
%TO.P,U1,44,PA11*%
%TO.N,Button2*%
X166874561Y-89811449D03*
%TO.P,U1,45,PA12*%
%TO.N,CS_IMU_CSB2*%
X166521008Y-90165002D03*
%TO.P,U1,46,PA13*%
%TO.N,SWDIO*%
X166167454Y-90518556D03*
%TO.P,U1,47,VSS*%
%TO.N,GND*%
X165813901Y-90872109D03*
%TO.P,U1,48,VDD*%
%TO.N,+3V3*%
X165460348Y-91225662D03*
D34*
%TO.P,U1,49,PA14*%
%TO.N,SWCLK*%
X162737986Y-91225662D03*
%TO.P,U1,50,PA15*%
%TO.N,CS_IMU_CSB1*%
X162384433Y-90872109D03*
%TO.P,U1,51,PC10*%
%TO.N,SPI3_SCK*%
X162030880Y-90518556D03*
%TO.P,U1,52,PC11*%
%TO.N,SPI3_MISO*%
X161677326Y-90165002D03*
%TO.P,U1,53,PC12*%
%TO.N,SPI3_MOSI*%
X161323773Y-89811449D03*
%TO.P,U1,54,PD2*%
%TO.N,CS_MSD*%
X160970219Y-89457895D03*
%TO.P,U1,55,PB3*%
%TO.N,SWO*%
X160616666Y-89104342D03*
%TO.P,U1,56,PB4*%
%TO.N,TIM3_CH1*%
X160263113Y-88750789D03*
%TO.P,U1,57,PB5*%
%TO.N,TIM3_CH2*%
X159909559Y-88397235D03*
%TO.P,U1,58,PB6*%
%TO.N,PB6*%
X159556006Y-88043682D03*
%TO.P,U1,59,PB7*%
%TO.N,PB7*%
X159202453Y-87690129D03*
%TO.P,U1,60,BOOT0*%
%TO.N,Net-(U1-BOOT0)*%
X158848899Y-87336575D03*
%TO.P,U1,61,PB8*%
%TO.N,PB8*%
X158495346Y-86983022D03*
%TO.P,U1,62,PB9*%
%TO.N,TIM2_CH2*%
X158141792Y-86629468D03*
%TO.P,U1,63,VSS*%
%TO.N,GND*%
X157788239Y-86275915D03*
%TO.P,U1,64,VDD*%
%TO.N,+3V3*%
X157434686Y-85922362D03*
%TD*%
D35*
%TO.P,D2,1,K*%
%TO.N,+BATT*%
X181900000Y-93400000D03*
%TO.P,D2,2,A*%
%TO.N,GND*%
X186300000Y-93400000D03*
%TD*%
D32*
%TO.P,R6,1*%
%TO.N,Net-(U5-IN2)*%
X179400000Y-84790000D03*
%TO.P,R6,2*%
%TO.N,GND*%
X179400000Y-85810000D03*
%TD*%
D36*
%TO.N,+3V3*%
X150971488Y-78380000D03*
X177990000Y-86107742D03*
X146900000Y-90400000D03*
X145900000Y-90400000D03*
X148739693Y-76939693D03*
X165600000Y-89100000D03*
X163200000Y-83200000D03*
X146900000Y-89400000D03*
X161966933Y-86873253D03*
X163799500Y-91400000D03*
X150477273Y-84155715D03*
X175500000Y-96500000D03*
X145900000Y-89400000D03*
X180715978Y-79100000D03*
X163800000Y-79481025D03*
%TO.N,GND*%
X141500000Y-79600000D03*
X141500000Y-80600000D03*
X168899502Y-94000000D03*
X141500000Y-85600000D03*
X146800000Y-82600000D03*
X165549500Y-93563409D03*
X141500000Y-78600000D03*
X142400000Y-77500000D03*
X185000000Y-95900000D03*
X158950000Y-77000000D03*
X143400000Y-78600000D03*
X141500000Y-82600000D03*
X184000000Y-95900000D03*
X166821178Y-75300000D03*
X147074750Y-85525250D03*
X181800000Y-72700000D03*
X141500000Y-83600000D03*
X174807794Y-97188750D03*
X141500000Y-84600000D03*
X181512500Y-86737500D03*
X142400000Y-79600000D03*
X141500000Y-77500000D03*
X152001390Y-77600000D03*
X186000000Y-95900000D03*
X155100000Y-97900000D03*
X143400000Y-79600000D03*
X187000000Y-95900000D03*
X141500000Y-81600000D03*
X181800000Y-73600000D03*
X174300000Y-82100000D03*
X142400000Y-78600000D03*
X150200000Y-93384641D03*
X143400000Y-77500000D03*
X166350000Y-88150000D03*
X182700000Y-73600000D03*
X181800000Y-84300000D03*
X161400000Y-83900000D03*
X153700000Y-96500000D03*
X182700000Y-72700000D03*
X150200000Y-77600000D03*
%TO.N,VDDA*%
X175700000Y-72600000D03*
X160150000Y-75250000D03*
X179900000Y-78700000D03*
X155700000Y-73400000D03*
X169000000Y-77250000D03*
D37*
%TO.N,Net-(J13-Pin_2)*%
X153400000Y-78000000D03*
D36*
%TO.N,+BATT*%
X185300000Y-91600000D03*
X186300000Y-89600000D03*
X147000000Y-99600000D03*
X146000000Y-99600000D03*
X148000000Y-100600000D03*
X147000000Y-100600000D03*
X184300000Y-89600000D03*
X148000000Y-99600000D03*
X146000000Y-98600000D03*
X185300000Y-89600000D03*
X186300000Y-91600000D03*
X184300000Y-91600000D03*
X185300000Y-90600000D03*
X184300000Y-90600000D03*
X146000000Y-100600000D03*
X179900000Y-77400000D03*
X147000000Y-98600000D03*
X186300000Y-90600000D03*
X148000000Y-98600000D03*
%TO.N,+5V*%
X152700000Y-93200000D03*
X171600000Y-85500000D03*
X151900000Y-95800000D03*
X156747224Y-85337737D03*
X172500000Y-79700000D03*
X153900000Y-93200000D03*
X175850000Y-90650000D03*
X153300000Y-92500000D03*
D37*
%TO.N,Button2*%
X169431410Y-93275672D03*
%TO.N,Button1*%
X169633436Y-92454089D03*
%TO.N,SWDIO*%
X178400000Y-94000000D03*
%TO.N,SWCLK*%
X179300000Y-94000000D03*
%TO.N,SWO*%
X180400000Y-94000000D03*
%TO.N,SPI3_MISO*%
X166581583Y-95912903D03*
%TO.N,SPI3_MOSI*%
X162550000Y-95774021D03*
%TO.N,SPI3_SCK*%
X164771952Y-95412403D03*
%TO.N,PB7*%
X157200000Y-88949500D03*
X169800000Y-97600000D03*
%TO.N,ADC_IN7*%
X170549469Y-73442706D03*
%TO.N,ADC_IN11*%
X156900000Y-73599500D03*
%TO.N,ADC_IN12*%
X159237125Y-73452412D03*
%TO.N,ADC_IN13*%
X160705804Y-73527853D03*
%TO.N,ADC_IN0*%
X161702733Y-73599534D03*
%TO.N,ADC_IN1*%
X163300000Y-73599500D03*
%TO.N,ADC_IN2*%
X164900000Y-73599500D03*
%TO.N,ADC_IN3*%
X166500000Y-73599500D03*
%TO.N,ADC_IN4*%
X167572740Y-73558661D03*
%TO.N,ADC_IN5*%
X168962875Y-73452412D03*
%TO.N,RGBLED*%
X159300000Y-83012348D03*
%TO.N,CS_MSD*%
X161428468Y-95912903D03*
%TO.N,Sidemarker_L*%
X158951000Y-83761848D03*
%TO.N,Sidemarker_R*%
X168720023Y-85979977D03*
%TO.N,PB6*%
X157938762Y-89449500D03*
X169000000Y-97300000D03*
%TO.N,PB15*%
X173509266Y-86709266D03*
X173425638Y-89125638D03*
%TO.N,PB14*%
X173820250Y-85900000D03*
X174489693Y-88910307D03*
%TO.N,PB13*%
X171500000Y-89900000D03*
X171978312Y-86261734D03*
%TO.N,CS_IMU_CSB1*%
X161800000Y-93400000D03*
%TO.N,PB1*%
X171700000Y-80001886D03*
X172800000Y-91800000D03*
%TO.N,PB0*%
X171049500Y-79352386D03*
X173799500Y-92455955D03*
%TO.N,Net-(U5-IN1)*%
X179610250Y-81710250D03*
%TO.N,Net-(U5-IN2)*%
X179100000Y-86900000D03*
%TO.N,MOTOR_CM2*%
X180475438Y-81975438D03*
X180900000Y-86038000D03*
%TO.N,MOTOR_CM1*%
X147950000Y-80400000D03*
X147938379Y-84658699D03*
%TO.N,CS_IMU_CSB2*%
X168318250Y-93081750D03*
%TO.N,PB8*%
X159600000Y-86363567D03*
X169650000Y-94650000D03*
%TO.N,TIM13_CH1*%
X165760500Y-80272782D03*
%TO.N,Net-(U10-Y1)*%
X148633837Y-85053088D03*
%TO.N,Net-(U10-Y0)*%
X149307479Y-79679060D03*
%TD*%
D38*
%TO.N,+3V3*%
X166939411Y-76539411D02*
X166939411Y-77831849D01*
D39*
X151201890Y-83431098D02*
X150477273Y-84155715D01*
D40*
X155458579Y-81814214D02*
X154185786Y-80541421D01*
D38*
X166200000Y-91965314D02*
X165460348Y-91225662D01*
D41*
X156915626Y-86300000D02*
X157363975Y-85851651D01*
D39*
X177990000Y-86107742D02*
X177907742Y-86107742D01*
D38*
X158257047Y-84657047D02*
X158700000Y-85100000D01*
D39*
X151201890Y-82146220D02*
X151201890Y-83000000D01*
X177550000Y-84400000D02*
X177550000Y-85050000D01*
D38*
X157434686Y-85922362D02*
X158257047Y-85100000D01*
D39*
X177850000Y-84100000D02*
X177550000Y-84400000D01*
D41*
X156578822Y-86300000D02*
X156915626Y-86300000D01*
D38*
X158700000Y-85100000D02*
X159239339Y-85100000D01*
X164934686Y-90700000D02*
X165460348Y-91225662D01*
X158257047Y-85100000D02*
X158700000Y-85100000D01*
D39*
X177907742Y-86107742D02*
X177200000Y-85400000D01*
X151201890Y-82953780D02*
X151201890Y-83000000D01*
D38*
X171526992Y-82726992D02*
X172739411Y-83939411D01*
D39*
X151643311Y-80541421D02*
X151643311Y-80558579D01*
D38*
X164500000Y-90700000D02*
X164934686Y-90700000D01*
D39*
X151201890Y-82146220D02*
X151201890Y-81000000D01*
X150798110Y-82550000D02*
X151201890Y-82146220D01*
X154185786Y-80541421D02*
X151643311Y-80541421D01*
D38*
X172739411Y-83939411D02*
X173260589Y-83939411D01*
X158257047Y-84600000D02*
X158257047Y-84657047D01*
X158257047Y-84600000D02*
X158257047Y-85100000D01*
D39*
X150200000Y-82550000D02*
X150798110Y-82550000D01*
D38*
X158257047Y-84022361D02*
X158257047Y-84600000D01*
D39*
X174721178Y-85400000D02*
X173260589Y-83939411D01*
D41*
X154939411Y-84660589D02*
X155739411Y-85460589D01*
D38*
X175700000Y-96500000D02*
X176150000Y-96050000D01*
X173700000Y-84400000D02*
X173710589Y-84389411D01*
D39*
X151201890Y-80100000D02*
X151201890Y-78610402D01*
D38*
X166200000Y-92900000D02*
X166200000Y-91965314D01*
D39*
X151643311Y-80541421D02*
X151201890Y-80100000D01*
X151201890Y-81000000D02*
X151201890Y-80100000D01*
X178300000Y-84100000D02*
X177850000Y-84100000D01*
X177550000Y-85050000D02*
X177200000Y-85400000D01*
D38*
X173200000Y-84000000D02*
X173260589Y-83939411D01*
X170763648Y-83200000D02*
X171236656Y-82726992D01*
X166360589Y-93060589D02*
X166200000Y-92900000D01*
X166939411Y-77831849D02*
X166167454Y-78603806D01*
D39*
X177200000Y-85400000D02*
X174721178Y-85400000D01*
D38*
X173710589Y-84389411D02*
X173260589Y-83939411D01*
X163800000Y-79481025D02*
X165290235Y-79481025D01*
X163800000Y-91400000D02*
X164500000Y-90700000D01*
X163799500Y-91400000D02*
X163800000Y-91400000D01*
X172739411Y-83939411D02*
X173200000Y-84400000D01*
X161139339Y-83200000D02*
X163200000Y-83200000D01*
X171236656Y-82726992D02*
X171526992Y-82726992D01*
X173200000Y-84400000D02*
X173200000Y-84000000D01*
X176150000Y-96050000D02*
X176150000Y-95400000D01*
X173200000Y-84400000D02*
X173700000Y-84400000D01*
X157434686Y-83200000D02*
X158257047Y-84022361D01*
X159239339Y-85100000D02*
X161139339Y-83200000D01*
D39*
X151201890Y-83000000D02*
X151201890Y-83431098D01*
X150798110Y-82550000D02*
X151201890Y-82953780D01*
X151643311Y-80558579D02*
X151201890Y-81000000D01*
X151201890Y-78610402D02*
X150971488Y-78380000D01*
D38*
X165290235Y-79481025D02*
X166167454Y-78603806D01*
D41*
X155739411Y-85460589D02*
X156578822Y-86300000D01*
D38*
X175500000Y-96500000D02*
X175700000Y-96500000D01*
D39*
%TO.N,GND*%
X165805883Y-93819792D02*
X165549500Y-93563409D01*
D41*
X187100000Y-92600000D02*
X187100000Y-79638300D01*
D42*
X156000000Y-94685000D02*
X159390000Y-98075000D01*
X150800000Y-93200000D02*
X150100000Y-93900000D01*
D39*
X176100000Y-84100000D02*
X174778822Y-84100000D01*
D41*
X155060589Y-86139411D02*
X154260589Y-85339411D01*
X154260589Y-78339411D02*
X154260589Y-78937329D01*
X174820000Y-78942965D02*
X175477035Y-79600000D01*
D39*
X149000000Y-80361531D02*
X148500000Y-79861531D01*
D38*
X167069792Y-92128000D02*
X167069792Y-93709030D01*
D43*
X174790000Y-77400000D02*
X174790000Y-78870000D01*
D39*
X179679450Y-85810000D02*
X180606950Y-86737500D01*
X152400000Y-82550000D02*
X153250000Y-82550000D01*
D41*
X181700000Y-82077547D02*
X181700000Y-78068629D01*
D39*
X174778822Y-84100000D02*
X173939411Y-83260589D01*
D38*
X159700000Y-85600000D02*
X158464154Y-85600000D01*
D39*
X154180208Y-83480208D02*
X154180208Y-85259030D01*
D38*
X166000000Y-76121178D02*
X166000000Y-76845362D01*
D41*
X186300000Y-93400000D02*
X187100000Y-92600000D01*
D38*
X159972083Y-77959225D02*
X161323773Y-79310913D01*
X166000000Y-76845362D02*
X166433356Y-77278718D01*
X180200000Y-83190000D02*
X180200000Y-85010000D01*
D41*
X152765117Y-79188035D02*
X154009883Y-79188035D01*
D38*
X158464154Y-85600000D02*
X157788239Y-86275915D01*
X166962865Y-93815957D02*
X167039411Y-93739411D01*
D42*
X150100000Y-93900000D02*
X150100000Y-96200000D01*
D41*
X174820000Y-78900000D02*
X174820000Y-78942965D01*
D42*
X155740559Y-93200000D02*
X156000000Y-93200000D01*
D38*
X173139411Y-82539411D02*
X173860589Y-82539411D01*
D39*
X148500000Y-79861531D02*
X148500000Y-79300000D01*
D41*
X152001390Y-77600000D02*
X150200000Y-77600000D01*
D42*
X159390000Y-98075000D02*
X162600000Y-98075000D01*
D40*
X144000000Y-89922918D02*
X147277082Y-93200000D01*
D39*
X167039411Y-93739411D02*
X166959030Y-93819792D01*
D41*
X152001390Y-77600000D02*
X152001390Y-78424308D01*
D38*
X158950000Y-77000000D02*
X158950000Y-76721178D01*
D40*
X147074750Y-85525250D02*
X147502588Y-85953088D01*
D41*
X181800000Y-74338300D02*
X181800000Y-73600000D01*
D38*
X159664606Y-77959225D02*
X159972083Y-77959225D01*
D40*
X147277082Y-93200000D02*
X150800000Y-93200000D01*
D42*
X148200000Y-88950000D02*
X152600000Y-88950000D01*
D40*
X150590000Y-75705000D02*
X150590000Y-74775000D01*
X150420000Y-75875000D02*
X150590000Y-75705000D01*
D38*
X173939411Y-83260589D02*
X173860589Y-83260589D01*
X159160589Y-76510589D02*
X158950000Y-76721178D01*
X172107106Y-82600000D02*
X173078822Y-82600000D01*
X173078822Y-82600000D02*
X173139411Y-82539411D01*
X166700000Y-93815957D02*
X166962865Y-93815957D01*
X158950000Y-77244619D02*
X159664606Y-77959225D01*
D41*
X175637894Y-76100000D02*
X175070000Y-75532106D01*
X181700000Y-84200000D02*
X181800000Y-84300000D01*
D38*
X167069792Y-93709030D02*
X167039411Y-93739411D01*
D42*
X154047056Y-96850000D02*
X156200000Y-94697056D01*
D38*
X173860589Y-82539411D02*
X174300000Y-82100000D01*
X156764154Y-87300000D02*
X156143610Y-87300000D01*
D39*
X149000000Y-80780000D02*
X149000000Y-80361531D01*
D38*
X156143610Y-87300000D02*
X155060589Y-86216979D01*
D40*
X144000000Y-89900000D02*
X144000000Y-89922918D01*
D41*
X154009883Y-79188035D02*
X154212132Y-78985786D01*
D38*
X148330000Y-83640000D02*
X148330000Y-81450000D01*
D40*
X148220000Y-75875000D02*
X150420000Y-75875000D01*
D42*
X156200000Y-94697056D02*
X156200000Y-93200000D01*
D41*
X181700000Y-78068629D02*
X179731371Y-76100000D01*
X179222453Y-79600000D02*
X181700000Y-82077547D01*
D39*
X153250000Y-82550000D02*
X154180208Y-83480208D01*
D38*
X168650000Y-95400000D02*
X169150000Y-95400000D01*
X158950000Y-76721178D02*
X158950000Y-77244619D01*
D41*
X179731371Y-76100000D02*
X175637894Y-76100000D01*
D38*
X173860589Y-83260589D02*
X173139411Y-82539411D01*
D39*
X179400000Y-85810000D02*
X179679450Y-85810000D01*
D38*
X179400000Y-82390000D02*
X180200000Y-83190000D01*
D42*
X150750000Y-96850000D02*
X154047056Y-96850000D01*
D39*
X148500000Y-79300000D02*
X150200000Y-77600000D01*
D38*
X154260589Y-85339411D02*
X154290970Y-85369792D01*
D41*
X175070000Y-75532106D02*
X175070000Y-74825000D01*
D38*
X166260589Y-75860589D02*
X166000000Y-76121178D01*
X161400000Y-83900000D02*
X159700000Y-85600000D01*
X170410095Y-82846447D02*
X171029549Y-82226992D01*
D40*
X152953088Y-85953088D02*
X154939376Y-87939376D01*
X147074750Y-85525250D02*
X146800000Y-85250500D01*
D38*
X170410095Y-82846447D02*
X166350000Y-86906542D01*
D41*
X154212132Y-78985786D02*
X155741421Y-78985786D01*
D38*
X149000000Y-84310000D02*
X148330000Y-83640000D01*
D39*
X180606950Y-86737500D02*
X181512500Y-86737500D01*
D38*
X165813901Y-90872109D02*
X167069792Y-92128000D01*
X171029549Y-82226992D02*
X171734098Y-82226992D01*
D39*
X166959030Y-93819792D02*
X165805883Y-93819792D01*
D38*
X171734098Y-82226992D02*
X172107106Y-82600000D01*
D41*
X175477035Y-79600000D02*
X179222453Y-79600000D01*
D40*
X146800000Y-85250500D02*
X146800000Y-82600000D01*
D41*
X166821178Y-75300000D02*
X166260589Y-75860589D01*
X181512500Y-86737500D02*
X181484576Y-86737500D01*
D38*
X168650000Y-94249502D02*
X168650000Y-95400000D01*
D41*
X154260589Y-78937329D02*
X154212132Y-78985786D01*
D38*
X180200000Y-85010000D02*
X179400000Y-85810000D01*
D41*
X152001390Y-78424308D02*
X152765117Y-79188035D01*
D38*
X166433356Y-77278718D02*
X166433356Y-77630798D01*
X168899502Y-94000000D02*
X168650000Y-94249502D01*
X155060589Y-86216979D02*
X155060589Y-86139411D01*
D40*
X146800000Y-77295000D02*
X148220000Y-75875000D01*
D38*
X166433356Y-77630798D02*
X165813901Y-78250253D01*
D41*
X159215000Y-97900000D02*
X159390000Y-98075000D01*
D40*
X146800000Y-82600000D02*
X146800000Y-77295000D01*
D41*
X155100000Y-97900000D02*
X159215000Y-97900000D01*
D40*
X181800000Y-84300000D02*
X181800000Y-86450000D01*
X147502588Y-85953088D02*
X152953088Y-85953088D01*
D39*
X154180208Y-85259030D02*
X154260589Y-85339411D01*
D41*
X181700000Y-82077547D02*
X181700000Y-84200000D01*
D38*
X166350000Y-86906542D02*
X166350000Y-88150000D01*
X157788239Y-86275915D02*
X156764154Y-87300000D01*
D41*
X187100000Y-79638300D02*
X181800000Y-74338300D01*
D40*
X181800000Y-86450000D02*
X181512500Y-86737500D01*
D38*
X148330000Y-81450000D02*
X149000000Y-80780000D01*
D42*
X150100000Y-96200000D02*
X150750000Y-96850000D01*
D43*
X174790000Y-78870000D02*
X174820000Y-78900000D01*
D42*
X156000000Y-93200000D02*
X156000000Y-94685000D01*
D38*
%TO.N,VDDA*%
X160150000Y-76878822D02*
X159839411Y-77189411D01*
D40*
X156500000Y-72600000D02*
X156900000Y-72600000D01*
D43*
X175700000Y-72600000D02*
X175655000Y-72555000D01*
X175655000Y-72555000D02*
X171345000Y-72555000D01*
D40*
X156957294Y-72542706D02*
X156900000Y-72600000D01*
D38*
X159909377Y-77189411D02*
X161677326Y-78957360D01*
D41*
X179900000Y-78700000D02*
X179300000Y-78700000D01*
D40*
X171300000Y-72600000D02*
X171242706Y-72542706D01*
X171242706Y-72542706D02*
X156957294Y-72542706D01*
D41*
X179300000Y-78700000D02*
X179100000Y-78900000D01*
D38*
X160150000Y-75250000D02*
X160150000Y-76878822D01*
D40*
X155700000Y-73400000D02*
X156500000Y-72600000D01*
D43*
X171345000Y-72555000D02*
X171300000Y-72600000D01*
D38*
%TO.N,Net-(U1-VCAP_1)*%
X170056542Y-82492894D02*
X170822442Y-81726992D01*
X170822442Y-81726992D02*
X172326992Y-81726992D01*
X172326992Y-81726992D02*
X172460589Y-81860589D01*
D41*
%TO.N,Net-(J13-Pin_2)*%
X153400000Y-78000000D02*
X153869792Y-77530208D01*
D38*
X158629076Y-80459225D02*
X155969851Y-77800000D01*
X155969851Y-77800000D02*
X155078822Y-77800000D01*
D41*
X154809030Y-77530208D02*
X154939411Y-77660589D01*
D38*
X159556006Y-81078680D02*
X158936551Y-80459225D01*
X155078822Y-77800000D02*
X154939411Y-77660589D01*
X158936551Y-80459225D02*
X158629076Y-80459225D01*
D41*
X153869792Y-77530208D02*
X154809030Y-77530208D01*
D44*
%TO.N,+BATT*%
X179700000Y-100300000D02*
X181900000Y-98100000D01*
X150800000Y-99600000D02*
X148600000Y-99600000D01*
X144000000Y-95000000D02*
X147600000Y-98600000D01*
D42*
X160350000Y-100075000D02*
X160400000Y-100025000D01*
D44*
X156200000Y-99600000D02*
X156900000Y-100300000D01*
X156900000Y-100300000D02*
X179700000Y-100300000D01*
D43*
X179900000Y-77400000D02*
X179010000Y-77400000D01*
D44*
X144000000Y-92400000D02*
X144000000Y-95000000D01*
X150800000Y-99600000D02*
X156200000Y-99600000D01*
X181900000Y-98100000D02*
X181900000Y-92500000D01*
X183800000Y-90600000D02*
X185300000Y-90600000D01*
D42*
X160512500Y-100137500D02*
X160400000Y-100025000D01*
D44*
X181900000Y-92500000D02*
X183800000Y-90600000D01*
D40*
%TO.N,+5V*%
X153300000Y-92500000D02*
X153300000Y-91550000D01*
D41*
X152700000Y-95000000D02*
X152700000Y-93200000D01*
D38*
X175650000Y-94550000D02*
X175650000Y-95400000D01*
X176100000Y-94100000D02*
X175650000Y-94550000D01*
D41*
X151900000Y-95800000D02*
X152700000Y-95000000D01*
D42*
X152600000Y-90850000D02*
X148200000Y-90850000D01*
D40*
X153300000Y-91550000D02*
X152600000Y-90850000D01*
D38*
X175850000Y-90650000D02*
X176100000Y-90900000D01*
X176100000Y-90900000D02*
X176100000Y-94100000D01*
%TO.N,Button2*%
X168983936Y-91920822D02*
X166874561Y-89811449D01*
X168983936Y-92828198D02*
X168983936Y-91920822D01*
X169431410Y-93275672D02*
X168983936Y-92828198D01*
%TO.N,Button1*%
X169633436Y-92454089D02*
X169633436Y-91863216D01*
X169633436Y-91863216D02*
X167228115Y-89457895D01*
D43*
%TO.N,BATTM*%
X175810000Y-78870000D02*
X175780000Y-78900000D01*
D38*
X171706794Y-76600000D02*
X175010000Y-76600000D01*
D43*
X175810000Y-77400000D02*
X177990000Y-77400000D01*
X177700000Y-78900000D02*
X177700000Y-77690000D01*
X177700000Y-78900000D02*
X175780000Y-78900000D01*
D38*
X175010000Y-76600000D02*
X175810000Y-77400000D01*
D43*
X175810000Y-77400000D02*
X175810000Y-78870000D01*
X177700000Y-77690000D02*
X177990000Y-77400000D01*
D38*
X167935221Y-80371573D02*
X171706794Y-76600000D01*
%TO.N,SWDIO*%
X174785788Y-98200000D02*
X169000000Y-98200000D01*
X168400000Y-97600000D02*
X168400000Y-96868628D01*
X168400000Y-96868628D02*
X167648614Y-96117242D01*
X178400000Y-94585788D02*
X174785788Y-98200000D01*
X167648614Y-96117242D02*
X167648614Y-91999716D01*
X169000000Y-98200000D02*
X168400000Y-97600000D01*
X178400000Y-94000000D02*
X178400000Y-94585788D01*
X167648614Y-91999716D02*
X166167454Y-90518556D01*
%TO.N,SWCLK*%
X166391744Y-94662403D02*
X164662403Y-94662403D01*
X168000000Y-97034314D02*
X167200000Y-96234314D01*
X167200000Y-95470659D02*
X166391744Y-94662403D01*
X162200000Y-91763648D02*
X162737986Y-91225662D01*
X179300000Y-94450000D02*
X175150000Y-98600000D01*
X162200000Y-92200000D02*
X162200000Y-91763648D01*
X168600000Y-98600000D02*
X168000000Y-98000000D01*
X179300000Y-94000000D02*
X179300000Y-94450000D01*
X164662403Y-94662403D02*
X162200000Y-92200000D01*
X175150000Y-98600000D02*
X168600000Y-98600000D01*
X168000000Y-98000000D02*
X168000000Y-97034314D01*
X167200000Y-96234314D02*
X167200000Y-95470659D01*
%TO.N,SWO*%
X167600000Y-98400000D02*
X167600000Y-97200000D01*
X160362403Y-96662403D02*
X158800000Y-95100000D01*
X158800000Y-95100000D02*
X158800000Y-90921008D01*
X175450000Y-99000000D02*
X168200000Y-99000000D01*
X158800000Y-90921008D02*
X160616666Y-89104342D01*
X180400000Y-94050000D02*
X175450000Y-99000000D01*
X167062403Y-96662403D02*
X160362403Y-96662403D01*
X180400000Y-94000000D02*
X180400000Y-94050000D01*
X167600000Y-97200000D02*
X167062403Y-96662403D01*
X168200000Y-99000000D02*
X167600000Y-98400000D01*
%TO.N,TIM2_CH2*%
X153000000Y-83200000D02*
X153551386Y-83751386D01*
X153551386Y-85521162D02*
X155830224Y-87800000D01*
X155830224Y-87800000D02*
X156971261Y-87800000D01*
X152400000Y-83200000D02*
X153000000Y-83200000D01*
X153551386Y-83751386D02*
X153551386Y-85521162D01*
X156971261Y-87800000D02*
X158141792Y-86629468D01*
%TO.N,SPI3_MISO*%
X166581583Y-95912903D02*
X166332083Y-96162403D01*
X160980634Y-94650000D02*
X160550000Y-94219366D01*
X162950000Y-94650000D02*
X160980634Y-94650000D01*
X164021952Y-95723064D02*
X164021952Y-95721952D01*
X166332083Y-96162403D02*
X164461291Y-96162403D01*
X164461291Y-96162403D02*
X164021952Y-95723064D01*
X164021952Y-95721952D02*
X162950000Y-94650000D01*
X160550000Y-91292329D02*
X161677326Y-90165002D01*
X160550000Y-94219366D02*
X160550000Y-91292329D01*
%TO.N,SPI3_MOSI*%
X160000000Y-94700000D02*
X160000000Y-91135222D01*
X160450000Y-95150000D02*
X160000000Y-94700000D01*
X161925979Y-95150000D02*
X160450000Y-95150000D01*
X162550000Y-95774021D02*
X161925979Y-95150000D01*
X160000000Y-91135222D02*
X161323773Y-89811449D01*
%TO.N,SPI3_SCK*%
X163250000Y-94150000D02*
X161489339Y-94150000D01*
X164512403Y-95412403D02*
X163250000Y-94150000D01*
X164771952Y-95412403D02*
X164512403Y-95412403D01*
X161489339Y-94150000D02*
X161050000Y-93710661D01*
X161050000Y-93710661D02*
X161050000Y-91499436D01*
X161050000Y-91499436D02*
X162030880Y-90518556D01*
%TO.N,PB7*%
X157350000Y-88799500D02*
X158093081Y-88799500D01*
X169800000Y-97600000D02*
X170650000Y-96750000D01*
X158093081Y-88799500D02*
X159202453Y-87690129D01*
X170650000Y-96750000D02*
X170650000Y-95400000D01*
X157200000Y-88949500D02*
X157350000Y-88799500D01*
%TO.N,ADC_IN7*%
X171300000Y-74250000D02*
X171400000Y-74350000D01*
D41*
X170549469Y-73442706D02*
X171300000Y-74193237D01*
D38*
X171400000Y-76199688D02*
X167581668Y-80018020D01*
X171400000Y-74350000D02*
X171400000Y-76199688D01*
D41*
X171300000Y-74193237D02*
X171300000Y-74250000D01*
D38*
%TO.N,ADC_IN11*%
X156450000Y-74700000D02*
X156450000Y-76865936D01*
X159043288Y-79459225D02*
X159350763Y-79459225D01*
D41*
X156900000Y-74250000D02*
X156900000Y-73599500D01*
D38*
X159350763Y-79459225D02*
X160263113Y-80371573D01*
X156450000Y-76865936D02*
X159043288Y-79459225D01*
X156900000Y-74250000D02*
X156450000Y-74700000D01*
%TO.N,ADC_IN12*%
X158500000Y-74250000D02*
X158150000Y-74250000D01*
X157402817Y-75000000D02*
X157400000Y-75000000D01*
X158150000Y-74250000D02*
X157725000Y-74675000D01*
X156950000Y-75450000D02*
X156950000Y-76658831D01*
X159250394Y-78959225D02*
X159557870Y-78959225D01*
D41*
X158500000Y-74250000D02*
X158500000Y-74189537D01*
D38*
X157725000Y-74675000D02*
X157725000Y-74677817D01*
X157400000Y-75000000D02*
X156950000Y-75450000D01*
X156950000Y-76658831D02*
X159250394Y-78959225D01*
D41*
X158500000Y-74189537D02*
X159237125Y-73452412D01*
D38*
X159557870Y-78959225D02*
X160616666Y-80018020D01*
X157725000Y-74677817D02*
X157402817Y-75000000D01*
%TO.N,ADC_IN13*%
X159764977Y-78459225D02*
X160970219Y-79664467D01*
X159350000Y-75000000D02*
X158109924Y-75000000D01*
D41*
X160100000Y-74133657D02*
X160705804Y-73527853D01*
D38*
X157609923Y-75500000D02*
X157607106Y-75500000D01*
X157607106Y-75500000D02*
X157450000Y-75657106D01*
X158109924Y-75000000D02*
X157609923Y-75500000D01*
X159457500Y-78459225D02*
X159764977Y-78459225D01*
X157450000Y-76451725D02*
X159457500Y-78459225D01*
X157450000Y-75657106D02*
X157450000Y-76451725D01*
D41*
X160100000Y-74250000D02*
X160100000Y-74133657D01*
D38*
X160100000Y-74250000D02*
X159350000Y-75000000D01*
D41*
%TO.N,ADC_IN0*%
X161700000Y-74250000D02*
X161700000Y-73602267D01*
D38*
X161200000Y-76585788D02*
X161200000Y-77772927D01*
D41*
X161700000Y-73602267D02*
X161702733Y-73599534D01*
D38*
X161700000Y-74250000D02*
X161700000Y-76085788D01*
X161700000Y-76085788D02*
X161200000Y-76585788D01*
X161200000Y-77772927D02*
X162030880Y-78603806D01*
%TO.N,ADC_IN1*%
X163300000Y-75192894D02*
X161700000Y-76792894D01*
X161700000Y-77565820D02*
X162384433Y-78250253D01*
X161700000Y-76792894D02*
X161700000Y-77565820D01*
X163300000Y-74250000D02*
X163300000Y-75192894D01*
D41*
X163300000Y-74250000D02*
X163300000Y-73599500D01*
%TO.N,ADC_IN2*%
X164900000Y-74250000D02*
X164900000Y-73599500D01*
D38*
X162200000Y-77000000D02*
X162200000Y-77358714D01*
X162200000Y-77358714D02*
X162737986Y-77896700D01*
X164900000Y-74250000D02*
X164900000Y-74300000D01*
X164900000Y-74300000D02*
X162200000Y-77000000D01*
%TO.N,ADC_IN3*%
X165351386Y-77787738D02*
X165460348Y-77896700D01*
D41*
X166500000Y-74250000D02*
X166500000Y-73599500D01*
D38*
X165351386Y-75398614D02*
X165351386Y-77787738D01*
X166500000Y-74250000D02*
X165351386Y-75398614D01*
%TO.N,ADC_IN4*%
X168100000Y-74250000D02*
X168650000Y-74800000D01*
D41*
X168100000Y-74085921D02*
X168100000Y-74250000D01*
D38*
X168650000Y-75784888D02*
X167539411Y-76895477D01*
X167539411Y-76895477D02*
X167539411Y-77938956D01*
D41*
X167572740Y-73558661D02*
X168100000Y-74085921D01*
D38*
X167539411Y-77938956D02*
X166521008Y-78957360D01*
X168650000Y-74800000D02*
X168650000Y-75784888D01*
%TO.N,ADC_IN5*%
X169700000Y-74250000D02*
X169700000Y-75441994D01*
D41*
X169700000Y-74189537D02*
X168962875Y-73452412D01*
D38*
X168039411Y-77102583D02*
X168039411Y-78146063D01*
X168039411Y-78146063D02*
X166874561Y-79310913D01*
X169700000Y-75441994D02*
X168039411Y-77102583D01*
%TO.N,RGBLED*%
X159300000Y-83012348D02*
X158661246Y-83012348D01*
X158661246Y-83012348D02*
X158141792Y-82492894D01*
%TO.N,CS_MSD*%
X161428468Y-95912903D02*
X160412903Y-95912903D01*
X160412903Y-95912903D02*
X159400000Y-94900000D01*
X159400000Y-91028114D02*
X160970219Y-89457895D01*
X159400000Y-94900000D02*
X159400000Y-91028114D01*
%TO.N,Sidemarker_L*%
X158951000Y-83761848D02*
X158703640Y-83761848D01*
X158703640Y-83761848D02*
X157788239Y-82846447D01*
%TO.N,Sidemarker_R*%
X168720023Y-85979977D02*
X169397093Y-85302907D01*
X169397093Y-85302907D02*
X170144193Y-85302907D01*
X170144193Y-85302907D02*
X170763648Y-85922362D01*
%TO.N,PC9*%
X171300000Y-93485788D02*
X172150000Y-94335788D01*
X172150000Y-94335788D02*
X172150000Y-95400000D01*
X171300000Y-91408461D02*
X171300000Y-93485788D01*
X168288775Y-88397235D02*
X171300000Y-91408461D01*
%TO.N,PC8*%
X171800000Y-91201354D02*
X171800000Y-93278682D01*
X168642328Y-88043682D02*
X171800000Y-91201354D01*
X171800000Y-93278682D02*
X172650000Y-94128682D01*
X172650000Y-94128682D02*
X172650000Y-95400000D01*
%TO.N,PB6*%
X170150000Y-96150000D02*
X170150000Y-95400000D01*
X157938762Y-89449500D02*
X158150188Y-89449500D01*
X169000000Y-97300000D02*
X170150000Y-96150000D01*
X158150188Y-89449500D02*
X159556006Y-88043682D01*
%TO.N,PB15*%
X170819966Y-88100000D02*
X169702988Y-86983022D01*
X174650000Y-94135788D02*
X174650000Y-95400000D01*
X173425638Y-90125638D02*
X175100000Y-91800000D01*
X175100000Y-93685788D02*
X174650000Y-94135788D01*
X173509266Y-86709266D02*
X172118532Y-88100000D01*
X172118532Y-88100000D02*
X170819966Y-88100000D01*
X173425638Y-89125638D02*
X173425638Y-90125638D01*
X175100000Y-91800000D02*
X175100000Y-93685788D01*
%TO.N,PB14*%
X175150000Y-94342894D02*
X175150000Y-95400000D01*
X174489693Y-88910307D02*
X174759308Y-89179922D01*
X175600000Y-93892894D02*
X175150000Y-94342894D01*
X173820250Y-85900000D02*
X173770250Y-85950000D01*
X171600000Y-87600000D02*
X171027074Y-87600000D01*
X174759308Y-89179922D02*
X174759308Y-90659308D01*
X174759308Y-90659308D02*
X175600000Y-91500000D01*
X175600000Y-91500000D02*
X175600000Y-93892894D01*
X173250000Y-85950000D02*
X171600000Y-87600000D01*
X173770250Y-85950000D02*
X173250000Y-85950000D01*
X171027074Y-87600000D02*
X170056542Y-86629468D01*
%TO.N,PB13*%
X172100000Y-90500000D02*
X173092894Y-90500000D01*
X171381630Y-86895370D02*
X171029550Y-86895370D01*
X171029550Y-86895370D02*
X170410095Y-86275915D01*
X174600000Y-92007106D02*
X174600000Y-93478682D01*
X173092894Y-90500000D02*
X174600000Y-92007106D01*
X174150000Y-93928682D02*
X174150000Y-95400000D01*
X171978312Y-86261734D02*
X171978312Y-86298688D01*
X171500000Y-89900000D02*
X172100000Y-90500000D01*
X171978312Y-86298688D02*
X171381630Y-86895370D01*
X174600000Y-93478682D02*
X174150000Y-93928682D01*
%TO.N,CS_IMU_CSB1*%
X161700000Y-93300000D02*
X161700000Y-91556541D01*
X161700000Y-91556541D02*
X162384433Y-90872109D01*
X161800000Y-93400000D02*
X161700000Y-93300000D01*
%TO.N,PB1*%
X172800000Y-91800000D02*
X173150000Y-92150000D01*
X171700000Y-80001886D02*
X170426228Y-80001886D01*
X170426228Y-80001886D02*
X168995881Y-81432233D01*
X173150000Y-92150000D02*
X173150000Y-95400000D01*
%TO.N,PB0*%
X173650000Y-92605455D02*
X173650000Y-95400000D01*
X170368622Y-79352386D02*
X168642328Y-81078680D01*
X171049500Y-79352386D02*
X170368622Y-79352386D01*
X173799500Y-92455955D02*
X173650000Y-92605455D01*
%TO.N,Net-(U1-BOOT0)*%
X156021248Y-88300000D02*
X157885474Y-88300000D01*
X157885474Y-88300000D02*
X158848899Y-87336575D01*
X155660624Y-88660624D02*
X156021248Y-88300000D01*
%TO.N,Net-(U5-IN1)*%
X179610250Y-81710250D02*
X179073856Y-81710250D01*
D39*
X178300000Y-83450000D02*
X179360000Y-83450000D01*
D38*
X178300000Y-82484106D02*
X178300000Y-83450000D01*
D39*
X179360000Y-83450000D02*
X179400000Y-83410000D01*
D38*
X179073856Y-81710250D02*
X178300000Y-82484106D01*
D39*
%TO.N,Net-(U5-IN2)*%
X179360000Y-84750000D02*
X179400000Y-84790000D01*
D38*
X178690000Y-85140000D02*
X178300000Y-84750000D01*
X179100000Y-86900000D02*
X178690000Y-86490000D01*
X178690000Y-86490000D02*
X178690000Y-85140000D01*
D39*
X178300000Y-84750000D02*
X179360000Y-84750000D01*
D38*
%TO.N,MOTOR_CM2*%
X174251386Y-80151386D02*
X172502386Y-78402386D01*
X170611516Y-78402386D02*
X168288775Y-80725127D01*
X180700000Y-82200000D02*
X180475438Y-81975438D01*
X180475438Y-81775438D02*
X178851386Y-80151386D01*
X172502386Y-78402386D02*
X170611516Y-78402386D01*
X180700000Y-85838000D02*
X180700000Y-82200000D01*
X180475438Y-81975438D02*
X180475438Y-81775438D01*
X178851386Y-80151386D02*
X174251386Y-80151386D01*
X180900000Y-86038000D02*
X180700000Y-85838000D01*
%TO.N,MOTOR_CM1*%
X159143657Y-79959225D02*
X159909559Y-80725127D01*
X147950000Y-80400000D02*
X147950000Y-78789339D01*
X147950000Y-78789339D02*
X150039339Y-76700000D01*
X150039339Y-76700000D02*
X155576957Y-76700000D01*
X155576957Y-76700000D02*
X158836182Y-79959225D01*
X158836182Y-79959225D02*
X159143657Y-79959225D01*
X147938379Y-84658699D02*
X147930000Y-84650320D01*
X147930000Y-84650320D02*
X147930000Y-80420000D01*
X147930000Y-80420000D02*
X147950000Y-80400000D01*
%TO.N,TIM3_CH1*%
X145175000Y-85393266D02*
X146984822Y-87203088D01*
X158313900Y-90700000D02*
X160263113Y-88750789D01*
X152447454Y-87203088D02*
X155944366Y-90700000D01*
X153130000Y-73505000D02*
X151780000Y-72155000D01*
X155944366Y-90700000D02*
X158313900Y-90700000D01*
X148545000Y-72155000D02*
X147800000Y-72900000D01*
X151780000Y-72155000D02*
X148545000Y-72155000D01*
X147800000Y-74400000D02*
X145175000Y-77025000D01*
X147800000Y-72900000D02*
X147800000Y-74400000D01*
X145175000Y-77025000D02*
X145175000Y-85393266D01*
X146984822Y-87203088D02*
X152447454Y-87203088D01*
%TO.N,Net-(U1-PH0)*%
X157014214Y-80258579D02*
X157321691Y-80258579D01*
X157321691Y-80258579D02*
X158848899Y-81785787D01*
%TO.N,TIM2_CH3*%
X176100000Y-81753553D02*
X176100000Y-83450000D01*
X175497833Y-81151386D02*
X170690942Y-81151386D01*
X170690942Y-81151386D02*
X169702988Y-82139340D01*
X175497833Y-81151386D02*
X176100000Y-81753553D01*
%TO.N,MOTOR_DIR2*%
X176650000Y-84750000D02*
X176100000Y-84750000D01*
X176900000Y-84500000D02*
X176650000Y-84750000D01*
X175751386Y-80651386D02*
X176900000Y-81800000D01*
X170483834Y-80651386D02*
X175751386Y-80651386D01*
X169349435Y-81785787D02*
X170483834Y-80651386D01*
X176900000Y-81800000D02*
X176900000Y-84500000D01*
%TO.N,MOTOR_DIR1*%
X153900000Y-81900000D02*
X154977387Y-82977387D01*
X155822613Y-82977387D02*
X157280114Y-81519886D01*
X154977387Y-82977387D02*
X155822613Y-82977387D01*
X157280114Y-81519886D02*
X157875890Y-81519886D01*
X157875890Y-81519886D02*
X158495346Y-82139340D01*
X152400000Y-81900000D02*
X153900000Y-81900000D01*
%TO.N,CS_IMU_CSB2*%
X168318250Y-91962244D02*
X166521008Y-90165002D01*
X168318250Y-93081750D02*
X168318250Y-91962244D01*
%TO.N,TIM3_CH2*%
X148967918Y-72655000D02*
X148470000Y-73152918D01*
X148470000Y-73152918D02*
X148470000Y-74430000D01*
X148470000Y-74430000D02*
X145575000Y-77325000D01*
X147191928Y-86703088D02*
X152654560Y-86703088D01*
X156151472Y-90200000D02*
X158106794Y-90200000D01*
X151860000Y-73505000D02*
X151010000Y-72655000D01*
X152654560Y-86703088D02*
X156151472Y-90200000D01*
X151010000Y-72655000D02*
X148967918Y-72655000D01*
X145575000Y-77325000D02*
X145575000Y-85086160D01*
X158106794Y-90200000D02*
X159909559Y-88397235D01*
X145575000Y-85086160D02*
X147191928Y-86703088D01*
%TO.N,PB8*%
X169650000Y-94650000D02*
X169650000Y-95400000D01*
X159600000Y-86363567D02*
X159114801Y-86363567D01*
X159114801Y-86363567D02*
X158495346Y-86983022D01*
%TO.N,TIM8_CH1*%
X177610000Y-73555000D02*
X178460000Y-72705000D01*
X172325638Y-88600000D02*
X170612860Y-88600000D01*
X170612860Y-88600000D02*
X169349435Y-87336575D01*
X179800000Y-74080762D02*
X182775000Y-77055762D01*
X176572086Y-87600000D02*
X173325638Y-87600000D01*
X179800000Y-73272918D02*
X179800000Y-74080762D01*
X181009506Y-88490494D02*
X177462580Y-88490494D01*
X182775000Y-77055762D02*
X182775000Y-86725000D01*
X177462580Y-88490494D02*
X176572086Y-87600000D01*
X173325638Y-87600000D02*
X172325638Y-88600000D01*
X182775000Y-86725000D02*
X181009506Y-88490494D01*
X179232082Y-72705000D02*
X179800000Y-73272918D01*
X178460000Y-72705000D02*
X179232082Y-72705000D01*
%TO.N,TIM8_CH2*%
X176364980Y-88100000D02*
X173532744Y-88100000D01*
X177690000Y-72205000D02*
X179522094Y-72205000D01*
X183175000Y-87132106D02*
X181316612Y-88990494D01*
X179522094Y-72205000D02*
X180400000Y-73082906D01*
X181316612Y-88990494D02*
X177255474Y-88990494D01*
X173532744Y-88100000D02*
X172532744Y-89100000D01*
X183175000Y-76775000D02*
X183175000Y-87132106D01*
X180400000Y-74000000D02*
X183175000Y-76775000D01*
X172532744Y-89100000D02*
X170405754Y-89100000D01*
X177255474Y-88990494D02*
X176364980Y-88100000D01*
X176340000Y-73555000D02*
X177690000Y-72205000D01*
X180400000Y-73082906D02*
X180400000Y-74000000D01*
X170405754Y-89100000D02*
X168995881Y-87690129D01*
%TO.N,PA9*%
X170300000Y-93900000D02*
X171150000Y-94750000D01*
X171150000Y-94750000D02*
X171150000Y-95400000D01*
X167581668Y-89104342D02*
X170300000Y-91822674D01*
X170300000Y-91822674D02*
X170300000Y-93900000D01*
%TO.N,PA8*%
X167935221Y-88750789D02*
X170800000Y-91615567D01*
X171650000Y-94542894D02*
X171650000Y-95400000D01*
X170800000Y-93692894D02*
X171650000Y-94542894D01*
X170800000Y-91615567D02*
X170800000Y-93692894D01*
%TO.N,TIM13_CH1*%
X166245440Y-80272782D02*
X166256579Y-80283921D01*
X166608659Y-80283921D02*
X167228115Y-79664467D01*
X166256579Y-80283921D02*
X166608659Y-80283921D01*
X165760500Y-80272782D02*
X166245440Y-80272782D01*
D39*
%TO.N,Net-(U10-Y1)*%
X149333516Y-85053088D02*
X149727273Y-84659331D01*
X149383302Y-83616698D02*
X149727273Y-83960669D01*
X150200000Y-83200000D02*
X149727273Y-83672727D01*
X149727273Y-84659331D02*
X149727273Y-83960669D01*
X149056604Y-83290000D02*
X149383302Y-83616698D01*
X150200000Y-83200000D02*
X149090000Y-83200000D01*
X150200000Y-83200000D02*
X149800000Y-83200000D01*
X149727273Y-83672727D02*
X149727273Y-83960669D01*
X149090000Y-83200000D02*
X149000000Y-83290000D01*
X149800000Y-83200000D02*
X149383302Y-83616698D01*
X148633837Y-85053088D02*
X149333516Y-85053088D01*
X149000000Y-83290000D02*
X149056604Y-83290000D01*
%TO.N,Net-(U10-Y0)*%
X150200000Y-81900000D02*
X149600000Y-81900000D01*
X149720000Y-81136604D02*
X149720000Y-81400000D01*
X149100000Y-81900000D02*
X149000000Y-81800000D01*
X149720000Y-81400000D02*
X149720000Y-81580000D01*
X149400000Y-81900000D02*
X149100000Y-81900000D01*
X149000000Y-81800000D02*
X149056604Y-81800000D01*
X149720000Y-81136604D02*
X149720000Y-80091581D01*
X149720000Y-81580000D02*
X149400000Y-81900000D01*
X149720000Y-81780000D02*
X149600000Y-81900000D01*
X149720000Y-80091581D02*
X149307479Y-79679060D01*
X149056604Y-81800000D02*
X149720000Y-81136604D01*
X149720000Y-81400000D02*
X149720000Y-81780000D01*
X149600000Y-81900000D02*
X149400000Y-81900000D01*
%TD*%
%TA.AperFunction,Conductor*%
%TO.N,GND*%
G36*
X144806798Y-76719685D02*
G01*
X144852553Y-76772489D01*
X144862497Y-76841647D01*
X144858603Y-76859384D01*
X144841506Y-76916808D01*
X144840725Y-76919246D01*
X144824499Y-76966512D01*
X144823294Y-76973733D01*
X144822382Y-76981046D01*
X144824447Y-77030948D01*
X144824500Y-77033510D01*
X144824500Y-80502585D01*
X144804815Y-80569624D01*
X144752011Y-80615379D01*
X144682853Y-80625323D01*
X144642047Y-80611943D01*
X144478958Y-80524769D01*
X144314981Y-80475028D01*
X144280934Y-80464700D01*
X144280932Y-80464699D01*
X144280934Y-80464699D01*
X144161805Y-80452966D01*
X144126608Y-80449500D01*
X143873392Y-80449500D01*
X143835298Y-80453251D01*
X143719067Y-80464699D01*
X143521043Y-80524769D01*
X143449209Y-80563166D01*
X143338550Y-80622315D01*
X143338548Y-80622316D01*
X143338547Y-80622317D01*
X143178589Y-80753589D01*
X143063139Y-80894268D01*
X143047315Y-80913550D01*
X143021628Y-80961606D01*
X142949769Y-81096043D01*
X142889699Y-81294067D01*
X142869417Y-81499999D01*
X142889699Y-81705932D01*
X142901096Y-81743502D01*
X142949768Y-81903954D01*
X143047315Y-82086450D01*
X143070499Y-82114700D01*
X143178589Y-82246410D01*
X143244498Y-82300499D01*
X143338550Y-82377685D01*
X143521046Y-82475232D01*
X143719066Y-82535300D01*
X143719065Y-82535300D01*
X143757647Y-82539100D01*
X143873392Y-82550500D01*
X143873395Y-82550500D01*
X144126605Y-82550500D01*
X144126608Y-82550500D01*
X144280934Y-82535300D01*
X144478954Y-82475232D01*
X144642048Y-82388055D01*
X144710449Y-82373814D01*
X144775693Y-82398814D01*
X144817064Y-82455118D01*
X144824500Y-82497414D01*
X144824500Y-82825500D01*
X144804815Y-82892539D01*
X144752011Y-82938294D01*
X144700500Y-82949500D01*
X143270730Y-82949500D01*
X143240300Y-82952353D01*
X143240298Y-82952353D01*
X143112119Y-82997206D01*
X143112117Y-82997207D01*
X143002850Y-83077850D01*
X142922207Y-83187117D01*
X142922206Y-83187119D01*
X142877353Y-83315298D01*
X142877353Y-83315300D01*
X142874500Y-83345730D01*
X142874500Y-84654269D01*
X142877353Y-84684699D01*
X142877353Y-84684701D01*
X142921985Y-84812248D01*
X142922207Y-84812882D01*
X143002850Y-84922150D01*
X143112118Y-85002793D01*
X143154845Y-85017744D01*
X143240299Y-85047646D01*
X143270730Y-85050500D01*
X144700500Y-85050500D01*
X144767539Y-85070185D01*
X144813294Y-85122989D01*
X144824500Y-85174500D01*
X144824500Y-85344054D01*
X144821861Y-85369498D01*
X144819957Y-85378577D01*
X144819957Y-85378583D01*
X144824023Y-85411203D01*
X144824500Y-85418880D01*
X144824500Y-85422306D01*
X144825176Y-85426358D01*
X144827876Y-85442542D01*
X144828245Y-85445074D01*
X144834427Y-85494659D01*
X144836520Y-85501692D01*
X144838907Y-85508645D01*
X144838908Y-85508647D01*
X144843713Y-85517525D01*
X144862691Y-85552596D01*
X144863864Y-85554874D01*
X144885802Y-85599750D01*
X144885804Y-85599752D01*
X144890071Y-85605730D01*
X144894582Y-85611525D01*
X144931341Y-85645364D01*
X144933190Y-85647138D01*
X145817867Y-86531815D01*
X146702182Y-87416129D01*
X146718306Y-87435984D01*
X146723385Y-87443757D01*
X146749331Y-87463951D01*
X146755094Y-87469041D01*
X146757516Y-87471463D01*
X146774213Y-87483384D01*
X146776251Y-87484904D01*
X146815696Y-87515605D01*
X146815697Y-87515605D01*
X146815698Y-87515606D01*
X146822164Y-87519105D01*
X146828755Y-87522328D01*
X146876644Y-87536585D01*
X146879064Y-87537360D01*
X146926334Y-87553588D01*
X146926339Y-87553588D01*
X146933590Y-87554798D01*
X146940868Y-87555705D01*
X146990784Y-87553640D01*
X146993343Y-87553588D01*
X152250910Y-87553588D01*
X152317949Y-87573273D01*
X152338591Y-87589907D01*
X155661728Y-90913044D01*
X155677855Y-90932902D01*
X155682929Y-90940669D01*
X155682931Y-90940671D01*
X155708871Y-90960860D01*
X155714634Y-90965950D01*
X155717059Y-90968375D01*
X155717061Y-90968377D01*
X155733756Y-90980297D01*
X155735811Y-90981829D01*
X155745792Y-90989597D01*
X155775240Y-91012517D01*
X155775244Y-91012518D01*
X155781712Y-91016018D01*
X155788296Y-91019237D01*
X155788299Y-91019239D01*
X155836208Y-91033502D01*
X155838610Y-91034272D01*
X155885878Y-91050500D01*
X155885880Y-91050500D01*
X155893120Y-91051708D01*
X155900412Y-91052617D01*
X155950316Y-91050552D01*
X155952877Y-91050500D01*
X158264689Y-91050500D01*
X158290134Y-91053138D01*
X158299215Y-91055043D01*
X158307069Y-91054063D01*
X158310159Y-91053679D01*
X158379119Y-91064918D01*
X158431055Y-91111656D01*
X158449500Y-91176726D01*
X158449500Y-95050788D01*
X158446861Y-95076232D01*
X158444957Y-95085312D01*
X158444957Y-95085316D01*
X158449023Y-95117938D01*
X158449499Y-95125600D01*
X158449499Y-95129033D01*
X158449501Y-95129052D01*
X158452876Y-95149277D01*
X158453245Y-95151809D01*
X158459427Y-95201393D01*
X158461520Y-95208426D01*
X158463907Y-95215379D01*
X158463908Y-95215381D01*
X158467239Y-95221536D01*
X158487691Y-95259330D01*
X158488864Y-95261608D01*
X158510802Y-95306484D01*
X158510804Y-95306486D01*
X158515071Y-95312464D01*
X158519582Y-95318259D01*
X158556341Y-95352098D01*
X158558190Y-95353872D01*
X160079765Y-96875447D01*
X160095892Y-96895305D01*
X160100966Y-96903072D01*
X160100968Y-96903074D01*
X160117912Y-96916261D01*
X160121592Y-96919126D01*
X160126908Y-96923263D01*
X160132671Y-96928353D01*
X160135097Y-96930779D01*
X160151802Y-96942706D01*
X160153835Y-96944221D01*
X160193277Y-96974920D01*
X160193278Y-96974920D01*
X160193279Y-96974921D01*
X160199721Y-96978407D01*
X160206339Y-96981644D01*
X160254225Y-96995900D01*
X160256666Y-96996682D01*
X160269567Y-97001110D01*
X160303915Y-97012903D01*
X160303920Y-97012903D01*
X160311184Y-97014115D01*
X160318449Y-97015021D01*
X160318449Y-97015020D01*
X160318450Y-97015021D01*
X160368378Y-97012955D01*
X160370939Y-97012903D01*
X165260711Y-97012903D01*
X165327750Y-97032588D01*
X165373505Y-97085392D01*
X165383449Y-97154550D01*
X165354424Y-97218106D01*
X165295646Y-97255880D01*
X165284902Y-97258520D01*
X165271770Y-97261131D01*
X165271769Y-97261132D01*
X165205447Y-97305447D01*
X165161132Y-97371769D01*
X165161131Y-97371770D01*
X165149500Y-97430247D01*
X165149500Y-98769752D01*
X165161131Y-98828229D01*
X165161132Y-98828230D01*
X165212233Y-98904707D01*
X165209084Y-98906810D01*
X165232199Y-98949142D01*
X165227215Y-99018834D01*
X165185343Y-99074767D01*
X165119879Y-99099184D01*
X165111033Y-99099500D01*
X163040154Y-99099500D01*
X162999199Y-99092541D01*
X162980051Y-99085840D01*
X162919848Y-99064774D01*
X162919849Y-99064774D01*
X162890260Y-99062000D01*
X162890256Y-99062000D01*
X162309744Y-99062000D01*
X162309740Y-99062000D01*
X162280151Y-99064774D01*
X162214396Y-99087783D01*
X162200800Y-99092541D01*
X162159846Y-99099500D01*
X161440154Y-99099500D01*
X161399199Y-99092541D01*
X161380051Y-99085840D01*
X161319848Y-99064774D01*
X161319849Y-99064774D01*
X161290260Y-99062000D01*
X161290256Y-99062000D01*
X160709744Y-99062000D01*
X160709740Y-99062000D01*
X160680151Y-99064774D01*
X160614396Y-99087783D01*
X160600800Y-99092541D01*
X160559846Y-99099500D01*
X159830154Y-99099500D01*
X159789199Y-99092541D01*
X159770051Y-99085840D01*
X159709848Y-99064774D01*
X159709849Y-99064774D01*
X159680260Y-99062000D01*
X159680256Y-99062000D01*
X159099744Y-99062000D01*
X159099740Y-99062000D01*
X159070151Y-99064774D01*
X159004396Y-99087783D01*
X158990800Y-99092541D01*
X158949846Y-99099500D01*
X157724500Y-99099500D01*
X157657461Y-99079815D01*
X157611706Y-99027011D01*
X157600500Y-98975500D01*
X157600500Y-98642316D01*
X157600499Y-98642307D01*
X157595950Y-98599998D01*
X157594230Y-98584003D01*
X157551171Y-98468556D01*
X157545025Y-98452078D01*
X157545024Y-98452076D01*
X157536025Y-98440055D01*
X157460643Y-98339357D01*
X157347924Y-98254976D01*
X157347923Y-98254975D01*
X157347921Y-98254974D01*
X157216000Y-98205771D01*
X157215998Y-98205770D01*
X157215997Y-98205770D01*
X157215996Y-98205769D01*
X157215993Y-98205769D01*
X157157692Y-98199500D01*
X157157676Y-98199500D01*
X154842324Y-98199500D01*
X154842307Y-98199500D01*
X154784006Y-98205769D01*
X154783999Y-98205771D01*
X154652078Y-98254974D01*
X154652076Y-98254975D01*
X154539355Y-98339358D01*
X154531532Y-98349810D01*
X154475599Y-98391682D01*
X154432265Y-98399500D01*
X152367735Y-98399500D01*
X152300696Y-98379815D01*
X152268468Y-98349810D01*
X152260644Y-98339358D01*
X152246592Y-98328839D01*
X152147924Y-98254976D01*
X152147923Y-98254975D01*
X152147921Y-98254974D01*
X152016000Y-98205771D01*
X152015998Y-98205770D01*
X152015997Y-98205770D01*
X152015996Y-98205769D01*
X152015993Y-98205769D01*
X151957692Y-98199500D01*
X151957676Y-98199500D01*
X151551347Y-98199500D01*
X151484308Y-98179815D01*
X151449839Y-98142417D01*
X151448040Y-98143653D01*
X151444102Y-98137919D01*
X151444100Y-98137915D01*
X151398345Y-98085111D01*
X151398339Y-98085104D01*
X151380757Y-98067160D01*
X151380756Y-98067159D01*
X151380754Y-98067157D01*
X151380752Y-98067156D01*
X151380750Y-98067154D01*
X151300940Y-98022511D01*
X151300935Y-98022509D01*
X151233903Y-98002826D01*
X151233899Y-98002825D01*
X151233898Y-98002825D01*
X151176000Y-97994500D01*
X151175996Y-97994500D01*
X148709773Y-97994500D01*
X148642734Y-97974815D01*
X148601444Y-97930839D01*
X148600075Y-97928382D01*
X148594653Y-97918647D01*
X148488128Y-97790365D01*
X148488123Y-97790360D01*
X148488114Y-97790350D01*
X148223222Y-97525459D01*
X148190696Y-97466361D01*
X148190269Y-97466464D01*
X148187824Y-97456238D01*
X148187823Y-97456237D01*
X148187823Y-97456234D01*
X148145367Y-97375229D01*
X148099974Y-97322113D01*
X148082504Y-97304037D01*
X148082503Y-97304036D01*
X148048182Y-97284530D01*
X148002993Y-97258846D01*
X147990313Y-97255028D01*
X147966498Y-97247858D01*
X147914567Y-97216804D01*
X145236819Y-94539055D01*
X145203334Y-94477732D01*
X145200500Y-94451374D01*
X145200500Y-92344500D01*
X145191892Y-92251607D01*
X145185115Y-92178464D01*
X145130234Y-91985577D01*
X145125500Y-91951643D01*
X145125500Y-91745730D01*
X145122646Y-91715300D01*
X145122646Y-91715298D01*
X145089006Y-91619163D01*
X145077793Y-91587118D01*
X144997150Y-91477850D01*
X144887882Y-91397207D01*
X144887880Y-91397206D01*
X144759700Y-91352353D01*
X144729270Y-91349500D01*
X144729266Y-91349500D01*
X144619110Y-91349500D01*
X144553833Y-91330927D01*
X144537404Y-91320754D01*
X144537398Y-91320752D01*
X144329940Y-91240382D01*
X144111243Y-91199500D01*
X143888757Y-91199500D01*
X143670060Y-91240382D01*
X143538864Y-91291207D01*
X143462601Y-91320752D01*
X143462595Y-91320754D01*
X143446167Y-91330927D01*
X143380890Y-91349500D01*
X143270730Y-91349500D01*
X143240300Y-91352353D01*
X143240298Y-91352353D01*
X143112119Y-91397206D01*
X143112117Y-91397207D01*
X143002850Y-91477850D01*
X142922207Y-91587117D01*
X142922206Y-91587119D01*
X142877353Y-91715298D01*
X142877353Y-91715300D01*
X142874500Y-91745730D01*
X142874500Y-91951643D01*
X142869766Y-91985577D01*
X142814885Y-92178462D01*
X142814884Y-92178464D01*
X142799500Y-92344500D01*
X142799500Y-94676000D01*
X142779815Y-94743039D01*
X142727011Y-94788794D01*
X142675500Y-94800000D01*
X140624500Y-94800000D01*
X140557461Y-94780315D01*
X140511706Y-94727511D01*
X140500500Y-94676000D01*
X140500500Y-90527824D01*
X145294500Y-90527824D01*
X145295089Y-90538818D01*
X145295090Y-90538834D01*
X145298511Y-90570643D01*
X145298512Y-90570649D01*
X145322468Y-90647157D01*
X145322470Y-90647162D01*
X145355954Y-90708485D01*
X145391008Y-90755311D01*
X145548584Y-90912888D01*
X145556776Y-90920246D01*
X145581701Y-90940330D01*
X145581704Y-90940331D01*
X145581706Y-90940333D01*
X145652742Y-90977490D01*
X145719773Y-90997173D01*
X145719775Y-90997173D01*
X145719781Y-90997175D01*
X145777679Y-91005500D01*
X145777683Y-91005500D01*
X147150500Y-91005500D01*
X147217539Y-91025185D01*
X147263294Y-91077989D01*
X147274500Y-91129500D01*
X147274500Y-91154269D01*
X147277353Y-91184699D01*
X147277353Y-91184701D01*
X147317524Y-91299500D01*
X147322207Y-91312882D01*
X147402850Y-91422150D01*
X147512118Y-91502793D01*
X147554845Y-91517744D01*
X147640299Y-91547646D01*
X147670730Y-91550500D01*
X147670734Y-91550500D01*
X148157628Y-91550500D01*
X149870734Y-91550500D01*
X150929266Y-91550500D01*
X152070734Y-91550500D01*
X152179549Y-91550500D01*
X152246588Y-91570185D01*
X152292343Y-91622989D01*
X152302287Y-91692147D01*
X152273262Y-91755703D01*
X152259788Y-91769039D01*
X152259444Y-91769330D01*
X152198856Y-91837828D01*
X152198847Y-91837840D01*
X152165371Y-91899148D01*
X152154693Y-91921911D01*
X152154691Y-91921918D01*
X152140754Y-92012294D01*
X152140753Y-92012300D01*
X152145738Y-92081992D01*
X152145739Y-92081999D01*
X152151938Y-92110495D01*
X152158171Y-92139147D01*
X152182918Y-92205499D01*
X152187181Y-92216927D01*
X152194999Y-92260260D01*
X152194999Y-92955988D01*
X152185561Y-93003439D01*
X152163670Y-93056289D01*
X152144750Y-93199999D01*
X152144750Y-93200000D01*
X152163670Y-93343710D01*
X152185561Y-93396561D01*
X152194999Y-93444011D01*
X152194999Y-93575990D01*
X152195000Y-93576008D01*
X152199696Y-93619682D01*
X152208562Y-93660434D01*
X152210903Y-93671195D01*
X152213390Y-93681373D01*
X152234932Y-93721799D01*
X152249500Y-93780113D01*
X152249500Y-94762033D01*
X152229815Y-94829072D01*
X152213181Y-94849714D01*
X151835499Y-95227396D01*
X151774176Y-95260881D01*
X151764009Y-95262653D01*
X151756293Y-95263669D01*
X151756291Y-95263669D01*
X151622377Y-95319137D01*
X151507379Y-95407379D01*
X151419137Y-95522377D01*
X151363671Y-95656287D01*
X151363670Y-95656291D01*
X151345775Y-95792218D01*
X151344750Y-95800000D01*
X151361541Y-95927541D01*
X151363670Y-95943708D01*
X151363671Y-95943712D01*
X151419137Y-96077622D01*
X151419138Y-96077624D01*
X151419139Y-96077625D01*
X151507379Y-96192621D01*
X151622375Y-96280861D01*
X151622376Y-96280861D01*
X151622377Y-96280862D01*
X151656621Y-96295046D01*
X151756291Y-96336330D01*
X151883280Y-96353048D01*
X151899999Y-96355250D01*
X151900000Y-96355250D01*
X151900001Y-96355250D01*
X151914977Y-96353278D01*
X152043709Y-96336330D01*
X152177625Y-96280861D01*
X152292621Y-96192621D01*
X152380861Y-96077625D01*
X152436330Y-95943709D01*
X152437344Y-95936004D01*
X152465605Y-95872106D01*
X152472592Y-95864510D01*
X152998205Y-95338896D01*
X153003373Y-95334277D01*
X153033970Y-95309879D01*
X153066865Y-95261629D01*
X153068131Y-95259845D01*
X153102793Y-95212882D01*
X153102793Y-95212879D01*
X153102795Y-95212878D01*
X153106787Y-95205324D01*
X153110471Y-95197675D01*
X153110472Y-95197673D01*
X153127673Y-95141902D01*
X153128382Y-95139749D01*
X153147646Y-95084699D01*
X153147646Y-95084696D01*
X153149228Y-95076336D01*
X153150500Y-95067899D01*
X153150500Y-95009594D01*
X153150542Y-95007308D01*
X153152725Y-94948990D01*
X153151685Y-94939758D01*
X153152513Y-94939664D01*
X153150500Y-94924361D01*
X153150500Y-94029500D01*
X153170185Y-93962461D01*
X153222989Y-93916706D01*
X153274500Y-93905500D01*
X154175991Y-93905500D01*
X154176000Y-93905500D01*
X154219684Y-93900803D01*
X154271195Y-93889597D01*
X154281373Y-93887110D01*
X154362085Y-93844100D01*
X154414889Y-93798345D01*
X154432843Y-93780754D01*
X154477490Y-93700937D01*
X154497175Y-93633898D01*
X154505500Y-93576000D01*
X154505500Y-92024000D01*
X154500803Y-91980316D01*
X154489597Y-91928805D01*
X154487110Y-91918627D01*
X154444100Y-91837915D01*
X154398345Y-91785111D01*
X154398339Y-91785104D01*
X154380757Y-91767160D01*
X154380756Y-91767159D01*
X154380754Y-91767157D01*
X154380752Y-91767156D01*
X154380750Y-91767154D01*
X154300940Y-91722511D01*
X154300935Y-91722509D01*
X154233903Y-91702826D01*
X154233899Y-91702825D01*
X154233898Y-91702825D01*
X154176000Y-91694500D01*
X154175996Y-91694500D01*
X154028053Y-91694500D01*
X153961014Y-91674815D01*
X153915259Y-91622011D01*
X153905685Y-91558127D01*
X153905682Y-91558127D01*
X153905682Y-91558104D01*
X153905114Y-91554314D01*
X153905682Y-91549999D01*
X153905682Y-91549998D01*
X153885934Y-91400000D01*
X153885044Y-91393238D01*
X153824536Y-91247159D01*
X153824535Y-91247158D01*
X153824535Y-91247157D01*
X153751463Y-91151927D01*
X153751448Y-91151909D01*
X153728282Y-91121718D01*
X153715169Y-91111656D01*
X153700013Y-91100026D01*
X153693917Y-91094681D01*
X153561819Y-90962583D01*
X153528334Y-90901260D01*
X153525500Y-90874902D01*
X153525500Y-90545730D01*
X153522646Y-90515300D01*
X153522646Y-90515298D01*
X153486080Y-90410802D01*
X153477793Y-90387118D01*
X153397150Y-90277850D01*
X153287882Y-90197207D01*
X153287880Y-90197206D01*
X153159700Y-90152353D01*
X153129270Y-90149500D01*
X153129266Y-90149500D01*
X152642372Y-90149500D01*
X148729266Y-90149500D01*
X147670734Y-90149500D01*
X147656645Y-90150821D01*
X147641075Y-90152281D01*
X147572490Y-90138940D01*
X147522006Y-90090637D01*
X147505500Y-90028822D01*
X147505500Y-89370494D01*
X147505500Y-89370484D01*
X147502596Y-89336059D01*
X147495637Y-89295104D01*
X147495066Y-89292889D01*
X147487012Y-89261668D01*
X147487006Y-89261648D01*
X147486956Y-89261504D01*
X147486947Y-89261453D01*
X147486253Y-89259165D01*
X147486358Y-89259132D01*
X147486357Y-89259127D01*
X147486498Y-89259090D01*
X147486543Y-89259076D01*
X147480000Y-89220557D01*
X147480000Y-89124008D01*
X147479999Y-89123992D01*
X147476554Y-89091956D01*
X147475303Y-89080316D01*
X147464097Y-89028805D01*
X147461610Y-89018627D01*
X147418600Y-88937915D01*
X147372845Y-88885111D01*
X147372839Y-88885104D01*
X147355257Y-88867160D01*
X147355256Y-88867159D01*
X147355254Y-88867157D01*
X147355252Y-88867156D01*
X147355250Y-88867154D01*
X147275440Y-88822511D01*
X147275435Y-88822509D01*
X147208403Y-88802826D01*
X147208399Y-88802825D01*
X147208398Y-88802825D01*
X147150500Y-88794500D01*
X145624000Y-88794500D01*
X145623992Y-88794500D01*
X145580317Y-88799196D01*
X145528802Y-88810403D01*
X145518627Y-88812890D01*
X145518624Y-88812891D01*
X145437916Y-88855899D01*
X145437913Y-88855901D01*
X145385104Y-88901660D01*
X145367160Y-88919242D01*
X145367154Y-88919249D01*
X145322511Y-88999059D01*
X145322509Y-88999064D01*
X145302826Y-89066096D01*
X145302825Y-89066101D01*
X145302825Y-89066102D01*
X145294502Y-89123992D01*
X145294500Y-89124003D01*
X145294500Y-90527824D01*
X140500500Y-90527824D01*
X140500500Y-76824000D01*
X140520185Y-76756961D01*
X140572989Y-76711206D01*
X140624500Y-76700000D01*
X144739759Y-76700000D01*
X144806798Y-76719685D01*
G37*
%TD.AperFunction*%
%TA.AperFunction,Conductor*%
G36*
X171480249Y-96100500D02*
G01*
X171480252Y-96100500D01*
X171819749Y-96100500D01*
X171864526Y-96091593D01*
X171875808Y-96089349D01*
X171924191Y-96089349D01*
X171980249Y-96100500D01*
X171980252Y-96100500D01*
X172319749Y-96100500D01*
X172364526Y-96091593D01*
X172375808Y-96089349D01*
X172424191Y-96089349D01*
X172480249Y-96100500D01*
X172480252Y-96100500D01*
X172819749Y-96100500D01*
X172864526Y-96091593D01*
X172875808Y-96089349D01*
X172924191Y-96089349D01*
X172980249Y-96100500D01*
X172980252Y-96100500D01*
X173319749Y-96100500D01*
X173364526Y-96091593D01*
X173375808Y-96089349D01*
X173424191Y-96089349D01*
X173480249Y-96100500D01*
X173480252Y-96100500D01*
X173819749Y-96100500D01*
X173864526Y-96091593D01*
X173875808Y-96089349D01*
X173924191Y-96089349D01*
X173980249Y-96100500D01*
X173980252Y-96100500D01*
X174319749Y-96100500D01*
X174364526Y-96091593D01*
X174375808Y-96089349D01*
X174424191Y-96089349D01*
X174480249Y-96100500D01*
X174480252Y-96100500D01*
X174819749Y-96100500D01*
X174837789Y-96096911D01*
X174864526Y-96091593D01*
X174934117Y-96097820D01*
X174989295Y-96140682D01*
X175012540Y-96206572D01*
X175003280Y-96260661D01*
X174982056Y-96311903D01*
X174963670Y-96356291D01*
X174944750Y-96500000D01*
X174959912Y-96615168D01*
X174963670Y-96643708D01*
X174963671Y-96643712D01*
X175019137Y-96777622D01*
X175019138Y-96777624D01*
X175019139Y-96777625D01*
X175107379Y-96892621D01*
X175222375Y-96980861D01*
X175253769Y-96993864D01*
X175308171Y-97037702D01*
X175330238Y-97103996D01*
X175312960Y-97171696D01*
X175293998Y-97196106D01*
X174676925Y-97813181D01*
X174615602Y-97846666D01*
X174589244Y-97849500D01*
X170412878Y-97849500D01*
X170345839Y-97829815D01*
X170300084Y-97777011D01*
X170290140Y-97707855D01*
X170291818Y-97696182D01*
X170301447Y-97629210D01*
X170330470Y-97565656D01*
X170336489Y-97559191D01*
X170863046Y-97032634D01*
X170882902Y-97016511D01*
X170890669Y-97011437D01*
X170910873Y-96985477D01*
X170915941Y-96979739D01*
X170918376Y-96977306D01*
X170930334Y-96960555D01*
X170931799Y-96958591D01*
X170962517Y-96919126D01*
X170962519Y-96919119D01*
X170966026Y-96912638D01*
X170969236Y-96906070D01*
X170969240Y-96906066D01*
X170983501Y-96858162D01*
X170984275Y-96855748D01*
X170989665Y-96840047D01*
X171000500Y-96808488D01*
X171000500Y-96808478D01*
X171001715Y-96801198D01*
X171002618Y-96793953D01*
X171000553Y-96744026D01*
X171000500Y-96741464D01*
X171000500Y-96224500D01*
X171020185Y-96157461D01*
X171072989Y-96111706D01*
X171124500Y-96100500D01*
X171319749Y-96100500D01*
X171364526Y-96091593D01*
X171375808Y-96089349D01*
X171424191Y-96089349D01*
X171480249Y-96100500D01*
G37*
%TD.AperFunction*%
%TA.AperFunction,Conductor*%
G36*
X168919859Y-93368041D02*
G01*
X168945122Y-93414304D01*
X168946245Y-93418129D01*
X169006033Y-93549045D01*
X169100282Y-93657815D01*
X169221357Y-93735625D01*
X169221360Y-93735626D01*
X169221359Y-93735626D01*
X169359446Y-93776171D01*
X169359448Y-93776172D01*
X169359449Y-93776172D01*
X169503372Y-93776172D01*
X169503372Y-93776171D01*
X169641460Y-93735626D01*
X169641461Y-93735626D01*
X169641463Y-93735625D01*
X169758462Y-93660434D01*
X169825500Y-93640750D01*
X169892539Y-93660434D01*
X169938294Y-93713238D01*
X169949500Y-93764750D01*
X169949500Y-93850788D01*
X169946861Y-93876232D01*
X169944957Y-93885312D01*
X169944957Y-93885316D01*
X169949023Y-93917938D01*
X169949499Y-93925600D01*
X169949499Y-93929033D01*
X169949501Y-93929052D01*
X169952876Y-93949277D01*
X169953245Y-93951809D01*
X169959427Y-94001393D01*
X169961525Y-94008442D01*
X169964374Y-94016739D01*
X169964508Y-94019707D01*
X169964952Y-94021626D01*
X169965605Y-94025545D01*
X169964778Y-94025682D01*
X169967527Y-94086537D01*
X169932444Y-94146960D01*
X169870263Y-94178823D01*
X169812161Y-94175984D01*
X169721963Y-94149500D01*
X169721961Y-94149500D01*
X169578039Y-94149500D01*
X169578036Y-94149500D01*
X169439949Y-94190045D01*
X169318873Y-94267856D01*
X169318872Y-94267856D01*
X169318872Y-94267857D01*
X169317772Y-94269127D01*
X169224623Y-94376626D01*
X169224622Y-94376628D01*
X169164834Y-94507543D01*
X169144353Y-94650000D01*
X169164834Y-94792456D01*
X169224622Y-94923371D01*
X169224623Y-94923373D01*
X169269213Y-94974833D01*
X169298238Y-95038388D01*
X169299500Y-95056035D01*
X169299500Y-95919752D01*
X169311131Y-95978229D01*
X169311132Y-95978230D01*
X169355447Y-96044552D01*
X169399761Y-96074162D01*
X169421769Y-96088867D01*
X169439195Y-96092333D01*
X169501107Y-96124718D01*
X169535681Y-96185434D01*
X169531942Y-96255203D01*
X169502686Y-96301632D01*
X169041137Y-96763181D01*
X168979814Y-96796666D01*
X168953456Y-96799500D01*
X168928039Y-96799500D01*
X168880254Y-96813530D01*
X168810384Y-96813528D01*
X168751607Y-96775753D01*
X168736267Y-96753571D01*
X168731101Y-96744026D01*
X168712313Y-96709309D01*
X168711157Y-96707065D01*
X168694255Y-96672489D01*
X168689200Y-96662147D01*
X168684919Y-96656152D01*
X168680420Y-96650372D01*
X168680418Y-96650370D01*
X168643642Y-96616515D01*
X168641820Y-96614766D01*
X168035433Y-96008379D01*
X168001948Y-95947056D01*
X167999114Y-95920698D01*
X167999114Y-93675318D01*
X168018799Y-93608279D01*
X168071603Y-93562524D01*
X168140761Y-93552580D01*
X168158048Y-93556341D01*
X168246286Y-93582249D01*
X168246288Y-93582250D01*
X168246289Y-93582250D01*
X168390212Y-93582250D01*
X168390212Y-93582249D01*
X168528303Y-93541703D01*
X168649378Y-93463893D01*
X168732432Y-93368042D01*
X168791211Y-93330267D01*
X168861080Y-93330267D01*
X168919859Y-93368041D01*
G37*
%TD.AperFunction*%
%TA.AperFunction,Conductor*%
G36*
X185231407Y-71900598D02*
G01*
X185362979Y-71907986D01*
X185498965Y-71915623D01*
X185505858Y-71916399D01*
X185797633Y-71965974D01*
X185804408Y-71967521D01*
X186088798Y-72049451D01*
X186095359Y-72051748D01*
X186130848Y-72066448D01*
X186368782Y-72165004D01*
X186375032Y-72168014D01*
X186634071Y-72311179D01*
X186639933Y-72314862D01*
X186881315Y-72486132D01*
X186886737Y-72490456D01*
X186959522Y-72555500D01*
X187107414Y-72687665D01*
X187112334Y-72692585D01*
X187309540Y-72913258D01*
X187313869Y-72918687D01*
X187485134Y-73160062D01*
X187488823Y-73165933D01*
X187626802Y-73415588D01*
X187631981Y-73424959D01*
X187634998Y-73431224D01*
X187645693Y-73457043D01*
X187748251Y-73704640D01*
X187750550Y-73711208D01*
X187832477Y-73995586D01*
X187834025Y-74002369D01*
X187883598Y-74294129D01*
X187884377Y-74301044D01*
X187899402Y-74568597D01*
X187899500Y-74572074D01*
X187899500Y-96276000D01*
X187879815Y-96343039D01*
X187827011Y-96388794D01*
X187775500Y-96400000D01*
X183224500Y-96400000D01*
X183157461Y-96380315D01*
X183111706Y-96327511D01*
X183100500Y-96276000D01*
X183100500Y-93048623D01*
X183120185Y-92981584D01*
X183136814Y-92960947D01*
X183864934Y-92232827D01*
X183926255Y-92199344D01*
X183970255Y-92197772D01*
X184024000Y-92205500D01*
X184024004Y-92205500D01*
X186525491Y-92205500D01*
X186525500Y-92205500D01*
X186569184Y-92200803D01*
X186620695Y-92189597D01*
X186630873Y-92187110D01*
X186711585Y-92144100D01*
X186764389Y-92098345D01*
X186782343Y-92080754D01*
X186826990Y-92000937D01*
X186846675Y-91933898D01*
X186855000Y-91876000D01*
X186855000Y-91605966D01*
X186855250Y-91602155D01*
X186855250Y-91597851D01*
X186855000Y-91594032D01*
X186855000Y-90605967D01*
X186855250Y-90602155D01*
X186855250Y-90597851D01*
X186855000Y-90594032D01*
X186855000Y-89605967D01*
X186855250Y-89602155D01*
X186855250Y-89597851D01*
X186855000Y-89594032D01*
X186855000Y-89324008D01*
X186854999Y-89323991D01*
X186852594Y-89301627D01*
X186850303Y-89280316D01*
X186839097Y-89228805D01*
X186836610Y-89218627D01*
X186793600Y-89137915D01*
X186747845Y-89085111D01*
X186747839Y-89085104D01*
X186730257Y-89067160D01*
X186730256Y-89067159D01*
X186730254Y-89067157D01*
X186730252Y-89067156D01*
X186730250Y-89067154D01*
X186650440Y-89022511D01*
X186650435Y-89022509D01*
X186583403Y-89002826D01*
X186583399Y-89002825D01*
X186583398Y-89002825D01*
X186525500Y-88994500D01*
X184024000Y-88994500D01*
X184023992Y-88994500D01*
X183980317Y-88999196D01*
X183928802Y-89010403D01*
X183918627Y-89012890D01*
X183918624Y-89012891D01*
X183837916Y-89055899D01*
X183837913Y-89055901D01*
X183785104Y-89101660D01*
X183767160Y-89119242D01*
X183767154Y-89119249D01*
X183722511Y-89199059D01*
X183722509Y-89199064D01*
X183702824Y-89266102D01*
X183696740Y-89308417D01*
X183667714Y-89371972D01*
X183608935Y-89409745D01*
X183585447Y-89414237D01*
X183582257Y-89414533D01*
X183578463Y-89414885D01*
X183578456Y-89414886D01*
X183555752Y-89421346D01*
X183547352Y-89423118D01*
X183523968Y-89426381D01*
X183523966Y-89426381D01*
X183523958Y-89426383D01*
X183446158Y-89452459D01*
X183443423Y-89453306D01*
X183364472Y-89475771D01*
X183364466Y-89475773D01*
X183343337Y-89486294D01*
X183335399Y-89489581D01*
X183313015Y-89497084D01*
X183241303Y-89537027D01*
X183238771Y-89538361D01*
X183165320Y-89574936D01*
X183165304Y-89574946D01*
X183146476Y-89589164D01*
X183139278Y-89593854D01*
X183118647Y-89605346D01*
X183118637Y-89605353D01*
X183055502Y-89657781D01*
X183053258Y-89659559D01*
X182987768Y-89709015D01*
X182987761Y-89709021D01*
X182932469Y-89769673D01*
X182930492Y-89771744D01*
X181071744Y-91630492D01*
X181069673Y-91632469D01*
X181009022Y-91687760D01*
X180959564Y-91753251D01*
X180957787Y-91755495D01*
X180905350Y-91818644D01*
X180905344Y-91818652D01*
X180896228Y-91835019D01*
X180894615Y-91837916D01*
X180893860Y-91839271D01*
X180889172Y-91846465D01*
X180881575Y-91856525D01*
X180874943Y-91865309D01*
X180838350Y-91938793D01*
X180837015Y-91941325D01*
X180797083Y-92013017D01*
X180789582Y-92035399D01*
X180786294Y-92043337D01*
X180775773Y-92064466D01*
X180775771Y-92064470D01*
X180775771Y-92064472D01*
X180770786Y-92081992D01*
X180753306Y-92143425D01*
X180752459Y-92146160D01*
X180726382Y-92223962D01*
X180726380Y-92223973D01*
X180723119Y-92247344D01*
X180721346Y-92255750D01*
X180714885Y-92278458D01*
X180714885Y-92278462D01*
X180707310Y-92360204D01*
X180706980Y-92363048D01*
X180695644Y-92444314D01*
X180699434Y-92526300D01*
X180699500Y-92529163D01*
X180699500Y-93400666D01*
X180679815Y-93467705D01*
X180627011Y-93513460D01*
X180557853Y-93523404D01*
X180540566Y-93519643D01*
X180471964Y-93499500D01*
X180471961Y-93499500D01*
X180328039Y-93499500D01*
X180328036Y-93499500D01*
X180189949Y-93540045D01*
X180068873Y-93617856D01*
X179974623Y-93726626D01*
X179974622Y-93726628D01*
X179962794Y-93752528D01*
X179917039Y-93805332D01*
X179849999Y-93825016D01*
X179782960Y-93805331D01*
X179737206Y-93752528D01*
X179725377Y-93726628D01*
X179725376Y-93726626D01*
X179703119Y-93700940D01*
X179631128Y-93617857D01*
X179510053Y-93540047D01*
X179510051Y-93540046D01*
X179510049Y-93540045D01*
X179510050Y-93540045D01*
X179371963Y-93499500D01*
X179371961Y-93499500D01*
X179228039Y-93499500D01*
X179228036Y-93499500D01*
X179089949Y-93540045D01*
X178968872Y-93617856D01*
X178943712Y-93646893D01*
X178884933Y-93684667D01*
X178815064Y-93684666D01*
X178756288Y-93646893D01*
X178731127Y-93617856D01*
X178667321Y-93576851D01*
X178610053Y-93540047D01*
X178610051Y-93540046D01*
X178610049Y-93540045D01*
X178610050Y-93540045D01*
X178471963Y-93499500D01*
X178471961Y-93499500D01*
X178328039Y-93499500D01*
X178328036Y-93499500D01*
X178189949Y-93540045D01*
X178068873Y-93617856D01*
X177974623Y-93726626D01*
X177974622Y-93726628D01*
X177914834Y-93857543D01*
X177894353Y-94000000D01*
X177914834Y-94142456D01*
X177974622Y-94273371D01*
X177974625Y-94273377D01*
X178011417Y-94315837D01*
X178040442Y-94379393D01*
X178030498Y-94448551D01*
X178005385Y-94484720D01*
X177414063Y-95076042D01*
X177352740Y-95109527D01*
X177283048Y-95104543D01*
X177227115Y-95062671D01*
X177203093Y-95001620D01*
X177200803Y-94980316D01*
X177189597Y-94928805D01*
X177187110Y-94918627D01*
X177144100Y-94837915D01*
X177104710Y-94792457D01*
X177098339Y-94785104D01*
X177080757Y-94767160D01*
X177080756Y-94767159D01*
X177080754Y-94767157D01*
X177080752Y-94767156D01*
X177080750Y-94767154D01*
X177000940Y-94722511D01*
X177000935Y-94722509D01*
X176933903Y-94702826D01*
X176933899Y-94702825D01*
X176933898Y-94702825D01*
X176876000Y-94694500D01*
X176300543Y-94694500D01*
X176233504Y-94674815D01*
X176187749Y-94622011D01*
X176177805Y-94552853D01*
X176206830Y-94489297D01*
X176212842Y-94482838D01*
X176313050Y-94382630D01*
X176332902Y-94366511D01*
X176340669Y-94361437D01*
X176360873Y-94335477D01*
X176365941Y-94329739D01*
X176368375Y-94327307D01*
X176380325Y-94310567D01*
X176381832Y-94308548D01*
X176412517Y-94269126D01*
X176412519Y-94269118D01*
X176416017Y-94262655D01*
X176419241Y-94256063D01*
X176420576Y-94251577D01*
X176433506Y-94208144D01*
X176434264Y-94205777D01*
X176450500Y-94158488D01*
X176450500Y-94158481D01*
X176451706Y-94151256D01*
X176452617Y-94143952D01*
X176450553Y-94094051D01*
X176450500Y-94091489D01*
X176450500Y-90949206D01*
X176453139Y-90923760D01*
X176453479Y-90922138D01*
X176455042Y-90914685D01*
X176451569Y-90886819D01*
X176450977Y-90882068D01*
X176450500Y-90874391D01*
X176450500Y-90870963D01*
X176450499Y-90870957D01*
X176450370Y-90870185D01*
X176447119Y-90850706D01*
X176446753Y-90848188D01*
X176444967Y-90833861D01*
X176440573Y-90798607D01*
X176440572Y-90798604D01*
X176438481Y-90791579D01*
X176436092Y-90784619D01*
X176424513Y-90763224D01*
X176416160Y-90747790D01*
X176401565Y-90679463D01*
X176402276Y-90672584D01*
X176405250Y-90650000D01*
X176386330Y-90506291D01*
X176337119Y-90387483D01*
X176330862Y-90372377D01*
X176330861Y-90372376D01*
X176330861Y-90372375D01*
X176242621Y-90257379D01*
X176127625Y-90169139D01*
X176127624Y-90169138D01*
X176127622Y-90169137D01*
X175993712Y-90113671D01*
X175993710Y-90113670D01*
X175993709Y-90113670D01*
X175921854Y-90104210D01*
X175850001Y-90094750D01*
X175849999Y-90094750D01*
X175706291Y-90113670D01*
X175706287Y-90113671D01*
X175572377Y-90169137D01*
X175535796Y-90197207D01*
X175457379Y-90257379D01*
X175379075Y-90359427D01*
X175369137Y-90372378D01*
X175348369Y-90422518D01*
X175304528Y-90476922D01*
X175238234Y-90498987D01*
X175170535Y-90481708D01*
X175122924Y-90430571D01*
X175109808Y-90375066D01*
X175109808Y-89229128D01*
X175112447Y-89203682D01*
X175112477Y-89203538D01*
X175114350Y-89194607D01*
X175111053Y-89168156D01*
X175110285Y-89161990D01*
X175109808Y-89154313D01*
X175109808Y-89150885D01*
X175109807Y-89150879D01*
X175107643Y-89137915D01*
X175106427Y-89130628D01*
X175106061Y-89128110D01*
X175102557Y-89099999D01*
X175099881Y-89078529D01*
X175099880Y-89078526D01*
X175097789Y-89071501D01*
X175095399Y-89064538D01*
X175071625Y-89020610D01*
X175070465Y-89018359D01*
X175053269Y-88983181D01*
X175048508Y-88973441D01*
X175044227Y-88967446D01*
X175039728Y-88961667D01*
X175039727Y-88961666D01*
X175039726Y-88961664D01*
X175029551Y-88952297D01*
X174993562Y-88892413D01*
X174990799Y-88878728D01*
X174974858Y-88767850D01*
X174921444Y-88650890D01*
X174911386Y-88628867D01*
X174913963Y-88627689D01*
X174898345Y-88574506D01*
X174918026Y-88507466D01*
X174970828Y-88461708D01*
X175022345Y-88450500D01*
X176168436Y-88450500D01*
X176235475Y-88470185D01*
X176256117Y-88486819D01*
X176972836Y-89203538D01*
X176988960Y-89223393D01*
X176994037Y-89231163D01*
X176994039Y-89231165D01*
X177019979Y-89251354D01*
X177025742Y-89256444D01*
X177028168Y-89258870D01*
X177040827Y-89267908D01*
X177044873Y-89270797D01*
X177046902Y-89272309D01*
X177086348Y-89303011D01*
X177086349Y-89303011D01*
X177086350Y-89303012D01*
X177092792Y-89306498D01*
X177099410Y-89309735D01*
X177147296Y-89323991D01*
X177149716Y-89324766D01*
X177196986Y-89340994D01*
X177196991Y-89340994D01*
X177204242Y-89342204D01*
X177211520Y-89343111D01*
X177261436Y-89341046D01*
X177263995Y-89340994D01*
X181267401Y-89340994D01*
X181292846Y-89343632D01*
X181301927Y-89345537D01*
X181317617Y-89343581D01*
X181334551Y-89341471D01*
X181342227Y-89340994D01*
X181345647Y-89340994D01*
X181345652Y-89340994D01*
X181355431Y-89339362D01*
X181365890Y-89337617D01*
X181368423Y-89337247D01*
X181418005Y-89331067D01*
X181418011Y-89331063D01*
X181425063Y-89328964D01*
X181431989Y-89326586D01*
X181431993Y-89326586D01*
X181461049Y-89310861D01*
X181475941Y-89302802D01*
X181478202Y-89301637D01*
X181523096Y-89279692D01*
X181523099Y-89279688D01*
X181529065Y-89275429D01*
X181534866Y-89270913D01*
X181534870Y-89270912D01*
X181568713Y-89234147D01*
X181570438Y-89232348D01*
X183388046Y-87414740D01*
X183407902Y-87398617D01*
X183415669Y-87393543D01*
X183435873Y-87367583D01*
X183440941Y-87361845D01*
X183443376Y-87359412D01*
X183455334Y-87342661D01*
X183456799Y-87340697D01*
X183487517Y-87301232D01*
X183487519Y-87301225D01*
X183491026Y-87294744D01*
X183494236Y-87288176D01*
X183494240Y-87288172D01*
X183508501Y-87240268D01*
X183509275Y-87237854D01*
X183515294Y-87220320D01*
X183525500Y-87190594D01*
X183525500Y-87190584D01*
X183526715Y-87183304D01*
X183527618Y-87176059D01*
X183525553Y-87126132D01*
X183525500Y-87123570D01*
X183525500Y-84997414D01*
X183545185Y-84930375D01*
X183597989Y-84884620D01*
X183667147Y-84874676D01*
X183707950Y-84888054D01*
X183871046Y-84975232D01*
X184069066Y-85035300D01*
X184069065Y-85035300D01*
X184107647Y-85039100D01*
X184223392Y-85050500D01*
X184223395Y-85050500D01*
X184476605Y-85050500D01*
X184476608Y-85050500D01*
X184630934Y-85035300D01*
X184828954Y-84975232D01*
X185011450Y-84877685D01*
X185171410Y-84746410D01*
X185302685Y-84586450D01*
X185400232Y-84403954D01*
X185460300Y-84205934D01*
X185480583Y-84000000D01*
X185460300Y-83794066D01*
X185400232Y-83596046D01*
X185302685Y-83413550D01*
X185245368Y-83343709D01*
X185171410Y-83253589D01*
X185022888Y-83131702D01*
X185011450Y-83122315D01*
X184828954Y-83024768D01*
X184630934Y-82964700D01*
X184630932Y-82964699D01*
X184630934Y-82964699D01*
X184511805Y-82952966D01*
X184476608Y-82949500D01*
X184223392Y-82949500D01*
X184188029Y-82952983D01*
X184069067Y-82964699D01*
X183871041Y-83024769D01*
X183707953Y-83111943D01*
X183639551Y-83126185D01*
X183574307Y-83101185D01*
X183532936Y-83044880D01*
X183525500Y-83002585D01*
X183525500Y-82674500D01*
X183545185Y-82607461D01*
X183597989Y-82561706D01*
X183649500Y-82550500D01*
X185079270Y-82550500D01*
X185109699Y-82547646D01*
X185109701Y-82547646D01*
X185174501Y-82524971D01*
X185237882Y-82502793D01*
X185347150Y-82422150D01*
X185427793Y-82312882D01*
X185454573Y-82236350D01*
X185472646Y-82184701D01*
X185472646Y-82184699D01*
X185475500Y-82154269D01*
X185475500Y-80845730D01*
X185472646Y-80815300D01*
X185472646Y-80815298D01*
X185437048Y-80713567D01*
X185427793Y-80687118D01*
X185347150Y-80577850D01*
X185237882Y-80497207D01*
X185237880Y-80497206D01*
X185109700Y-80452353D01*
X185079270Y-80449500D01*
X185079266Y-80449500D01*
X183649500Y-80449500D01*
X183582461Y-80429815D01*
X183536706Y-80377011D01*
X183525500Y-80325500D01*
X183525500Y-76824211D01*
X183528139Y-76798764D01*
X183530043Y-76789685D01*
X183527985Y-76773175D01*
X183525977Y-76757061D01*
X183525500Y-76749385D01*
X183525500Y-76745962D01*
X183525500Y-76745960D01*
X183522120Y-76725714D01*
X183521753Y-76723188D01*
X183515573Y-76673611D01*
X183515573Y-76673608D01*
X183515570Y-76673603D01*
X183513477Y-76666572D01*
X183511093Y-76659628D01*
X183511092Y-76659619D01*
X183492167Y-76624650D01*
X183487312Y-76615678D01*
X183486139Y-76613398D01*
X183464199Y-76568518D01*
X183459928Y-76562538D01*
X183455420Y-76556747D01*
X183455418Y-76556742D01*
X183423436Y-76527300D01*
X183418645Y-76522889D01*
X183416796Y-76521115D01*
X181495683Y-74600001D01*
X183292979Y-74600001D01*
X183312373Y-74871160D01*
X183312374Y-74871167D01*
X183370157Y-75136793D01*
X183370159Y-75136801D01*
X183429071Y-75294750D01*
X183465164Y-75391519D01*
X183595443Y-75630107D01*
X183595444Y-75630108D01*
X183595447Y-75630113D01*
X183758363Y-75847742D01*
X183758367Y-75847746D01*
X183758372Y-75847752D01*
X183950581Y-76039961D01*
X183950587Y-76039966D01*
X183950592Y-76039971D01*
X184168221Y-76202887D01*
X184168225Y-76202889D01*
X184168226Y-76202890D01*
X184406815Y-76333169D01*
X184406814Y-76333169D01*
X184406818Y-76333170D01*
X184406821Y-76333172D01*
X184661533Y-76428175D01*
X184927174Y-76485961D01*
X185178939Y-76503967D01*
X185198333Y-76505355D01*
X185198334Y-76505355D01*
X185198335Y-76505355D01*
X185216434Y-76504060D01*
X185469494Y-76485961D01*
X185735135Y-76428175D01*
X185989847Y-76333172D01*
X185989851Y-76333169D01*
X185989853Y-76333169D01*
X186146960Y-76247382D01*
X186228447Y-76202887D01*
X186446076Y-76039971D01*
X186638305Y-75847742D01*
X186801221Y-75630113D01*
X186907190Y-75436045D01*
X186931503Y-75391519D01*
X186931503Y-75391517D01*
X186931506Y-75391513D01*
X187026509Y-75136801D01*
X187084295Y-74871160D01*
X187103689Y-74600000D01*
X187103277Y-74594246D01*
X187098247Y-74523918D01*
X187084295Y-74328840D01*
X187026509Y-74063199D01*
X186931506Y-73808487D01*
X186931504Y-73808484D01*
X186931503Y-73808480D01*
X186801224Y-73569892D01*
X186801223Y-73569891D01*
X186801221Y-73569887D01*
X186638305Y-73352258D01*
X186638300Y-73352253D01*
X186638295Y-73352247D01*
X186446086Y-73160038D01*
X186446080Y-73160033D01*
X186446076Y-73160029D01*
X186228447Y-72997113D01*
X186228442Y-72997110D01*
X186228441Y-72997109D01*
X185989852Y-72866830D01*
X185989853Y-72866830D01*
X185893239Y-72830795D01*
X185735135Y-72771825D01*
X185735128Y-72771823D01*
X185735127Y-72771823D01*
X185469501Y-72714040D01*
X185469494Y-72714039D01*
X185198335Y-72694645D01*
X185198333Y-72694645D01*
X184927173Y-72714039D01*
X184927166Y-72714040D01*
X184661540Y-72771823D01*
X184661536Y-72771824D01*
X184661533Y-72771825D01*
X184555308Y-72811445D01*
X184406814Y-72866830D01*
X184168226Y-72997109D01*
X184168225Y-72997110D01*
X183950593Y-73160028D01*
X183950581Y-73160038D01*
X183758372Y-73352247D01*
X183758362Y-73352259D01*
X183595444Y-73569891D01*
X183595443Y-73569892D01*
X183465164Y-73808480D01*
X183428408Y-73907028D01*
X183370159Y-74063199D01*
X183370158Y-74063202D01*
X183370157Y-74063206D01*
X183312374Y-74328832D01*
X183312373Y-74328839D01*
X183292979Y-74599998D01*
X183292979Y-74600001D01*
X181495683Y-74600001D01*
X180786819Y-73891137D01*
X180753334Y-73829814D01*
X180750500Y-73803456D01*
X180750500Y-73132117D01*
X180753139Y-73106670D01*
X180755043Y-73097591D01*
X180752250Y-73075185D01*
X180750977Y-73064967D01*
X180750500Y-73057291D01*
X180750500Y-73053868D01*
X180750500Y-73053866D01*
X180747120Y-73033620D01*
X180746753Y-73031094D01*
X180740573Y-72981517D01*
X180740573Y-72981514D01*
X180740570Y-72981509D01*
X180738477Y-72974478D01*
X180736093Y-72967534D01*
X180736092Y-72967525D01*
X180712312Y-72923584D01*
X180711139Y-72921304D01*
X180689199Y-72876424D01*
X180684928Y-72870444D01*
X180680420Y-72864653D01*
X180680418Y-72864648D01*
X180655286Y-72841512D01*
X180643645Y-72830795D01*
X180641796Y-72829021D01*
X179924957Y-72112181D01*
X179891472Y-72050858D01*
X179896456Y-71981166D01*
X179938328Y-71925233D01*
X180003792Y-71900816D01*
X180012638Y-71900500D01*
X185227930Y-71900500D01*
X185231407Y-71900598D01*
G37*
%TD.AperFunction*%
%TA.AperFunction,Conductor*%
G36*
X167366516Y-74021075D02*
G01*
X167367517Y-74021718D01*
X167413283Y-74074512D01*
X167424500Y-74126048D01*
X167424500Y-74481517D01*
X167432832Y-74534121D01*
X167439354Y-74575304D01*
X167496950Y-74688342D01*
X167496952Y-74688344D01*
X167496954Y-74688347D01*
X167586652Y-74778045D01*
X167586654Y-74778046D01*
X167586658Y-74778050D01*
X167699694Y-74835645D01*
X167699698Y-74835647D01*
X167793475Y-74850499D01*
X167793481Y-74850500D01*
X168153455Y-74850499D01*
X168220494Y-74870183D01*
X168241136Y-74886818D01*
X168263181Y-74908863D01*
X168296666Y-74970186D01*
X168299500Y-74996544D01*
X168299500Y-75588343D01*
X168279815Y-75655382D01*
X168263181Y-75676024D01*
X167617003Y-76322201D01*
X167555680Y-76355686D01*
X167485988Y-76350702D01*
X167430947Y-76310006D01*
X167427598Y-76305642D01*
X167173180Y-76051225D01*
X167173179Y-76051224D01*
X167173172Y-76051218D01*
X167133505Y-76020780D01*
X167133504Y-76020779D01*
X167133501Y-76020777D01*
X167020663Y-75979708D01*
X166900585Y-75979708D01*
X166900584Y-75979708D01*
X166787751Y-76020775D01*
X166787742Y-76020780D01*
X166748076Y-76051217D01*
X166748067Y-76051225D01*
X166451228Y-76348065D01*
X166451220Y-76348074D01*
X166420779Y-76387743D01*
X166420775Y-76387750D01*
X166384668Y-76486957D01*
X166379708Y-76500585D01*
X166379708Y-76620663D01*
X166420777Y-76733501D01*
X166435924Y-76753241D01*
X166443844Y-76763563D01*
X166451224Y-76773180D01*
X166552593Y-76874548D01*
X166586077Y-76935869D01*
X166588911Y-76962228D01*
X166588911Y-77635304D01*
X166569226Y-77702343D01*
X166552592Y-77722985D01*
X165943528Y-78332049D01*
X165181372Y-79094206D01*
X165120049Y-79127691D01*
X165093691Y-79130525D01*
X164286092Y-79130525D01*
X164219053Y-79110840D01*
X164199587Y-79092938D01*
X164198372Y-79094154D01*
X164192627Y-79088409D01*
X164192621Y-79088404D01*
X164077625Y-79000164D01*
X164077624Y-79000163D01*
X164077622Y-79000162D01*
X163943712Y-78944696D01*
X163943710Y-78944695D01*
X163943709Y-78944695D01*
X163866431Y-78934521D01*
X163800001Y-78925775D01*
X163799999Y-78925775D01*
X163656291Y-78944695D01*
X163656287Y-78944696D01*
X163522377Y-79000162D01*
X163407379Y-79088404D01*
X163319137Y-79203402D01*
X163263671Y-79337312D01*
X163263670Y-79337316D01*
X163251841Y-79427168D01*
X163244750Y-79481025D01*
X163256794Y-79572510D01*
X163263670Y-79624733D01*
X163263671Y-79624737D01*
X163319137Y-79758647D01*
X163319138Y-79758649D01*
X163319139Y-79758650D01*
X163407379Y-79873646D01*
X163522375Y-79961886D01*
X163522376Y-79961886D01*
X163522377Y-79961887D01*
X163532976Y-79966277D01*
X163656291Y-80017355D01*
X163783280Y-80034073D01*
X163799999Y-80036275D01*
X163800000Y-80036275D01*
X163800001Y-80036275D01*
X163814977Y-80034303D01*
X163943709Y-80017355D01*
X164077625Y-79961886D01*
X164192621Y-79873646D01*
X164192623Y-79873642D01*
X164192627Y-79873640D01*
X164198372Y-79867896D01*
X164200888Y-79870412D01*
X164244183Y-79838822D01*
X164286092Y-79831525D01*
X165218845Y-79831525D01*
X165285884Y-79851210D01*
X165331639Y-79904014D01*
X165341583Y-79973172D01*
X165331639Y-80007037D01*
X165275334Y-80130325D01*
X165254853Y-80272782D01*
X165275334Y-80415238D01*
X165323896Y-80521571D01*
X165335123Y-80546155D01*
X165429372Y-80654925D01*
X165550447Y-80732735D01*
X165550450Y-80732736D01*
X165550449Y-80732736D01*
X165621470Y-80753589D01*
X165683294Y-80771742D01*
X165688536Y-80773281D01*
X165688538Y-80773282D01*
X165688539Y-80773282D01*
X165832462Y-80773282D01*
X165832462Y-80773281D01*
X165970550Y-80732736D01*
X165970551Y-80732736D01*
X166018768Y-80701749D01*
X166091628Y-80654925D01*
X166091628Y-80654923D01*
X166098981Y-80650199D01*
X166166021Y-80630514D01*
X166187722Y-80634138D01*
X166187958Y-80632730D01*
X166198089Y-80634420D01*
X166198091Y-80634421D01*
X166198093Y-80634421D01*
X166205333Y-80635629D01*
X166212625Y-80636538D01*
X166262529Y-80634473D01*
X166265090Y-80634421D01*
X166559447Y-80634421D01*
X166584892Y-80637059D01*
X166593973Y-80638964D01*
X166609663Y-80637008D01*
X166626597Y-80634898D01*
X166634273Y-80634421D01*
X166637697Y-80634421D01*
X166637699Y-80634421D01*
X166657944Y-80631041D01*
X166660470Y-80630674D01*
X166662144Y-80630465D01*
X166710051Y-80624494D01*
X166710060Y-80624489D01*
X166715145Y-80622976D01*
X166785015Y-80622707D01*
X166838217Y-80654134D01*
X166931998Y-80747914D01*
X166964104Y-80780020D01*
X166964106Y-80780022D01*
X167032230Y-80825542D01*
X167043516Y-80830217D01*
X167042917Y-80831662D01*
X167092506Y-80857601D01*
X167122348Y-80910005D01*
X167123024Y-80909726D01*
X167125252Y-80915105D01*
X167127081Y-80918317D01*
X167127633Y-80920853D01*
X167127697Y-80921009D01*
X167173215Y-80989132D01*
X167173216Y-80989133D01*
X167173219Y-80989137D01*
X167289168Y-81105084D01*
X167317657Y-81133573D01*
X167317659Y-81133575D01*
X167385784Y-81179096D01*
X167397070Y-81183771D01*
X167396471Y-81185216D01*
X167446056Y-81211150D01*
X167475905Y-81263560D01*
X167476579Y-81263281D01*
X167478799Y-81268642D01*
X167480634Y-81271863D01*
X167481188Y-81274409D01*
X167481251Y-81274560D01*
X167481252Y-81274563D01*
X167526773Y-81342691D01*
X167637171Y-81453087D01*
X167671211Y-81487127D01*
X167671213Y-81487129D01*
X167739337Y-81532649D01*
X167750623Y-81537324D01*
X167750024Y-81538769D01*
X167799613Y-81564708D01*
X167829455Y-81617112D01*
X167830131Y-81616833D01*
X167832359Y-81622212D01*
X167834188Y-81625424D01*
X167834740Y-81627960D01*
X167834804Y-81628116D01*
X167880322Y-81696239D01*
X167880323Y-81696240D01*
X167880326Y-81696244D01*
X167998767Y-81814683D01*
X168024764Y-81840680D01*
X168024766Y-81840682D01*
X168092890Y-81886202D01*
X168104176Y-81890877D01*
X168103577Y-81892322D01*
X168153166Y-81918261D01*
X168183008Y-81970665D01*
X168183684Y-81970386D01*
X168185912Y-81975765D01*
X168187741Y-81978977D01*
X168188293Y-81981513D01*
X168188357Y-81981669D01*
X168233875Y-82049792D01*
X168233876Y-82049793D01*
X168233879Y-82049797D01*
X168354287Y-82170203D01*
X168378317Y-82194233D01*
X168378319Y-82194235D01*
X168446444Y-82239756D01*
X168457730Y-82244431D01*
X168457131Y-82245876D01*
X168506716Y-82271810D01*
X168536565Y-82324220D01*
X168537239Y-82323941D01*
X168539459Y-82329302D01*
X168541294Y-82332523D01*
X168541848Y-82335069D01*
X168541911Y-82335220D01*
X168541912Y-82335223D01*
X168587433Y-82403351D01*
X168698031Y-82513947D01*
X168731871Y-82547787D01*
X168731873Y-82547789D01*
X168799997Y-82593309D01*
X168811283Y-82597984D01*
X168810684Y-82599429D01*
X168860273Y-82625368D01*
X168890115Y-82677772D01*
X168890791Y-82677493D01*
X168893019Y-82682872D01*
X168894848Y-82686084D01*
X168895400Y-82688620D01*
X168895464Y-82688776D01*
X168940982Y-82756899D01*
X168940983Y-82756900D01*
X168940986Y-82756904D01*
X169049637Y-82865553D01*
X169085424Y-82901340D01*
X169085426Y-82901342D01*
X169153551Y-82946863D01*
X169164837Y-82951538D01*
X169164238Y-82952983D01*
X169213823Y-82978917D01*
X169243672Y-83031327D01*
X169244346Y-83031048D01*
X169246566Y-83036409D01*
X169248401Y-83039630D01*
X169248955Y-83042176D01*
X169249018Y-83042327D01*
X169249019Y-83042330D01*
X169294540Y-83110458D01*
X169403277Y-83219193D01*
X169438978Y-83254894D01*
X169438980Y-83254896D01*
X169507105Y-83300417D01*
X169507107Y-83300418D01*
X169614598Y-83321799D01*
X169614600Y-83321799D01*
X169614602Y-83321799D01*
X169722092Y-83300418D01*
X169722092Y-83300417D01*
X169722095Y-83300417D01*
X169790222Y-83254896D01*
X170245586Y-82799529D01*
X170245589Y-82799528D01*
X170263025Y-82782092D01*
X170263026Y-82782092D01*
X170931305Y-82113810D01*
X170992628Y-82080326D01*
X171018986Y-82077492D01*
X171904174Y-82077492D01*
X171971213Y-82097177D01*
X171991855Y-82113811D01*
X172226818Y-82348773D01*
X172226827Y-82348781D01*
X172255907Y-82371095D01*
X172266499Y-82379223D01*
X172379337Y-82420292D01*
X172379339Y-82420292D01*
X172499413Y-82420292D01*
X172499415Y-82420292D01*
X172612253Y-82379223D01*
X172651931Y-82348776D01*
X172948775Y-82051931D01*
X172979223Y-82012253D01*
X173020292Y-81899415D01*
X173020292Y-81779337D01*
X172979876Y-81668295D01*
X172975446Y-81598567D01*
X173009417Y-81537511D01*
X173071004Y-81504514D01*
X173096399Y-81501886D01*
X175301289Y-81501886D01*
X175368328Y-81521571D01*
X175388970Y-81538205D01*
X175713181Y-81862415D01*
X175746666Y-81923738D01*
X175749500Y-81950096D01*
X175749500Y-82925500D01*
X175729815Y-82992539D01*
X175677011Y-83038294D01*
X175636142Y-83047184D01*
X175636312Y-83048903D01*
X175630247Y-83049500D01*
X175571770Y-83061131D01*
X175571769Y-83061132D01*
X175505447Y-83105447D01*
X175461132Y-83171769D01*
X175461131Y-83171770D01*
X175449500Y-83230247D01*
X175449500Y-83669752D01*
X175461131Y-83728229D01*
X175461132Y-83728230D01*
X175505447Y-83794552D01*
X175571769Y-83838867D01*
X175571770Y-83838868D01*
X175630247Y-83850499D01*
X175630250Y-83850500D01*
X175630252Y-83850500D01*
X176425500Y-83850500D01*
X176492539Y-83870185D01*
X176538294Y-83922989D01*
X176549500Y-83974500D01*
X176549500Y-84225500D01*
X176529815Y-84292539D01*
X176477011Y-84338294D01*
X176425500Y-84349500D01*
X175630247Y-84349500D01*
X175571770Y-84361131D01*
X175571769Y-84361132D01*
X175505447Y-84405447D01*
X175461132Y-84471769D01*
X175461131Y-84471770D01*
X175449500Y-84530247D01*
X175449500Y-84875500D01*
X175429815Y-84942539D01*
X175377011Y-84988294D01*
X175325500Y-84999500D01*
X174938433Y-84999500D01*
X174871394Y-84979815D01*
X174850752Y-84963181D01*
X173854817Y-83967246D01*
X173821332Y-83905923D01*
X173820382Y-83901096D01*
X173820292Y-83900585D01*
X173812982Y-83880500D01*
X173779223Y-83787747D01*
X173772943Y-83779564D01*
X173748782Y-83748076D01*
X173748774Y-83748067D01*
X173451934Y-83451228D01*
X173451925Y-83451220D01*
X173412256Y-83420779D01*
X173412254Y-83420778D01*
X173412253Y-83420777D01*
X173412251Y-83420776D01*
X173412249Y-83420775D01*
X173299415Y-83379708D01*
X173179337Y-83379708D01*
X173179336Y-83379708D01*
X173066498Y-83420777D01*
X173066497Y-83420778D01*
X173026824Y-83451220D01*
X173026814Y-83451229D01*
X172974542Y-83503501D01*
X172913219Y-83536985D01*
X172843527Y-83532000D01*
X172799183Y-83503501D01*
X171809629Y-82513947D01*
X171793503Y-82494090D01*
X171788429Y-82486323D01*
X171762479Y-82466125D01*
X171756733Y-82461051D01*
X171754299Y-82458617D01*
X171737601Y-82446695D01*
X171735547Y-82445163D01*
X171705979Y-82422150D01*
X171696118Y-82414475D01*
X171696116Y-82414474D01*
X171689640Y-82410969D01*
X171683058Y-82407751D01*
X171635174Y-82393495D01*
X171632735Y-82392714D01*
X171585476Y-82376490D01*
X171578261Y-82375286D01*
X171570945Y-82374374D01*
X171522131Y-82376393D01*
X171521041Y-82376439D01*
X171518481Y-82376492D01*
X171285862Y-82376492D01*
X171260417Y-82373853D01*
X171251341Y-82371950D01*
X171251340Y-82371950D01*
X171251333Y-82371949D01*
X171245731Y-82372648D01*
X171206216Y-82371219D01*
X171205592Y-82371095D01*
X171205588Y-82371095D01*
X171098095Y-82392476D01*
X171098094Y-82392476D01*
X171033985Y-82435312D01*
X171032221Y-82436327D01*
X171024090Y-82442142D01*
X171018395Y-82446575D01*
X170984569Y-82483321D01*
X170982795Y-82485169D01*
X170495273Y-82972693D01*
X170495270Y-82972696D01*
X170001650Y-83466317D01*
X170001647Y-83466321D01*
X169956124Y-83534447D01*
X169956123Y-83534448D01*
X169934743Y-83641939D01*
X169934743Y-83641944D01*
X169956124Y-83749435D01*
X169956124Y-83749436D01*
X170001642Y-83817559D01*
X170001643Y-83817560D01*
X170001646Y-83817564D01*
X170113162Y-83929078D01*
X170146084Y-83962000D01*
X170146086Y-83962002D01*
X170214211Y-84007523D01*
X170214213Y-84007524D01*
X170321704Y-84028905D01*
X170321706Y-84028905D01*
X170321708Y-84028905D01*
X170429198Y-84007524D01*
X170429198Y-84007523D01*
X170429201Y-84007523D01*
X170497328Y-83962002D01*
X170952692Y-83506635D01*
X170952695Y-83506634D01*
X170970131Y-83489198D01*
X170970132Y-83489198D01*
X171294143Y-83165187D01*
X171355466Y-83131702D01*
X171425158Y-83136686D01*
X171469505Y-83165187D01*
X172456773Y-84152455D01*
X172472897Y-84172310D01*
X172477974Y-84180080D01*
X172503919Y-84200273D01*
X172509671Y-84205353D01*
X172708272Y-84403954D01*
X172906343Y-84602025D01*
X172911433Y-84607789D01*
X172920789Y-84619809D01*
X172937235Y-84639226D01*
X172938564Y-84640670D01*
X172964504Y-84660860D01*
X172970261Y-84665943D01*
X172971588Y-84667270D01*
X172972694Y-84668376D01*
X172975491Y-84670373D01*
X172981459Y-84675220D01*
X173005647Y-84697487D01*
X173007295Y-84698563D01*
X173029145Y-84711582D01*
X173037310Y-84716000D01*
X173043932Y-84719238D01*
X173043933Y-84719238D01*
X173043934Y-84719239D01*
X173075438Y-84728618D01*
X173082638Y-84731256D01*
X173112768Y-84744473D01*
X173112775Y-84744473D01*
X173114727Y-84744968D01*
X173139534Y-84750169D01*
X173141507Y-84750498D01*
X173141512Y-84750500D01*
X173141517Y-84750500D01*
X173148754Y-84751708D01*
X173156045Y-84752617D01*
X173156045Y-84752616D01*
X173156046Y-84752617D01*
X173188896Y-84751258D01*
X173196576Y-84751416D01*
X173229344Y-84754132D01*
X173229344Y-84754131D01*
X173229345Y-84754132D01*
X173231302Y-84753970D01*
X173259142Y-84750500D01*
X173453923Y-84750500D01*
X173520962Y-84770185D01*
X173541604Y-84786819D01*
X173942604Y-85187819D01*
X173976089Y-85249142D01*
X173971105Y-85318834D01*
X173929233Y-85374767D01*
X173863769Y-85399184D01*
X173854923Y-85399500D01*
X173748286Y-85399500D01*
X173610199Y-85440045D01*
X173489123Y-85517856D01*
X173489122Y-85517856D01*
X173489122Y-85517857D01*
X173484167Y-85523576D01*
X173455462Y-85556703D01*
X173396683Y-85594477D01*
X173361749Y-85599500D01*
X173299206Y-85599500D01*
X173273761Y-85596861D01*
X173264685Y-85594958D01*
X173264682Y-85594958D01*
X173232068Y-85599023D01*
X173224392Y-85599500D01*
X173220960Y-85599500D01*
X173200716Y-85602877D01*
X173198193Y-85603245D01*
X173148606Y-85609426D01*
X173141575Y-85611519D01*
X173134618Y-85613907D01*
X173090687Y-85637682D01*
X173088411Y-85638853D01*
X173043513Y-85660803D01*
X173037566Y-85665048D01*
X173031739Y-85669584D01*
X172997913Y-85706329D01*
X172996139Y-85708177D01*
X172627872Y-86076444D01*
X172566549Y-86109929D01*
X172496857Y-86104945D01*
X172440924Y-86063073D01*
X172427400Y-86040282D01*
X172403689Y-85988361D01*
X172309440Y-85879591D01*
X172188365Y-85801781D01*
X172188364Y-85801780D01*
X172182738Y-85798165D01*
X172136983Y-85745361D01*
X172127039Y-85676202D01*
X172135219Y-85646390D01*
X172136330Y-85643709D01*
X172155250Y-85500000D01*
X172136330Y-85356291D01*
X172096407Y-85259907D01*
X172080862Y-85222377D01*
X172080861Y-85222376D01*
X172080861Y-85222375D01*
X171992621Y-85107379D01*
X171877625Y-85019139D01*
X171877624Y-85019138D01*
X171877622Y-85019137D01*
X171743712Y-84963671D01*
X171743710Y-84963670D01*
X171743709Y-84963670D01*
X171658160Y-84952407D01*
X171600001Y-84944750D01*
X171599999Y-84944750D01*
X171456291Y-84963670D01*
X171456287Y-84963671D01*
X171322377Y-85019137D01*
X171207379Y-85107379D01*
X171119137Y-85222377D01*
X171063671Y-85356287D01*
X171063670Y-85356291D01*
X171053397Y-85434316D01*
X171025129Y-85498212D01*
X170966805Y-85536682D01*
X170896940Y-85537513D01*
X170842777Y-85505810D01*
X170756207Y-85419240D01*
X170426830Y-85089862D01*
X170410704Y-85070005D01*
X170405630Y-85062238D01*
X170379680Y-85042040D01*
X170373934Y-85036966D01*
X170371500Y-85034532D01*
X170354802Y-85022610D01*
X170352748Y-85021078D01*
X170322343Y-84997414D01*
X170313319Y-84990390D01*
X170313317Y-84990389D01*
X170306841Y-84986884D01*
X170300259Y-84983666D01*
X170252375Y-84969410D01*
X170249936Y-84968629D01*
X170202677Y-84952405D01*
X170195462Y-84951201D01*
X170188146Y-84950289D01*
X170139332Y-84952308D01*
X170138242Y-84952354D01*
X170135682Y-84952407D01*
X169446304Y-84952407D01*
X169420858Y-84949768D01*
X169411778Y-84947864D01*
X169411777Y-84947864D01*
X169411775Y-84947864D01*
X169379154Y-84951930D01*
X169371478Y-84952407D01*
X169368053Y-84952407D01*
X169347821Y-84955782D01*
X169345289Y-84956151D01*
X169295704Y-84962332D01*
X169288653Y-84964431D01*
X169281710Y-84966815D01*
X169237771Y-84990593D01*
X169235495Y-84991765D01*
X169190608Y-85013709D01*
X169184622Y-85017982D01*
X169178835Y-85022487D01*
X169144983Y-85059260D01*
X169143210Y-85061108D01*
X168761160Y-85443158D01*
X168699837Y-85476643D01*
X168673479Y-85479477D01*
X168648059Y-85479477D01*
X168509972Y-85520022D01*
X168388896Y-85597833D01*
X168388895Y-85597833D01*
X168388895Y-85597834D01*
X168387235Y-85599750D01*
X168294646Y-85706603D01*
X168294645Y-85706605D01*
X168234857Y-85837520D01*
X168214376Y-85979977D01*
X168234857Y-86122433D01*
X168263678Y-86185540D01*
X168294646Y-86253350D01*
X168388895Y-86362120D01*
X168509970Y-86439930D01*
X168585061Y-86461978D01*
X168643838Y-86499751D01*
X168672864Y-86563306D01*
X168662921Y-86632465D01*
X168637809Y-86668635D01*
X168587435Y-86719009D01*
X168541911Y-86787138D01*
X168537240Y-86798418D01*
X168535796Y-86797820D01*
X168509841Y-86847426D01*
X168457446Y-86877253D01*
X168457728Y-86877933D01*
X168452315Y-86880175D01*
X168449122Y-86881993D01*
X168446604Y-86882540D01*
X168446444Y-86882606D01*
X168378317Y-86928127D01*
X168233880Y-87072565D01*
X168233878Y-87072567D01*
X168188357Y-87140692D01*
X168183683Y-87151978D01*
X168182238Y-87151379D01*
X168156292Y-87200974D01*
X168103892Y-87230808D01*
X168104173Y-87231486D01*
X168098773Y-87233722D01*
X168095574Y-87235544D01*
X168093050Y-87236092D01*
X168092891Y-87236158D01*
X168024766Y-87281678D01*
X167880327Y-87426118D01*
X167880325Y-87426120D01*
X167834804Y-87494245D01*
X167830130Y-87505531D01*
X167828685Y-87504932D01*
X167802739Y-87554527D01*
X167750339Y-87584361D01*
X167750620Y-87585039D01*
X167745220Y-87587275D01*
X167742021Y-87589097D01*
X167739497Y-87589645D01*
X167739338Y-87589711D01*
X167671213Y-87635231D01*
X167526775Y-87779670D01*
X167481251Y-87847798D01*
X167476580Y-87859078D01*
X167475136Y-87858480D01*
X167449181Y-87908086D01*
X167396786Y-87937913D01*
X167397068Y-87938593D01*
X167391655Y-87940835D01*
X167388462Y-87942653D01*
X167385944Y-87943200D01*
X167385784Y-87943266D01*
X167317657Y-87988787D01*
X167173220Y-88133225D01*
X167173218Y-88133227D01*
X167127697Y-88201352D01*
X167123023Y-88212638D01*
X167121578Y-88212039D01*
X167095632Y-88261634D01*
X167043232Y-88291468D01*
X167043513Y-88292146D01*
X167038113Y-88294382D01*
X167034914Y-88296204D01*
X167032390Y-88296752D01*
X167032231Y-88296818D01*
X166964106Y-88342338D01*
X166819667Y-88486778D01*
X166819665Y-88486780D01*
X166774144Y-88554905D01*
X166769470Y-88566191D01*
X166768025Y-88565592D01*
X166742079Y-88615187D01*
X166689679Y-88645021D01*
X166689960Y-88645699D01*
X166684560Y-88647935D01*
X166681361Y-88649757D01*
X166678837Y-88650305D01*
X166678678Y-88650371D01*
X166610553Y-88695891D01*
X166466115Y-88840330D01*
X166420591Y-88908458D01*
X166415920Y-88919738D01*
X166414476Y-88919140D01*
X166388521Y-88968746D01*
X166336126Y-88998573D01*
X166336408Y-88999253D01*
X166330995Y-89001495D01*
X166327802Y-89003313D01*
X166325284Y-89003860D01*
X166325122Y-89003927D01*
X166318336Y-89008462D01*
X166251657Y-89029337D01*
X166184278Y-89010850D01*
X166137590Y-88958869D01*
X166134888Y-88952809D01*
X166080862Y-88822377D01*
X166080861Y-88822376D01*
X166080861Y-88822375D01*
X165992621Y-88707379D01*
X165877625Y-88619139D01*
X165877624Y-88619138D01*
X165877622Y-88619137D01*
X165743712Y-88563671D01*
X165743710Y-88563670D01*
X165743709Y-88563670D01*
X165662983Y-88553042D01*
X165600001Y-88544750D01*
X165599999Y-88544750D01*
X165456291Y-88563670D01*
X165456287Y-88563671D01*
X165322377Y-88619137D01*
X165207379Y-88707379D01*
X165119137Y-88822377D01*
X165063671Y-88956287D01*
X165063670Y-88956291D01*
X165049074Y-89067160D01*
X165044750Y-89100000D01*
X165061707Y-89228802D01*
X165063670Y-89243708D01*
X165063671Y-89243712D01*
X165119137Y-89377622D01*
X165119138Y-89377624D01*
X165119139Y-89377625D01*
X165207379Y-89492621D01*
X165322375Y-89580861D01*
X165322376Y-89580861D01*
X165322377Y-89580862D01*
X165436033Y-89627939D01*
X165490437Y-89671779D01*
X165512502Y-89738073D01*
X165495223Y-89805773D01*
X165476263Y-89830180D01*
X165405458Y-89900986D01*
X165405451Y-89900994D01*
X165359930Y-89969119D01*
X165359929Y-89969121D01*
X165338549Y-90076611D01*
X165338549Y-90076616D01*
X165359929Y-90184106D01*
X165405453Y-90252238D01*
X165405454Y-90252239D01*
X165871185Y-90717968D01*
X165871188Y-90717972D01*
X167261795Y-92108579D01*
X167295280Y-92169902D01*
X167298114Y-92196260D01*
X167298114Y-94773729D01*
X167278429Y-94840768D01*
X167225625Y-94886523D01*
X167156467Y-94896467D01*
X167092911Y-94867442D01*
X167086433Y-94861410D01*
X166674381Y-94449358D01*
X166658255Y-94429501D01*
X166653181Y-94421734D01*
X166627231Y-94401536D01*
X166621485Y-94396462D01*
X166619051Y-94394028D01*
X166602353Y-94382106D01*
X166600299Y-94380574D01*
X166573589Y-94359786D01*
X166560870Y-94349886D01*
X166560868Y-94349885D01*
X166554392Y-94346380D01*
X166547810Y-94343162D01*
X166499926Y-94328906D01*
X166497487Y-94328125D01*
X166450228Y-94311901D01*
X166443013Y-94310697D01*
X166435697Y-94309785D01*
X166386883Y-94311804D01*
X166385793Y-94311850D01*
X166383233Y-94311903D01*
X164858946Y-94311903D01*
X164791907Y-94292218D01*
X164771265Y-94275584D01*
X162586819Y-92091137D01*
X162553334Y-92029814D01*
X162550500Y-92003456D01*
X162550500Y-91960192D01*
X162570185Y-91893153D01*
X162586819Y-91872511D01*
X162784515Y-91674815D01*
X163006361Y-91452969D01*
X163006361Y-91452967D01*
X163013422Y-91445907D01*
X163013428Y-91445900D01*
X163044939Y-91414388D01*
X163106260Y-91380905D01*
X163175952Y-91385889D01*
X163231885Y-91427761D01*
X163255557Y-91485885D01*
X163263170Y-91543707D01*
X163263171Y-91543712D01*
X163318637Y-91677622D01*
X163318638Y-91677624D01*
X163318639Y-91677625D01*
X163406879Y-91792621D01*
X163521875Y-91880861D01*
X163655791Y-91936330D01*
X163772103Y-91951643D01*
X163799499Y-91955250D01*
X163799500Y-91955250D01*
X163799501Y-91955250D01*
X163826897Y-91951643D01*
X163943209Y-91936330D01*
X164077125Y-91880861D01*
X164192121Y-91792621D01*
X164280361Y-91677625D01*
X164335830Y-91543709D01*
X164354750Y-91400000D01*
X164354750Y-91392293D01*
X164374435Y-91325254D01*
X164391069Y-91304612D01*
X164608863Y-91086819D01*
X164670186Y-91053334D01*
X164696544Y-91050500D01*
X164738142Y-91050500D01*
X164805181Y-91070185D01*
X164825823Y-91086818D01*
X165171150Y-91432146D01*
X165509789Y-91770785D01*
X165813181Y-92074176D01*
X165846666Y-92135499D01*
X165849500Y-92161857D01*
X165849500Y-92850788D01*
X165846861Y-92876232D01*
X165842849Y-92895368D01*
X165842682Y-92895333D01*
X165837663Y-92920714D01*
X165800886Y-93021763D01*
X165800886Y-93141841D01*
X165841955Y-93254679D01*
X165841956Y-93254680D01*
X165872398Y-93294353D01*
X165872406Y-93294362D01*
X166126818Y-93548773D01*
X166126827Y-93548781D01*
X166144737Y-93562524D01*
X166166499Y-93579223D01*
X166279337Y-93620292D01*
X166279339Y-93620292D01*
X166399413Y-93620292D01*
X166399415Y-93620292D01*
X166512253Y-93579223D01*
X166551931Y-93548776D01*
X166848775Y-93251931D01*
X166879223Y-93212253D01*
X166920292Y-93099415D01*
X166920292Y-92979337D01*
X166879223Y-92866499D01*
X166848776Y-92826820D01*
X166594358Y-92572403D01*
X166594354Y-92572399D01*
X166592725Y-92570970D01*
X166592378Y-92570423D01*
X166591488Y-92569533D01*
X166591687Y-92569333D01*
X166555311Y-92511962D01*
X166550500Y-92477756D01*
X166550500Y-92014525D01*
X166553139Y-91989078D01*
X166553873Y-91985577D01*
X166555043Y-91979999D01*
X166552574Y-91960192D01*
X166550977Y-91947375D01*
X166550500Y-91939699D01*
X166550500Y-91936276D01*
X166550104Y-91933903D01*
X166547118Y-91916013D01*
X166546754Y-91913504D01*
X166540573Y-91863921D01*
X166538477Y-91856882D01*
X166536091Y-91849930D01*
X166512317Y-91806002D01*
X166511157Y-91803751D01*
X166494331Y-91769330D01*
X166489200Y-91758833D01*
X166484919Y-91752838D01*
X166480420Y-91747058D01*
X166478982Y-91745734D01*
X166443642Y-91713201D01*
X166441820Y-91711452D01*
X165217323Y-90486955D01*
X165201197Y-90467098D01*
X165196123Y-90459331D01*
X165170173Y-90439133D01*
X165164427Y-90434059D01*
X165161993Y-90431625D01*
X165151196Y-90423916D01*
X165145295Y-90419703D01*
X165143241Y-90418171D01*
X165104855Y-90388295D01*
X165103812Y-90387483D01*
X165103810Y-90387482D01*
X165097334Y-90383977D01*
X165090752Y-90380759D01*
X165042868Y-90366503D01*
X165040429Y-90365722D01*
X164993170Y-90349498D01*
X164985955Y-90348294D01*
X164978639Y-90347382D01*
X164929825Y-90349401D01*
X164928735Y-90349447D01*
X164926175Y-90349500D01*
X164549206Y-90349500D01*
X164523761Y-90346861D01*
X164514685Y-90344958D01*
X164514682Y-90344958D01*
X164482068Y-90349023D01*
X164474392Y-90349500D01*
X164470960Y-90349500D01*
X164450716Y-90352877D01*
X164448193Y-90353245D01*
X164398606Y-90359426D01*
X164391575Y-90361519D01*
X164384618Y-90363907D01*
X164340687Y-90387682D01*
X164338411Y-90388853D01*
X164293513Y-90410803D01*
X164287566Y-90415048D01*
X164281739Y-90419584D01*
X164247913Y-90456329D01*
X164246139Y-90458177D01*
X163895818Y-90808498D01*
X163834495Y-90841983D01*
X163807627Y-90843106D01*
X163807627Y-90844750D01*
X163799498Y-90844750D01*
X163699801Y-90857875D01*
X163630766Y-90847109D01*
X163578510Y-90800729D01*
X163561999Y-90759130D01*
X163545509Y-90676226D01*
X163545508Y-90676225D01*
X163545508Y-90676223D01*
X163499991Y-90608102D01*
X163499990Y-90608101D01*
X163499988Y-90608098D01*
X163355550Y-90463662D01*
X163355549Y-90463661D01*
X163355547Y-90463659D01*
X163287422Y-90418138D01*
X163276137Y-90413464D01*
X163276735Y-90412018D01*
X163227142Y-90386075D01*
X163197305Y-90333674D01*
X163196629Y-90333955D01*
X163194397Y-90328568D01*
X163192570Y-90325358D01*
X163192019Y-90322826D01*
X163191955Y-90322670D01*
X163146438Y-90254549D01*
X163146437Y-90254548D01*
X163146435Y-90254545D01*
X163001997Y-90110109D01*
X163001996Y-90110108D01*
X163001994Y-90110106D01*
X162933869Y-90064585D01*
X162922584Y-90059911D01*
X162923182Y-90058465D01*
X162873589Y-90032522D01*
X162843752Y-89980121D01*
X162843076Y-89980402D01*
X162840844Y-89975015D01*
X162839017Y-89971805D01*
X162838466Y-89969273D01*
X162838402Y-89969117D01*
X162792885Y-89900996D01*
X162792884Y-89900995D01*
X162792883Y-89900994D01*
X162792882Y-89900992D01*
X162648444Y-89756556D01*
X162648443Y-89756555D01*
X162648441Y-89756553D01*
X162580316Y-89711032D01*
X162569035Y-89706360D01*
X162569632Y-89704916D01*
X162520030Y-89678964D01*
X162490199Y-89626566D01*
X162489522Y-89626847D01*
X162487286Y-89621449D01*
X162485462Y-89618245D01*
X162484912Y-89615717D01*
X162484849Y-89615565D01*
X162439329Y-89547440D01*
X162439328Y-89547438D01*
X162294890Y-89403002D01*
X162294889Y-89403001D01*
X162294887Y-89402999D01*
X162226762Y-89357478D01*
X162215477Y-89352804D01*
X162216075Y-89351358D01*
X162166482Y-89325415D01*
X162136645Y-89273014D01*
X162135969Y-89273295D01*
X162133737Y-89267908D01*
X162131910Y-89264698D01*
X162131359Y-89262166D01*
X162131295Y-89262010D01*
X162085778Y-89193889D01*
X162085777Y-89193888D01*
X162085775Y-89193885D01*
X161941337Y-89049449D01*
X161941336Y-89049448D01*
X161941334Y-89049446D01*
X161873209Y-89003925D01*
X161861928Y-88999253D01*
X161862525Y-88997809D01*
X161812923Y-88971857D01*
X161783092Y-88919459D01*
X161782415Y-88919740D01*
X161780179Y-88914342D01*
X161778355Y-88911138D01*
X161777805Y-88908610D01*
X161777742Y-88908458D01*
X161732222Y-88840333D01*
X161732221Y-88840331D01*
X161587783Y-88695895D01*
X161587782Y-88695894D01*
X161587780Y-88695892D01*
X161519655Y-88650371D01*
X161508370Y-88645697D01*
X161508968Y-88644251D01*
X161459375Y-88618308D01*
X161429538Y-88565907D01*
X161428862Y-88566188D01*
X161426630Y-88560801D01*
X161424803Y-88557591D01*
X161424252Y-88555059D01*
X161424188Y-88554903D01*
X161378671Y-88486782D01*
X161378670Y-88486781D01*
X161378669Y-88486780D01*
X161378668Y-88486778D01*
X161234230Y-88342342D01*
X161234229Y-88342341D01*
X161234227Y-88342339D01*
X161166102Y-88296818D01*
X161154817Y-88292144D01*
X161155415Y-88290698D01*
X161105822Y-88264755D01*
X161075985Y-88212354D01*
X161075309Y-88212635D01*
X161073077Y-88207248D01*
X161071250Y-88204038D01*
X161070699Y-88201506D01*
X161070635Y-88201350D01*
X161025118Y-88133229D01*
X161025117Y-88133228D01*
X161025116Y-88133227D01*
X161025115Y-88133225D01*
X160880677Y-87988789D01*
X160880676Y-87988788D01*
X160880674Y-87988786D01*
X160812549Y-87943265D01*
X160801268Y-87938593D01*
X160801865Y-87937149D01*
X160752263Y-87911197D01*
X160722432Y-87858799D01*
X160721755Y-87859080D01*
X160719519Y-87853682D01*
X160717695Y-87850478D01*
X160717145Y-87847950D01*
X160717082Y-87847798D01*
X160671562Y-87779673D01*
X160671561Y-87779671D01*
X160527123Y-87635235D01*
X160527122Y-87635234D01*
X160527120Y-87635232D01*
X160458995Y-87589711D01*
X160447710Y-87585037D01*
X160448308Y-87583591D01*
X160398715Y-87557648D01*
X160368878Y-87505247D01*
X160368202Y-87505528D01*
X160365970Y-87500141D01*
X160364143Y-87496931D01*
X160363592Y-87494399D01*
X160363528Y-87494243D01*
X160318011Y-87426122D01*
X160318010Y-87426121D01*
X160318009Y-87426120D01*
X160318008Y-87426118D01*
X160173570Y-87281682D01*
X160173569Y-87281681D01*
X160173567Y-87281679D01*
X160105442Y-87236158D01*
X160094157Y-87231484D01*
X160094755Y-87230038D01*
X160045162Y-87204095D01*
X160015325Y-87151694D01*
X160014649Y-87151975D01*
X160012417Y-87146588D01*
X160010590Y-87143378D01*
X160010039Y-87140846D01*
X160009975Y-87140690D01*
X159964458Y-87072569D01*
X159964457Y-87072568D01*
X159964456Y-87072567D01*
X159964455Y-87072565D01*
X159861241Y-86969352D01*
X159827757Y-86908031D01*
X159830244Y-86873253D01*
X161411683Y-86873253D01*
X161430603Y-87016961D01*
X161430604Y-87016965D01*
X161486070Y-87150875D01*
X161486071Y-87150877D01*
X161486072Y-87150878D01*
X161574312Y-87265874D01*
X161689308Y-87354114D01*
X161689309Y-87354114D01*
X161689310Y-87354115D01*
X161703405Y-87359953D01*
X161823224Y-87409583D01*
X161948833Y-87426120D01*
X161966932Y-87428503D01*
X161966933Y-87428503D01*
X161966934Y-87428503D01*
X161985033Y-87426120D01*
X162110642Y-87409583D01*
X162244558Y-87354114D01*
X162359554Y-87265874D01*
X162447794Y-87150878D01*
X162503263Y-87016962D01*
X162522183Y-86873253D01*
X162503263Y-86729544D01*
X162460634Y-86626626D01*
X162447795Y-86595630D01*
X162447794Y-86595629D01*
X162447794Y-86595628D01*
X162359554Y-86480632D01*
X162244558Y-86392392D01*
X162244557Y-86392391D01*
X162244555Y-86392390D01*
X162110645Y-86336924D01*
X162110643Y-86336923D01*
X162110642Y-86336923D01*
X162035354Y-86327011D01*
X161966934Y-86318003D01*
X161966932Y-86318003D01*
X161823224Y-86336923D01*
X161823220Y-86336924D01*
X161689310Y-86392390D01*
X161574312Y-86480632D01*
X161486070Y-86595630D01*
X161430604Y-86729540D01*
X161430603Y-86729544D01*
X161411683Y-86873252D01*
X161411683Y-86873253D01*
X159830244Y-86873253D01*
X159832741Y-86838339D01*
X159874612Y-86782405D01*
X159881875Y-86777362D01*
X159931128Y-86745710D01*
X160025377Y-86636940D01*
X160085165Y-86506024D01*
X160105647Y-86363567D01*
X160085165Y-86221110D01*
X160025377Y-86090194D01*
X159931128Y-85981424D01*
X159810053Y-85903614D01*
X159810051Y-85903613D01*
X159810049Y-85903612D01*
X159810050Y-85903612D01*
X159671963Y-85863067D01*
X159671961Y-85863067D01*
X159528039Y-85863067D01*
X159528036Y-85863067D01*
X159389949Y-85903612D01*
X159268876Y-85981421D01*
X159268874Y-85981422D01*
X159268872Y-85981424D01*
X159268870Y-85981425D01*
X159267312Y-85982777D01*
X159265427Y-85983637D01*
X159261411Y-85986219D01*
X159261039Y-85985641D01*
X159203757Y-86011804D01*
X159186105Y-86013067D01*
X159164012Y-86013067D01*
X159138566Y-86010428D01*
X159129486Y-86008524D01*
X159129485Y-86008524D01*
X159129483Y-86008524D01*
X159096862Y-86012590D01*
X159089186Y-86013067D01*
X159085761Y-86013067D01*
X159080555Y-86013935D01*
X159065501Y-86016446D01*
X159062972Y-86016814D01*
X159013406Y-86022993D01*
X159008295Y-86024515D01*
X158938426Y-86024773D01*
X158885240Y-85993350D01*
X158759356Y-85867468D01*
X158759353Y-85867465D01*
X158691228Y-85821944D01*
X158691226Y-85821943D01*
X158583736Y-85800563D01*
X158583732Y-85800563D01*
X158476241Y-85821943D01*
X158476241Y-85821944D01*
X158476239Y-85821944D01*
X158476239Y-85821945D01*
X158474195Y-85823311D01*
X158408109Y-85867467D01*
X157876725Y-86398851D01*
X157876721Y-86398857D01*
X156862399Y-87413181D01*
X156801076Y-87446666D01*
X156774718Y-87449500D01*
X156026767Y-87449500D01*
X155959728Y-87429815D01*
X155939086Y-87413181D01*
X153938205Y-85412299D01*
X153904720Y-85350976D01*
X153901886Y-85324618D01*
X153901886Y-83800598D01*
X153904525Y-83775151D01*
X153905196Y-83771950D01*
X153906429Y-83766072D01*
X153904185Y-83748067D01*
X153902363Y-83733448D01*
X153901886Y-83725772D01*
X153901886Y-83722348D01*
X153901885Y-83722340D01*
X153901880Y-83722315D01*
X153898501Y-83702066D01*
X153898139Y-83699577D01*
X153891959Y-83649994D01*
X153891956Y-83649989D01*
X153889863Y-83642958D01*
X153887479Y-83636014D01*
X153887478Y-83636005D01*
X153865114Y-83594681D01*
X153863698Y-83592064D01*
X153862525Y-83589784D01*
X153840585Y-83544904D01*
X153836314Y-83538924D01*
X153831806Y-83533133D01*
X153831804Y-83533128D01*
X153810127Y-83513173D01*
X153795032Y-83499276D01*
X153793183Y-83497502D01*
X153282637Y-82986955D01*
X153266511Y-82967098D01*
X153261437Y-82959331D01*
X153235487Y-82939133D01*
X153229741Y-82934059D01*
X153227307Y-82931625D01*
X153214351Y-82922375D01*
X153210609Y-82919703D01*
X153208555Y-82918171D01*
X153170169Y-82888295D01*
X153169126Y-82887483D01*
X153169124Y-82887482D01*
X153162648Y-82883977D01*
X153156066Y-82880759D01*
X153108182Y-82866503D01*
X153105743Y-82865722D01*
X153058484Y-82849498D01*
X153051269Y-82848294D01*
X153043952Y-82847382D01*
X153026462Y-82848106D01*
X152958666Y-82831209D01*
X152952446Y-82827313D01*
X152928231Y-82811132D01*
X152928229Y-82811131D01*
X152869752Y-82799500D01*
X152869748Y-82799500D01*
X151930252Y-82799500D01*
X151930247Y-82799500D01*
X151871770Y-82811131D01*
X151871769Y-82811132D01*
X151795293Y-82862233D01*
X151792769Y-82858455D01*
X151752748Y-82880309D01*
X151683056Y-82875325D01*
X151627123Y-82833453D01*
X151602706Y-82767989D01*
X151602390Y-82759143D01*
X151602390Y-82340857D01*
X151622075Y-82273818D01*
X151674879Y-82228063D01*
X151744037Y-82218119D01*
X151793368Y-82240647D01*
X151795293Y-82237767D01*
X151871769Y-82288867D01*
X151871770Y-82288868D01*
X151930247Y-82300499D01*
X151930250Y-82300500D01*
X151930252Y-82300500D01*
X152869750Y-82300500D01*
X152869751Y-82300499D01*
X152889418Y-82296587D01*
X152928228Y-82288868D01*
X152928228Y-82288867D01*
X152928231Y-82288867D01*
X152954375Y-82271397D01*
X153021052Y-82250520D01*
X153023266Y-82250500D01*
X153703456Y-82250500D01*
X153770495Y-82270185D01*
X153791137Y-82286819D01*
X154694749Y-83190431D01*
X154710873Y-83210286D01*
X154715950Y-83218056D01*
X154741895Y-83238249D01*
X154747647Y-83243329D01*
X154750080Y-83245762D01*
X154766822Y-83257715D01*
X154768810Y-83259198D01*
X154772824Y-83262322D01*
X154808262Y-83289905D01*
X154814708Y-83293393D01*
X154821318Y-83296624D01*
X154821321Y-83296626D01*
X154869207Y-83310881D01*
X154871589Y-83311644D01*
X154918899Y-83327887D01*
X154918903Y-83327887D01*
X154926147Y-83329096D01*
X154933433Y-83330004D01*
X154983337Y-83327939D01*
X154985898Y-83327887D01*
X155773402Y-83327887D01*
X155798847Y-83330525D01*
X155807928Y-83332430D01*
X155823618Y-83330474D01*
X155840552Y-83328364D01*
X155848228Y-83327887D01*
X155851648Y-83327887D01*
X155851653Y-83327887D01*
X155860916Y-83326341D01*
X155871891Y-83324510D01*
X155874424Y-83324140D01*
X155924006Y-83317960D01*
X155924012Y-83317956D01*
X155931064Y-83315857D01*
X155937990Y-83313479D01*
X155937994Y-83313479D01*
X155969138Y-83296624D01*
X155981942Y-83289695D01*
X155984203Y-83288530D01*
X156029097Y-83266585D01*
X156029100Y-83266581D01*
X156035066Y-83262322D01*
X156040867Y-83257806D01*
X156040871Y-83257805D01*
X156074714Y-83221040D01*
X156076439Y-83219241D01*
X156441404Y-82854276D01*
X156502725Y-82820793D01*
X156572417Y-82825777D01*
X156628350Y-82867649D01*
X156632168Y-82873044D01*
X156660904Y-82916050D01*
X156672685Y-82933682D01*
X156672686Y-82933683D01*
X157138417Y-83399412D01*
X157138420Y-83399416D01*
X157145487Y-83406483D01*
X157145488Y-83406484D01*
X157870229Y-84131225D01*
X157903713Y-84192546D01*
X157906547Y-84218904D01*
X157906547Y-84607835D01*
X157903908Y-84633279D01*
X157902004Y-84642358D01*
X157902004Y-84642364D01*
X157906070Y-84674984D01*
X157906547Y-84682661D01*
X157906547Y-84903456D01*
X157886862Y-84970495D01*
X157870228Y-84991137D01*
X157506001Y-85355363D01*
X157444678Y-85388848D01*
X157374986Y-85383864D01*
X157319053Y-85341992D01*
X157295382Y-85283869D01*
X157283554Y-85194028D01*
X157228085Y-85060112D01*
X157139845Y-84945116D01*
X157024849Y-84856876D01*
X157024848Y-84856875D01*
X157024846Y-84856874D01*
X156890936Y-84801408D01*
X156890934Y-84801407D01*
X156890933Y-84801407D01*
X156819078Y-84791947D01*
X156747225Y-84782487D01*
X156747223Y-84782487D01*
X156603515Y-84801407D01*
X156603511Y-84801408D01*
X156469601Y-84856874D01*
X156354603Y-84945116D01*
X156266360Y-85060115D01*
X156264770Y-85063956D01*
X156262561Y-85066696D01*
X156262299Y-85067151D01*
X156262228Y-85067110D01*
X156220927Y-85118358D01*
X156154632Y-85140420D01*
X156086933Y-85123138D01*
X156062530Y-85104180D01*
X155930750Y-84972400D01*
X155909371Y-84955995D01*
X155891075Y-84941955D01*
X155891072Y-84941954D01*
X155891068Y-84941951D01*
X155864714Y-84932359D01*
X155819445Y-84903519D01*
X155496478Y-84580553D01*
X155467638Y-84535284D01*
X155458045Y-84508925D01*
X155440737Y-84486369D01*
X155427604Y-84469254D01*
X155427596Y-84469245D01*
X155130756Y-84172406D01*
X155130747Y-84172398D01*
X155091078Y-84141957D01*
X155091076Y-84141956D01*
X155091075Y-84141955D01*
X155091073Y-84141954D01*
X155091071Y-84141953D01*
X154978237Y-84100886D01*
X154858159Y-84100886D01*
X154858158Y-84100886D01*
X154745320Y-84141955D01*
X154745319Y-84141956D01*
X154705646Y-84172398D01*
X154705637Y-84172406D01*
X154451226Y-84426818D01*
X154451218Y-84426827D01*
X154420780Y-84466494D01*
X154420775Y-84466503D01*
X154379708Y-84579336D01*
X154379708Y-84699415D01*
X154396812Y-84746410D01*
X154420777Y-84812253D01*
X154420779Y-84812256D01*
X154420780Y-84812257D01*
X154451217Y-84851923D01*
X154451222Y-84851929D01*
X154451224Y-84851931D01*
X154748069Y-85148775D01*
X154748072Y-85148777D01*
X154748074Y-85148779D01*
X154761653Y-85159199D01*
X154787747Y-85179223D01*
X154787750Y-85179224D01*
X154814104Y-85188816D01*
X154859375Y-85217657D01*
X155182341Y-85540622D01*
X155211181Y-85585891D01*
X155220775Y-85612250D01*
X155220776Y-85612252D01*
X155251217Y-85651923D01*
X155251223Y-85651930D01*
X155251224Y-85651931D01*
X155548069Y-85948775D01*
X155587747Y-85979223D01*
X155614105Y-85988816D01*
X155659374Y-86017656D01*
X156239916Y-86598198D01*
X156244552Y-86603386D01*
X156260762Y-86623712D01*
X156268943Y-86633970D01*
X156311510Y-86662992D01*
X156317115Y-86666813D01*
X156319006Y-86668155D01*
X156365942Y-86702794D01*
X156373494Y-86706785D01*
X156381144Y-86710468D01*
X156381149Y-86710472D01*
X156429805Y-86725480D01*
X156436895Y-86727667D01*
X156439088Y-86728388D01*
X156443368Y-86729886D01*
X156494121Y-86747646D01*
X156502510Y-86749232D01*
X156510917Y-86750500D01*
X156510920Y-86750500D01*
X156569243Y-86750500D01*
X156571526Y-86750542D01*
X156629832Y-86752724D01*
X156639065Y-86751684D01*
X156639158Y-86752513D01*
X156654458Y-86750500D01*
X156886843Y-86750500D01*
X156893781Y-86750889D01*
X156925676Y-86754483D01*
X156932660Y-86755270D01*
X156932660Y-86755269D01*
X156932661Y-86755270D01*
X156950122Y-86751966D01*
X156980530Y-86752108D01*
X156980530Y-86751267D01*
X156992745Y-86751267D01*
X157100236Y-86729886D01*
X157100236Y-86729885D01*
X157100239Y-86729885D01*
X157168366Y-86684364D01*
X157227407Y-86625321D01*
X157229060Y-86623728D01*
X157271820Y-86584055D01*
X157271822Y-86584050D01*
X157277613Y-86576790D01*
X157278269Y-86577313D01*
X157287657Y-86565071D01*
X157425232Y-86427498D01*
X157623729Y-86228998D01*
X157623732Y-86228997D01*
X157641169Y-86211560D01*
X157641170Y-86211560D01*
X158365910Y-85486818D01*
X158427233Y-85453334D01*
X158453591Y-85450500D01*
X158635209Y-85450500D01*
X158642886Y-85450977D01*
X158656046Y-85452617D01*
X158705950Y-85450552D01*
X158708511Y-85450500D01*
X159190128Y-85450500D01*
X159215573Y-85453138D01*
X159224654Y-85455043D01*
X159240344Y-85453087D01*
X159257278Y-85450977D01*
X159264954Y-85450500D01*
X159268374Y-85450500D01*
X159268379Y-85450500D01*
X159277642Y-85448954D01*
X159288617Y-85447123D01*
X159291150Y-85446753D01*
X159340732Y-85440573D01*
X159340738Y-85440569D01*
X159347790Y-85438470D01*
X159354716Y-85436092D01*
X159354720Y-85436092D01*
X159386524Y-85418880D01*
X159398668Y-85412308D01*
X159400929Y-85411143D01*
X159445823Y-85389198D01*
X159445826Y-85389194D01*
X159451792Y-85384935D01*
X159457593Y-85380419D01*
X159457597Y-85380418D01*
X159491440Y-85343653D01*
X159493165Y-85341854D01*
X161248201Y-83586818D01*
X161309524Y-83553334D01*
X161335882Y-83550500D01*
X162713908Y-83550500D01*
X162780947Y-83570185D01*
X162800412Y-83588086D01*
X162801628Y-83586871D01*
X162807372Y-83592615D01*
X162807377Y-83592619D01*
X162807379Y-83592621D01*
X162922375Y-83680861D01*
X163056291Y-83736330D01*
X163183280Y-83753048D01*
X163199999Y-83755250D01*
X163200000Y-83755250D01*
X163200001Y-83755250D01*
X163214977Y-83753278D01*
X163343709Y-83736330D01*
X163477625Y-83680861D01*
X163592621Y-83592621D01*
X163680861Y-83477625D01*
X163736330Y-83343709D01*
X163755250Y-83200000D01*
X163755187Y-83199525D01*
X163749300Y-83154805D01*
X163736330Y-83056291D01*
X163691004Y-82946863D01*
X163680862Y-82922377D01*
X163680861Y-82922376D01*
X163680861Y-82922375D01*
X163592621Y-82807379D01*
X163477625Y-82719139D01*
X163477624Y-82719138D01*
X163477622Y-82719137D01*
X163343712Y-82663671D01*
X163343710Y-82663670D01*
X163343709Y-82663670D01*
X163271854Y-82654210D01*
X163200001Y-82644750D01*
X163199999Y-82644750D01*
X163056291Y-82663670D01*
X163056287Y-82663671D01*
X162922377Y-82719137D01*
X162807372Y-82807384D01*
X162801628Y-82813129D01*
X162799111Y-82810612D01*
X162755817Y-82842203D01*
X162713908Y-82849500D01*
X161188550Y-82849500D01*
X161163104Y-82846861D01*
X161154024Y-82844957D01*
X161154023Y-82844957D01*
X161154021Y-82844957D01*
X161121400Y-82849023D01*
X161113724Y-82849500D01*
X161110299Y-82849500D01*
X161105093Y-82850368D01*
X161090039Y-82852879D01*
X161087510Y-82853247D01*
X161037947Y-82859426D01*
X161030909Y-82861521D01*
X161023956Y-82863908D01*
X160980026Y-82887682D01*
X160977750Y-82888853D01*
X160932852Y-82910803D01*
X160926905Y-82915048D01*
X160921078Y-82919584D01*
X160887252Y-82956329D01*
X160885478Y-82958177D01*
X159130476Y-84713181D01*
X159069153Y-84746666D01*
X159042795Y-84749500D01*
X158896544Y-84749500D01*
X158829505Y-84729815D01*
X158808863Y-84713181D01*
X158643866Y-84548184D01*
X158610381Y-84486861D01*
X158607547Y-84460503D01*
X158607547Y-84348276D01*
X158627232Y-84281237D01*
X158680036Y-84235482D01*
X158749194Y-84225538D01*
X158766481Y-84229299D01*
X158879036Y-84262347D01*
X158879038Y-84262348D01*
X158879039Y-84262348D01*
X159022962Y-84262348D01*
X159022962Y-84262347D01*
X159161053Y-84221801D01*
X159282128Y-84143991D01*
X159376377Y-84035221D01*
X159436165Y-83904305D01*
X159456647Y-83761848D01*
X159436165Y-83619391D01*
X159434903Y-83610613D01*
X159437092Y-83610298D01*
X159437084Y-83552688D01*
X159474849Y-83493904D01*
X159504561Y-83474808D01*
X159510044Y-83472303D01*
X159510053Y-83472301D01*
X159631128Y-83394491D01*
X159725377Y-83285721D01*
X159785165Y-83154805D01*
X159805647Y-83012348D01*
X159785165Y-82869891D01*
X159725377Y-82738975D01*
X159631128Y-82630205D01*
X159631125Y-82630203D01*
X159631126Y-82630203D01*
X159610157Y-82616727D01*
X159564404Y-82563922D01*
X159554461Y-82494764D01*
X159583488Y-82431208D01*
X159589503Y-82424746D01*
X159610899Y-82403351D01*
X159656422Y-82335223D01*
X159656423Y-82335220D01*
X159661097Y-82323938D01*
X159662542Y-82324536D01*
X159688476Y-82274952D01*
X159740884Y-82245103D01*
X159740606Y-82244430D01*
X159745964Y-82242210D01*
X159749189Y-82240374D01*
X159751738Y-82239818D01*
X159751889Y-82239756D01*
X159754866Y-82237767D01*
X159820017Y-82194235D01*
X159964453Y-82049797D01*
X160009976Y-81981669D01*
X160009976Y-81981666D01*
X160014650Y-81970385D01*
X160016096Y-81970983D01*
X160042033Y-81921396D01*
X160094439Y-81891550D01*
X160094160Y-81890876D01*
X160099525Y-81888653D01*
X160102747Y-81886819D01*
X160105290Y-81886265D01*
X160105444Y-81886202D01*
X160141044Y-81862415D01*
X160173570Y-81840682D01*
X160318006Y-81696244D01*
X160363529Y-81628116D01*
X160363529Y-81628113D01*
X160368203Y-81616832D01*
X160369649Y-81617430D01*
X160395586Y-81567843D01*
X160447992Y-81537997D01*
X160447713Y-81537323D01*
X160453078Y-81535100D01*
X160456300Y-81533266D01*
X160458843Y-81532712D01*
X160458997Y-81532649D01*
X160511902Y-81497299D01*
X160527123Y-81487129D01*
X160671559Y-81342691D01*
X160717082Y-81274563D01*
X160717083Y-81274560D01*
X160721757Y-81263278D01*
X160723202Y-81263876D01*
X160749136Y-81214292D01*
X160801544Y-81184443D01*
X160801266Y-81183770D01*
X160806624Y-81181550D01*
X160809849Y-81179714D01*
X160812398Y-81179158D01*
X160812549Y-81179096D01*
X160833880Y-81164843D01*
X160880677Y-81133575D01*
X161025113Y-80989137D01*
X161070636Y-80921009D01*
X161070636Y-80921006D01*
X161075310Y-80909725D01*
X161076756Y-80910323D01*
X161102693Y-80860736D01*
X161155099Y-80830890D01*
X161154820Y-80830216D01*
X161160185Y-80827993D01*
X161163407Y-80826159D01*
X161165950Y-80825605D01*
X161166104Y-80825542D01*
X161229843Y-80782953D01*
X161234230Y-80780022D01*
X161378666Y-80635584D01*
X161424189Y-80567456D01*
X161424189Y-80567453D01*
X161428863Y-80556172D01*
X161430309Y-80556770D01*
X161456246Y-80507183D01*
X161508652Y-80477337D01*
X161508373Y-80476663D01*
X161513738Y-80474440D01*
X161516960Y-80472606D01*
X161519503Y-80472052D01*
X161519657Y-80471989D01*
X161582775Y-80429815D01*
X161587783Y-80426469D01*
X161732219Y-80282031D01*
X161777742Y-80213903D01*
X161777743Y-80213901D01*
X161799124Y-80106411D01*
X161799124Y-80106406D01*
X161777743Y-79998916D01*
X161776995Y-79997797D01*
X161732221Y-79930787D01*
X161732219Y-79930784D01*
X161732218Y-79930783D01*
X160965103Y-79163670D01*
X160047614Y-78246180D01*
X160031488Y-78226323D01*
X160026414Y-78218556D01*
X160000464Y-78198358D01*
X159994718Y-78193284D01*
X159992284Y-78190850D01*
X159977433Y-78180247D01*
X159975586Y-78178928D01*
X159973532Y-78177396D01*
X159939527Y-78150930D01*
X159934103Y-78146708D01*
X159934101Y-78146707D01*
X159927625Y-78143202D01*
X159921043Y-78139984D01*
X159873159Y-78125728D01*
X159870720Y-78124947D01*
X159823461Y-78108723D01*
X159816246Y-78107519D01*
X159808930Y-78106607D01*
X159760116Y-78108626D01*
X159759026Y-78108672D01*
X159756466Y-78108725D01*
X159654043Y-78108725D01*
X159587004Y-78089040D01*
X159566362Y-78072406D01*
X157836819Y-76342862D01*
X157803334Y-76281539D01*
X157800500Y-76255181D01*
X157800500Y-75858872D01*
X157820185Y-75791833D01*
X157833269Y-75774891D01*
X157843725Y-75763532D01*
X157862043Y-75743632D01*
X157863795Y-75741808D01*
X158218788Y-75386818D01*
X158280112Y-75353334D01*
X158306469Y-75350500D01*
X159300789Y-75350500D01*
X159326234Y-75353138D01*
X159335315Y-75355043D01*
X159351005Y-75353087D01*
X159367939Y-75350977D01*
X159375615Y-75350500D01*
X159379035Y-75350500D01*
X159379040Y-75350500D01*
X159388303Y-75348954D01*
X159399278Y-75347123D01*
X159401811Y-75346753D01*
X159451393Y-75340573D01*
X159451399Y-75340569D01*
X159458451Y-75338470D01*
X159464096Y-75336533D01*
X159465439Y-75336472D01*
X159472056Y-75334959D01*
X159476144Y-75334299D01*
X159476415Y-75335977D01*
X159533895Y-75333388D01*
X159594314Y-75368478D01*
X159618912Y-75406365D01*
X159669138Y-75527623D01*
X159669139Y-75527625D01*
X159757380Y-75642623D01*
X159763126Y-75648369D01*
X159760574Y-75650920D01*
X159792091Y-75693873D01*
X159799500Y-75736092D01*
X159799500Y-76543276D01*
X159779815Y-76610315D01*
X159727011Y-76656070D01*
X159717912Y-76659797D01*
X159687749Y-76670775D01*
X159687747Y-76670776D01*
X159648076Y-76701217D01*
X159648067Y-76701225D01*
X159351228Y-76998065D01*
X159351220Y-76998074D01*
X159320779Y-77037743D01*
X159320775Y-77037750D01*
X159279708Y-77150584D01*
X159279708Y-77150585D01*
X159279708Y-77270663D01*
X159320777Y-77383501D01*
X159333437Y-77400000D01*
X159351220Y-77423175D01*
X159351228Y-77423184D01*
X159605640Y-77677595D01*
X159605649Y-77677603D01*
X159622088Y-77690217D01*
X159645321Y-77708045D01*
X159758159Y-77749114D01*
X159758161Y-77749114D01*
X159878236Y-77749114D01*
X159878237Y-77749114D01*
X159878237Y-77749113D01*
X159888920Y-77747230D01*
X159889364Y-77749750D01*
X159943479Y-77746302D01*
X160003863Y-77779579D01*
X161452143Y-79227860D01*
X161452164Y-79227879D01*
X161943646Y-79719360D01*
X162002441Y-79758647D01*
X162011773Y-79764883D01*
X162011774Y-79764884D01*
X162119266Y-79786265D01*
X162119268Y-79786265D01*
X162119270Y-79786265D01*
X162199916Y-79770223D01*
X162226762Y-79764883D01*
X162294890Y-79719362D01*
X162439326Y-79574924D01*
X162484849Y-79506796D01*
X162484849Y-79506795D01*
X162489524Y-79495511D01*
X162490969Y-79496109D01*
X162516903Y-79446525D01*
X162569311Y-79416676D01*
X162569033Y-79416003D01*
X162574391Y-79413783D01*
X162577616Y-79411947D01*
X162580165Y-79411391D01*
X162580316Y-79411329D01*
X162630761Y-79377623D01*
X162648444Y-79365808D01*
X162792880Y-79221370D01*
X162838403Y-79153242D01*
X162838403Y-79153239D01*
X162843077Y-79141958D01*
X162844523Y-79142556D01*
X162870460Y-79092969D01*
X162922866Y-79063123D01*
X162922587Y-79062449D01*
X162927952Y-79060226D01*
X162931174Y-79058392D01*
X162933717Y-79057838D01*
X162933871Y-79057775D01*
X162981409Y-79026011D01*
X163001997Y-79012255D01*
X163146433Y-78867817D01*
X163191956Y-78799689D01*
X163191956Y-78799686D01*
X163196630Y-78788405D01*
X163198076Y-78789003D01*
X163224013Y-78739416D01*
X163276419Y-78709570D01*
X163276140Y-78708896D01*
X163281505Y-78706673D01*
X163284727Y-78704839D01*
X163287270Y-78704285D01*
X163287424Y-78704222D01*
X163343520Y-78666740D01*
X163355550Y-78658702D01*
X163499986Y-78514264D01*
X163545509Y-78446136D01*
X163545509Y-78446135D01*
X163545510Y-78446134D01*
X163566891Y-78338644D01*
X163566891Y-78338639D01*
X163545510Y-78231149D01*
X163537485Y-78219139D01*
X163499988Y-78163020D01*
X163499986Y-78163017D01*
X163499985Y-78163016D01*
X163044625Y-77707658D01*
X163044623Y-77707655D01*
X162604005Y-77267037D01*
X162570520Y-77205714D01*
X162575504Y-77136022D01*
X162604003Y-77091677D01*
X164808862Y-74886818D01*
X164870186Y-74853333D01*
X164896544Y-74850499D01*
X165104456Y-74850499D01*
X165171495Y-74870184D01*
X165217250Y-74922988D01*
X165227194Y-74992146D01*
X165198169Y-75055702D01*
X165192136Y-75062181D01*
X165138340Y-75115976D01*
X165118492Y-75132096D01*
X165110717Y-75137176D01*
X165090529Y-75163112D01*
X165085453Y-75168862D01*
X165083020Y-75171295D01*
X165083010Y-75171308D01*
X165071081Y-75188015D01*
X165069550Y-75190067D01*
X165038869Y-75229486D01*
X165035361Y-75235967D01*
X165032147Y-75242545D01*
X165032146Y-75242547D01*
X165032146Y-75242548D01*
X165020871Y-75280418D01*
X165017892Y-75290423D01*
X165017111Y-75292860D01*
X165000885Y-75340126D01*
X164999680Y-75347347D01*
X164998768Y-75354660D01*
X165000833Y-75404562D01*
X165000886Y-75407124D01*
X165000886Y-77738526D01*
X164998247Y-77763970D01*
X164996343Y-77773049D01*
X164996343Y-77773056D01*
X164999038Y-77794677D01*
X164987796Y-77863636D01*
X164963672Y-77897695D01*
X164698346Y-78163022D01*
X164652824Y-78231147D01*
X164652823Y-78231148D01*
X164631443Y-78338639D01*
X164631443Y-78338644D01*
X164652824Y-78446135D01*
X164652824Y-78446136D01*
X164698342Y-78514259D01*
X164698343Y-78514260D01*
X164698346Y-78514264D01*
X164810776Y-78626692D01*
X164842784Y-78658700D01*
X164842786Y-78658702D01*
X164910911Y-78704223D01*
X164910913Y-78704224D01*
X165018404Y-78725605D01*
X165018406Y-78725605D01*
X165018408Y-78725605D01*
X165125898Y-78704224D01*
X165125898Y-78704223D01*
X165125901Y-78704223D01*
X165194028Y-78658702D01*
X165696141Y-78156586D01*
X165699868Y-78153156D01*
X165731507Y-78126360D01*
X165731508Y-78126357D01*
X165731510Y-78126356D01*
X165732786Y-78124850D01*
X165750010Y-78102717D01*
X166222348Y-77630380D01*
X166267871Y-77562253D01*
X166267871Y-77562251D01*
X166267872Y-77562251D01*
X166289253Y-77454760D01*
X166289253Y-77454755D01*
X166267871Y-77347264D01*
X166267871Y-77347263D01*
X166222353Y-77279140D01*
X166222352Y-77279139D01*
X166222350Y-77279136D01*
X166077912Y-77134700D01*
X166077911Y-77134699D01*
X166077909Y-77134697D01*
X166009784Y-77089176D01*
X166009782Y-77089175D01*
X165902292Y-77067795D01*
X165902290Y-77067795D01*
X165850076Y-77078180D01*
X165780485Y-77071953D01*
X165725308Y-77029089D01*
X165702064Y-76963199D01*
X165701886Y-76956563D01*
X165701886Y-75595157D01*
X165721571Y-75528118D01*
X165738205Y-75507476D01*
X166358863Y-74886818D01*
X166420186Y-74853333D01*
X166446544Y-74850499D01*
X166806517Y-74850499D01*
X166806518Y-74850499D01*
X166900304Y-74835646D01*
X167013342Y-74778050D01*
X167103050Y-74688342D01*
X167160646Y-74575304D01*
X167160646Y-74575302D01*
X167160647Y-74575301D01*
X167173267Y-74495615D01*
X167175500Y-74481519D01*
X167175499Y-74125404D01*
X167195183Y-74058366D01*
X167247987Y-74012611D01*
X167317146Y-74002667D01*
X167366516Y-74021075D01*
G37*
%TD.AperFunction*%
%TA.AperFunction,Conductor*%
G36*
X155204736Y-73757957D02*
G01*
X155243092Y-73790976D01*
X155271718Y-73828282D01*
X155397159Y-73924536D01*
X155543238Y-73985044D01*
X155564218Y-73987806D01*
X155699999Y-74005682D01*
X155700000Y-74005682D01*
X155700001Y-74005682D01*
X155755776Y-73998339D01*
X155856762Y-73985044D01*
X156002841Y-73924536D01*
X156025659Y-73907026D01*
X156090825Y-73881832D01*
X156159270Y-73895869D01*
X156209261Y-73944682D01*
X156224926Y-74012773D01*
X156224764Y-74015117D01*
X156224500Y-74018476D01*
X156224500Y-74376504D01*
X156204815Y-74443543D01*
X156198347Y-74452674D01*
X156189140Y-74464501D01*
X156184066Y-74470249D01*
X156181634Y-74472681D01*
X156181624Y-74472694D01*
X156169695Y-74489401D01*
X156168164Y-74491453D01*
X156137483Y-74530872D01*
X156133975Y-74537353D01*
X156130761Y-74543931D01*
X156116506Y-74591809D01*
X156115725Y-74594246D01*
X156099499Y-74641512D01*
X156098294Y-74648733D01*
X156097382Y-74656046D01*
X156099447Y-74705948D01*
X156099500Y-74708510D01*
X156099500Y-76427498D01*
X156079815Y-76494537D01*
X156027011Y-76540292D01*
X155957853Y-76550236D01*
X155894297Y-76521211D01*
X155887820Y-76515181D01*
X155877994Y-76505355D01*
X155859590Y-76486951D01*
X155843468Y-76467098D01*
X155838394Y-76459331D01*
X155812444Y-76439133D01*
X155806698Y-76434059D01*
X155804264Y-76431625D01*
X155787566Y-76419703D01*
X155785512Y-76418171D01*
X155760232Y-76398496D01*
X155746083Y-76387483D01*
X155746081Y-76387482D01*
X155739605Y-76383977D01*
X155733023Y-76380759D01*
X155685139Y-76366503D01*
X155682700Y-76365722D01*
X155635441Y-76349498D01*
X155628226Y-76348294D01*
X155620910Y-76347382D01*
X155572096Y-76349401D01*
X155571006Y-76349447D01*
X155568446Y-76349500D01*
X150088551Y-76349500D01*
X150063105Y-76346861D01*
X150054025Y-76344957D01*
X150054024Y-76344957D01*
X150054022Y-76344957D01*
X150021401Y-76349023D01*
X150013725Y-76349500D01*
X150010299Y-76349500D01*
X149990072Y-76352875D01*
X149987539Y-76353244D01*
X149937950Y-76359425D01*
X149930886Y-76361528D01*
X149923958Y-76363907D01*
X149880018Y-76387685D01*
X149877742Y-76388856D01*
X149832855Y-76410801D01*
X149826903Y-76415049D01*
X149821078Y-76419583D01*
X149787252Y-76456329D01*
X149785478Y-76458177D01*
X149457522Y-76786133D01*
X149396199Y-76819618D01*
X149326507Y-76814634D01*
X149270574Y-76772762D01*
X149255280Y-76745904D01*
X149224161Y-76670776D01*
X149220554Y-76662068D01*
X149132314Y-76547072D01*
X149017318Y-76458832D01*
X149017317Y-76458831D01*
X149017315Y-76458830D01*
X148883405Y-76403364D01*
X148883403Y-76403363D01*
X148883402Y-76403363D01*
X148811547Y-76393903D01*
X148739694Y-76384443D01*
X148739692Y-76384443D01*
X148595984Y-76403363D01*
X148595980Y-76403364D01*
X148462070Y-76458830D01*
X148347072Y-76547072D01*
X148258830Y-76662070D01*
X148203364Y-76795980D01*
X148203363Y-76795984D01*
X148184443Y-76939693D01*
X148203252Y-77082562D01*
X148203363Y-77083401D01*
X148203364Y-77083405D01*
X148258830Y-77217315D01*
X148258831Y-77217317D01*
X148258832Y-77217318D01*
X148347072Y-77332314D01*
X148462068Y-77420554D01*
X148480532Y-77428202D01*
X148545904Y-77455280D01*
X148600308Y-77499121D01*
X148622373Y-77565415D01*
X148605094Y-77633114D01*
X148586133Y-77657522D01*
X147736955Y-78506700D01*
X147717106Y-78522821D01*
X147709331Y-78527901D01*
X147689143Y-78553837D01*
X147684067Y-78559587D01*
X147681634Y-78562020D01*
X147681624Y-78562033D01*
X147669695Y-78578740D01*
X147668164Y-78580792D01*
X147637483Y-78620211D01*
X147633975Y-78626692D01*
X147630761Y-78633270D01*
X147630760Y-78633272D01*
X147630760Y-78633273D01*
X147623510Y-78657625D01*
X147616506Y-78681148D01*
X147615725Y-78683585D01*
X147599499Y-78730851D01*
X147598294Y-78738072D01*
X147597382Y-78745385D01*
X147599447Y-78795287D01*
X147599500Y-78797849D01*
X147599500Y-79993963D01*
X147579815Y-80061002D01*
X147569214Y-80075164D01*
X147524625Y-80126623D01*
X147524622Y-80126628D01*
X147464834Y-80257543D01*
X147444353Y-80400000D01*
X147464834Y-80542456D01*
X147496654Y-80612131D01*
X147524623Y-80673373D01*
X147549212Y-80701751D01*
X147578238Y-80765304D01*
X147579500Y-80782953D01*
X147579500Y-84262332D01*
X147559815Y-84329371D01*
X147549214Y-84343533D01*
X147513004Y-84385321D01*
X147513001Y-84385327D01*
X147453213Y-84516242D01*
X147432732Y-84658699D01*
X147453213Y-84801155D01*
X147497292Y-84897673D01*
X147513002Y-84932072D01*
X147607251Y-85040842D01*
X147728326Y-85118652D01*
X147728329Y-85118653D01*
X147728328Y-85118653D01*
X147830903Y-85148771D01*
X147862174Y-85157953D01*
X147866415Y-85159198D01*
X147866417Y-85159199D01*
X147866418Y-85159199D01*
X148010339Y-85159199D01*
X148010340Y-85159199D01*
X148014580Y-85157953D01*
X148019002Y-85157953D01*
X148019119Y-85157937D01*
X148019121Y-85157953D01*
X148084448Y-85157950D01*
X148143228Y-85195721D01*
X148162314Y-85225417D01*
X148201996Y-85312308D01*
X148208460Y-85326461D01*
X148302709Y-85435231D01*
X148423784Y-85513041D01*
X148423787Y-85513042D01*
X148423786Y-85513042D01*
X148507129Y-85537513D01*
X148558143Y-85552492D01*
X148561873Y-85553587D01*
X148561875Y-85553588D01*
X148561876Y-85553588D01*
X148705799Y-85553588D01*
X148705799Y-85553587D01*
X148843887Y-85513042D01*
X148843888Y-85513042D01*
X148850729Y-85508646D01*
X148864184Y-85499999D01*
X148905773Y-85473272D01*
X148972811Y-85453588D01*
X149396947Y-85453588D01*
X149396949Y-85453588D01*
X149418017Y-85446742D01*
X149436933Y-85442200D01*
X149458820Y-85438734D01*
X149478560Y-85428674D01*
X149496527Y-85421232D01*
X149517606Y-85414384D01*
X149535542Y-85401351D01*
X149552104Y-85391202D01*
X149571858Y-85381138D01*
X149587350Y-85365645D01*
X149587357Y-85365640D01*
X149704135Y-85248862D01*
X150032756Y-84920240D01*
X150032755Y-84920240D01*
X150055323Y-84897673D01*
X150055324Y-84897670D01*
X150059587Y-84893408D01*
X150063665Y-84881299D01*
X150065374Y-84877944D01*
X150075544Y-84861345D01*
X150088569Y-84843421D01*
X150095413Y-84822353D01*
X150102859Y-84804376D01*
X150112919Y-84784635D01*
X150115658Y-84767337D01*
X150145583Y-84704204D01*
X150204893Y-84667270D01*
X150274755Y-84668264D01*
X150285584Y-84672171D01*
X150333564Y-84692045D01*
X150460553Y-84708763D01*
X150477272Y-84710965D01*
X150477273Y-84710965D01*
X150477274Y-84710965D01*
X150492250Y-84708993D01*
X150620982Y-84692045D01*
X150754898Y-84636576D01*
X150869894Y-84548336D01*
X150958134Y-84433340D01*
X151013603Y-84299424D01*
X151025339Y-84210277D01*
X151053604Y-84146383D01*
X151060584Y-84138795D01*
X151507373Y-83692007D01*
X151507373Y-83692006D01*
X151529940Y-83669440D01*
X151539997Y-83649699D01*
X151550161Y-83633112D01*
X151563186Y-83615188D01*
X151570030Y-83594120D01*
X151577475Y-83576145D01*
X151587536Y-83556402D01*
X151587536Y-83556399D01*
X151589191Y-83553152D01*
X151637166Y-83502356D01*
X151704987Y-83485561D01*
X151771122Y-83508098D01*
X151802777Y-83540555D01*
X151805448Y-83544552D01*
X151805449Y-83544553D01*
X151871769Y-83588867D01*
X151871770Y-83588868D01*
X151930247Y-83600499D01*
X151930250Y-83600500D01*
X152853456Y-83600500D01*
X152920495Y-83620185D01*
X152941137Y-83636819D01*
X153164567Y-83860249D01*
X153198052Y-83921572D01*
X153200886Y-83947930D01*
X153200886Y-85471950D01*
X153198247Y-85497394D01*
X153196343Y-85506473D01*
X153196343Y-85506479D01*
X153200409Y-85539099D01*
X153200886Y-85546776D01*
X153200886Y-85550202D01*
X153201971Y-85556703D01*
X153204262Y-85570438D01*
X153204631Y-85572970D01*
X153210813Y-85622555D01*
X153212906Y-85629588D01*
X153215293Y-85636541D01*
X153215294Y-85636543D01*
X153219172Y-85643708D01*
X153239077Y-85680492D01*
X153240250Y-85682770D01*
X153262188Y-85727646D01*
X153262190Y-85727648D01*
X153266457Y-85733626D01*
X153270968Y-85739421D01*
X153307727Y-85773260D01*
X153309576Y-85775034D01*
X155509525Y-87974983D01*
X155543010Y-88036306D01*
X155538026Y-88105998D01*
X155497333Y-88161038D01*
X155486541Y-88169319D01*
X155169320Y-88486540D01*
X155169316Y-88486544D01*
X155169315Y-88486546D01*
X155169135Y-88486781D01*
X155153088Y-88507692D01*
X155096657Y-88548892D01*
X155026911Y-88553042D01*
X154967035Y-88519881D01*
X152937197Y-86490043D01*
X152921071Y-86470186D01*
X152915997Y-86462419D01*
X152890047Y-86442221D01*
X152884301Y-86437147D01*
X152881867Y-86434713D01*
X152865169Y-86422791D01*
X152863115Y-86421259D01*
X152832904Y-86397746D01*
X152823686Y-86390571D01*
X152823684Y-86390570D01*
X152817208Y-86387065D01*
X152810626Y-86383847D01*
X152762742Y-86369591D01*
X152760303Y-86368810D01*
X152713044Y-86352586D01*
X152705829Y-86351382D01*
X152698513Y-86350470D01*
X152649699Y-86352489D01*
X152648609Y-86352535D01*
X152646049Y-86352588D01*
X147388472Y-86352588D01*
X147321433Y-86332903D01*
X147300791Y-86316269D01*
X145961819Y-84977297D01*
X145928334Y-84915974D01*
X145925500Y-84889616D01*
X145925500Y-77521544D01*
X145945185Y-77454505D01*
X145961819Y-77433863D01*
X147165867Y-76229815D01*
X148407821Y-74987860D01*
X148469142Y-74954377D01*
X148538834Y-74959361D01*
X148594767Y-75001233D01*
X148619184Y-75066697D01*
X148619500Y-75075543D01*
X148619500Y-75294752D01*
X148631131Y-75353229D01*
X148631132Y-75353230D01*
X148675447Y-75419552D01*
X148741769Y-75463867D01*
X148741770Y-75463868D01*
X148800247Y-75475499D01*
X148800250Y-75475500D01*
X148800252Y-75475500D01*
X149839750Y-75475500D01*
X149839751Y-75475499D01*
X149854568Y-75472552D01*
X149898229Y-75463868D01*
X149898229Y-75463867D01*
X149898231Y-75463867D01*
X149964552Y-75419552D01*
X150008867Y-75353231D01*
X150008867Y-75353229D01*
X150008868Y-75353229D01*
X150020499Y-75294752D01*
X150020500Y-75294750D01*
X150020500Y-74775000D01*
X150020500Y-74255252D01*
X150013844Y-74221790D01*
X150020071Y-74152199D01*
X150062933Y-74097021D01*
X150128822Y-74073776D01*
X150193087Y-74087802D01*
X150303284Y-74145638D01*
X150339775Y-74164790D01*
X150504944Y-74205500D01*
X150675056Y-74205500D01*
X150840225Y-74164790D01*
X150928382Y-74118521D01*
X150990849Y-74085736D01*
X150990850Y-74085734D01*
X150990852Y-74085734D01*
X151118183Y-73972929D01*
X151122950Y-73966021D01*
X151177230Y-73922033D01*
X151246678Y-73914372D01*
X151309244Y-73945473D01*
X151327046Y-73966017D01*
X151331817Y-73972929D01*
X151331819Y-73972931D01*
X151331820Y-73972932D01*
X151415634Y-74047185D01*
X151452761Y-74106374D01*
X151451993Y-74176240D01*
X151415634Y-74232815D01*
X151331818Y-74307069D01*
X151235182Y-74447068D01*
X151174860Y-74606125D01*
X151174859Y-74606130D01*
X151154355Y-74774999D01*
X151174859Y-74943869D01*
X151174860Y-74943874D01*
X151235182Y-75102931D01*
X151282380Y-75171308D01*
X151331817Y-75242929D01*
X151434953Y-75334299D01*
X151459150Y-75355736D01*
X151609773Y-75434789D01*
X151609775Y-75434790D01*
X151774944Y-75475500D01*
X151945056Y-75475500D01*
X152110225Y-75434790D01*
X152236571Y-75368478D01*
X152260849Y-75355736D01*
X152260850Y-75355734D01*
X152260852Y-75355734D01*
X152388183Y-75242929D01*
X152392950Y-75236021D01*
X152447230Y-75192033D01*
X152516678Y-75184372D01*
X152579244Y-75215473D01*
X152597046Y-75236017D01*
X152601817Y-75242929D01*
X152662639Y-75296812D01*
X152729150Y-75355736D01*
X152879773Y-75434789D01*
X152879775Y-75434790D01*
X153044944Y-75475500D01*
X153215056Y-75475500D01*
X153380225Y-75434790D01*
X153506571Y-75368478D01*
X153530849Y-75355736D01*
X153530850Y-75355734D01*
X153530852Y-75355734D01*
X153658183Y-75242929D01*
X153662950Y-75236021D01*
X153717230Y-75192033D01*
X153786678Y-75184372D01*
X153849244Y-75215473D01*
X153867046Y-75236017D01*
X153871817Y-75242929D01*
X153932639Y-75296812D01*
X153999150Y-75355736D01*
X154149773Y-75434789D01*
X154149775Y-75434790D01*
X154314944Y-75475500D01*
X154485056Y-75475500D01*
X154650225Y-75434790D01*
X154776571Y-75368478D01*
X154800849Y-75355736D01*
X154800850Y-75355734D01*
X154800852Y-75355734D01*
X154928183Y-75242929D01*
X155024818Y-75102930D01*
X155085140Y-74943872D01*
X155105645Y-74775000D01*
X155085140Y-74606128D01*
X155024818Y-74447070D01*
X155023730Y-74445494D01*
X154976109Y-74376504D01*
X154928183Y-74307071D01*
X154844363Y-74232813D01*
X154807238Y-74173626D01*
X154808006Y-74103761D01*
X154844363Y-74047186D01*
X154928183Y-73972929D01*
X155024818Y-73832930D01*
X155028775Y-73822494D01*
X155070948Y-73766794D01*
X155136545Y-73742734D01*
X155204736Y-73757957D01*
G37*
%TD.AperFunction*%
%TA.AperFunction,Conductor*%
G36*
X173127644Y-73075185D02*
G01*
X173173399Y-73127989D01*
X173183343Y-73197147D01*
X173176547Y-73223471D01*
X173114861Y-73386125D01*
X173114859Y-73386130D01*
X173094355Y-73555000D01*
X173114859Y-73723869D01*
X173114860Y-73723874D01*
X173174916Y-73882228D01*
X173175182Y-73882930D01*
X173237983Y-73973913D01*
X173259866Y-74040266D01*
X173242401Y-74107918D01*
X173204826Y-74147453D01*
X173155447Y-74180447D01*
X173111132Y-74246769D01*
X173111131Y-74246770D01*
X173099500Y-74305247D01*
X173099500Y-75344752D01*
X173111131Y-75403229D01*
X173111132Y-75403230D01*
X173155447Y-75469552D01*
X173221769Y-75513867D01*
X173221770Y-75513868D01*
X173280247Y-75525499D01*
X173280250Y-75525500D01*
X173280252Y-75525500D01*
X174319750Y-75525500D01*
X174319751Y-75525499D01*
X174334568Y-75522552D01*
X174378229Y-75513868D01*
X174378229Y-75513867D01*
X174378231Y-75513867D01*
X174444552Y-75469552D01*
X174488867Y-75403231D01*
X174488867Y-75403229D01*
X174488868Y-75403229D01*
X174499983Y-75347347D01*
X174500500Y-75344748D01*
X174500500Y-74305252D01*
X174493844Y-74271790D01*
X174500071Y-74202199D01*
X174542933Y-74147021D01*
X174608822Y-74123776D01*
X174673087Y-74137802D01*
X174803412Y-74206202D01*
X174819775Y-74214790D01*
X174984944Y-74255500D01*
X175155056Y-74255500D01*
X175320225Y-74214790D01*
X175415493Y-74164789D01*
X175470849Y-74135736D01*
X175470850Y-74135734D01*
X175470852Y-74135734D01*
X175598183Y-74022929D01*
X175602950Y-74016021D01*
X175657230Y-73972033D01*
X175726678Y-73964372D01*
X175789244Y-73995473D01*
X175807046Y-74016017D01*
X175811817Y-74022929D01*
X175811819Y-74022931D01*
X175811820Y-74022932D01*
X175895634Y-74097185D01*
X175932761Y-74156374D01*
X175931993Y-74226240D01*
X175895634Y-74282815D01*
X175811818Y-74357069D01*
X175715182Y-74497068D01*
X175654860Y-74656125D01*
X175654859Y-74656130D01*
X175634355Y-74824999D01*
X175654859Y-74993869D01*
X175654860Y-74993874D01*
X175715182Y-75152931D01*
X175771398Y-75234372D01*
X175811817Y-75292929D01*
X175882712Y-75355736D01*
X175939150Y-75405736D01*
X176089773Y-75484789D01*
X176089775Y-75484790D01*
X176254944Y-75525500D01*
X176425056Y-75525500D01*
X176590225Y-75484790D01*
X176683100Y-75436045D01*
X176740849Y-75405736D01*
X176740850Y-75405734D01*
X176740852Y-75405734D01*
X176868183Y-75292929D01*
X176872950Y-75286021D01*
X176927230Y-75242033D01*
X176996678Y-75234372D01*
X177059244Y-75265473D01*
X177077046Y-75286017D01*
X177081817Y-75292929D01*
X177152712Y-75355736D01*
X177209150Y-75405736D01*
X177359773Y-75484789D01*
X177359775Y-75484790D01*
X177524944Y-75525500D01*
X177695056Y-75525500D01*
X177860225Y-75484790D01*
X177953100Y-75436045D01*
X178010849Y-75405736D01*
X178010850Y-75405734D01*
X178010852Y-75405734D01*
X178138183Y-75292929D01*
X178142950Y-75286021D01*
X178197230Y-75242033D01*
X178266678Y-75234372D01*
X178329244Y-75265473D01*
X178347046Y-75286017D01*
X178351817Y-75292929D01*
X178422712Y-75355736D01*
X178479150Y-75405736D01*
X178629773Y-75484789D01*
X178629775Y-75484790D01*
X178794944Y-75525500D01*
X178965056Y-75525500D01*
X179130225Y-75484790D01*
X179223100Y-75436045D01*
X179280849Y-75405736D01*
X179280850Y-75405734D01*
X179280852Y-75405734D01*
X179408183Y-75292929D01*
X179504818Y-75152930D01*
X179565140Y-74993872D01*
X179585645Y-74825000D01*
X179565140Y-74656128D01*
X179565139Y-74656125D01*
X179564982Y-74654831D01*
X179576442Y-74585908D01*
X179623346Y-74534121D01*
X179690802Y-74515914D01*
X179757392Y-74537066D01*
X179775759Y-74552203D01*
X182388180Y-77164624D01*
X182421665Y-77225947D01*
X182424499Y-77252305D01*
X182424499Y-86528456D01*
X182404814Y-86595495D01*
X182388180Y-86616137D01*
X180900643Y-88103675D01*
X180839320Y-88137160D01*
X180812962Y-88139994D01*
X177659123Y-88139994D01*
X177592084Y-88120309D01*
X177571442Y-88103675D01*
X177217267Y-87749500D01*
X176854723Y-87386955D01*
X176838597Y-87367098D01*
X176833523Y-87359331D01*
X176807573Y-87339133D01*
X176801827Y-87334059D01*
X176799393Y-87331625D01*
X176782695Y-87319703D01*
X176780641Y-87318171D01*
X176750541Y-87294744D01*
X176741212Y-87287483D01*
X176741210Y-87287482D01*
X176734734Y-87283977D01*
X176728152Y-87280759D01*
X176680268Y-87266503D01*
X176677829Y-87265722D01*
X176630570Y-87249498D01*
X176623355Y-87248294D01*
X176616039Y-87247382D01*
X176567225Y-87249401D01*
X176566135Y-87249447D01*
X176563575Y-87249500D01*
X173974929Y-87249500D01*
X173907890Y-87229815D01*
X173862135Y-87177011D01*
X173852191Y-87107853D01*
X173881216Y-87044297D01*
X173934643Y-86982639D01*
X173994431Y-86851723D01*
X174014913Y-86709266D01*
X173994431Y-86566809D01*
X173992248Y-86562030D01*
X173973967Y-86521998D01*
X173964023Y-86452840D01*
X173993048Y-86389284D01*
X174023813Y-86366258D01*
X174022842Y-86364747D01*
X174030300Y-86359953D01*
X174030303Y-86359953D01*
X174151378Y-86282143D01*
X174245627Y-86173373D01*
X174305415Y-86042457D01*
X174325897Y-85900000D01*
X174320845Y-85864864D01*
X174330788Y-85795707D01*
X174376543Y-85742903D01*
X174443582Y-85723218D01*
X174499886Y-85736737D01*
X174502586Y-85738113D01*
X174519165Y-85748274D01*
X174537087Y-85761295D01*
X174537088Y-85761295D01*
X174537089Y-85761296D01*
X174558158Y-85768142D01*
X174576127Y-85775584D01*
X174595874Y-85785646D01*
X174617760Y-85789112D01*
X174636675Y-85793653D01*
X174657745Y-85800500D01*
X174689659Y-85800500D01*
X176982745Y-85800500D01*
X177049784Y-85820185D01*
X177070426Y-85836819D01*
X177419147Y-86185540D01*
X177450941Y-86243766D01*
X177451566Y-86243599D01*
X177452256Y-86246174D01*
X177452632Y-86246863D01*
X177452988Y-86248905D01*
X177453670Y-86251453D01*
X177509137Y-86385364D01*
X177509138Y-86385366D01*
X177509139Y-86385367D01*
X177597379Y-86500363D01*
X177712375Y-86588603D01*
X177712376Y-86588603D01*
X177712377Y-86588604D01*
X177735540Y-86598198D01*
X177846291Y-86644072D01*
X177973280Y-86660790D01*
X177989999Y-86662992D01*
X177990000Y-86662992D01*
X177990001Y-86662992D01*
X178004977Y-86661020D01*
X178133709Y-86644072D01*
X178226848Y-86605492D01*
X178296317Y-86598024D01*
X178358796Y-86629299D01*
X178385700Y-86665592D01*
X178400803Y-86696486D01*
X178405071Y-86702464D01*
X178409582Y-86708259D01*
X178446341Y-86742098D01*
X178448190Y-86743872D01*
X178563495Y-86859177D01*
X178596980Y-86920500D01*
X178598552Y-86929210D01*
X178614834Y-87042456D01*
X178664722Y-87151694D01*
X178674623Y-87173373D01*
X178768872Y-87282143D01*
X178889947Y-87359953D01*
X178889950Y-87359954D01*
X178889949Y-87359954D01*
X178981908Y-87386955D01*
X179021612Y-87398613D01*
X179028036Y-87400499D01*
X179028038Y-87400500D01*
X179028039Y-87400500D01*
X179171962Y-87400500D01*
X179171962Y-87400499D01*
X179310053Y-87359953D01*
X179431128Y-87282143D01*
X179525377Y-87173373D01*
X179585165Y-87042457D01*
X179605647Y-86900000D01*
X179585165Y-86757543D01*
X179525377Y-86626627D01*
X179431128Y-86517857D01*
X179310053Y-86440047D01*
X179310051Y-86440046D01*
X179310049Y-86440045D01*
X179310050Y-86440045D01*
X179171963Y-86399500D01*
X179171961Y-86399500D01*
X179164500Y-86399500D01*
X179097461Y-86379815D01*
X179051706Y-86327011D01*
X179040500Y-86275500D01*
X179040500Y-85384032D01*
X179060185Y-85316993D01*
X179112989Y-85271238D01*
X179172627Y-85260299D01*
X179175681Y-85260499D01*
X179175684Y-85260500D01*
X179175687Y-85260500D01*
X179624317Y-85260500D01*
X179640601Y-85258356D01*
X179673173Y-85254068D01*
X179780404Y-85204065D01*
X179864065Y-85120404D01*
X179914068Y-85013173D01*
X179920500Y-84964316D01*
X179920500Y-84615684D01*
X179914068Y-84566827D01*
X179864065Y-84459596D01*
X179780404Y-84375935D01*
X179673173Y-84325932D01*
X179673171Y-84325931D01*
X179673172Y-84325931D01*
X179624317Y-84319500D01*
X179624316Y-84319500D01*
X179175684Y-84319500D01*
X179175683Y-84319500D01*
X179126827Y-84325931D01*
X179117722Y-84328586D01*
X179117360Y-84327346D01*
X179057816Y-84336385D01*
X178994035Y-84307860D01*
X178955801Y-84249380D01*
X178950500Y-84213513D01*
X178950500Y-83986486D01*
X178970185Y-83919447D01*
X179022989Y-83873692D01*
X179092147Y-83863748D01*
X179124866Y-83873496D01*
X179126827Y-83874068D01*
X179175683Y-83880500D01*
X179175684Y-83880500D01*
X179624317Y-83880500D01*
X179640601Y-83878356D01*
X179673173Y-83874068D01*
X179780404Y-83824065D01*
X179864065Y-83740404D01*
X179914068Y-83633173D01*
X179920500Y-83584316D01*
X179920500Y-83235684D01*
X179914068Y-83186827D01*
X179864065Y-83079596D01*
X179780404Y-82995935D01*
X179673173Y-82945932D01*
X179673171Y-82945931D01*
X179673172Y-82945931D01*
X179624317Y-82939500D01*
X179624316Y-82939500D01*
X179175684Y-82939500D01*
X179175683Y-82939500D01*
X179126828Y-82945931D01*
X179019595Y-82995935D01*
X179002350Y-83013181D01*
X178941027Y-83046666D01*
X178914669Y-83049500D01*
X178774500Y-83049500D01*
X178707461Y-83029815D01*
X178661706Y-82977011D01*
X178650500Y-82925500D01*
X178650500Y-82680649D01*
X178670185Y-82613610D01*
X178686819Y-82592968D01*
X178931014Y-82348773D01*
X179152624Y-82127162D01*
X179213946Y-82093679D01*
X179283638Y-82098663D01*
X179307343Y-82110529D01*
X179400197Y-82170203D01*
X179400198Y-82170203D01*
X179400199Y-82170204D01*
X179506674Y-82201467D01*
X179515494Y-82204057D01*
X179538286Y-82210749D01*
X179538288Y-82210750D01*
X179538289Y-82210750D01*
X179682212Y-82210750D01*
X179682212Y-82210749D01*
X179817725Y-82170960D01*
X179820300Y-82170204D01*
X179820301Y-82170204D01*
X179845102Y-82154266D01*
X179849788Y-82151253D01*
X179916827Y-82131569D01*
X179983867Y-82151253D01*
X180029622Y-82204057D01*
X180048721Y-82245876D01*
X180050061Y-82248811D01*
X180144310Y-82357581D01*
X180265385Y-82435391D01*
X180265388Y-82435392D01*
X180265390Y-82435393D01*
X180273457Y-82439078D01*
X180272315Y-82441578D01*
X180319192Y-82471687D01*
X180348233Y-82535235D01*
X180349500Y-82552914D01*
X180349500Y-85788788D01*
X180346861Y-85814232D01*
X180344957Y-85823311D01*
X180344957Y-85823317D01*
X180349023Y-85855937D01*
X180349500Y-85863614D01*
X180349500Y-85867040D01*
X180351594Y-85879590D01*
X180352876Y-85887276D01*
X180353245Y-85889808D01*
X180359427Y-85939393D01*
X180361520Y-85946426D01*
X180363909Y-85953383D01*
X180379408Y-85982024D01*
X180391424Y-86029462D01*
X180393091Y-86029223D01*
X180414834Y-86180456D01*
X180448124Y-86253350D01*
X180474623Y-86311373D01*
X180568872Y-86420143D01*
X180689947Y-86497953D01*
X180689950Y-86497954D01*
X180689949Y-86497954D01*
X180828036Y-86538499D01*
X180828038Y-86538500D01*
X180828039Y-86538500D01*
X180971962Y-86538500D01*
X180971962Y-86538499D01*
X181110053Y-86497953D01*
X181231128Y-86420143D01*
X181325377Y-86311373D01*
X181385165Y-86180457D01*
X181405647Y-86038000D01*
X181385165Y-85895543D01*
X181325377Y-85764627D01*
X181231128Y-85655857D01*
X181231125Y-85655855D01*
X181231126Y-85655855D01*
X181107460Y-85576380D01*
X181061706Y-85523576D01*
X181050500Y-85472065D01*
X181050500Y-82249211D01*
X181053139Y-82223764D01*
X181055043Y-82214685D01*
X181052494Y-82194233D01*
X181050977Y-82182061D01*
X181050500Y-82174385D01*
X181050500Y-82170962D01*
X181050500Y-82170960D01*
X181047120Y-82150714D01*
X181046753Y-82148188D01*
X181042059Y-82110530D01*
X181040573Y-82098608D01*
X181040570Y-82098603D01*
X181038477Y-82091572D01*
X181036093Y-82084628D01*
X181036092Y-82084619D01*
X181012312Y-82040678D01*
X181011139Y-82038399D01*
X180989948Y-81995052D01*
X180978612Y-81958244D01*
X180960603Y-81832981D01*
X180900815Y-81702065D01*
X180900813Y-81702063D01*
X180900812Y-81702060D01*
X180806571Y-81593300D01*
X180806568Y-81593297D01*
X180806566Y-81593295D01*
X180777578Y-81574665D01*
X180760636Y-81561581D01*
X180755856Y-81557181D01*
X180755856Y-81557180D01*
X180719080Y-81523325D01*
X180717258Y-81521576D01*
X179134023Y-79938341D01*
X179117897Y-79918484D01*
X179112823Y-79910717D01*
X179086873Y-79890519D01*
X179081127Y-79885445D01*
X179078693Y-79883011D01*
X179061995Y-79871089D01*
X179059941Y-79869557D01*
X179026730Y-79843709D01*
X179020512Y-79838869D01*
X179020510Y-79838868D01*
X179014034Y-79835363D01*
X179007452Y-79832145D01*
X178959568Y-79817889D01*
X178957129Y-79817108D01*
X178909870Y-79800884D01*
X178902655Y-79799680D01*
X178895339Y-79798768D01*
X178846525Y-79800787D01*
X178845435Y-79800833D01*
X178842875Y-79800886D01*
X174447930Y-79800886D01*
X174380891Y-79781201D01*
X174360249Y-79764567D01*
X172785023Y-78189341D01*
X172768897Y-78169484D01*
X172763823Y-78161717D01*
X172737873Y-78141519D01*
X172732127Y-78136445D01*
X172729693Y-78134011D01*
X172712995Y-78122089D01*
X172710941Y-78120557D01*
X172685661Y-78100882D01*
X172671512Y-78089869D01*
X172671510Y-78089868D01*
X172665034Y-78086363D01*
X172658452Y-78083145D01*
X172610568Y-78068889D01*
X172608129Y-78068108D01*
X172560870Y-78051884D01*
X172553655Y-78050680D01*
X172546339Y-78049768D01*
X172497525Y-78051787D01*
X172496435Y-78051833D01*
X172493875Y-78051886D01*
X171049952Y-78051886D01*
X170982913Y-78032201D01*
X170937158Y-77979397D01*
X170927214Y-77910239D01*
X170956239Y-77846683D01*
X170962271Y-77840205D01*
X171815657Y-76986819D01*
X171876980Y-76953334D01*
X171903338Y-76950500D01*
X174813456Y-76950500D01*
X174880495Y-76970185D01*
X174901137Y-76986819D01*
X175273181Y-77358862D01*
X175306666Y-77420185D01*
X175309500Y-77446543D01*
X175309500Y-78610898D01*
X175306627Y-78631023D01*
X175307266Y-78631108D01*
X175299500Y-78690098D01*
X175299500Y-78733706D01*
X175291683Y-78777033D01*
X175285909Y-78792517D01*
X175285909Y-78792518D01*
X175285565Y-78797329D01*
X175280858Y-78823412D01*
X175279500Y-78828036D01*
X175279500Y-78879904D01*
X175279342Y-78884329D01*
X175275641Y-78936069D01*
X175275641Y-78936073D01*
X175276666Y-78940785D01*
X175279500Y-78967143D01*
X175279500Y-78971963D01*
X175294112Y-79021730D01*
X175295205Y-79026011D01*
X175296663Y-79032714D01*
X175299500Y-79059083D01*
X175299500Y-79109894D01*
X175299501Y-79109900D01*
X175306028Y-79159487D01*
X175306029Y-79159489D01*
X175306029Y-79159490D01*
X175345303Y-79243712D01*
X175356776Y-79268316D01*
X175441684Y-79353224D01*
X175550513Y-79403972D01*
X175600099Y-79410500D01*
X175959900Y-79410499D01*
X176009487Y-79403972D01*
X176009490Y-79403970D01*
X176018892Y-79402733D01*
X176018976Y-79403372D01*
X176039100Y-79400500D01*
X177337948Y-79400500D01*
X177392407Y-79413098D01*
X177448607Y-79440573D01*
X177482673Y-79445536D01*
X177516739Y-79450500D01*
X177516740Y-79450500D01*
X177883261Y-79450500D01*
X177910542Y-79446525D01*
X177951393Y-79440573D01*
X178056483Y-79389198D01*
X178139198Y-79306483D01*
X178190573Y-79201393D01*
X178200500Y-79133260D01*
X178200500Y-78666740D01*
X178200500Y-77998973D01*
X178220185Y-77931934D01*
X178272092Y-77886593D01*
X178320404Y-77864065D01*
X178404065Y-77780404D01*
X178404065Y-77780403D01*
X178411736Y-77772733D01*
X178414564Y-77775561D01*
X178452977Y-77744843D01*
X178522474Y-77737635D01*
X178584835Y-77769143D01*
X178588093Y-77772903D01*
X178588264Y-77772733D01*
X178595935Y-77780404D01*
X178679596Y-77864065D01*
X178786827Y-77914068D01*
X178835683Y-77920500D01*
X178835684Y-77920500D01*
X179184317Y-77920500D01*
X179200601Y-77918356D01*
X179233173Y-77914068D01*
X179237355Y-77912117D01*
X179289759Y-77900500D01*
X179645124Y-77900500D01*
X179692573Y-77909937D01*
X179754141Y-77935439D01*
X179808543Y-77979277D01*
X179830609Y-78045570D01*
X179813331Y-78113270D01*
X179762195Y-78160882D01*
X179754141Y-78164560D01*
X179622374Y-78219139D01*
X179622370Y-78219141D01*
X179616199Y-78223877D01*
X179551030Y-78249070D01*
X179540715Y-78249500D01*
X179328783Y-78249500D01*
X179321844Y-78249110D01*
X179308630Y-78247621D01*
X179282965Y-78244729D01*
X179225644Y-78255573D01*
X179223362Y-78255961D01*
X179165715Y-78264651D01*
X179157556Y-78267167D01*
X179149529Y-78269976D01*
X179097940Y-78297241D01*
X179095872Y-78298284D01*
X179043355Y-78323576D01*
X179036925Y-78327960D01*
X178970444Y-78349454D01*
X178967083Y-78349500D01*
X178916739Y-78349500D01*
X178848608Y-78359426D01*
X178743514Y-78410803D01*
X178660803Y-78493514D01*
X178609426Y-78598608D01*
X178599500Y-78666739D01*
X178599500Y-79133260D01*
X178609426Y-79201391D01*
X178660803Y-79306485D01*
X178743514Y-79389196D01*
X178743515Y-79389196D01*
X178743517Y-79389198D01*
X178848607Y-79440573D01*
X178882673Y-79445536D01*
X178916739Y-79450500D01*
X178916740Y-79450500D01*
X179283261Y-79450500D01*
X179310542Y-79446525D01*
X179351393Y-79440573D01*
X179456483Y-79389198D01*
X179539198Y-79306483D01*
X179553092Y-79278061D01*
X179600217Y-79226481D01*
X179667751Y-79208565D01*
X179711942Y-79217960D01*
X179756291Y-79236330D01*
X179883280Y-79253048D01*
X179899999Y-79255250D01*
X179900000Y-79255250D01*
X179900001Y-79255250D01*
X179914977Y-79253278D01*
X180043709Y-79236330D01*
X180043717Y-79236326D01*
X180051560Y-79234226D01*
X180051979Y-79235791D01*
X180112024Y-79229330D01*
X180174507Y-79260597D01*
X180204583Y-79303909D01*
X180235116Y-79377622D01*
X180235117Y-79377625D01*
X180323357Y-79492621D01*
X180438353Y-79580861D01*
X180572269Y-79636330D01*
X180699258Y-79653048D01*
X180715977Y-79655250D01*
X180715978Y-79655250D01*
X180715979Y-79655250D01*
X180730955Y-79653278D01*
X180859687Y-79636330D01*
X180993603Y-79580861D01*
X181108599Y-79492621D01*
X181196839Y-79377625D01*
X181252308Y-79243709D01*
X181271228Y-79100000D01*
X181252308Y-78956291D01*
X181196839Y-78822375D01*
X181108599Y-78707379D01*
X180993603Y-78619139D01*
X180993602Y-78619138D01*
X180993600Y-78619137D01*
X180859690Y-78563671D01*
X180859688Y-78563670D01*
X180859687Y-78563670D01*
X180784999Y-78553837D01*
X180715979Y-78544750D01*
X180715977Y-78544750D01*
X180572264Y-78563670D01*
X180564414Y-78565774D01*
X180563995Y-78564212D01*
X180503923Y-78570663D01*
X180441448Y-78539380D01*
X180411394Y-78496088D01*
X180380862Y-78422378D01*
X180380861Y-78422375D01*
X180292621Y-78307379D01*
X180177625Y-78219139D01*
X180177624Y-78219138D01*
X180177622Y-78219137D01*
X180045860Y-78164561D01*
X179991456Y-78120721D01*
X179969391Y-78054427D01*
X179986670Y-77986727D01*
X180037807Y-77939116D01*
X180045860Y-77935439D01*
X180054322Y-77931934D01*
X180177625Y-77880861D01*
X180292621Y-77792621D01*
X180380861Y-77677625D01*
X180436330Y-77543709D01*
X180455250Y-77400000D01*
X180436330Y-77256291D01*
X180380861Y-77122375D01*
X180292621Y-77007379D01*
X180177625Y-76919139D01*
X180177624Y-76919138D01*
X180177622Y-76919137D01*
X180043712Y-76863671D01*
X180043710Y-76863670D01*
X180043709Y-76863670D01*
X179971854Y-76854210D01*
X179900001Y-76844750D01*
X179899999Y-76844750D01*
X179756293Y-76863669D01*
X179743582Y-76868934D01*
X179692572Y-76890062D01*
X179645124Y-76899500D01*
X179289759Y-76899500D01*
X179237355Y-76887882D01*
X179233173Y-76885932D01*
X179233171Y-76885931D01*
X179233172Y-76885931D01*
X179184317Y-76879500D01*
X179184316Y-76879500D01*
X178835684Y-76879500D01*
X178835683Y-76879500D01*
X178786828Y-76885931D01*
X178679595Y-76935935D01*
X178588264Y-77027267D01*
X178585440Y-77024443D01*
X178546958Y-77055183D01*
X178477458Y-77062352D01*
X178415114Y-77030808D01*
X178411901Y-77027101D01*
X178411736Y-77027267D01*
X178320404Y-76935935D01*
X178307432Y-76929886D01*
X178213173Y-76885932D01*
X178213171Y-76885931D01*
X178213172Y-76885931D01*
X178164317Y-76879500D01*
X178164316Y-76879500D01*
X177815684Y-76879500D01*
X177815683Y-76879500D01*
X177766828Y-76885931D01*
X177764222Y-76887146D01*
X177762644Y-76887882D01*
X177710241Y-76899500D01*
X176089759Y-76899500D01*
X176037355Y-76887882D01*
X176033173Y-76885932D01*
X176033171Y-76885931D01*
X176033172Y-76885931D01*
X175984317Y-76879500D01*
X175984316Y-76879500D01*
X175836544Y-76879500D01*
X175769505Y-76859815D01*
X175748863Y-76843181D01*
X175292637Y-76386955D01*
X175276511Y-76367098D01*
X175271437Y-76359331D01*
X175245487Y-76339133D01*
X175239741Y-76334059D01*
X175237307Y-76331625D01*
X175226510Y-76323916D01*
X175220609Y-76319703D01*
X175218555Y-76318171D01*
X175188523Y-76294797D01*
X175179126Y-76287483D01*
X175179124Y-76287482D01*
X175172648Y-76283977D01*
X175166066Y-76280759D01*
X175118182Y-76266503D01*
X175115743Y-76265722D01*
X175068484Y-76249498D01*
X175061269Y-76248294D01*
X175053953Y-76247382D01*
X175005139Y-76249401D01*
X175004049Y-76249447D01*
X175001489Y-76249500D01*
X171874500Y-76249500D01*
X171807461Y-76229815D01*
X171761706Y-76177011D01*
X171750500Y-76125500D01*
X171750500Y-74886057D01*
X171770185Y-74819018D01*
X171806903Y-74785800D01*
X171805443Y-74783790D01*
X171813336Y-74778054D01*
X171813337Y-74778052D01*
X171813342Y-74778050D01*
X171903050Y-74688342D01*
X171960646Y-74575304D01*
X171960646Y-74575302D01*
X171960647Y-74575301D01*
X171973267Y-74495615D01*
X171975500Y-74481519D01*
X171975499Y-74018482D01*
X171960646Y-73924696D01*
X171903050Y-73811658D01*
X171903046Y-73811654D01*
X171903045Y-73811652D01*
X171813347Y-73721954D01*
X171813344Y-73721952D01*
X171813342Y-73721950D01*
X171718984Y-73673872D01*
X171700301Y-73664352D01*
X171606524Y-73649500D01*
X171606519Y-73649500D01*
X171444728Y-73649500D01*
X171377689Y-73629815D01*
X171357047Y-73613181D01*
X171156046Y-73412180D01*
X171122561Y-73350857D01*
X171127545Y-73281165D01*
X171169417Y-73225232D01*
X171234881Y-73200815D01*
X171243725Y-73200499D01*
X171256566Y-73200499D01*
X171264667Y-73201030D01*
X171300000Y-73205682D01*
X171335333Y-73201030D01*
X171343434Y-73200499D01*
X171606517Y-73200499D01*
X171606518Y-73200499D01*
X171700304Y-73185646D01*
X171813342Y-73128050D01*
X171849572Y-73091820D01*
X171910894Y-73058334D01*
X171937254Y-73055500D01*
X173060605Y-73055500D01*
X173127644Y-73075185D01*
G37*
%TD.AperFunction*%
%TA.AperFunction,Conductor*%
G36*
X148485703Y-83538236D02*
G01*
X148516880Y-83579542D01*
X148535935Y-83620404D01*
X148619596Y-83704065D01*
X148726827Y-83754068D01*
X148775683Y-83760500D01*
X148775684Y-83760500D01*
X148909349Y-83760500D01*
X148976388Y-83780185D01*
X148997030Y-83796819D01*
X149070917Y-83870706D01*
X149083552Y-83885499D01*
X149091595Y-83896568D01*
X149096576Y-83903424D01*
X149114503Y-83916449D01*
X149129283Y-83929072D01*
X149290455Y-84090243D01*
X149323939Y-84151565D01*
X149326773Y-84177923D01*
X149326773Y-84442076D01*
X149307088Y-84509115D01*
X149290454Y-84529757D01*
X149203942Y-84616269D01*
X149142619Y-84649754D01*
X149116261Y-84652588D01*
X148972811Y-84652588D01*
X148905773Y-84632904D01*
X148843887Y-84593133D01*
X148705800Y-84552588D01*
X148705798Y-84552588D01*
X148561876Y-84552588D01*
X148561872Y-84552588D01*
X148557623Y-84553836D01*
X148553197Y-84553835D01*
X148553098Y-84553850D01*
X148553095Y-84553835D01*
X148487753Y-84553832D01*
X148428977Y-84516054D01*
X148409901Y-84486369D01*
X148403234Y-84471770D01*
X148363756Y-84385326D01*
X148332713Y-84349500D01*
X148310786Y-84324194D01*
X148281762Y-84260637D01*
X148280500Y-84242992D01*
X148280500Y-83631949D01*
X148300185Y-83564910D01*
X148352989Y-83519155D01*
X148422147Y-83509211D01*
X148485703Y-83538236D01*
G37*
%TD.AperFunction*%
%TA.AperFunction,Conductor*%
G36*
X148485703Y-82048236D02*
G01*
X148516880Y-82089542D01*
X148535935Y-82130404D01*
X148619596Y-82214065D01*
X148726827Y-82264068D01*
X148775683Y-82270500D01*
X148775684Y-82270500D01*
X148915200Y-82270500D01*
X148971496Y-82284016D01*
X148974692Y-82285644D01*
X148974696Y-82285646D01*
X148996585Y-82289112D01*
X149015501Y-82293653D01*
X149036567Y-82300499D01*
X149065924Y-82300499D01*
X149065948Y-82300500D01*
X149068481Y-82300500D01*
X149336567Y-82300500D01*
X149368481Y-82300500D01*
X149425500Y-82300500D01*
X149492539Y-82320185D01*
X149538294Y-82372989D01*
X149549500Y-82424500D01*
X149549500Y-82675500D01*
X149529815Y-82742539D01*
X149477011Y-82788294D01*
X149425500Y-82799500D01*
X149055948Y-82799500D01*
X149055924Y-82799501D01*
X149026564Y-82799501D01*
X149005499Y-82806346D01*
X148986582Y-82810887D01*
X148955059Y-82815880D01*
X148954986Y-82815419D01*
X148929218Y-82819500D01*
X148775683Y-82819500D01*
X148726828Y-82825931D01*
X148619595Y-82875935D01*
X148535935Y-82959595D01*
X148516882Y-83000455D01*
X148470709Y-83052894D01*
X148403515Y-83072046D01*
X148336634Y-83051830D01*
X148291300Y-82998664D01*
X148280500Y-82948050D01*
X148280500Y-82141949D01*
X148300185Y-82074910D01*
X148352989Y-82029155D01*
X148422147Y-82019211D01*
X148485703Y-82048236D01*
G37*
%TD.AperFunction*%
%TA.AperFunction,Conductor*%
G36*
X153479176Y-77070185D02*
G01*
X153524931Y-77122989D01*
X153534875Y-77192147D01*
X153515639Y-77236647D01*
X153518224Y-77238141D01*
X153517441Y-77239496D01*
X153510497Y-77248540D01*
X153509083Y-77251814D01*
X153507807Y-77253414D01*
X153507155Y-77252894D01*
X153497759Y-77265136D01*
X153258905Y-77503990D01*
X153206163Y-77535285D01*
X153189949Y-77540046D01*
X153189945Y-77540048D01*
X153068873Y-77617856D01*
X152974623Y-77726626D01*
X152974622Y-77726628D01*
X152914834Y-77857543D01*
X152894353Y-78000000D01*
X152914834Y-78142456D01*
X152966671Y-78255961D01*
X152974623Y-78273373D01*
X153068872Y-78382143D01*
X153189947Y-78459953D01*
X153189950Y-78459954D01*
X153189949Y-78459954D01*
X153328036Y-78500499D01*
X153328038Y-78500500D01*
X153328039Y-78500500D01*
X153471962Y-78500500D01*
X153471962Y-78500499D01*
X153610053Y-78459953D01*
X153731128Y-78382143D01*
X153825377Y-78273373D01*
X153867904Y-78180252D01*
X153893009Y-78144093D01*
X154020078Y-78017024D01*
X154081399Y-77983542D01*
X154107757Y-77980708D01*
X154528638Y-77980708D01*
X154595677Y-78000393D01*
X154616320Y-78017026D01*
X154748069Y-78148775D01*
X154748073Y-78148778D01*
X154748074Y-78148779D01*
X154787743Y-78179220D01*
X154787747Y-78179223D01*
X154900585Y-78220292D01*
X154900587Y-78220292D01*
X155020661Y-78220292D01*
X155020663Y-78220292D01*
X155133501Y-78179223D01*
X155137539Y-78176124D01*
X155202710Y-78150930D01*
X155213026Y-78150500D01*
X155773307Y-78150500D01*
X155840346Y-78170185D01*
X155860988Y-78186819D01*
X156890471Y-79216302D01*
X156923956Y-79277625D01*
X156918972Y-79347317D01*
X156890471Y-79391664D01*
X156045306Y-80236828D01*
X156045303Y-80236831D01*
X156012174Y-80286412D01*
X155996614Y-80364645D01*
X156012174Y-80442877D01*
X156045303Y-80492458D01*
X156780331Y-81227486D01*
X156780334Y-81227488D01*
X156780337Y-81227491D01*
X156829917Y-81260619D01*
X156829919Y-81260619D01*
X156832439Y-81262303D01*
X156877244Y-81315915D01*
X156885953Y-81385240D01*
X156855798Y-81448268D01*
X156851230Y-81453087D01*
X156653087Y-81651230D01*
X156591764Y-81684715D01*
X156522072Y-81679731D01*
X156466139Y-81637859D01*
X156462303Y-81632439D01*
X156460619Y-81629919D01*
X156460619Y-81629917D01*
X156427491Y-81580337D01*
X156427486Y-81580332D01*
X156427486Y-81580331D01*
X155692458Y-80845303D01*
X155642877Y-80812174D01*
X155564645Y-80796614D01*
X155486412Y-80812174D01*
X155462739Y-80827992D01*
X155396061Y-80848868D01*
X155328682Y-80830382D01*
X155306170Y-80812569D01*
X155187430Y-80693829D01*
X155153945Y-80632506D01*
X155158929Y-80562814D01*
X155172010Y-80537256D01*
X155179118Y-80526619D01*
X155187826Y-80513586D01*
X155203386Y-80435355D01*
X155187826Y-80357124D01*
X155184621Y-80352328D01*
X155154696Y-80307541D01*
X154419665Y-79572510D01*
X154370084Y-79539381D01*
X154291852Y-79523821D01*
X154213619Y-79539381D01*
X154164038Y-79572510D01*
X154164035Y-79572513D01*
X153631948Y-80104602D01*
X153570625Y-80138087D01*
X153544267Y-80140921D01*
X151860566Y-80140921D01*
X151793527Y-80121236D01*
X151772889Y-80104606D01*
X151638707Y-79970424D01*
X151605224Y-79909102D01*
X151602390Y-79882744D01*
X151602390Y-78546971D01*
X151602390Y-78546969D01*
X151595543Y-78525899D01*
X151591001Y-78506979D01*
X151589975Y-78500499D01*
X151587536Y-78485098D01*
X151577474Y-78465351D01*
X151570030Y-78447378D01*
X151569626Y-78446136D01*
X151563186Y-78426313D01*
X151560327Y-78422378D01*
X151550164Y-78408389D01*
X151540001Y-78391805D01*
X151537047Y-78386008D01*
X151533886Y-78379805D01*
X151521431Y-78339694D01*
X151507818Y-78236291D01*
X151478107Y-78164561D01*
X151452350Y-78102377D01*
X151452349Y-78102376D01*
X151452349Y-78102375D01*
X151364109Y-77987379D01*
X151249113Y-77899139D01*
X151249112Y-77899138D01*
X151249110Y-77899137D01*
X151115200Y-77843671D01*
X151115198Y-77843670D01*
X151115197Y-77843670D01*
X151043342Y-77834210D01*
X150971489Y-77824750D01*
X150971487Y-77824750D01*
X150827779Y-77843670D01*
X150827775Y-77843671D01*
X150693865Y-77899137D01*
X150578867Y-77987379D01*
X150490625Y-78102377D01*
X150435159Y-78236287D01*
X150435158Y-78236291D01*
X150418947Y-78359427D01*
X150416238Y-78380000D01*
X150434224Y-78516618D01*
X150435158Y-78523708D01*
X150435159Y-78523712D01*
X150490625Y-78657622D01*
X150490626Y-78657624D01*
X150490627Y-78657625D01*
X150578867Y-78772621D01*
X150693863Y-78860861D01*
X150724841Y-78873692D01*
X150779244Y-78917530D01*
X150801311Y-78983824D01*
X150801390Y-78988253D01*
X150801390Y-81375652D01*
X150781705Y-81442691D01*
X150728901Y-81488446D01*
X150675840Y-81497299D01*
X150675840Y-81499500D01*
X150244500Y-81499500D01*
X150177461Y-81479815D01*
X150131706Y-81427011D01*
X150120500Y-81375500D01*
X150120500Y-80028150D01*
X150120500Y-80028148D01*
X150113653Y-80007078D01*
X150109111Y-79988158D01*
X150107443Y-79977625D01*
X150105646Y-79966277D01*
X150095584Y-79946530D01*
X150088140Y-79928557D01*
X150081295Y-79907490D01*
X150068274Y-79889568D01*
X150058108Y-79872979D01*
X150056764Y-79870341D01*
X150048050Y-79853239D01*
X150027398Y-79832587D01*
X150027381Y-79832568D01*
X149832108Y-79637296D01*
X149798623Y-79575973D01*
X149797051Y-79567258D01*
X149792644Y-79536603D01*
X149780049Y-79509025D01*
X149755204Y-79454622D01*
X149732856Y-79405687D01*
X149638607Y-79296917D01*
X149517532Y-79219107D01*
X149517530Y-79219106D01*
X149517528Y-79219105D01*
X149517529Y-79219105D01*
X149379442Y-79178560D01*
X149379440Y-79178560D01*
X149235518Y-79178560D01*
X149235515Y-79178560D01*
X149097428Y-79219105D01*
X148976352Y-79296916D01*
X148976351Y-79296916D01*
X148976351Y-79296917D01*
X148970228Y-79303983D01*
X148882102Y-79405686D01*
X148882101Y-79405688D01*
X148822313Y-79536603D01*
X148801832Y-79679060D01*
X148822313Y-79821516D01*
X148866596Y-79918480D01*
X148882102Y-79952433D01*
X148976351Y-80061203D01*
X149097426Y-80139013D01*
X149097429Y-80139014D01*
X149097428Y-80139014D01*
X149213741Y-80173166D01*
X149266488Y-80204462D01*
X149283181Y-80221155D01*
X149316666Y-80282478D01*
X149319500Y-80308836D01*
X149319500Y-80919348D01*
X149299815Y-80986387D01*
X149283181Y-81007029D01*
X148997030Y-81293181D01*
X148935707Y-81326666D01*
X148909349Y-81329500D01*
X148775683Y-81329500D01*
X148726828Y-81335931D01*
X148619595Y-81385935D01*
X148535935Y-81469595D01*
X148516882Y-81510455D01*
X148470709Y-81562894D01*
X148403515Y-81582046D01*
X148336634Y-81561830D01*
X148291300Y-81508664D01*
X148280500Y-81458050D01*
X148280500Y-80829117D01*
X148300185Y-80762078D01*
X148310787Y-80747914D01*
X148375377Y-80673373D01*
X148435165Y-80542457D01*
X148455647Y-80400000D01*
X148435165Y-80257543D01*
X148375377Y-80126627D01*
X148370706Y-80121236D01*
X148330786Y-80075164D01*
X148301762Y-80011608D01*
X148300500Y-79993963D01*
X148300500Y-78985883D01*
X148320185Y-78918844D01*
X148336819Y-78898202D01*
X150148202Y-77086819D01*
X150209525Y-77053334D01*
X150235883Y-77050500D01*
X153412137Y-77050500D01*
X153479176Y-77070185D01*
G37*
%TD.AperFunction*%
%TD*%
%TA.AperFunction,Conductor*%
%TO.N,+BATT*%
G36*
X186592539Y-89219685D02*
G01*
X186638294Y-89272489D01*
X186649500Y-89324000D01*
X186649500Y-91876000D01*
X186629815Y-91943039D01*
X186577011Y-91988794D01*
X186525500Y-92000000D01*
X184024000Y-92000000D01*
X183956961Y-91980315D01*
X183911206Y-91927511D01*
X183900000Y-91876000D01*
X183900000Y-89324000D01*
X183919685Y-89256961D01*
X183972489Y-89211206D01*
X184024000Y-89200000D01*
X186525500Y-89200000D01*
X186592539Y-89219685D01*
G37*
%TD.AperFunction*%
%TD*%
%TA.AperFunction,Conductor*%
%TO.N,+BATT*%
G36*
X147876848Y-97435480D02*
G01*
X147943751Y-97455622D01*
X147989144Y-97508738D01*
X148000000Y-97559476D01*
X148000000Y-98200000D01*
X151176000Y-98200000D01*
X151243039Y-98219685D01*
X151288794Y-98272489D01*
X151300000Y-98324000D01*
X151300000Y-100876000D01*
X151280315Y-100943039D01*
X151227511Y-100988794D01*
X151176000Y-101000000D01*
X145724000Y-101000000D01*
X145656961Y-100980315D01*
X145611206Y-100927511D01*
X145600000Y-100876000D01*
X145600000Y-97544766D01*
X145619685Y-97477727D01*
X145672489Y-97431972D01*
X145724846Y-97420769D01*
X147876848Y-97435480D01*
G37*
%TD.AperFunction*%
%TD*%
%TA.AperFunction,Conductor*%
%TO.N,+3V3*%
G36*
X147217539Y-89019685D02*
G01*
X147263294Y-89072489D01*
X147274500Y-89124000D01*
X147274500Y-89254269D01*
X147277352Y-89284689D01*
X147277355Y-89284703D01*
X147293041Y-89329529D01*
X147300000Y-89370484D01*
X147300000Y-90429512D01*
X147293042Y-90470466D01*
X147277353Y-90515301D01*
X147274500Y-90545730D01*
X147274500Y-90676000D01*
X147254815Y-90743039D01*
X147202011Y-90788794D01*
X147150500Y-90800000D01*
X145777679Y-90800000D01*
X145710640Y-90780315D01*
X145690002Y-90763685D01*
X145536318Y-90610001D01*
X145502834Y-90548678D01*
X145500000Y-90522320D01*
X145500000Y-89124000D01*
X145519685Y-89056961D01*
X145572489Y-89011206D01*
X145624000Y-89000000D01*
X147150500Y-89000000D01*
X147217539Y-89019685D01*
G37*
%TD.AperFunction*%
%TD*%
%TA.AperFunction,Conductor*%
%TO.N,+5V*%
G36*
X154243039Y-91919685D02*
G01*
X154288794Y-91972489D01*
X154300000Y-92024000D01*
X154300000Y-93576000D01*
X154280315Y-93643039D01*
X154227511Y-93688794D01*
X154176000Y-93700000D01*
X152524500Y-93700000D01*
X152457461Y-93680315D01*
X152411706Y-93627511D01*
X152400500Y-93576000D01*
X152400500Y-92242324D01*
X152400499Y-92242307D01*
X152394230Y-92184006D01*
X152394230Y-92184003D01*
X152350715Y-92067333D01*
X152345731Y-91997641D01*
X152379216Y-91936318D01*
X152440539Y-91902834D01*
X152466897Y-91900000D01*
X154176000Y-91900000D01*
X154243039Y-91919685D01*
G37*
%TD.AperFunction*%
%TD*%
%TA.AperFunction,Conductor*%
%TO.N,+3V3*%
G36*
X176943039Y-94919685D02*
G01*
X176988794Y-94972489D01*
X177000000Y-95024000D01*
X177000000Y-95438744D01*
X176980315Y-95505783D01*
X176963681Y-95526425D01*
X176626426Y-95863681D01*
X176565103Y-95897166D01*
X176538745Y-95900000D01*
X176124500Y-95900000D01*
X176057461Y-95880315D01*
X176011706Y-95827511D01*
X176000500Y-95776000D01*
X176000500Y-95024000D01*
X176020185Y-94956961D01*
X176072989Y-94911206D01*
X176124500Y-94900000D01*
X176876000Y-94900000D01*
X176943039Y-94919685D01*
G37*
%TD.AperFunction*%
%TD*%
M02*
