M48
; DRILL file {KiCad 7.0.5} date Wed Jun 28 21:22:15 2023
; FORMAT={-:-/ absolute / inch / decimal}
; #@! TF.CreationDate,2023-06-28T21:22:15+09:00
; #@! TF.GenerationSoftware,Kicad,Pcbnew,7.0.5
; #@! TF.FileFunction,Plated,1,4,PTH
FMAT,2
INCH
; #@! TA.AperFunction,Plated,PTH,ViaDrill
T1C0.0118
; #@! TA.AperFunction,Plated,PTH,ViaDrill
T2C0.0157
; #@! TA.AperFunction,Plated,PTH,ComponentDrill
T3C0.0256
; #@! TA.AperFunction,Plated,PTH,ComponentDrill
T4C0.0335
%
G90
G05
T1
X5.8243Y-3.333
X5.8248Y-3.1654
X5.8517Y-3.3485
X5.8782Y-3.137
X6.0394Y-3.0709
X6.1772Y-2.8976
X6.189Y-3.5019
X6.2181Y-3.5216
X6.2579Y-3.2977
X6.2692Y-2.8918
X6.2717Y-3.2682
X6.2835Y-3.4001
X6.327Y-2.8948
X6.3555Y-3.7761
X6.3662Y-2.8976
X6.3701Y-3.6772
X6.3996Y-3.7706
X6.4291Y-2.8976
X6.4871Y-3.7564
X6.4921Y-2.8976
X6.526Y-3.1603
X6.5551Y-2.8976
X6.5583Y-3.7761
X6.5974Y-2.896
X6.6267Y-3.6646
X6.6425Y-3.385
X6.6521Y-2.8918
X6.6535Y-3.8307
X6.6705Y-3.6723
X6.6785Y-3.6399
X6.6791Y-3.7264
X6.685Y-3.8425
X6.7145Y-2.8914
X6.7342Y-3.1241
X6.752Y-3.5394
X6.7598Y-3.1497
X6.7708Y-3.3961
X6.8031Y-3.6142
X6.8278Y-3.5089
X6.8311Y-3.4138
X6.8425Y-3.64
X6.8433Y-3.3819
X6.8697Y-3.5004
X7.0236Y-3.7008
X7.0512Y-3.4213
X7.0591Y-3.7008
X7.0713Y-3.2169
X7.1024Y-3.7008
X7.1053Y-3.2274
X7.122Y-3.3873
T2
X5.5709Y-3.0512
X5.5709Y-3.0945
X5.5709Y-3.1339
X5.5709Y-3.1732
X5.5709Y-3.2126
X5.5709Y-3.252
X5.5709Y-3.2913
X5.5709Y-3.3307
X5.5709Y-3.3701
X5.6063Y-3.0512
X5.6063Y-3.0945
X5.6063Y-3.1339
X5.6457Y-3.0512
X5.6457Y-3.0945
X5.6457Y-3.1339
X5.7441Y-3.5197
X5.7441Y-3.5591
X5.748Y-3.8819
X5.748Y-3.9213
X5.748Y-3.9606
X5.7795Y-3.252
X5.7835Y-3.5197
X5.7835Y-3.5591
X5.7874Y-3.8819
X5.7874Y-3.9213
X5.7874Y-3.9606
X5.7903Y-3.3671
X5.8268Y-3.8819
X5.8268Y-3.9213
X5.8268Y-3.9606
X5.8559Y-3.0291
X5.9134Y-3.0551
X5.9134Y-3.6766
X5.9243Y-3.3132
X5.9438Y-3.0858
X5.9803Y-3.7717
X5.9843Y-3.0551
X6.0118Y-3.6693
X6.0354Y-3.6417
X6.0512Y-3.7992
X6.0591Y-3.6693
X6.1063Y-3.8543
X6.1299Y-2.8898
X6.1712Y-3.3598
X6.2579Y-3.0315
X6.3051Y-2.9626
X6.3543Y-3.3031
X6.3767Y-3.4202
X6.4252Y-3.2756
X6.4488Y-3.5984
X6.4488Y-3.1292
X6.5177Y-3.6836
X6.5197Y-3.5079
X6.5492Y-3.4705
X6.5678Y-2.9646
X6.6496Y-3.7008
X6.6535Y-3.0413
X6.7559Y-3.3661
X6.7913Y-3.1378
X6.8622Y-3.2323
X6.8822Y-3.8263
X6.9094Y-3.7992
X6.9173Y-2.8583
X6.9232Y-3.5689
X7.0075Y-3.3901
X7.0827Y-3.0472
X7.0827Y-3.0984
X7.1148Y-3.1142
X7.1462Y-3.4149
X7.1575Y-2.8622
X7.1575Y-2.8976
X7.1575Y-3.3189
X7.1929Y-2.8622
X7.1929Y-2.8976
X7.2441Y-3.7756
X7.2559Y-3.5276
X7.2559Y-3.5669
X7.2559Y-3.6063
X7.2835Y-3.7756
X7.2953Y-3.5276
X7.2953Y-3.5669
X7.2953Y-3.6063
X7.3228Y-3.7756
X7.3346Y-3.5276
X7.3346Y-3.5669
X7.3346Y-3.6063
X7.3622Y-3.7756
T3
X5.8787Y-2.8939
X5.8787Y-2.9439
X5.9287Y-2.8939
X5.9287Y-2.9439
X5.9787Y-2.8939
X5.9787Y-2.9439
X6.0287Y-2.8939
X6.0287Y-2.9439
X6.0787Y-2.8939
X6.0787Y-2.9439
X6.8425Y-2.8959
X6.8425Y-2.9459
X6.8925Y-2.8959
X6.8925Y-2.9459
X6.9425Y-2.8959
X6.9425Y-2.9459
X6.9925Y-2.8959
X6.9925Y-2.9459
X7.0425Y-2.8959
X7.0425Y-2.9459
T4
X5.6693Y-3.2087
X5.6693Y-3.3071
X5.6693Y-3.5394
X5.6693Y-3.6378
X7.2579Y-3.2087
X7.2579Y-3.3071
T0
M30
