%TF.GenerationSoftware,KiCad,Pcbnew,7.0.5*%
%TF.CreationDate,2023-06-28T21:22:15+09:00*%
%TF.ProjectId,robotrace_v2_main,726f626f-7472-4616-9365-5f76325f6d61,rev?*%
%TF.SameCoordinates,Original*%
%TF.FileFunction,Other,Comment*%
%FSLAX46Y46*%
G04 Gerber Fmt 4.6, Leading zero omitted, Abs format (unit mm)*
G04 Created by KiCad (PCBNEW 7.0.5) date 2023-06-28 21:22:15*
%MOMM*%
%LPD*%
G01*
G04 APERTURE LIST*
%ADD10C,0.150000*%
%ADD11C,0.002000*%
%ADD12C,0.254000*%
%ADD13C,0.100000*%
%ADD14C,0.200000*%
%ADD15C,0.400000*%
G04 APERTURE END LIST*
D10*
%TO.C,U7*%
X143380662Y-74666820D02*
X143475900Y-74666820D01*
X143475900Y-74666820D02*
X143571138Y-74714439D01*
X143571138Y-74714439D02*
X143618757Y-74762058D01*
X143618757Y-74762058D02*
X143666376Y-74857296D01*
X143666376Y-74857296D02*
X143713995Y-75047772D01*
X143713995Y-75047772D02*
X143713995Y-75285867D01*
X143713995Y-75285867D02*
X143666376Y-75476343D01*
X143666376Y-75476343D02*
X143618757Y-75571581D01*
X143618757Y-75571581D02*
X143571138Y-75619201D01*
X143571138Y-75619201D02*
X143475900Y-75666820D01*
X143475900Y-75666820D02*
X143380662Y-75666820D01*
X143380662Y-75666820D02*
X143285424Y-75619201D01*
X143285424Y-75619201D02*
X143237805Y-75571581D01*
X143237805Y-75571581D02*
X143190186Y-75476343D01*
X143190186Y-75476343D02*
X143142567Y-75285867D01*
X143142567Y-75285867D02*
X143142567Y-75047772D01*
X143142567Y-75047772D02*
X143190186Y-74857296D01*
X143190186Y-74857296D02*
X143237805Y-74762058D01*
X143237805Y-74762058D02*
X143285424Y-74714439D01*
X143285424Y-74714439D02*
X143380662Y-74666820D01*
X144142567Y-75571581D02*
X144190186Y-75619201D01*
X144190186Y-75619201D02*
X144142567Y-75666820D01*
X144142567Y-75666820D02*
X144094948Y-75619201D01*
X144094948Y-75619201D02*
X144142567Y-75571581D01*
X144142567Y-75571581D02*
X144142567Y-75666820D01*
X144809233Y-74666820D02*
X144904471Y-74666820D01*
X144904471Y-74666820D02*
X144999709Y-74714439D01*
X144999709Y-74714439D02*
X145047328Y-74762058D01*
X145047328Y-74762058D02*
X145094947Y-74857296D01*
X145094947Y-74857296D02*
X145142566Y-75047772D01*
X145142566Y-75047772D02*
X145142566Y-75285867D01*
X145142566Y-75285867D02*
X145094947Y-75476343D01*
X145094947Y-75476343D02*
X145047328Y-75571581D01*
X145047328Y-75571581D02*
X144999709Y-75619201D01*
X144999709Y-75619201D02*
X144904471Y-75666820D01*
X144904471Y-75666820D02*
X144809233Y-75666820D01*
X144809233Y-75666820D02*
X144713995Y-75619201D01*
X144713995Y-75619201D02*
X144666376Y-75571581D01*
X144666376Y-75571581D02*
X144618757Y-75476343D01*
X144618757Y-75476343D02*
X144571138Y-75285867D01*
X144571138Y-75285867D02*
X144571138Y-75047772D01*
X144571138Y-75047772D02*
X144618757Y-74857296D01*
X144618757Y-74857296D02*
X144666376Y-74762058D01*
X144666376Y-74762058D02*
X144713995Y-74714439D01*
X144713995Y-74714439D02*
X144809233Y-74666820D01*
X145475900Y-74666820D02*
X146142566Y-74666820D01*
X146142566Y-74666820D02*
X145713995Y-75666820D01*
X147047328Y-75666820D02*
X146475900Y-75666820D01*
X146761614Y-75666820D02*
X146761614Y-74666820D01*
X146761614Y-74666820D02*
X146666376Y-74809677D01*
X146666376Y-74809677D02*
X146571138Y-74904915D01*
X146571138Y-74904915D02*
X146475900Y-74952534D01*
X147475900Y-75666820D02*
X147475900Y-75000153D01*
X147475900Y-74666820D02*
X147428281Y-74714439D01*
X147428281Y-74714439D02*
X147475900Y-74762058D01*
X147475900Y-74762058D02*
X147523519Y-74714439D01*
X147523519Y-74714439D02*
X147475900Y-74666820D01*
X147475900Y-74666820D02*
X147475900Y-74762058D01*
X147952090Y-75000153D02*
X147952090Y-75666820D01*
X147952090Y-75095391D02*
X147999709Y-75047772D01*
X147999709Y-75047772D02*
X148094947Y-75000153D01*
X148094947Y-75000153D02*
X148237804Y-75000153D01*
X148237804Y-75000153D02*
X148333042Y-75047772D01*
X148333042Y-75047772D02*
X148380661Y-75143010D01*
X148380661Y-75143010D02*
X148380661Y-75666820D01*
X149571137Y-74619201D02*
X148713995Y-75904915D01*
X150428280Y-75666820D02*
X149856852Y-75666820D01*
X150142566Y-75666820D02*
X150142566Y-74666820D01*
X150142566Y-74666820D02*
X150047328Y-74809677D01*
X150047328Y-74809677D02*
X149952090Y-74904915D01*
X149952090Y-74904915D02*
X149856852Y-74952534D01*
X150856852Y-75571581D02*
X150904471Y-75619201D01*
X150904471Y-75619201D02*
X150856852Y-75666820D01*
X150856852Y-75666820D02*
X150809233Y-75619201D01*
X150809233Y-75619201D02*
X150856852Y-75571581D01*
X150856852Y-75571581D02*
X150856852Y-75666820D01*
X151475899Y-75095391D02*
X151380661Y-75047772D01*
X151380661Y-75047772D02*
X151333042Y-75000153D01*
X151333042Y-75000153D02*
X151285423Y-74904915D01*
X151285423Y-74904915D02*
X151285423Y-74857296D01*
X151285423Y-74857296D02*
X151333042Y-74762058D01*
X151333042Y-74762058D02*
X151380661Y-74714439D01*
X151380661Y-74714439D02*
X151475899Y-74666820D01*
X151475899Y-74666820D02*
X151666375Y-74666820D01*
X151666375Y-74666820D02*
X151761613Y-74714439D01*
X151761613Y-74714439D02*
X151809232Y-74762058D01*
X151809232Y-74762058D02*
X151856851Y-74857296D01*
X151856851Y-74857296D02*
X151856851Y-74904915D01*
X151856851Y-74904915D02*
X151809232Y-75000153D01*
X151809232Y-75000153D02*
X151761613Y-75047772D01*
X151761613Y-75047772D02*
X151666375Y-75095391D01*
X151666375Y-75095391D02*
X151475899Y-75095391D01*
X151475899Y-75095391D02*
X151380661Y-75143010D01*
X151380661Y-75143010D02*
X151333042Y-75190629D01*
X151333042Y-75190629D02*
X151285423Y-75285867D01*
X151285423Y-75285867D02*
X151285423Y-75476343D01*
X151285423Y-75476343D02*
X151333042Y-75571581D01*
X151333042Y-75571581D02*
X151380661Y-75619201D01*
X151380661Y-75619201D02*
X151475899Y-75666820D01*
X151475899Y-75666820D02*
X151666375Y-75666820D01*
X151666375Y-75666820D02*
X151761613Y-75619201D01*
X151761613Y-75619201D02*
X151809232Y-75571581D01*
X151809232Y-75571581D02*
X151856851Y-75476343D01*
X151856851Y-75476343D02*
X151856851Y-75285867D01*
X151856851Y-75285867D02*
X151809232Y-75190629D01*
X151809232Y-75190629D02*
X151761613Y-75143010D01*
X151761613Y-75143010D02*
X151666375Y-75095391D01*
X152285423Y-75666820D02*
X152285423Y-75000153D01*
X152285423Y-75095391D02*
X152333042Y-75047772D01*
X152333042Y-75047772D02*
X152428280Y-75000153D01*
X152428280Y-75000153D02*
X152571137Y-75000153D01*
X152571137Y-75000153D02*
X152666375Y-75047772D01*
X152666375Y-75047772D02*
X152713994Y-75143010D01*
X152713994Y-75143010D02*
X152713994Y-75666820D01*
X152713994Y-75143010D02*
X152761613Y-75047772D01*
X152761613Y-75047772D02*
X152856851Y-75000153D01*
X152856851Y-75000153D02*
X152999708Y-75000153D01*
X152999708Y-75000153D02*
X153094947Y-75047772D01*
X153094947Y-75047772D02*
X153142566Y-75143010D01*
X153142566Y-75143010D02*
X153142566Y-75666820D01*
X153618756Y-75666820D02*
X153618756Y-75000153D01*
X153618756Y-75095391D02*
X153666375Y-75047772D01*
X153666375Y-75047772D02*
X153761613Y-75000153D01*
X153761613Y-75000153D02*
X153904470Y-75000153D01*
X153904470Y-75000153D02*
X153999708Y-75047772D01*
X153999708Y-75047772D02*
X154047327Y-75143010D01*
X154047327Y-75143010D02*
X154047327Y-75666820D01*
X154047327Y-75143010D02*
X154094946Y-75047772D01*
X154094946Y-75047772D02*
X154190184Y-75000153D01*
X154190184Y-75000153D02*
X154333041Y-75000153D01*
X154333041Y-75000153D02*
X154428280Y-75047772D01*
X154428280Y-75047772D02*
X154475899Y-75143010D01*
X154475899Y-75143010D02*
X154475899Y-75666820D01*
X148204852Y-81804756D02*
X148300090Y-81804756D01*
X148300090Y-81804756D02*
X148395328Y-81852375D01*
X148395328Y-81852375D02*
X148442947Y-81899994D01*
X148442947Y-81899994D02*
X148490566Y-81995232D01*
X148490566Y-81995232D02*
X148538185Y-82185708D01*
X148538185Y-82185708D02*
X148538185Y-82423803D01*
X148538185Y-82423803D02*
X148490566Y-82614279D01*
X148490566Y-82614279D02*
X148442947Y-82709517D01*
X148442947Y-82709517D02*
X148395328Y-82757137D01*
X148395328Y-82757137D02*
X148300090Y-82804756D01*
X148300090Y-82804756D02*
X148204852Y-82804756D01*
X148204852Y-82804756D02*
X148109614Y-82757137D01*
X148109614Y-82757137D02*
X148061995Y-82709517D01*
X148061995Y-82709517D02*
X148014376Y-82614279D01*
X148014376Y-82614279D02*
X147966757Y-82423803D01*
X147966757Y-82423803D02*
X147966757Y-82185708D01*
X147966757Y-82185708D02*
X148014376Y-81995232D01*
X148014376Y-81995232D02*
X148061995Y-81899994D01*
X148061995Y-81899994D02*
X148109614Y-81852375D01*
X148109614Y-81852375D02*
X148204852Y-81804756D01*
X148966757Y-82709517D02*
X149014376Y-82757137D01*
X149014376Y-82757137D02*
X148966757Y-82804756D01*
X148966757Y-82804756D02*
X148919138Y-82757137D01*
X148919138Y-82757137D02*
X148966757Y-82709517D01*
X148966757Y-82709517D02*
X148966757Y-82804756D01*
X149633423Y-81804756D02*
X149728661Y-81804756D01*
X149728661Y-81804756D02*
X149823899Y-81852375D01*
X149823899Y-81852375D02*
X149871518Y-81899994D01*
X149871518Y-81899994D02*
X149919137Y-81995232D01*
X149919137Y-81995232D02*
X149966756Y-82185708D01*
X149966756Y-82185708D02*
X149966756Y-82423803D01*
X149966756Y-82423803D02*
X149919137Y-82614279D01*
X149919137Y-82614279D02*
X149871518Y-82709517D01*
X149871518Y-82709517D02*
X149823899Y-82757137D01*
X149823899Y-82757137D02*
X149728661Y-82804756D01*
X149728661Y-82804756D02*
X149633423Y-82804756D01*
X149633423Y-82804756D02*
X149538185Y-82757137D01*
X149538185Y-82757137D02*
X149490566Y-82709517D01*
X149490566Y-82709517D02*
X149442947Y-82614279D01*
X149442947Y-82614279D02*
X149395328Y-82423803D01*
X149395328Y-82423803D02*
X149395328Y-82185708D01*
X149395328Y-82185708D02*
X149442947Y-81995232D01*
X149442947Y-81995232D02*
X149490566Y-81899994D01*
X149490566Y-81899994D02*
X149538185Y-81852375D01*
X149538185Y-81852375D02*
X149633423Y-81804756D01*
X150347709Y-81899994D02*
X150395328Y-81852375D01*
X150395328Y-81852375D02*
X150490566Y-81804756D01*
X150490566Y-81804756D02*
X150728661Y-81804756D01*
X150728661Y-81804756D02*
X150823899Y-81852375D01*
X150823899Y-81852375D02*
X150871518Y-81899994D01*
X150871518Y-81899994D02*
X150919137Y-81995232D01*
X150919137Y-81995232D02*
X150919137Y-82090470D01*
X150919137Y-82090470D02*
X150871518Y-82233327D01*
X150871518Y-82233327D02*
X150300090Y-82804756D01*
X150300090Y-82804756D02*
X150919137Y-82804756D01*
X151347709Y-82804756D02*
X151347709Y-82138089D01*
X151347709Y-81804756D02*
X151300090Y-81852375D01*
X151300090Y-81852375D02*
X151347709Y-81899994D01*
X151347709Y-81899994D02*
X151395328Y-81852375D01*
X151395328Y-81852375D02*
X151347709Y-81804756D01*
X151347709Y-81804756D02*
X151347709Y-81899994D01*
X151823899Y-82138089D02*
X151823899Y-82804756D01*
X151823899Y-82233327D02*
X151871518Y-82185708D01*
X151871518Y-82185708D02*
X151966756Y-82138089D01*
X151966756Y-82138089D02*
X152109613Y-82138089D01*
X152109613Y-82138089D02*
X152204851Y-82185708D01*
X152204851Y-82185708D02*
X152252470Y-82280946D01*
X152252470Y-82280946D02*
X152252470Y-82804756D01*
X153442946Y-81757137D02*
X152585804Y-83042851D01*
X153966756Y-81804756D02*
X154061994Y-81804756D01*
X154061994Y-81804756D02*
X154157232Y-81852375D01*
X154157232Y-81852375D02*
X154204851Y-81899994D01*
X154204851Y-81899994D02*
X154252470Y-81995232D01*
X154252470Y-81995232D02*
X154300089Y-82185708D01*
X154300089Y-82185708D02*
X154300089Y-82423803D01*
X154300089Y-82423803D02*
X154252470Y-82614279D01*
X154252470Y-82614279D02*
X154204851Y-82709517D01*
X154204851Y-82709517D02*
X154157232Y-82757137D01*
X154157232Y-82757137D02*
X154061994Y-82804756D01*
X154061994Y-82804756D02*
X153966756Y-82804756D01*
X153966756Y-82804756D02*
X153871518Y-82757137D01*
X153871518Y-82757137D02*
X153823899Y-82709517D01*
X153823899Y-82709517D02*
X153776280Y-82614279D01*
X153776280Y-82614279D02*
X153728661Y-82423803D01*
X153728661Y-82423803D02*
X153728661Y-82185708D01*
X153728661Y-82185708D02*
X153776280Y-81995232D01*
X153776280Y-81995232D02*
X153823899Y-81899994D01*
X153823899Y-81899994D02*
X153871518Y-81852375D01*
X153871518Y-81852375D02*
X153966756Y-81804756D01*
X154728661Y-82709517D02*
X154776280Y-82757137D01*
X154776280Y-82757137D02*
X154728661Y-82804756D01*
X154728661Y-82804756D02*
X154681042Y-82757137D01*
X154681042Y-82757137D02*
X154728661Y-82709517D01*
X154728661Y-82709517D02*
X154728661Y-82804756D01*
X155681041Y-81804756D02*
X155204851Y-81804756D01*
X155204851Y-81804756D02*
X155157232Y-82280946D01*
X155157232Y-82280946D02*
X155204851Y-82233327D01*
X155204851Y-82233327D02*
X155300089Y-82185708D01*
X155300089Y-82185708D02*
X155538184Y-82185708D01*
X155538184Y-82185708D02*
X155633422Y-82233327D01*
X155633422Y-82233327D02*
X155681041Y-82280946D01*
X155681041Y-82280946D02*
X155728660Y-82376184D01*
X155728660Y-82376184D02*
X155728660Y-82614279D01*
X155728660Y-82614279D02*
X155681041Y-82709517D01*
X155681041Y-82709517D02*
X155633422Y-82757137D01*
X155633422Y-82757137D02*
X155538184Y-82804756D01*
X155538184Y-82804756D02*
X155300089Y-82804756D01*
X155300089Y-82804756D02*
X155204851Y-82757137D01*
X155204851Y-82757137D02*
X155157232Y-82709517D01*
X156157232Y-82804756D02*
X156157232Y-82138089D01*
X156157232Y-82233327D02*
X156204851Y-82185708D01*
X156204851Y-82185708D02*
X156300089Y-82138089D01*
X156300089Y-82138089D02*
X156442946Y-82138089D01*
X156442946Y-82138089D02*
X156538184Y-82185708D01*
X156538184Y-82185708D02*
X156585803Y-82280946D01*
X156585803Y-82280946D02*
X156585803Y-82804756D01*
X156585803Y-82280946D02*
X156633422Y-82185708D01*
X156633422Y-82185708D02*
X156728660Y-82138089D01*
X156728660Y-82138089D02*
X156871517Y-82138089D01*
X156871517Y-82138089D02*
X156966756Y-82185708D01*
X156966756Y-82185708D02*
X157014375Y-82280946D01*
X157014375Y-82280946D02*
X157014375Y-82804756D01*
X157490565Y-82804756D02*
X157490565Y-82138089D01*
X157490565Y-82233327D02*
X157538184Y-82185708D01*
X157538184Y-82185708D02*
X157633422Y-82138089D01*
X157633422Y-82138089D02*
X157776279Y-82138089D01*
X157776279Y-82138089D02*
X157871517Y-82185708D01*
X157871517Y-82185708D02*
X157919136Y-82280946D01*
X157919136Y-82280946D02*
X157919136Y-82804756D01*
X157919136Y-82280946D02*
X157966755Y-82185708D01*
X157966755Y-82185708D02*
X158061993Y-82138089D01*
X158061993Y-82138089D02*
X158204850Y-82138089D01*
X158204850Y-82138089D02*
X158300089Y-82185708D01*
X158300089Y-82185708D02*
X158347708Y-82280946D01*
X158347708Y-82280946D02*
X158347708Y-82804756D01*
D11*
X146187208Y-82646553D02*
X146181160Y-82652601D01*
X146181160Y-82652601D02*
X146163018Y-82658648D01*
X146163018Y-82658648D02*
X146150922Y-82658648D01*
X146150922Y-82658648D02*
X146132779Y-82652601D01*
X146132779Y-82652601D02*
X146120684Y-82640505D01*
X146120684Y-82640505D02*
X146114637Y-82628410D01*
X146114637Y-82628410D02*
X146108589Y-82604220D01*
X146108589Y-82604220D02*
X146108589Y-82586077D01*
X146108589Y-82586077D02*
X146114637Y-82561886D01*
X146114637Y-82561886D02*
X146120684Y-82549791D01*
X146120684Y-82549791D02*
X146132779Y-82537696D01*
X146132779Y-82537696D02*
X146150922Y-82531648D01*
X146150922Y-82531648D02*
X146163018Y-82531648D01*
X146163018Y-82531648D02*
X146181160Y-82537696D01*
X146181160Y-82537696D02*
X146187208Y-82543743D01*
X146259779Y-82658648D02*
X146247684Y-82652601D01*
X146247684Y-82652601D02*
X146241637Y-82646553D01*
X146241637Y-82646553D02*
X146235589Y-82634458D01*
X146235589Y-82634458D02*
X146235589Y-82598172D01*
X146235589Y-82598172D02*
X146241637Y-82586077D01*
X146241637Y-82586077D02*
X146247684Y-82580029D01*
X146247684Y-82580029D02*
X146259779Y-82573981D01*
X146259779Y-82573981D02*
X146277922Y-82573981D01*
X146277922Y-82573981D02*
X146290018Y-82580029D01*
X146290018Y-82580029D02*
X146296065Y-82586077D01*
X146296065Y-82586077D02*
X146302113Y-82598172D01*
X146302113Y-82598172D02*
X146302113Y-82634458D01*
X146302113Y-82634458D02*
X146296065Y-82646553D01*
X146296065Y-82646553D02*
X146290018Y-82652601D01*
X146290018Y-82652601D02*
X146277922Y-82658648D01*
X146277922Y-82658648D02*
X146259779Y-82658648D01*
X146356542Y-82573981D02*
X146356542Y-82700981D01*
X146356542Y-82580029D02*
X146368637Y-82573981D01*
X146368637Y-82573981D02*
X146392827Y-82573981D01*
X146392827Y-82573981D02*
X146404923Y-82580029D01*
X146404923Y-82580029D02*
X146410970Y-82586077D01*
X146410970Y-82586077D02*
X146417018Y-82598172D01*
X146417018Y-82598172D02*
X146417018Y-82634458D01*
X146417018Y-82634458D02*
X146410970Y-82646553D01*
X146410970Y-82646553D02*
X146404923Y-82652601D01*
X146404923Y-82652601D02*
X146392827Y-82658648D01*
X146392827Y-82658648D02*
X146368637Y-82658648D01*
X146368637Y-82658648D02*
X146356542Y-82652601D01*
X146459351Y-82573981D02*
X146489589Y-82658648D01*
X146519828Y-82573981D02*
X146489589Y-82658648D01*
X146489589Y-82658648D02*
X146477494Y-82688886D01*
X146477494Y-82688886D02*
X146471447Y-82694934D01*
X146471447Y-82694934D02*
X146459351Y-82700981D01*
X146568209Y-82658648D02*
X146568209Y-82573981D01*
X146568209Y-82598172D02*
X146574256Y-82586077D01*
X146574256Y-82586077D02*
X146580304Y-82580029D01*
X146580304Y-82580029D02*
X146592399Y-82573981D01*
X146592399Y-82573981D02*
X146604494Y-82573981D01*
X146646828Y-82658648D02*
X146646828Y-82573981D01*
X146646828Y-82531648D02*
X146640780Y-82537696D01*
X146640780Y-82537696D02*
X146646828Y-82543743D01*
X146646828Y-82543743D02*
X146652875Y-82537696D01*
X146652875Y-82537696D02*
X146646828Y-82531648D01*
X146646828Y-82531648D02*
X146646828Y-82543743D01*
X146761732Y-82573981D02*
X146761732Y-82676791D01*
X146761732Y-82676791D02*
X146755685Y-82688886D01*
X146755685Y-82688886D02*
X146749637Y-82694934D01*
X146749637Y-82694934D02*
X146737542Y-82700981D01*
X146737542Y-82700981D02*
X146719399Y-82700981D01*
X146719399Y-82700981D02*
X146707304Y-82694934D01*
X146761732Y-82652601D02*
X146749637Y-82658648D01*
X146749637Y-82658648D02*
X146725446Y-82658648D01*
X146725446Y-82658648D02*
X146713351Y-82652601D01*
X146713351Y-82652601D02*
X146707304Y-82646553D01*
X146707304Y-82646553D02*
X146701256Y-82634458D01*
X146701256Y-82634458D02*
X146701256Y-82598172D01*
X146701256Y-82598172D02*
X146707304Y-82586077D01*
X146707304Y-82586077D02*
X146713351Y-82580029D01*
X146713351Y-82580029D02*
X146725446Y-82573981D01*
X146725446Y-82573981D02*
X146749637Y-82573981D01*
X146749637Y-82573981D02*
X146761732Y-82580029D01*
X146822209Y-82658648D02*
X146822209Y-82531648D01*
X146876637Y-82658648D02*
X146876637Y-82592124D01*
X146876637Y-82592124D02*
X146870590Y-82580029D01*
X146870590Y-82580029D02*
X146858494Y-82573981D01*
X146858494Y-82573981D02*
X146840351Y-82573981D01*
X146840351Y-82573981D02*
X146828256Y-82580029D01*
X146828256Y-82580029D02*
X146822209Y-82586077D01*
X146918971Y-82573981D02*
X146967352Y-82573981D01*
X146937114Y-82531648D02*
X146937114Y-82640505D01*
X146937114Y-82640505D02*
X146943161Y-82652601D01*
X146943161Y-82652601D02*
X146955256Y-82658648D01*
X146955256Y-82658648D02*
X146967352Y-82658648D01*
X147100399Y-82543743D02*
X147106447Y-82537696D01*
X147106447Y-82537696D02*
X147118542Y-82531648D01*
X147118542Y-82531648D02*
X147148780Y-82531648D01*
X147148780Y-82531648D02*
X147160875Y-82537696D01*
X147160875Y-82537696D02*
X147166923Y-82543743D01*
X147166923Y-82543743D02*
X147172970Y-82555839D01*
X147172970Y-82555839D02*
X147172970Y-82567934D01*
X147172970Y-82567934D02*
X147166923Y-82586077D01*
X147166923Y-82586077D02*
X147094351Y-82658648D01*
X147094351Y-82658648D02*
X147172970Y-82658648D01*
X147251589Y-82531648D02*
X147263684Y-82531648D01*
X147263684Y-82531648D02*
X147275780Y-82537696D01*
X147275780Y-82537696D02*
X147281827Y-82543743D01*
X147281827Y-82543743D02*
X147287875Y-82555839D01*
X147287875Y-82555839D02*
X147293922Y-82580029D01*
X147293922Y-82580029D02*
X147293922Y-82610267D01*
X147293922Y-82610267D02*
X147287875Y-82634458D01*
X147287875Y-82634458D02*
X147281827Y-82646553D01*
X147281827Y-82646553D02*
X147275780Y-82652601D01*
X147275780Y-82652601D02*
X147263684Y-82658648D01*
X147263684Y-82658648D02*
X147251589Y-82658648D01*
X147251589Y-82658648D02*
X147239494Y-82652601D01*
X147239494Y-82652601D02*
X147233446Y-82646553D01*
X147233446Y-82646553D02*
X147227399Y-82634458D01*
X147227399Y-82634458D02*
X147221351Y-82610267D01*
X147221351Y-82610267D02*
X147221351Y-82580029D01*
X147221351Y-82580029D02*
X147227399Y-82555839D01*
X147227399Y-82555839D02*
X147233446Y-82543743D01*
X147233446Y-82543743D02*
X147239494Y-82537696D01*
X147239494Y-82537696D02*
X147251589Y-82531648D01*
X147342303Y-82543743D02*
X147348351Y-82537696D01*
X147348351Y-82537696D02*
X147360446Y-82531648D01*
X147360446Y-82531648D02*
X147390684Y-82531648D01*
X147390684Y-82531648D02*
X147402779Y-82537696D01*
X147402779Y-82537696D02*
X147408827Y-82543743D01*
X147408827Y-82543743D02*
X147414874Y-82555839D01*
X147414874Y-82555839D02*
X147414874Y-82567934D01*
X147414874Y-82567934D02*
X147408827Y-82586077D01*
X147408827Y-82586077D02*
X147336255Y-82658648D01*
X147336255Y-82658648D02*
X147414874Y-82658648D01*
X147535826Y-82658648D02*
X147463255Y-82658648D01*
X147499541Y-82658648D02*
X147499541Y-82531648D01*
X147499541Y-82531648D02*
X147487445Y-82549791D01*
X147487445Y-82549791D02*
X147475350Y-82561886D01*
X147475350Y-82561886D02*
X147463255Y-82567934D01*
X147680969Y-82622362D02*
X147741445Y-82622362D01*
X147668874Y-82658648D02*
X147711207Y-82531648D01*
X147711207Y-82531648D02*
X147753540Y-82658648D01*
X147850302Y-82652601D02*
X147838207Y-82658648D01*
X147838207Y-82658648D02*
X147814016Y-82658648D01*
X147814016Y-82658648D02*
X147801921Y-82652601D01*
X147801921Y-82652601D02*
X147795874Y-82646553D01*
X147795874Y-82646553D02*
X147789826Y-82634458D01*
X147789826Y-82634458D02*
X147789826Y-82598172D01*
X147789826Y-82598172D02*
X147795874Y-82586077D01*
X147795874Y-82586077D02*
X147801921Y-82580029D01*
X147801921Y-82580029D02*
X147814016Y-82573981D01*
X147814016Y-82573981D02*
X147838207Y-82573981D01*
X147838207Y-82573981D02*
X147850302Y-82580029D01*
X147959159Y-82652601D02*
X147947064Y-82658648D01*
X147947064Y-82658648D02*
X147922873Y-82658648D01*
X147922873Y-82658648D02*
X147910778Y-82652601D01*
X147910778Y-82652601D02*
X147904731Y-82646553D01*
X147904731Y-82646553D02*
X147898683Y-82634458D01*
X147898683Y-82634458D02*
X147898683Y-82598172D01*
X147898683Y-82598172D02*
X147904731Y-82586077D01*
X147904731Y-82586077D02*
X147910778Y-82580029D01*
X147910778Y-82580029D02*
X147922873Y-82573981D01*
X147922873Y-82573981D02*
X147947064Y-82573981D01*
X147947064Y-82573981D02*
X147959159Y-82580029D01*
X148061969Y-82652601D02*
X148049873Y-82658648D01*
X148049873Y-82658648D02*
X148025683Y-82658648D01*
X148025683Y-82658648D02*
X148013588Y-82652601D01*
X148013588Y-82652601D02*
X148007540Y-82640505D01*
X148007540Y-82640505D02*
X148007540Y-82592124D01*
X148007540Y-82592124D02*
X148013588Y-82580029D01*
X148013588Y-82580029D02*
X148025683Y-82573981D01*
X148025683Y-82573981D02*
X148049873Y-82573981D01*
X148049873Y-82573981D02*
X148061969Y-82580029D01*
X148061969Y-82580029D02*
X148068016Y-82592124D01*
X148068016Y-82592124D02*
X148068016Y-82604220D01*
X148068016Y-82604220D02*
X148007540Y-82616315D01*
X148140587Y-82658648D02*
X148128492Y-82652601D01*
X148128492Y-82652601D02*
X148122445Y-82640505D01*
X148122445Y-82640505D02*
X148122445Y-82531648D01*
X148237350Y-82652601D02*
X148225254Y-82658648D01*
X148225254Y-82658648D02*
X148201064Y-82658648D01*
X148201064Y-82658648D02*
X148188969Y-82652601D01*
X148188969Y-82652601D02*
X148182921Y-82640505D01*
X148182921Y-82640505D02*
X148182921Y-82592124D01*
X148182921Y-82592124D02*
X148188969Y-82580029D01*
X148188969Y-82580029D02*
X148201064Y-82573981D01*
X148201064Y-82573981D02*
X148225254Y-82573981D01*
X148225254Y-82573981D02*
X148237350Y-82580029D01*
X148237350Y-82580029D02*
X148243397Y-82592124D01*
X148243397Y-82592124D02*
X148243397Y-82604220D01*
X148243397Y-82604220D02*
X148182921Y-82616315D01*
X148297826Y-82658648D02*
X148297826Y-82573981D01*
X148297826Y-82598172D02*
X148303873Y-82586077D01*
X148303873Y-82586077D02*
X148309921Y-82580029D01*
X148309921Y-82580029D02*
X148322016Y-82573981D01*
X148322016Y-82573981D02*
X148334111Y-82573981D01*
X148430873Y-82658648D02*
X148430873Y-82592124D01*
X148430873Y-82592124D02*
X148424826Y-82580029D01*
X148424826Y-82580029D02*
X148412730Y-82573981D01*
X148412730Y-82573981D02*
X148388540Y-82573981D01*
X148388540Y-82573981D02*
X148376445Y-82580029D01*
X148430873Y-82652601D02*
X148418778Y-82658648D01*
X148418778Y-82658648D02*
X148388540Y-82658648D01*
X148388540Y-82658648D02*
X148376445Y-82652601D01*
X148376445Y-82652601D02*
X148370397Y-82640505D01*
X148370397Y-82640505D02*
X148370397Y-82628410D01*
X148370397Y-82628410D02*
X148376445Y-82616315D01*
X148376445Y-82616315D02*
X148388540Y-82610267D01*
X148388540Y-82610267D02*
X148418778Y-82610267D01*
X148418778Y-82610267D02*
X148430873Y-82604220D01*
X148473207Y-82573981D02*
X148521588Y-82573981D01*
X148491350Y-82531648D02*
X148491350Y-82640505D01*
X148491350Y-82640505D02*
X148497397Y-82652601D01*
X148497397Y-82652601D02*
X148509492Y-82658648D01*
X148509492Y-82658648D02*
X148521588Y-82658648D01*
X148612302Y-82652601D02*
X148600206Y-82658648D01*
X148600206Y-82658648D02*
X148576016Y-82658648D01*
X148576016Y-82658648D02*
X148563921Y-82652601D01*
X148563921Y-82652601D02*
X148557873Y-82640505D01*
X148557873Y-82640505D02*
X148557873Y-82592124D01*
X148557873Y-82592124D02*
X148563921Y-82580029D01*
X148563921Y-82580029D02*
X148576016Y-82573981D01*
X148576016Y-82573981D02*
X148600206Y-82573981D01*
X148600206Y-82573981D02*
X148612302Y-82580029D01*
X148612302Y-82580029D02*
X148618349Y-82592124D01*
X148618349Y-82592124D02*
X148618349Y-82604220D01*
X148618349Y-82604220D02*
X148557873Y-82616315D01*
X148727206Y-82658648D02*
X148727206Y-82531648D01*
X148727206Y-82652601D02*
X148715111Y-82658648D01*
X148715111Y-82658648D02*
X148690920Y-82658648D01*
X148690920Y-82658648D02*
X148678825Y-82652601D01*
X148678825Y-82652601D02*
X148672778Y-82646553D01*
X148672778Y-82646553D02*
X148666730Y-82634458D01*
X148666730Y-82634458D02*
X148666730Y-82598172D01*
X148666730Y-82598172D02*
X148672778Y-82586077D01*
X148672778Y-82586077D02*
X148678825Y-82580029D01*
X148678825Y-82580029D02*
X148690920Y-82573981D01*
X148690920Y-82573981D02*
X148715111Y-82573981D01*
X148715111Y-82573981D02*
X148727206Y-82580029D01*
X148884445Y-82658648D02*
X148884445Y-82531648D01*
X148884445Y-82531648D02*
X148914683Y-82531648D01*
X148914683Y-82531648D02*
X148932826Y-82537696D01*
X148932826Y-82537696D02*
X148944921Y-82549791D01*
X148944921Y-82549791D02*
X148950968Y-82561886D01*
X148950968Y-82561886D02*
X148957016Y-82586077D01*
X148957016Y-82586077D02*
X148957016Y-82604220D01*
X148957016Y-82604220D02*
X148950968Y-82628410D01*
X148950968Y-82628410D02*
X148944921Y-82640505D01*
X148944921Y-82640505D02*
X148932826Y-82652601D01*
X148932826Y-82652601D02*
X148914683Y-82658648D01*
X148914683Y-82658648D02*
X148884445Y-82658648D01*
X149059826Y-82652601D02*
X149047730Y-82658648D01*
X149047730Y-82658648D02*
X149023540Y-82658648D01*
X149023540Y-82658648D02*
X149011445Y-82652601D01*
X149011445Y-82652601D02*
X149005397Y-82640505D01*
X149005397Y-82640505D02*
X149005397Y-82592124D01*
X149005397Y-82592124D02*
X149011445Y-82580029D01*
X149011445Y-82580029D02*
X149023540Y-82573981D01*
X149023540Y-82573981D02*
X149047730Y-82573981D01*
X149047730Y-82573981D02*
X149059826Y-82580029D01*
X149059826Y-82580029D02*
X149065873Y-82592124D01*
X149065873Y-82592124D02*
X149065873Y-82604220D01*
X149065873Y-82604220D02*
X149005397Y-82616315D01*
X149114254Y-82652601D02*
X149126349Y-82658648D01*
X149126349Y-82658648D02*
X149150540Y-82658648D01*
X149150540Y-82658648D02*
X149162635Y-82652601D01*
X149162635Y-82652601D02*
X149168683Y-82640505D01*
X149168683Y-82640505D02*
X149168683Y-82634458D01*
X149168683Y-82634458D02*
X149162635Y-82622362D01*
X149162635Y-82622362D02*
X149150540Y-82616315D01*
X149150540Y-82616315D02*
X149132397Y-82616315D01*
X149132397Y-82616315D02*
X149120302Y-82610267D01*
X149120302Y-82610267D02*
X149114254Y-82598172D01*
X149114254Y-82598172D02*
X149114254Y-82592124D01*
X149114254Y-82592124D02*
X149120302Y-82580029D01*
X149120302Y-82580029D02*
X149132397Y-82573981D01*
X149132397Y-82573981D02*
X149150540Y-82573981D01*
X149150540Y-82573981D02*
X149162635Y-82580029D01*
X149223112Y-82658648D02*
X149223112Y-82573981D01*
X149223112Y-82531648D02*
X149217064Y-82537696D01*
X149217064Y-82537696D02*
X149223112Y-82543743D01*
X149223112Y-82543743D02*
X149229159Y-82537696D01*
X149229159Y-82537696D02*
X149223112Y-82531648D01*
X149223112Y-82531648D02*
X149223112Y-82543743D01*
X149338016Y-82573981D02*
X149338016Y-82676791D01*
X149338016Y-82676791D02*
X149331969Y-82688886D01*
X149331969Y-82688886D02*
X149325921Y-82694934D01*
X149325921Y-82694934D02*
X149313826Y-82700981D01*
X149313826Y-82700981D02*
X149295683Y-82700981D01*
X149295683Y-82700981D02*
X149283588Y-82694934D01*
X149338016Y-82652601D02*
X149325921Y-82658648D01*
X149325921Y-82658648D02*
X149301730Y-82658648D01*
X149301730Y-82658648D02*
X149289635Y-82652601D01*
X149289635Y-82652601D02*
X149283588Y-82646553D01*
X149283588Y-82646553D02*
X149277540Y-82634458D01*
X149277540Y-82634458D02*
X149277540Y-82598172D01*
X149277540Y-82598172D02*
X149283588Y-82586077D01*
X149283588Y-82586077D02*
X149289635Y-82580029D01*
X149289635Y-82580029D02*
X149301730Y-82573981D01*
X149301730Y-82573981D02*
X149325921Y-82573981D01*
X149325921Y-82573981D02*
X149338016Y-82580029D01*
X149398493Y-82573981D02*
X149398493Y-82658648D01*
X149398493Y-82586077D02*
X149404540Y-82580029D01*
X149404540Y-82580029D02*
X149416635Y-82573981D01*
X149416635Y-82573981D02*
X149434778Y-82573981D01*
X149434778Y-82573981D02*
X149446874Y-82580029D01*
X149446874Y-82580029D02*
X149452921Y-82592124D01*
X149452921Y-82592124D02*
X149452921Y-82658648D01*
X149507350Y-82652601D02*
X149519445Y-82658648D01*
X149519445Y-82658648D02*
X149543636Y-82658648D01*
X149543636Y-82658648D02*
X149555731Y-82652601D01*
X149555731Y-82652601D02*
X149561779Y-82640505D01*
X149561779Y-82640505D02*
X149561779Y-82634458D01*
X149561779Y-82634458D02*
X149555731Y-82622362D01*
X149555731Y-82622362D02*
X149543636Y-82616315D01*
X149543636Y-82616315D02*
X149525493Y-82616315D01*
X149525493Y-82616315D02*
X149513398Y-82610267D01*
X149513398Y-82610267D02*
X149507350Y-82598172D01*
X149507350Y-82598172D02*
X149507350Y-82592124D01*
X149507350Y-82592124D02*
X149513398Y-82580029D01*
X149513398Y-82580029D02*
X149525493Y-82573981D01*
X149525493Y-82573981D02*
X149543636Y-82573981D01*
X149543636Y-82573981D02*
X149555731Y-82580029D01*
X149616208Y-82646553D02*
X149622255Y-82652601D01*
X149622255Y-82652601D02*
X149616208Y-82658648D01*
X149616208Y-82658648D02*
X149610160Y-82652601D01*
X149610160Y-82652601D02*
X149616208Y-82646553D01*
X149616208Y-82646553D02*
X149616208Y-82658648D01*
X149767398Y-82622362D02*
X149827874Y-82622362D01*
X149755303Y-82658648D02*
X149797636Y-82531648D01*
X149797636Y-82531648D02*
X149839969Y-82658648D01*
X149900445Y-82658648D02*
X149888350Y-82652601D01*
X149888350Y-82652601D02*
X149882303Y-82640505D01*
X149882303Y-82640505D02*
X149882303Y-82531648D01*
X149966969Y-82658648D02*
X149954874Y-82652601D01*
X149954874Y-82652601D02*
X149948827Y-82640505D01*
X149948827Y-82640505D02*
X149948827Y-82531648D01*
X150112113Y-82658648D02*
X150112113Y-82573981D01*
X150112113Y-82598172D02*
X150118160Y-82586077D01*
X150118160Y-82586077D02*
X150124208Y-82580029D01*
X150124208Y-82580029D02*
X150136303Y-82573981D01*
X150136303Y-82573981D02*
X150148398Y-82573981D01*
X150190732Y-82658648D02*
X150190732Y-82573981D01*
X150190732Y-82531648D02*
X150184684Y-82537696D01*
X150184684Y-82537696D02*
X150190732Y-82543743D01*
X150190732Y-82543743D02*
X150196779Y-82537696D01*
X150196779Y-82537696D02*
X150190732Y-82531648D01*
X150190732Y-82531648D02*
X150190732Y-82543743D01*
X150305636Y-82573981D02*
X150305636Y-82676791D01*
X150305636Y-82676791D02*
X150299589Y-82688886D01*
X150299589Y-82688886D02*
X150293541Y-82694934D01*
X150293541Y-82694934D02*
X150281446Y-82700981D01*
X150281446Y-82700981D02*
X150263303Y-82700981D01*
X150263303Y-82700981D02*
X150251208Y-82694934D01*
X150305636Y-82652601D02*
X150293541Y-82658648D01*
X150293541Y-82658648D02*
X150269350Y-82658648D01*
X150269350Y-82658648D02*
X150257255Y-82652601D01*
X150257255Y-82652601D02*
X150251208Y-82646553D01*
X150251208Y-82646553D02*
X150245160Y-82634458D01*
X150245160Y-82634458D02*
X150245160Y-82598172D01*
X150245160Y-82598172D02*
X150251208Y-82586077D01*
X150251208Y-82586077D02*
X150257255Y-82580029D01*
X150257255Y-82580029D02*
X150269350Y-82573981D01*
X150269350Y-82573981D02*
X150293541Y-82573981D01*
X150293541Y-82573981D02*
X150305636Y-82580029D01*
X150366113Y-82658648D02*
X150366113Y-82531648D01*
X150420541Y-82658648D02*
X150420541Y-82592124D01*
X150420541Y-82592124D02*
X150414494Y-82580029D01*
X150414494Y-82580029D02*
X150402398Y-82573981D01*
X150402398Y-82573981D02*
X150384255Y-82573981D01*
X150384255Y-82573981D02*
X150372160Y-82580029D01*
X150372160Y-82580029D02*
X150366113Y-82586077D01*
X150462875Y-82573981D02*
X150511256Y-82573981D01*
X150481018Y-82531648D02*
X150481018Y-82640505D01*
X150481018Y-82640505D02*
X150487065Y-82652601D01*
X150487065Y-82652601D02*
X150499160Y-82658648D01*
X150499160Y-82658648D02*
X150511256Y-82658648D01*
X150547541Y-82652601D02*
X150559636Y-82658648D01*
X150559636Y-82658648D02*
X150583827Y-82658648D01*
X150583827Y-82658648D02*
X150595922Y-82652601D01*
X150595922Y-82652601D02*
X150601970Y-82640505D01*
X150601970Y-82640505D02*
X150601970Y-82634458D01*
X150601970Y-82634458D02*
X150595922Y-82622362D01*
X150595922Y-82622362D02*
X150583827Y-82616315D01*
X150583827Y-82616315D02*
X150565684Y-82616315D01*
X150565684Y-82616315D02*
X150553589Y-82610267D01*
X150553589Y-82610267D02*
X150547541Y-82598172D01*
X150547541Y-82598172D02*
X150547541Y-82592124D01*
X150547541Y-82592124D02*
X150553589Y-82580029D01*
X150553589Y-82580029D02*
X150565684Y-82573981D01*
X150565684Y-82573981D02*
X150583827Y-82573981D01*
X150583827Y-82573981D02*
X150595922Y-82580029D01*
X150753161Y-82658648D02*
X150753161Y-82573981D01*
X150753161Y-82598172D02*
X150759208Y-82586077D01*
X150759208Y-82586077D02*
X150765256Y-82580029D01*
X150765256Y-82580029D02*
X150777351Y-82573981D01*
X150777351Y-82573981D02*
X150789446Y-82573981D01*
X150880161Y-82652601D02*
X150868065Y-82658648D01*
X150868065Y-82658648D02*
X150843875Y-82658648D01*
X150843875Y-82658648D02*
X150831780Y-82652601D01*
X150831780Y-82652601D02*
X150825732Y-82640505D01*
X150825732Y-82640505D02*
X150825732Y-82592124D01*
X150825732Y-82592124D02*
X150831780Y-82580029D01*
X150831780Y-82580029D02*
X150843875Y-82573981D01*
X150843875Y-82573981D02*
X150868065Y-82573981D01*
X150868065Y-82573981D02*
X150880161Y-82580029D01*
X150880161Y-82580029D02*
X150886208Y-82592124D01*
X150886208Y-82592124D02*
X150886208Y-82604220D01*
X150886208Y-82604220D02*
X150825732Y-82616315D01*
X150934589Y-82652601D02*
X150946684Y-82658648D01*
X150946684Y-82658648D02*
X150970875Y-82658648D01*
X150970875Y-82658648D02*
X150982970Y-82652601D01*
X150982970Y-82652601D02*
X150989018Y-82640505D01*
X150989018Y-82640505D02*
X150989018Y-82634458D01*
X150989018Y-82634458D02*
X150982970Y-82622362D01*
X150982970Y-82622362D02*
X150970875Y-82616315D01*
X150970875Y-82616315D02*
X150952732Y-82616315D01*
X150952732Y-82616315D02*
X150940637Y-82610267D01*
X150940637Y-82610267D02*
X150934589Y-82598172D01*
X150934589Y-82598172D02*
X150934589Y-82592124D01*
X150934589Y-82592124D02*
X150940637Y-82580029D01*
X150940637Y-82580029D02*
X150952732Y-82573981D01*
X150952732Y-82573981D02*
X150970875Y-82573981D01*
X150970875Y-82573981D02*
X150982970Y-82580029D01*
X151091828Y-82652601D02*
X151079732Y-82658648D01*
X151079732Y-82658648D02*
X151055542Y-82658648D01*
X151055542Y-82658648D02*
X151043447Y-82652601D01*
X151043447Y-82652601D02*
X151037399Y-82640505D01*
X151037399Y-82640505D02*
X151037399Y-82592124D01*
X151037399Y-82592124D02*
X151043447Y-82580029D01*
X151043447Y-82580029D02*
X151055542Y-82573981D01*
X151055542Y-82573981D02*
X151079732Y-82573981D01*
X151079732Y-82573981D02*
X151091828Y-82580029D01*
X151091828Y-82580029D02*
X151097875Y-82592124D01*
X151097875Y-82592124D02*
X151097875Y-82604220D01*
X151097875Y-82604220D02*
X151037399Y-82616315D01*
X151152304Y-82658648D02*
X151152304Y-82573981D01*
X151152304Y-82598172D02*
X151158351Y-82586077D01*
X151158351Y-82586077D02*
X151164399Y-82580029D01*
X151164399Y-82580029D02*
X151176494Y-82573981D01*
X151176494Y-82573981D02*
X151188589Y-82573981D01*
X151218827Y-82573981D02*
X151249065Y-82658648D01*
X151249065Y-82658648D02*
X151279304Y-82573981D01*
X151376066Y-82652601D02*
X151363970Y-82658648D01*
X151363970Y-82658648D02*
X151339780Y-82658648D01*
X151339780Y-82658648D02*
X151327685Y-82652601D01*
X151327685Y-82652601D02*
X151321637Y-82640505D01*
X151321637Y-82640505D02*
X151321637Y-82592124D01*
X151321637Y-82592124D02*
X151327685Y-82580029D01*
X151327685Y-82580029D02*
X151339780Y-82573981D01*
X151339780Y-82573981D02*
X151363970Y-82573981D01*
X151363970Y-82573981D02*
X151376066Y-82580029D01*
X151376066Y-82580029D02*
X151382113Y-82592124D01*
X151382113Y-82592124D02*
X151382113Y-82604220D01*
X151382113Y-82604220D02*
X151321637Y-82616315D01*
X151490970Y-82658648D02*
X151490970Y-82531648D01*
X151490970Y-82652601D02*
X151478875Y-82658648D01*
X151478875Y-82658648D02*
X151454684Y-82658648D01*
X151454684Y-82658648D02*
X151442589Y-82652601D01*
X151442589Y-82652601D02*
X151436542Y-82646553D01*
X151436542Y-82646553D02*
X151430494Y-82634458D01*
X151430494Y-82634458D02*
X151430494Y-82598172D01*
X151430494Y-82598172D02*
X151436542Y-82586077D01*
X151436542Y-82586077D02*
X151442589Y-82580029D01*
X151442589Y-82580029D02*
X151454684Y-82573981D01*
X151454684Y-82573981D02*
X151478875Y-82573981D01*
X151478875Y-82573981D02*
X151490970Y-82580029D01*
X151551447Y-82646553D02*
X151557494Y-82652601D01*
X151557494Y-82652601D02*
X151551447Y-82658648D01*
X151551447Y-82658648D02*
X151545399Y-82652601D01*
X151545399Y-82652601D02*
X151551447Y-82646553D01*
X151551447Y-82646553D02*
X151551447Y-82658648D01*
D10*
X150268662Y-82554945D02*
X150363900Y-82554945D01*
X150363900Y-82554945D02*
X150459138Y-82602564D01*
X150459138Y-82602564D02*
X150506757Y-82650183D01*
X150506757Y-82650183D02*
X150554376Y-82745421D01*
X150554376Y-82745421D02*
X150601995Y-82935897D01*
X150601995Y-82935897D02*
X150601995Y-83173992D01*
X150601995Y-83173992D02*
X150554376Y-83364468D01*
X150554376Y-83364468D02*
X150506757Y-83459706D01*
X150506757Y-83459706D02*
X150459138Y-83507326D01*
X150459138Y-83507326D02*
X150363900Y-83554945D01*
X150363900Y-83554945D02*
X150268662Y-83554945D01*
X150268662Y-83554945D02*
X150173424Y-83507326D01*
X150173424Y-83507326D02*
X150125805Y-83459706D01*
X150125805Y-83459706D02*
X150078186Y-83364468D01*
X150078186Y-83364468D02*
X150030567Y-83173992D01*
X150030567Y-83173992D02*
X150030567Y-82935897D01*
X150030567Y-82935897D02*
X150078186Y-82745421D01*
X150078186Y-82745421D02*
X150125805Y-82650183D01*
X150125805Y-82650183D02*
X150173424Y-82602564D01*
X150173424Y-82602564D02*
X150268662Y-82554945D01*
X151030567Y-83459706D02*
X151078186Y-83507326D01*
X151078186Y-83507326D02*
X151030567Y-83554945D01*
X151030567Y-83554945D02*
X150982948Y-83507326D01*
X150982948Y-83507326D02*
X151030567Y-83459706D01*
X151030567Y-83459706D02*
X151030567Y-83554945D01*
X151697233Y-82554945D02*
X151792471Y-82554945D01*
X151792471Y-82554945D02*
X151887709Y-82602564D01*
X151887709Y-82602564D02*
X151935328Y-82650183D01*
X151935328Y-82650183D02*
X151982947Y-82745421D01*
X151982947Y-82745421D02*
X152030566Y-82935897D01*
X152030566Y-82935897D02*
X152030566Y-83173992D01*
X152030566Y-83173992D02*
X151982947Y-83364468D01*
X151982947Y-83364468D02*
X151935328Y-83459706D01*
X151935328Y-83459706D02*
X151887709Y-83507326D01*
X151887709Y-83507326D02*
X151792471Y-83554945D01*
X151792471Y-83554945D02*
X151697233Y-83554945D01*
X151697233Y-83554945D02*
X151601995Y-83507326D01*
X151601995Y-83507326D02*
X151554376Y-83459706D01*
X151554376Y-83459706D02*
X151506757Y-83364468D01*
X151506757Y-83364468D02*
X151459138Y-83173992D01*
X151459138Y-83173992D02*
X151459138Y-82935897D01*
X151459138Y-82935897D02*
X151506757Y-82745421D01*
X151506757Y-82745421D02*
X151554376Y-82650183D01*
X151554376Y-82650183D02*
X151601995Y-82602564D01*
X151601995Y-82602564D02*
X151697233Y-82554945D01*
X152982947Y-83554945D02*
X152411519Y-83554945D01*
X152697233Y-83554945D02*
X152697233Y-82554945D01*
X152697233Y-82554945D02*
X152601995Y-82697802D01*
X152601995Y-82697802D02*
X152506757Y-82793040D01*
X152506757Y-82793040D02*
X152411519Y-82840659D01*
X153411519Y-83554945D02*
X153411519Y-82888278D01*
X153411519Y-82554945D02*
X153363900Y-82602564D01*
X153363900Y-82602564D02*
X153411519Y-82650183D01*
X153411519Y-82650183D02*
X153459138Y-82602564D01*
X153459138Y-82602564D02*
X153411519Y-82554945D01*
X153411519Y-82554945D02*
X153411519Y-82650183D01*
X153887709Y-82888278D02*
X153887709Y-83554945D01*
X153887709Y-82983516D02*
X153935328Y-82935897D01*
X153935328Y-82935897D02*
X154030566Y-82888278D01*
X154030566Y-82888278D02*
X154173423Y-82888278D01*
X154173423Y-82888278D02*
X154268661Y-82935897D01*
X154268661Y-82935897D02*
X154316280Y-83031135D01*
X154316280Y-83031135D02*
X154316280Y-83554945D01*
X155506756Y-82507326D02*
X154649614Y-83793040D01*
X156030566Y-82554945D02*
X156125804Y-82554945D01*
X156125804Y-82554945D02*
X156221042Y-82602564D01*
X156221042Y-82602564D02*
X156268661Y-82650183D01*
X156268661Y-82650183D02*
X156316280Y-82745421D01*
X156316280Y-82745421D02*
X156363899Y-82935897D01*
X156363899Y-82935897D02*
X156363899Y-83173992D01*
X156363899Y-83173992D02*
X156316280Y-83364468D01*
X156316280Y-83364468D02*
X156268661Y-83459706D01*
X156268661Y-83459706D02*
X156221042Y-83507326D01*
X156221042Y-83507326D02*
X156125804Y-83554945D01*
X156125804Y-83554945D02*
X156030566Y-83554945D01*
X156030566Y-83554945D02*
X155935328Y-83507326D01*
X155935328Y-83507326D02*
X155887709Y-83459706D01*
X155887709Y-83459706D02*
X155840090Y-83364468D01*
X155840090Y-83364468D02*
X155792471Y-83173992D01*
X155792471Y-83173992D02*
X155792471Y-82935897D01*
X155792471Y-82935897D02*
X155840090Y-82745421D01*
X155840090Y-82745421D02*
X155887709Y-82650183D01*
X155887709Y-82650183D02*
X155935328Y-82602564D01*
X155935328Y-82602564D02*
X156030566Y-82554945D01*
X156792471Y-83459706D02*
X156840090Y-83507326D01*
X156840090Y-83507326D02*
X156792471Y-83554945D01*
X156792471Y-83554945D02*
X156744852Y-83507326D01*
X156744852Y-83507326D02*
X156792471Y-83459706D01*
X156792471Y-83459706D02*
X156792471Y-83554945D01*
X157221042Y-82650183D02*
X157268661Y-82602564D01*
X157268661Y-82602564D02*
X157363899Y-82554945D01*
X157363899Y-82554945D02*
X157601994Y-82554945D01*
X157601994Y-82554945D02*
X157697232Y-82602564D01*
X157697232Y-82602564D02*
X157744851Y-82650183D01*
X157744851Y-82650183D02*
X157792470Y-82745421D01*
X157792470Y-82745421D02*
X157792470Y-82840659D01*
X157792470Y-82840659D02*
X157744851Y-82983516D01*
X157744851Y-82983516D02*
X157173423Y-83554945D01*
X157173423Y-83554945D02*
X157792470Y-83554945D01*
X158697232Y-82554945D02*
X158221042Y-82554945D01*
X158221042Y-82554945D02*
X158173423Y-83031135D01*
X158173423Y-83031135D02*
X158221042Y-82983516D01*
X158221042Y-82983516D02*
X158316280Y-82935897D01*
X158316280Y-82935897D02*
X158554375Y-82935897D01*
X158554375Y-82935897D02*
X158649613Y-82983516D01*
X158649613Y-82983516D02*
X158697232Y-83031135D01*
X158697232Y-83031135D02*
X158744851Y-83126373D01*
X158744851Y-83126373D02*
X158744851Y-83364468D01*
X158744851Y-83364468D02*
X158697232Y-83459706D01*
X158697232Y-83459706D02*
X158649613Y-83507326D01*
X158649613Y-83507326D02*
X158554375Y-83554945D01*
X158554375Y-83554945D02*
X158316280Y-83554945D01*
X158316280Y-83554945D02*
X158221042Y-83507326D01*
X158221042Y-83507326D02*
X158173423Y-83459706D01*
X159173423Y-83554945D02*
X159173423Y-82888278D01*
X159173423Y-82983516D02*
X159221042Y-82935897D01*
X159221042Y-82935897D02*
X159316280Y-82888278D01*
X159316280Y-82888278D02*
X159459137Y-82888278D01*
X159459137Y-82888278D02*
X159554375Y-82935897D01*
X159554375Y-82935897D02*
X159601994Y-83031135D01*
X159601994Y-83031135D02*
X159601994Y-83554945D01*
X159601994Y-83031135D02*
X159649613Y-82935897D01*
X159649613Y-82935897D02*
X159744851Y-82888278D01*
X159744851Y-82888278D02*
X159887708Y-82888278D01*
X159887708Y-82888278D02*
X159982947Y-82935897D01*
X159982947Y-82935897D02*
X160030566Y-83031135D01*
X160030566Y-83031135D02*
X160030566Y-83554945D01*
X160506756Y-83554945D02*
X160506756Y-82888278D01*
X160506756Y-82983516D02*
X160554375Y-82935897D01*
X160554375Y-82935897D02*
X160649613Y-82888278D01*
X160649613Y-82888278D02*
X160792470Y-82888278D01*
X160792470Y-82888278D02*
X160887708Y-82935897D01*
X160887708Y-82935897D02*
X160935327Y-83031135D01*
X160935327Y-83031135D02*
X160935327Y-83554945D01*
X160935327Y-83031135D02*
X160982946Y-82935897D01*
X160982946Y-82935897D02*
X161078184Y-82888278D01*
X161078184Y-82888278D02*
X161221041Y-82888278D01*
X161221041Y-82888278D02*
X161316280Y-82935897D01*
X161316280Y-82935897D02*
X161363899Y-83031135D01*
X161363899Y-83031135D02*
X161363899Y-83554945D01*
X135228852Y-82054819D02*
X135324090Y-82054819D01*
X135324090Y-82054819D02*
X135419328Y-82102438D01*
X135419328Y-82102438D02*
X135466947Y-82150057D01*
X135466947Y-82150057D02*
X135514566Y-82245295D01*
X135514566Y-82245295D02*
X135562185Y-82435771D01*
X135562185Y-82435771D02*
X135562185Y-82673866D01*
X135562185Y-82673866D02*
X135514566Y-82864342D01*
X135514566Y-82864342D02*
X135466947Y-82959580D01*
X135466947Y-82959580D02*
X135419328Y-83007200D01*
X135419328Y-83007200D02*
X135324090Y-83054819D01*
X135324090Y-83054819D02*
X135228852Y-83054819D01*
X135228852Y-83054819D02*
X135133614Y-83007200D01*
X135133614Y-83007200D02*
X135085995Y-82959580D01*
X135085995Y-82959580D02*
X135038376Y-82864342D01*
X135038376Y-82864342D02*
X134990757Y-82673866D01*
X134990757Y-82673866D02*
X134990757Y-82435771D01*
X134990757Y-82435771D02*
X135038376Y-82245295D01*
X135038376Y-82245295D02*
X135085995Y-82150057D01*
X135085995Y-82150057D02*
X135133614Y-82102438D01*
X135133614Y-82102438D02*
X135228852Y-82054819D01*
X135990757Y-82959580D02*
X136038376Y-83007200D01*
X136038376Y-83007200D02*
X135990757Y-83054819D01*
X135990757Y-83054819D02*
X135943138Y-83007200D01*
X135943138Y-83007200D02*
X135990757Y-82959580D01*
X135990757Y-82959580D02*
X135990757Y-83054819D01*
X136990756Y-83054819D02*
X136419328Y-83054819D01*
X136705042Y-83054819D02*
X136705042Y-82054819D01*
X136705042Y-82054819D02*
X136609804Y-82197676D01*
X136609804Y-82197676D02*
X136514566Y-82292914D01*
X136514566Y-82292914D02*
X136419328Y-82340533D01*
X137943137Y-83054819D02*
X137371709Y-83054819D01*
X137657423Y-83054819D02*
X137657423Y-82054819D01*
X137657423Y-82054819D02*
X137562185Y-82197676D01*
X137562185Y-82197676D02*
X137466947Y-82292914D01*
X137466947Y-82292914D02*
X137371709Y-82340533D01*
X138371709Y-83054819D02*
X138371709Y-82388152D01*
X138371709Y-82054819D02*
X138324090Y-82102438D01*
X138324090Y-82102438D02*
X138371709Y-82150057D01*
X138371709Y-82150057D02*
X138419328Y-82102438D01*
X138419328Y-82102438D02*
X138371709Y-82054819D01*
X138371709Y-82054819D02*
X138371709Y-82150057D01*
X138847899Y-82388152D02*
X138847899Y-83054819D01*
X138847899Y-82483390D02*
X138895518Y-82435771D01*
X138895518Y-82435771D02*
X138990756Y-82388152D01*
X138990756Y-82388152D02*
X139133613Y-82388152D01*
X139133613Y-82388152D02*
X139228851Y-82435771D01*
X139228851Y-82435771D02*
X139276470Y-82531009D01*
X139276470Y-82531009D02*
X139276470Y-83054819D01*
X140466946Y-82007200D02*
X139609804Y-83292914D01*
X140752661Y-82150057D02*
X140800280Y-82102438D01*
X140800280Y-82102438D02*
X140895518Y-82054819D01*
X140895518Y-82054819D02*
X141133613Y-82054819D01*
X141133613Y-82054819D02*
X141228851Y-82102438D01*
X141228851Y-82102438D02*
X141276470Y-82150057D01*
X141276470Y-82150057D02*
X141324089Y-82245295D01*
X141324089Y-82245295D02*
X141324089Y-82340533D01*
X141324089Y-82340533D02*
X141276470Y-82483390D01*
X141276470Y-82483390D02*
X140705042Y-83054819D01*
X140705042Y-83054819D02*
X141324089Y-83054819D01*
X141752661Y-82959580D02*
X141800280Y-83007200D01*
X141800280Y-83007200D02*
X141752661Y-83054819D01*
X141752661Y-83054819D02*
X141705042Y-83007200D01*
X141705042Y-83007200D02*
X141752661Y-82959580D01*
X141752661Y-82959580D02*
X141752661Y-83054819D01*
X142371708Y-82483390D02*
X142276470Y-82435771D01*
X142276470Y-82435771D02*
X142228851Y-82388152D01*
X142228851Y-82388152D02*
X142181232Y-82292914D01*
X142181232Y-82292914D02*
X142181232Y-82245295D01*
X142181232Y-82245295D02*
X142228851Y-82150057D01*
X142228851Y-82150057D02*
X142276470Y-82102438D01*
X142276470Y-82102438D02*
X142371708Y-82054819D01*
X142371708Y-82054819D02*
X142562184Y-82054819D01*
X142562184Y-82054819D02*
X142657422Y-82102438D01*
X142657422Y-82102438D02*
X142705041Y-82150057D01*
X142705041Y-82150057D02*
X142752660Y-82245295D01*
X142752660Y-82245295D02*
X142752660Y-82292914D01*
X142752660Y-82292914D02*
X142705041Y-82388152D01*
X142705041Y-82388152D02*
X142657422Y-82435771D01*
X142657422Y-82435771D02*
X142562184Y-82483390D01*
X142562184Y-82483390D02*
X142371708Y-82483390D01*
X142371708Y-82483390D02*
X142276470Y-82531009D01*
X142276470Y-82531009D02*
X142228851Y-82578628D01*
X142228851Y-82578628D02*
X142181232Y-82673866D01*
X142181232Y-82673866D02*
X142181232Y-82864342D01*
X142181232Y-82864342D02*
X142228851Y-82959580D01*
X142228851Y-82959580D02*
X142276470Y-83007200D01*
X142276470Y-83007200D02*
X142371708Y-83054819D01*
X142371708Y-83054819D02*
X142562184Y-83054819D01*
X142562184Y-83054819D02*
X142657422Y-83007200D01*
X142657422Y-83007200D02*
X142705041Y-82959580D01*
X142705041Y-82959580D02*
X142752660Y-82864342D01*
X142752660Y-82864342D02*
X142752660Y-82673866D01*
X142752660Y-82673866D02*
X142705041Y-82578628D01*
X142705041Y-82578628D02*
X142657422Y-82531009D01*
X142657422Y-82531009D02*
X142562184Y-82483390D01*
X143181232Y-83054819D02*
X143181232Y-82388152D01*
X143181232Y-82483390D02*
X143228851Y-82435771D01*
X143228851Y-82435771D02*
X143324089Y-82388152D01*
X143324089Y-82388152D02*
X143466946Y-82388152D01*
X143466946Y-82388152D02*
X143562184Y-82435771D01*
X143562184Y-82435771D02*
X143609803Y-82531009D01*
X143609803Y-82531009D02*
X143609803Y-83054819D01*
X143609803Y-82531009D02*
X143657422Y-82435771D01*
X143657422Y-82435771D02*
X143752660Y-82388152D01*
X143752660Y-82388152D02*
X143895517Y-82388152D01*
X143895517Y-82388152D02*
X143990756Y-82435771D01*
X143990756Y-82435771D02*
X144038375Y-82531009D01*
X144038375Y-82531009D02*
X144038375Y-83054819D01*
X144514565Y-83054819D02*
X144514565Y-82388152D01*
X144514565Y-82483390D02*
X144562184Y-82435771D01*
X144562184Y-82435771D02*
X144657422Y-82388152D01*
X144657422Y-82388152D02*
X144800279Y-82388152D01*
X144800279Y-82388152D02*
X144895517Y-82435771D01*
X144895517Y-82435771D02*
X144943136Y-82531009D01*
X144943136Y-82531009D02*
X144943136Y-83054819D01*
X144943136Y-82531009D02*
X144990755Y-82435771D01*
X144990755Y-82435771D02*
X145085993Y-82388152D01*
X145085993Y-82388152D02*
X145228850Y-82388152D01*
X145228850Y-82388152D02*
X145324089Y-82435771D01*
X145324089Y-82435771D02*
X145371708Y-82531009D01*
X145371708Y-82531009D02*
X145371708Y-83054819D01*
X142480662Y-86002819D02*
X142575900Y-86002819D01*
X142575900Y-86002819D02*
X142671138Y-86050438D01*
X142671138Y-86050438D02*
X142718757Y-86098057D01*
X142718757Y-86098057D02*
X142766376Y-86193295D01*
X142766376Y-86193295D02*
X142813995Y-86383771D01*
X142813995Y-86383771D02*
X142813995Y-86621866D01*
X142813995Y-86621866D02*
X142766376Y-86812342D01*
X142766376Y-86812342D02*
X142718757Y-86907580D01*
X142718757Y-86907580D02*
X142671138Y-86955200D01*
X142671138Y-86955200D02*
X142575900Y-87002819D01*
X142575900Y-87002819D02*
X142480662Y-87002819D01*
X142480662Y-87002819D02*
X142385424Y-86955200D01*
X142385424Y-86955200D02*
X142337805Y-86907580D01*
X142337805Y-86907580D02*
X142290186Y-86812342D01*
X142290186Y-86812342D02*
X142242567Y-86621866D01*
X142242567Y-86621866D02*
X142242567Y-86383771D01*
X142242567Y-86383771D02*
X142290186Y-86193295D01*
X142290186Y-86193295D02*
X142337805Y-86098057D01*
X142337805Y-86098057D02*
X142385424Y-86050438D01*
X142385424Y-86050438D02*
X142480662Y-86002819D01*
X143242567Y-86907580D02*
X143290186Y-86955200D01*
X143290186Y-86955200D02*
X143242567Y-87002819D01*
X143242567Y-87002819D02*
X143194948Y-86955200D01*
X143194948Y-86955200D02*
X143242567Y-86907580D01*
X143242567Y-86907580D02*
X143242567Y-87002819D01*
X143909233Y-86002819D02*
X144004471Y-86002819D01*
X144004471Y-86002819D02*
X144099709Y-86050438D01*
X144099709Y-86050438D02*
X144147328Y-86098057D01*
X144147328Y-86098057D02*
X144194947Y-86193295D01*
X144194947Y-86193295D02*
X144242566Y-86383771D01*
X144242566Y-86383771D02*
X144242566Y-86621866D01*
X144242566Y-86621866D02*
X144194947Y-86812342D01*
X144194947Y-86812342D02*
X144147328Y-86907580D01*
X144147328Y-86907580D02*
X144099709Y-86955200D01*
X144099709Y-86955200D02*
X144004471Y-87002819D01*
X144004471Y-87002819D02*
X143909233Y-87002819D01*
X143909233Y-87002819D02*
X143813995Y-86955200D01*
X143813995Y-86955200D02*
X143766376Y-86907580D01*
X143766376Y-86907580D02*
X143718757Y-86812342D01*
X143718757Y-86812342D02*
X143671138Y-86621866D01*
X143671138Y-86621866D02*
X143671138Y-86383771D01*
X143671138Y-86383771D02*
X143718757Y-86193295D01*
X143718757Y-86193295D02*
X143766376Y-86098057D01*
X143766376Y-86098057D02*
X143813995Y-86050438D01*
X143813995Y-86050438D02*
X143909233Y-86002819D01*
X144575900Y-86002819D02*
X145194947Y-86002819D01*
X145194947Y-86002819D02*
X144861614Y-86383771D01*
X144861614Y-86383771D02*
X145004471Y-86383771D01*
X145004471Y-86383771D02*
X145099709Y-86431390D01*
X145099709Y-86431390D02*
X145147328Y-86479009D01*
X145147328Y-86479009D02*
X145194947Y-86574247D01*
X145194947Y-86574247D02*
X145194947Y-86812342D01*
X145194947Y-86812342D02*
X145147328Y-86907580D01*
X145147328Y-86907580D02*
X145099709Y-86955200D01*
X145099709Y-86955200D02*
X145004471Y-87002819D01*
X145004471Y-87002819D02*
X144718757Y-87002819D01*
X144718757Y-87002819D02*
X144623519Y-86955200D01*
X144623519Y-86955200D02*
X144575900Y-86907580D01*
X146147328Y-87002819D02*
X145575900Y-87002819D01*
X145861614Y-87002819D02*
X145861614Y-86002819D01*
X145861614Y-86002819D02*
X145766376Y-86145676D01*
X145766376Y-86145676D02*
X145671138Y-86240914D01*
X145671138Y-86240914D02*
X145575900Y-86288533D01*
X146575900Y-87002819D02*
X146575900Y-86336152D01*
X146575900Y-86002819D02*
X146528281Y-86050438D01*
X146528281Y-86050438D02*
X146575900Y-86098057D01*
X146575900Y-86098057D02*
X146623519Y-86050438D01*
X146623519Y-86050438D02*
X146575900Y-86002819D01*
X146575900Y-86002819D02*
X146575900Y-86098057D01*
X147052090Y-86336152D02*
X147052090Y-87002819D01*
X147052090Y-86431390D02*
X147099709Y-86383771D01*
X147099709Y-86383771D02*
X147194947Y-86336152D01*
X147194947Y-86336152D02*
X147337804Y-86336152D01*
X147337804Y-86336152D02*
X147433042Y-86383771D01*
X147433042Y-86383771D02*
X147480661Y-86479009D01*
X147480661Y-86479009D02*
X147480661Y-87002819D01*
X148671137Y-85955200D02*
X147813995Y-87240914D01*
X149194947Y-86002819D02*
X149290185Y-86002819D01*
X149290185Y-86002819D02*
X149385423Y-86050438D01*
X149385423Y-86050438D02*
X149433042Y-86098057D01*
X149433042Y-86098057D02*
X149480661Y-86193295D01*
X149480661Y-86193295D02*
X149528280Y-86383771D01*
X149528280Y-86383771D02*
X149528280Y-86621866D01*
X149528280Y-86621866D02*
X149480661Y-86812342D01*
X149480661Y-86812342D02*
X149433042Y-86907580D01*
X149433042Y-86907580D02*
X149385423Y-86955200D01*
X149385423Y-86955200D02*
X149290185Y-87002819D01*
X149290185Y-87002819D02*
X149194947Y-87002819D01*
X149194947Y-87002819D02*
X149099709Y-86955200D01*
X149099709Y-86955200D02*
X149052090Y-86907580D01*
X149052090Y-86907580D02*
X149004471Y-86812342D01*
X149004471Y-86812342D02*
X148956852Y-86621866D01*
X148956852Y-86621866D02*
X148956852Y-86383771D01*
X148956852Y-86383771D02*
X149004471Y-86193295D01*
X149004471Y-86193295D02*
X149052090Y-86098057D01*
X149052090Y-86098057D02*
X149099709Y-86050438D01*
X149099709Y-86050438D02*
X149194947Y-86002819D01*
X149956852Y-86907580D02*
X150004471Y-86955200D01*
X150004471Y-86955200D02*
X149956852Y-87002819D01*
X149956852Y-87002819D02*
X149909233Y-86955200D01*
X149909233Y-86955200D02*
X149956852Y-86907580D01*
X149956852Y-86907580D02*
X149956852Y-87002819D01*
X150575899Y-86431390D02*
X150480661Y-86383771D01*
X150480661Y-86383771D02*
X150433042Y-86336152D01*
X150433042Y-86336152D02*
X150385423Y-86240914D01*
X150385423Y-86240914D02*
X150385423Y-86193295D01*
X150385423Y-86193295D02*
X150433042Y-86098057D01*
X150433042Y-86098057D02*
X150480661Y-86050438D01*
X150480661Y-86050438D02*
X150575899Y-86002819D01*
X150575899Y-86002819D02*
X150766375Y-86002819D01*
X150766375Y-86002819D02*
X150861613Y-86050438D01*
X150861613Y-86050438D02*
X150909232Y-86098057D01*
X150909232Y-86098057D02*
X150956851Y-86193295D01*
X150956851Y-86193295D02*
X150956851Y-86240914D01*
X150956851Y-86240914D02*
X150909232Y-86336152D01*
X150909232Y-86336152D02*
X150861613Y-86383771D01*
X150861613Y-86383771D02*
X150766375Y-86431390D01*
X150766375Y-86431390D02*
X150575899Y-86431390D01*
X150575899Y-86431390D02*
X150480661Y-86479009D01*
X150480661Y-86479009D02*
X150433042Y-86526628D01*
X150433042Y-86526628D02*
X150385423Y-86621866D01*
X150385423Y-86621866D02*
X150385423Y-86812342D01*
X150385423Y-86812342D02*
X150433042Y-86907580D01*
X150433042Y-86907580D02*
X150480661Y-86955200D01*
X150480661Y-86955200D02*
X150575899Y-87002819D01*
X150575899Y-87002819D02*
X150766375Y-87002819D01*
X150766375Y-87002819D02*
X150861613Y-86955200D01*
X150861613Y-86955200D02*
X150909232Y-86907580D01*
X150909232Y-86907580D02*
X150956851Y-86812342D01*
X150956851Y-86812342D02*
X150956851Y-86621866D01*
X150956851Y-86621866D02*
X150909232Y-86526628D01*
X150909232Y-86526628D02*
X150861613Y-86479009D01*
X150861613Y-86479009D02*
X150766375Y-86431390D01*
X151385423Y-87002819D02*
X151385423Y-86336152D01*
X151385423Y-86431390D02*
X151433042Y-86383771D01*
X151433042Y-86383771D02*
X151528280Y-86336152D01*
X151528280Y-86336152D02*
X151671137Y-86336152D01*
X151671137Y-86336152D02*
X151766375Y-86383771D01*
X151766375Y-86383771D02*
X151813994Y-86479009D01*
X151813994Y-86479009D02*
X151813994Y-87002819D01*
X151813994Y-86479009D02*
X151861613Y-86383771D01*
X151861613Y-86383771D02*
X151956851Y-86336152D01*
X151956851Y-86336152D02*
X152099708Y-86336152D01*
X152099708Y-86336152D02*
X152194947Y-86383771D01*
X152194947Y-86383771D02*
X152242566Y-86479009D01*
X152242566Y-86479009D02*
X152242566Y-87002819D01*
X152718756Y-87002819D02*
X152718756Y-86336152D01*
X152718756Y-86431390D02*
X152766375Y-86383771D01*
X152766375Y-86383771D02*
X152861613Y-86336152D01*
X152861613Y-86336152D02*
X153004470Y-86336152D01*
X153004470Y-86336152D02*
X153099708Y-86383771D01*
X153099708Y-86383771D02*
X153147327Y-86479009D01*
X153147327Y-86479009D02*
X153147327Y-87002819D01*
X153147327Y-86479009D02*
X153194946Y-86383771D01*
X153194946Y-86383771D02*
X153290184Y-86336152D01*
X153290184Y-86336152D02*
X153433041Y-86336152D01*
X153433041Y-86336152D02*
X153528280Y-86383771D01*
X153528280Y-86383771D02*
X153575899Y-86479009D01*
X153575899Y-86479009D02*
X153575899Y-87002819D01*
%TO.C,U5*%
X175172869Y-79806819D02*
X175268107Y-79806819D01*
X175268107Y-79806819D02*
X175363345Y-79854438D01*
X175363345Y-79854438D02*
X175410964Y-79902057D01*
X175410964Y-79902057D02*
X175458583Y-79997295D01*
X175458583Y-79997295D02*
X175506202Y-80187771D01*
X175506202Y-80187771D02*
X175506202Y-80425866D01*
X175506202Y-80425866D02*
X175458583Y-80616342D01*
X175458583Y-80616342D02*
X175410964Y-80711580D01*
X175410964Y-80711580D02*
X175363345Y-80759200D01*
X175363345Y-80759200D02*
X175268107Y-80806819D01*
X175268107Y-80806819D02*
X175172869Y-80806819D01*
X175172869Y-80806819D02*
X175077631Y-80759200D01*
X175077631Y-80759200D02*
X175030012Y-80711580D01*
X175030012Y-80711580D02*
X174982393Y-80616342D01*
X174982393Y-80616342D02*
X174934774Y-80425866D01*
X174934774Y-80425866D02*
X174934774Y-80187771D01*
X174934774Y-80187771D02*
X174982393Y-79997295D01*
X174982393Y-79997295D02*
X175030012Y-79902057D01*
X175030012Y-79902057D02*
X175077631Y-79854438D01*
X175077631Y-79854438D02*
X175172869Y-79806819D01*
X175934774Y-80711580D02*
X175982393Y-80759200D01*
X175982393Y-80759200D02*
X175934774Y-80806819D01*
X175934774Y-80806819D02*
X175887155Y-80759200D01*
X175887155Y-80759200D02*
X175934774Y-80711580D01*
X175934774Y-80711580D02*
X175934774Y-80806819D01*
X176601440Y-79806819D02*
X176696678Y-79806819D01*
X176696678Y-79806819D02*
X176791916Y-79854438D01*
X176791916Y-79854438D02*
X176839535Y-79902057D01*
X176839535Y-79902057D02*
X176887154Y-79997295D01*
X176887154Y-79997295D02*
X176934773Y-80187771D01*
X176934773Y-80187771D02*
X176934773Y-80425866D01*
X176934773Y-80425866D02*
X176887154Y-80616342D01*
X176887154Y-80616342D02*
X176839535Y-80711580D01*
X176839535Y-80711580D02*
X176791916Y-80759200D01*
X176791916Y-80759200D02*
X176696678Y-80806819D01*
X176696678Y-80806819D02*
X176601440Y-80806819D01*
X176601440Y-80806819D02*
X176506202Y-80759200D01*
X176506202Y-80759200D02*
X176458583Y-80711580D01*
X176458583Y-80711580D02*
X176410964Y-80616342D01*
X176410964Y-80616342D02*
X176363345Y-80425866D01*
X176363345Y-80425866D02*
X176363345Y-80187771D01*
X176363345Y-80187771D02*
X176410964Y-79997295D01*
X176410964Y-79997295D02*
X176458583Y-79902057D01*
X176458583Y-79902057D02*
X176506202Y-79854438D01*
X176506202Y-79854438D02*
X176601440Y-79806819D01*
X177268107Y-79806819D02*
X177887154Y-79806819D01*
X177887154Y-79806819D02*
X177553821Y-80187771D01*
X177553821Y-80187771D02*
X177696678Y-80187771D01*
X177696678Y-80187771D02*
X177791916Y-80235390D01*
X177791916Y-80235390D02*
X177839535Y-80283009D01*
X177839535Y-80283009D02*
X177887154Y-80378247D01*
X177887154Y-80378247D02*
X177887154Y-80616342D01*
X177887154Y-80616342D02*
X177839535Y-80711580D01*
X177839535Y-80711580D02*
X177791916Y-80759200D01*
X177791916Y-80759200D02*
X177696678Y-80806819D01*
X177696678Y-80806819D02*
X177410964Y-80806819D01*
X177410964Y-80806819D02*
X177315726Y-80759200D01*
X177315726Y-80759200D02*
X177268107Y-80711580D01*
X178839535Y-80806819D02*
X178268107Y-80806819D01*
X178553821Y-80806819D02*
X178553821Y-79806819D01*
X178553821Y-79806819D02*
X178458583Y-79949676D01*
X178458583Y-79949676D02*
X178363345Y-80044914D01*
X178363345Y-80044914D02*
X178268107Y-80092533D01*
X179268107Y-80806819D02*
X179268107Y-80140152D01*
X179268107Y-79806819D02*
X179220488Y-79854438D01*
X179220488Y-79854438D02*
X179268107Y-79902057D01*
X179268107Y-79902057D02*
X179315726Y-79854438D01*
X179315726Y-79854438D02*
X179268107Y-79806819D01*
X179268107Y-79806819D02*
X179268107Y-79902057D01*
X179744297Y-80140152D02*
X179744297Y-80806819D01*
X179744297Y-80235390D02*
X179791916Y-80187771D01*
X179791916Y-80187771D02*
X179887154Y-80140152D01*
X179887154Y-80140152D02*
X180030011Y-80140152D01*
X180030011Y-80140152D02*
X180125249Y-80187771D01*
X180125249Y-80187771D02*
X180172868Y-80283009D01*
X180172868Y-80283009D02*
X180172868Y-80806819D01*
X181363344Y-79759200D02*
X180506202Y-81044914D01*
X181887154Y-79806819D02*
X181982392Y-79806819D01*
X181982392Y-79806819D02*
X182077630Y-79854438D01*
X182077630Y-79854438D02*
X182125249Y-79902057D01*
X182125249Y-79902057D02*
X182172868Y-79997295D01*
X182172868Y-79997295D02*
X182220487Y-80187771D01*
X182220487Y-80187771D02*
X182220487Y-80425866D01*
X182220487Y-80425866D02*
X182172868Y-80616342D01*
X182172868Y-80616342D02*
X182125249Y-80711580D01*
X182125249Y-80711580D02*
X182077630Y-80759200D01*
X182077630Y-80759200D02*
X181982392Y-80806819D01*
X181982392Y-80806819D02*
X181887154Y-80806819D01*
X181887154Y-80806819D02*
X181791916Y-80759200D01*
X181791916Y-80759200D02*
X181744297Y-80711580D01*
X181744297Y-80711580D02*
X181696678Y-80616342D01*
X181696678Y-80616342D02*
X181649059Y-80425866D01*
X181649059Y-80425866D02*
X181649059Y-80187771D01*
X181649059Y-80187771D02*
X181696678Y-79997295D01*
X181696678Y-79997295D02*
X181744297Y-79902057D01*
X181744297Y-79902057D02*
X181791916Y-79854438D01*
X181791916Y-79854438D02*
X181887154Y-79806819D01*
X182649059Y-80711580D02*
X182696678Y-80759200D01*
X182696678Y-80759200D02*
X182649059Y-80806819D01*
X182649059Y-80806819D02*
X182601440Y-80759200D01*
X182601440Y-80759200D02*
X182649059Y-80711580D01*
X182649059Y-80711580D02*
X182649059Y-80806819D01*
X183268106Y-80235390D02*
X183172868Y-80187771D01*
X183172868Y-80187771D02*
X183125249Y-80140152D01*
X183125249Y-80140152D02*
X183077630Y-80044914D01*
X183077630Y-80044914D02*
X183077630Y-79997295D01*
X183077630Y-79997295D02*
X183125249Y-79902057D01*
X183125249Y-79902057D02*
X183172868Y-79854438D01*
X183172868Y-79854438D02*
X183268106Y-79806819D01*
X183268106Y-79806819D02*
X183458582Y-79806819D01*
X183458582Y-79806819D02*
X183553820Y-79854438D01*
X183553820Y-79854438D02*
X183601439Y-79902057D01*
X183601439Y-79902057D02*
X183649058Y-79997295D01*
X183649058Y-79997295D02*
X183649058Y-80044914D01*
X183649058Y-80044914D02*
X183601439Y-80140152D01*
X183601439Y-80140152D02*
X183553820Y-80187771D01*
X183553820Y-80187771D02*
X183458582Y-80235390D01*
X183458582Y-80235390D02*
X183268106Y-80235390D01*
X183268106Y-80235390D02*
X183172868Y-80283009D01*
X183172868Y-80283009D02*
X183125249Y-80330628D01*
X183125249Y-80330628D02*
X183077630Y-80425866D01*
X183077630Y-80425866D02*
X183077630Y-80616342D01*
X183077630Y-80616342D02*
X183125249Y-80711580D01*
X183125249Y-80711580D02*
X183172868Y-80759200D01*
X183172868Y-80759200D02*
X183268106Y-80806819D01*
X183268106Y-80806819D02*
X183458582Y-80806819D01*
X183458582Y-80806819D02*
X183553820Y-80759200D01*
X183553820Y-80759200D02*
X183601439Y-80711580D01*
X183601439Y-80711580D02*
X183649058Y-80616342D01*
X183649058Y-80616342D02*
X183649058Y-80425866D01*
X183649058Y-80425866D02*
X183601439Y-80330628D01*
X183601439Y-80330628D02*
X183553820Y-80283009D01*
X183553820Y-80283009D02*
X183458582Y-80235390D01*
X184077630Y-80806819D02*
X184077630Y-80140152D01*
X184077630Y-80235390D02*
X184125249Y-80187771D01*
X184125249Y-80187771D02*
X184220487Y-80140152D01*
X184220487Y-80140152D02*
X184363344Y-80140152D01*
X184363344Y-80140152D02*
X184458582Y-80187771D01*
X184458582Y-80187771D02*
X184506201Y-80283009D01*
X184506201Y-80283009D02*
X184506201Y-80806819D01*
X184506201Y-80283009D02*
X184553820Y-80187771D01*
X184553820Y-80187771D02*
X184649058Y-80140152D01*
X184649058Y-80140152D02*
X184791915Y-80140152D01*
X184791915Y-80140152D02*
X184887154Y-80187771D01*
X184887154Y-80187771D02*
X184934773Y-80283009D01*
X184934773Y-80283009D02*
X184934773Y-80806819D01*
X185410963Y-80806819D02*
X185410963Y-80140152D01*
X185410963Y-80235390D02*
X185458582Y-80187771D01*
X185458582Y-80187771D02*
X185553820Y-80140152D01*
X185553820Y-80140152D02*
X185696677Y-80140152D01*
X185696677Y-80140152D02*
X185791915Y-80187771D01*
X185791915Y-80187771D02*
X185839534Y-80283009D01*
X185839534Y-80283009D02*
X185839534Y-80806819D01*
X185839534Y-80283009D02*
X185887153Y-80187771D01*
X185887153Y-80187771D02*
X185982391Y-80140152D01*
X185982391Y-80140152D02*
X186125248Y-80140152D01*
X186125248Y-80140152D02*
X186220487Y-80187771D01*
X186220487Y-80187771D02*
X186268106Y-80283009D01*
X186268106Y-80283009D02*
X186268106Y-80806819D01*
D11*
X177079415Y-84346553D02*
X177073367Y-84352601D01*
X177073367Y-84352601D02*
X177055225Y-84358648D01*
X177055225Y-84358648D02*
X177043129Y-84358648D01*
X177043129Y-84358648D02*
X177024986Y-84352601D01*
X177024986Y-84352601D02*
X177012891Y-84340505D01*
X177012891Y-84340505D02*
X177006844Y-84328410D01*
X177006844Y-84328410D02*
X177000796Y-84304220D01*
X177000796Y-84304220D02*
X177000796Y-84286077D01*
X177000796Y-84286077D02*
X177006844Y-84261886D01*
X177006844Y-84261886D02*
X177012891Y-84249791D01*
X177012891Y-84249791D02*
X177024986Y-84237696D01*
X177024986Y-84237696D02*
X177043129Y-84231648D01*
X177043129Y-84231648D02*
X177055225Y-84231648D01*
X177055225Y-84231648D02*
X177073367Y-84237696D01*
X177073367Y-84237696D02*
X177079415Y-84243743D01*
X177151986Y-84358648D02*
X177139891Y-84352601D01*
X177139891Y-84352601D02*
X177133844Y-84346553D01*
X177133844Y-84346553D02*
X177127796Y-84334458D01*
X177127796Y-84334458D02*
X177127796Y-84298172D01*
X177127796Y-84298172D02*
X177133844Y-84286077D01*
X177133844Y-84286077D02*
X177139891Y-84280029D01*
X177139891Y-84280029D02*
X177151986Y-84273981D01*
X177151986Y-84273981D02*
X177170129Y-84273981D01*
X177170129Y-84273981D02*
X177182225Y-84280029D01*
X177182225Y-84280029D02*
X177188272Y-84286077D01*
X177188272Y-84286077D02*
X177194320Y-84298172D01*
X177194320Y-84298172D02*
X177194320Y-84334458D01*
X177194320Y-84334458D02*
X177188272Y-84346553D01*
X177188272Y-84346553D02*
X177182225Y-84352601D01*
X177182225Y-84352601D02*
X177170129Y-84358648D01*
X177170129Y-84358648D02*
X177151986Y-84358648D01*
X177248749Y-84273981D02*
X177248749Y-84400981D01*
X177248749Y-84280029D02*
X177260844Y-84273981D01*
X177260844Y-84273981D02*
X177285034Y-84273981D01*
X177285034Y-84273981D02*
X177297130Y-84280029D01*
X177297130Y-84280029D02*
X177303177Y-84286077D01*
X177303177Y-84286077D02*
X177309225Y-84298172D01*
X177309225Y-84298172D02*
X177309225Y-84334458D01*
X177309225Y-84334458D02*
X177303177Y-84346553D01*
X177303177Y-84346553D02*
X177297130Y-84352601D01*
X177297130Y-84352601D02*
X177285034Y-84358648D01*
X177285034Y-84358648D02*
X177260844Y-84358648D01*
X177260844Y-84358648D02*
X177248749Y-84352601D01*
X177351558Y-84273981D02*
X177381796Y-84358648D01*
X177412035Y-84273981D02*
X177381796Y-84358648D01*
X177381796Y-84358648D02*
X177369701Y-84388886D01*
X177369701Y-84388886D02*
X177363654Y-84394934D01*
X177363654Y-84394934D02*
X177351558Y-84400981D01*
X177460416Y-84358648D02*
X177460416Y-84273981D01*
X177460416Y-84298172D02*
X177466463Y-84286077D01*
X177466463Y-84286077D02*
X177472511Y-84280029D01*
X177472511Y-84280029D02*
X177484606Y-84273981D01*
X177484606Y-84273981D02*
X177496701Y-84273981D01*
X177539035Y-84358648D02*
X177539035Y-84273981D01*
X177539035Y-84231648D02*
X177532987Y-84237696D01*
X177532987Y-84237696D02*
X177539035Y-84243743D01*
X177539035Y-84243743D02*
X177545082Y-84237696D01*
X177545082Y-84237696D02*
X177539035Y-84231648D01*
X177539035Y-84231648D02*
X177539035Y-84243743D01*
X177653939Y-84273981D02*
X177653939Y-84376791D01*
X177653939Y-84376791D02*
X177647892Y-84388886D01*
X177647892Y-84388886D02*
X177641844Y-84394934D01*
X177641844Y-84394934D02*
X177629749Y-84400981D01*
X177629749Y-84400981D02*
X177611606Y-84400981D01*
X177611606Y-84400981D02*
X177599511Y-84394934D01*
X177653939Y-84352601D02*
X177641844Y-84358648D01*
X177641844Y-84358648D02*
X177617653Y-84358648D01*
X177617653Y-84358648D02*
X177605558Y-84352601D01*
X177605558Y-84352601D02*
X177599511Y-84346553D01*
X177599511Y-84346553D02*
X177593463Y-84334458D01*
X177593463Y-84334458D02*
X177593463Y-84298172D01*
X177593463Y-84298172D02*
X177599511Y-84286077D01*
X177599511Y-84286077D02*
X177605558Y-84280029D01*
X177605558Y-84280029D02*
X177617653Y-84273981D01*
X177617653Y-84273981D02*
X177641844Y-84273981D01*
X177641844Y-84273981D02*
X177653939Y-84280029D01*
X177714416Y-84358648D02*
X177714416Y-84231648D01*
X177768844Y-84358648D02*
X177768844Y-84292124D01*
X177768844Y-84292124D02*
X177762797Y-84280029D01*
X177762797Y-84280029D02*
X177750701Y-84273981D01*
X177750701Y-84273981D02*
X177732558Y-84273981D01*
X177732558Y-84273981D02*
X177720463Y-84280029D01*
X177720463Y-84280029D02*
X177714416Y-84286077D01*
X177811178Y-84273981D02*
X177859559Y-84273981D01*
X177829321Y-84231648D02*
X177829321Y-84340505D01*
X177829321Y-84340505D02*
X177835368Y-84352601D01*
X177835368Y-84352601D02*
X177847463Y-84358648D01*
X177847463Y-84358648D02*
X177859559Y-84358648D01*
X177992606Y-84243743D02*
X177998654Y-84237696D01*
X177998654Y-84237696D02*
X178010749Y-84231648D01*
X178010749Y-84231648D02*
X178040987Y-84231648D01*
X178040987Y-84231648D02*
X178053082Y-84237696D01*
X178053082Y-84237696D02*
X178059130Y-84243743D01*
X178059130Y-84243743D02*
X178065177Y-84255839D01*
X178065177Y-84255839D02*
X178065177Y-84267934D01*
X178065177Y-84267934D02*
X178059130Y-84286077D01*
X178059130Y-84286077D02*
X177986558Y-84358648D01*
X177986558Y-84358648D02*
X178065177Y-84358648D01*
X178143796Y-84231648D02*
X178155891Y-84231648D01*
X178155891Y-84231648D02*
X178167987Y-84237696D01*
X178167987Y-84237696D02*
X178174034Y-84243743D01*
X178174034Y-84243743D02*
X178180082Y-84255839D01*
X178180082Y-84255839D02*
X178186129Y-84280029D01*
X178186129Y-84280029D02*
X178186129Y-84310267D01*
X178186129Y-84310267D02*
X178180082Y-84334458D01*
X178180082Y-84334458D02*
X178174034Y-84346553D01*
X178174034Y-84346553D02*
X178167987Y-84352601D01*
X178167987Y-84352601D02*
X178155891Y-84358648D01*
X178155891Y-84358648D02*
X178143796Y-84358648D01*
X178143796Y-84358648D02*
X178131701Y-84352601D01*
X178131701Y-84352601D02*
X178125653Y-84346553D01*
X178125653Y-84346553D02*
X178119606Y-84334458D01*
X178119606Y-84334458D02*
X178113558Y-84310267D01*
X178113558Y-84310267D02*
X178113558Y-84280029D01*
X178113558Y-84280029D02*
X178119606Y-84255839D01*
X178119606Y-84255839D02*
X178125653Y-84243743D01*
X178125653Y-84243743D02*
X178131701Y-84237696D01*
X178131701Y-84237696D02*
X178143796Y-84231648D01*
X178234510Y-84243743D02*
X178240558Y-84237696D01*
X178240558Y-84237696D02*
X178252653Y-84231648D01*
X178252653Y-84231648D02*
X178282891Y-84231648D01*
X178282891Y-84231648D02*
X178294986Y-84237696D01*
X178294986Y-84237696D02*
X178301034Y-84243743D01*
X178301034Y-84243743D02*
X178307081Y-84255839D01*
X178307081Y-84255839D02*
X178307081Y-84267934D01*
X178307081Y-84267934D02*
X178301034Y-84286077D01*
X178301034Y-84286077D02*
X178228462Y-84358648D01*
X178228462Y-84358648D02*
X178307081Y-84358648D01*
X178428033Y-84358648D02*
X178355462Y-84358648D01*
X178391748Y-84358648D02*
X178391748Y-84231648D01*
X178391748Y-84231648D02*
X178379652Y-84249791D01*
X178379652Y-84249791D02*
X178367557Y-84261886D01*
X178367557Y-84261886D02*
X178355462Y-84267934D01*
X178573176Y-84322362D02*
X178633652Y-84322362D01*
X178561081Y-84358648D02*
X178603414Y-84231648D01*
X178603414Y-84231648D02*
X178645747Y-84358648D01*
X178742509Y-84352601D02*
X178730414Y-84358648D01*
X178730414Y-84358648D02*
X178706223Y-84358648D01*
X178706223Y-84358648D02*
X178694128Y-84352601D01*
X178694128Y-84352601D02*
X178688081Y-84346553D01*
X178688081Y-84346553D02*
X178682033Y-84334458D01*
X178682033Y-84334458D02*
X178682033Y-84298172D01*
X178682033Y-84298172D02*
X178688081Y-84286077D01*
X178688081Y-84286077D02*
X178694128Y-84280029D01*
X178694128Y-84280029D02*
X178706223Y-84273981D01*
X178706223Y-84273981D02*
X178730414Y-84273981D01*
X178730414Y-84273981D02*
X178742509Y-84280029D01*
X178851366Y-84352601D02*
X178839271Y-84358648D01*
X178839271Y-84358648D02*
X178815080Y-84358648D01*
X178815080Y-84358648D02*
X178802985Y-84352601D01*
X178802985Y-84352601D02*
X178796938Y-84346553D01*
X178796938Y-84346553D02*
X178790890Y-84334458D01*
X178790890Y-84334458D02*
X178790890Y-84298172D01*
X178790890Y-84298172D02*
X178796938Y-84286077D01*
X178796938Y-84286077D02*
X178802985Y-84280029D01*
X178802985Y-84280029D02*
X178815080Y-84273981D01*
X178815080Y-84273981D02*
X178839271Y-84273981D01*
X178839271Y-84273981D02*
X178851366Y-84280029D01*
X178954176Y-84352601D02*
X178942080Y-84358648D01*
X178942080Y-84358648D02*
X178917890Y-84358648D01*
X178917890Y-84358648D02*
X178905795Y-84352601D01*
X178905795Y-84352601D02*
X178899747Y-84340505D01*
X178899747Y-84340505D02*
X178899747Y-84292124D01*
X178899747Y-84292124D02*
X178905795Y-84280029D01*
X178905795Y-84280029D02*
X178917890Y-84273981D01*
X178917890Y-84273981D02*
X178942080Y-84273981D01*
X178942080Y-84273981D02*
X178954176Y-84280029D01*
X178954176Y-84280029D02*
X178960223Y-84292124D01*
X178960223Y-84292124D02*
X178960223Y-84304220D01*
X178960223Y-84304220D02*
X178899747Y-84316315D01*
X179032794Y-84358648D02*
X179020699Y-84352601D01*
X179020699Y-84352601D02*
X179014652Y-84340505D01*
X179014652Y-84340505D02*
X179014652Y-84231648D01*
X179129557Y-84352601D02*
X179117461Y-84358648D01*
X179117461Y-84358648D02*
X179093271Y-84358648D01*
X179093271Y-84358648D02*
X179081176Y-84352601D01*
X179081176Y-84352601D02*
X179075128Y-84340505D01*
X179075128Y-84340505D02*
X179075128Y-84292124D01*
X179075128Y-84292124D02*
X179081176Y-84280029D01*
X179081176Y-84280029D02*
X179093271Y-84273981D01*
X179093271Y-84273981D02*
X179117461Y-84273981D01*
X179117461Y-84273981D02*
X179129557Y-84280029D01*
X179129557Y-84280029D02*
X179135604Y-84292124D01*
X179135604Y-84292124D02*
X179135604Y-84304220D01*
X179135604Y-84304220D02*
X179075128Y-84316315D01*
X179190033Y-84358648D02*
X179190033Y-84273981D01*
X179190033Y-84298172D02*
X179196080Y-84286077D01*
X179196080Y-84286077D02*
X179202128Y-84280029D01*
X179202128Y-84280029D02*
X179214223Y-84273981D01*
X179214223Y-84273981D02*
X179226318Y-84273981D01*
X179323080Y-84358648D02*
X179323080Y-84292124D01*
X179323080Y-84292124D02*
X179317033Y-84280029D01*
X179317033Y-84280029D02*
X179304937Y-84273981D01*
X179304937Y-84273981D02*
X179280747Y-84273981D01*
X179280747Y-84273981D02*
X179268652Y-84280029D01*
X179323080Y-84352601D02*
X179310985Y-84358648D01*
X179310985Y-84358648D02*
X179280747Y-84358648D01*
X179280747Y-84358648D02*
X179268652Y-84352601D01*
X179268652Y-84352601D02*
X179262604Y-84340505D01*
X179262604Y-84340505D02*
X179262604Y-84328410D01*
X179262604Y-84328410D02*
X179268652Y-84316315D01*
X179268652Y-84316315D02*
X179280747Y-84310267D01*
X179280747Y-84310267D02*
X179310985Y-84310267D01*
X179310985Y-84310267D02*
X179323080Y-84304220D01*
X179365414Y-84273981D02*
X179413795Y-84273981D01*
X179383557Y-84231648D02*
X179383557Y-84340505D01*
X179383557Y-84340505D02*
X179389604Y-84352601D01*
X179389604Y-84352601D02*
X179401699Y-84358648D01*
X179401699Y-84358648D02*
X179413795Y-84358648D01*
X179504509Y-84352601D02*
X179492413Y-84358648D01*
X179492413Y-84358648D02*
X179468223Y-84358648D01*
X179468223Y-84358648D02*
X179456128Y-84352601D01*
X179456128Y-84352601D02*
X179450080Y-84340505D01*
X179450080Y-84340505D02*
X179450080Y-84292124D01*
X179450080Y-84292124D02*
X179456128Y-84280029D01*
X179456128Y-84280029D02*
X179468223Y-84273981D01*
X179468223Y-84273981D02*
X179492413Y-84273981D01*
X179492413Y-84273981D02*
X179504509Y-84280029D01*
X179504509Y-84280029D02*
X179510556Y-84292124D01*
X179510556Y-84292124D02*
X179510556Y-84304220D01*
X179510556Y-84304220D02*
X179450080Y-84316315D01*
X179619413Y-84358648D02*
X179619413Y-84231648D01*
X179619413Y-84352601D02*
X179607318Y-84358648D01*
X179607318Y-84358648D02*
X179583127Y-84358648D01*
X179583127Y-84358648D02*
X179571032Y-84352601D01*
X179571032Y-84352601D02*
X179564985Y-84346553D01*
X179564985Y-84346553D02*
X179558937Y-84334458D01*
X179558937Y-84334458D02*
X179558937Y-84298172D01*
X179558937Y-84298172D02*
X179564985Y-84286077D01*
X179564985Y-84286077D02*
X179571032Y-84280029D01*
X179571032Y-84280029D02*
X179583127Y-84273981D01*
X179583127Y-84273981D02*
X179607318Y-84273981D01*
X179607318Y-84273981D02*
X179619413Y-84280029D01*
X179776652Y-84358648D02*
X179776652Y-84231648D01*
X179776652Y-84231648D02*
X179806890Y-84231648D01*
X179806890Y-84231648D02*
X179825033Y-84237696D01*
X179825033Y-84237696D02*
X179837128Y-84249791D01*
X179837128Y-84249791D02*
X179843175Y-84261886D01*
X179843175Y-84261886D02*
X179849223Y-84286077D01*
X179849223Y-84286077D02*
X179849223Y-84304220D01*
X179849223Y-84304220D02*
X179843175Y-84328410D01*
X179843175Y-84328410D02*
X179837128Y-84340505D01*
X179837128Y-84340505D02*
X179825033Y-84352601D01*
X179825033Y-84352601D02*
X179806890Y-84358648D01*
X179806890Y-84358648D02*
X179776652Y-84358648D01*
X179952033Y-84352601D02*
X179939937Y-84358648D01*
X179939937Y-84358648D02*
X179915747Y-84358648D01*
X179915747Y-84358648D02*
X179903652Y-84352601D01*
X179903652Y-84352601D02*
X179897604Y-84340505D01*
X179897604Y-84340505D02*
X179897604Y-84292124D01*
X179897604Y-84292124D02*
X179903652Y-84280029D01*
X179903652Y-84280029D02*
X179915747Y-84273981D01*
X179915747Y-84273981D02*
X179939937Y-84273981D01*
X179939937Y-84273981D02*
X179952033Y-84280029D01*
X179952033Y-84280029D02*
X179958080Y-84292124D01*
X179958080Y-84292124D02*
X179958080Y-84304220D01*
X179958080Y-84304220D02*
X179897604Y-84316315D01*
X180006461Y-84352601D02*
X180018556Y-84358648D01*
X180018556Y-84358648D02*
X180042747Y-84358648D01*
X180042747Y-84358648D02*
X180054842Y-84352601D01*
X180054842Y-84352601D02*
X180060890Y-84340505D01*
X180060890Y-84340505D02*
X180060890Y-84334458D01*
X180060890Y-84334458D02*
X180054842Y-84322362D01*
X180054842Y-84322362D02*
X180042747Y-84316315D01*
X180042747Y-84316315D02*
X180024604Y-84316315D01*
X180024604Y-84316315D02*
X180012509Y-84310267D01*
X180012509Y-84310267D02*
X180006461Y-84298172D01*
X180006461Y-84298172D02*
X180006461Y-84292124D01*
X180006461Y-84292124D02*
X180012509Y-84280029D01*
X180012509Y-84280029D02*
X180024604Y-84273981D01*
X180024604Y-84273981D02*
X180042747Y-84273981D01*
X180042747Y-84273981D02*
X180054842Y-84280029D01*
X180115319Y-84358648D02*
X180115319Y-84273981D01*
X180115319Y-84231648D02*
X180109271Y-84237696D01*
X180109271Y-84237696D02*
X180115319Y-84243743D01*
X180115319Y-84243743D02*
X180121366Y-84237696D01*
X180121366Y-84237696D02*
X180115319Y-84231648D01*
X180115319Y-84231648D02*
X180115319Y-84243743D01*
X180230223Y-84273981D02*
X180230223Y-84376791D01*
X180230223Y-84376791D02*
X180224176Y-84388886D01*
X180224176Y-84388886D02*
X180218128Y-84394934D01*
X180218128Y-84394934D02*
X180206033Y-84400981D01*
X180206033Y-84400981D02*
X180187890Y-84400981D01*
X180187890Y-84400981D02*
X180175795Y-84394934D01*
X180230223Y-84352601D02*
X180218128Y-84358648D01*
X180218128Y-84358648D02*
X180193937Y-84358648D01*
X180193937Y-84358648D02*
X180181842Y-84352601D01*
X180181842Y-84352601D02*
X180175795Y-84346553D01*
X180175795Y-84346553D02*
X180169747Y-84334458D01*
X180169747Y-84334458D02*
X180169747Y-84298172D01*
X180169747Y-84298172D02*
X180175795Y-84286077D01*
X180175795Y-84286077D02*
X180181842Y-84280029D01*
X180181842Y-84280029D02*
X180193937Y-84273981D01*
X180193937Y-84273981D02*
X180218128Y-84273981D01*
X180218128Y-84273981D02*
X180230223Y-84280029D01*
X180290700Y-84273981D02*
X180290700Y-84358648D01*
X180290700Y-84286077D02*
X180296747Y-84280029D01*
X180296747Y-84280029D02*
X180308842Y-84273981D01*
X180308842Y-84273981D02*
X180326985Y-84273981D01*
X180326985Y-84273981D02*
X180339081Y-84280029D01*
X180339081Y-84280029D02*
X180345128Y-84292124D01*
X180345128Y-84292124D02*
X180345128Y-84358648D01*
X180399557Y-84352601D02*
X180411652Y-84358648D01*
X180411652Y-84358648D02*
X180435843Y-84358648D01*
X180435843Y-84358648D02*
X180447938Y-84352601D01*
X180447938Y-84352601D02*
X180453986Y-84340505D01*
X180453986Y-84340505D02*
X180453986Y-84334458D01*
X180453986Y-84334458D02*
X180447938Y-84322362D01*
X180447938Y-84322362D02*
X180435843Y-84316315D01*
X180435843Y-84316315D02*
X180417700Y-84316315D01*
X180417700Y-84316315D02*
X180405605Y-84310267D01*
X180405605Y-84310267D02*
X180399557Y-84298172D01*
X180399557Y-84298172D02*
X180399557Y-84292124D01*
X180399557Y-84292124D02*
X180405605Y-84280029D01*
X180405605Y-84280029D02*
X180417700Y-84273981D01*
X180417700Y-84273981D02*
X180435843Y-84273981D01*
X180435843Y-84273981D02*
X180447938Y-84280029D01*
X180508415Y-84346553D02*
X180514462Y-84352601D01*
X180514462Y-84352601D02*
X180508415Y-84358648D01*
X180508415Y-84358648D02*
X180502367Y-84352601D01*
X180502367Y-84352601D02*
X180508415Y-84346553D01*
X180508415Y-84346553D02*
X180508415Y-84358648D01*
X180659605Y-84322362D02*
X180720081Y-84322362D01*
X180647510Y-84358648D02*
X180689843Y-84231648D01*
X180689843Y-84231648D02*
X180732176Y-84358648D01*
X180792652Y-84358648D02*
X180780557Y-84352601D01*
X180780557Y-84352601D02*
X180774510Y-84340505D01*
X180774510Y-84340505D02*
X180774510Y-84231648D01*
X180859176Y-84358648D02*
X180847081Y-84352601D01*
X180847081Y-84352601D02*
X180841034Y-84340505D01*
X180841034Y-84340505D02*
X180841034Y-84231648D01*
X181004320Y-84358648D02*
X181004320Y-84273981D01*
X181004320Y-84298172D02*
X181010367Y-84286077D01*
X181010367Y-84286077D02*
X181016415Y-84280029D01*
X181016415Y-84280029D02*
X181028510Y-84273981D01*
X181028510Y-84273981D02*
X181040605Y-84273981D01*
X181082939Y-84358648D02*
X181082939Y-84273981D01*
X181082939Y-84231648D02*
X181076891Y-84237696D01*
X181076891Y-84237696D02*
X181082939Y-84243743D01*
X181082939Y-84243743D02*
X181088986Y-84237696D01*
X181088986Y-84237696D02*
X181082939Y-84231648D01*
X181082939Y-84231648D02*
X181082939Y-84243743D01*
X181197843Y-84273981D02*
X181197843Y-84376791D01*
X181197843Y-84376791D02*
X181191796Y-84388886D01*
X181191796Y-84388886D02*
X181185748Y-84394934D01*
X181185748Y-84394934D02*
X181173653Y-84400981D01*
X181173653Y-84400981D02*
X181155510Y-84400981D01*
X181155510Y-84400981D02*
X181143415Y-84394934D01*
X181197843Y-84352601D02*
X181185748Y-84358648D01*
X181185748Y-84358648D02*
X181161557Y-84358648D01*
X181161557Y-84358648D02*
X181149462Y-84352601D01*
X181149462Y-84352601D02*
X181143415Y-84346553D01*
X181143415Y-84346553D02*
X181137367Y-84334458D01*
X181137367Y-84334458D02*
X181137367Y-84298172D01*
X181137367Y-84298172D02*
X181143415Y-84286077D01*
X181143415Y-84286077D02*
X181149462Y-84280029D01*
X181149462Y-84280029D02*
X181161557Y-84273981D01*
X181161557Y-84273981D02*
X181185748Y-84273981D01*
X181185748Y-84273981D02*
X181197843Y-84280029D01*
X181258320Y-84358648D02*
X181258320Y-84231648D01*
X181312748Y-84358648D02*
X181312748Y-84292124D01*
X181312748Y-84292124D02*
X181306701Y-84280029D01*
X181306701Y-84280029D02*
X181294605Y-84273981D01*
X181294605Y-84273981D02*
X181276462Y-84273981D01*
X181276462Y-84273981D02*
X181264367Y-84280029D01*
X181264367Y-84280029D02*
X181258320Y-84286077D01*
X181355082Y-84273981D02*
X181403463Y-84273981D01*
X181373225Y-84231648D02*
X181373225Y-84340505D01*
X181373225Y-84340505D02*
X181379272Y-84352601D01*
X181379272Y-84352601D02*
X181391367Y-84358648D01*
X181391367Y-84358648D02*
X181403463Y-84358648D01*
X181439748Y-84352601D02*
X181451843Y-84358648D01*
X181451843Y-84358648D02*
X181476034Y-84358648D01*
X181476034Y-84358648D02*
X181488129Y-84352601D01*
X181488129Y-84352601D02*
X181494177Y-84340505D01*
X181494177Y-84340505D02*
X181494177Y-84334458D01*
X181494177Y-84334458D02*
X181488129Y-84322362D01*
X181488129Y-84322362D02*
X181476034Y-84316315D01*
X181476034Y-84316315D02*
X181457891Y-84316315D01*
X181457891Y-84316315D02*
X181445796Y-84310267D01*
X181445796Y-84310267D02*
X181439748Y-84298172D01*
X181439748Y-84298172D02*
X181439748Y-84292124D01*
X181439748Y-84292124D02*
X181445796Y-84280029D01*
X181445796Y-84280029D02*
X181457891Y-84273981D01*
X181457891Y-84273981D02*
X181476034Y-84273981D01*
X181476034Y-84273981D02*
X181488129Y-84280029D01*
X181645368Y-84358648D02*
X181645368Y-84273981D01*
X181645368Y-84298172D02*
X181651415Y-84286077D01*
X181651415Y-84286077D02*
X181657463Y-84280029D01*
X181657463Y-84280029D02*
X181669558Y-84273981D01*
X181669558Y-84273981D02*
X181681653Y-84273981D01*
X181772368Y-84352601D02*
X181760272Y-84358648D01*
X181760272Y-84358648D02*
X181736082Y-84358648D01*
X181736082Y-84358648D02*
X181723987Y-84352601D01*
X181723987Y-84352601D02*
X181717939Y-84340505D01*
X181717939Y-84340505D02*
X181717939Y-84292124D01*
X181717939Y-84292124D02*
X181723987Y-84280029D01*
X181723987Y-84280029D02*
X181736082Y-84273981D01*
X181736082Y-84273981D02*
X181760272Y-84273981D01*
X181760272Y-84273981D02*
X181772368Y-84280029D01*
X181772368Y-84280029D02*
X181778415Y-84292124D01*
X181778415Y-84292124D02*
X181778415Y-84304220D01*
X181778415Y-84304220D02*
X181717939Y-84316315D01*
X181826796Y-84352601D02*
X181838891Y-84358648D01*
X181838891Y-84358648D02*
X181863082Y-84358648D01*
X181863082Y-84358648D02*
X181875177Y-84352601D01*
X181875177Y-84352601D02*
X181881225Y-84340505D01*
X181881225Y-84340505D02*
X181881225Y-84334458D01*
X181881225Y-84334458D02*
X181875177Y-84322362D01*
X181875177Y-84322362D02*
X181863082Y-84316315D01*
X181863082Y-84316315D02*
X181844939Y-84316315D01*
X181844939Y-84316315D02*
X181832844Y-84310267D01*
X181832844Y-84310267D02*
X181826796Y-84298172D01*
X181826796Y-84298172D02*
X181826796Y-84292124D01*
X181826796Y-84292124D02*
X181832844Y-84280029D01*
X181832844Y-84280029D02*
X181844939Y-84273981D01*
X181844939Y-84273981D02*
X181863082Y-84273981D01*
X181863082Y-84273981D02*
X181875177Y-84280029D01*
X181984035Y-84352601D02*
X181971939Y-84358648D01*
X181971939Y-84358648D02*
X181947749Y-84358648D01*
X181947749Y-84358648D02*
X181935654Y-84352601D01*
X181935654Y-84352601D02*
X181929606Y-84340505D01*
X181929606Y-84340505D02*
X181929606Y-84292124D01*
X181929606Y-84292124D02*
X181935654Y-84280029D01*
X181935654Y-84280029D02*
X181947749Y-84273981D01*
X181947749Y-84273981D02*
X181971939Y-84273981D01*
X181971939Y-84273981D02*
X181984035Y-84280029D01*
X181984035Y-84280029D02*
X181990082Y-84292124D01*
X181990082Y-84292124D02*
X181990082Y-84304220D01*
X181990082Y-84304220D02*
X181929606Y-84316315D01*
X182044511Y-84358648D02*
X182044511Y-84273981D01*
X182044511Y-84298172D02*
X182050558Y-84286077D01*
X182050558Y-84286077D02*
X182056606Y-84280029D01*
X182056606Y-84280029D02*
X182068701Y-84273981D01*
X182068701Y-84273981D02*
X182080796Y-84273981D01*
X182111034Y-84273981D02*
X182141272Y-84358648D01*
X182141272Y-84358648D02*
X182171511Y-84273981D01*
X182268273Y-84352601D02*
X182256177Y-84358648D01*
X182256177Y-84358648D02*
X182231987Y-84358648D01*
X182231987Y-84358648D02*
X182219892Y-84352601D01*
X182219892Y-84352601D02*
X182213844Y-84340505D01*
X182213844Y-84340505D02*
X182213844Y-84292124D01*
X182213844Y-84292124D02*
X182219892Y-84280029D01*
X182219892Y-84280029D02*
X182231987Y-84273981D01*
X182231987Y-84273981D02*
X182256177Y-84273981D01*
X182256177Y-84273981D02*
X182268273Y-84280029D01*
X182268273Y-84280029D02*
X182274320Y-84292124D01*
X182274320Y-84292124D02*
X182274320Y-84304220D01*
X182274320Y-84304220D02*
X182213844Y-84316315D01*
X182383177Y-84358648D02*
X182383177Y-84231648D01*
X182383177Y-84352601D02*
X182371082Y-84358648D01*
X182371082Y-84358648D02*
X182346891Y-84358648D01*
X182346891Y-84358648D02*
X182334796Y-84352601D01*
X182334796Y-84352601D02*
X182328749Y-84346553D01*
X182328749Y-84346553D02*
X182322701Y-84334458D01*
X182322701Y-84334458D02*
X182322701Y-84298172D01*
X182322701Y-84298172D02*
X182328749Y-84286077D01*
X182328749Y-84286077D02*
X182334796Y-84280029D01*
X182334796Y-84280029D02*
X182346891Y-84273981D01*
X182346891Y-84273981D02*
X182371082Y-84273981D01*
X182371082Y-84273981D02*
X182383177Y-84280029D01*
X182443654Y-84346553D02*
X182449701Y-84352601D01*
X182449701Y-84352601D02*
X182443654Y-84358648D01*
X182443654Y-84358648D02*
X182437606Y-84352601D01*
X182437606Y-84352601D02*
X182443654Y-84346553D01*
X182443654Y-84346553D02*
X182443654Y-84358648D01*
D10*
X183377059Y-83754819D02*
X183472297Y-83754819D01*
X183472297Y-83754819D02*
X183567535Y-83802438D01*
X183567535Y-83802438D02*
X183615154Y-83850057D01*
X183615154Y-83850057D02*
X183662773Y-83945295D01*
X183662773Y-83945295D02*
X183710392Y-84135771D01*
X183710392Y-84135771D02*
X183710392Y-84373866D01*
X183710392Y-84373866D02*
X183662773Y-84564342D01*
X183662773Y-84564342D02*
X183615154Y-84659580D01*
X183615154Y-84659580D02*
X183567535Y-84707200D01*
X183567535Y-84707200D02*
X183472297Y-84754819D01*
X183472297Y-84754819D02*
X183377059Y-84754819D01*
X183377059Y-84754819D02*
X183281821Y-84707200D01*
X183281821Y-84707200D02*
X183234202Y-84659580D01*
X183234202Y-84659580D02*
X183186583Y-84564342D01*
X183186583Y-84564342D02*
X183138964Y-84373866D01*
X183138964Y-84373866D02*
X183138964Y-84135771D01*
X183138964Y-84135771D02*
X183186583Y-83945295D01*
X183186583Y-83945295D02*
X183234202Y-83850057D01*
X183234202Y-83850057D02*
X183281821Y-83802438D01*
X183281821Y-83802438D02*
X183377059Y-83754819D01*
X184138964Y-84659580D02*
X184186583Y-84707200D01*
X184186583Y-84707200D02*
X184138964Y-84754819D01*
X184138964Y-84754819D02*
X184091345Y-84707200D01*
X184091345Y-84707200D02*
X184138964Y-84659580D01*
X184138964Y-84659580D02*
X184138964Y-84754819D01*
X185138963Y-84754819D02*
X184567535Y-84754819D01*
X184853249Y-84754819D02*
X184853249Y-83754819D01*
X184853249Y-83754819D02*
X184758011Y-83897676D01*
X184758011Y-83897676D02*
X184662773Y-83992914D01*
X184662773Y-83992914D02*
X184567535Y-84040533D01*
X186091344Y-84754819D02*
X185519916Y-84754819D01*
X185805630Y-84754819D02*
X185805630Y-83754819D01*
X185805630Y-83754819D02*
X185710392Y-83897676D01*
X185710392Y-83897676D02*
X185615154Y-83992914D01*
X185615154Y-83992914D02*
X185519916Y-84040533D01*
X186519916Y-84754819D02*
X186519916Y-84088152D01*
X186519916Y-83754819D02*
X186472297Y-83802438D01*
X186472297Y-83802438D02*
X186519916Y-83850057D01*
X186519916Y-83850057D02*
X186567535Y-83802438D01*
X186567535Y-83802438D02*
X186519916Y-83754819D01*
X186519916Y-83754819D02*
X186519916Y-83850057D01*
X186996106Y-84088152D02*
X186996106Y-84754819D01*
X186996106Y-84183390D02*
X187043725Y-84135771D01*
X187043725Y-84135771D02*
X187138963Y-84088152D01*
X187138963Y-84088152D02*
X187281820Y-84088152D01*
X187281820Y-84088152D02*
X187377058Y-84135771D01*
X187377058Y-84135771D02*
X187424677Y-84231009D01*
X187424677Y-84231009D02*
X187424677Y-84754819D01*
X188615153Y-83707200D02*
X187758011Y-84992914D01*
X188900868Y-83850057D02*
X188948487Y-83802438D01*
X188948487Y-83802438D02*
X189043725Y-83754819D01*
X189043725Y-83754819D02*
X189281820Y-83754819D01*
X189281820Y-83754819D02*
X189377058Y-83802438D01*
X189377058Y-83802438D02*
X189424677Y-83850057D01*
X189424677Y-83850057D02*
X189472296Y-83945295D01*
X189472296Y-83945295D02*
X189472296Y-84040533D01*
X189472296Y-84040533D02*
X189424677Y-84183390D01*
X189424677Y-84183390D02*
X188853249Y-84754819D01*
X188853249Y-84754819D02*
X189472296Y-84754819D01*
X189900868Y-84659580D02*
X189948487Y-84707200D01*
X189948487Y-84707200D02*
X189900868Y-84754819D01*
X189900868Y-84754819D02*
X189853249Y-84707200D01*
X189853249Y-84707200D02*
X189900868Y-84659580D01*
X189900868Y-84659580D02*
X189900868Y-84754819D01*
X190519915Y-84183390D02*
X190424677Y-84135771D01*
X190424677Y-84135771D02*
X190377058Y-84088152D01*
X190377058Y-84088152D02*
X190329439Y-83992914D01*
X190329439Y-83992914D02*
X190329439Y-83945295D01*
X190329439Y-83945295D02*
X190377058Y-83850057D01*
X190377058Y-83850057D02*
X190424677Y-83802438D01*
X190424677Y-83802438D02*
X190519915Y-83754819D01*
X190519915Y-83754819D02*
X190710391Y-83754819D01*
X190710391Y-83754819D02*
X190805629Y-83802438D01*
X190805629Y-83802438D02*
X190853248Y-83850057D01*
X190853248Y-83850057D02*
X190900867Y-83945295D01*
X190900867Y-83945295D02*
X190900867Y-83992914D01*
X190900867Y-83992914D02*
X190853248Y-84088152D01*
X190853248Y-84088152D02*
X190805629Y-84135771D01*
X190805629Y-84135771D02*
X190710391Y-84183390D01*
X190710391Y-84183390D02*
X190519915Y-84183390D01*
X190519915Y-84183390D02*
X190424677Y-84231009D01*
X190424677Y-84231009D02*
X190377058Y-84278628D01*
X190377058Y-84278628D02*
X190329439Y-84373866D01*
X190329439Y-84373866D02*
X190329439Y-84564342D01*
X190329439Y-84564342D02*
X190377058Y-84659580D01*
X190377058Y-84659580D02*
X190424677Y-84707200D01*
X190424677Y-84707200D02*
X190519915Y-84754819D01*
X190519915Y-84754819D02*
X190710391Y-84754819D01*
X190710391Y-84754819D02*
X190805629Y-84707200D01*
X190805629Y-84707200D02*
X190853248Y-84659580D01*
X190853248Y-84659580D02*
X190900867Y-84564342D01*
X190900867Y-84564342D02*
X190900867Y-84373866D01*
X190900867Y-84373866D02*
X190853248Y-84278628D01*
X190853248Y-84278628D02*
X190805629Y-84231009D01*
X190805629Y-84231009D02*
X190710391Y-84183390D01*
X191329439Y-84754819D02*
X191329439Y-84088152D01*
X191329439Y-84183390D02*
X191377058Y-84135771D01*
X191377058Y-84135771D02*
X191472296Y-84088152D01*
X191472296Y-84088152D02*
X191615153Y-84088152D01*
X191615153Y-84088152D02*
X191710391Y-84135771D01*
X191710391Y-84135771D02*
X191758010Y-84231009D01*
X191758010Y-84231009D02*
X191758010Y-84754819D01*
X191758010Y-84231009D02*
X191805629Y-84135771D01*
X191805629Y-84135771D02*
X191900867Y-84088152D01*
X191900867Y-84088152D02*
X192043724Y-84088152D01*
X192043724Y-84088152D02*
X192138963Y-84135771D01*
X192138963Y-84135771D02*
X192186582Y-84231009D01*
X192186582Y-84231009D02*
X192186582Y-84754819D01*
X192662772Y-84754819D02*
X192662772Y-84088152D01*
X192662772Y-84183390D02*
X192710391Y-84135771D01*
X192710391Y-84135771D02*
X192805629Y-84088152D01*
X192805629Y-84088152D02*
X192948486Y-84088152D01*
X192948486Y-84088152D02*
X193043724Y-84135771D01*
X193043724Y-84135771D02*
X193091343Y-84231009D01*
X193091343Y-84231009D02*
X193091343Y-84754819D01*
X193091343Y-84231009D02*
X193138962Y-84135771D01*
X193138962Y-84135771D02*
X193234200Y-84088152D01*
X193234200Y-84088152D02*
X193377057Y-84088152D01*
X193377057Y-84088152D02*
X193472296Y-84135771D01*
X193472296Y-84135771D02*
X193519915Y-84231009D01*
X193519915Y-84231009D02*
X193519915Y-84754819D01*
X174272869Y-91142818D02*
X174368107Y-91142818D01*
X174368107Y-91142818D02*
X174463345Y-91190437D01*
X174463345Y-91190437D02*
X174510964Y-91238056D01*
X174510964Y-91238056D02*
X174558583Y-91333294D01*
X174558583Y-91333294D02*
X174606202Y-91523770D01*
X174606202Y-91523770D02*
X174606202Y-91761865D01*
X174606202Y-91761865D02*
X174558583Y-91952341D01*
X174558583Y-91952341D02*
X174510964Y-92047579D01*
X174510964Y-92047579D02*
X174463345Y-92095199D01*
X174463345Y-92095199D02*
X174368107Y-92142818D01*
X174368107Y-92142818D02*
X174272869Y-92142818D01*
X174272869Y-92142818D02*
X174177631Y-92095199D01*
X174177631Y-92095199D02*
X174130012Y-92047579D01*
X174130012Y-92047579D02*
X174082393Y-91952341D01*
X174082393Y-91952341D02*
X174034774Y-91761865D01*
X174034774Y-91761865D02*
X174034774Y-91523770D01*
X174034774Y-91523770D02*
X174082393Y-91333294D01*
X174082393Y-91333294D02*
X174130012Y-91238056D01*
X174130012Y-91238056D02*
X174177631Y-91190437D01*
X174177631Y-91190437D02*
X174272869Y-91142818D01*
X175034774Y-92047579D02*
X175082393Y-92095199D01*
X175082393Y-92095199D02*
X175034774Y-92142818D01*
X175034774Y-92142818D02*
X174987155Y-92095199D01*
X174987155Y-92095199D02*
X175034774Y-92047579D01*
X175034774Y-92047579D02*
X175034774Y-92142818D01*
X175701440Y-91142818D02*
X175796678Y-91142818D01*
X175796678Y-91142818D02*
X175891916Y-91190437D01*
X175891916Y-91190437D02*
X175939535Y-91238056D01*
X175939535Y-91238056D02*
X175987154Y-91333294D01*
X175987154Y-91333294D02*
X176034773Y-91523770D01*
X176034773Y-91523770D02*
X176034773Y-91761865D01*
X176034773Y-91761865D02*
X175987154Y-91952341D01*
X175987154Y-91952341D02*
X175939535Y-92047579D01*
X175939535Y-92047579D02*
X175891916Y-92095199D01*
X175891916Y-92095199D02*
X175796678Y-92142818D01*
X175796678Y-92142818D02*
X175701440Y-92142818D01*
X175701440Y-92142818D02*
X175606202Y-92095199D01*
X175606202Y-92095199D02*
X175558583Y-92047579D01*
X175558583Y-92047579D02*
X175510964Y-91952341D01*
X175510964Y-91952341D02*
X175463345Y-91761865D01*
X175463345Y-91761865D02*
X175463345Y-91523770D01*
X175463345Y-91523770D02*
X175510964Y-91333294D01*
X175510964Y-91333294D02*
X175558583Y-91238056D01*
X175558583Y-91238056D02*
X175606202Y-91190437D01*
X175606202Y-91190437D02*
X175701440Y-91142818D01*
X176368107Y-91142818D02*
X177034773Y-91142818D01*
X177034773Y-91142818D02*
X176606202Y-92142818D01*
X177939535Y-92142818D02*
X177368107Y-92142818D01*
X177653821Y-92142818D02*
X177653821Y-91142818D01*
X177653821Y-91142818D02*
X177558583Y-91285675D01*
X177558583Y-91285675D02*
X177463345Y-91380913D01*
X177463345Y-91380913D02*
X177368107Y-91428532D01*
X178368107Y-92142818D02*
X178368107Y-91476151D01*
X178368107Y-91142818D02*
X178320488Y-91190437D01*
X178320488Y-91190437D02*
X178368107Y-91238056D01*
X178368107Y-91238056D02*
X178415726Y-91190437D01*
X178415726Y-91190437D02*
X178368107Y-91142818D01*
X178368107Y-91142818D02*
X178368107Y-91238056D01*
X178844297Y-91476151D02*
X178844297Y-92142818D01*
X178844297Y-91571389D02*
X178891916Y-91523770D01*
X178891916Y-91523770D02*
X178987154Y-91476151D01*
X178987154Y-91476151D02*
X179130011Y-91476151D01*
X179130011Y-91476151D02*
X179225249Y-91523770D01*
X179225249Y-91523770D02*
X179272868Y-91619008D01*
X179272868Y-91619008D02*
X179272868Y-92142818D01*
X180463344Y-91095199D02*
X179606202Y-92380913D01*
X181320487Y-92142818D02*
X180749059Y-92142818D01*
X181034773Y-92142818D02*
X181034773Y-91142818D01*
X181034773Y-91142818D02*
X180939535Y-91285675D01*
X180939535Y-91285675D02*
X180844297Y-91380913D01*
X180844297Y-91380913D02*
X180749059Y-91428532D01*
X181749059Y-92047579D02*
X181796678Y-92095199D01*
X181796678Y-92095199D02*
X181749059Y-92142818D01*
X181749059Y-92142818D02*
X181701440Y-92095199D01*
X181701440Y-92095199D02*
X181749059Y-92047579D01*
X181749059Y-92047579D02*
X181749059Y-92142818D01*
X182368106Y-91571389D02*
X182272868Y-91523770D01*
X182272868Y-91523770D02*
X182225249Y-91476151D01*
X182225249Y-91476151D02*
X182177630Y-91380913D01*
X182177630Y-91380913D02*
X182177630Y-91333294D01*
X182177630Y-91333294D02*
X182225249Y-91238056D01*
X182225249Y-91238056D02*
X182272868Y-91190437D01*
X182272868Y-91190437D02*
X182368106Y-91142818D01*
X182368106Y-91142818D02*
X182558582Y-91142818D01*
X182558582Y-91142818D02*
X182653820Y-91190437D01*
X182653820Y-91190437D02*
X182701439Y-91238056D01*
X182701439Y-91238056D02*
X182749058Y-91333294D01*
X182749058Y-91333294D02*
X182749058Y-91380913D01*
X182749058Y-91380913D02*
X182701439Y-91476151D01*
X182701439Y-91476151D02*
X182653820Y-91523770D01*
X182653820Y-91523770D02*
X182558582Y-91571389D01*
X182558582Y-91571389D02*
X182368106Y-91571389D01*
X182368106Y-91571389D02*
X182272868Y-91619008D01*
X182272868Y-91619008D02*
X182225249Y-91666627D01*
X182225249Y-91666627D02*
X182177630Y-91761865D01*
X182177630Y-91761865D02*
X182177630Y-91952341D01*
X182177630Y-91952341D02*
X182225249Y-92047579D01*
X182225249Y-92047579D02*
X182272868Y-92095199D01*
X182272868Y-92095199D02*
X182368106Y-92142818D01*
X182368106Y-92142818D02*
X182558582Y-92142818D01*
X182558582Y-92142818D02*
X182653820Y-92095199D01*
X182653820Y-92095199D02*
X182701439Y-92047579D01*
X182701439Y-92047579D02*
X182749058Y-91952341D01*
X182749058Y-91952341D02*
X182749058Y-91761865D01*
X182749058Y-91761865D02*
X182701439Y-91666627D01*
X182701439Y-91666627D02*
X182653820Y-91619008D01*
X182653820Y-91619008D02*
X182558582Y-91571389D01*
X183177630Y-92142818D02*
X183177630Y-91476151D01*
X183177630Y-91571389D02*
X183225249Y-91523770D01*
X183225249Y-91523770D02*
X183320487Y-91476151D01*
X183320487Y-91476151D02*
X183463344Y-91476151D01*
X183463344Y-91476151D02*
X183558582Y-91523770D01*
X183558582Y-91523770D02*
X183606201Y-91619008D01*
X183606201Y-91619008D02*
X183606201Y-92142818D01*
X183606201Y-91619008D02*
X183653820Y-91523770D01*
X183653820Y-91523770D02*
X183749058Y-91476151D01*
X183749058Y-91476151D02*
X183891915Y-91476151D01*
X183891915Y-91476151D02*
X183987154Y-91523770D01*
X183987154Y-91523770D02*
X184034773Y-91619008D01*
X184034773Y-91619008D02*
X184034773Y-92142818D01*
X184510963Y-92142818D02*
X184510963Y-91476151D01*
X184510963Y-91571389D02*
X184558582Y-91523770D01*
X184558582Y-91523770D02*
X184653820Y-91476151D01*
X184653820Y-91476151D02*
X184796677Y-91476151D01*
X184796677Y-91476151D02*
X184891915Y-91523770D01*
X184891915Y-91523770D02*
X184939534Y-91619008D01*
X184939534Y-91619008D02*
X184939534Y-92142818D01*
X184939534Y-91619008D02*
X184987153Y-91523770D01*
X184987153Y-91523770D02*
X185082391Y-91476151D01*
X185082391Y-91476151D02*
X185225248Y-91476151D01*
X185225248Y-91476151D02*
X185320487Y-91523770D01*
X185320487Y-91523770D02*
X185368106Y-91619008D01*
X185368106Y-91619008D02*
X185368106Y-92142818D01*
X170401059Y-84004882D02*
X170496297Y-84004882D01*
X170496297Y-84004882D02*
X170591535Y-84052501D01*
X170591535Y-84052501D02*
X170639154Y-84100120D01*
X170639154Y-84100120D02*
X170686773Y-84195358D01*
X170686773Y-84195358D02*
X170734392Y-84385834D01*
X170734392Y-84385834D02*
X170734392Y-84623929D01*
X170734392Y-84623929D02*
X170686773Y-84814405D01*
X170686773Y-84814405D02*
X170639154Y-84909643D01*
X170639154Y-84909643D02*
X170591535Y-84957263D01*
X170591535Y-84957263D02*
X170496297Y-85004882D01*
X170496297Y-85004882D02*
X170401059Y-85004882D01*
X170401059Y-85004882D02*
X170305821Y-84957263D01*
X170305821Y-84957263D02*
X170258202Y-84909643D01*
X170258202Y-84909643D02*
X170210583Y-84814405D01*
X170210583Y-84814405D02*
X170162964Y-84623929D01*
X170162964Y-84623929D02*
X170162964Y-84385834D01*
X170162964Y-84385834D02*
X170210583Y-84195358D01*
X170210583Y-84195358D02*
X170258202Y-84100120D01*
X170258202Y-84100120D02*
X170305821Y-84052501D01*
X170305821Y-84052501D02*
X170401059Y-84004882D01*
X171162964Y-84909643D02*
X171210583Y-84957263D01*
X171210583Y-84957263D02*
X171162964Y-85004882D01*
X171162964Y-85004882D02*
X171115345Y-84957263D01*
X171115345Y-84957263D02*
X171162964Y-84909643D01*
X171162964Y-84909643D02*
X171162964Y-85004882D01*
X171829630Y-84004882D02*
X171924868Y-84004882D01*
X171924868Y-84004882D02*
X172020106Y-84052501D01*
X172020106Y-84052501D02*
X172067725Y-84100120D01*
X172067725Y-84100120D02*
X172115344Y-84195358D01*
X172115344Y-84195358D02*
X172162963Y-84385834D01*
X172162963Y-84385834D02*
X172162963Y-84623929D01*
X172162963Y-84623929D02*
X172115344Y-84814405D01*
X172115344Y-84814405D02*
X172067725Y-84909643D01*
X172067725Y-84909643D02*
X172020106Y-84957263D01*
X172020106Y-84957263D02*
X171924868Y-85004882D01*
X171924868Y-85004882D02*
X171829630Y-85004882D01*
X171829630Y-85004882D02*
X171734392Y-84957263D01*
X171734392Y-84957263D02*
X171686773Y-84909643D01*
X171686773Y-84909643D02*
X171639154Y-84814405D01*
X171639154Y-84814405D02*
X171591535Y-84623929D01*
X171591535Y-84623929D02*
X171591535Y-84385834D01*
X171591535Y-84385834D02*
X171639154Y-84195358D01*
X171639154Y-84195358D02*
X171686773Y-84100120D01*
X171686773Y-84100120D02*
X171734392Y-84052501D01*
X171734392Y-84052501D02*
X171829630Y-84004882D01*
X172543916Y-84100120D02*
X172591535Y-84052501D01*
X172591535Y-84052501D02*
X172686773Y-84004882D01*
X172686773Y-84004882D02*
X172924868Y-84004882D01*
X172924868Y-84004882D02*
X173020106Y-84052501D01*
X173020106Y-84052501D02*
X173067725Y-84100120D01*
X173067725Y-84100120D02*
X173115344Y-84195358D01*
X173115344Y-84195358D02*
X173115344Y-84290596D01*
X173115344Y-84290596D02*
X173067725Y-84433453D01*
X173067725Y-84433453D02*
X172496297Y-85004882D01*
X172496297Y-85004882D02*
X173115344Y-85004882D01*
X173543916Y-85004882D02*
X173543916Y-84338215D01*
X173543916Y-84004882D02*
X173496297Y-84052501D01*
X173496297Y-84052501D02*
X173543916Y-84100120D01*
X173543916Y-84100120D02*
X173591535Y-84052501D01*
X173591535Y-84052501D02*
X173543916Y-84004882D01*
X173543916Y-84004882D02*
X173543916Y-84100120D01*
X174020106Y-84338215D02*
X174020106Y-85004882D01*
X174020106Y-84433453D02*
X174067725Y-84385834D01*
X174067725Y-84385834D02*
X174162963Y-84338215D01*
X174162963Y-84338215D02*
X174305820Y-84338215D01*
X174305820Y-84338215D02*
X174401058Y-84385834D01*
X174401058Y-84385834D02*
X174448677Y-84481072D01*
X174448677Y-84481072D02*
X174448677Y-85004882D01*
X175639153Y-83957263D02*
X174782011Y-85242977D01*
X176162963Y-84004882D02*
X176258201Y-84004882D01*
X176258201Y-84004882D02*
X176353439Y-84052501D01*
X176353439Y-84052501D02*
X176401058Y-84100120D01*
X176401058Y-84100120D02*
X176448677Y-84195358D01*
X176448677Y-84195358D02*
X176496296Y-84385834D01*
X176496296Y-84385834D02*
X176496296Y-84623929D01*
X176496296Y-84623929D02*
X176448677Y-84814405D01*
X176448677Y-84814405D02*
X176401058Y-84909643D01*
X176401058Y-84909643D02*
X176353439Y-84957263D01*
X176353439Y-84957263D02*
X176258201Y-85004882D01*
X176258201Y-85004882D02*
X176162963Y-85004882D01*
X176162963Y-85004882D02*
X176067725Y-84957263D01*
X176067725Y-84957263D02*
X176020106Y-84909643D01*
X176020106Y-84909643D02*
X175972487Y-84814405D01*
X175972487Y-84814405D02*
X175924868Y-84623929D01*
X175924868Y-84623929D02*
X175924868Y-84385834D01*
X175924868Y-84385834D02*
X175972487Y-84195358D01*
X175972487Y-84195358D02*
X176020106Y-84100120D01*
X176020106Y-84100120D02*
X176067725Y-84052501D01*
X176067725Y-84052501D02*
X176162963Y-84004882D01*
X176924868Y-84909643D02*
X176972487Y-84957263D01*
X176972487Y-84957263D02*
X176924868Y-85004882D01*
X176924868Y-85004882D02*
X176877249Y-84957263D01*
X176877249Y-84957263D02*
X176924868Y-84909643D01*
X176924868Y-84909643D02*
X176924868Y-85004882D01*
X177877248Y-84004882D02*
X177401058Y-84004882D01*
X177401058Y-84004882D02*
X177353439Y-84481072D01*
X177353439Y-84481072D02*
X177401058Y-84433453D01*
X177401058Y-84433453D02*
X177496296Y-84385834D01*
X177496296Y-84385834D02*
X177734391Y-84385834D01*
X177734391Y-84385834D02*
X177829629Y-84433453D01*
X177829629Y-84433453D02*
X177877248Y-84481072D01*
X177877248Y-84481072D02*
X177924867Y-84576310D01*
X177924867Y-84576310D02*
X177924867Y-84814405D01*
X177924867Y-84814405D02*
X177877248Y-84909643D01*
X177877248Y-84909643D02*
X177829629Y-84957263D01*
X177829629Y-84957263D02*
X177734391Y-85004882D01*
X177734391Y-85004882D02*
X177496296Y-85004882D01*
X177496296Y-85004882D02*
X177401058Y-84957263D01*
X177401058Y-84957263D02*
X177353439Y-84909643D01*
X178353439Y-85004882D02*
X178353439Y-84338215D01*
X178353439Y-84433453D02*
X178401058Y-84385834D01*
X178401058Y-84385834D02*
X178496296Y-84338215D01*
X178496296Y-84338215D02*
X178639153Y-84338215D01*
X178639153Y-84338215D02*
X178734391Y-84385834D01*
X178734391Y-84385834D02*
X178782010Y-84481072D01*
X178782010Y-84481072D02*
X178782010Y-85004882D01*
X178782010Y-84481072D02*
X178829629Y-84385834D01*
X178829629Y-84385834D02*
X178924867Y-84338215D01*
X178924867Y-84338215D02*
X179067724Y-84338215D01*
X179067724Y-84338215D02*
X179162963Y-84385834D01*
X179162963Y-84385834D02*
X179210582Y-84481072D01*
X179210582Y-84481072D02*
X179210582Y-85004882D01*
X179686772Y-85004882D02*
X179686772Y-84338215D01*
X179686772Y-84433453D02*
X179734391Y-84385834D01*
X179734391Y-84385834D02*
X179829629Y-84338215D01*
X179829629Y-84338215D02*
X179972486Y-84338215D01*
X179972486Y-84338215D02*
X180067724Y-84385834D01*
X180067724Y-84385834D02*
X180115343Y-84481072D01*
X180115343Y-84481072D02*
X180115343Y-85004882D01*
X180115343Y-84481072D02*
X180162962Y-84385834D01*
X180162962Y-84385834D02*
X180258200Y-84338215D01*
X180258200Y-84338215D02*
X180401057Y-84338215D01*
X180401057Y-84338215D02*
X180496296Y-84385834D01*
X180496296Y-84385834D02*
X180543915Y-84481072D01*
X180543915Y-84481072D02*
X180543915Y-85004882D01*
X167384869Y-83254693D02*
X167480107Y-83254693D01*
X167480107Y-83254693D02*
X167575345Y-83302312D01*
X167575345Y-83302312D02*
X167622964Y-83349931D01*
X167622964Y-83349931D02*
X167670583Y-83445169D01*
X167670583Y-83445169D02*
X167718202Y-83635645D01*
X167718202Y-83635645D02*
X167718202Y-83873740D01*
X167718202Y-83873740D02*
X167670583Y-84064216D01*
X167670583Y-84064216D02*
X167622964Y-84159454D01*
X167622964Y-84159454D02*
X167575345Y-84207074D01*
X167575345Y-84207074D02*
X167480107Y-84254693D01*
X167480107Y-84254693D02*
X167384869Y-84254693D01*
X167384869Y-84254693D02*
X167289631Y-84207074D01*
X167289631Y-84207074D02*
X167242012Y-84159454D01*
X167242012Y-84159454D02*
X167194393Y-84064216D01*
X167194393Y-84064216D02*
X167146774Y-83873740D01*
X167146774Y-83873740D02*
X167146774Y-83635645D01*
X167146774Y-83635645D02*
X167194393Y-83445169D01*
X167194393Y-83445169D02*
X167242012Y-83349931D01*
X167242012Y-83349931D02*
X167289631Y-83302312D01*
X167289631Y-83302312D02*
X167384869Y-83254693D01*
X168146774Y-84159454D02*
X168194393Y-84207074D01*
X168194393Y-84207074D02*
X168146774Y-84254693D01*
X168146774Y-84254693D02*
X168099155Y-84207074D01*
X168099155Y-84207074D02*
X168146774Y-84159454D01*
X168146774Y-84159454D02*
X168146774Y-84254693D01*
X168813440Y-83254693D02*
X168908678Y-83254693D01*
X168908678Y-83254693D02*
X169003916Y-83302312D01*
X169003916Y-83302312D02*
X169051535Y-83349931D01*
X169051535Y-83349931D02*
X169099154Y-83445169D01*
X169099154Y-83445169D02*
X169146773Y-83635645D01*
X169146773Y-83635645D02*
X169146773Y-83873740D01*
X169146773Y-83873740D02*
X169099154Y-84064216D01*
X169099154Y-84064216D02*
X169051535Y-84159454D01*
X169051535Y-84159454D02*
X169003916Y-84207074D01*
X169003916Y-84207074D02*
X168908678Y-84254693D01*
X168908678Y-84254693D02*
X168813440Y-84254693D01*
X168813440Y-84254693D02*
X168718202Y-84207074D01*
X168718202Y-84207074D02*
X168670583Y-84159454D01*
X168670583Y-84159454D02*
X168622964Y-84064216D01*
X168622964Y-84064216D02*
X168575345Y-83873740D01*
X168575345Y-83873740D02*
X168575345Y-83635645D01*
X168575345Y-83635645D02*
X168622964Y-83445169D01*
X168622964Y-83445169D02*
X168670583Y-83349931D01*
X168670583Y-83349931D02*
X168718202Y-83302312D01*
X168718202Y-83302312D02*
X168813440Y-83254693D01*
X170099154Y-84254693D02*
X169527726Y-84254693D01*
X169813440Y-84254693D02*
X169813440Y-83254693D01*
X169813440Y-83254693D02*
X169718202Y-83397550D01*
X169718202Y-83397550D02*
X169622964Y-83492788D01*
X169622964Y-83492788D02*
X169527726Y-83540407D01*
X170527726Y-84254693D02*
X170527726Y-83588026D01*
X170527726Y-83254693D02*
X170480107Y-83302312D01*
X170480107Y-83302312D02*
X170527726Y-83349931D01*
X170527726Y-83349931D02*
X170575345Y-83302312D01*
X170575345Y-83302312D02*
X170527726Y-83254693D01*
X170527726Y-83254693D02*
X170527726Y-83349931D01*
X171003916Y-83588026D02*
X171003916Y-84254693D01*
X171003916Y-83683264D02*
X171051535Y-83635645D01*
X171051535Y-83635645D02*
X171146773Y-83588026D01*
X171146773Y-83588026D02*
X171289630Y-83588026D01*
X171289630Y-83588026D02*
X171384868Y-83635645D01*
X171384868Y-83635645D02*
X171432487Y-83730883D01*
X171432487Y-83730883D02*
X171432487Y-84254693D01*
X172622963Y-83207074D02*
X171765821Y-84492788D01*
X173146773Y-83254693D02*
X173242011Y-83254693D01*
X173242011Y-83254693D02*
X173337249Y-83302312D01*
X173337249Y-83302312D02*
X173384868Y-83349931D01*
X173384868Y-83349931D02*
X173432487Y-83445169D01*
X173432487Y-83445169D02*
X173480106Y-83635645D01*
X173480106Y-83635645D02*
X173480106Y-83873740D01*
X173480106Y-83873740D02*
X173432487Y-84064216D01*
X173432487Y-84064216D02*
X173384868Y-84159454D01*
X173384868Y-84159454D02*
X173337249Y-84207074D01*
X173337249Y-84207074D02*
X173242011Y-84254693D01*
X173242011Y-84254693D02*
X173146773Y-84254693D01*
X173146773Y-84254693D02*
X173051535Y-84207074D01*
X173051535Y-84207074D02*
X173003916Y-84159454D01*
X173003916Y-84159454D02*
X172956297Y-84064216D01*
X172956297Y-84064216D02*
X172908678Y-83873740D01*
X172908678Y-83873740D02*
X172908678Y-83635645D01*
X172908678Y-83635645D02*
X172956297Y-83445169D01*
X172956297Y-83445169D02*
X173003916Y-83349931D01*
X173003916Y-83349931D02*
X173051535Y-83302312D01*
X173051535Y-83302312D02*
X173146773Y-83254693D01*
X173908678Y-84159454D02*
X173956297Y-84207074D01*
X173956297Y-84207074D02*
X173908678Y-84254693D01*
X173908678Y-84254693D02*
X173861059Y-84207074D01*
X173861059Y-84207074D02*
X173908678Y-84159454D01*
X173908678Y-84159454D02*
X173908678Y-84254693D01*
X174337249Y-83349931D02*
X174384868Y-83302312D01*
X174384868Y-83302312D02*
X174480106Y-83254693D01*
X174480106Y-83254693D02*
X174718201Y-83254693D01*
X174718201Y-83254693D02*
X174813439Y-83302312D01*
X174813439Y-83302312D02*
X174861058Y-83349931D01*
X174861058Y-83349931D02*
X174908677Y-83445169D01*
X174908677Y-83445169D02*
X174908677Y-83540407D01*
X174908677Y-83540407D02*
X174861058Y-83683264D01*
X174861058Y-83683264D02*
X174289630Y-84254693D01*
X174289630Y-84254693D02*
X174908677Y-84254693D01*
X175813439Y-83254693D02*
X175337249Y-83254693D01*
X175337249Y-83254693D02*
X175289630Y-83730883D01*
X175289630Y-83730883D02*
X175337249Y-83683264D01*
X175337249Y-83683264D02*
X175432487Y-83635645D01*
X175432487Y-83635645D02*
X175670582Y-83635645D01*
X175670582Y-83635645D02*
X175765820Y-83683264D01*
X175765820Y-83683264D02*
X175813439Y-83730883D01*
X175813439Y-83730883D02*
X175861058Y-83826121D01*
X175861058Y-83826121D02*
X175861058Y-84064216D01*
X175861058Y-84064216D02*
X175813439Y-84159454D01*
X175813439Y-84159454D02*
X175765820Y-84207074D01*
X175765820Y-84207074D02*
X175670582Y-84254693D01*
X175670582Y-84254693D02*
X175432487Y-84254693D01*
X175432487Y-84254693D02*
X175337249Y-84207074D01*
X175337249Y-84207074D02*
X175289630Y-84159454D01*
X176289630Y-84254693D02*
X176289630Y-83588026D01*
X176289630Y-83683264D02*
X176337249Y-83635645D01*
X176337249Y-83635645D02*
X176432487Y-83588026D01*
X176432487Y-83588026D02*
X176575344Y-83588026D01*
X176575344Y-83588026D02*
X176670582Y-83635645D01*
X176670582Y-83635645D02*
X176718201Y-83730883D01*
X176718201Y-83730883D02*
X176718201Y-84254693D01*
X176718201Y-83730883D02*
X176765820Y-83635645D01*
X176765820Y-83635645D02*
X176861058Y-83588026D01*
X176861058Y-83588026D02*
X177003915Y-83588026D01*
X177003915Y-83588026D02*
X177099154Y-83635645D01*
X177099154Y-83635645D02*
X177146773Y-83730883D01*
X177146773Y-83730883D02*
X177146773Y-84254693D01*
X177622963Y-84254693D02*
X177622963Y-83588026D01*
X177622963Y-83683264D02*
X177670582Y-83635645D01*
X177670582Y-83635645D02*
X177765820Y-83588026D01*
X177765820Y-83588026D02*
X177908677Y-83588026D01*
X177908677Y-83588026D02*
X178003915Y-83635645D01*
X178003915Y-83635645D02*
X178051534Y-83730883D01*
X178051534Y-83730883D02*
X178051534Y-84254693D01*
X178051534Y-83730883D02*
X178099153Y-83635645D01*
X178099153Y-83635645D02*
X178194391Y-83588026D01*
X178194391Y-83588026D02*
X178337248Y-83588026D01*
X178337248Y-83588026D02*
X178432487Y-83635645D01*
X178432487Y-83635645D02*
X178480106Y-83730883D01*
X178480106Y-83730883D02*
X178480106Y-84254693D01*
%TO.C,U3*%
X149988152Y-93970238D02*
X150797676Y-93970238D01*
X150797676Y-93970238D02*
X150892914Y-94017857D01*
X150892914Y-94017857D02*
X150940533Y-94065476D01*
X150940533Y-94065476D02*
X150988152Y-94160714D01*
X150988152Y-94160714D02*
X150988152Y-94303571D01*
X150988152Y-94303571D02*
X150940533Y-94398809D01*
X150607200Y-93970238D02*
X150654819Y-94065476D01*
X150654819Y-94065476D02*
X150654819Y-94255952D01*
X150654819Y-94255952D02*
X150607200Y-94351190D01*
X150607200Y-94351190D02*
X150559580Y-94398809D01*
X150559580Y-94398809D02*
X150464342Y-94446428D01*
X150464342Y-94446428D02*
X150178628Y-94446428D01*
X150178628Y-94446428D02*
X150083390Y-94398809D01*
X150083390Y-94398809D02*
X150035771Y-94351190D01*
X150035771Y-94351190D02*
X149988152Y-94255952D01*
X149988152Y-94255952D02*
X149988152Y-94065476D01*
X149988152Y-94065476D02*
X150035771Y-93970238D01*
X149988152Y-93065476D02*
X150797676Y-93065476D01*
X150797676Y-93065476D02*
X150892914Y-93113095D01*
X150892914Y-93113095D02*
X150940533Y-93160714D01*
X150940533Y-93160714D02*
X150988152Y-93255952D01*
X150988152Y-93255952D02*
X150988152Y-93398809D01*
X150988152Y-93398809D02*
X150940533Y-93494047D01*
X150607200Y-93065476D02*
X150654819Y-93160714D01*
X150654819Y-93160714D02*
X150654819Y-93351190D01*
X150654819Y-93351190D02*
X150607200Y-93446428D01*
X150607200Y-93446428D02*
X150559580Y-93494047D01*
X150559580Y-93494047D02*
X150464342Y-93541666D01*
X150464342Y-93541666D02*
X150178628Y-93541666D01*
X150178628Y-93541666D02*
X150083390Y-93494047D01*
X150083390Y-93494047D02*
X150035771Y-93446428D01*
X150035771Y-93446428D02*
X149988152Y-93351190D01*
X149988152Y-93351190D02*
X149988152Y-93160714D01*
X149988152Y-93160714D02*
X150035771Y-93065476D01*
X150607200Y-92208333D02*
X150654819Y-92303571D01*
X150654819Y-92303571D02*
X150654819Y-92494047D01*
X150654819Y-92494047D02*
X150607200Y-92589285D01*
X150607200Y-92589285D02*
X150511961Y-92636904D01*
X150511961Y-92636904D02*
X150131009Y-92636904D01*
X150131009Y-92636904D02*
X150035771Y-92589285D01*
X150035771Y-92589285D02*
X149988152Y-92494047D01*
X149988152Y-92494047D02*
X149988152Y-92303571D01*
X149988152Y-92303571D02*
X150035771Y-92208333D01*
X150035771Y-92208333D02*
X150131009Y-92160714D01*
X150131009Y-92160714D02*
X150226247Y-92160714D01*
X150226247Y-92160714D02*
X150321485Y-92636904D01*
X149750057Y-91779761D02*
X149702438Y-91732142D01*
X149702438Y-91732142D02*
X149654819Y-91636904D01*
X149654819Y-91636904D02*
X149654819Y-91398809D01*
X149654819Y-91398809D02*
X149702438Y-91303571D01*
X149702438Y-91303571D02*
X149750057Y-91255952D01*
X149750057Y-91255952D02*
X149845295Y-91208333D01*
X149845295Y-91208333D02*
X149940533Y-91208333D01*
X149940533Y-91208333D02*
X150083390Y-91255952D01*
X150083390Y-91255952D02*
X150654819Y-91827380D01*
X150654819Y-91827380D02*
X150654819Y-91208333D01*
X149750057Y-90827380D02*
X149702438Y-90779761D01*
X149702438Y-90779761D02*
X149654819Y-90684523D01*
X149654819Y-90684523D02*
X149654819Y-90446428D01*
X149654819Y-90446428D02*
X149702438Y-90351190D01*
X149702438Y-90351190D02*
X149750057Y-90303571D01*
X149750057Y-90303571D02*
X149845295Y-90255952D01*
X149845295Y-90255952D02*
X149940533Y-90255952D01*
X149940533Y-90255952D02*
X150083390Y-90303571D01*
X150083390Y-90303571D02*
X150654819Y-90874999D01*
X150654819Y-90874999D02*
X150654819Y-90255952D01*
X149654819Y-89636904D02*
X149654819Y-89541666D01*
X149654819Y-89541666D02*
X149702438Y-89446428D01*
X149702438Y-89446428D02*
X149750057Y-89398809D01*
X149750057Y-89398809D02*
X149845295Y-89351190D01*
X149845295Y-89351190D02*
X150035771Y-89303571D01*
X150035771Y-89303571D02*
X150273866Y-89303571D01*
X150273866Y-89303571D02*
X150464342Y-89351190D01*
X150464342Y-89351190D02*
X150559580Y-89398809D01*
X150559580Y-89398809D02*
X150607200Y-89446428D01*
X150607200Y-89446428D02*
X150654819Y-89541666D01*
X150654819Y-89541666D02*
X150654819Y-89636904D01*
X150654819Y-89636904D02*
X150607200Y-89732142D01*
X150607200Y-89732142D02*
X150559580Y-89779761D01*
X150559580Y-89779761D02*
X150464342Y-89827380D01*
X150464342Y-89827380D02*
X150273866Y-89874999D01*
X150273866Y-89874999D02*
X150035771Y-89874999D01*
X150035771Y-89874999D02*
X149845295Y-89827380D01*
X149845295Y-89827380D02*
X149750057Y-89779761D01*
X149750057Y-89779761D02*
X149702438Y-89732142D01*
X149702438Y-89732142D02*
X149654819Y-89636904D01*
%TO.C,J9*%
X129176187Y-98077319D02*
X129176187Y-97077319D01*
X129604758Y-98077319D02*
X129604758Y-97553509D01*
X129604758Y-97553509D02*
X129557139Y-97458271D01*
X129557139Y-97458271D02*
X129461901Y-97410652D01*
X129461901Y-97410652D02*
X129319044Y-97410652D01*
X129319044Y-97410652D02*
X129223806Y-97458271D01*
X129223806Y-97458271D02*
X129176187Y-97505890D01*
X129938092Y-97410652D02*
X130319044Y-97410652D01*
X130080949Y-97077319D02*
X130080949Y-97934461D01*
X130080949Y-97934461D02*
X130128568Y-98029700D01*
X130128568Y-98029700D02*
X130223806Y-98077319D01*
X130223806Y-98077319D02*
X130319044Y-98077319D01*
X130509521Y-97410652D02*
X130890473Y-97410652D01*
X130652378Y-97077319D02*
X130652378Y-97934461D01*
X130652378Y-97934461D02*
X130699997Y-98029700D01*
X130699997Y-98029700D02*
X130795235Y-98077319D01*
X130795235Y-98077319D02*
X130890473Y-98077319D01*
X131223807Y-97410652D02*
X131223807Y-98410652D01*
X131223807Y-97458271D02*
X131319045Y-97410652D01*
X131319045Y-97410652D02*
X131509521Y-97410652D01*
X131509521Y-97410652D02*
X131604759Y-97458271D01*
X131604759Y-97458271D02*
X131652378Y-97505890D01*
X131652378Y-97505890D02*
X131699997Y-97601128D01*
X131699997Y-97601128D02*
X131699997Y-97886842D01*
X131699997Y-97886842D02*
X131652378Y-97982080D01*
X131652378Y-97982080D02*
X131604759Y-98029700D01*
X131604759Y-98029700D02*
X131509521Y-98077319D01*
X131509521Y-98077319D02*
X131319045Y-98077319D01*
X131319045Y-98077319D02*
X131223807Y-98029700D01*
X132080950Y-98029700D02*
X132176188Y-98077319D01*
X132176188Y-98077319D02*
X132366664Y-98077319D01*
X132366664Y-98077319D02*
X132461902Y-98029700D01*
X132461902Y-98029700D02*
X132509521Y-97934461D01*
X132509521Y-97934461D02*
X132509521Y-97886842D01*
X132509521Y-97886842D02*
X132461902Y-97791604D01*
X132461902Y-97791604D02*
X132366664Y-97743985D01*
X132366664Y-97743985D02*
X132223807Y-97743985D01*
X132223807Y-97743985D02*
X132128569Y-97696366D01*
X132128569Y-97696366D02*
X132080950Y-97601128D01*
X132080950Y-97601128D02*
X132080950Y-97553509D01*
X132080950Y-97553509D02*
X132128569Y-97458271D01*
X132128569Y-97458271D02*
X132223807Y-97410652D01*
X132223807Y-97410652D02*
X132366664Y-97410652D01*
X132366664Y-97410652D02*
X132461902Y-97458271D01*
X132938093Y-97982080D02*
X132985712Y-98029700D01*
X132985712Y-98029700D02*
X132938093Y-98077319D01*
X132938093Y-98077319D02*
X132890474Y-98029700D01*
X132890474Y-98029700D02*
X132938093Y-97982080D01*
X132938093Y-97982080D02*
X132938093Y-98077319D01*
X132938093Y-97458271D02*
X132985712Y-97505890D01*
X132985712Y-97505890D02*
X132938093Y-97553509D01*
X132938093Y-97553509D02*
X132890474Y-97505890D01*
X132890474Y-97505890D02*
X132938093Y-97458271D01*
X132938093Y-97458271D02*
X132938093Y-97553509D01*
X134128568Y-97029700D02*
X133271426Y-98315414D01*
X135176187Y-97029700D02*
X134319045Y-98315414D01*
X135938092Y-98077319D02*
X135938092Y-97077319D01*
X135938092Y-98029700D02*
X135842854Y-98077319D01*
X135842854Y-98077319D02*
X135652378Y-98077319D01*
X135652378Y-98077319D02*
X135557140Y-98029700D01*
X135557140Y-98029700D02*
X135509521Y-97982080D01*
X135509521Y-97982080D02*
X135461902Y-97886842D01*
X135461902Y-97886842D02*
X135461902Y-97601128D01*
X135461902Y-97601128D02*
X135509521Y-97505890D01*
X135509521Y-97505890D02*
X135557140Y-97458271D01*
X135557140Y-97458271D02*
X135652378Y-97410652D01*
X135652378Y-97410652D02*
X135842854Y-97410652D01*
X135842854Y-97410652D02*
X135938092Y-97458271D01*
X136842854Y-98077319D02*
X136842854Y-97553509D01*
X136842854Y-97553509D02*
X136795235Y-97458271D01*
X136795235Y-97458271D02*
X136699997Y-97410652D01*
X136699997Y-97410652D02*
X136509521Y-97410652D01*
X136509521Y-97410652D02*
X136414283Y-97458271D01*
X136842854Y-98029700D02*
X136747616Y-98077319D01*
X136747616Y-98077319D02*
X136509521Y-98077319D01*
X136509521Y-98077319D02*
X136414283Y-98029700D01*
X136414283Y-98029700D02*
X136366664Y-97934461D01*
X136366664Y-97934461D02*
X136366664Y-97839223D01*
X136366664Y-97839223D02*
X136414283Y-97743985D01*
X136414283Y-97743985D02*
X136509521Y-97696366D01*
X136509521Y-97696366D02*
X136747616Y-97696366D01*
X136747616Y-97696366D02*
X136842854Y-97648747D01*
X137176188Y-97410652D02*
X137557140Y-97410652D01*
X137319045Y-97077319D02*
X137319045Y-97934461D01*
X137319045Y-97934461D02*
X137366664Y-98029700D01*
X137366664Y-98029700D02*
X137461902Y-98077319D01*
X137461902Y-98077319D02*
X137557140Y-98077319D01*
X138319045Y-98077319D02*
X138319045Y-97553509D01*
X138319045Y-97553509D02*
X138271426Y-97458271D01*
X138271426Y-97458271D02*
X138176188Y-97410652D01*
X138176188Y-97410652D02*
X137985712Y-97410652D01*
X137985712Y-97410652D02*
X137890474Y-97458271D01*
X138319045Y-98029700D02*
X138223807Y-98077319D01*
X138223807Y-98077319D02*
X137985712Y-98077319D01*
X137985712Y-98077319D02*
X137890474Y-98029700D01*
X137890474Y-98029700D02*
X137842855Y-97934461D01*
X137842855Y-97934461D02*
X137842855Y-97839223D01*
X137842855Y-97839223D02*
X137890474Y-97743985D01*
X137890474Y-97743985D02*
X137985712Y-97696366D01*
X137985712Y-97696366D02*
X138223807Y-97696366D01*
X138223807Y-97696366D02*
X138319045Y-97648747D01*
X138747617Y-98029700D02*
X138842855Y-98077319D01*
X138842855Y-98077319D02*
X139033331Y-98077319D01*
X139033331Y-98077319D02*
X139128569Y-98029700D01*
X139128569Y-98029700D02*
X139176188Y-97934461D01*
X139176188Y-97934461D02*
X139176188Y-97886842D01*
X139176188Y-97886842D02*
X139128569Y-97791604D01*
X139128569Y-97791604D02*
X139033331Y-97743985D01*
X139033331Y-97743985D02*
X138890474Y-97743985D01*
X138890474Y-97743985D02*
X138795236Y-97696366D01*
X138795236Y-97696366D02*
X138747617Y-97601128D01*
X138747617Y-97601128D02*
X138747617Y-97553509D01*
X138747617Y-97553509D02*
X138795236Y-97458271D01*
X138795236Y-97458271D02*
X138890474Y-97410652D01*
X138890474Y-97410652D02*
X139033331Y-97410652D01*
X139033331Y-97410652D02*
X139128569Y-97458271D01*
X139604760Y-98077319D02*
X139604760Y-97077319D01*
X140033331Y-98077319D02*
X140033331Y-97553509D01*
X140033331Y-97553509D02*
X139985712Y-97458271D01*
X139985712Y-97458271D02*
X139890474Y-97410652D01*
X139890474Y-97410652D02*
X139747617Y-97410652D01*
X139747617Y-97410652D02*
X139652379Y-97458271D01*
X139652379Y-97458271D02*
X139604760Y-97505890D01*
X140890474Y-98029700D02*
X140795236Y-98077319D01*
X140795236Y-98077319D02*
X140604760Y-98077319D01*
X140604760Y-98077319D02*
X140509522Y-98029700D01*
X140509522Y-98029700D02*
X140461903Y-97934461D01*
X140461903Y-97934461D02*
X140461903Y-97553509D01*
X140461903Y-97553509D02*
X140509522Y-97458271D01*
X140509522Y-97458271D02*
X140604760Y-97410652D01*
X140604760Y-97410652D02*
X140795236Y-97410652D01*
X140795236Y-97410652D02*
X140890474Y-97458271D01*
X140890474Y-97458271D02*
X140938093Y-97553509D01*
X140938093Y-97553509D02*
X140938093Y-97648747D01*
X140938093Y-97648747D02*
X140461903Y-97743985D01*
X141747617Y-98029700D02*
X141652379Y-98077319D01*
X141652379Y-98077319D02*
X141461903Y-98077319D01*
X141461903Y-98077319D02*
X141366665Y-98029700D01*
X141366665Y-98029700D02*
X141319046Y-97934461D01*
X141319046Y-97934461D02*
X141319046Y-97553509D01*
X141319046Y-97553509D02*
X141366665Y-97458271D01*
X141366665Y-97458271D02*
X141461903Y-97410652D01*
X141461903Y-97410652D02*
X141652379Y-97410652D01*
X141652379Y-97410652D02*
X141747617Y-97458271D01*
X141747617Y-97458271D02*
X141795236Y-97553509D01*
X141795236Y-97553509D02*
X141795236Y-97648747D01*
X141795236Y-97648747D02*
X141319046Y-97743985D01*
X142080951Y-97410652D02*
X142461903Y-97410652D01*
X142223808Y-97077319D02*
X142223808Y-97934461D01*
X142223808Y-97934461D02*
X142271427Y-98029700D01*
X142271427Y-98029700D02*
X142366665Y-98077319D01*
X142366665Y-98077319D02*
X142461903Y-98077319D01*
X142795237Y-97982080D02*
X142842856Y-98029700D01*
X142842856Y-98029700D02*
X142795237Y-98077319D01*
X142795237Y-98077319D02*
X142747618Y-98029700D01*
X142747618Y-98029700D02*
X142795237Y-97982080D01*
X142795237Y-97982080D02*
X142795237Y-98077319D01*
X143414284Y-98077319D02*
X143319046Y-98029700D01*
X143319046Y-98029700D02*
X143271427Y-97934461D01*
X143271427Y-97934461D02*
X143271427Y-97077319D01*
X144223808Y-98029700D02*
X144128570Y-98077319D01*
X144128570Y-98077319D02*
X143938094Y-98077319D01*
X143938094Y-98077319D02*
X143842856Y-98029700D01*
X143842856Y-98029700D02*
X143795237Y-97982080D01*
X143795237Y-97982080D02*
X143747618Y-97886842D01*
X143747618Y-97886842D02*
X143747618Y-97601128D01*
X143747618Y-97601128D02*
X143795237Y-97505890D01*
X143795237Y-97505890D02*
X143842856Y-97458271D01*
X143842856Y-97458271D02*
X143938094Y-97410652D01*
X143938094Y-97410652D02*
X144128570Y-97410652D01*
X144128570Y-97410652D02*
X144223808Y-97458271D01*
X144604761Y-98029700D02*
X144699999Y-98077319D01*
X144699999Y-98077319D02*
X144890475Y-98077319D01*
X144890475Y-98077319D02*
X144985713Y-98029700D01*
X144985713Y-98029700D02*
X145033332Y-97934461D01*
X145033332Y-97934461D02*
X145033332Y-97886842D01*
X145033332Y-97886842D02*
X144985713Y-97791604D01*
X144985713Y-97791604D02*
X144890475Y-97743985D01*
X144890475Y-97743985D02*
X144747618Y-97743985D01*
X144747618Y-97743985D02*
X144652380Y-97696366D01*
X144652380Y-97696366D02*
X144604761Y-97601128D01*
X144604761Y-97601128D02*
X144604761Y-97553509D01*
X144604761Y-97553509D02*
X144652380Y-97458271D01*
X144652380Y-97458271D02*
X144747618Y-97410652D01*
X144747618Y-97410652D02*
X144890475Y-97410652D01*
X144890475Y-97410652D02*
X144985713Y-97458271D01*
X145890475Y-98029700D02*
X145795237Y-98077319D01*
X145795237Y-98077319D02*
X145604761Y-98077319D01*
X145604761Y-98077319D02*
X145509523Y-98029700D01*
X145509523Y-98029700D02*
X145461904Y-97982080D01*
X145461904Y-97982080D02*
X145414285Y-97886842D01*
X145414285Y-97886842D02*
X145414285Y-97601128D01*
X145414285Y-97601128D02*
X145461904Y-97505890D01*
X145461904Y-97505890D02*
X145509523Y-97458271D01*
X145509523Y-97458271D02*
X145604761Y-97410652D01*
X145604761Y-97410652D02*
X145795237Y-97410652D01*
X145795237Y-97410652D02*
X145890475Y-97458271D01*
X146319047Y-97982080D02*
X146366666Y-98029700D01*
X146366666Y-98029700D02*
X146319047Y-98077319D01*
X146319047Y-98077319D02*
X146271428Y-98029700D01*
X146271428Y-98029700D02*
X146319047Y-97982080D01*
X146319047Y-97982080D02*
X146319047Y-98077319D01*
X147223808Y-98029700D02*
X147128570Y-98077319D01*
X147128570Y-98077319D02*
X146938094Y-98077319D01*
X146938094Y-98077319D02*
X146842856Y-98029700D01*
X146842856Y-98029700D02*
X146795237Y-97982080D01*
X146795237Y-97982080D02*
X146747618Y-97886842D01*
X146747618Y-97886842D02*
X146747618Y-97601128D01*
X146747618Y-97601128D02*
X146795237Y-97505890D01*
X146795237Y-97505890D02*
X146842856Y-97458271D01*
X146842856Y-97458271D02*
X146938094Y-97410652D01*
X146938094Y-97410652D02*
X147128570Y-97410652D01*
X147128570Y-97410652D02*
X147223808Y-97458271D01*
X147795237Y-98077319D02*
X147699999Y-98029700D01*
X147699999Y-98029700D02*
X147652380Y-97982080D01*
X147652380Y-97982080D02*
X147604761Y-97886842D01*
X147604761Y-97886842D02*
X147604761Y-97601128D01*
X147604761Y-97601128D02*
X147652380Y-97505890D01*
X147652380Y-97505890D02*
X147699999Y-97458271D01*
X147699999Y-97458271D02*
X147795237Y-97410652D01*
X147795237Y-97410652D02*
X147938094Y-97410652D01*
X147938094Y-97410652D02*
X148033332Y-97458271D01*
X148033332Y-97458271D02*
X148080951Y-97505890D01*
X148080951Y-97505890D02*
X148128570Y-97601128D01*
X148128570Y-97601128D02*
X148128570Y-97886842D01*
X148128570Y-97886842D02*
X148080951Y-97982080D01*
X148080951Y-97982080D02*
X148033332Y-98029700D01*
X148033332Y-98029700D02*
X147938094Y-98077319D01*
X147938094Y-98077319D02*
X147795237Y-98077319D01*
X148557142Y-98077319D02*
X148557142Y-97410652D01*
X148557142Y-97505890D02*
X148604761Y-97458271D01*
X148604761Y-97458271D02*
X148699999Y-97410652D01*
X148699999Y-97410652D02*
X148842856Y-97410652D01*
X148842856Y-97410652D02*
X148938094Y-97458271D01*
X148938094Y-97458271D02*
X148985713Y-97553509D01*
X148985713Y-97553509D02*
X148985713Y-98077319D01*
X148985713Y-97553509D02*
X149033332Y-97458271D01*
X149033332Y-97458271D02*
X149128570Y-97410652D01*
X149128570Y-97410652D02*
X149271427Y-97410652D01*
X149271427Y-97410652D02*
X149366666Y-97458271D01*
X149366666Y-97458271D02*
X149414285Y-97553509D01*
X149414285Y-97553509D02*
X149414285Y-98077319D01*
X150604760Y-97029700D02*
X149747618Y-98315414D01*
X151080951Y-98077319D02*
X150985713Y-98029700D01*
X150985713Y-98029700D02*
X150938094Y-97934461D01*
X150938094Y-97934461D02*
X150938094Y-97077319D01*
X151890475Y-98029700D02*
X151795237Y-98077319D01*
X151795237Y-98077319D02*
X151604761Y-98077319D01*
X151604761Y-98077319D02*
X151509523Y-98029700D01*
X151509523Y-98029700D02*
X151461904Y-97982080D01*
X151461904Y-97982080D02*
X151414285Y-97886842D01*
X151414285Y-97886842D02*
X151414285Y-97601128D01*
X151414285Y-97601128D02*
X151461904Y-97505890D01*
X151461904Y-97505890D02*
X151509523Y-97458271D01*
X151509523Y-97458271D02*
X151604761Y-97410652D01*
X151604761Y-97410652D02*
X151795237Y-97410652D01*
X151795237Y-97410652D02*
X151890475Y-97458271D01*
X152271428Y-98029700D02*
X152366666Y-98077319D01*
X152366666Y-98077319D02*
X152557142Y-98077319D01*
X152557142Y-98077319D02*
X152652380Y-98029700D01*
X152652380Y-98029700D02*
X152699999Y-97934461D01*
X152699999Y-97934461D02*
X152699999Y-97886842D01*
X152699999Y-97886842D02*
X152652380Y-97791604D01*
X152652380Y-97791604D02*
X152557142Y-97743985D01*
X152557142Y-97743985D02*
X152414285Y-97743985D01*
X152414285Y-97743985D02*
X152319047Y-97696366D01*
X152319047Y-97696366D02*
X152271428Y-97601128D01*
X152271428Y-97601128D02*
X152271428Y-97553509D01*
X152271428Y-97553509D02*
X152319047Y-97458271D01*
X152319047Y-97458271D02*
X152414285Y-97410652D01*
X152414285Y-97410652D02*
X152557142Y-97410652D01*
X152557142Y-97410652D02*
X152652380Y-97458271D01*
X153557142Y-98029700D02*
X153461904Y-98077319D01*
X153461904Y-98077319D02*
X153271428Y-98077319D01*
X153271428Y-98077319D02*
X153176190Y-98029700D01*
X153176190Y-98029700D02*
X153128571Y-97982080D01*
X153128571Y-97982080D02*
X153080952Y-97886842D01*
X153080952Y-97886842D02*
X153080952Y-97601128D01*
X153080952Y-97601128D02*
X153128571Y-97505890D01*
X153128571Y-97505890D02*
X153176190Y-97458271D01*
X153176190Y-97458271D02*
X153271428Y-97410652D01*
X153271428Y-97410652D02*
X153461904Y-97410652D01*
X153461904Y-97410652D02*
X153557142Y-97458271D01*
X154699999Y-97029700D02*
X153842857Y-98315414D01*
X154985714Y-97172557D02*
X155033333Y-97124938D01*
X155033333Y-97124938D02*
X155128571Y-97077319D01*
X155128571Y-97077319D02*
X155366666Y-97077319D01*
X155366666Y-97077319D02*
X155461904Y-97124938D01*
X155461904Y-97124938D02*
X155509523Y-97172557D01*
X155509523Y-97172557D02*
X155557142Y-97267795D01*
X155557142Y-97267795D02*
X155557142Y-97363033D01*
X155557142Y-97363033D02*
X155509523Y-97505890D01*
X155509523Y-97505890D02*
X154938095Y-98077319D01*
X154938095Y-98077319D02*
X155557142Y-98077319D01*
X156176190Y-97077319D02*
X156271428Y-97077319D01*
X156271428Y-97077319D02*
X156366666Y-97124938D01*
X156366666Y-97124938D02*
X156414285Y-97172557D01*
X156414285Y-97172557D02*
X156461904Y-97267795D01*
X156461904Y-97267795D02*
X156509523Y-97458271D01*
X156509523Y-97458271D02*
X156509523Y-97696366D01*
X156509523Y-97696366D02*
X156461904Y-97886842D01*
X156461904Y-97886842D02*
X156414285Y-97982080D01*
X156414285Y-97982080D02*
X156366666Y-98029700D01*
X156366666Y-98029700D02*
X156271428Y-98077319D01*
X156271428Y-98077319D02*
X156176190Y-98077319D01*
X156176190Y-98077319D02*
X156080952Y-98029700D01*
X156080952Y-98029700D02*
X156033333Y-97982080D01*
X156033333Y-97982080D02*
X155985714Y-97886842D01*
X155985714Y-97886842D02*
X155938095Y-97696366D01*
X155938095Y-97696366D02*
X155938095Y-97458271D01*
X155938095Y-97458271D02*
X155985714Y-97267795D01*
X155985714Y-97267795D02*
X156033333Y-97172557D01*
X156033333Y-97172557D02*
X156080952Y-97124938D01*
X156080952Y-97124938D02*
X156176190Y-97077319D01*
X157128571Y-97077319D02*
X157223809Y-97077319D01*
X157223809Y-97077319D02*
X157319047Y-97124938D01*
X157319047Y-97124938D02*
X157366666Y-97172557D01*
X157366666Y-97172557D02*
X157414285Y-97267795D01*
X157414285Y-97267795D02*
X157461904Y-97458271D01*
X157461904Y-97458271D02*
X157461904Y-97696366D01*
X157461904Y-97696366D02*
X157414285Y-97886842D01*
X157414285Y-97886842D02*
X157366666Y-97982080D01*
X157366666Y-97982080D02*
X157319047Y-98029700D01*
X157319047Y-98029700D02*
X157223809Y-98077319D01*
X157223809Y-98077319D02*
X157128571Y-98077319D01*
X157128571Y-98077319D02*
X157033333Y-98029700D01*
X157033333Y-98029700D02*
X156985714Y-97982080D01*
X156985714Y-97982080D02*
X156938095Y-97886842D01*
X156938095Y-97886842D02*
X156890476Y-97696366D01*
X156890476Y-97696366D02*
X156890476Y-97458271D01*
X156890476Y-97458271D02*
X156938095Y-97267795D01*
X156938095Y-97267795D02*
X156985714Y-97172557D01*
X156985714Y-97172557D02*
X157033333Y-97124938D01*
X157033333Y-97124938D02*
X157128571Y-97077319D01*
X157795238Y-97077319D02*
X158461904Y-97077319D01*
X158461904Y-97077319D02*
X158033333Y-98077319D01*
X159366666Y-98077319D02*
X158795238Y-98077319D01*
X159080952Y-98077319D02*
X159080952Y-97077319D01*
X159080952Y-97077319D02*
X158985714Y-97220176D01*
X158985714Y-97220176D02*
X158890476Y-97315414D01*
X158890476Y-97315414D02*
X158795238Y-97363033D01*
X159700000Y-97077319D02*
X160366666Y-97077319D01*
X160366666Y-97077319D02*
X159938095Y-98077319D01*
X161271428Y-98077319D02*
X160700000Y-98077319D01*
X160985714Y-98077319D02*
X160985714Y-97077319D01*
X160985714Y-97077319D02*
X160890476Y-97220176D01*
X160890476Y-97220176D02*
X160795238Y-97315414D01*
X160795238Y-97315414D02*
X160700000Y-97363033D01*
X161747619Y-98077319D02*
X161938095Y-98077319D01*
X161938095Y-98077319D02*
X162033333Y-98029700D01*
X162033333Y-98029700D02*
X162080952Y-97982080D01*
X162080952Y-97982080D02*
X162176190Y-97839223D01*
X162176190Y-97839223D02*
X162223809Y-97648747D01*
X162223809Y-97648747D02*
X162223809Y-97267795D01*
X162223809Y-97267795D02*
X162176190Y-97172557D01*
X162176190Y-97172557D02*
X162128571Y-97124938D01*
X162128571Y-97124938D02*
X162033333Y-97077319D01*
X162033333Y-97077319D02*
X161842857Y-97077319D01*
X161842857Y-97077319D02*
X161747619Y-97124938D01*
X161747619Y-97124938D02*
X161700000Y-97172557D01*
X161700000Y-97172557D02*
X161652381Y-97267795D01*
X161652381Y-97267795D02*
X161652381Y-97505890D01*
X161652381Y-97505890D02*
X161700000Y-97601128D01*
X161700000Y-97601128D02*
X161747619Y-97648747D01*
X161747619Y-97648747D02*
X161842857Y-97696366D01*
X161842857Y-97696366D02*
X162033333Y-97696366D01*
X162033333Y-97696366D02*
X162128571Y-97648747D01*
X162128571Y-97648747D02*
X162176190Y-97601128D01*
X162176190Y-97601128D02*
X162223809Y-97505890D01*
X162557143Y-97077319D02*
X163176190Y-97077319D01*
X163176190Y-97077319D02*
X162842857Y-97458271D01*
X162842857Y-97458271D02*
X162985714Y-97458271D01*
X162985714Y-97458271D02*
X163080952Y-97505890D01*
X163080952Y-97505890D02*
X163128571Y-97553509D01*
X163128571Y-97553509D02*
X163176190Y-97648747D01*
X163176190Y-97648747D02*
X163176190Y-97886842D01*
X163176190Y-97886842D02*
X163128571Y-97982080D01*
X163128571Y-97982080D02*
X163080952Y-98029700D01*
X163080952Y-98029700D02*
X162985714Y-98077319D01*
X162985714Y-98077319D02*
X162700000Y-98077319D01*
X162700000Y-98077319D02*
X162604762Y-98029700D01*
X162604762Y-98029700D02*
X162557143Y-97982080D01*
X164033333Y-97410652D02*
X164033333Y-98077319D01*
X163795238Y-97029700D02*
X163557143Y-97743985D01*
X163557143Y-97743985D02*
X164176190Y-97743985D01*
X164319048Y-98172557D02*
X165080952Y-98172557D01*
X165319048Y-98077319D02*
X165319048Y-97077319D01*
X165890476Y-98077319D02*
X165461905Y-97505890D01*
X165890476Y-97077319D02*
X165319048Y-97648747D01*
X166461905Y-98077319D02*
X166366667Y-98029700D01*
X166366667Y-98029700D02*
X166319048Y-97982080D01*
X166319048Y-97982080D02*
X166271429Y-97886842D01*
X166271429Y-97886842D02*
X166271429Y-97601128D01*
X166271429Y-97601128D02*
X166319048Y-97505890D01*
X166319048Y-97505890D02*
X166366667Y-97458271D01*
X166366667Y-97458271D02*
X166461905Y-97410652D01*
X166461905Y-97410652D02*
X166604762Y-97410652D01*
X166604762Y-97410652D02*
X166700000Y-97458271D01*
X166700000Y-97458271D02*
X166747619Y-97505890D01*
X166747619Y-97505890D02*
X166795238Y-97601128D01*
X166795238Y-97601128D02*
X166795238Y-97886842D01*
X166795238Y-97886842D02*
X166747619Y-97982080D01*
X166747619Y-97982080D02*
X166700000Y-98029700D01*
X166700000Y-98029700D02*
X166604762Y-98077319D01*
X166604762Y-98077319D02*
X166461905Y-98077319D01*
X167223810Y-98077319D02*
X167223810Y-97410652D01*
X167223810Y-97601128D02*
X167271429Y-97505890D01*
X167271429Y-97505890D02*
X167319048Y-97458271D01*
X167319048Y-97458271D02*
X167414286Y-97410652D01*
X167414286Y-97410652D02*
X167509524Y-97410652D01*
X168223810Y-98029700D02*
X168128572Y-98077319D01*
X168128572Y-98077319D02*
X167938096Y-98077319D01*
X167938096Y-98077319D02*
X167842858Y-98029700D01*
X167842858Y-98029700D02*
X167795239Y-97934461D01*
X167795239Y-97934461D02*
X167795239Y-97553509D01*
X167795239Y-97553509D02*
X167842858Y-97458271D01*
X167842858Y-97458271D02*
X167938096Y-97410652D01*
X167938096Y-97410652D02*
X168128572Y-97410652D01*
X168128572Y-97410652D02*
X168223810Y-97458271D01*
X168223810Y-97458271D02*
X168271429Y-97553509D01*
X168271429Y-97553509D02*
X168271429Y-97648747D01*
X168271429Y-97648747D02*
X167795239Y-97743985D01*
X169128572Y-98077319D02*
X169128572Y-97553509D01*
X169128572Y-97553509D02*
X169080953Y-97458271D01*
X169080953Y-97458271D02*
X168985715Y-97410652D01*
X168985715Y-97410652D02*
X168795239Y-97410652D01*
X168795239Y-97410652D02*
X168700001Y-97458271D01*
X169128572Y-98029700D02*
X169033334Y-98077319D01*
X169033334Y-98077319D02*
X168795239Y-98077319D01*
X168795239Y-98077319D02*
X168700001Y-98029700D01*
X168700001Y-98029700D02*
X168652382Y-97934461D01*
X168652382Y-97934461D02*
X168652382Y-97839223D01*
X168652382Y-97839223D02*
X168700001Y-97743985D01*
X168700001Y-97743985D02*
X168795239Y-97696366D01*
X168795239Y-97696366D02*
X169033334Y-97696366D01*
X169033334Y-97696366D02*
X169128572Y-97648747D01*
X169604763Y-97410652D02*
X169604763Y-98077319D01*
X169604763Y-97505890D02*
X169652382Y-97458271D01*
X169652382Y-97458271D02*
X169747620Y-97410652D01*
X169747620Y-97410652D02*
X169890477Y-97410652D01*
X169890477Y-97410652D02*
X169985715Y-97458271D01*
X169985715Y-97458271D02*
X170033334Y-97553509D01*
X170033334Y-97553509D02*
X170033334Y-98077319D01*
X170509525Y-97696366D02*
X171271430Y-97696366D01*
X171747620Y-98077319D02*
X171747620Y-97077319D01*
X171747620Y-97553509D02*
X172319048Y-97553509D01*
X172319048Y-98077319D02*
X172319048Y-97077319D01*
X172795239Y-98077319D02*
X172795239Y-97410652D01*
X172795239Y-97601128D02*
X172842858Y-97505890D01*
X172842858Y-97505890D02*
X172890477Y-97458271D01*
X172890477Y-97458271D02*
X172985715Y-97410652D01*
X172985715Y-97410652D02*
X173080953Y-97410652D01*
X173557144Y-98077319D02*
X173461906Y-98029700D01*
X173461906Y-98029700D02*
X173414287Y-97982080D01*
X173414287Y-97982080D02*
X173366668Y-97886842D01*
X173366668Y-97886842D02*
X173366668Y-97601128D01*
X173366668Y-97601128D02*
X173414287Y-97505890D01*
X173414287Y-97505890D02*
X173461906Y-97458271D01*
X173461906Y-97458271D02*
X173557144Y-97410652D01*
X173557144Y-97410652D02*
X173700001Y-97410652D01*
X173700001Y-97410652D02*
X173795239Y-97458271D01*
X173795239Y-97458271D02*
X173842858Y-97505890D01*
X173842858Y-97505890D02*
X173890477Y-97601128D01*
X173890477Y-97601128D02*
X173890477Y-97886842D01*
X173890477Y-97886842D02*
X173842858Y-97982080D01*
X173842858Y-97982080D02*
X173795239Y-98029700D01*
X173795239Y-98029700D02*
X173700001Y-98077319D01*
X173700001Y-98077319D02*
X173557144Y-98077319D01*
X174319049Y-97410652D02*
X174319049Y-98410652D01*
X174319049Y-97458271D02*
X174414287Y-97410652D01*
X174414287Y-97410652D02*
X174604763Y-97410652D01*
X174604763Y-97410652D02*
X174700001Y-97458271D01*
X174700001Y-97458271D02*
X174747620Y-97505890D01*
X174747620Y-97505890D02*
X174795239Y-97601128D01*
X174795239Y-97601128D02*
X174795239Y-97886842D01*
X174795239Y-97886842D02*
X174747620Y-97982080D01*
X174747620Y-97982080D02*
X174700001Y-98029700D01*
X174700001Y-98029700D02*
X174604763Y-98077319D01*
X174604763Y-98077319D02*
X174414287Y-98077319D01*
X174414287Y-98077319D02*
X174319049Y-98029700D01*
X175652382Y-98077319D02*
X175652382Y-97553509D01*
X175652382Y-97553509D02*
X175604763Y-97458271D01*
X175604763Y-97458271D02*
X175509525Y-97410652D01*
X175509525Y-97410652D02*
X175319049Y-97410652D01*
X175319049Y-97410652D02*
X175223811Y-97458271D01*
X175652382Y-98029700D02*
X175557144Y-98077319D01*
X175557144Y-98077319D02*
X175319049Y-98077319D01*
X175319049Y-98077319D02*
X175223811Y-98029700D01*
X175223811Y-98029700D02*
X175176192Y-97934461D01*
X175176192Y-97934461D02*
X175176192Y-97839223D01*
X175176192Y-97839223D02*
X175223811Y-97743985D01*
X175223811Y-97743985D02*
X175319049Y-97696366D01*
X175319049Y-97696366D02*
X175557144Y-97696366D01*
X175557144Y-97696366D02*
X175652382Y-97648747D01*
X176128573Y-98077319D02*
X176128573Y-97410652D01*
X176128573Y-97601128D02*
X176176192Y-97505890D01*
X176176192Y-97505890D02*
X176223811Y-97458271D01*
X176223811Y-97458271D02*
X176319049Y-97410652D01*
X176319049Y-97410652D02*
X176414287Y-97410652D01*
X176604764Y-97410652D02*
X176985716Y-97410652D01*
X176747621Y-97077319D02*
X176747621Y-97934461D01*
X176747621Y-97934461D02*
X176795240Y-98029700D01*
X176795240Y-98029700D02*
X176890478Y-98077319D01*
X176890478Y-98077319D02*
X176985716Y-98077319D01*
X177271431Y-98029700D02*
X177366669Y-98077319D01*
X177366669Y-98077319D02*
X177557145Y-98077319D01*
X177557145Y-98077319D02*
X177652383Y-98029700D01*
X177652383Y-98029700D02*
X177700002Y-97934461D01*
X177700002Y-97934461D02*
X177700002Y-97886842D01*
X177700002Y-97886842D02*
X177652383Y-97791604D01*
X177652383Y-97791604D02*
X177557145Y-97743985D01*
X177557145Y-97743985D02*
X177414288Y-97743985D01*
X177414288Y-97743985D02*
X177319050Y-97696366D01*
X177319050Y-97696366D02*
X177271431Y-97601128D01*
X177271431Y-97601128D02*
X177271431Y-97553509D01*
X177271431Y-97553509D02*
X177319050Y-97458271D01*
X177319050Y-97458271D02*
X177414288Y-97410652D01*
X177414288Y-97410652D02*
X177557145Y-97410652D01*
X177557145Y-97410652D02*
X177652383Y-97458271D01*
X178128574Y-97696366D02*
X178890479Y-97696366D01*
X179366669Y-97553509D02*
X179700002Y-97553509D01*
X179842859Y-98077319D02*
X179366669Y-98077319D01*
X179366669Y-98077319D02*
X179366669Y-97077319D01*
X179366669Y-97077319D02*
X179842859Y-97077319D01*
X180414288Y-98077319D02*
X180319050Y-98029700D01*
X180319050Y-98029700D02*
X180271431Y-97934461D01*
X180271431Y-97934461D02*
X180271431Y-97077319D01*
X181176193Y-98029700D02*
X181080955Y-98077319D01*
X181080955Y-98077319D02*
X180890479Y-98077319D01*
X180890479Y-98077319D02*
X180795241Y-98029700D01*
X180795241Y-98029700D02*
X180747622Y-97934461D01*
X180747622Y-97934461D02*
X180747622Y-97553509D01*
X180747622Y-97553509D02*
X180795241Y-97458271D01*
X180795241Y-97458271D02*
X180890479Y-97410652D01*
X180890479Y-97410652D02*
X181080955Y-97410652D01*
X181080955Y-97410652D02*
X181176193Y-97458271D01*
X181176193Y-97458271D02*
X181223812Y-97553509D01*
X181223812Y-97553509D02*
X181223812Y-97648747D01*
X181223812Y-97648747D02*
X180747622Y-97743985D01*
X182080955Y-98029700D02*
X181985717Y-98077319D01*
X181985717Y-98077319D02*
X181795241Y-98077319D01*
X181795241Y-98077319D02*
X181700003Y-98029700D01*
X181700003Y-98029700D02*
X181652384Y-97982080D01*
X181652384Y-97982080D02*
X181604765Y-97886842D01*
X181604765Y-97886842D02*
X181604765Y-97601128D01*
X181604765Y-97601128D02*
X181652384Y-97505890D01*
X181652384Y-97505890D02*
X181700003Y-97458271D01*
X181700003Y-97458271D02*
X181795241Y-97410652D01*
X181795241Y-97410652D02*
X181985717Y-97410652D01*
X181985717Y-97410652D02*
X182080955Y-97458271D01*
X182509527Y-97696366D02*
X183271432Y-97696366D01*
X183604765Y-97077319D02*
X184176193Y-97077319D01*
X183890479Y-98077319D02*
X183890479Y-97077319D01*
X184842860Y-97553509D02*
X184509527Y-97553509D01*
X184509527Y-98077319D02*
X184509527Y-97077319D01*
X184509527Y-97077319D02*
X184985717Y-97077319D01*
X185366670Y-97696366D02*
X186128575Y-97696366D01*
X186795241Y-97077319D02*
X186890479Y-97077319D01*
X186890479Y-97077319D02*
X186985717Y-97124938D01*
X186985717Y-97124938D02*
X187033336Y-97172557D01*
X187033336Y-97172557D02*
X187080955Y-97267795D01*
X187080955Y-97267795D02*
X187128574Y-97458271D01*
X187128574Y-97458271D02*
X187128574Y-97696366D01*
X187128574Y-97696366D02*
X187080955Y-97886842D01*
X187080955Y-97886842D02*
X187033336Y-97982080D01*
X187033336Y-97982080D02*
X186985717Y-98029700D01*
X186985717Y-98029700D02*
X186890479Y-98077319D01*
X186890479Y-98077319D02*
X186795241Y-98077319D01*
X186795241Y-98077319D02*
X186700003Y-98029700D01*
X186700003Y-98029700D02*
X186652384Y-97982080D01*
X186652384Y-97982080D02*
X186604765Y-97886842D01*
X186604765Y-97886842D02*
X186557146Y-97696366D01*
X186557146Y-97696366D02*
X186557146Y-97458271D01*
X186557146Y-97458271D02*
X186604765Y-97267795D01*
X186604765Y-97267795D02*
X186652384Y-97172557D01*
X186652384Y-97172557D02*
X186700003Y-97124938D01*
X186700003Y-97124938D02*
X186795241Y-97077319D01*
X187985717Y-97077319D02*
X187795241Y-97077319D01*
X187795241Y-97077319D02*
X187700003Y-97124938D01*
X187700003Y-97124938D02*
X187652384Y-97172557D01*
X187652384Y-97172557D02*
X187557146Y-97315414D01*
X187557146Y-97315414D02*
X187509527Y-97505890D01*
X187509527Y-97505890D02*
X187509527Y-97886842D01*
X187509527Y-97886842D02*
X187557146Y-97982080D01*
X187557146Y-97982080D02*
X187604765Y-98029700D01*
X187604765Y-98029700D02*
X187700003Y-98077319D01*
X187700003Y-98077319D02*
X187890479Y-98077319D01*
X187890479Y-98077319D02*
X187985717Y-98029700D01*
X187985717Y-98029700D02*
X188033336Y-97982080D01*
X188033336Y-97982080D02*
X188080955Y-97886842D01*
X188080955Y-97886842D02*
X188080955Y-97648747D01*
X188080955Y-97648747D02*
X188033336Y-97553509D01*
X188033336Y-97553509D02*
X187985717Y-97505890D01*
X187985717Y-97505890D02*
X187890479Y-97458271D01*
X187890479Y-97458271D02*
X187700003Y-97458271D01*
X187700003Y-97458271D02*
X187604765Y-97505890D01*
X187604765Y-97505890D02*
X187557146Y-97553509D01*
X187557146Y-97553509D02*
X187509527Y-97648747D01*
X188461908Y-97791604D02*
X188938098Y-97791604D01*
X188366670Y-98077319D02*
X188700003Y-97077319D01*
X188700003Y-97077319D02*
X189033336Y-98077319D01*
X189128575Y-98172557D02*
X189890479Y-98172557D01*
X190700003Y-97982080D02*
X190652384Y-98029700D01*
X190652384Y-98029700D02*
X190509527Y-98077319D01*
X190509527Y-98077319D02*
X190414289Y-98077319D01*
X190414289Y-98077319D02*
X190271432Y-98029700D01*
X190271432Y-98029700D02*
X190176194Y-97934461D01*
X190176194Y-97934461D02*
X190128575Y-97839223D01*
X190128575Y-97839223D02*
X190080956Y-97648747D01*
X190080956Y-97648747D02*
X190080956Y-97505890D01*
X190080956Y-97505890D02*
X190128575Y-97315414D01*
X190128575Y-97315414D02*
X190176194Y-97220176D01*
X190176194Y-97220176D02*
X190271432Y-97124938D01*
X190271432Y-97124938D02*
X190414289Y-97077319D01*
X190414289Y-97077319D02*
X190509527Y-97077319D01*
X190509527Y-97077319D02*
X190652384Y-97124938D01*
X190652384Y-97124938D02*
X190700003Y-97172557D01*
X191557146Y-97077319D02*
X191366670Y-97077319D01*
X191366670Y-97077319D02*
X191271432Y-97124938D01*
X191271432Y-97124938D02*
X191223813Y-97172557D01*
X191223813Y-97172557D02*
X191128575Y-97315414D01*
X191128575Y-97315414D02*
X191080956Y-97505890D01*
X191080956Y-97505890D02*
X191080956Y-97886842D01*
X191080956Y-97886842D02*
X191128575Y-97982080D01*
X191128575Y-97982080D02*
X191176194Y-98029700D01*
X191176194Y-98029700D02*
X191271432Y-98077319D01*
X191271432Y-98077319D02*
X191461908Y-98077319D01*
X191461908Y-98077319D02*
X191557146Y-98029700D01*
X191557146Y-98029700D02*
X191604765Y-97982080D01*
X191604765Y-97982080D02*
X191652384Y-97886842D01*
X191652384Y-97886842D02*
X191652384Y-97648747D01*
X191652384Y-97648747D02*
X191604765Y-97553509D01*
X191604765Y-97553509D02*
X191557146Y-97505890D01*
X191557146Y-97505890D02*
X191461908Y-97458271D01*
X191461908Y-97458271D02*
X191271432Y-97458271D01*
X191271432Y-97458271D02*
X191176194Y-97505890D01*
X191176194Y-97505890D02*
X191128575Y-97553509D01*
X191128575Y-97553509D02*
X191080956Y-97648747D01*
X192128575Y-98077319D02*
X192319051Y-98077319D01*
X192319051Y-98077319D02*
X192414289Y-98029700D01*
X192414289Y-98029700D02*
X192461908Y-97982080D01*
X192461908Y-97982080D02*
X192557146Y-97839223D01*
X192557146Y-97839223D02*
X192604765Y-97648747D01*
X192604765Y-97648747D02*
X192604765Y-97267795D01*
X192604765Y-97267795D02*
X192557146Y-97172557D01*
X192557146Y-97172557D02*
X192509527Y-97124938D01*
X192509527Y-97124938D02*
X192414289Y-97077319D01*
X192414289Y-97077319D02*
X192223813Y-97077319D01*
X192223813Y-97077319D02*
X192128575Y-97124938D01*
X192128575Y-97124938D02*
X192080956Y-97172557D01*
X192080956Y-97172557D02*
X192033337Y-97267795D01*
X192033337Y-97267795D02*
X192033337Y-97505890D01*
X192033337Y-97505890D02*
X192080956Y-97601128D01*
X192080956Y-97601128D02*
X192128575Y-97648747D01*
X192128575Y-97648747D02*
X192223813Y-97696366D01*
X192223813Y-97696366D02*
X192414289Y-97696366D01*
X192414289Y-97696366D02*
X192509527Y-97648747D01*
X192509527Y-97648747D02*
X192557146Y-97601128D01*
X192557146Y-97601128D02*
X192604765Y-97505890D01*
X192938099Y-97077319D02*
X193557146Y-97077319D01*
X193557146Y-97077319D02*
X193223813Y-97458271D01*
X193223813Y-97458271D02*
X193366670Y-97458271D01*
X193366670Y-97458271D02*
X193461908Y-97505890D01*
X193461908Y-97505890D02*
X193509527Y-97553509D01*
X193509527Y-97553509D02*
X193557146Y-97648747D01*
X193557146Y-97648747D02*
X193557146Y-97886842D01*
X193557146Y-97886842D02*
X193509527Y-97982080D01*
X193509527Y-97982080D02*
X193461908Y-98029700D01*
X193461908Y-98029700D02*
X193366670Y-98077319D01*
X193366670Y-98077319D02*
X193080956Y-98077319D01*
X193080956Y-98077319D02*
X192985718Y-98029700D01*
X192985718Y-98029700D02*
X192938099Y-97982080D01*
X194128575Y-97505890D02*
X194033337Y-97458271D01*
X194033337Y-97458271D02*
X193985718Y-97410652D01*
X193985718Y-97410652D02*
X193938099Y-97315414D01*
X193938099Y-97315414D02*
X193938099Y-97267795D01*
X193938099Y-97267795D02*
X193985718Y-97172557D01*
X193985718Y-97172557D02*
X194033337Y-97124938D01*
X194033337Y-97124938D02*
X194128575Y-97077319D01*
X194128575Y-97077319D02*
X194319051Y-97077319D01*
X194319051Y-97077319D02*
X194414289Y-97124938D01*
X194414289Y-97124938D02*
X194461908Y-97172557D01*
X194461908Y-97172557D02*
X194509527Y-97267795D01*
X194509527Y-97267795D02*
X194509527Y-97315414D01*
X194509527Y-97315414D02*
X194461908Y-97410652D01*
X194461908Y-97410652D02*
X194414289Y-97458271D01*
X194414289Y-97458271D02*
X194319051Y-97505890D01*
X194319051Y-97505890D02*
X194128575Y-97505890D01*
X194128575Y-97505890D02*
X194033337Y-97553509D01*
X194033337Y-97553509D02*
X193985718Y-97601128D01*
X193985718Y-97601128D02*
X193938099Y-97696366D01*
X193938099Y-97696366D02*
X193938099Y-97886842D01*
X193938099Y-97886842D02*
X193985718Y-97982080D01*
X193985718Y-97982080D02*
X194033337Y-98029700D01*
X194033337Y-98029700D02*
X194128575Y-98077319D01*
X194128575Y-98077319D02*
X194319051Y-98077319D01*
X194319051Y-98077319D02*
X194414289Y-98029700D01*
X194414289Y-98029700D02*
X194461908Y-97982080D01*
X194461908Y-97982080D02*
X194509527Y-97886842D01*
X194509527Y-97886842D02*
X194509527Y-97696366D01*
X194509527Y-97696366D02*
X194461908Y-97601128D01*
X194461908Y-97601128D02*
X194414289Y-97553509D01*
X194414289Y-97553509D02*
X194319051Y-97505890D01*
X195366670Y-97410652D02*
X195366670Y-98077319D01*
X195128575Y-97029700D02*
X194890480Y-97743985D01*
X194890480Y-97743985D02*
X195509527Y-97743985D01*
X196319051Y-97410652D02*
X196319051Y-98077319D01*
X196080956Y-97029700D02*
X195842861Y-97743985D01*
X195842861Y-97743985D02*
X196461908Y-97743985D01*
X196842861Y-97982080D02*
X196890480Y-98029700D01*
X196890480Y-98029700D02*
X196842861Y-98077319D01*
X196842861Y-98077319D02*
X196795242Y-98029700D01*
X196795242Y-98029700D02*
X196842861Y-97982080D01*
X196842861Y-97982080D02*
X196842861Y-98077319D01*
X197319051Y-97410652D02*
X197319051Y-98410652D01*
X197319051Y-97458271D02*
X197414289Y-97410652D01*
X197414289Y-97410652D02*
X197604765Y-97410652D01*
X197604765Y-97410652D02*
X197700003Y-97458271D01*
X197700003Y-97458271D02*
X197747622Y-97505890D01*
X197747622Y-97505890D02*
X197795241Y-97601128D01*
X197795241Y-97601128D02*
X197795241Y-97886842D01*
X197795241Y-97886842D02*
X197747622Y-97982080D01*
X197747622Y-97982080D02*
X197700003Y-98029700D01*
X197700003Y-98029700D02*
X197604765Y-98077319D01*
X197604765Y-98077319D02*
X197414289Y-98077319D01*
X197414289Y-98077319D02*
X197319051Y-98029700D01*
X198652384Y-98077319D02*
X198652384Y-97077319D01*
X198652384Y-98029700D02*
X198557146Y-98077319D01*
X198557146Y-98077319D02*
X198366670Y-98077319D01*
X198366670Y-98077319D02*
X198271432Y-98029700D01*
X198271432Y-98029700D02*
X198223813Y-97982080D01*
X198223813Y-97982080D02*
X198176194Y-97886842D01*
X198176194Y-97886842D02*
X198176194Y-97601128D01*
X198176194Y-97601128D02*
X198223813Y-97505890D01*
X198223813Y-97505890D02*
X198271432Y-97458271D01*
X198271432Y-97458271D02*
X198366670Y-97410652D01*
X198366670Y-97410652D02*
X198557146Y-97410652D01*
X198557146Y-97410652D02*
X198652384Y-97458271D01*
X198985718Y-97410652D02*
X199366670Y-97410652D01*
X199128575Y-98077319D02*
X199128575Y-97220176D01*
X199128575Y-97220176D02*
X199176194Y-97124938D01*
X199176194Y-97124938D02*
X199271432Y-97077319D01*
X199271432Y-97077319D02*
X199366670Y-97077319D01*
D12*
%TO.C,U8*%
X166004167Y-84748167D02*
G75*
G03*
X166004167Y-84748167I-127000J0D01*
G01*
D13*
%TO.C,U7*%
X151295662Y-83746007D02*
X151168667Y-84000000D01*
X151295662Y-83746007D02*
X151041671Y-83746007D01*
X151295662Y-81453993D02*
X151168667Y-81200000D01*
X151168667Y-84000000D02*
X151168667Y-81200000D01*
X151041672Y-81453993D02*
X151295662Y-81453993D01*
X151041672Y-81453993D02*
X151168667Y-81200000D01*
X151041671Y-83746007D02*
X151168667Y-84000000D01*
X150128442Y-81050600D02*
X150128462Y-86497070D01*
X149874468Y-86243065D02*
X150128461Y-86116070D01*
X149874468Y-85989074D02*
X150128461Y-86116070D01*
X149874468Y-85989074D02*
X149874468Y-86243065D01*
X149733050Y-80083436D02*
X147933049Y-80083436D01*
X149733043Y-82099874D02*
X149733052Y-79702436D01*
X149598982Y-84928651D02*
X148582982Y-84928651D01*
X149583231Y-84000000D02*
X151549667Y-84000000D01*
X149583231Y-81200000D02*
X151549667Y-81200000D01*
X149479058Y-79956441D02*
X149733050Y-80083436D01*
X149479058Y-79956441D02*
X149479057Y-80210431D01*
X149479057Y-80210431D02*
X149733050Y-80083436D01*
X149337101Y-85055647D02*
X149337101Y-84801656D01*
X149337101Y-85055647D02*
X149083108Y-84928651D01*
X149337101Y-84801656D02*
X149083108Y-84928651D01*
X149083105Y-84000000D02*
X149083110Y-85309651D01*
X148582979Y-84000000D02*
X148582984Y-85309651D01*
X148328990Y-85055646D02*
X148582982Y-84928651D01*
X148328990Y-84801655D02*
X148582982Y-84928651D01*
X148328990Y-84801655D02*
X148328990Y-85055646D01*
X148187042Y-79956441D02*
X147933049Y-80083436D01*
X148187041Y-80210432D02*
X148187042Y-79956441D01*
X148187041Y-80210432D02*
X147933049Y-80083436D01*
X148067108Y-84928651D02*
X149083108Y-84928651D01*
X147933041Y-82099874D02*
X147933050Y-79702436D01*
X147791653Y-86243066D02*
X147791653Y-85989075D01*
X147791653Y-86243066D02*
X147537661Y-86116070D01*
X147791653Y-85989075D02*
X147537661Y-86116070D01*
X147537661Y-86116070D02*
X150128461Y-86116070D01*
X147537653Y-84149400D02*
X146092585Y-84149400D01*
X147537653Y-81050600D02*
X146092585Y-81050600D01*
X147537642Y-81050600D02*
X147537662Y-86497070D01*
X146600581Y-81304592D02*
X146473585Y-81050600D01*
X146600580Y-83895407D02*
X146473585Y-84149400D01*
X146600580Y-83895407D02*
X146346589Y-83895408D01*
X146473585Y-84149400D02*
X146473585Y-81050600D01*
X146346590Y-81304593D02*
X146600581Y-81304592D01*
X146346590Y-81304593D02*
X146473585Y-81050600D01*
X146346589Y-83895408D02*
X146473585Y-84149400D01*
%TO.C,U5*%
X177262629Y-83153993D02*
X177389624Y-82900000D01*
X177262629Y-83153993D02*
X177516620Y-83153993D01*
X177262629Y-85446007D02*
X177389624Y-85700000D01*
X177389624Y-82900000D02*
X177389624Y-85700000D01*
X177516619Y-85446007D02*
X177262629Y-85446007D01*
X177516619Y-85446007D02*
X177389624Y-85700000D01*
X177516620Y-83153993D02*
X177389624Y-82900000D01*
X178429849Y-85849400D02*
X178429829Y-80402930D01*
X178683823Y-80656935D02*
X178429830Y-80783930D01*
X178683823Y-80910926D02*
X178429830Y-80783930D01*
X178683823Y-80910926D02*
X178683823Y-80656935D01*
X178825241Y-86816564D02*
X180625242Y-86816564D01*
X178825248Y-84800126D02*
X178825239Y-87197564D01*
X178959309Y-81971349D02*
X179975309Y-81971349D01*
X178975060Y-82900000D02*
X177008624Y-82900000D01*
X178975060Y-85700000D02*
X177008624Y-85700000D01*
X179079233Y-86943559D02*
X178825241Y-86816564D01*
X179079233Y-86943559D02*
X179079234Y-86689569D01*
X179079234Y-86689569D02*
X178825241Y-86816564D01*
X179221190Y-81844353D02*
X179221190Y-82098344D01*
X179221190Y-81844353D02*
X179475183Y-81971349D01*
X179221190Y-82098344D02*
X179475183Y-81971349D01*
X179475186Y-82900000D02*
X179475181Y-81590349D01*
X179975312Y-82900000D02*
X179975307Y-81590349D01*
X180229301Y-81844354D02*
X179975309Y-81971349D01*
X180229301Y-82098345D02*
X179975309Y-81971349D01*
X180229301Y-82098345D02*
X180229301Y-81844354D01*
X180371249Y-86943559D02*
X180625242Y-86816564D01*
X180371250Y-86689568D02*
X180371249Y-86943559D01*
X180371250Y-86689568D02*
X180625242Y-86816564D01*
X180491183Y-81971349D02*
X179475183Y-81971349D01*
X180625250Y-84800126D02*
X180625241Y-87197564D01*
X180766638Y-80656934D02*
X180766638Y-80910925D01*
X180766638Y-80656934D02*
X181020630Y-80783930D01*
X180766638Y-80910925D02*
X181020630Y-80783930D01*
X181020630Y-80783930D02*
X178429830Y-80783930D01*
X181020638Y-82750600D02*
X182465706Y-82750600D01*
X181020638Y-85849400D02*
X182465706Y-85849400D01*
X181020649Y-85849400D02*
X181020629Y-80402930D01*
X181957710Y-85595408D02*
X182084706Y-85849400D01*
X181957711Y-83004593D02*
X182084706Y-82750600D01*
X181957711Y-83004593D02*
X182211702Y-83004592D01*
X182084706Y-82750600D02*
X182084706Y-85849400D01*
X182211701Y-85595407D02*
X181957710Y-85595408D01*
X182211701Y-85595407D02*
X182084706Y-85849400D01*
X182211702Y-83004592D02*
X182084706Y-82750600D01*
D14*
%TO.C,U3*%
X148880000Y-91115000D02*
G75*
G03*
X148880000Y-91115000I-100000J0D01*
G01*
%TO.C,D3*%
G36*
X179080000Y-77235000D02*
G01*
X178840000Y-77235000D01*
X178840000Y-77185000D01*
X179080000Y-77185000D01*
X179080000Y-77235000D01*
G37*
G36*
X178375000Y-78780000D02*
G01*
X178125000Y-78780000D01*
X178125000Y-77020000D01*
X178375000Y-77020000D01*
X178375000Y-78780000D01*
G37*
G36*
X177340000Y-78500000D02*
G01*
X177100000Y-78500000D01*
X177100000Y-78450000D01*
X177340000Y-78450000D01*
X177340000Y-78500000D01*
G37*
G36*
X177245000Y-78595000D02*
G01*
X177195000Y-78595000D01*
X177195000Y-78355000D01*
X177245000Y-78355000D01*
X177245000Y-78595000D01*
G37*
G36*
X179075000Y-78600000D02*
G01*
X179025000Y-78600000D01*
X179025000Y-78250000D01*
X178875000Y-78250000D01*
X178875000Y-78550000D01*
X178975000Y-78550000D01*
X178975000Y-78600000D01*
X178875000Y-78600000D01*
X178825000Y-78550000D01*
X178825000Y-78250000D01*
X178875000Y-78200000D01*
X178925000Y-78200000D01*
X179075000Y-78200000D01*
X179075000Y-78600000D01*
G37*
G36*
X177350000Y-77550000D02*
G01*
X177300000Y-77550000D01*
X177300000Y-77200000D01*
X177150000Y-77200000D01*
X177150000Y-77500000D01*
X177250000Y-77500000D01*
X177250000Y-77550000D01*
X177150000Y-77550000D01*
X177100000Y-77500000D01*
X177100000Y-77200000D01*
X177150000Y-77150000D01*
X177200000Y-77150000D01*
X177350000Y-77150000D01*
X177350000Y-77550000D01*
G37*
G36*
X176975000Y-77200000D02*
G01*
X176925000Y-77200000D01*
X176925000Y-77500000D01*
X176975000Y-77500000D01*
X176975000Y-77550000D01*
X176825000Y-77550000D01*
X176825000Y-77500000D01*
X176875000Y-77500000D01*
X176875000Y-77200000D01*
X176825000Y-77200000D01*
X176825000Y-77150000D01*
X176975000Y-77150000D01*
X176975000Y-77200000D01*
G37*
G36*
X176800000Y-78350000D02*
G01*
X176950000Y-78350000D01*
X176950000Y-78650000D01*
X176900000Y-78650000D01*
X176900000Y-78400000D01*
X176800000Y-78400000D01*
X176800000Y-78550000D01*
X176750000Y-78550000D01*
X176750000Y-78400000D01*
X176650000Y-78400000D01*
X176650000Y-78350000D01*
X176750000Y-78350000D01*
X176750000Y-78250000D01*
X176800000Y-78250000D01*
X176800000Y-78350000D01*
G37*
G36*
X178730000Y-77190000D02*
G01*
X178730000Y-77380000D01*
X178510000Y-77380000D01*
X178510000Y-77480000D01*
X178730000Y-77480000D01*
X178730000Y-77520000D01*
X178720000Y-77520000D01*
X178480000Y-77520000D01*
X178480000Y-77340000D01*
X178690000Y-77340000D01*
X178690000Y-77230000D01*
X178480000Y-77230000D01*
X178480000Y-77180000D01*
X178720000Y-77180000D01*
X178730000Y-77180000D01*
X178730000Y-77190000D01*
G37*
G36*
X178750000Y-78250000D02*
G01*
X178750000Y-78550000D01*
X178700000Y-78600000D01*
X178650000Y-78600000D01*
X178650000Y-78550000D01*
X178700000Y-78550000D01*
X178700000Y-78250000D01*
X178500000Y-78250000D01*
X178500000Y-78550000D01*
X178600000Y-78550000D01*
X178600000Y-78600000D01*
X178500000Y-78600000D01*
X178450000Y-78550000D01*
X178450000Y-78250000D01*
X178500000Y-78200000D01*
X178700000Y-78200000D01*
X178750000Y-78250000D01*
G37*
%TO.C,U2*%
X153097000Y-98902000D02*
G75*
G03*
X153097000Y-98902000I-100000J0D01*
G01*
%TO.C,D6*%
G36*
X174280000Y-77235000D02*
G01*
X174040000Y-77235000D01*
X174040000Y-77185000D01*
X174280000Y-77185000D01*
X174280000Y-77235000D01*
G37*
G36*
X173575000Y-78780000D02*
G01*
X173325000Y-78780000D01*
X173325000Y-77020000D01*
X173575000Y-77020000D01*
X173575000Y-78780000D01*
G37*
G36*
X172540000Y-78500000D02*
G01*
X172300000Y-78500000D01*
X172300000Y-78450000D01*
X172540000Y-78450000D01*
X172540000Y-78500000D01*
G37*
G36*
X172445000Y-78595000D02*
G01*
X172395000Y-78595000D01*
X172395000Y-78355000D01*
X172445000Y-78355000D01*
X172445000Y-78595000D01*
G37*
G36*
X174275000Y-78600000D02*
G01*
X174225000Y-78600000D01*
X174225000Y-78250000D01*
X174075000Y-78250000D01*
X174075000Y-78550000D01*
X174175000Y-78550000D01*
X174175000Y-78600000D01*
X174075000Y-78600000D01*
X174025000Y-78550000D01*
X174025000Y-78250000D01*
X174075000Y-78200000D01*
X174125000Y-78200000D01*
X174275000Y-78200000D01*
X174275000Y-78600000D01*
G37*
G36*
X172550000Y-77550000D02*
G01*
X172500000Y-77550000D01*
X172500000Y-77200000D01*
X172350000Y-77200000D01*
X172350000Y-77500000D01*
X172450000Y-77500000D01*
X172450000Y-77550000D01*
X172350000Y-77550000D01*
X172300000Y-77500000D01*
X172300000Y-77200000D01*
X172350000Y-77150000D01*
X172400000Y-77150000D01*
X172550000Y-77150000D01*
X172550000Y-77550000D01*
G37*
G36*
X172175000Y-77200000D02*
G01*
X172125000Y-77200000D01*
X172125000Y-77500000D01*
X172175000Y-77500000D01*
X172175000Y-77550000D01*
X172025000Y-77550000D01*
X172025000Y-77500000D01*
X172075000Y-77500000D01*
X172075000Y-77200000D01*
X172025000Y-77200000D01*
X172025000Y-77150000D01*
X172175000Y-77150000D01*
X172175000Y-77200000D01*
G37*
G36*
X172000000Y-78350000D02*
G01*
X172150000Y-78350000D01*
X172150000Y-78650000D01*
X172100000Y-78650000D01*
X172100000Y-78400000D01*
X172000000Y-78400000D01*
X172000000Y-78550000D01*
X171950000Y-78550000D01*
X171950000Y-78400000D01*
X171850000Y-78400000D01*
X171850000Y-78350000D01*
X171950000Y-78350000D01*
X171950000Y-78250000D01*
X172000000Y-78250000D01*
X172000000Y-78350000D01*
G37*
G36*
X173930000Y-77190000D02*
G01*
X173930000Y-77380000D01*
X173710000Y-77380000D01*
X173710000Y-77480000D01*
X173930000Y-77480000D01*
X173930000Y-77520000D01*
X173920000Y-77520000D01*
X173680000Y-77520000D01*
X173680000Y-77340000D01*
X173890000Y-77340000D01*
X173890000Y-77230000D01*
X173680000Y-77230000D01*
X173680000Y-77180000D01*
X173920000Y-77180000D01*
X173930000Y-77180000D01*
X173930000Y-77190000D01*
G37*
G36*
X173950000Y-78250000D02*
G01*
X173950000Y-78550000D01*
X173900000Y-78600000D01*
X173850000Y-78600000D01*
X173850000Y-78550000D01*
X173900000Y-78550000D01*
X173900000Y-78250000D01*
X173700000Y-78250000D01*
X173700000Y-78550000D01*
X173800000Y-78550000D01*
X173800000Y-78600000D01*
X173700000Y-78600000D01*
X173650000Y-78550000D01*
X173650000Y-78250000D01*
X173700000Y-78200000D01*
X173900000Y-78200000D01*
X173950000Y-78250000D01*
G37*
D15*
%TO.C,J9*%
X160576000Y-94087500D02*
G75*
G03*
X160576000Y-94087500I-199000J0D01*
G01*
%TD*%
M02*
