%TF.GenerationSoftware,KiCad,Pcbnew,7.0.5*%
%TF.CreationDate,2023-06-28T21:22:15+09:00*%
%TF.ProjectId,robotrace_v2_main,726f626f-7472-4616-9365-5f76325f6d61,rev?*%
%TF.SameCoordinates,Original*%
%TF.FileFunction,Soldermask,Bot*%
%TF.FilePolarity,Negative*%
%FSLAX46Y46*%
G04 Gerber Fmt 4.6, Leading zero omitted, Abs format (unit mm)*
G04 Created by KiCad (PCBNEW 7.0.5) date 2023-06-28 21:22:15*
%MOMM*%
%LPD*%
G01*
G04 APERTURE LIST*
G04 Aperture macros list*
%AMRoundRect*
0 Rectangle with rounded corners*
0 $1 Rounding radius*
0 $2 $3 $4 $5 $6 $7 $8 $9 X,Y pos of 4 corners*
0 Add a 4 corners polygon primitive as box body*
4,1,4,$2,$3,$4,$5,$6,$7,$8,$9,$2,$3,0*
0 Add four circle primitives for the rounded corners*
1,1,$1+$1,$2,$3*
1,1,$1+$1,$4,$5*
1,1,$1+$1,$6,$7*
1,1,$1+$1,$8,$9*
0 Add four rect primitives between the rounded corners*
20,1,$1+$1,$2,$3,$4,$5,0*
20,1,$1+$1,$4,$5,$6,$7,0*
20,1,$1+$1,$6,$7,$8,$9,0*
20,1,$1+$1,$8,$9,$2,$3,0*%
%AMRotRect*
0 Rectangle, with rotation*
0 The origin of the aperture is its center*
0 $1 length*
0 $2 width*
0 $3 Rotation angle, in degrees counterclockwise*
0 Add horizontal line*
21,1,$1,$2,0,0,$3*%
G04 Aperture macros list end*
%ADD10RoundRect,0.250000X-0.675000X0.600000X-0.675000X-0.600000X0.675000X-0.600000X0.675000X0.600000X0*%
%ADD11O,1.850000X1.700000*%
%ADD12R,1.000000X1.000000*%
%ADD13O,1.000000X1.000000*%
%ADD14RoundRect,0.250000X0.675000X-0.600000X0.675000X0.600000X-0.675000X0.600000X-0.675000X-0.600000X0*%
%ADD15RoundRect,0.135000X-0.135000X-0.185000X0.135000X-0.185000X0.135000X0.185000X-0.135000X0.185000X0*%
%ADD16R,0.900000X0.400000*%
%ADD17RoundRect,0.200000X0.275000X-0.200000X0.275000X0.200000X-0.275000X0.200000X-0.275000X-0.200000X0*%
%ADD18RoundRect,0.140000X0.021213X-0.219203X0.219203X-0.021213X-0.021213X0.219203X-0.219203X0.021213X0*%
%ADD19RoundRect,0.237500X0.237500X-0.300000X0.237500X0.300000X-0.237500X0.300000X-0.237500X-0.300000X0*%
%ADD20RoundRect,0.135000X-0.226274X-0.035355X-0.035355X-0.226274X0.226274X0.035355X0.035355X0.226274X0*%
%ADD21RoundRect,0.140000X-0.021213X0.219203X-0.219203X0.021213X0.021213X-0.219203X0.219203X-0.021213X0*%
%ADD22RotRect,1.300000X1.000000X45.000000*%
%ADD23RoundRect,0.140000X0.219203X0.021213X0.021213X0.219203X-0.219203X-0.021213X-0.021213X-0.219203X0*%
%ADD24RoundRect,0.135000X0.185000X-0.135000X0.185000X0.135000X-0.185000X0.135000X-0.185000X-0.135000X0*%
%ADD25RoundRect,0.150000X-0.150000X-0.200000X0.150000X-0.200000X0.150000X0.200000X-0.150000X0.200000X0*%
%ADD26RoundRect,0.250000X0.475000X-0.250000X0.475000X0.250000X-0.475000X0.250000X-0.475000X-0.250000X0*%
%ADD27RoundRect,0.289157X1.110843X-0.910843X1.110843X0.910843X-1.110843X0.910843X-1.110843X-0.910843X0*%
%ADD28RoundRect,0.140000X-0.219203X-0.021213X-0.021213X-0.219203X0.219203X0.021213X0.021213X0.219203X0*%
%ADD29R,0.300000X1.000000*%
%ADD30R,2.000000X1.300000*%
%ADD31RoundRect,0.140000X-0.140000X-0.170000X0.140000X-0.170000X0.140000X0.170000X-0.140000X0.170000X0*%
%ADD32RoundRect,0.135000X-0.185000X0.135000X-0.185000X-0.135000X0.185000X-0.135000X0.185000X0.135000X0*%
%ADD33RoundRect,0.075000X-0.548008X0.441942X0.441942X-0.548008X0.548008X-0.441942X-0.441942X0.548008X0*%
%ADD34RoundRect,0.075000X-0.548008X-0.441942X-0.441942X-0.548008X0.548008X0.441942X0.441942X0.548008X0*%
%ADD35RoundRect,0.250000X-0.450000X-0.800000X0.450000X-0.800000X0.450000X0.800000X-0.450000X0.800000X0*%
G04 APERTURE END LIST*
D10*
%TO.C,J3*%
X184350000Y-81500000D03*
D11*
X184350000Y-84000000D03*
%TD*%
D12*
%TO.C,J5*%
X149320000Y-74775000D03*
D13*
X149320000Y-73505000D03*
X150590000Y-74775000D03*
X150590000Y-73505000D03*
X151860000Y-74775000D03*
X151860000Y-73505000D03*
X153130000Y-74775000D03*
X153130000Y-73505000D03*
X154400000Y-74775000D03*
X154400000Y-73505000D03*
%TD*%
D14*
%TO.C,J1*%
X144000000Y-84000000D03*
D11*
X144000000Y-81500000D03*
%TD*%
D14*
%TO.C,J2*%
X144000000Y-92400000D03*
D11*
X144000000Y-89900000D03*
%TD*%
D12*
%TO.C,J6*%
X173800000Y-74825000D03*
D13*
X173800000Y-73555000D03*
X175070000Y-74825000D03*
X175070000Y-73555000D03*
X176340000Y-74825000D03*
X176340000Y-73555000D03*
X177610000Y-74825000D03*
X177610000Y-73555000D03*
X178880000Y-74825000D03*
X178880000Y-73555000D03*
%TD*%
D15*
%TO.C,R36*%
X177990000Y-77400000D03*
X179010000Y-77400000D03*
%TD*%
D16*
%TO.C,U9*%
X176100000Y-84750000D03*
X176100000Y-84100000D03*
X176100000Y-83450000D03*
X178300000Y-83450000D03*
X178300000Y-84100000D03*
X178300000Y-84750000D03*
%TD*%
D17*
%TO.C,R28*%
X171300000Y-74250000D03*
X171300000Y-72600000D03*
%TD*%
D18*
%TO.C,C3*%
X173260589Y-83939411D03*
X173939411Y-83260589D03*
%TD*%
D19*
%TO.C,C9*%
X162600000Y-99800000D03*
X162600000Y-98075000D03*
%TD*%
D20*
%TO.C,R1*%
X154939376Y-87939376D03*
X155660624Y-88660624D03*
%TD*%
D21*
%TO.C,C1*%
X154939411Y-84660589D03*
X154260589Y-85339411D03*
%TD*%
D22*
%TO.C,Y1*%
X154185786Y-80541421D03*
X155741421Y-78985786D03*
X157014214Y-80258579D03*
X155458579Y-81814214D03*
%TD*%
D23*
%TO.C,C6*%
X159839411Y-77189411D03*
X159160589Y-76510589D03*
%TD*%
D17*
%TO.C,R26*%
X168100000Y-74250000D03*
X168100000Y-72600000D03*
%TD*%
D21*
%TO.C,C5*%
X155739411Y-85460589D03*
X155060589Y-86139411D03*
%TD*%
D17*
%TO.C,R20*%
X158500000Y-74250000D03*
X158500000Y-72600000D03*
%TD*%
D15*
%TO.C,R35*%
X174790000Y-77400000D03*
X175810000Y-77400000D03*
%TD*%
D17*
%TO.C,R19*%
X156900000Y-74250000D03*
X156900000Y-72600000D03*
%TD*%
%TO.C,R27*%
X169700000Y-74250000D03*
X169700000Y-72600000D03*
%TD*%
D24*
%TO.C,R13*%
X149000000Y-81800000D03*
X149000000Y-80780000D03*
%TD*%
D25*
%TO.C,D5*%
X179100000Y-78900000D03*
X177700000Y-78900000D03*
%TD*%
D19*
%TO.C,C11*%
X159390000Y-99800000D03*
X159390000Y-98075000D03*
%TD*%
D17*
%TO.C,R22*%
X161700000Y-74250000D03*
X161700000Y-72600000D03*
%TD*%
D26*
%TO.C,C15*%
X150400000Y-90850000D03*
X150400000Y-88950000D03*
%TD*%
D21*
%TO.C,C8*%
X154939411Y-77660589D03*
X154260589Y-78339411D03*
%TD*%
D27*
%TO.C,C25*%
X156000000Y-99600000D03*
X156000000Y-93200000D03*
%TD*%
D26*
%TO.C,C14*%
X152600000Y-90850000D03*
X152600000Y-88950000D03*
%TD*%
D19*
%TO.C,C10*%
X161000000Y-99800000D03*
X161000000Y-98075000D03*
%TD*%
D23*
%TO.C,C7*%
X173139411Y-82539411D03*
X172460589Y-81860589D03*
%TD*%
D17*
%TO.C,R25*%
X166500000Y-74250000D03*
X166500000Y-72600000D03*
%TD*%
D23*
%TO.C,C2*%
X166939411Y-76539411D03*
X166260589Y-75860589D03*
%TD*%
D26*
%TO.C,C16*%
X148200000Y-90850000D03*
X148200000Y-88950000D03*
%TD*%
D28*
%TO.C,C4*%
X166360589Y-93060589D03*
X167039411Y-93739411D03*
%TD*%
D27*
%TO.C,C26*%
X150800000Y-99600000D03*
X150800000Y-93200000D03*
%TD*%
D16*
%TO.C,U10*%
X152400000Y-81900000D03*
X152400000Y-82550000D03*
X152400000Y-83200000D03*
X150200000Y-83200000D03*
X150200000Y-82550000D03*
X150200000Y-81900000D03*
%TD*%
D17*
%TO.C,R23*%
X163300000Y-74250000D03*
X163300000Y-72600000D03*
%TD*%
D29*
%TO.C,J12*%
X176150000Y-95400000D03*
X175650000Y-95400000D03*
X175150000Y-95400000D03*
X174650000Y-95400000D03*
X174150000Y-95400000D03*
X173650000Y-95400000D03*
X173150000Y-95400000D03*
X172650000Y-95400000D03*
X172150000Y-95400000D03*
X171650000Y-95400000D03*
X171150000Y-95400000D03*
X170650000Y-95400000D03*
X170150000Y-95400000D03*
X169650000Y-95400000D03*
X169150000Y-95400000D03*
X168650000Y-95400000D03*
D30*
X178450000Y-98100000D03*
X166350000Y-98100000D03*
%TD*%
D31*
%TO.C,C31*%
X174820000Y-78900000D03*
X175780000Y-78900000D03*
%TD*%
D32*
%TO.C,R5*%
X179400000Y-82390000D03*
X179400000Y-83410000D03*
%TD*%
D17*
%TO.C,R24*%
X164900000Y-74250000D03*
X164900000Y-72600000D03*
%TD*%
%TO.C,R21*%
X160100000Y-74250000D03*
X160100000Y-72600000D03*
%TD*%
D24*
%TO.C,R16*%
X149000000Y-84310000D03*
X149000000Y-83290000D03*
%TD*%
D33*
%TO.C,U1*%
X157434686Y-83200000D03*
X157788239Y-82846447D03*
X158141792Y-82492894D03*
X158495346Y-82139340D03*
X158848899Y-81785787D03*
X159202453Y-81432233D03*
X159556006Y-81078680D03*
X159909559Y-80725127D03*
X160263113Y-80371573D03*
X160616666Y-80018020D03*
X160970219Y-79664467D03*
X161323773Y-79310913D03*
X161677326Y-78957360D03*
X162030880Y-78603806D03*
X162384433Y-78250253D03*
X162737986Y-77896700D03*
D34*
X165460348Y-77896700D03*
X165813901Y-78250253D03*
X166167454Y-78603806D03*
X166521008Y-78957360D03*
X166874561Y-79310913D03*
X167228115Y-79664467D03*
X167581668Y-80018020D03*
X167935221Y-80371573D03*
X168288775Y-80725127D03*
X168642328Y-81078680D03*
X168995881Y-81432233D03*
X169349435Y-81785787D03*
X169702988Y-82139340D03*
X170056542Y-82492894D03*
X170410095Y-82846447D03*
X170763648Y-83200000D03*
D33*
X170763648Y-85922362D03*
X170410095Y-86275915D03*
X170056542Y-86629468D03*
X169702988Y-86983022D03*
X169349435Y-87336575D03*
X168995881Y-87690129D03*
X168642328Y-88043682D03*
X168288775Y-88397235D03*
X167935221Y-88750789D03*
X167581668Y-89104342D03*
X167228115Y-89457895D03*
X166874561Y-89811449D03*
X166521008Y-90165002D03*
X166167454Y-90518556D03*
X165813901Y-90872109D03*
X165460348Y-91225662D03*
D34*
X162737986Y-91225662D03*
X162384433Y-90872109D03*
X162030880Y-90518556D03*
X161677326Y-90165002D03*
X161323773Y-89811449D03*
X160970219Y-89457895D03*
X160616666Y-89104342D03*
X160263113Y-88750789D03*
X159909559Y-88397235D03*
X159556006Y-88043682D03*
X159202453Y-87690129D03*
X158848899Y-87336575D03*
X158495346Y-86983022D03*
X158141792Y-86629468D03*
X157788239Y-86275915D03*
X157434686Y-85922362D03*
%TD*%
D35*
%TO.C,D2*%
X181900000Y-93400000D03*
X186300000Y-93400000D03*
%TD*%
D32*
%TO.C,R6*%
X179400000Y-84790000D03*
X179400000Y-85810000D03*
%TD*%
M02*
