%TF.GenerationSoftware,KiCad,Pcbnew,7.0.5*%
%TF.CreationDate,2023-06-28T21:22:15+09:00*%
%TF.ProjectId,robotrace_v2_main,726f626f-7472-4616-9365-5f76325f6d61,rev?*%
%TF.SameCoordinates,Original*%
%TF.FileFunction,Soldermask,Top*%
%TF.FilePolarity,Negative*%
%FSLAX46Y46*%
G04 Gerber Fmt 4.6, Leading zero omitted, Abs format (unit mm)*
G04 Created by KiCad (PCBNEW 7.0.5) date 2023-06-28 21:22:15*
%MOMM*%
%LPD*%
G01*
G04 APERTURE LIST*
G04 Aperture macros list*
%AMRoundRect*
0 Rectangle with rounded corners*
0 $1 Rounding radius*
0 $2 $3 $4 $5 $6 $7 $8 $9 X,Y pos of 4 corners*
0 Add a 4 corners polygon primitive as box body*
4,1,4,$2,$3,$4,$5,$6,$7,$8,$9,$2,$3,0*
0 Add four circle primitives for the rounded corners*
1,1,$1+$1,$2,$3*
1,1,$1+$1,$4,$5*
1,1,$1+$1,$6,$7*
1,1,$1+$1,$8,$9*
0 Add four rect primitives between the rounded corners*
20,1,$1+$1,$2,$3,$4,$5,0*
20,1,$1+$1,$4,$5,$6,$7,0*
20,1,$1+$1,$6,$7,$8,$9,0*
20,1,$1+$1,$8,$9,$2,$3,0*%
G04 Aperture macros list end*
%ADD10RoundRect,0.140000X0.170000X-0.140000X0.170000X0.140000X-0.170000X0.140000X-0.170000X-0.140000X0*%
%ADD11RoundRect,0.140000X0.140000X0.170000X-0.140000X0.170000X-0.140000X-0.170000X0.140000X-0.170000X0*%
%ADD12RoundRect,0.135000X0.185000X-0.135000X0.185000X0.135000X-0.185000X0.135000X-0.185000X-0.135000X0*%
%ADD13R,0.700000X1.050000*%
%ADD14RoundRect,0.225000X0.250000X-0.225000X0.250000X0.225000X-0.250000X0.225000X-0.250000X-0.225000X0*%
%ADD15RoundRect,0.135000X-0.185000X0.135000X-0.185000X-0.135000X0.185000X-0.135000X0.185000X0.135000X0*%
%ADD16RoundRect,0.250000X0.300000X-0.300000X0.300000X0.300000X-0.300000X0.300000X-0.300000X-0.300000X0*%
%ADD17R,0.800000X0.250000*%
%ADD18R,0.250000X0.800000*%
%ADD19RoundRect,0.237500X0.287500X0.237500X-0.287500X0.237500X-0.287500X-0.237500X0.287500X-0.237500X0*%
%ADD20RoundRect,0.135000X-0.135000X-0.185000X0.135000X-0.185000X0.135000X0.185000X-0.135000X0.185000X0*%
%ADD21R,1.300000X0.200000*%
%ADD22RoundRect,0.250000X-0.675000X0.600000X-0.675000X-0.600000X0.675000X-0.600000X0.675000X0.600000X0*%
%ADD23O,1.850000X1.700000*%
%ADD24RoundRect,0.300000X-0.400000X0.300000X-0.400000X-0.300000X0.400000X-0.300000X0.400000X0.300000X0*%
%ADD25R,1.000000X1.000000*%
%ADD26O,1.000000X1.000000*%
%ADD27R,0.400000X0.900000*%
%ADD28RoundRect,0.140000X-0.170000X0.140000X-0.170000X-0.140000X0.170000X-0.140000X0.170000X0.140000X0*%
%ADD29RoundRect,0.135000X0.135000X0.185000X-0.135000X0.185000X-0.135000X-0.185000X0.135000X-0.185000X0*%
%ADD30R,0.665000X0.280000*%
%ADD31R,1.650000X2.450000*%
%ADD32RoundRect,0.200000X0.200000X0.800000X-0.200000X0.800000X-0.200000X-0.800000X0.200000X-0.800000X0*%
%ADD33R,0.900000X0.700000*%
%ADD34R,0.300000X1.000000*%
%ADD35R,2.000000X1.300000*%
%ADD36R,0.700000X0.250000*%
%ADD37R,0.250000X0.700000*%
%ADD38R,1.450000X0.250000*%
%ADD39R,1.850000X0.250000*%
%ADD40RoundRect,0.250000X0.675000X-0.600000X0.675000X0.600000X-0.675000X0.600000X-0.675000X-0.600000X0*%
%ADD41RoundRect,0.140000X-0.140000X-0.170000X0.140000X-0.170000X0.140000X0.170000X-0.140000X0.170000X0*%
%ADD42RoundRect,0.150000X0.150000X0.625000X-0.150000X0.625000X-0.150000X-0.625000X0.150000X-0.625000X0*%
%ADD43RoundRect,0.250000X0.350000X0.650000X-0.350000X0.650000X-0.350000X-0.650000X0.350000X-0.650000X0*%
%ADD44RoundRect,0.150000X0.625000X-0.150000X0.625000X0.150000X-0.625000X0.150000X-0.625000X-0.150000X0*%
%ADD45RoundRect,0.250000X0.650000X-0.350000X0.650000X0.350000X-0.650000X0.350000X-0.650000X-0.350000X0*%
%ADD46RoundRect,0.150000X-0.625000X0.150000X-0.625000X-0.150000X0.625000X-0.150000X0.625000X0.150000X0*%
%ADD47RoundRect,0.250000X-0.650000X0.350000X-0.650000X-0.350000X0.650000X-0.350000X0.650000X0.350000X0*%
%ADD48R,0.500000X1.080000*%
%ADD49R,1.050000X1.200000*%
%ADD50RoundRect,0.150000X0.150000X-0.587500X0.150000X0.587500X-0.150000X0.587500X-0.150000X-0.587500X0*%
G04 APERTURE END LIST*
D10*
%TO.C,C17*%
X152600000Y-89880000D03*
X152600000Y-88920000D03*
%TD*%
D11*
%TO.C,C33*%
X162380000Y-82000000D03*
X161420000Y-82000000D03*
%TD*%
D12*
%TO.C,R4*%
X147800000Y-91075000D03*
X147800000Y-90055000D03*
%TD*%
D13*
%TO.C,SW1*%
X157400000Y-96600000D03*
X157400000Y-100800000D03*
X155250000Y-96600000D03*
X155250000Y-100800000D03*
%TD*%
D14*
%TO.C,C28*%
X175800000Y-81475000D03*
X175800000Y-79925000D03*
%TD*%
D15*
%TO.C,R11*%
X179000000Y-79690000D03*
X179000000Y-80710000D03*
%TD*%
D16*
%TO.C,D4*%
X155800000Y-92800000D03*
X155800000Y-90000000D03*
%TD*%
D15*
%TO.C,R7*%
X180200000Y-79690000D03*
X180200000Y-80710000D03*
%TD*%
D17*
%TO.C,U8*%
X165299167Y-84774167D03*
X165299167Y-85274167D03*
X165299167Y-85774167D03*
X165299167Y-86274167D03*
X165299167Y-86774167D03*
X165299167Y-87274167D03*
X165299167Y-87774167D03*
D18*
X164099167Y-88187167D03*
D17*
X162899167Y-87774167D03*
X162899167Y-87274167D03*
X162899167Y-86774167D03*
X162899167Y-86274167D03*
X162899167Y-85774167D03*
X162899167Y-85274167D03*
X162899167Y-84774167D03*
D18*
X164099167Y-84357167D03*
%TD*%
D19*
%TO.C,D1*%
X151075000Y-89300000D03*
X149325000Y-89300000D03*
%TD*%
D20*
%TO.C,R2*%
X150690000Y-100800000D03*
X151710000Y-100800000D03*
%TD*%
D15*
%TO.C,R14*%
X146800000Y-78390000D03*
X146800000Y-79410000D03*
%TD*%
D10*
%TO.C,C18*%
X147100000Y-95280000D03*
X147100000Y-94320000D03*
%TD*%
D21*
%TO.C,U7*%
X149733042Y-83100000D03*
X149733043Y-82600000D03*
X149733043Y-82099874D03*
D18*
X149583231Y-81200000D03*
X149083105Y-81200000D03*
X148582979Y-81200000D03*
X148082853Y-81200000D03*
D21*
X147933041Y-82099874D03*
X147933041Y-82600000D03*
X147933041Y-83100126D03*
D18*
X148082853Y-84000000D03*
X148582979Y-84000000D03*
X149083105Y-84000000D03*
X149583231Y-84000000D03*
%TD*%
D22*
%TO.C,J3*%
X184350000Y-81500000D03*
D23*
X184350000Y-84000000D03*
%TD*%
D14*
%TO.C,C29*%
X152000000Y-80175000D03*
X152000000Y-78625000D03*
%TD*%
D21*
%TO.C,U5*%
X178825249Y-83800000D03*
X178825248Y-84300000D03*
X178825248Y-84800126D03*
D18*
X178975060Y-85700000D03*
X179475186Y-85700000D03*
X179975312Y-85700000D03*
X180475438Y-85700000D03*
D21*
X180625250Y-84800126D03*
X180625250Y-84300000D03*
X180625250Y-83799874D03*
D18*
X180475438Y-82900000D03*
X179975312Y-82900000D03*
X179475186Y-82900000D03*
X178975060Y-82900000D03*
%TD*%
D11*
%TO.C,C32*%
X162380000Y-83200000D03*
X161420000Y-83200000D03*
%TD*%
D10*
%TO.C,C35*%
X173100000Y-80680000D03*
X173100000Y-79720000D03*
%TD*%
D24*
%TO.C,D7*%
X173400000Y-90650000D03*
X173400000Y-93750000D03*
%TD*%
D25*
%TO.C,J5*%
X149320000Y-74775000D03*
D26*
X149320000Y-73505000D03*
X150590000Y-74775000D03*
X150590000Y-73505000D03*
X151860000Y-74775000D03*
X151860000Y-73505000D03*
X153130000Y-74775000D03*
X153130000Y-73505000D03*
X154400000Y-74775000D03*
X154400000Y-73505000D03*
%TD*%
D24*
%TO.C,D8*%
X153300000Y-91300000D03*
X153300000Y-94400000D03*
%TD*%
D27*
%TO.C,RN1*%
X160200000Y-92250000D03*
X161000000Y-92250000D03*
X161800000Y-92250000D03*
X162600000Y-92250000D03*
X162600000Y-90550000D03*
X161800000Y-90550000D03*
X161000000Y-90550000D03*
X160200000Y-90550000D03*
%TD*%
D28*
%TO.C,C24*%
X177100000Y-97620000D03*
X177100000Y-98580000D03*
%TD*%
D29*
%TO.C,R12*%
X150310000Y-86300000D03*
X149290000Y-86300000D03*
%TD*%
D15*
%TO.C,R10*%
X150200000Y-78380000D03*
X150200000Y-79400000D03*
%TD*%
D30*
%TO.C,U3*%
X148793000Y-91125000D03*
X148793000Y-91625000D03*
X148793000Y-92125000D03*
X148793000Y-92625000D03*
X151607000Y-92625000D03*
D31*
X150200000Y-91875000D03*
D30*
X151607000Y-92125000D03*
X151607000Y-91625000D03*
X151607000Y-91125000D03*
%TD*%
D12*
%TO.C,R3*%
X153700000Y-100110000D03*
X153700000Y-99090000D03*
%TD*%
D32*
%TO.C,L1*%
X150300000Y-95000000D03*
X148300000Y-95000000D03*
%TD*%
D10*
%TO.C,C30*%
X153400000Y-80180000D03*
X153400000Y-79220000D03*
%TD*%
D33*
%TO.C,D3*%
X178815000Y-78450000D03*
X178815000Y-77350000D03*
X176985000Y-77350000D03*
X176985000Y-78450000D03*
%TD*%
D19*
%TO.C,FB1*%
X159275000Y-79000000D03*
X157525000Y-79000000D03*
%TD*%
D13*
%TO.C,SW2*%
X171625000Y-100800000D03*
X171625000Y-96600000D03*
X173775000Y-100800000D03*
X173775000Y-96600000D03*
%TD*%
D34*
%TO.C,J4*%
X167349167Y-77250000D03*
X166849167Y-77250000D03*
X166349167Y-77250000D03*
X165849167Y-77250000D03*
X165349167Y-77250000D03*
X164849167Y-77250000D03*
X164349167Y-77250000D03*
X163849167Y-77250000D03*
X163349167Y-77250000D03*
X162849167Y-77250000D03*
X162349167Y-77250000D03*
X161849167Y-77250000D03*
X161349167Y-77250000D03*
X160849167Y-77250000D03*
D35*
X169649167Y-74550000D03*
X158549167Y-74550000D03*
%TD*%
D12*
%TO.C,R15*%
X147900000Y-79410000D03*
X147900000Y-78390000D03*
%TD*%
D28*
%TO.C,C21*%
X172000000Y-75220000D03*
X172000000Y-76180000D03*
%TD*%
D36*
%TO.C,U2*%
X152616000Y-98900000D03*
X152616000Y-98400000D03*
X152616000Y-97900000D03*
X152616000Y-97400000D03*
D37*
X152166000Y-96700000D03*
X151666000Y-96700000D03*
X150666000Y-96700000D03*
X151166000Y-96700000D03*
D38*
X150584000Y-97650000D03*
D39*
X150784000Y-98150000D03*
D38*
X150584000Y-98650000D03*
D37*
X150666000Y-99600000D03*
X151166000Y-99600000D03*
X151666000Y-99600000D03*
X152166000Y-99600000D03*
%TD*%
D12*
%TO.C,R8*%
X181400000Y-80710000D03*
X181400000Y-79690000D03*
%TD*%
D13*
%TO.C,SW3*%
X181175000Y-96600000D03*
X181175000Y-100800000D03*
X179025000Y-96600000D03*
X179025000Y-100800000D03*
%TD*%
D33*
%TO.C,D6*%
X174015000Y-78450000D03*
X174015000Y-77350000D03*
X172185000Y-77350000D03*
X172185000Y-78450000D03*
%TD*%
D28*
%TO.C,C20*%
X147600000Y-73720000D03*
X147600000Y-74680000D03*
%TD*%
D40*
%TO.C,J1*%
X144000000Y-84000000D03*
D23*
X144000000Y-81500000D03*
%TD*%
D40*
%TO.C,J2*%
X144000000Y-92400000D03*
D23*
X144000000Y-89900000D03*
%TD*%
D28*
%TO.C,C23*%
X175800000Y-97620000D03*
X175800000Y-98580000D03*
%TD*%
D41*
%TO.C,C13*%
X152820000Y-95900000D03*
X153780000Y-95900000D03*
%TD*%
D10*
%TO.C,C12*%
X153700000Y-98080000D03*
X153700000Y-97120000D03*
%TD*%
D28*
%TO.C,C19*%
X147100000Y-92195000D03*
X147100000Y-93155000D03*
%TD*%
D42*
%TO.C,J13*%
X182700000Y-91875000D03*
X181700000Y-91875000D03*
X180700000Y-91875000D03*
X179700000Y-91875000D03*
X178700000Y-91875000D03*
X177700000Y-91875000D03*
D43*
X184000000Y-94400000D03*
X176400000Y-94400000D03*
%TD*%
D44*
%TO.C,J10*%
X158400000Y-86600000D03*
X158400000Y-85600000D03*
X158400000Y-84600000D03*
D45*
X155875000Y-87900000D03*
X155875000Y-83300000D03*
%TD*%
D46*
%TO.C,J11*%
X169875000Y-84600000D03*
X169875000Y-85600000D03*
X169875000Y-86600000D03*
D47*
X172400000Y-83300000D03*
X172400000Y-87900000D03*
%TD*%
D27*
%TO.C,RN2*%
X165800000Y-92250000D03*
X166600000Y-92250000D03*
X167400000Y-92250000D03*
X168200000Y-92250000D03*
X168200000Y-90550000D03*
X167400000Y-90550000D03*
X166600000Y-90550000D03*
X165800000Y-90550000D03*
%TD*%
D20*
%TO.C,R18*%
X165490000Y-81100000D03*
X166510000Y-81100000D03*
%TD*%
%TO.C,R9*%
X177990000Y-88400000D03*
X179010000Y-88400000D03*
%TD*%
D25*
%TO.C,J6*%
X173800000Y-74825000D03*
D26*
X173800000Y-73555000D03*
X175070000Y-74825000D03*
X175070000Y-73555000D03*
X176340000Y-74825000D03*
X176340000Y-73555000D03*
X177610000Y-74825000D03*
X177610000Y-73555000D03*
X178880000Y-74825000D03*
X178880000Y-73555000D03*
%TD*%
D28*
%TO.C,C22*%
X164000000Y-92120000D03*
X164000000Y-93080000D03*
%TD*%
D10*
%TO.C,C27*%
X177300000Y-80680000D03*
X177300000Y-79720000D03*
%TD*%
D48*
%TO.C,J9*%
X160350000Y-94577500D03*
X161450000Y-94577500D03*
X162550000Y-94577500D03*
X163300000Y-94577500D03*
X164750000Y-94577500D03*
X165850000Y-94577500D03*
X166950000Y-94577500D03*
X168050000Y-94577500D03*
D49*
X169425000Y-96217500D03*
X169425000Y-100667500D03*
X158975000Y-100667500D03*
X158975000Y-96217500D03*
D48*
X164000000Y-94577500D03*
%TD*%
D20*
%TO.C,R17*%
X165490000Y-79600000D03*
X166510000Y-79600000D03*
%TD*%
D10*
%TO.C,C34*%
X174300000Y-80680000D03*
X174300000Y-79720000D03*
%TD*%
D50*
%TO.C,Q1*%
X167850000Y-81037500D03*
X169750000Y-81037500D03*
X168800000Y-79162500D03*
%TD*%
M02*
