%TF.GenerationSoftware,KiCad,Pcbnew,7.0.6*%
%TF.CreationDate,2023-07-09T17:07:21+09:00*%
%TF.ProjectId,robotrace_v2_Linesensor,726f626f-7472-4616-9365-5f76325f4c69,rev?*%
%TF.SameCoordinates,Original*%
%TF.FileFunction,Copper,L2,Bot*%
%TF.FilePolarity,Positive*%
%FSLAX46Y46*%
G04 Gerber Fmt 4.6, Leading zero omitted, Abs format (unit mm)*
G04 Created by KiCad (PCBNEW 7.0.6) date 2023-07-09 17:07:21*
%MOMM*%
%LPD*%
G01*
G04 APERTURE LIST*
G04 Aperture macros list*
%AMRoundRect*
0 Rectangle with rounded corners*
0 $1 Rounding radius*
0 $2 $3 $4 $5 $6 $7 $8 $9 X,Y pos of 4 corners*
0 Add a 4 corners polygon primitive as box body*
4,1,4,$2,$3,$4,$5,$6,$7,$8,$9,$2,$3,0*
0 Add four circle primitives for the rounded corners*
1,1,$1+$1,$2,$3*
1,1,$1+$1,$4,$5*
1,1,$1+$1,$6,$7*
1,1,$1+$1,$8,$9*
0 Add four rect primitives between the rounded corners*
20,1,$1+$1,$2,$3,$4,$5,0*
20,1,$1+$1,$4,$5,$6,$7,0*
20,1,$1+$1,$6,$7,$8,$9,0*
20,1,$1+$1,$8,$9,$2,$3,0*%
G04 Aperture macros list end*
%TA.AperFunction,SMDPad,CuDef*%
%ADD10RoundRect,0.237500X0.065464X0.338557X-0.341467X0.048028X-0.065464X-0.338557X0.341467X-0.048028X0*%
%TD*%
%TA.AperFunction,SMDPad,CuDef*%
%ADD11RoundRect,0.237500X-0.341466X-0.048034X0.065470X-0.338556X0.341466X0.048034X-0.065470X0.338556X0*%
%TD*%
%TA.AperFunction,SMDPad,CuDef*%
%ADD12RoundRect,0.237500X0.004777X0.344795X-0.344587X-0.012899X-0.004777X-0.344795X0.344587X0.012899X0*%
%TD*%
%TA.AperFunction,SMDPad,CuDef*%
%ADD13RoundRect,0.237500X0.178856X0.294817X-0.303595X0.163512X-0.178856X-0.294817X0.303595X-0.163512X0*%
%TD*%
%TA.AperFunction,SMDPad,CuDef*%
%ADD14RoundRect,0.237500X-0.270025X-0.214459X0.228015X-0.258680X0.270025X0.214459X-0.228015X0.258680X0*%
%TD*%
%TA.AperFunction,SMDPad,CuDef*%
%ADD15RoundRect,0.237500X-0.344587X0.012899X0.004777X-0.344795X0.344587X-0.012899X-0.004777X0.344795X0*%
%TD*%
%TA.AperFunction,SMDPad,CuDef*%
%ADD16RoundRect,0.237500X-0.303595X-0.163512X0.178856X-0.294817X0.303595X0.163512X-0.178856X0.294817X0*%
%TD*%
%TA.AperFunction,SMDPad,CuDef*%
%ADD17RoundRect,0.237500X0.124102X0.321722X-0.327659X0.107451X-0.124102X-0.321722X0.327659X-0.107451X0*%
%TD*%
%TA.AperFunction,SMDPad,CuDef*%
%ADD18RoundRect,0.237500X-0.327659X-0.107451X0.124102X-0.321722X0.327659X0.107451X-0.124102X0.321722X0*%
%TD*%
%TA.AperFunction,SMDPad,CuDef*%
%ADD19RoundRect,0.237500X0.228011X0.258684X-0.270029X0.214454X-0.228011X-0.258684X0.270029X-0.214454X0*%
%TD*%
%TA.AperFunction,SMDPad,CuDef*%
%ADD20RoundRect,0.250000X-0.508223X-0.223236X0.052129X-0.552637X0.508223X0.223236X-0.052129X0.552637X0*%
%TD*%
%TA.AperFunction,SMDPad,CuDef*%
%ADD21RoundRect,0.250000X-0.046085X0.553174X-0.539612X0.130170X0.046085X-0.553174X0.539612X-0.130170X0*%
%TD*%
%TA.AperFunction,SMDPad,CuDef*%
%ADD22RoundRect,0.250000X0.240612X0.500231X-0.399215X0.385684X-0.240612X-0.500231X0.399215X-0.385684X0*%
%TD*%
%TA.AperFunction,SMDPad,CuDef*%
%ADD23RoundRect,0.237500X0.365821X-0.072370X0.002015X0.372905X-0.365821X0.072370X-0.002015X-0.372905X0*%
%TD*%
%TA.AperFunction,SMDPad,CuDef*%
%ADD24RoundRect,0.250000X0.148693X0.534804X-0.460935X0.309296X-0.148693X-0.534804X0.460935X-0.309296X0*%
%TD*%
%TA.AperFunction,SMDPad,CuDef*%
%ADD25RoundRect,0.250000X-0.460935X-0.309296X0.148693X-0.534804X0.460935X0.309296X-0.148693X0.534804X0*%
%TD*%
%TA.AperFunction,SMDPad,CuDef*%
%ADD26RoundRect,0.237500X-0.187246X-0.322493X0.352040X-0.123005X0.187246X0.322493X-0.352040X0.123005X0*%
%TD*%
%TA.AperFunction,SMDPad,CuDef*%
%ADD27RoundRect,0.237500X-0.241147X-0.284448X0.324854X-0.183118X0.241147X0.284448X-0.324854X0.183118X0*%
%TD*%
%TA.AperFunction,SMDPad,CuDef*%
%ADD28RoundRect,0.237500X0.372849X-0.006771X-0.063732X0.367425X-0.372849X0.006771X0.063732X-0.367425X0*%
%TD*%
%TA.AperFunction,SMDPad,CuDef*%
%ADD29RoundRect,0.237500X0.002015X-0.372905X0.365821X0.072370X-0.002015X0.372905X-0.365821X-0.072370X0*%
%TD*%
%TA.AperFunction,SMDPad,CuDef*%
%ADD30RoundRect,0.250000X-0.399215X-0.385684X0.240612X-0.500231X0.399215X0.385684X-0.240612X0.500231X0*%
%TD*%
%TA.AperFunction,SMDPad,CuDef*%
%ADD31RoundRect,0.250000X-0.539612X-0.130170X-0.046085X-0.553174X0.539612X0.130170X0.046085X0.553174X0*%
%TD*%
%TA.AperFunction,SMDPad,CuDef*%
%ADD32RoundRect,0.250000X-0.554106X-0.033040X-0.142847X-0.536395X0.554106X0.033040X0.142847X0.536395X0*%
%TD*%
%TA.AperFunction,SMDPad,CuDef*%
%ADD33RoundRect,0.237500X0.352040X0.123005X-0.187246X0.322493X-0.352040X-0.123005X0.187246X-0.322493X0*%
%TD*%
%TA.AperFunction,SMDPad,CuDef*%
%ADD34RoundRect,0.250000X0.052120X0.552638X-0.508227X0.223227X-0.052120X-0.552638X0.508227X-0.223227X0*%
%TD*%
%TA.AperFunction,SMDPad,CuDef*%
%ADD35RoundRect,0.237500X0.324851X0.183124X-0.241152X0.284444X-0.324851X-0.183124X0.241152X-0.284444X0*%
%TD*%
%TA.AperFunction,SMDPad,CuDef*%
%ADD36RoundRect,0.250000X-0.140037X0.537136X-0.553925X0.035941X0.140037X-0.537136X0.553925X-0.035941X0*%
%TD*%
%TA.AperFunction,SMDPad,CuDef*%
%ADD37RoundRect,0.237500X-0.127484X-0.350443X0.368207X-0.059041X0.127484X0.350443X-0.368207X0.059041X0*%
%TD*%
%TA.AperFunction,SMDPad,CuDef*%
%ADD38RoundRect,0.155000X0.212500X0.155000X-0.212500X0.155000X-0.212500X-0.155000X0.212500X-0.155000X0*%
%TD*%
%TA.AperFunction,SMDPad,CuDef*%
%ADD39RoundRect,0.237500X-0.063732X-0.367425X0.372849X0.006771X0.063732X0.367425X-0.372849X-0.006771X0*%
%TD*%
%TA.AperFunction,SMDPad,CuDef*%
%ADD40RoundRect,0.237500X0.368206X0.059047X-0.127490X0.350441X-0.368206X-0.059047X0.127490X-0.350441X0*%
%TD*%
%TA.AperFunction,ViaPad*%
%ADD41C,0.700000*%
%TD*%
%TA.AperFunction,ViaPad*%
%ADD42C,0.600000*%
%TD*%
%TA.AperFunction,Conductor*%
%ADD43C,0.500000*%
%TD*%
%TA.AperFunction,Conductor*%
%ADD44C,0.800000*%
%TD*%
%TA.AperFunction,Conductor*%
%ADD45C,0.400000*%
%TD*%
G04 APERTURE END LIST*
D10*
%TO.P,R8,2*%
%TO.N,Net-(D8-A)*%
X-34932649Y47359784D03*
%TO.P,R8,1*%
%TO.N,+3V3*%
X-33447351Y48420216D03*
%TD*%
D11*
%TO.P,R7,2*%
%TO.N,Net-(D7-A)*%
X34932658Y47359797D03*
%TO.P,R7,1*%
%TO.N,+3V3*%
X33447342Y48420203D03*
%TD*%
D12*
%TO.P,R10,2*%
%TO.N,Net-(D10-A)*%
X-42737589Y40457209D03*
%TO.P,R10,1*%
%TO.N,+3V3*%
X-41462411Y41762791D03*
%TD*%
D13*
%TO.P,R4,2*%
%TO.N,Net-(D4-A)*%
X-16330473Y56540368D03*
%TO.P,R4,1*%
%TO.N,+3V3*%
X-14569527Y57019632D03*
%TD*%
D14*
%TO.P,R1,1*%
%TO.N,+3V3*%
X4301076Y58690704D03*
%TO.P,R1,2*%
%TO.N,Net-(D1-A)*%
X6118924Y58529296D03*
%TD*%
D15*
%TO.P,R9,2*%
%TO.N,Net-(D9-A)*%
X42737589Y40467209D03*
%TO.P,R9,1*%
%TO.N,+3V3*%
X41462411Y41772791D03*
%TD*%
D16*
%TO.P,R3,1*%
%TO.N,+3V3*%
X14569527Y57019632D03*
%TO.P,R3,2*%
%TO.N,Net-(D3-A)*%
X16330473Y56540368D03*
%TD*%
D17*
%TO.P,R6,2*%
%TO.N,Net-(D6-A)*%
X-26044464Y52778956D03*
%TO.P,R6,1*%
%TO.N,+3V3*%
X-24395536Y53561044D03*
%TD*%
D18*
%TO.P,R5,2*%
%TO.N,Net-(D5-A)*%
X26044464Y52778956D03*
%TO.P,R5,1*%
%TO.N,+3V3*%
X24395536Y53561044D03*
%TD*%
D19*
%TO.P,R2,2*%
%TO.N,Net-(D2-A)*%
X-6118923Y58529281D03*
%TO.P,R2,1*%
%TO.N,+3V3*%
X-4301077Y58690719D03*
%TD*%
D20*
%TO.P,Q5,1,C*%
%TO.N,Net-(J1-Pin_9)*%
X26406367Y46939440D03*
%TO.P,Q5,2,E*%
%TO.N,GND1*%
X28173633Y45900560D03*
%TD*%
D21*
%TO.P,Q8,1,C*%
%TO.N,Net-(J1-Pin_5)*%
X-34261747Y41547044D03*
%TO.P,Q8,2,E*%
%TO.N,GND1*%
X-35818253Y40212956D03*
%TD*%
D22*
%TO.P,Q2,1,C*%
%TO.N,Net-(J1-Pin_2)*%
X-8481041Y53180631D03*
%TO.P,Q2,2,E*%
%TO.N,GND1*%
X-10498959Y52819369D03*
%TD*%
D23*
%TO.P,D9,2,A*%
%TO.N,Net-(D9-A)*%
X44966383Y37867594D03*
%TO.P,D9,1,K*%
%TO.N,Net-(D1-K)*%
X46073617Y36512406D03*
%TD*%
D24*
%TO.P,Q4,1,C*%
%TO.N,Net-(J1-Pin_3)*%
X-17718664Y50855609D03*
%TO.P,Q4,2,E*%
%TO.N,GND1*%
X-19641336Y50144391D03*
%TD*%
D25*
%TO.P,Q3,1,C*%
%TO.N,Net-(J1-Pin_10)*%
X17718664Y50855609D03*
%TO.P,Q3,2,E*%
%TO.N,GND1*%
X19641336Y50144391D03*
%TD*%
D26*
%TO.P,D4,1,K*%
%TO.N,Net-(D1-K)*%
X-21210653Y54826431D03*
%TO.P,D4,2,A*%
%TO.N,Net-(D4-A)*%
X-19569347Y55433569D03*
%TD*%
D27*
%TO.P,D2,1,K*%
%TO.N,Net-(D1-K)*%
X-11221306Y57705802D03*
%TO.P,D2,2,A*%
%TO.N,Net-(D2-A)*%
X-9498694Y58014198D03*
%TD*%
D28*
%TO.P,D7,1,K*%
%TO.N,Net-(D1-K)*%
X38914362Y44060573D03*
%TO.P,D7,2,A*%
%TO.N,Net-(D7-A)*%
X37585638Y45199427D03*
%TD*%
D29*
%TO.P,D10,1,K*%
%TO.N,Net-(D1-K)*%
X-46073617Y36512406D03*
%TO.P,D10,2,A*%
%TO.N,Net-(D10-A)*%
X-44966383Y37867594D03*
%TD*%
D30*
%TO.P,Q1,1,C*%
%TO.N,Net-(J1-Pin_11)*%
X8491041Y53180631D03*
%TO.P,Q1,2,E*%
%TO.N,GND1*%
X10508959Y52819369D03*
%TD*%
D31*
%TO.P,Q7,1,C*%
%TO.N,Net-(J1-Pin_8)*%
X34271747Y41547044D03*
%TO.P,Q7,2,E*%
%TO.N,GND1*%
X35828253Y40212956D03*
%TD*%
D32*
%TO.P,Q9,1,C*%
%TO.N,Net-(J1-Pin_7)*%
X41051477Y34863752D03*
%TO.P,Q9,2,E*%
%TO.N,GND1*%
X42348523Y33276248D03*
%TD*%
D33*
%TO.P,D3,1,K*%
%TO.N,Net-(D1-K)*%
X21210653Y54826431D03*
%TO.P,D3,2,A*%
%TO.N,Net-(D3-A)*%
X19569347Y55433569D03*
%TD*%
D34*
%TO.P,Q6,1,C*%
%TO.N,Net-(J1-Pin_4)*%
X-26406376Y46939456D03*
%TO.P,Q6,2,E*%
%TO.N,GND1*%
X-28173624Y45900544D03*
%TD*%
D35*
%TO.P,D1,1,K*%
%TO.N,Net-(D1-K)*%
X11221309Y57705817D03*
%TO.P,D1,2,A*%
%TO.N,Net-(D1-A)*%
X9498691Y58014183D03*
%TD*%
D36*
%TO.P,Q10,1,C*%
%TO.N,Net-(J1-Pin_6)*%
X-41047330Y34860346D03*
%TO.P,Q10,2,E*%
%TO.N,GND1*%
X-42352670Y33279654D03*
%TD*%
D37*
%TO.P,D6,1,K*%
%TO.N,Net-(D1-K)*%
X-30544313Y50226562D03*
%TO.P,D6,2,A*%
%TO.N,Net-(D6-A)*%
X-29035687Y51113438D03*
%TD*%
D38*
%TO.P,C1,1*%
%TO.N,+3V3*%
X567500Y59000000D03*
%TO.P,C1,2*%
%TO.N,GND1*%
X-567500Y59000000D03*
%TD*%
D39*
%TO.P,D8,1,K*%
%TO.N,Net-(D1-K)*%
X-38914362Y44060573D03*
%TO.P,D8,2,A*%
%TO.N,Net-(D8-A)*%
X-37585638Y45199427D03*
%TD*%
D40*
%TO.P,D5,1,K*%
%TO.N,Net-(D1-K)*%
X30544321Y50226575D03*
%TO.P,D5,2,A*%
%TO.N,Net-(D5-A)*%
X29035679Y51113425D03*
%TD*%
D41*
%TO.N,+3V3*%
X-40800000Y42450000D03*
X-32700000Y49000000D03*
X-23550000Y54000000D03*
X-13650000Y57300000D03*
X-3350000Y58800000D03*
X40800000Y42500000D03*
X32700000Y49000000D03*
X23550000Y54000000D03*
X13650000Y57300000D03*
X3350000Y58800000D03*
X1400000Y59000000D03*
%TO.N,GND1*%
X1500000Y48900000D03*
X-1500000Y48900000D03*
X-500000Y49900000D03*
X1500000Y49900000D03*
X-1500000Y49900000D03*
X500000Y48900000D03*
X-500000Y48900000D03*
X500000Y49900000D03*
%TO.N,Net-(D1-K)*%
X400000Y57400000D03*
X-500000Y57400000D03*
X-1400000Y57400000D03*
D42*
%TO.N,Net-(J1-Pin_2)*%
X-4100000Y52200000D03*
%TO.N,Net-(J1-Pin_3)*%
X-3300000Y52200000D03*
%TO.N,Net-(J1-Pin_4)*%
X-2500000Y52200000D03*
%TO.N,Net-(J1-Pin_5)*%
X-1700000Y52200000D03*
%TO.N,Net-(J1-Pin_6)*%
X-900000Y52200000D03*
%TO.N,Net-(J1-Pin_7)*%
X-100000Y52200000D03*
%TO.N,Net-(J1-Pin_8)*%
X700000Y52200000D03*
%TO.N,Net-(J1-Pin_9)*%
X1500000Y52200000D03*
%TO.N,Net-(J1-Pin_10)*%
X2300000Y52200000D03*
%TO.N,Net-(J1-Pin_11)*%
X3100000Y52200000D03*
%TD*%
D43*
%TO.N,Net-(D1-K)*%
X38914362Y43814362D02*
X38449369Y43349369D01*
X38449369Y43349369D02*
X38922952Y42922952D01*
X38207434Y43567208D02*
X38449369Y43349369D01*
X38914362Y44060573D02*
X38914362Y43814362D01*
X38700799Y44060573D02*
X38207434Y43567208D01*
X38914362Y44060573D02*
X38700799Y44060573D01*
X38914362Y44060573D02*
X38914362Y42931542D01*
X38922952Y42922952D02*
X39334800Y42552121D01*
X38914362Y42931542D02*
X38922952Y42922952D01*
X37660573Y44060573D02*
X37646387Y44046387D01*
X38914362Y44060573D02*
X37660573Y44060573D01*
X37646387Y44046387D02*
X38207434Y43567208D01*
X37053868Y44552445D02*
X37646387Y44046387D01*
X29982983Y49665237D02*
X29982983Y49582983D01*
X30544321Y50226575D02*
X29982983Y49665237D01*
X29628138Y49800432D02*
X29982983Y49582983D01*
X29982983Y49582983D02*
X30479014Y49279014D01*
X30329633Y50011887D02*
X29261887Y50011887D01*
X29261887Y50011887D02*
X29628138Y49800432D01*
X30544321Y50226575D02*
X30329633Y50011887D01*
X28314362Y50558940D02*
X29261887Y50011887D01*
X30450935Y50133189D02*
X30450935Y49307093D01*
X30450935Y49307093D02*
X30479014Y49279014D01*
X30544321Y50226575D02*
X30450935Y50133189D01*
X30479014Y49279014D02*
X30921602Y49007795D01*
X21472882Y53822159D02*
X20700000Y54118841D01*
X20700000Y54118841D02*
X20400000Y54234000D01*
X21210653Y54826431D02*
X21210653Y54629494D01*
X21210653Y54629494D02*
X20700000Y54118841D01*
X21210653Y54084388D02*
X21472882Y53822159D01*
X21210653Y54826431D02*
X21210653Y54084388D01*
X20992431Y54826431D02*
X20400000Y54234000D01*
X21210653Y54826431D02*
X20992431Y54826431D01*
X20400000Y54234000D02*
X20056624Y54365810D01*
X11221309Y57705817D02*
X11221309Y57171130D01*
X10950000Y56899821D02*
X10400000Y57001757D01*
X11221309Y57171130D02*
X10950000Y56899821D01*
X11304973Y56834031D02*
X10950000Y56899821D01*
X11221309Y57504362D02*
X12050000Y56675671D01*
X11221309Y57705817D02*
X11221309Y57504362D01*
X12050000Y56675671D02*
X11304973Y56834031D01*
X12788884Y56518616D02*
X12050000Y56675671D01*
X11104060Y57705817D02*
X10400000Y57001757D01*
X10400000Y57001757D02*
X9813394Y57110478D01*
X11221309Y57705817D02*
X11104060Y57705817D01*
X-11221306Y57346876D02*
X-11850000Y56718182D01*
X-11850000Y56718182D02*
X-12788884Y56518616D01*
X-11304973Y56834031D02*
X-11850000Y56718182D01*
X-11221306Y57705802D02*
X-11221306Y57346876D01*
X-11221306Y57645263D02*
X-10550000Y56973957D01*
X-11221306Y57705802D02*
X-11221306Y57645263D01*
X-10550000Y56973957D02*
X-11304973Y56834031D01*
X-9813394Y57110478D02*
X-10550000Y56973957D01*
X-11221306Y56917698D02*
X-11304973Y56834031D01*
X-11221306Y57705802D02*
X-11221306Y56917698D01*
X-21210653Y54826431D02*
X-21100000Y54715778D01*
X-21100000Y54715778D02*
X-21100000Y53965295D01*
X-21100000Y53965295D02*
X-21472882Y53822159D01*
X-20056624Y54365810D02*
X-21100000Y53965295D01*
X-21210653Y54826431D02*
X-21472882Y54564202D01*
X-21472882Y54564202D02*
X-21472882Y53822159D01*
X-20750032Y54365810D02*
X-20056624Y54365810D01*
X-21210653Y54826431D02*
X-20750032Y54365810D01*
X-30075989Y49758238D02*
X-30075989Y49525989D01*
X-30075989Y49525989D02*
X-30541018Y49241018D01*
X-30544313Y50226562D02*
X-30075989Y49758238D01*
X-29628138Y49800432D02*
X-30075989Y49525989D01*
X-30544313Y50226562D02*
X-30541018Y50223267D01*
X-30541018Y50223267D02*
X-30541018Y49241018D01*
X-30541018Y49241018D02*
X-30921602Y49007795D01*
X-30457747Y50139996D02*
X-29039996Y50139996D01*
X-30544313Y50226562D02*
X-30457747Y50139996D01*
X-38700799Y44060573D02*
X-38207434Y43567208D01*
X-38914362Y44060573D02*
X-38700799Y44060573D01*
X-38914362Y44060573D02*
X-38914362Y43914362D01*
X-38396748Y43396748D02*
X-38896641Y42946641D01*
X-38207434Y43567208D02*
X-38396748Y43396748D01*
X-38914362Y43914362D02*
X-38396748Y43396748D01*
X-38914362Y44060573D02*
X-38914362Y42964362D01*
X-38914362Y42964362D02*
X-38896641Y42946641D01*
X-38896641Y42946641D02*
X-39334800Y42552121D01*
X-38914362Y44060573D02*
X-37628265Y44060573D01*
X-37619419Y44069419D02*
X-38207434Y43567208D01*
X-37053868Y44552445D02*
X-37619419Y44069419D01*
X-37628265Y44060573D02*
X-37619419Y44069419D01*
X-44993908Y36512406D02*
X-44978157Y36528157D01*
X-46073617Y36512406D02*
X-44993908Y36512406D01*
X-44552445Y37053868D02*
X-44978157Y36528157D01*
X46073617Y36512406D02*
X44999164Y36512406D01*
X44552445Y37053868D02*
X44955785Y36555785D01*
X44999164Y36512406D02*
X44955785Y36555785D01*
D44*
%TO.N,+3V3*%
X-40800000Y42425202D02*
X-41462411Y41762791D01*
X-40800000Y42450000D02*
X-40800000Y42425202D01*
X-32867567Y49000000D02*
X-33447351Y48420216D01*
X-32700000Y49000000D02*
X-32867567Y49000000D01*
X-23956580Y54000000D02*
X-24395536Y53561044D01*
X-23550000Y54000000D02*
X-23956580Y54000000D01*
X-14289159Y57300000D02*
X-14569527Y57019632D01*
X-13650000Y57300000D02*
X-14289159Y57300000D01*
X-3350000Y58800000D02*
X-4191796Y58800000D01*
X-4191796Y58800000D02*
X-4301077Y58690719D01*
X40800000Y42435202D02*
X41462411Y41772791D01*
X40800000Y42500000D02*
X40800000Y42435202D01*
X32867545Y49000000D02*
X33447342Y48420203D01*
X32700000Y49000000D02*
X32867545Y49000000D01*
X23956580Y54000000D02*
X24395536Y53561044D01*
X23550000Y54000000D02*
X23956580Y54000000D01*
X13650000Y57300000D02*
X14289159Y57300000D01*
X14289159Y57300000D02*
X14569527Y57019632D01*
X3350000Y58800000D02*
X4191780Y58800000D01*
X4191780Y58800000D02*
X4301076Y58690704D01*
D43*
%TO.N,Net-(D10-A)*%
X-44511722Y38569661D02*
X-43495439Y39712202D01*
X-44966383Y38030981D02*
X-44511722Y38569661D01*
X-44966383Y37867594D02*
X-44966383Y38030981D01*
X-43495439Y39712202D02*
X-42797286Y40457209D01*
X-42797286Y40457209D02*
X-42737589Y40457209D01*
%TO.N,Net-(D8-A)*%
X-36807330Y45979698D02*
X-35601244Y46919756D01*
X-34963559Y47390694D02*
X-34932649Y47359784D01*
X-37585638Y45339899D02*
X-36807330Y45979698D01*
X-35601244Y46919756D02*
X-34963559Y47390694D01*
X-37585638Y45199427D02*
X-37585638Y45339899D01*
%TO.N,Net-(D6-A)*%
X-27890410Y51875207D02*
X-26534332Y52581758D01*
X-29100000Y51204492D02*
X-27890410Y51875207D01*
X-29100000Y51177751D02*
X-29100000Y51204492D01*
X-29035687Y51113438D02*
X-29100000Y51177751D01*
X-26534332Y52581758D02*
X-26130608Y52778956D01*
%TO.N,Net-(D4-A)*%
X-16365510Y56575405D02*
X-16330473Y56540368D01*
X-18054804Y56061896D02*
X-16593366Y56511701D01*
X-19504128Y55574285D02*
X-18054804Y56061896D01*
X-19569347Y55433569D02*
X-19569347Y55509066D01*
X-19569347Y55509066D02*
X-19504128Y55574285D01*
X-16593366Y56511701D02*
X-16365510Y56575405D01*
%TO.N,Net-(D2-A)*%
X-9498694Y58014198D02*
X-9591497Y58107001D01*
X-9138058Y58184260D02*
X-7624522Y58401873D01*
X-9591497Y58107001D02*
X-9138058Y58184260D01*
X-6163049Y58573407D02*
X-6118923Y58529281D01*
X-7624522Y58401873D02*
X-6163049Y58573407D01*
%TO.N,Net-(D9-A)*%
X44511722Y38569661D02*
X44966383Y38030981D01*
X42787915Y40467209D02*
X43495439Y39712202D01*
X44966383Y38030981D02*
X44966383Y37867594D01*
X42737589Y40467209D02*
X42787915Y40467209D01*
X43495439Y39712202D02*
X44511722Y38569661D01*
%TO.N,Net-(D5-A)*%
X28751208Y51397896D02*
X29035679Y51113425D01*
X27890410Y51875207D02*
X28751208Y51397896D01*
X26595285Y52550000D02*
X27890410Y51875207D01*
X26273420Y52550000D02*
X26595285Y52550000D01*
X26044464Y52778956D02*
X26273420Y52550000D01*
%TO.N,Net-(D7-A)*%
X37585638Y45201390D02*
X37585638Y45199427D01*
X36807330Y45979698D02*
X37585638Y45201390D01*
X35005395Y47359797D02*
X35601244Y46919756D01*
X34932658Y47359797D02*
X35005395Y47359797D01*
X35601244Y46919756D02*
X36807330Y45979698D01*
%TO.N,Net-(D3-A)*%
X19569347Y55509066D02*
X19569347Y55433569D01*
X19504128Y55574285D02*
X19569347Y55509066D01*
X18054804Y56061896D02*
X19504128Y55574285D01*
X16330473Y56585200D02*
X16593366Y56511701D01*
X16330473Y56540368D02*
X16330473Y56585200D01*
X16593366Y56511701D02*
X18054804Y56061896D01*
%TO.N,Net-(D1-A)*%
X9367750Y58145124D02*
X9498691Y58014183D01*
X9138058Y58184260D02*
X9367750Y58145124D01*
X6538873Y58529296D02*
X7624522Y58401873D01*
X6118924Y58529296D02*
X6538873Y58529296D01*
X7624522Y58401873D02*
X9138058Y58184260D01*
%TO.N,Net-(D1-K)*%
X-43862127Y37862127D02*
X-44552445Y37053868D01*
X43567208Y38207434D02*
X44552445Y37053868D01*
X42552121Y39334800D02*
X43567208Y38207434D01*
X41507895Y40435185D02*
X42552121Y39334800D01*
X40435185Y41507895D02*
X41507895Y40435185D01*
X39334800Y42552121D02*
X40435185Y41507895D01*
X34671391Y46430638D02*
X35874924Y45507136D01*
X33444120Y47322303D02*
X34671391Y46430638D01*
X32193889Y48181563D02*
X33444120Y47322303D01*
X27306282Y51106282D02*
X28314362Y50558940D01*
X30921602Y49007795D02*
X32193889Y48181563D01*
X35874924Y45507136D02*
X37053868Y44552445D01*
%TO.N,+3V3*%
X567500Y59000000D02*
X1400000Y59000000D01*
%TO.N,Net-(D1-K)*%
X-8800000Y57270984D02*
X-9200000Y57207630D01*
X400000Y57400000D02*
X-1400000Y57400000D01*
X-34671391Y46430638D02*
X-35874924Y45507136D01*
X-30921602Y49007795D02*
X-32193889Y48181563D01*
X463817Y57400000D02*
X1000000Y57936183D01*
X-16908502Y55433569D02*
X-16900000Y55425067D01*
X-1900000Y57912615D02*
X-2275003Y57902795D01*
X-27306282Y51106282D02*
X-28314362Y50558940D01*
X-400000Y57942507D02*
X-758494Y57942507D01*
X-500000Y57842507D02*
X-400000Y57942507D01*
X-16900000Y55425067D02*
X-17183852Y55340986D01*
X-14263954Y56164483D02*
X-15729286Y55771848D01*
X-41507895Y40435185D02*
X-42552121Y39334800D01*
X0Y57942507D02*
X-400000Y57942507D01*
X8800000Y57270984D02*
X8314998Y57347801D01*
X-26981219Y51282777D02*
X-27306282Y51106282D01*
X-9200000Y57207630D02*
X-9813394Y57110478D01*
X-2275003Y57902795D02*
X-3789961Y57823400D01*
X-25629482Y51971522D02*
X-26981219Y51282777D01*
X400000Y57400000D02*
X463817Y57400000D01*
X19400000Y54598333D02*
X18900000Y54775392D01*
X-21472882Y53822159D02*
X-22874397Y53241633D01*
X-1350000Y57927018D02*
X-1900000Y57912615D01*
X-500000Y57400000D02*
X-500000Y57842507D01*
X-32193889Y48181563D02*
X-33444120Y47322303D01*
X9813394Y57110478D02*
X9500000Y57160115D01*
X-40435185Y41507895D02*
X-41507895Y40435185D01*
X17183852Y55340986D02*
X16900000Y55425067D01*
X16908502Y55433569D02*
X16900000Y55425067D01*
X27306282Y51106282D02*
X26981219Y51282777D01*
X-15729286Y55771848D02*
X-16900000Y55425067D01*
X-6811011Y57545804D02*
X-8314998Y57347801D01*
X-8314998Y57347801D02*
X-8800000Y57270984D01*
X9500000Y57160115D02*
X8800000Y57270984D01*
X-33444120Y47322303D02*
X-34671391Y46430638D01*
X400000Y57400000D02*
X400000Y57942507D01*
X-24260286Y52624595D02*
X-25629482Y51971522D01*
X1000000Y57936183D02*
X758494Y57942507D01*
X-29039996Y50139996D02*
X-29628138Y49800432D01*
X-43867594Y37867594D02*
X-43862127Y37862127D01*
X0Y57942507D02*
X400000Y57942507D01*
X-35874924Y45507136D02*
X-36224254Y45224254D01*
X3789961Y57823400D02*
X2275003Y57902795D01*
X-28314362Y50558940D02*
X-28596213Y50396213D01*
X758494Y57942507D02*
X400000Y57942507D01*
X14263954Y56164483D02*
X12788884Y56518616D01*
X-28596213Y50396213D02*
X-29039996Y50139996D01*
X-1400000Y57412615D02*
X-1900000Y57912615D01*
X-18626569Y54872219D02*
X-18900000Y54775392D01*
X-18400000Y54945836D02*
X-18626569Y54872219D01*
X-39334800Y42552121D02*
X-40435185Y41507895D01*
X-36776806Y44776806D02*
X-37053868Y44552445D01*
X8314998Y57347801D02*
X6811011Y57545804D01*
X-1350000Y57450000D02*
X-1350000Y57927018D01*
X-17183852Y55340986D02*
X-18400000Y54945836D01*
X-5302292Y57704378D02*
X-6811011Y57545804D01*
X-22874397Y53241633D02*
X-24260286Y52624595D01*
X-19600000Y54527509D02*
X-20056624Y54365810D01*
X-36224254Y45224254D02*
X-36776806Y44776806D01*
X-1400000Y57400000D02*
X-1350000Y57450000D01*
X18626569Y54872219D02*
X18300000Y54978328D01*
X-3789961Y57823400D02*
X-5302292Y57704378D01*
X-1400000Y57400000D02*
X-1400000Y57412615D01*
X-18900000Y54775392D02*
X-19600000Y54527509D01*
X400000Y57400000D02*
X142507Y57400000D01*
X-12788884Y56518616D02*
X-14263954Y56164483D01*
X-43567208Y38207434D02*
X-43862127Y37862127D01*
X25629482Y51971522D02*
X24260286Y52624595D01*
X20056624Y54365810D02*
X19400000Y54598333D01*
X22874397Y53241633D02*
X21472882Y53822159D01*
X16900000Y55425067D02*
X15729286Y55771848D01*
X15729286Y55771848D02*
X14263954Y56164483D01*
X142507Y57400000D02*
X-400000Y57942507D01*
X18300000Y54978328D02*
X17183852Y55340986D01*
X2275003Y57902795D02*
X1000000Y57936183D01*
X5302292Y57704378D02*
X3789961Y57823400D01*
X26981219Y51282777D02*
X25629482Y51971522D01*
X6811011Y57545804D02*
X5302292Y57704378D01*
X18900000Y54775392D02*
X18626569Y54872219D01*
X-1301001Y57400000D02*
X-758494Y57942507D01*
X24260286Y52624595D02*
X22874397Y53241633D01*
X-758494Y57942507D02*
X-1350000Y57927018D01*
X-42552121Y39334800D02*
X-43567208Y38207434D01*
X-1400000Y57400000D02*
X-1301001Y57400000D01*
D45*
%TO.N,Net-(J1-Pin_2)*%
X-5080631Y53180631D02*
X-4100000Y52200000D01*
X-8481041Y53180631D02*
X-5080631Y53180631D01*
%TO.N,Net-(J1-Pin_3)*%
X-11702017Y53635757D02*
X-10257819Y53930592D01*
X-13137817Y53302245D02*
X-11702017Y53635757D01*
X-3300000Y52255288D02*
X-3300000Y52200000D01*
X-8113101Y54262401D02*
X-5313872Y54262401D01*
X-14564161Y52930301D02*
X-13137817Y53302245D01*
X-17718664Y50855609D02*
X-17718664Y51955596D01*
X-5313872Y54262401D02*
X-3300000Y52248529D01*
X-15979959Y52520210D02*
X-14564161Y52930301D01*
X-8536754Y54186556D02*
X-8113101Y54262401D01*
X-17718664Y51955596D02*
X-17384269Y52072246D01*
X-10257819Y53930592D02*
X-8806174Y54186556D01*
X-8806174Y54186556D02*
X-8536754Y54186556D01*
X-17384269Y52072246D02*
X-15979959Y52520210D01*
%TO.N,Net-(J1-Pin_4)*%
X-25883917Y49317688D02*
X-24550497Y49994846D01*
X-8934509Y54976232D02*
X-7455256Y55196292D01*
X-24550497Y49994846D02*
X-23199408Y50635946D01*
X-5447763Y55196292D02*
X-2500000Y52248529D01*
X-17637615Y52831109D02*
X-16212840Y53285602D01*
X-7455256Y55196292D02*
X-5447763Y55196292D01*
X-26406376Y46939456D02*
X-26406376Y49034470D01*
X-21831574Y51240549D02*
X-20447959Y51808229D01*
X-20447959Y51808229D02*
X-19049685Y52338524D01*
X-2500000Y52248529D02*
X-2500000Y52200000D01*
X-14776409Y53701669D02*
X-13329278Y54079033D01*
X-26406376Y49034470D02*
X-25883917Y49317688D01*
X-13329278Y54079033D02*
X-11872554Y54417405D01*
X-19049685Y52338524D02*
X-17637615Y52831109D01*
X-23199408Y50635946D02*
X-21831574Y51240549D01*
X-10407309Y54716537D02*
X-8934509Y54976232D01*
X-16212840Y53285602D02*
X-14776409Y53701669D01*
X-11872554Y54417405D02*
X-10407309Y54716537D01*
%TO.N,Net-(J1-Pin_5)*%
X-5344345Y55892874D02*
X-1700000Y52248529D01*
X-29327243Y48289539D02*
X-28031346Y49053138D01*
X-33086580Y45795688D02*
X-31855756Y46660237D01*
X-18456985Y53397626D02*
X-17028966Y53870038D01*
X-25380923Y50475495D02*
X-24028228Y51133268D01*
X-12676611Y55056973D02*
X-11206443Y55374926D01*
X-24028228Y51133268D02*
X-22658543Y51754780D01*
X-34261747Y41547044D02*
X-34261747Y44922608D01*
X-1700000Y52250000D02*
X-1700000Y52200000D01*
X-19871925Y52887365D02*
X-18456985Y53397626D01*
X-11206443Y55374926D02*
X-9728390Y55653619D01*
X-22658543Y51754780D02*
X-21272762Y52339625D01*
X-14137762Y54700004D02*
X-12676611Y55056973D01*
X-31855756Y46660237D02*
X-30602363Y47491706D01*
X-9728390Y55653619D02*
X-8243394Y55892874D01*
X-15588852Y54304277D02*
X-14137762Y54700004D01*
X-21272762Y52339625D02*
X-19871925Y52887365D01*
X-28031346Y49053138D02*
X-26715614Y49781953D01*
X-17028966Y53870038D02*
X-15588852Y54304277D01*
X-8243394Y55892874D02*
X-5344345Y55892874D01*
X-34261747Y44922608D02*
X-33086580Y45795688D01*
X-26715614Y49781953D02*
X-25380923Y50475495D01*
X-30602363Y47491706D02*
X-29327243Y48289539D01*
%TO.N,Net-(J1-Pin_6)*%
X-23448081Y52170294D02*
X-22062809Y52771057D01*
X-9022228Y56481426D02*
X-7528137Y56699905D01*
X-38533704Y42269441D02*
X-37404488Y43271887D01*
X-7528137Y56699905D02*
X-5351376Y56699905D01*
X-41047330Y34860346D02*
X-41047330Y39826766D01*
X-20662120Y53335062D02*
X-19247035Y53861894D01*
X-26168712Y50860108D02*
X-24817084Y51533139D01*
X-40710771Y40176924D02*
X-39636060Y41237542D01*
X-33863697Y46095574D02*
X-32635082Y46973433D01*
X-16377614Y54802608D02*
X-14925304Y55215825D01*
X-39636060Y41237542D02*
X-38533704Y42269441D01*
X-17818539Y54351188D02*
X-16377614Y54802608D01*
X-37404488Y43271887D02*
X-36249178Y44244199D01*
X-14925304Y55215825D02*
X-13462589Y55590564D01*
X-41047330Y39826766D02*
X-40710771Y40176924D01*
X-30110599Y48630277D02*
X-28816397Y49408170D01*
X-19247035Y53861894D02*
X-17818539Y54351188D01*
X-28816397Y49408170D02*
X-27502150Y50151608D01*
X-13462589Y55590564D02*
X-11990489Y55926560D01*
X-11990489Y55926560D02*
X-10509999Y56223589D01*
X-31383812Y47818494D02*
X-30110599Y48630277D01*
X-36249178Y44244199D02*
X-35068698Y45185600D01*
X-24817084Y51533139D02*
X-23448081Y52170294D01*
X-22062809Y52771057D02*
X-20662120Y53335062D01*
X-35068698Y45185600D02*
X-33863697Y46095574D01*
X-27502150Y50151608D02*
X-26168712Y50860108D01*
X-5351376Y56699905D02*
X-900000Y52248529D01*
X-32635082Y46973433D02*
X-31383812Y47818494D01*
X-10509999Y56223589D02*
X-9022228Y56481426D01*
%TO.N,Net-(J1-Pin_7)*%
X26168712Y50860108D02*
X24817084Y51533139D01*
X17818539Y54351188D02*
X16377614Y54802608D01*
X36249178Y44244199D02*
X35068698Y45185600D01*
X11990489Y55926560D02*
X10509999Y56223589D01*
X14925304Y55215825D02*
X13462589Y55590564D01*
X38533704Y42269441D02*
X37404488Y43271887D01*
X16377614Y54802608D02*
X14925304Y55215825D01*
X40710771Y40176924D02*
X39636060Y41237542D01*
X23448081Y52170294D02*
X22062809Y52771057D01*
X24817084Y51533139D02*
X23448081Y52170294D01*
X20662120Y53335062D02*
X19247035Y53861894D01*
X27502150Y50151608D02*
X26168712Y50860108D01*
X30110599Y48630277D02*
X28816397Y49408170D01*
X-100000Y52248529D02*
X-100000Y52200000D01*
X33863697Y46095574D02*
X32635082Y46973433D01*
X10509999Y56223589D02*
X9022228Y56481426D01*
X4351376Y56699905D02*
X-100000Y52248529D01*
X41051477Y34863752D02*
X41051477Y39822451D01*
X28816397Y49408170D02*
X27502150Y50151608D01*
X7528137Y56699905D02*
X4351376Y56699905D01*
X39636060Y41237542D02*
X38533704Y42269441D01*
X31383812Y47818494D02*
X30110599Y48630277D01*
X35068698Y45185600D02*
X33863697Y46095574D01*
X9022228Y56481426D02*
X7528137Y56699905D01*
X37404488Y43271887D02*
X36249178Y44244199D01*
X22062809Y52771057D02*
X20662120Y53335062D01*
X13462589Y55590564D02*
X11990489Y55926560D01*
X41051477Y39822451D02*
X40710771Y40176924D01*
X19247035Y53861894D02*
X17818539Y54351188D01*
X32635082Y46973433D02*
X31383812Y47818494D01*
%TO.N,Net-(J1-Pin_8)*%
X22658543Y51754780D02*
X21272762Y52339625D01*
X15588852Y54304277D02*
X14137762Y54700004D01*
X24028228Y51133268D02*
X22658543Y51754780D01*
X19871925Y52887365D02*
X18456985Y53397626D01*
X34271747Y44915179D02*
X33086580Y45795688D01*
X29327243Y48289539D02*
X28031346Y49053138D01*
X33086580Y45795688D02*
X31855756Y46660237D01*
X700000Y52248529D02*
X700000Y52200000D01*
X8243394Y55892874D02*
X6752610Y56092505D01*
X18456985Y53397626D02*
X17028966Y53870038D01*
X30602363Y47491706D02*
X29327243Y48289539D01*
X34271747Y41547044D02*
X34271747Y44915179D01*
X4543976Y56092505D02*
X700000Y52248529D01*
X12676611Y55056973D02*
X11206443Y55374926D01*
X6752610Y56092505D02*
X4543976Y56092505D01*
X11206443Y55374926D02*
X9728390Y55653619D01*
X17028966Y53870038D02*
X15588852Y54304277D01*
X14137762Y54700004D02*
X12676611Y55056973D01*
X9728390Y55653619D02*
X8243394Y55892874D01*
X31855756Y46660237D02*
X30602363Y47491706D01*
X21272762Y52339625D02*
X19871925Y52887365D01*
X28031346Y49053138D02*
X26715614Y49781953D01*
X26715614Y49781953D02*
X25380923Y50475495D01*
X25380923Y50475495D02*
X24028228Y51133268D01*
%TO.N,Net-(J1-Pin_9)*%
X16212840Y53285602D02*
X14776409Y53701669D01*
X25883917Y49317688D02*
X24550497Y49994846D01*
X13329278Y54079033D02*
X11872554Y54417405D01*
X26406367Y46939440D02*
X26406367Y49034475D01*
X14776409Y53701669D02*
X13329278Y54079033D01*
X23199408Y50635946D02*
X21831574Y51240549D01*
X10407309Y54716537D02*
X8934509Y54976232D01*
X24550497Y49994846D02*
X23199408Y50635946D01*
X17637615Y52831109D02*
X16212840Y53285602D01*
X8934509Y54976232D02*
X7455256Y55196292D01*
X11872554Y54417405D02*
X10407309Y54716537D01*
X19049685Y52338524D02*
X17637615Y52831109D01*
X1500000Y52248529D02*
X1500000Y52200000D01*
X7455256Y55196292D02*
X4447763Y55196292D01*
X20447959Y51808229D02*
X19049685Y52338524D01*
X26406367Y49034475D02*
X25883917Y49317688D01*
X4447763Y55196292D02*
X1500000Y52248529D01*
X21831574Y51240549D02*
X20447959Y51808229D01*
%TO.N,Net-(J1-Pin_10)*%
X4454927Y54403456D02*
X2300000Y52248529D01*
X14564161Y52930301D02*
X13137817Y53302245D01*
X10257819Y53930592D02*
X8806174Y54186556D01*
X17718664Y51955596D02*
X17384269Y52072246D01*
X17718664Y50855609D02*
X17718664Y51955596D01*
X15979959Y52520210D02*
X14564161Y52930301D01*
X7348168Y54403456D02*
X4454927Y54403456D01*
X8806174Y54186556D02*
X7348168Y54403456D01*
X11702017Y53635757D02*
X10257819Y53930592D01*
X13137817Y53302245D02*
X11702017Y53635757D01*
X2300000Y52248529D02*
X2300000Y52200000D01*
X17384269Y52072246D02*
X15979959Y52520210D01*
%TO.N,Net-(J1-Pin_11)*%
X4080631Y53180631D02*
X3100000Y52200000D01*
X8491041Y53180631D02*
X4080631Y53180631D01*
%TD*%
%TA.AperFunction,Conductor*%
%TO.N,GND1*%
G36*
X1193583Y60829630D02*
G01*
X1906856Y60811310D01*
X2743281Y60779535D01*
X3455644Y60742916D01*
X4291191Y60689969D01*
X5002125Y60635090D01*
X5836369Y60560985D01*
X6545291Y60487907D01*
X7377791Y60392665D01*
X8084156Y60301466D01*
X8914429Y60185120D01*
X9617710Y60075892D01*
X10445342Y59938474D01*
X11144922Y59811345D01*
X11969454Y59652900D01*
X12664808Y59508002D01*
X13485886Y59328559D01*
X14176358Y59166073D01*
X14993529Y58965685D01*
X15678623Y58785780D01*
X16491487Y58564495D01*
X17170596Y58367388D01*
X17978725Y58125261D01*
X18651289Y57911184D01*
X19454329Y57648255D01*
X20119695Y57417491D01*
X20917348Y57133779D01*
X21574791Y56886675D01*
X22366779Y56582184D01*
X23015793Y56319037D01*
X23801692Y55993823D01*
X24441623Y55715018D01*
X25221137Y55369086D01*
X25851400Y55075014D01*
X26624224Y54708364D01*
X27244018Y54399555D01*
X28010073Y54012067D01*
X28618567Y53689126D01*
X29377718Y53280678D01*
X29974243Y52944180D01*
X30726257Y52514682D01*
X31310004Y52165336D01*
X32054889Y51714531D01*
X32624786Y51353282D01*
X33362688Y50880781D01*
X33917755Y50508616D01*
X34648816Y50013966D01*
X35187824Y49632148D01*
X35912455Y49114636D01*
X36433857Y48724804D01*
X37152766Y48183387D01*
X37654680Y47787634D01*
X38368960Y47220811D01*
X38848993Y46821900D01*
X39560206Y46227562D01*
X40015056Y45829398D01*
X40725774Y45204253D01*
X41150364Y44812871D01*
X41864897Y44151551D01*
X42251081Y43776778D01*
X42976818Y43070156D01*
X43310073Y42729702D01*
X44060818Y41960767D01*
X44309357Y41693461D01*
X45116217Y40824077D01*
X45184644Y40746586D01*
X46136538Y39667390D01*
X47124592Y38488335D01*
X47126853Y38485469D01*
X47338585Y38200271D01*
X47372282Y38154747D01*
X47375429Y38150065D01*
X47511654Y37925986D01*
X47591102Y37794053D01*
X47593714Y37789248D01*
X47700177Y37570991D01*
X47775173Y37414469D01*
X47777255Y37409601D01*
X47860218Y37190145D01*
X47922879Y37019345D01*
X47924443Y37014468D01*
X47985626Y36792557D01*
X48032920Y36612182D01*
X48033983Y36607350D01*
X48073950Y36383435D01*
X48104353Y36196495D01*
X48104938Y36191757D01*
X48123912Y35967021D01*
X48136544Y35775987D01*
X48136677Y35771388D01*
X48134845Y35547194D01*
X48129219Y35354350D01*
X48128932Y35349939D01*
X48120934Y35270684D01*
X48106515Y35127793D01*
X48082449Y34935294D01*
X48081777Y34931094D01*
X48039098Y34712666D01*
X47996647Y34522443D01*
X47995627Y34518492D01*
X47933130Y34305466D01*
X47872581Y34119503D01*
X47871255Y34115829D01*
X47789501Y33909806D01*
X47711348Y33729975D01*
X47709758Y33726599D01*
X47609472Y33529253D01*
X47514354Y33357261D01*
X47512543Y33354198D01*
X47394583Y33167116D01*
X47283368Y33004680D01*
X47281380Y33001940D01*
X47146712Y32826607D01*
X47119800Y32794366D01*
X47020414Y32675303D01*
X47018292Y32672891D01*
X46868037Y32510748D01*
X46727758Y32371967D01*
X46725566Y32369903D01*
X46562042Y32223259D01*
X46559890Y32221417D01*
X46408082Y32097437D01*
X46405833Y32095685D01*
X46229446Y31964732D01*
X46227000Y31963008D01*
X46194218Y31941076D01*
X46063012Y31853297D01*
X45874143Y31738476D01*
X45871369Y31736886D01*
X45697842Y31643338D01*
X45499123Y31546405D01*
X45496106Y31545033D01*
X45319185Y31470392D01*
X45314686Y31468494D01*
X45107759Y31390266D01*
X45104485Y31389135D01*
X44916920Y31330283D01*
X44703513Y31271443D01*
X44699934Y31270571D01*
X44597526Y31248868D01*
X44508055Y31229907D01*
X44289854Y31190959D01*
X44286006Y31190396D01*
X44104100Y31169635D01*
X44091722Y31168223D01*
X43870416Y31149536D01*
X43866416Y31149331D01*
X43671557Y31145738D01*
X43448973Y31147554D01*
X43444758Y31147734D01*
X43251321Y31162611D01*
X43029158Y31185028D01*
X43024803Y31185624D01*
X42834714Y31218638D01*
X42614635Y31261639D01*
X42610198Y31262678D01*
X42425557Y31313214D01*
X42209063Y31376726D01*
X42204604Y31378223D01*
X42027492Y31445366D01*
X41816012Y31529284D01*
X41811593Y31531246D01*
X41644291Y31613628D01*
X41439022Y31717938D01*
X41434579Y31720431D01*
X41279836Y31815892D01*
X41081253Y31941103D01*
X41076938Y31944089D01*
X40938571Y32048831D01*
X40913888Y32067789D01*
X40745925Y32196793D01*
X40741792Y32200267D01*
X40628501Y32304368D01*
X40436000Y32482754D01*
X40432069Y32486743D01*
X40394169Y32528886D01*
X40156828Y32793542D01*
X40154964Y32795720D01*
X39716226Y33332960D01*
X39192799Y33939913D01*
X39174108Y33962155D01*
X39172712Y33963206D01*
X38808493Y34385545D01*
X37872873Y35413421D01*
X36910037Y36415849D01*
X35920678Y37392109D01*
X34905507Y38341499D01*
X33865253Y39263337D01*
X32800663Y40156960D01*
X31712503Y41021727D01*
X30601555Y41857016D01*
X29468617Y42662227D01*
X28314502Y43436781D01*
X27140041Y44180122D01*
X25946077Y44891715D01*
X24733469Y45571049D01*
X23503087Y46217636D01*
X23435741Y46250755D01*
X22255816Y46831012D01*
X20992553Y47410735D01*
X19714204Y47956388D01*
X18421688Y48467581D01*
X17115935Y48943945D01*
X15797883Y49385139D01*
X15264463Y49547926D01*
X15263347Y49548661D01*
X15235136Y49556877D01*
X14468478Y49790844D01*
X13867756Y49956691D01*
X13867721Y49956713D01*
X13832167Y49966523D01*
X13798574Y49975799D01*
X13798575Y49975800D01*
X13641884Y50019072D01*
X13451565Y50050012D01*
X13448522Y50050587D01*
X13372056Y50067037D01*
X13353116Y50066017D01*
X13320983Y50071241D01*
X13320972Y50071241D01*
X13320968Y50071242D01*
X13100196Y50082934D01*
X13032053Y50089557D01*
X13018237Y50087274D01*
X12999663Y50088258D01*
X12996326Y50088435D01*
X12996325Y50088434D01*
X12996324Y50088435D01*
X12762084Y50075459D01*
X12742815Y50074392D01*
X12691485Y50073461D01*
X12682998Y50071079D01*
X12671725Y50070454D01*
X12671722Y50070453D01*
X12671708Y50070453D01*
X12378994Y50022137D01*
X12354765Y50018892D01*
X12354125Y50018634D01*
X12354215Y50018232D01*
X12351804Y50017698D01*
X12351598Y50017615D01*
X12350935Y50017506D01*
X12037759Y49930214D01*
X11735848Y49809598D01*
X11448734Y49657070D01*
X11179780Y49474416D01*
X10932133Y49263775D01*
X10909454Y49239804D01*
X10708699Y49027618D01*
X10708695Y49027613D01*
X10708693Y49027611D01*
X10687726Y49000000D01*
X10512078Y48768695D01*
X10512075Y48768690D01*
X10484122Y48722186D01*
X10344579Y48490040D01*
X10344295Y48489425D01*
X10344188Y48489303D01*
X10343009Y48487076D01*
X10342492Y48487349D01*
X10332649Y48464231D01*
X10208176Y48194942D01*
X10208172Y48194933D01*
X10208171Y48194930D01*
X10205143Y48185938D01*
X10204555Y48184189D01*
X10200524Y48178426D01*
X10185422Y48127357D01*
X10104441Y47886806D01*
X10099726Y47865364D01*
X10094359Y47855589D01*
X10082092Y47785187D01*
X10034610Y47569285D01*
X10034608Y47569273D01*
X10031091Y47536902D01*
X10025301Y47522969D01*
X10020571Y47440816D01*
X10020310Y47437683D01*
X9999492Y47246085D01*
X9999491Y47246065D01*
X9999500Y47083514D01*
X9999500Y46846861D01*
X9999415Y46843617D01*
X9994445Y46748780D01*
X9992515Y46711960D01*
X9982195Y46528215D01*
X9981529Y46521988D01*
X9957401Y46369654D01*
X9929775Y46207067D01*
X9928538Y46201404D01*
X9887588Y46048572D01*
X9842912Y45893502D01*
X9841217Y45888445D01*
X9783878Y45739072D01*
X9722646Y45591244D01*
X9720607Y45586821D01*
X9647491Y45443323D01*
X9570358Y45303760D01*
X9568098Y45299994D01*
X9540438Y45257401D01*
X9480026Y45164377D01*
X9387859Y45034479D01*
X9385476Y45031338D01*
X9284377Y44906492D01*
X9282424Y44904196D01*
X9177275Y44786533D01*
X9174885Y44784006D01*
X9061237Y44670356D01*
X9058720Y44667976D01*
X9040216Y44651440D01*
X8941036Y44562808D01*
X8938746Y44560859D01*
X8813874Y44459740D01*
X8810767Y44457384D01*
X8680876Y44365221D01*
X8545215Y44277122D01*
X8541488Y44274886D01*
X8401923Y44197751D01*
X8258411Y44124628D01*
X8254011Y44122599D01*
X8106196Y44061372D01*
X7956772Y44004014D01*
X7951723Y44002322D01*
X7863624Y43976940D01*
X7796693Y43957658D01*
X7643811Y43916693D01*
X7638194Y43915466D01*
X7475635Y43887846D01*
X7323212Y43863705D01*
X7317025Y43863043D01*
X7133748Y43852749D01*
X7013130Y43846428D01*
X7001583Y43845823D01*
X6998337Y43845738D01*
X-6998378Y43845738D01*
X-7001619Y43845822D01*
X-7133628Y43852741D01*
X-7317027Y43863041D01*
X-7323212Y43863703D01*
X-7475647Y43887846D01*
X-7638194Y43915464D01*
X-7643816Y43916692D01*
X-7796706Y43957659D01*
X-7951718Y44002318D01*
X-7956757Y44004006D01*
X-8106198Y44061372D01*
X-8254007Y44122597D01*
X-8258418Y44124631D01*
X-8401911Y44197744D01*
X-8490931Y44246943D01*
X-8541480Y44274880D01*
X-8545236Y44277134D01*
X-8680861Y44365210D01*
X-8810765Y44457382D01*
X-8813905Y44459764D01*
X-8830385Y44473109D01*
X-8938760Y44560869D01*
X-8941024Y44562796D01*
X-9058721Y44667976D01*
X-9061248Y44670366D01*
X-9174870Y44783988D01*
X-9177260Y44786515D01*
X-9282440Y44904212D01*
X-9284380Y44906492D01*
X-9385478Y45031338D01*
X-9387854Y45034471D01*
X-9480027Y45164376D01*
X-9568090Y45299980D01*
X-9570357Y45303758D01*
X-9647493Y45443326D01*
X-9720605Y45586818D01*
X-9722644Y45591240D01*
X-9783870Y45739051D01*
X-9841223Y45888460D01*
X-9842918Y45893517D01*
X-9887579Y46048534D01*
X-9928541Y46201409D01*
X-9929778Y46207073D01*
X-9957394Y46369607D01*
X-9981530Y46521996D01*
X-9982196Y46528223D01*
X-9992509Y46711855D01*
X-9999415Y46843615D01*
X-9999457Y46845232D01*
X-8505643Y46845232D01*
X-8503709Y46821900D01*
X-8497968Y46752611D01*
X-8497650Y46748780D01*
X-8497438Y46743657D01*
X-8497438Y46730782D01*
X-8498724Y46726401D01*
X-8498059Y46718377D01*
X-8495855Y46711670D01*
X-8493734Y46698961D01*
X-8493102Y46693901D01*
X-8485108Y46597417D01*
X-8461344Y46503577D01*
X-8460296Y46498579D01*
X-8458175Y46485866D01*
X-8458721Y46481340D01*
X-8456743Y46473525D01*
X-8453466Y46467275D01*
X-8453465Y46467271D01*
X-8449286Y46455098D01*
X-8447830Y46450214D01*
X-8427430Y46369654D01*
X-8424062Y46356354D01*
X-8385184Y46267723D01*
X-8383326Y46262963D01*
X-8379603Y46252117D01*
X-8379133Y46250747D01*
X-8378927Y46246191D01*
X-8375699Y46238830D01*
X-8371435Y46233200D01*
X-8365298Y46221859D01*
X-8363052Y46217267D01*
X-8358578Y46207067D01*
X-8324173Y46128630D01*
X-8271231Y46047596D01*
X-8268618Y46043211D01*
X-8262477Y46031864D01*
X-8261524Y46027405D01*
X-8257122Y46020666D01*
X-8251994Y46015819D01*
X-8248575Y46011427D01*
X-8244849Y46006639D01*
X-8244081Y46005653D01*
X-8241102Y46001481D01*
X-8195500Y45931681D01*
X-8188163Y45920452D01*
X-8122606Y45849237D01*
X-8119291Y45845323D01*
X-8111384Y45835164D01*
X-8109711Y45830923D01*
X-8104253Y45824995D01*
X-8098398Y45821058D01*
X-8088918Y45812330D01*
X-8085294Y45808706D01*
X-8019744Y45737500D01*
X-8019741Y45737498D01*
X-7943378Y45678061D01*
X-7939462Y45674745D01*
X-7929970Y45666005D01*
X-7927624Y45662101D01*
X-7921278Y45657161D01*
X-7914843Y45654236D01*
X-7911015Y45651735D01*
X-7904063Y45647193D01*
X-7899897Y45644219D01*
X-7831834Y45591244D01*
X-7823505Y45584761D01*
X-7823503Y45584760D01*
X-7774906Y45558461D01*
X-7738388Y45538699D01*
X-7733985Y45536075D01*
X-7723190Y45529022D01*
X-7720227Y45525551D01*
X-7713156Y45521724D01*
X-7706332Y45519899D01*
X-7694528Y45514721D01*
X-7689925Y45512471D01*
X-7613340Y45471026D01*
X-7604810Y45466410D01*
X-7604804Y45466408D01*
X-7604802Y45466407D01*
X-7513258Y45434980D01*
X-7508480Y45433115D01*
X-7496690Y45427943D01*
X-7493199Y45425009D01*
X-7485599Y45422400D01*
X-7478587Y45421726D01*
X-7475140Y45420853D01*
X-7466071Y45418556D01*
X-7461165Y45417095D01*
X-7369614Y45385667D01*
X-7274141Y45369734D01*
X-7269128Y45368683D01*
X-7256648Y45365524D01*
X-7252715Y45363200D01*
X-7244768Y45361874D01*
X-7237719Y45362365D01*
X-7224888Y45361301D01*
X-7219804Y45360668D01*
X-7124336Y45344738D01*
X-7027541Y45344738D01*
X-7022428Y45344526D01*
X-7011122Y45343589D01*
X-7009583Y45343462D01*
X-7005328Y45341820D01*
X-6997281Y45341820D01*
X-6990417Y45343462D01*
X-6988877Y45343589D01*
X-6977571Y45344526D01*
X-6972459Y45344738D01*
X-6875665Y45344738D01*
X-6780194Y45360668D01*
X-6775109Y45361302D01*
X-6762277Y45362365D01*
X-6757806Y45361445D01*
X-6749862Y45362770D01*
X-6743355Y45365523D01*
X-6730872Y45368683D01*
X-6725857Y45369735D01*
X-6630383Y45385667D01*
X-6538835Y45417094D01*
X-6533929Y45418555D01*
X-6521450Y45421716D01*
X-6516890Y45421545D01*
X-6509261Y45424163D01*
X-6503304Y45427945D01*
X-6491515Y45433117D01*
X-6486740Y45434980D01*
X-6395194Y45466408D01*
X-6395183Y45466413D01*
X-6310084Y45512466D01*
X-6305479Y45514717D01*
X-6293662Y45519901D01*
X-6289135Y45520482D01*
X-6282061Y45524310D01*
X-6276804Y45529024D01*
X-6266009Y45536077D01*
X-6261607Y45538699D01*
X-6176493Y45584762D01*
X-6176489Y45584764D01*
X-6100107Y45644215D01*
X-6095939Y45647191D01*
X-6085223Y45654193D01*
X-6084892Y45654408D01*
X-6080615Y45655687D01*
X-6074428Y45660502D01*
X-6070025Y45666009D01*
X-6060532Y45674748D01*
X-6056620Y45678062D01*
X-5980255Y45737500D01*
X-5914696Y45808715D01*
X-5911071Y45812340D01*
X-5901596Y45821062D01*
X-5897509Y45823078D01*
X-5892057Y45829000D01*
X-5888626Y45835149D01*
X-5885211Y45839537D01*
X-5880688Y45845346D01*
X-5877386Y45849243D01*
X-5811836Y45920453D01*
X-5758900Y46001475D01*
X-5755922Y46005646D01*
X-5748004Y46015819D01*
X-5744304Y46018481D01*
X-5739900Y46025222D01*
X-5737520Y46031869D01*
X-5731387Y46043200D01*
X-5728764Y46047602D01*
X-5675828Y46128628D01*
X-5636953Y46217252D01*
X-5634705Y46221850D01*
X-5629202Y46232022D01*
X-5628545Y46233235D01*
X-5625338Y46236464D01*
X-5622116Y46243809D01*
X-5620863Y46250755D01*
X-5616674Y46262955D01*
X-5614811Y46267731D01*
X-5576383Y46355340D01*
X-5575937Y46356357D01*
X-5575432Y46358351D01*
X-5552177Y46450178D01*
X-5550715Y46455089D01*
X-5546533Y46467271D01*
X-5543896Y46470993D01*
X-5541917Y46478808D01*
X-5541825Y46485860D01*
X-5539707Y46498557D01*
X-5538654Y46503577D01*
X-5514891Y46597416D01*
X-5514891Y46597421D01*
X-5506899Y46693868D01*
X-5506265Y46698955D01*
X-5501489Y46727572D01*
X-5502310Y46733313D01*
X-5501911Y46752611D01*
X-5501712Y46756450D01*
X-5494357Y46845232D01*
X5494357Y46845232D01*
X5496291Y46821900D01*
X5502032Y46752611D01*
X5502350Y46748780D01*
X5502562Y46743657D01*
X5502562Y46730780D01*
X5501275Y46726398D01*
X5501940Y46718367D01*
X5504143Y46711666D01*
X5506264Y46698957D01*
X5506899Y46693869D01*
X5514891Y46597421D01*
X5514891Y46597416D01*
X5538654Y46503577D01*
X5539707Y46498557D01*
X5541825Y46485860D01*
X5541277Y46481334D01*
X5543256Y46473521D01*
X5546533Y46467271D01*
X5550715Y46455089D01*
X5552177Y46450178D01*
X5575432Y46358351D01*
X5575937Y46356357D01*
X5576383Y46355340D01*
X5614811Y46267731D01*
X5616674Y46262955D01*
X5620863Y46250755D01*
X5621068Y46246197D01*
X5624292Y46238848D01*
X5628545Y46233235D01*
X5629202Y46232022D01*
X5634705Y46221850D01*
X5636953Y46217252D01*
X5675828Y46128628D01*
X5728764Y46047602D01*
X5731387Y46043200D01*
X5737520Y46031869D01*
X5738473Y46027406D01*
X5742879Y46020662D01*
X5748004Y46015819D01*
X5755922Y46005646D01*
X5758900Y46001475D01*
X5811836Y45920453D01*
X5877386Y45849243D01*
X5880688Y45845346D01*
X5885211Y45839537D01*
X5888626Y45835149D01*
X5890295Y45830915D01*
X5895743Y45824996D01*
X5901596Y45821062D01*
X5911071Y45812340D01*
X5914696Y45808715D01*
X5980255Y45737500D01*
X6056620Y45678062D01*
X6060532Y45674748D01*
X6070025Y45666009D01*
X6072372Y45662102D01*
X6078593Y45657260D01*
X6084892Y45654408D01*
X6085223Y45654193D01*
X6095939Y45647191D01*
X6100107Y45644215D01*
X6176489Y45584764D01*
X6176493Y45584762D01*
X6261607Y45538699D01*
X6266009Y45536077D01*
X6276804Y45529024D01*
X6279766Y45525552D01*
X6286840Y45521724D01*
X6293662Y45519901D01*
X6305479Y45514717D01*
X6310084Y45512466D01*
X6395183Y45466413D01*
X6395194Y45466408D01*
X6486740Y45434980D01*
X6491515Y45433117D01*
X6503304Y45427945D01*
X6506795Y45425010D01*
X6514425Y45422391D01*
X6521450Y45421716D01*
X6533929Y45418555D01*
X6538835Y45417094D01*
X6630383Y45385667D01*
X6725857Y45369735D01*
X6730872Y45368683D01*
X6743355Y45365523D01*
X6747286Y45363200D01*
X6755236Y45361874D01*
X6762277Y45362365D01*
X6775109Y45361302D01*
X6780194Y45360668D01*
X6875665Y45344738D01*
X6972459Y45344738D01*
X6977571Y45344526D01*
X6988877Y45343589D01*
X6990417Y45343462D01*
X6994672Y45341820D01*
X7002723Y45341820D01*
X7009583Y45343462D01*
X7011122Y45343589D01*
X7022428Y45344526D01*
X7027541Y45344738D01*
X7124336Y45344738D01*
X7219804Y45360668D01*
X7224888Y45361301D01*
X7237719Y45362365D01*
X7242191Y45361444D01*
X7250143Y45362771D01*
X7256648Y45365524D01*
X7269128Y45368683D01*
X7274141Y45369734D01*
X7369614Y45385667D01*
X7461165Y45417095D01*
X7466071Y45418556D01*
X7475140Y45420853D01*
X7478587Y45421726D01*
X7483134Y45421553D01*
X7490738Y45424164D01*
X7496690Y45427943D01*
X7508480Y45433115D01*
X7513258Y45434980D01*
X7604802Y45466407D01*
X7604804Y45466408D01*
X7604810Y45466410D01*
X7613340Y45471026D01*
X7689925Y45512471D01*
X7694528Y45514721D01*
X7706332Y45519899D01*
X7710858Y45520480D01*
X7717936Y45524311D01*
X7723190Y45529022D01*
X7733985Y45536075D01*
X7738388Y45538699D01*
X7774906Y45558461D01*
X7823503Y45584760D01*
X7823505Y45584761D01*
X7831834Y45591244D01*
X7899897Y45644219D01*
X7904063Y45647193D01*
X7911015Y45651735D01*
X7914842Y45654236D01*
X7919215Y45655555D01*
X7925573Y45660504D01*
X7929970Y45666005D01*
X7939462Y45674745D01*
X7943378Y45678061D01*
X8019741Y45737498D01*
X8019744Y45737500D01*
X8085294Y45808706D01*
X8088918Y45812330D01*
X8098398Y45821058D01*
X8102487Y45823076D01*
X8107949Y45829009D01*
X8111384Y45835164D01*
X8119291Y45845323D01*
X8122606Y45849237D01*
X8188163Y45920452D01*
X8195500Y45931681D01*
X8241102Y46001481D01*
X8244081Y46005653D01*
X8244849Y46006639D01*
X8248575Y46011427D01*
X8251994Y46015819D01*
X8255695Y46018482D01*
X8260100Y46025225D01*
X8262475Y46031861D01*
X8268618Y46043211D01*
X8271231Y46047596D01*
X8324173Y46128630D01*
X8358578Y46207067D01*
X8363052Y46217267D01*
X8365298Y46221859D01*
X8371435Y46233200D01*
X8374650Y46236440D01*
X8377881Y46243806D01*
X8379133Y46250747D01*
X8379603Y46252117D01*
X8383326Y46262963D01*
X8385184Y46267723D01*
X8424062Y46356354D01*
X8427430Y46369654D01*
X8447830Y46450214D01*
X8449286Y46455098D01*
X8453465Y46467271D01*
X8453466Y46467273D01*
X8456102Y46470994D01*
X8458082Y46478816D01*
X8458175Y46485866D01*
X8460296Y46498579D01*
X8461344Y46503577D01*
X8485108Y46597417D01*
X8493102Y46693898D01*
X8493733Y46698957D01*
X8497438Y46721157D01*
X8497438Y46721160D01*
X8498508Y46727572D01*
X8497688Y46733307D01*
X8498088Y46752648D01*
X8498283Y46756427D01*
X8505643Y46845238D01*
X8498283Y46934052D01*
X8498088Y46937823D01*
X8497688Y46957163D01*
X8498789Y46961221D01*
X8496540Y46974697D01*
X8493796Y46991141D01*
X8493734Y46991516D01*
X8493103Y46996571D01*
X8485108Y47093059D01*
X8461344Y47186897D01*
X8460299Y47191876D01*
X8458175Y47204607D01*
X8458722Y47209134D01*
X8456742Y47216952D01*
X8453466Y47223201D01*
X8449280Y47235394D01*
X8447824Y47240288D01*
X8447439Y47241807D01*
X8424063Y47334119D01*
X8385170Y47422783D01*
X8383327Y47427511D01*
X8383231Y47427791D01*
X8379136Y47439717D01*
X8378931Y47444274D01*
X8375696Y47451648D01*
X8371436Y47457273D01*
X8365290Y47468629D01*
X8363049Y47473216D01*
X8324173Y47561845D01*
X8271224Y47642888D01*
X8268621Y47647259D01*
X8268611Y47647277D01*
X8262483Y47658600D01*
X8261530Y47663059D01*
X8257123Y47669805D01*
X8252005Y47674641D01*
X8244055Y47684856D01*
X8241124Y47688961D01*
X8188164Y47770023D01*
X8122585Y47841260D01*
X8119315Y47845121D01*
X8111387Y47855308D01*
X8109715Y47859545D01*
X8104251Y47865480D01*
X8098407Y47869409D01*
X8088909Y47878152D01*
X8085313Y47881748D01*
X8019744Y47952976D01*
X7943349Y48012436D01*
X7939462Y48015730D01*
X7929972Y48024466D01*
X7927623Y48028373D01*
X7921280Y48033311D01*
X7914858Y48036229D01*
X7904025Y48043306D01*
X7899935Y48046226D01*
X7823509Y48105712D01*
X7738361Y48151791D01*
X7733999Y48154391D01*
X7723190Y48161453D01*
X7720228Y48164923D01*
X7713158Y48168749D01*
X7706340Y48170572D01*
X7694522Y48175755D01*
X7689970Y48177979D01*
X7604810Y48224066D01*
X7513251Y48255498D01*
X7508501Y48257351D01*
X7496695Y48262529D01*
X7493205Y48265463D01*
X7485585Y48268079D01*
X7478569Y48268753D01*
X7466055Y48271922D01*
X7461198Y48273367D01*
X7369614Y48304809D01*
X7274105Y48320746D01*
X7269158Y48321783D01*
X7256626Y48324956D01*
X7252706Y48327273D01*
X7244766Y48328598D01*
X7237735Y48328108D01*
X7224850Y48329176D01*
X7219854Y48329798D01*
X7124335Y48345738D01*
X7027574Y48345738D01*
X7022453Y48345950D01*
X7009579Y48347016D01*
X7005321Y48348659D01*
X6997292Y48348659D01*
X6990419Y48347015D01*
X6989551Y48346943D01*
X6977556Y48345950D01*
X6972436Y48345738D01*
X6875665Y48345738D01*
X6780187Y48329805D01*
X6775122Y48329174D01*
X6762278Y48328109D01*
X6757811Y48329028D01*
X6749857Y48327701D01*
X6743361Y48324954D01*
X6730861Y48321788D01*
X6725857Y48320740D01*
X6630385Y48304809D01*
X6604307Y48295856D01*
X6538823Y48273375D01*
X6533935Y48271920D01*
X6529378Y48270766D01*
X6521432Y48268755D01*
X6516881Y48268926D01*
X6509259Y48266309D01*
X6503301Y48262528D01*
X6491480Y48257343D01*
X6486767Y48255504D01*
X6395190Y48224066D01*
X6310057Y48177994D01*
X6305483Y48175759D01*
X6293664Y48170574D01*
X6289135Y48169992D01*
X6282069Y48166167D01*
X6276811Y48161454D01*
X6266010Y48154397D01*
X6261634Y48151789D01*
X6176491Y48105712D01*
X6100091Y48046247D01*
X6095938Y48043283D01*
X6093868Y48041931D01*
X6085150Y48036236D01*
X6080784Y48034918D01*
X6074431Y48029973D01*
X6070026Y48024465D01*
X6060539Y48015731D01*
X6056624Y48012416D01*
X5980257Y47952977D01*
X5914703Y47881767D01*
X5911079Y47878142D01*
X5901599Y47869416D01*
X5897512Y47867399D01*
X5892050Y47861465D01*
X5888612Y47855308D01*
X5880706Y47845149D01*
X5877391Y47841236D01*
X5859833Y47822162D01*
X5811836Y47770023D01*
X5811834Y47770020D01*
X5811833Y47770019D01*
X5758903Y47689004D01*
X5755927Y47684834D01*
X5748009Y47674660D01*
X5744303Y47671992D01*
X5739902Y47665256D01*
X5737521Y47658609D01*
X5731389Y47647277D01*
X5728764Y47642872D01*
X5675826Y47561843D01*
X5636949Y47473216D01*
X5634700Y47468615D01*
X5628567Y47457281D01*
X5625351Y47454040D01*
X5622117Y47446668D01*
X5620864Y47439726D01*
X5616675Y47427521D01*
X5614810Y47422741D01*
X5612274Y47416959D01*
X5575937Y47334119D01*
X5575936Y47334115D01*
X5575935Y47334112D01*
X5552177Y47240296D01*
X5550714Y47235383D01*
X5546532Y47223200D01*
X5543895Y47219477D01*
X5541918Y47211671D01*
X5541825Y47204612D01*
X5539707Y47191917D01*
X5538654Y47186897D01*
X5514891Y47093056D01*
X5514891Y47093054D01*
X5506899Y46996605D01*
X5506264Y46991517D01*
X5504143Y46978808D01*
X5502155Y46974704D01*
X5501490Y46966680D01*
X5502562Y46959694D01*
X5502562Y46946817D01*
X5502350Y46941704D01*
X5502029Y46937823D01*
X5494357Y46845242D01*
X5494357Y46845232D01*
X-5494357Y46845232D01*
X-5494357Y46845237D01*
X-5494399Y46845738D01*
X-5496414Y46870066D01*
X-5501712Y46934024D01*
X-5501911Y46937863D01*
X-5502310Y46957161D01*
X-5501208Y46961219D01*
X-5506265Y46991519D01*
X-5506899Y46996606D01*
X-5514891Y47093054D01*
X-5514891Y47093056D01*
X-5538654Y47186897D01*
X-5539707Y47191917D01*
X-5541825Y47204612D01*
X-5541277Y47209140D01*
X-5543256Y47216953D01*
X-5546532Y47223200D01*
X-5550714Y47235383D01*
X-5552177Y47240296D01*
X-5575935Y47334112D01*
X-5575936Y47334115D01*
X-5575937Y47334119D01*
X-5612274Y47416959D01*
X-5614810Y47422741D01*
X-5616675Y47427521D01*
X-5620864Y47439726D01*
X-5621069Y47444278D01*
X-5624304Y47451653D01*
X-5628567Y47457281D01*
X-5634700Y47468615D01*
X-5636949Y47473216D01*
X-5675826Y47561843D01*
X-5728764Y47642872D01*
X-5731389Y47647277D01*
X-5737521Y47658609D01*
X-5738473Y47663069D01*
X-5742879Y47669813D01*
X-5748009Y47674660D01*
X-5755927Y47684834D01*
X-5758903Y47689004D01*
X-5811833Y47770019D01*
X-5811834Y47770020D01*
X-5811836Y47770023D01*
X-5859833Y47822162D01*
X-5877391Y47841236D01*
X-5880706Y47845149D01*
X-5888612Y47855308D01*
X-5890284Y47859546D01*
X-5895752Y47865487D01*
X-5901599Y47869416D01*
X-5911079Y47878142D01*
X-5914703Y47881767D01*
X-5980257Y47952977D01*
X-6056624Y48012416D01*
X-6060539Y48015731D01*
X-6070026Y48024465D01*
X-6072373Y48028371D01*
X-6078730Y48033319D01*
X-6085150Y48036236D01*
X-6093868Y48041931D01*
X-6095938Y48043283D01*
X-6100091Y48046247D01*
X-6176491Y48105712D01*
X-6261634Y48151789D01*
X-6266010Y48154397D01*
X-6276811Y48161454D01*
X-6279772Y48164924D01*
X-6286844Y48168752D01*
X-6293664Y48170574D01*
X-6305483Y48175759D01*
X-6310057Y48177994D01*
X-6395190Y48224066D01*
X-6486767Y48255504D01*
X-6491480Y48257343D01*
X-6503300Y48262528D01*
X-6506791Y48265462D01*
X-6514421Y48268081D01*
X-6521432Y48268755D01*
X-6529378Y48270766D01*
X-6533935Y48271920D01*
X-6538823Y48273375D01*
X-6604307Y48295856D01*
X-6630385Y48304809D01*
X-6725857Y48320740D01*
X-6730861Y48321788D01*
X-6743359Y48324953D01*
X-6747285Y48327272D01*
X-6755240Y48328600D01*
X-6762274Y48328109D01*
X-6775122Y48329174D01*
X-6780187Y48329805D01*
X-6875665Y48345738D01*
X-6972436Y48345738D01*
X-6977556Y48345950D01*
X-6989551Y48346943D01*
X-6990419Y48347015D01*
X-6994680Y48348659D01*
X-7002715Y48348659D01*
X-7009579Y48347016D01*
X-7022453Y48345950D01*
X-7027574Y48345738D01*
X-7124335Y48345738D01*
X-7219854Y48329798D01*
X-7224850Y48329176D01*
X-7237730Y48328109D01*
X-7242193Y48329027D01*
X-7250141Y48327701D01*
X-7256623Y48324957D01*
X-7269158Y48321783D01*
X-7274105Y48320746D01*
X-7369614Y48304809D01*
X-7461198Y48273367D01*
X-7466055Y48271922D01*
X-7478568Y48268754D01*
X-7483120Y48268925D01*
X-7490741Y48266309D01*
X-7496691Y48262531D01*
X-7508501Y48257351D01*
X-7513251Y48255498D01*
X-7604810Y48224066D01*
X-7689970Y48177979D01*
X-7694522Y48175755D01*
X-7706340Y48170572D01*
X-7710865Y48169990D01*
X-7717935Y48166164D01*
X-7723190Y48161453D01*
X-7733999Y48154391D01*
X-7738361Y48151791D01*
X-7823509Y48105712D01*
X-7899935Y48046226D01*
X-7904025Y48043306D01*
X-7914857Y48036230D01*
X-7919222Y48034913D01*
X-7925568Y48029973D01*
X-7929972Y48024466D01*
X-7939462Y48015730D01*
X-7943349Y48012436D01*
X-8019744Y47952976D01*
X-8085313Y47881748D01*
X-8088909Y47878152D01*
X-8098405Y47869410D01*
X-8102489Y47867395D01*
X-8107949Y47861464D01*
X-8111384Y47855311D01*
X-8119315Y47845121D01*
X-8122585Y47841260D01*
X-8188164Y47770023D01*
X-8241124Y47688961D01*
X-8244055Y47684856D01*
X-8252004Y47674643D01*
X-8255699Y47671984D01*
X-8260104Y47665242D01*
X-8262481Y47658603D01*
X-8268611Y47647277D01*
X-8268621Y47647259D01*
X-8271224Y47642888D01*
X-8324173Y47561845D01*
X-8363049Y47473216D01*
X-8365290Y47468629D01*
X-8371434Y47457276D01*
X-8374649Y47454037D01*
X-8377882Y47446665D01*
X-8379135Y47439721D01*
X-8383231Y47427791D01*
X-8383327Y47427511D01*
X-8385170Y47422783D01*
X-8424063Y47334119D01*
X-8447439Y47241807D01*
X-8447824Y47240288D01*
X-8449280Y47235394D01*
X-8453465Y47223203D01*
X-8456102Y47219480D01*
X-8458081Y47211666D01*
X-8458175Y47204612D01*
X-8460299Y47191876D01*
X-8461344Y47186897D01*
X-8485108Y47093059D01*
X-8493103Y46996568D01*
X-8493732Y46991524D01*
X-8495855Y46978804D01*
X-8497843Y46974697D01*
X-8498508Y46966674D01*
X-8497438Y46959692D01*
X-8497438Y46946817D01*
X-8497649Y46941704D01*
X-8497971Y46937823D01*
X-8505643Y46845242D01*
X-8505643Y46845232D01*
X-9999457Y46845232D01*
X-9999500Y46846861D01*
X-9999500Y47083615D01*
X-9999494Y47246067D01*
X-9999494Y47246081D01*
X-10020301Y47437544D01*
X-10020562Y47440679D01*
X-10025061Y47518837D01*
X-10031090Y47536823D01*
X-10034616Y47569267D01*
X-10034617Y47569273D01*
X-10034618Y47569279D01*
X-10082064Y47785007D01*
X-10093837Y47852568D01*
X-10099721Y47865286D01*
X-10104453Y47886802D01*
X-10185375Y48127170D01*
X-10199974Y48176540D01*
X-10204542Y48184104D01*
X-10208179Y48194907D01*
X-10208186Y48194924D01*
X-10221656Y48224064D01*
X-10248608Y48282373D01*
X-10332562Y48463999D01*
X-10342189Y48486610D01*
X-10342678Y48487248D01*
X-10343024Y48487065D01*
X-10344115Y48489125D01*
X-10344269Y48489326D01*
X-10344594Y48490029D01*
X-10344595Y48490031D01*
X-10512084Y48768667D01*
X-10512093Y48768679D01*
X-10605811Y48892092D01*
X-10708709Y49027593D01*
X-10819792Y49145001D01*
X-10932138Y49263745D01*
X-10932142Y49263749D01*
X-10932143Y49263750D01*
X-10932148Y49263755D01*
X-11179794Y49474395D01*
X-11448747Y49657047D01*
X-11448760Y49657054D01*
X-11448765Y49657057D01*
X-11735844Y49809568D01*
X-11735849Y49809570D01*
X-11735858Y49809575D01*
X-12037768Y49930191D01*
X-12350941Y50017484D01*
X-12351675Y50017605D01*
X-12351835Y50017682D01*
X-12354220Y50018210D01*
X-12354095Y50018771D01*
X-12354139Y50018792D01*
X-12379195Y50022147D01*
X-12605938Y50059575D01*
X-12671693Y50070430D01*
X-12671696Y50070430D01*
X-12671712Y50070433D01*
X-12683093Y50071063D01*
X-12689729Y50073417D01*
X-12743035Y50074384D01*
X-12996326Y50088418D01*
X-12996331Y50088417D01*
X-12996335Y50088418D01*
X-13018316Y50087254D01*
X-13029176Y50089827D01*
X-13100387Y50082908D01*
X-13136004Y50081021D01*
X-13320983Y50071227D01*
X-13353196Y50065990D01*
X-13368186Y50067865D01*
X-13448674Y50050551D01*
X-13451755Y50049969D01*
X-13641882Y50019063D01*
X-13660339Y50013966D01*
X-13798079Y49975930D01*
X-13798561Y49975797D01*
X-14400560Y49809596D01*
X-14468478Y49790845D01*
X-15235161Y49556869D01*
X-15262976Y49548768D01*
X-15264497Y49547916D01*
X-15785199Y49389010D01*
X-15797883Y49385139D01*
X-17115935Y48943946D01*
X-18421688Y48467581D01*
X-19714204Y47956388D01*
X-20992552Y47410734D01*
X-22255816Y46831011D01*
X-23503087Y46217636D01*
X-24733469Y45571049D01*
X-25946077Y44891715D01*
X-27140041Y44180121D01*
X-28314502Y43436781D01*
X-29468616Y42662227D01*
X-30601555Y41857016D01*
X-31712503Y41021727D01*
X-32800663Y40156960D01*
X-33865253Y39263337D01*
X-34773569Y38458417D01*
X-34905507Y38341498D01*
X-35920678Y37392109D01*
X-36910037Y36415849D01*
X-37872873Y35413421D01*
X-38808493Y34385546D01*
X-39159489Y33978539D01*
X-39172712Y33963206D01*
X-39173837Y33962479D01*
X-39192758Y33939961D01*
X-39716226Y33332961D01*
X-40154916Y32795777D01*
X-40156730Y32793659D01*
X-40394699Y32528299D01*
X-40432071Y32486742D01*
X-40436002Y32482753D01*
X-40628644Y32304234D01*
X-40741788Y32200267D01*
X-40745926Y32196788D01*
X-40938628Y32048780D01*
X-41076945Y31944075D01*
X-41081252Y31941096D01*
X-41279862Y31815866D01*
X-41434604Y31720404D01*
X-41438989Y31717943D01*
X-41644337Y31613591D01*
X-41811584Y31531236D01*
X-41816036Y31529261D01*
X-42027533Y31445334D01*
X-42204622Y31378199D01*
X-42209070Y31376706D01*
X-42425579Y31313189D01*
X-42610195Y31262659D01*
X-42614640Y31261618D01*
X-42834773Y31218605D01*
X-43024811Y31185600D01*
X-43029151Y31185006D01*
X-43251343Y31162585D01*
X-43444781Y31147707D01*
X-43448981Y31147529D01*
X-43671575Y31145711D01*
X-43866433Y31149304D01*
X-43870425Y31149509D01*
X-44091743Y31168196D01*
X-44286030Y31190370D01*
X-44289863Y31190930D01*
X-44508092Y31229883D01*
X-44512533Y31230824D01*
X-44699925Y31270536D01*
X-44703481Y31271402D01*
X-44916962Y31330262D01*
X-45104469Y31389095D01*
X-45107769Y31390234D01*
X-45314742Y31468479D01*
X-45496117Y31545000D01*
X-45499123Y31546366D01*
X-45697881Y31643319D01*
X-45705865Y31647623D01*
X-45871391Y31736857D01*
X-45874130Y31738427D01*
X-46063054Y31853280D01*
X-46227022Y31962980D01*
X-46229503Y31964729D01*
X-46229537Y31964754D01*
X-46405858Y32095658D01*
X-46408093Y32097399D01*
X-46559948Y32221417D01*
X-46562058Y32223224D01*
X-46725613Y32369897D01*
X-46727785Y32371942D01*
X-46803407Y32446757D01*
X-46868059Y32510720D01*
X-47018305Y32672853D01*
X-47020426Y32675264D01*
X-47146733Y32826576D01*
X-47281415Y33001928D01*
X-47283403Y33004668D01*
X-47394602Y33167080D01*
X-47394625Y33167116D01*
X-47512574Y33354182D01*
X-47514383Y33357241D01*
X-47609496Y33529227D01*
X-47709780Y33726570D01*
X-47711369Y33729946D01*
X-47789528Y33909786D01*
X-47871284Y34115815D01*
X-47872610Y34119489D01*
X-47933155Y34305441D01*
X-47995655Y34518484D01*
X-47996674Y34522434D01*
X-48039123Y34712647D01*
X-48081802Y34931078D01*
X-48082474Y34935278D01*
X-48106540Y35127779D01*
X-48114764Y35209281D01*
X-48128957Y35349943D01*
X-48129244Y35354348D01*
X-48134868Y35547161D01*
X-48136699Y35771390D01*
X-48136566Y35775988D01*
X-48123934Y35967012D01*
X-48104959Y36191751D01*
X-48104374Y36196489D01*
X-48073971Y36383424D01*
X-48071787Y36395658D01*
X-46880157Y36395658D01*
X-46847495Y36267725D01*
X-46778578Y36155103D01*
X-46757417Y36134231D01*
X-46757411Y36134226D01*
X-46757410Y36134225D01*
X-46307878Y35766942D01*
X-46307854Y35766924D01*
X-46283203Y35750364D01*
X-46283199Y35750362D01*
X-46159101Y35705282D01*
X-46115140Y35703115D01*
X-46027224Y35698782D01*
X-46027223Y35698782D01*
X-46027220Y35698782D01*
X-45899293Y35731441D01*
X-45786668Y35800361D01*
X-45765791Y35821528D01*
X-45606607Y36016361D01*
X-45548947Y36055822D01*
X-45510582Y36061906D01*
X-45022691Y36061906D01*
X-45015752Y36061516D01*
X-45001477Y36059908D01*
X-44976872Y36057135D01*
X-44926451Y36066676D01*
X-44918428Y36068194D01*
X-44905740Y36070106D01*
X-44859624Y36077057D01*
X-44851466Y36079573D01*
X-44843430Y36082385D01*
X-44790835Y36110183D01*
X-44737264Y36135982D01*
X-44730222Y36140782D01*
X-44723369Y36145840D01*
X-44699222Y36169986D01*
X-44680637Y36185267D01*
X-44670789Y36191875D01*
X-44670786Y36191877D01*
X-44657488Y36208298D01*
X-44645473Y36221150D01*
X-44637714Y36228349D01*
X-44637713Y36228351D01*
X-44632972Y36236560D01*
X-44629166Y36242373D01*
X-44622514Y36251387D01*
X-44620810Y36253590D01*
X-44206048Y36765780D01*
X-43563663Y37517917D01*
X-43520151Y37568862D01*
X-43471832Y37625011D01*
X-43469585Y37628066D01*
X-43228477Y37910370D01*
X-42221274Y39028979D01*
X-41861192Y39408427D01*
X-41661776Y39618567D01*
X-41601351Y39653646D01*
X-41531553Y39650487D01*
X-41474542Y39610095D01*
X-41448420Y39545292D01*
X-41447830Y39533211D01*
X-41447830Y35829945D01*
X-41467515Y35762906D01*
X-41484010Y35742403D01*
X-41500179Y35726182D01*
X-41500181Y35726180D01*
X-41522806Y35698782D01*
X-41983176Y35141300D01*
X-42000354Y35116017D01*
X-42047390Y34988619D01*
X-42054785Y34853016D01*
X-42054784Y34853011D01*
X-42054784Y34853010D01*
X-42021882Y34721260D01*
X-42021881Y34721258D01*
X-41951603Y34605053D01*
X-41929955Y34583474D01*
X-41593303Y34305466D01*
X-41152316Y33941297D01*
X-41152303Y33941287D01*
X-41145163Y33936436D01*
X-41127023Y33924112D01*
X-41127020Y33924111D01*
X-41127019Y33924110D01*
X-41068717Y33902585D01*
X-40999625Y33877076D01*
X-40999623Y33877075D01*
X-40864025Y33869681D01*
X-40864023Y33869681D01*
X-40864017Y33869681D01*
X-40732267Y33902584D01*
X-40616061Y33972860D01*
X-40594475Y33994516D01*
X-40111483Y34579393D01*
X-40094304Y34604676D01*
X-40094304Y34604677D01*
X-40047270Y34732073D01*
X-40047269Y34732074D01*
X-40039875Y34867673D01*
X-40039875Y34867681D01*
X-40072777Y34999431D01*
X-40143055Y35115636D01*
X-40143057Y35115639D01*
X-40164705Y35137218D01*
X-40601787Y35498161D01*
X-40640945Y35556027D01*
X-40646830Y35593774D01*
X-40646830Y39615569D01*
X-40627145Y39682608D01*
X-40612230Y39701497D01*
X-40425686Y39895579D01*
X-39358519Y40948752D01*
X-38263892Y41973417D01*
X-37142546Y42968877D01*
X-35995326Y43934380D01*
X-34863560Y44836932D01*
X-34798873Y44863341D01*
X-34730178Y44850584D01*
X-34679284Y44802714D01*
X-34662247Y44739985D01*
X-34662247Y42446812D01*
X-34681932Y42379773D01*
X-34705550Y42352662D01*
X-35135735Y41983951D01*
X-35156985Y41961979D01*
X-35225121Y41844506D01*
X-35255605Y41712167D01*
X-35245726Y41576722D01*
X-35245724Y41576717D01*
X-35205418Y41473414D01*
X-35196363Y41450208D01*
X-35178725Y41425243D01*
X-34522399Y40659494D01*
X-34501869Y40639638D01*
X-34500425Y40638242D01*
X-34382957Y40570109D01*
X-34382955Y40570108D01*
X-34294727Y40549785D01*
X-34250614Y40539624D01*
X-34250613Y40539624D01*
X-34115169Y40549503D01*
X-34115168Y40549503D01*
X-33988657Y40598864D01*
X-33988648Y40598869D01*
X-33963701Y40616495D01*
X-33446001Y41060218D01*
X-33387759Y41110137D01*
X-33387758Y41110138D01*
X-33366509Y41132108D01*
X-33298374Y41249580D01*
X-33298373Y41249582D01*
X-33267888Y41381921D01*
X-33277767Y41517362D01*
X-33277769Y41517370D01*
X-33327129Y41643877D01*
X-33327131Y41643880D01*
X-33344769Y41668845D01*
X-33831397Y42236603D01*
X-33860078Y42300314D01*
X-33861247Y42317299D01*
X-33861247Y44658869D01*
X-33841562Y44725908D01*
X-33811197Y44758405D01*
X-33550645Y44951980D01*
X-32852008Y45471027D01*
X-31629918Y46329440D01*
X-30385411Y47155014D01*
X-29119358Y47947175D01*
X-27832602Y48705388D01*
X-26991848Y49171101D01*
X-26923667Y49186365D01*
X-26858056Y49162345D01*
X-26815847Y49106666D01*
X-26807804Y49065796D01*
X-26806875Y49029371D01*
X-26806875Y47819529D01*
X-26826560Y47752494D01*
X-26868030Y47712639D01*
X-27189692Y47523545D01*
X-27214481Y47505661D01*
X-27302253Y47402034D01*
X-27355581Y47277138D01*
X-27369725Y47142072D01*
X-27343430Y47008839D01*
X-27337702Y46996606D01*
X-27330467Y46981154D01*
X-27158123Y46687989D01*
X-26819358Y46111730D01*
X-26819352Y46111721D01*
X-26801473Y46086940D01*
X-26697846Y45999169D01*
X-26572952Y45945841D01*
X-26550440Y45943483D01*
X-26437885Y45931696D01*
X-26437883Y45931696D01*
X-26437880Y45931696D01*
X-26304649Y45957991D01*
X-26276971Y45970952D01*
X-25623056Y46355369D01*
X-25598272Y46373250D01*
X-25510498Y46476879D01*
X-25457171Y46601773D01*
X-25447527Y46693870D01*
X-25443027Y46736840D01*
X-25443027Y46736841D01*
X-25443027Y46736844D01*
X-25469320Y46870066D01*
X-25469322Y46870073D01*
X-25482285Y46897757D01*
X-25482289Y46897766D01*
X-25988772Y47759321D01*
X-26005875Y47822162D01*
X-26005876Y48722186D01*
X-25986192Y48789225D01*
X-25940971Y48831199D01*
X-25697782Y48963028D01*
X-24373963Y49635311D01*
X-23032578Y50271806D01*
X-21674564Y50872069D01*
X-20300902Y51435665D01*
X-18912686Y51962146D01*
X-18273524Y52185110D01*
X-18203742Y52188605D01*
X-18143148Y52153817D01*
X-18110980Y52091793D01*
X-18109821Y52051265D01*
X-18114905Y52014003D01*
X-18119164Y51987115D01*
X-18119164Y51987111D01*
X-18119164Y51987110D01*
X-18119164Y51987008D01*
X-18119734Y51978617D01*
X-18124063Y51946885D01*
X-18121136Y51930669D01*
X-18119164Y51908643D01*
X-18119164Y51753936D01*
X-18138849Y51686897D01*
X-18191653Y51641142D01*
X-18200113Y51637650D01*
X-18386789Y51568597D01*
X-18414342Y51555362D01*
X-18519002Y51468824D01*
X-18593505Y51355281D01*
X-18631230Y51224821D01*
X-18628826Y51089039D01*
X-18620945Y51059506D01*
X-18271049Y50113615D01*
X-18268885Y50109110D01*
X-18257814Y50086061D01*
X-18204959Y50022138D01*
X-18171276Y49981402D01*
X-18171273Y49981400D01*
X-18171272Y49981399D01*
X-18057734Y49906900D01*
X-18057728Y49906897D01*
X-17927276Y49869173D01*
X-17927273Y49869173D01*
X-17876354Y49870074D01*
X-17791486Y49871578D01*
X-17761973Y49879454D01*
X-17761954Y49879460D01*
X-17050533Y50142623D01*
X-17022985Y50155855D01*
X-16918327Y50242392D01*
X-16918323Y50242397D01*
X-16843824Y50355934D01*
X-16843824Y50355935D01*
X-16806098Y50486396D01*
X-16808502Y50622183D01*
X-16816378Y50651696D01*
X-16816384Y50651715D01*
X-17162215Y51586618D01*
X-17167012Y51656323D01*
X-17133361Y51717555D01*
X-17083601Y51747773D01*
X-15863370Y52137017D01*
X-14457925Y52544110D01*
X-13041955Y52913349D01*
X-11616655Y53244422D01*
X-10182973Y53537110D01*
X-9479131Y53661216D01*
X-9409692Y53653472D01*
X-9355463Y53609415D01*
X-9334033Y53549455D01*
X-9333269Y53540342D01*
X-9175015Y52656379D01*
X-9155539Y52547589D01*
X-9151937Y52534610D01*
X-9147367Y52518140D01*
X-9138631Y52502659D01*
X-9080626Y52399865D01*
X-9080624Y52399863D01*
X-8981994Y52306523D01*
X-8981989Y52306520D01*
X-8860220Y52246395D01*
X-8726140Y52224834D01*
X-8726136Y52224833D01*
X-8695694Y52227386D01*
X-8695667Y52227390D01*
X-7949014Y52361060D01*
X-7919568Y52369231D01*
X-7919564Y52369233D01*
X-7801292Y52435973D01*
X-7707946Y52534609D01*
X-7707945Y52534610D01*
X-7647820Y52656380D01*
X-7644694Y52675820D01*
X-7614614Y52738884D01*
X-7555215Y52775674D01*
X-7522267Y52780131D01*
X-5297886Y52780131D01*
X-5230847Y52760446D01*
X-5210205Y52743812D01*
X-4624629Y52158236D01*
X-4591144Y52096913D01*
X-4589573Y52088205D01*
X-4585165Y52057543D01*
X-4585164Y52057541D01*
X-4585164Y52057540D01*
X-4565281Y52014003D01*
X-4525377Y51926627D01*
X-4431128Y51817857D01*
X-4310053Y51740047D01*
X-4310051Y51740046D01*
X-4310049Y51740045D01*
X-4310050Y51740045D01*
X-4171963Y51699500D01*
X-4171961Y51699500D01*
X-4028036Y51699500D01*
X-3889949Y51740045D01*
X-3767039Y51819035D01*
X-3700000Y51838719D01*
X-3632961Y51819035D01*
X-3631128Y51817857D01*
X-3510053Y51740047D01*
X-3510051Y51740046D01*
X-3510049Y51740045D01*
X-3510050Y51740045D01*
X-3371963Y51699500D01*
X-3371961Y51699500D01*
X-3228036Y51699500D01*
X-3089949Y51740045D01*
X-2967039Y51819035D01*
X-2900000Y51838719D01*
X-2832961Y51819035D01*
X-2831128Y51817857D01*
X-2710053Y51740047D01*
X-2710051Y51740046D01*
X-2710049Y51740045D01*
X-2710050Y51740045D01*
X-2571963Y51699500D01*
X-2571961Y51699500D01*
X-2428036Y51699500D01*
X-2289949Y51740045D01*
X-2167039Y51819035D01*
X-2100000Y51838719D01*
X-2032961Y51819035D01*
X-2031128Y51817857D01*
X-1910053Y51740047D01*
X-1910051Y51740046D01*
X-1910049Y51740045D01*
X-1910050Y51740045D01*
X-1771963Y51699500D01*
X-1771961Y51699500D01*
X-1628036Y51699500D01*
X-1489949Y51740045D01*
X-1367039Y51819035D01*
X-1300000Y51838719D01*
X-1232961Y51819035D01*
X-1231128Y51817857D01*
X-1110053Y51740047D01*
X-1110051Y51740046D01*
X-1110049Y51740045D01*
X-1110050Y51740045D01*
X-971963Y51699500D01*
X-971961Y51699500D01*
X-828036Y51699500D01*
X-689949Y51740045D01*
X-567039Y51819035D01*
X-500000Y51838719D01*
X-432961Y51819035D01*
X-431128Y51817857D01*
X-310053Y51740047D01*
X-310051Y51740046D01*
X-310049Y51740045D01*
X-310050Y51740045D01*
X-171963Y51699500D01*
X-171961Y51699500D01*
X-28036Y51699500D01*
X110050Y51740045D01*
X232961Y51819035D01*
X300000Y51838719D01*
X367039Y51819035D01*
X489950Y51740045D01*
X489949Y51740045D01*
X628036Y51699500D01*
X628039Y51699500D01*
X771963Y51699500D01*
X910050Y51740045D01*
X1032961Y51819035D01*
X1100000Y51838719D01*
X1167039Y51819035D01*
X1289950Y51740045D01*
X1289949Y51740045D01*
X1428036Y51699500D01*
X1428039Y51699500D01*
X1571963Y51699500D01*
X1710050Y51740045D01*
X1832961Y51819035D01*
X1900000Y51838719D01*
X1967039Y51819035D01*
X2089950Y51740045D01*
X2089949Y51740045D01*
X2228036Y51699500D01*
X2228039Y51699500D01*
X2371963Y51699500D01*
X2510050Y51740045D01*
X2632961Y51819035D01*
X2700000Y51838719D01*
X2767039Y51819035D01*
X2889950Y51740045D01*
X2889949Y51740045D01*
X3028036Y51699500D01*
X3028039Y51699500D01*
X3171963Y51699500D01*
X3310050Y51740045D01*
X3431126Y51817856D01*
X3431128Y51817857D01*
X3525377Y51926627D01*
X3565281Y52014003D01*
X3585164Y52057540D01*
X3585164Y52057541D01*
X3585165Y52057543D01*
X3589572Y52088198D01*
X3618595Y52151755D01*
X3624629Y52158236D01*
X4210205Y52743812D01*
X4271528Y52777297D01*
X4297886Y52780131D01*
X7532267Y52780131D01*
X7599306Y52760446D01*
X7645061Y52707642D01*
X7654694Y52675820D01*
X7657820Y52656380D01*
X7717945Y52534610D01*
X7717946Y52534609D01*
X7811292Y52435973D01*
X7929564Y52369233D01*
X7929568Y52369231D01*
X7959014Y52361060D01*
X8705667Y52227390D01*
X8705694Y52227386D01*
X8736136Y52224833D01*
X8736140Y52224834D01*
X8870219Y52246395D01*
X8870220Y52246395D01*
X8991989Y52306520D01*
X8991994Y52306523D01*
X9090624Y52399863D01*
X9090626Y52399865D01*
X9148631Y52502659D01*
X9157367Y52518140D01*
X9161937Y52534610D01*
X9165539Y52547589D01*
X9185015Y52656379D01*
X9343269Y53540342D01*
X9343887Y53547723D01*
X9369104Y53612882D01*
X9425546Y53654065D01*
X9488986Y53659478D01*
X10182973Y53537110D01*
X11616670Y53244419D01*
X13041955Y52913349D01*
X14457925Y52544110D01*
X15863370Y52137017D01*
X17083601Y51747773D01*
X17141488Y51708646D01*
X17169031Y51644434D01*
X17162215Y51586618D01*
X16816384Y50651715D01*
X16816378Y50651696D01*
X16808502Y50622183D01*
X16806098Y50486396D01*
X16843824Y50355935D01*
X16843824Y50355934D01*
X16918323Y50242397D01*
X16918327Y50242392D01*
X17022985Y50155855D01*
X17050533Y50142623D01*
X17761954Y49879460D01*
X17761973Y49879454D01*
X17791486Y49871578D01*
X17876354Y49870074D01*
X17927273Y49869173D01*
X17927276Y49869173D01*
X18057728Y49906897D01*
X18057734Y49906900D01*
X18171272Y49981399D01*
X18171273Y49981400D01*
X18171276Y49981402D01*
X18204959Y50022138D01*
X18257814Y50086061D01*
X18268885Y50109110D01*
X18271049Y50113615D01*
X18620945Y51059506D01*
X18628826Y51089039D01*
X18631230Y51224821D01*
X18593505Y51355281D01*
X18519002Y51468824D01*
X18414342Y51555362D01*
X18386789Y51568597D01*
X18200141Y51637639D01*
X18144098Y51679357D01*
X18119504Y51744755D01*
X18119164Y51753936D01*
X18119164Y51908643D01*
X18121136Y51930669D01*
X18124063Y51946885D01*
X18119734Y51978617D01*
X18119164Y51987008D01*
X18119164Y51987111D01*
X18119164Y51987115D01*
X18117335Y51998660D01*
X18114906Y52014002D01*
X18111997Y52035312D01*
X18109821Y52051263D01*
X18120260Y52120347D01*
X18166392Y52172821D01*
X18233571Y52192025D01*
X18273524Y52185109D01*
X18912706Y51962138D01*
X20300914Y51435660D01*
X21674564Y50872069D01*
X23032592Y50271800D01*
X24373948Y49635318D01*
X25697780Y48963029D01*
X25940962Y48831203D01*
X25990518Y48781948D01*
X26005867Y48722190D01*
X26005867Y47822162D01*
X25988765Y47759325D01*
X25531327Y46981165D01*
X25482273Y46897718D01*
X25482271Y46897714D01*
X25469314Y46870043D01*
X25451785Y46781218D01*
X25446898Y46756450D01*
X25443021Y46736806D01*
X25457167Y46601744D01*
X25457168Y46601739D01*
X25510497Y46476848D01*
X25598272Y46373219D01*
X25623058Y46355340D01*
X26276978Y45970934D01*
X26304659Y45957973D01*
X26437894Y45931681D01*
X26572956Y45945826D01*
X26572963Y45945828D01*
X26688020Y45994959D01*
X26697854Y45999158D01*
X26801480Y46086932D01*
X26819363Y46111721D01*
X27330458Y46981157D01*
X27335310Y46991519D01*
X27343419Y47008836D01*
X27343419Y47008837D01*
X27343420Y47008839D01*
X27369713Y47142073D01*
X27355566Y47277139D01*
X27302236Y47402033D01*
X27214462Y47505660D01*
X27189672Y47523542D01*
X26868026Y47712620D01*
X26820209Y47763564D01*
X26806867Y47819518D01*
X26806867Y49029353D01*
X26806895Y49030476D01*
X26807796Y49065797D01*
X26829183Y49132311D01*
X26883137Y49176705D01*
X26952526Y49184882D01*
X26991840Y49171105D01*
X27832630Y48705372D01*
X29119331Y47947192D01*
X30385411Y47155014D01*
X31629918Y46329440D01*
X32852008Y45471026D01*
X33821197Y44750976D01*
X33863271Y44695195D01*
X33871247Y44651440D01*
X33871247Y42317299D01*
X33851562Y42250260D01*
X33841399Y42236606D01*
X33354769Y41668845D01*
X33337131Y41643880D01*
X33337129Y41643877D01*
X33287769Y41517370D01*
X33287767Y41517362D01*
X33277888Y41381921D01*
X33308373Y41249582D01*
X33308374Y41249580D01*
X33376509Y41132108D01*
X33397758Y41110138D01*
X33397759Y41110137D01*
X33456001Y41060218D01*
X33973701Y40616495D01*
X33998648Y40598869D01*
X33998657Y40598864D01*
X34125169Y40549503D01*
X34260613Y40539624D01*
X34260614Y40539624D01*
X34304727Y40549785D01*
X34392955Y40570108D01*
X34392957Y40570109D01*
X34510425Y40638242D01*
X34511869Y40639638D01*
X34532399Y40659494D01*
X35188725Y41425243D01*
X35206363Y41450208D01*
X35215418Y41473414D01*
X35255724Y41576717D01*
X35255726Y41576722D01*
X35265605Y41712167D01*
X35235121Y41844506D01*
X35166985Y41961979D01*
X35145735Y41983951D01*
X34715550Y42352662D01*
X34677460Y42411236D01*
X34672247Y42446812D01*
X34672247Y44732010D01*
X34691932Y44799049D01*
X34744736Y44844804D01*
X34813894Y44854748D01*
X34873560Y44828957D01*
X35242114Y44535046D01*
X35995345Y43934365D01*
X36922811Y43153806D01*
X37142567Y42968858D01*
X38263874Y41973433D01*
X39358519Y40948751D01*
X40425685Y39895580D01*
X40616377Y39697182D01*
X40648641Y39635208D01*
X40650977Y39611254D01*
X40650977Y35596772D01*
X40631292Y35529733D01*
X40605432Y35500748D01*
X40170314Y35145242D01*
X40148553Y35123776D01*
X40148552Y35123774D01*
X40148551Y35123773D01*
X40077666Y35007938D01*
X40044074Y34876359D01*
X40050760Y34740715D01*
X40050760Y34740713D01*
X40097127Y34613074D01*
X40097127Y34613073D01*
X40114165Y34587711D01*
X40114179Y34587693D01*
X40594099Y34000300D01*
X40615565Y33978539D01*
X40615568Y33978537D01*
X40731399Y33907653D01*
X40862985Y33874060D01*
X40998627Y33880745D01*
X41126267Y33927114D01*
X41126270Y33927115D01*
X41151636Y33944156D01*
X41174063Y33962479D01*
X41854580Y34518484D01*
X41932633Y34582256D01*
X41932634Y34582257D01*
X41932640Y34582262D01*
X41954401Y34603728D01*
X42025286Y34719563D01*
X42025720Y34721260D01*
X42058879Y34851144D01*
X42058880Y34851147D01*
X42052194Y34986787D01*
X42005826Y35114430D01*
X41988781Y35139802D01*
X41508854Y35727204D01*
X41487700Y35748649D01*
X41454634Y35810197D01*
X41451977Y35835730D01*
X41451977Y39528841D01*
X41471662Y39595880D01*
X41524466Y39641635D01*
X41593624Y39651579D01*
X41657180Y39622554D01*
X41665920Y39614200D01*
X41861192Y39408427D01*
X42221275Y39028978D01*
X43228473Y37910374D01*
X44206052Y36765775D01*
X44570412Y36315827D01*
X44583672Y36295740D01*
X44589217Y36285249D01*
X44589221Y36285243D01*
X44618239Y36256227D01*
X44622581Y36251404D01*
X44626925Y36246041D01*
X44643349Y36231027D01*
X44645357Y36229107D01*
X44660260Y36214203D01*
X44664895Y36209017D01*
X44689284Y36178436D01*
X44738435Y36144925D01*
X44786282Y36109612D01*
X44793831Y36105622D01*
X44801490Y36101934D01*
X44858341Y36084398D01*
X44914465Y36064759D01*
X44922823Y36063177D01*
X44931260Y36061906D01*
X44931262Y36061906D01*
X44990738Y36061906D01*
X45050173Y36059681D01*
X45059408Y36060722D01*
X45059501Y36059892D01*
X45074800Y36061906D01*
X45510582Y36061906D01*
X45577621Y36042221D01*
X45606607Y36016361D01*
X45765791Y35821528D01*
X45786668Y35800361D01*
X45899294Y35731441D01*
X45899292Y35731441D01*
X46027220Y35698782D01*
X46027223Y35698782D01*
X46027224Y35698782D01*
X46115140Y35703115D01*
X46159101Y35705282D01*
X46283199Y35750362D01*
X46283203Y35750364D01*
X46307854Y35766924D01*
X46307878Y35766942D01*
X46757410Y36134225D01*
X46757411Y36134226D01*
X46757417Y36134231D01*
X46778578Y36155103D01*
X46847495Y36267725D01*
X46880157Y36395658D01*
X46873657Y36527533D01*
X46828576Y36651634D01*
X46812001Y36676307D01*
X46381437Y37203290D01*
X46360565Y37224451D01*
X46247943Y37293369D01*
X46247939Y37293370D01*
X46247941Y37293370D01*
X46216301Y37301447D01*
X46120010Y37326030D01*
X45988135Y37319530D01*
X45988132Y37319529D01*
X45864034Y37274449D01*
X45864030Y37274447D01*
X45839379Y37257887D01*
X45839367Y37257878D01*
X45839361Y37257874D01*
X45567592Y37035829D01*
X45512578Y36990881D01*
X45448209Y36963709D01*
X45434123Y36962906D01*
X45353515Y36962906D01*
X45286476Y36982591D01*
X45240721Y37035395D01*
X45230777Y37104553D01*
X45259802Y37168109D01*
X45275056Y37182928D01*
X45650183Y37489419D01*
X45671344Y37510291D01*
X45740261Y37622913D01*
X45772923Y37750846D01*
X45766423Y37882721D01*
X45721342Y38006822D01*
X45704767Y38031495D01*
X45274203Y38558478D01*
X45253331Y38579639D01*
X45140709Y38648557D01*
X45043988Y38673249D01*
X44983904Y38708904D01*
X44979922Y38713394D01*
X44903063Y38804456D01*
X44898488Y38810612D01*
X44893460Y38818329D01*
X44893458Y38818335D01*
X44852219Y38864696D01*
X44834212Y38886032D01*
X44832678Y38887377D01*
X44827257Y38892759D01*
X43880547Y39957083D01*
X43875820Y39963111D01*
X43870590Y39970702D01*
X43870590Y39970703D01*
X43828151Y40015990D01*
X43809607Y40036838D01*
X43808054Y40038130D01*
X43802475Y40043387D01*
X43551583Y40311117D01*
X43520107Y40373491D01*
X43519677Y40415831D01*
X43525092Y40449091D01*
X43506953Y40579870D01*
X43506952Y40579870D01*
X43506952Y40579875D01*
X43451070Y40699502D01*
X43432377Y40722611D01*
X43095230Y41067798D01*
X43009296Y41155781D01*
X43009295Y41155781D01*
X43009290Y41155787D01*
X42986627Y41175019D01*
X42868350Y41233704D01*
X42738030Y41254920D01*
X42672638Y41245850D01*
X42607249Y41236781D01*
X42607247Y41236780D01*
X42607246Y41236780D01*
X42487620Y41180898D01*
X42464510Y41162206D01*
X42447700Y41145787D01*
X42049224Y40756592D01*
X42032717Y40737140D01*
X41974331Y40698762D01*
X41904465Y40698042D01*
X41850491Y40729691D01*
X41838710Y40741472D01*
X41830607Y40749577D01*
X41823949Y40756592D01*
X41811436Y40769779D01*
X41809783Y40771066D01*
X41804060Y40776122D01*
X41704055Y40876127D01*
X41670572Y40937448D01*
X41675556Y41007140D01*
X41713757Y41060216D01*
X41735490Y41077794D01*
X41811676Y41152206D01*
X42150775Y41483407D01*
X42170013Y41506077D01*
X42228697Y41624352D01*
X42228698Y41624354D01*
X42249914Y41754674D01*
X42231774Y41885457D01*
X42175892Y42005084D01*
X42157199Y42028193D01*
X41891416Y42300314D01*
X41734118Y42461363D01*
X41734117Y42461363D01*
X41734112Y42461369D01*
X41711449Y42480601D01*
X41593172Y42539286D01*
X41593168Y42539286D01*
X41593167Y42539287D01*
X41582466Y42541028D01*
X41575289Y42542197D01*
X41512284Y42572396D01*
X41507549Y42576886D01*
X41372337Y42712098D01*
X41345461Y42752320D01*
X41324536Y42802841D01*
X41228282Y42928282D01*
X41102841Y43024536D01*
X40956762Y43085044D01*
X40852253Y43098802D01*
X40800001Y43105682D01*
X40799999Y43105682D01*
X40721619Y43095363D01*
X40643238Y43085044D01*
X40497159Y43024536D01*
X40371718Y42928282D01*
X40275464Y42802841D01*
X40275464Y42802840D01*
X40275463Y42802839D01*
X40214956Y42656762D01*
X40214956Y42656760D01*
X40209409Y42614630D01*
X40181142Y42550733D01*
X40122817Y42512263D01*
X40052952Y42511432D01*
X40001117Y42540866D01*
X39697845Y42828661D01*
X39692637Y42834254D01*
X39686710Y42841463D01*
X39686705Y42841472D01*
X39669348Y42857100D01*
X39640621Y42882967D01*
X39620420Y42902136D01*
X39620414Y42902142D01*
X39618700Y42903337D01*
X39612722Y42908084D01*
X39405889Y43094320D01*
X39369241Y43153806D01*
X39364862Y43186469D01*
X39364862Y43425484D01*
X39384547Y43492523D01*
X39394712Y43506180D01*
X39522898Y43655739D01*
X39654104Y43808819D01*
X39654106Y43808822D01*
X39654111Y43808828D01*
X39671255Y43833092D01*
X39676222Y43845823D01*
X39719248Y43956099D01*
X39728853Y44087785D01*
X39699215Y44216451D01*
X39632970Y44330666D01*
X39612307Y44352031D01*
X39095613Y44794891D01*
X39071338Y44812042D01*
X38948334Y44860034D01*
X38816648Y44869639D01*
X38687982Y44840001D01*
X38687980Y44840000D01*
X38641206Y44812871D01*
X38573767Y44773756D01*
X38552402Y44753093D01*
X38389308Y44562808D01*
X38382082Y44554377D01*
X38323508Y44516286D01*
X38287932Y44511073D01*
X38220764Y44511073D01*
X38153725Y44530758D01*
X38107970Y44583562D01*
X38098026Y44652720D01*
X38126614Y44715769D01*
X38325380Y44947673D01*
X38325382Y44947676D01*
X38325387Y44947682D01*
X38342531Y44971946D01*
X38344016Y44975752D01*
X38390524Y45094953D01*
X38400129Y45226639D01*
X38370491Y45355305D01*
X38304246Y45469520D01*
X38283583Y45490885D01*
X37766889Y45933745D01*
X37742614Y45950896D01*
X37619610Y45998888D01*
X37487924Y46008493D01*
X37478652Y46007780D01*
X37478371Y46011427D01*
X37426341Y46014521D01*
X37380597Y46043532D01*
X37161691Y46262438D01*
X37147708Y46279127D01*
X37137831Y46293274D01*
X37109236Y46315560D01*
X37103506Y46320624D01*
X37102008Y46322123D01*
X37079602Y46338658D01*
X35935750Y47230209D01*
X35930005Y47235288D01*
X35923495Y47241802D01*
X35923493Y47241806D01*
X35873590Y47278659D01*
X35851561Y47295830D01*
X35849785Y47296828D01*
X35843352Y47300989D01*
X35761686Y47361300D01*
X35719455Y47416959D01*
X35711368Y47459087D01*
X35711027Y47480755D01*
X35670121Y47606294D01*
X35594030Y47714200D01*
X35571558Y47733653D01*
X35550659Y47748573D01*
X35401155Y47855308D01*
X35078748Y48085482D01*
X35053051Y48100419D01*
X34926283Y48137340D01*
X34794264Y48135256D01*
X34668724Y48094350D01*
X34560819Y48018259D01*
X34541365Y47995787D01*
X34541363Y47995784D01*
X34541354Y47995773D01*
X34204068Y47523334D01*
X34204067Y47523332D01*
X34204063Y47523326D01*
X34204062Y47523324D01*
X34204061Y47523322D01*
X34192842Y47504020D01*
X34142134Y47455952D01*
X34073489Y47442929D01*
X34012754Y47466013D01*
X33846010Y47587159D01*
X33803348Y47642487D01*
X33797369Y47712100D01*
X33825148Y47768634D01*
X33826347Y47770019D01*
X33838635Y47784213D01*
X33838640Y47784220D01*
X33838645Y47784226D01*
X34175931Y48256665D01*
X34175932Y48256667D01*
X34175935Y48256672D01*
X34175938Y48256676D01*
X34190874Y48282373D01*
X34227795Y48409142D01*
X34225711Y48541161D01*
X34184805Y48666700D01*
X34108714Y48774606D01*
X34086242Y48794059D01*
X34083502Y48796015D01*
X33854608Y48959428D01*
X33593432Y49145888D01*
X33574725Y49156762D01*
X33561209Y49164619D01*
X33561608Y49165305D01*
X33530234Y49186544D01*
X33322856Y49393922D01*
X33317528Y49399999D01*
X33295827Y49428282D01*
X33170386Y49524536D01*
X33024307Y49585044D01*
X32906906Y49600500D01*
X32867545Y49605682D01*
X32832215Y49601030D01*
X32824117Y49600500D01*
X32660639Y49600500D01*
X32543238Y49585044D01*
X32397159Y49524536D01*
X32271718Y49428282D01*
X32175464Y49302841D01*
X32175463Y49302839D01*
X32159270Y49263745D01*
X32114956Y49156762D01*
X32113523Y49145878D01*
X32093697Y48995290D01*
X32065430Y48931394D01*
X32007105Y48892923D01*
X31937241Y48892092D01*
X31903228Y48907478D01*
X31228181Y49345858D01*
X31222034Y49350414D01*
X31214886Y49356426D01*
X31214884Y49356430D01*
X31187940Y49372941D01*
X31162025Y49388822D01*
X31154196Y49393906D01*
X31138647Y49404004D01*
X31136731Y49404873D01*
X31129990Y49408452D01*
X31068358Y49446220D01*
X31021485Y49498031D01*
X31010062Y49566960D01*
X31026252Y49614785D01*
X31294577Y50071241D01*
X31316854Y50109137D01*
X31329458Y50136054D01*
X31350444Y50242397D01*
X31355021Y50265591D01*
X31354370Y50271806D01*
X31341267Y50396909D01*
X31289416Y50518338D01*
X31204078Y50619089D01*
X31179973Y50636478D01*
X30593317Y50981342D01*
X30566399Y50993947D01*
X30436862Y51019509D01*
X30305544Y51005755D01*
X30184115Y50953905D01*
X30184113Y50953904D01*
X30083364Y50868568D01*
X30083362Y50868565D01*
X30065973Y50844459D01*
X30065968Y50844452D01*
X29877327Y50523548D01*
X29826384Y50475730D01*
X29770429Y50462387D01*
X29711268Y50462387D01*
X29644229Y50482072D01*
X29598474Y50534876D01*
X29588530Y50604034D01*
X29604370Y50649227D01*
X29808212Y50995987D01*
X29820816Y51022904D01*
X29839122Y51115668D01*
X29846379Y51152441D01*
X29846379Y51152442D01*
X29832625Y51283759D01*
X29780774Y51405188D01*
X29695436Y51505939D01*
X29671331Y51523328D01*
X29084675Y51868192D01*
X29057757Y51880797D01*
X28928220Y51906359D01*
X28828298Y51895893D01*
X28759575Y51908486D01*
X28755310Y51910742D01*
X28172696Y52233801D01*
X28166239Y52237923D01*
X28158800Y52243345D01*
X28158791Y52243355D01*
X28103744Y52272035D01*
X28079347Y52285564D01*
X28077439Y52286274D01*
X28070452Y52289380D01*
X26859324Y52920408D01*
X26808967Y52968842D01*
X26794921Y53006604D01*
X26789340Y53035177D01*
X26726953Y53151544D01*
X26633039Y53244353D01*
X26607490Y53259542D01*
X26060397Y53519029D01*
X26032469Y53529203D01*
X25901179Y53543209D01*
X25771592Y53517895D01*
X25655225Y53455508D01*
X25655222Y53455505D01*
X25562418Y53361597D01*
X25562415Y53361593D01*
X25547229Y53336050D01*
X25547226Y53336044D01*
X25298454Y52811539D01*
X25288366Y52783851D01*
X25246920Y52727601D01*
X25181643Y52702688D01*
X25118478Y52714379D01*
X24931148Y52803731D01*
X24879116Y52850358D01*
X24860551Y52917716D01*
X24877947Y52979016D01*
X24892773Y53003955D01*
X24962775Y53151546D01*
X25141546Y53528461D01*
X25151721Y53556388D01*
X25165726Y53687678D01*
X25140412Y53817265D01*
X25078025Y53933632D01*
X24984111Y54026441D01*
X24958562Y54041630D01*
X24608183Y54207814D01*
X24573649Y54232164D01*
X24411891Y54393922D01*
X24406563Y54399999D01*
X24384862Y54428282D01*
X24259421Y54524536D01*
X24113342Y54585044D01*
X24090114Y54588102D01*
X23995957Y54600498D01*
X23956581Y54605682D01*
X23956580Y54605682D01*
X23921250Y54601030D01*
X23913152Y54600500D01*
X23510639Y54600500D01*
X23393238Y54585044D01*
X23247159Y54524536D01*
X23121718Y54428282D01*
X23025464Y54302841D01*
X23025463Y54302839D01*
X22964956Y54156762D01*
X22964955Y54156760D01*
X22944318Y54000001D01*
X22944318Y53999998D01*
X22958018Y53895937D01*
X22947252Y53826902D01*
X22900872Y53774646D01*
X22833603Y53755761D01*
X22787629Y53765190D01*
X21860781Y54149103D01*
X21806380Y54192943D01*
X21784315Y54259237D01*
X21791938Y54306683D01*
X21991787Y54846943D01*
X21991788Y54846946D01*
X21991792Y54846957D01*
X21999456Y54875675D01*
X22001793Y55007690D01*
X21965114Y55134529D01*
X21892678Y55244921D01*
X21790923Y55329059D01*
X21764130Y55341928D01*
X21125886Y55578022D01*
X21097168Y55585686D01*
X20965153Y55588023D01*
X20838314Y55551345D01*
X20727922Y55478909D01*
X20643784Y55377153D01*
X20630915Y55350361D01*
X20630914Y55350357D01*
X20630905Y55350338D01*
X20529060Y55075014D01*
X20494782Y54982347D01*
X20494536Y54981683D01*
X20465920Y54937024D01*
X20381290Y54852393D01*
X20379618Y54850721D01*
X20318295Y54817236D01*
X20248603Y54822220D01*
X20192670Y54864092D01*
X20168253Y54929556D01*
X20175639Y54981422D01*
X20350481Y55454081D01*
X20350482Y55454084D01*
X20350486Y55454095D01*
X20358150Y55482813D01*
X20360487Y55614828D01*
X20323808Y55741667D01*
X20251372Y55852059D01*
X20149617Y55936197D01*
X20122824Y55949066D01*
X19484580Y56185160D01*
X19455862Y56192824D01*
X19323847Y56195161D01*
X19225365Y56166683D01*
X19155498Y56166970D01*
X19151399Y56168269D01*
X18267620Y56465608D01*
X18260519Y56468498D01*
X18252229Y56472484D01*
X18252223Y56472489D01*
X18192921Y56490741D01*
X18166459Y56499644D01*
X18164453Y56499998D01*
X18157009Y56501792D01*
X17107505Y56824812D01*
X17049226Y56863346D01*
X17028380Y56898475D01*
X17018539Y56923845D01*
X16936621Y57027397D01*
X16827822Y57102203D01*
X16799996Y57112652D01*
X16215736Y57271666D01*
X16186453Y57276760D01*
X16054749Y57267410D01*
X15931652Y57219655D01*
X15828100Y57137738D01*
X15828099Y57137737D01*
X15828098Y57137736D01*
X15753296Y57028941D01*
X15753293Y57028937D01*
X15742843Y57001106D01*
X15705438Y56863670D01*
X15598059Y56469129D01*
X15590394Y56440967D01*
X15586129Y56416452D01*
X15555245Y56353779D01*
X15495380Y56317752D01*
X15431872Y56317930D01*
X15232107Y56371457D01*
X15172449Y56407822D01*
X15141920Y56470669D01*
X15148119Y56534825D01*
X15157153Y56558882D01*
X15157155Y56558888D01*
X15309604Y57119025D01*
X15309604Y57119027D01*
X15309607Y57119037D01*
X15314697Y57148302D01*
X15314697Y57148304D01*
X15314698Y57148308D01*
X15305347Y57280012D01*
X15257593Y57403109D01*
X15175675Y57506661D01*
X15066876Y57581467D01*
X15039050Y57591916D01*
X14806273Y57655268D01*
X14751159Y57687233D01*
X14744470Y57693922D01*
X14739142Y57699999D01*
X14717441Y57728282D01*
X14592000Y57824536D01*
X14445921Y57885044D01*
X14423437Y57888004D01*
X14289160Y57905682D01*
X14289159Y57905682D01*
X14253829Y57901030D01*
X14245731Y57900500D01*
X13610639Y57900500D01*
X13493238Y57885044D01*
X13347159Y57824536D01*
X13221718Y57728282D01*
X13125464Y57602841D01*
X13125463Y57602839D01*
X13064956Y57456762D01*
X13064955Y57456760D01*
X13044318Y57300001D01*
X13044318Y57299998D01*
X13064955Y57143239D01*
X13064957Y57143234D01*
X13075932Y57116739D01*
X13083401Y57047270D01*
X13052126Y56984791D01*
X12992037Y56949139D01*
X12935589Y56947997D01*
X12918982Y56951527D01*
X12888305Y56958048D01*
X12861233Y56964548D01*
X12861228Y56964548D01*
X12861222Y56964550D01*
X12859141Y56964729D01*
X12851590Y56965850D01*
X12310118Y57080944D01*
X12248638Y57114137D01*
X12248429Y57114345D01*
X11958369Y57404404D01*
X11924886Y57465725D01*
X11923992Y57513933D01*
X11926182Y57526163D01*
X11986603Y57863692D01*
X11988641Y57888004D01*
X11989086Y57893307D01*
X11989086Y57893308D01*
X11987930Y57900498D01*
X11968119Y58023671D01*
X11909661Y58142060D01*
X11818903Y58237958D01*
X11703911Y58302845D01*
X11675270Y58310791D01*
X11005406Y58430703D01*
X10999482Y58431199D01*
X10975791Y58433186D01*
X10975788Y58433186D01*
X10975787Y58433185D01*
X10975787Y58433186D01*
X10845427Y58412220D01*
X10729060Y58354760D01*
X10727037Y58353761D01*
X10631140Y58263003D01*
X10631137Y58263000D01*
X10566252Y58148011D01*
X10558307Y58119373D01*
X10494909Y57765221D01*
X10463719Y57702699D01*
X10460530Y57699390D01*
X10397423Y57636283D01*
X10336100Y57602798D01*
X10266408Y57607782D01*
X10210475Y57649654D01*
X10186058Y57715118D01*
X10187681Y57745808D01*
X10263985Y58172058D01*
X10266468Y58201677D01*
X10245501Y58332037D01*
X10187043Y58450426D01*
X10096285Y58546324D01*
X9981293Y58611211D01*
X9952652Y58619157D01*
X9282788Y58739069D01*
X9276864Y58739565D01*
X9253173Y58741552D01*
X9253170Y58741552D01*
X9253169Y58741551D01*
X9253169Y58741552D01*
X9122809Y58720586D01*
X9039443Y58679421D01*
X9033379Y58676427D01*
X8964553Y58664395D01*
X8960868Y58664868D01*
X7760878Y58837400D01*
X7753369Y58838958D01*
X7744481Y58841383D01*
X7744476Y58841386D01*
X7682841Y58848620D01*
X7655216Y58852592D01*
X7653183Y58852578D01*
X7645534Y58852999D01*
X7376594Y58884564D01*
X6832878Y58948379D01*
X6768593Y58975744D01*
X6741442Y59007016D01*
X6728637Y59028032D01*
X6728634Y59028037D01*
X6629749Y59115531D01*
X6509468Y59169991D01*
X6480236Y59175372D01*
X6480227Y59175372D01*
X6480226Y59175373D01*
X6422812Y59180470D01*
X5877097Y59228925D01*
X5877085Y59228924D01*
X5877085Y59228925D01*
X5847374Y59228779D01*
X5804709Y59217973D01*
X5719380Y59196363D01*
X5606626Y59127661D01*
X5561528Y59076690D01*
X5519132Y59028774D01*
X5519130Y59028770D01*
X5464672Y58908496D01*
X5464672Y58908494D01*
X5459290Y58879261D01*
X5407948Y58301019D01*
X5407948Y58301009D01*
X5408039Y58282704D01*
X5388687Y58215567D01*
X5336110Y58169552D01*
X5274315Y58158472D01*
X5069237Y58174612D01*
X5003950Y58199496D01*
X4962479Y58255727D01*
X4957017Y58320683D01*
X4960709Y58340737D01*
X5012051Y58918974D01*
X5011904Y58948697D01*
X4979488Y59076691D01*
X4910786Y59189445D01*
X4811901Y59276939D01*
X4691620Y59331399D01*
X4662388Y59336780D01*
X4430151Y59357400D01*
X4393666Y59366352D01*
X4348542Y59385044D01*
X4309477Y59390187D01*
X4191781Y59405682D01*
X4191780Y59405682D01*
X4156450Y59401030D01*
X4148352Y59400500D01*
X3310639Y59400500D01*
X3193238Y59385044D01*
X3047159Y59324536D01*
X2921718Y59228282D01*
X2825464Y59102841D01*
X2825463Y59102839D01*
X2764956Y58956762D01*
X2764955Y58956760D01*
X2744318Y58800001D01*
X2744318Y58799998D01*
X2764955Y58643239D01*
X2764957Y58643234D01*
X2823121Y58502813D01*
X2830590Y58433344D01*
X2799315Y58370865D01*
X2739225Y58335213D01*
X2702075Y58331531D01*
X2371459Y58348858D01*
X2363868Y58349729D01*
X2354680Y58351361D01*
X2354675Y58351363D01*
X2292710Y58352985D01*
X2264864Y58354445D01*
X2262774Y58354241D01*
X2255141Y58353969D01*
X1838576Y58364877D01*
X1772076Y58386310D01*
X1727719Y58440294D01*
X1719589Y58509689D01*
X1750268Y58572463D01*
X1766333Y58587207D01*
X1789114Y58604688D01*
X1792619Y58607377D01*
X1792621Y58607379D01*
X1880861Y58722375D01*
X1887783Y58739085D01*
X1928505Y58837400D01*
X1936330Y58856291D01*
X1955250Y59000000D01*
X1936330Y59143709D01*
X1880861Y59277625D01*
X1792621Y59392621D01*
X1677625Y59480861D01*
X1543709Y59536330D01*
X1414977Y59553278D01*
X1400001Y59555250D01*
X1399999Y59555250D01*
X1383280Y59553048D01*
X1256291Y59536330D01*
X1122375Y59480861D01*
X1122373Y59480859D01*
X1122370Y59480858D01*
X1116199Y59476123D01*
X1051030Y59450930D01*
X1040715Y59450500D01*
X1013666Y59450500D01*
X959205Y59463100D01*
X882842Y59500432D01*
X882840Y59500433D01*
X813742Y59510500D01*
X321258Y59510500D01*
X252160Y59500433D01*
X252158Y59500432D01*
X252157Y59500432D01*
X145569Y59448323D01*
X61676Y59364430D01*
X9567Y59257842D01*
X9567Y59257840D01*
X-500Y59188742D01*
X-500Y58811258D01*
X3212Y58785780D01*
X9567Y58742157D01*
X61676Y58635569D01*
X61678Y58635568D01*
X92558Y58604688D01*
X126043Y58543365D01*
X121059Y58473673D01*
X79187Y58417740D01*
X13723Y58393323D01*
X4877Y58393007D01*
X-371217Y58393007D01*
X-378155Y58393396D01*
X-417035Y58397777D01*
X-420142Y58397188D01*
X-447845Y58395112D01*
X-451010Y58395231D01*
X-451017Y58395228D01*
X-460244Y58394190D01*
X-460337Y58395020D01*
X-475634Y58393007D01*
X-685489Y58393007D01*
X-693129Y58393479D01*
X-702407Y58394629D01*
X-702408Y58394630D01*
X-702408Y58394629D01*
X-702409Y58394630D01*
X-703374Y58394604D01*
X-734782Y58393781D01*
X-743340Y58394149D01*
X-775529Y58397777D01*
X-796768Y58393758D01*
X-816555Y58391640D01*
X-1289465Y58379257D01*
X-1306665Y58380968D01*
X-1306690Y58380639D01*
X-1315952Y58381333D01*
X-1315953Y58381332D01*
X-1315954Y58381333D01*
X-1371252Y58377187D01*
X-1374245Y58377037D01*
X-1385896Y58376732D01*
X-1395543Y58376480D01*
X-1395543Y58376479D01*
X-1409143Y58376124D01*
X-1409150Y58376122D01*
X-1895524Y58363386D01*
X-1899418Y58363407D01*
X-1951010Y58365339D01*
X-1951018Y58365336D01*
X-1951401Y58365294D01*
X-1979758Y58361180D01*
X-2213821Y58355051D01*
X-2221475Y58355324D01*
X-2230770Y58356231D01*
X-2230770Y58356230D01*
X-2230771Y58356231D01*
X-2292673Y58352986D01*
X-2320546Y58352257D01*
X-2322606Y58351890D01*
X-2330186Y58351020D01*
X-2702073Y58331530D01*
X-2770048Y58347679D01*
X-2818504Y58398016D01*
X-2832053Y58466559D01*
X-2823121Y58502812D01*
X-2764957Y58643234D01*
X-2764955Y58643239D01*
X-2744318Y58799998D01*
X-2744318Y58800001D01*
X-2764955Y58956760D01*
X-2764956Y58956762D01*
X-2825463Y59102839D01*
X-2825464Y59102841D01*
X-2921718Y59228282D01*
X-3047159Y59324536D01*
X-3193238Y59385044D01*
X-3310639Y59400500D01*
X-3310646Y59400500D01*
X-4148368Y59400500D01*
X-4156466Y59401030D01*
X-4191796Y59405682D01*
X-4191797Y59405682D01*
X-4309492Y59390187D01*
X-4309493Y59390187D01*
X-4348558Y59385044D01*
X-4393641Y59366369D01*
X-4430118Y59357417D01*
X-4662401Y59336789D01*
X-4691632Y59331407D01*
X-4811912Y59276945D01*
X-4910796Y59189450D01*
X-4910798Y59189445D01*
X-4910800Y59189444D01*
X-4925039Y59166073D01*
X-4979496Y59076694D01*
X-4998918Y58999999D01*
X-5010206Y58955422D01*
X-5011909Y58948699D01*
X-5012056Y58918977D01*
X-4960704Y58340741D01*
X-4959101Y58332037D01*
X-4957011Y58320683D01*
X-4964231Y58251188D01*
X-5007877Y58196628D01*
X-5069231Y58174612D01*
X-5133528Y58169552D01*
X-5264851Y58159217D01*
X-5272502Y58159088D01*
X-5281850Y58159507D01*
X-5281852Y58159508D01*
X-5281853Y58159507D01*
X-5289585Y58159855D01*
X-5355675Y58182524D01*
X-5399017Y58237326D01*
X-5408026Y58284338D01*
X-5407944Y58301019D01*
X-5407944Y58301023D01*
X-5459296Y58879259D01*
X-5459297Y58879266D01*
X-5464677Y58908488D01*
X-5464678Y58908491D01*
X-5519137Y59028766D01*
X-5519140Y59028771D01*
X-5606633Y59127652D01*
X-5606638Y59127657D01*
X-5684949Y59175370D01*
X-5719391Y59196355D01*
X-5761339Y59206977D01*
X-5847380Y59228767D01*
X-5847384Y59228767D01*
X-5847386Y59228768D01*
X-5851101Y59228786D01*
X-5877094Y59228915D01*
X-5877097Y59228915D01*
X-5877097Y59228914D01*
X-5877108Y59228915D01*
X-6480247Y59175351D01*
X-6509478Y59169969D01*
X-6629758Y59115507D01*
X-6728642Y59028012D01*
X-6741434Y59007016D01*
X-6793119Y58960011D01*
X-6832866Y58948381D01*
X-7604556Y58857808D01*
X-7612204Y58857388D01*
X-7621417Y58857449D01*
X-7621424Y58857451D01*
X-7676676Y58849506D01*
X-7682847Y58848619D01*
X-7690815Y58847683D01*
X-7710569Y58845366D01*
X-7712524Y58844832D01*
X-7720023Y58843273D01*
X-8960809Y58664876D01*
X-9029965Y58674820D01*
X-9033325Y58676416D01*
X-9122824Y58720607D01*
X-9253185Y58741572D01*
X-9253186Y58741571D01*
X-9253187Y58741572D01*
X-9272434Y58739957D01*
X-9282804Y58739088D01*
X-9952665Y58619164D01*
X-9981306Y58611218D01*
X-10096297Y58546329D01*
X-10187053Y58450429D01*
X-10245510Y58332039D01*
X-10266474Y58201678D01*
X-10266473Y58201675D01*
X-10266474Y58201675D01*
X-10265334Y58188082D01*
X-10263990Y58172060D01*
X-10231972Y57993217D01*
X-10166681Y57628513D01*
X-10174243Y57559054D01*
X-10218158Y57504709D01*
X-10266139Y57484738D01*
X-10316292Y57475443D01*
X-10385794Y57482582D01*
X-10440406Y57526163D01*
X-10460946Y57575515D01*
X-10558309Y58119361D01*
X-10558310Y58119367D01*
X-10566257Y58148008D01*
X-10631144Y58262997D01*
X-10631145Y58262998D01*
X-10653694Y58284338D01*
X-10727046Y58353755D01*
X-10845436Y58412211D01*
X-10975797Y58433176D01*
X-10975798Y58433175D01*
X-10975799Y58433176D01*
X-10995046Y58431561D01*
X-11005416Y58430692D01*
X-11675277Y58310768D01*
X-11703918Y58302822D01*
X-11818909Y58237933D01*
X-11909665Y58142033D01*
X-11968122Y58023643D01*
X-11989086Y57893282D01*
X-11989085Y57893279D01*
X-11989086Y57893279D01*
X-11988395Y57885044D01*
X-11986602Y57863664D01*
X-11900077Y57380358D01*
X-11907639Y57310902D01*
X-11934452Y57270831D01*
X-12048221Y57157062D01*
X-12109542Y57123579D01*
X-12109912Y57123499D01*
X-12811140Y56974448D01*
X-12818706Y56973323D01*
X-12828018Y56972519D01*
X-12828026Y56972520D01*
X-12888323Y56958043D01*
X-12915572Y56952252D01*
X-12917524Y56951518D01*
X-12924830Y56949278D01*
X-12933008Y56947315D01*
X-13002787Y56950808D01*
X-13059604Y56991473D01*
X-13085415Y57056400D01*
X-13076511Y57115340D01*
X-13064957Y57143234D01*
X-13064955Y57143239D01*
X-13044318Y57299998D01*
X-13044318Y57300001D01*
X-13064955Y57456760D01*
X-13064956Y57456762D01*
X-13125463Y57602839D01*
X-13125464Y57602841D01*
X-13221718Y57728282D01*
X-13347159Y57824536D01*
X-13493238Y57885044D01*
X-13610639Y57900500D01*
X-13610646Y57900500D01*
X-14245731Y57900500D01*
X-14253829Y57901030D01*
X-14289159Y57905682D01*
X-14289160Y57905682D01*
X-14423437Y57888004D01*
X-14445921Y57885044D01*
X-14592000Y57824536D01*
X-14717441Y57728282D01*
X-14739142Y57699999D01*
X-14744470Y57693922D01*
X-14751159Y57687233D01*
X-14806273Y57655268D01*
X-15039050Y57591916D01*
X-15066876Y57581467D01*
X-15175675Y57506661D01*
X-15257593Y57403109D01*
X-15305347Y57280012D01*
X-15314698Y57148308D01*
X-15314697Y57148304D01*
X-15314697Y57148302D01*
X-15309607Y57119037D01*
X-15309604Y57119027D01*
X-15309604Y57119025D01*
X-15157155Y56558888D01*
X-15157153Y56558882D01*
X-15148119Y56534825D01*
X-15142978Y56465145D01*
X-15176326Y56403747D01*
X-15232107Y56371457D01*
X-15431872Y56317931D01*
X-15501720Y56319594D01*
X-15559583Y56358756D01*
X-15586129Y56416452D01*
X-15590394Y56440967D01*
X-15598059Y56469129D01*
X-15705438Y56863670D01*
X-15742843Y57001106D01*
X-15753293Y57028937D01*
X-15753296Y57028941D01*
X-15828098Y57137736D01*
X-15828099Y57137737D01*
X-15828100Y57137738D01*
X-15931652Y57219655D01*
X-16054749Y57267410D01*
X-16186453Y57276760D01*
X-16215736Y57271666D01*
X-16799996Y57112652D01*
X-16827822Y57102203D01*
X-16936621Y57027397D01*
X-17018539Y56923845D01*
X-17028379Y56898477D01*
X-17070976Y56843097D01*
X-17107506Y56824812D01*
X-18117573Y56513931D01*
X-18125026Y56512134D01*
X-18134094Y56510531D01*
X-18134100Y56510531D01*
X-18192922Y56490740D01*
X-18219593Y56482532D01*
X-18221419Y56481653D01*
X-18228503Y56478769D01*
X-19151381Y56168275D01*
X-19221197Y56165556D01*
X-19225337Y56166674D01*
X-19323847Y56195161D01*
X-19455862Y56192824D01*
X-19484580Y56185160D01*
X-20122824Y55949066D01*
X-20149617Y55936197D01*
X-20251372Y55852059D01*
X-20323808Y55741667D01*
X-20360487Y55614828D01*
X-20358150Y55482813D01*
X-20350486Y55454095D01*
X-20350482Y55454084D01*
X-20350481Y55454081D01*
X-20176345Y54983330D01*
X-20171548Y54913625D01*
X-20205199Y54852393D01*
X-20266612Y54819073D01*
X-20292643Y54816310D01*
X-20347020Y54816310D01*
X-20414059Y54835995D01*
X-20459814Y54888799D01*
X-20463318Y54897290D01*
X-20630905Y55350338D01*
X-20630914Y55350357D01*
X-20630915Y55350361D01*
X-20643784Y55377153D01*
X-20727922Y55478909D01*
X-20838314Y55551345D01*
X-20965153Y55588023D01*
X-21097168Y55585686D01*
X-21125886Y55578022D01*
X-21764130Y55341928D01*
X-21790923Y55329059D01*
X-21892678Y55244921D01*
X-21965114Y55134529D01*
X-22001793Y55007690D01*
X-21999456Y54875675D01*
X-21991792Y54846957D01*
X-21991788Y54846946D01*
X-21991787Y54846943D01*
X-21931084Y54682842D01*
X-21923382Y54639822D01*
X-21923382Y54572628D01*
X-21925606Y54513194D01*
X-21924566Y54503963D01*
X-21925395Y54503869D01*
X-21923382Y54488568D01*
X-21923382Y54206027D01*
X-21943067Y54138988D01*
X-21995871Y54093233D01*
X-21999918Y54091470D01*
X-22787628Y53765190D01*
X-22857096Y53757722D01*
X-22919575Y53788997D01*
X-22955227Y53849086D01*
X-22958018Y53895937D01*
X-22944318Y53999998D01*
X-22944318Y54000001D01*
X-22964955Y54156760D01*
X-22964956Y54156762D01*
X-23025463Y54302839D01*
X-23025464Y54302841D01*
X-23121718Y54428282D01*
X-23247159Y54524536D01*
X-23393238Y54585044D01*
X-23510639Y54600500D01*
X-23510646Y54600500D01*
X-23913146Y54600500D01*
X-23921245Y54601030D01*
X-23956580Y54605683D01*
X-24111306Y54585312D01*
X-24113342Y54585044D01*
X-24259421Y54524536D01*
X-24384862Y54428282D01*
X-24406563Y54399999D01*
X-24411891Y54393922D01*
X-24573649Y54232164D01*
X-24608183Y54207814D01*
X-24958562Y54041630D01*
X-24984111Y54026441D01*
X-25078025Y53933632D01*
X-25140412Y53817265D01*
X-25165726Y53687678D01*
X-25151721Y53556388D01*
X-25141546Y53528461D01*
X-24962775Y53151546D01*
X-24892773Y53003955D01*
X-24877947Y52979016D01*
X-24860609Y52911331D01*
X-24882617Y52845018D01*
X-24931149Y52803730D01*
X-25118477Y52714379D01*
X-25187458Y52703286D01*
X-25251488Y52731248D01*
X-25288366Y52783851D01*
X-25298454Y52811539D01*
X-25547226Y53336044D01*
X-25547229Y53336050D01*
X-25562415Y53361593D01*
X-25562418Y53361597D01*
X-25655222Y53455505D01*
X-25655225Y53455508D01*
X-25771592Y53517895D01*
X-25901179Y53543209D01*
X-26032469Y53529203D01*
X-26060397Y53519029D01*
X-26607490Y53259542D01*
X-26633039Y53244353D01*
X-26726953Y53151544D01*
X-26789340Y53035177D01*
X-26794920Y53006606D01*
X-26827090Y52944585D01*
X-26859320Y52920410D01*
X-27272317Y52705229D01*
X-28033837Y52308458D01*
X-28040848Y52305339D01*
X-28049487Y52302120D01*
X-28049490Y52302120D01*
X-28103772Y52272020D01*
X-28128513Y52259130D01*
X-28130156Y52257931D01*
X-28136615Y52253808D01*
X-28755232Y51910786D01*
X-28823405Y51895492D01*
X-28828256Y51895903D01*
X-28928241Y51906374D01*
X-29057778Y51880810D01*
X-29084696Y51868205D01*
X-29671346Y51523330D01*
X-29695451Y51505941D01*
X-29780787Y51405188D01*
X-29832636Y51283758D01*
X-29846388Y51152441D01*
X-29846386Y51152435D01*
X-29846387Y51152435D01*
X-29820825Y51022910D01*
X-29820824Y51022906D01*
X-29820823Y51022904D01*
X-29808218Y50995986D01*
X-29783475Y50953897D01*
X-29679681Y50777337D01*
X-29662676Y50709569D01*
X-29685009Y50643364D01*
X-29739589Y50599744D01*
X-29786578Y50590496D01*
X-29845739Y50590496D01*
X-29912778Y50610181D01*
X-29952636Y50651655D01*
X-29952670Y50651712D01*
X-30065978Y50844457D01*
X-30065979Y50844459D01*
X-30065980Y50844461D01*
X-30083366Y50868560D01*
X-30083367Y50868562D01*
X-30127502Y50905943D01*
X-30184118Y50953897D01*
X-30184134Y50953904D01*
X-30305550Y51005746D01*
X-30436867Y51019498D01*
X-30566404Y50993934D01*
X-30593322Y50981329D01*
X-31179972Y50636454D01*
X-31204077Y50619065D01*
X-31289413Y50518312D01*
X-31341262Y50396882D01*
X-31355014Y50265565D01*
X-31355012Y50265559D01*
X-31355013Y50265559D01*
X-31329451Y50136034D01*
X-31329450Y50136030D01*
X-31329449Y50136028D01*
X-31316844Y50109110D01*
X-31197970Y49906899D01*
X-31026248Y49614790D01*
X-31009243Y49547022D01*
X-31031576Y49480817D01*
X-31068349Y49446225D01*
X-31094757Y49430043D01*
X-31101502Y49426463D01*
X-31110007Y49422599D01*
X-31110014Y49422598D01*
X-31162014Y49388828D01*
X-31185775Y49374268D01*
X-31187372Y49372923D01*
X-31193502Y49368378D01*
X-31903225Y48907480D01*
X-31970168Y48887477D01*
X-32037300Y48906843D01*
X-32083306Y48959428D01*
X-32093697Y48995290D01*
X-32113523Y49145878D01*
X-32114956Y49156762D01*
X-32159270Y49263745D01*
X-32175463Y49302839D01*
X-32175464Y49302841D01*
X-32271718Y49428282D01*
X-32397159Y49524536D01*
X-32543238Y49585044D01*
X-32660639Y49600500D01*
X-32660646Y49600500D01*
X-32824139Y49600500D01*
X-32832237Y49601030D01*
X-32867567Y49605682D01*
X-32906928Y49600500D01*
X-33024329Y49585044D01*
X-33170408Y49524536D01*
X-33295849Y49428282D01*
X-33317550Y49399999D01*
X-33322878Y49393922D01*
X-33530239Y49186561D01*
X-33561629Y49165308D01*
X-33561233Y49164626D01*
X-33567753Y49160836D01*
X-33567757Y49160835D01*
X-33593454Y49145899D01*
X-34086257Y48794061D01*
X-34108730Y48774607D01*
X-34184819Y48666701D01*
X-34225722Y48541160D01*
X-34227804Y48409141D01*
X-34190880Y48282373D01*
X-34175944Y48256676D01*
X-34152660Y48224063D01*
X-33838634Y47784222D01*
X-33838627Y47784214D01*
X-33825140Y47768633D01*
X-33796147Y47705063D01*
X-33806126Y47635910D01*
X-33846006Y47587162D01*
X-34012749Y47466017D01*
X-34078553Y47442538D01*
X-34146607Y47458364D01*
X-34192838Y47504024D01*
X-34204055Y47523322D01*
X-34204055Y47523323D01*
X-34541364Y47995775D01*
X-34541368Y47995780D01*
X-34560821Y48018253D01*
X-34645036Y48077636D01*
X-34668725Y48094340D01*
X-34668727Y48094341D01*
X-34668728Y48094342D01*
X-34794268Y48135245D01*
X-34926287Y48137327D01*
X-35053055Y48100403D01*
X-35078752Y48085467D01*
X-35571555Y47733629D01*
X-35594028Y47714175D01*
X-35670117Y47606269D01*
X-35711020Y47480728D01*
X-35711361Y47459095D01*
X-35732098Y47392378D01*
X-35761674Y47361310D01*
X-35810174Y47325491D01*
X-35816611Y47321328D01*
X-35824622Y47316821D01*
X-35824634Y47316817D01*
X-35873573Y47278672D01*
X-35896031Y47262087D01*
X-35897470Y47260646D01*
X-35903189Y47255587D01*
X-37026724Y46379872D01*
X-37033032Y46375556D01*
X-37040945Y46370829D01*
X-37040953Y46370826D01*
X-37088905Y46331407D01*
X-37110904Y46314261D01*
X-37112307Y46312781D01*
X-37117886Y46307582D01*
X-37450694Y46034002D01*
X-37514978Y46006639D01*
X-37520399Y46006124D01*
X-37619610Y45998888D01*
X-37742614Y45950896D01*
X-37766889Y45933745D01*
X-38283583Y45490885D01*
X-38304246Y45469520D01*
X-38370491Y45355305D01*
X-38400129Y45226639D01*
X-38390524Y45094953D01*
X-38344016Y44975752D01*
X-38342531Y44971946D01*
X-38325387Y44947682D01*
X-38325382Y44947676D01*
X-38325380Y44947673D01*
X-38126614Y44715769D01*
X-38097933Y44652058D01*
X-38108249Y44582954D01*
X-38154288Y44530397D01*
X-38220764Y44511073D01*
X-38287932Y44511073D01*
X-38354971Y44530758D01*
X-38382082Y44554377D01*
X-38389308Y44562808D01*
X-38552402Y44753093D01*
X-38573767Y44773756D01*
X-38641206Y44812871D01*
X-38687980Y44840000D01*
X-38687982Y44840001D01*
X-38816648Y44869639D01*
X-38948334Y44860034D01*
X-39071338Y44812042D01*
X-39095613Y44794891D01*
X-39612307Y44352031D01*
X-39632970Y44330666D01*
X-39699215Y44216451D01*
X-39728853Y44087785D01*
X-39719248Y43956099D01*
X-39676222Y43845823D01*
X-39671255Y43833092D01*
X-39654111Y43808828D01*
X-39654106Y43808822D01*
X-39654104Y43808819D01*
X-39522898Y43655739D01*
X-39394712Y43506180D01*
X-39366031Y43442468D01*
X-39364862Y43425484D01*
X-39364862Y43186468D01*
X-39384547Y43119429D01*
X-39405885Y43094322D01*
X-39582009Y42935739D01*
X-39587993Y42930987D01*
X-39595638Y42925648D01*
X-39595649Y42925643D01*
X-39640622Y42882965D01*
X-39661333Y42864317D01*
X-39662660Y42862702D01*
X-39667860Y42857115D01*
X-40006967Y42535315D01*
X-40069145Y42503447D01*
X-40138682Y42510254D01*
X-40193500Y42553576D01*
X-40211425Y42599294D01*
X-40212853Y42598912D01*
X-40214956Y42606762D01*
X-40275463Y42752839D01*
X-40275464Y42752841D01*
X-40371718Y42878282D01*
X-40497159Y42974536D01*
X-40643238Y43035044D01*
X-40746670Y43048661D01*
X-40799999Y43055682D01*
X-40800001Y43055682D01*
X-40852253Y43048802D01*
X-40956762Y43035044D01*
X-41102841Y42974536D01*
X-41228282Y42878282D01*
X-41324536Y42752841D01*
X-41324537Y42752837D01*
X-41331760Y42743425D01*
X-41337098Y42737337D01*
X-41507532Y42566903D01*
X-41568853Y42533420D01*
X-41575285Y42532197D01*
X-41582466Y42531028D01*
X-41593167Y42529287D01*
X-41593168Y42529286D01*
X-41593172Y42529286D01*
X-41711449Y42470601D01*
X-41734112Y42451369D01*
X-41734117Y42451363D01*
X-41734118Y42451363D01*
X-41811853Y42371774D01*
X-42157199Y42018193D01*
X-42175892Y41995084D01*
X-42231774Y41875457D01*
X-42249914Y41744674D01*
X-42228698Y41614354D01*
X-42228697Y41614352D01*
X-42170013Y41496077D01*
X-42150775Y41473407D01*
X-41778844Y41110138D01*
X-41735490Y41067794D01*
X-41719286Y41054688D01*
X-41679542Y40997225D01*
X-41677173Y40927396D01*
X-41709583Y40870598D01*
X-41774832Y40805349D01*
X-41780564Y40800285D01*
X-41787929Y40794546D01*
X-41787935Y40794543D01*
X-41830608Y40749574D01*
X-41843043Y40737140D01*
X-41853608Y40726576D01*
X-41854833Y40727801D01*
X-41907276Y40693818D01*
X-41977145Y40693554D01*
X-42036066Y40731106D01*
X-42037203Y40732428D01*
X-42049212Y40746579D01*
X-42049223Y40746590D01*
X-42464504Y41152200D01*
X-42464510Y41152206D01*
X-42487620Y41170898D01*
X-42487622Y41170899D01*
X-42487621Y41170899D01*
X-42547433Y41198839D01*
X-42607246Y41226780D01*
X-42607247Y41226780D01*
X-42607249Y41226781D01*
X-42738028Y41244920D01*
X-42738028Y41244919D01*
X-42738030Y41244920D01*
X-42868350Y41223704D01*
X-42986627Y41165019D01*
X-43009290Y41145787D01*
X-43009295Y41145781D01*
X-43009296Y41145781D01*
X-43092866Y41060218D01*
X-43432377Y40712611D01*
X-43451070Y40689502D01*
X-43506952Y40569875D01*
X-43506952Y40569870D01*
X-43506953Y40569870D01*
X-43525092Y40439092D01*
X-43521064Y40414353D01*
X-43529718Y40345022D01*
X-43552969Y40309638D01*
X-43774252Y40073506D01*
X-43779832Y40068244D01*
X-43786911Y40062350D01*
X-43786917Y40062347D01*
X-43828147Y40015993D01*
X-43847246Y39995614D01*
X-43848401Y39993936D01*
X-43853112Y39987925D01*
X-44799832Y38923590D01*
X-44805259Y38918202D01*
X-44812186Y38912124D01*
X-44812192Y38912121D01*
X-44852214Y38864702D01*
X-44870768Y38843844D01*
X-44871880Y38842135D01*
X-44876442Y38835996D01*
X-44979902Y38713417D01*
X-45038184Y38674882D01*
X-45043963Y38673255D01*
X-45140709Y38648557D01*
X-45253331Y38579639D01*
X-45274203Y38558478D01*
X-45704767Y38031495D01*
X-45721342Y38006822D01*
X-45766423Y37882721D01*
X-45772923Y37750846D01*
X-45740261Y37622913D01*
X-45671344Y37510291D01*
X-45650183Y37489419D01*
X-45275059Y37182929D01*
X-45235599Y37125271D01*
X-45233576Y37055431D01*
X-45269633Y36995583D01*
X-45332322Y36964731D01*
X-45353515Y36962906D01*
X-45434123Y36962906D01*
X-45501162Y36982591D01*
X-45512578Y36990881D01*
X-45567592Y37035829D01*
X-45839361Y37257874D01*
X-45839367Y37257878D01*
X-45839379Y37257887D01*
X-45864030Y37274447D01*
X-45864034Y37274449D01*
X-45988132Y37319529D01*
X-45988135Y37319530D01*
X-46120010Y37326030D01*
X-46230563Y37297805D01*
X-46247940Y37293370D01*
X-46247940Y37293369D01*
X-46247943Y37293369D01*
X-46360565Y37224451D01*
X-46381437Y37203290D01*
X-46812001Y36676307D01*
X-46828576Y36651634D01*
X-46873657Y36527533D01*
X-46880157Y36395658D01*
X-48071787Y36395658D01*
X-48034000Y36607351D01*
X-48032937Y36612183D01*
X-47985654Y36792510D01*
X-47924451Y37014487D01*
X-47922887Y37019364D01*
X-47860263Y37190055D01*
X-47777267Y37409597D01*
X-47775185Y37414466D01*
X-47700245Y37570868D01*
X-47593721Y37789249D01*
X-47591109Y37794054D01*
X-47511702Y37925916D01*
X-47375436Y38150061D01*
X-47372289Y38154744D01*
X-47338645Y38200194D01*
X-47126837Y38485487D01*
X-47124577Y38488352D01*
X-46136538Y39667390D01*
X-45184644Y40746586D01*
X-45116217Y40824077D01*
X-44309357Y41693461D01*
X-44060818Y41960767D01*
X-43310073Y42729702D01*
X-42976818Y43070156D01*
X-42251081Y43776778D01*
X-41864897Y44151551D01*
X-41150364Y44812871D01*
X-40725774Y45204253D01*
X-40015056Y45829398D01*
X-39560206Y46227562D01*
X-38848993Y46821900D01*
X-38368960Y47220811D01*
X-37654680Y47787634D01*
X-37152766Y48183387D01*
X-36433857Y48724804D01*
X-35912455Y49114636D01*
X-35187824Y49632148D01*
X-34648816Y50013966D01*
X-33917755Y50508616D01*
X-33362688Y50880781D01*
X-32624786Y51353282D01*
X-32054889Y51714531D01*
X-31310004Y52165336D01*
X-30726257Y52514682D01*
X-29974243Y52944180D01*
X-29377718Y53280678D01*
X-28618567Y53689126D01*
X-28010073Y54012067D01*
X-27244018Y54399555D01*
X-26624224Y54708364D01*
X-25851400Y55075014D01*
X-25221137Y55369086D01*
X-24441623Y55715018D01*
X-23801692Y55993823D01*
X-23015793Y56319037D01*
X-22366779Y56582184D01*
X-21574791Y56886675D01*
X-20917348Y57133779D01*
X-20119695Y57417491D01*
X-19454329Y57648255D01*
X-18651289Y57911184D01*
X-17978725Y58125261D01*
X-17170596Y58367388D01*
X-16491487Y58564495D01*
X-15678623Y58785780D01*
X-14993529Y58965685D01*
X-14176358Y59166073D01*
X-13485886Y59328559D01*
X-12664808Y59508002D01*
X-11969454Y59652900D01*
X-11144922Y59811345D01*
X-10445342Y59938474D01*
X-9617710Y60075892D01*
X-8914429Y60185120D01*
X-8084156Y60301466D01*
X-7377791Y60392665D01*
X-6545291Y60487907D01*
X-5836369Y60560985D01*
X-5002125Y60635090D01*
X-4291191Y60689969D01*
X-3455644Y60742916D01*
X-2743281Y60779535D01*
X-1906856Y60811310D01*
X-1193583Y60829630D01*
X-356798Y60840222D01*
X356798Y60840222D01*
X1193583Y60829630D01*
G37*
%TD.AperFunction*%
%TD*%
M02*
