%TF.GenerationSoftware,KiCad,Pcbnew,7.0.6*%
%TF.CreationDate,2023-07-09T17:07:21+09:00*%
%TF.ProjectId,robotrace_v2_Linesensor,726f626f-7472-4616-9365-5f76325f4c69,rev?*%
%TF.SameCoordinates,Original*%
%TF.FileFunction,Copper,L1,Top*%
%TF.FilePolarity,Positive*%
%FSLAX46Y46*%
G04 Gerber Fmt 4.6, Leading zero omitted, Abs format (unit mm)*
G04 Created by KiCad (PCBNEW 7.0.6) date 2023-07-09 17:07:21*
%MOMM*%
%LPD*%
G01*
G04 APERTURE LIST*
%TA.AperFunction,SMDPad,CuDef*%
%ADD10R,0.300000X1.000000*%
%TD*%
%TA.AperFunction,SMDPad,CuDef*%
%ADD11R,2.000000X1.300000*%
%TD*%
%TA.AperFunction,ViaPad*%
%ADD12C,0.700000*%
%TD*%
%TA.AperFunction,ViaPad*%
%ADD13C,0.600000*%
%TD*%
%TA.AperFunction,Conductor*%
%ADD14C,0.300000*%
%TD*%
%TA.AperFunction,Conductor*%
%ADD15C,0.500000*%
%TD*%
G04 APERTURE END LIST*
D10*
%TO.P,J1,1,Pin_1*%
%TO.N,GND1*%
X-3250000Y56450000D03*
%TO.P,J1,2,Pin_2*%
%TO.N,Net-(J1-Pin_2)*%
X-2750000Y56450000D03*
%TO.P,J1,3,Pin_3*%
%TO.N,Net-(J1-Pin_3)*%
X-2250000Y56450000D03*
%TO.P,J1,4,Pin_4*%
%TO.N,Net-(J1-Pin_4)*%
X-1750000Y56450000D03*
%TO.P,J1,5,Pin_5*%
%TO.N,Net-(J1-Pin_5)*%
X-1250000Y56450000D03*
%TO.P,J1,6,Pin_6*%
%TO.N,Net-(J1-Pin_6)*%
X-750000Y56450000D03*
%TO.P,J1,7,Pin_7*%
%TO.N,Net-(J1-Pin_7)*%
X-250000Y56450000D03*
%TO.P,J1,8,Pin_8*%
%TO.N,Net-(J1-Pin_8)*%
X250000Y56450000D03*
%TO.P,J1,9,Pin_9*%
%TO.N,Net-(J1-Pin_9)*%
X750000Y56450000D03*
%TO.P,J1,10,Pin_10*%
%TO.N,Net-(J1-Pin_10)*%
X1250000Y56450000D03*
%TO.P,J1,11,Pin_11*%
%TO.N,Net-(J1-Pin_11)*%
X1750000Y56450000D03*
%TO.P,J1,12,Pin_12*%
%TO.N,Net-(D1-K)*%
X2250000Y56450000D03*
%TO.P,J1,13,Pin_13*%
%TO.N,unconnected-(J1-Pin_13-Pad13)*%
X2750000Y56450000D03*
%TO.P,J1,14,Pin_14*%
%TO.N,+3V3*%
X3250000Y56450000D03*
D11*
%TO.P,J1,MP*%
%TO.N,N/C*%
X-5550000Y53750000D03*
X5550000Y53750000D03*
%TD*%
D12*
%TO.N,+3V3*%
X-40800000Y42450000D03*
X-32700000Y49000000D03*
X-23550000Y54000000D03*
X-13650000Y57300000D03*
X-3350000Y58800000D03*
X40800000Y42500000D03*
X32700000Y49000000D03*
X23550000Y54000000D03*
X13650000Y57300000D03*
X3350000Y58800000D03*
X1400000Y59000000D03*
%TO.N,GND1*%
X1500000Y48900000D03*
X-1500000Y48900000D03*
X-500000Y49900000D03*
X1500000Y49900000D03*
X-1500000Y49900000D03*
X500000Y48900000D03*
X-500000Y48900000D03*
X500000Y49900000D03*
%TO.N,Net-(D1-K)*%
X400000Y57400000D03*
X-500000Y57400000D03*
X-1400000Y57400000D03*
D13*
%TO.N,Net-(J1-Pin_2)*%
X-4100000Y52200000D03*
%TO.N,Net-(J1-Pin_3)*%
X-3300000Y52200000D03*
%TO.N,Net-(J1-Pin_4)*%
X-2500000Y52200000D03*
%TO.N,Net-(J1-Pin_5)*%
X-1700000Y52200000D03*
%TO.N,Net-(J1-Pin_6)*%
X-900000Y52200000D03*
%TO.N,Net-(J1-Pin_7)*%
X-100000Y52200000D03*
%TO.N,Net-(J1-Pin_8)*%
X700000Y52200000D03*
%TO.N,Net-(J1-Pin_9)*%
X1500000Y52200000D03*
%TO.N,Net-(J1-Pin_10)*%
X2300000Y52200000D03*
%TO.N,Net-(J1-Pin_11)*%
X3100000Y52200000D03*
%TD*%
D14*
%TO.N,+3V3*%
X3250000Y58269891D02*
X3800000Y58819891D01*
X3250000Y58235925D02*
X3250000Y58269891D01*
D15*
X3800000Y58819891D02*
X4586813Y58768748D01*
X3396142Y58846142D02*
X3800000Y58819891D01*
D14*
X3250000Y58235925D02*
X2600000Y58885925D01*
D15*
X1530321Y58927605D02*
X2600000Y58885925D01*
D14*
X3250000Y58200000D02*
X3250000Y58700000D01*
X3250000Y58200000D02*
X3250000Y58235925D01*
X3250000Y56450000D02*
X3250000Y58200000D01*
D15*
X2600000Y58885925D02*
X3059613Y58868016D01*
D14*
X3250000Y58700000D02*
X3350000Y58800000D01*
D15*
X3297443Y58852557D02*
X3350000Y58800000D01*
X0Y58947473D02*
X1530321Y58927605D01*
X-1530321Y58927605D02*
X0Y58947473D01*
X-3059613Y58868016D02*
X-1530321Y58927605D01*
X-3297443Y58852557D02*
X-3059613Y58868016D01*
X-3350000Y58800000D02*
X-3297443Y58852557D01*
X3059613Y58868016D02*
X3297443Y58852557D01*
X-23487607Y54062393D02*
X-23550000Y54000000D01*
X-22381375Y54533280D02*
X-23487607Y54062393D01*
X-20958095Y55095941D02*
X-22381375Y54533280D01*
X-18070167Y56109479D02*
X-19520686Y55621465D01*
X-16607418Y56559686D02*
X-18070167Y56109479D01*
X-15133470Y56971770D02*
X-16607418Y56559686D01*
X-19520686Y55621465D02*
X-20958095Y55095941D01*
X-13650000Y57300000D02*
X-13686172Y57336172D01*
X-13686172Y57336172D02*
X-15133470Y56971770D01*
X-32580128Y49119872D02*
X-32700000Y49000000D01*
X-31869393Y49589781D02*
X-32580128Y49119872D01*
X-30571292Y50400404D02*
X-31869393Y49589781D01*
X-26556859Y52626398D02*
X-27914088Y51919247D01*
X-25181666Y53298107D02*
X-26556859Y52626398D01*
X-23789528Y53933875D02*
X-25181666Y53298107D01*
X-29252555Y51177070D02*
X-30571292Y50400404D01*
X-23575135Y54025135D02*
X-23789528Y53933875D01*
X-23550000Y54000000D02*
X-23575135Y54025135D01*
X-27914088Y51919247D02*
X-29252555Y51177070D01*
X-40800000Y42539226D02*
X-40800000Y42450000D01*
X-40307669Y43012747D02*
X-40800000Y42539226D01*
X-39177461Y44044649D02*
X-40307669Y43012747D01*
X-36838578Y46018733D02*
X-38020799Y45046903D01*
X-32761434Y49000000D02*
X-33146073Y48745692D01*
X-33146073Y48745692D02*
X-34400323Y47868804D01*
X-34400323Y47868804D02*
X-35631468Y46959589D01*
X-32700000Y49000000D02*
X-32761434Y49000000D01*
X-35631468Y46959589D02*
X-36838578Y46018733D01*
X-38020799Y45046903D02*
X-39177461Y44044649D01*
X23487607Y54062393D02*
X23550000Y54000000D01*
X19520686Y55621465D02*
X20958095Y55095941D01*
X18070167Y56109479D02*
X19520686Y55621465D01*
X16607418Y56559686D02*
X18070167Y56109479D01*
X15133470Y56971770D02*
X16607418Y56559686D01*
X20958095Y55095941D02*
X22381375Y54533280D01*
X13686172Y57336172D02*
X15133470Y56971770D01*
X13650000Y57300000D02*
X13686172Y57336172D01*
X22381375Y54533280D02*
X23487607Y54062393D01*
X32580128Y49119872D02*
X32700000Y49000000D01*
X31869393Y49589781D02*
X32580128Y49119872D01*
X30571292Y50400404D02*
X31869393Y49589781D01*
X27914088Y51919247D02*
X29252555Y51177070D01*
X29252555Y51177070D02*
X30571292Y50400404D01*
X25181666Y53298107D02*
X26556859Y52626398D01*
X23789528Y53933875D02*
X25181666Y53298107D01*
X23616125Y53933875D02*
X23789528Y53933875D01*
X26556859Y52626398D02*
X27914088Y51919247D01*
X23550000Y54000000D02*
X23616125Y53933875D01*
X40722110Y42500000D02*
X40800000Y42500000D01*
X39177461Y44044649D02*
X40722110Y42500000D01*
X36838578Y46018733D02*
X38020799Y45046903D01*
X34400323Y47868804D02*
X35631468Y46959589D01*
X38020799Y45046903D02*
X39177461Y44044649D01*
X32761434Y49000000D02*
X33146073Y48745692D01*
X33146073Y48745692D02*
X34400323Y47868804D01*
X32700000Y49000000D02*
X32761434Y49000000D01*
X35631468Y46959589D02*
X36838578Y46018733D01*
X13591602Y57358398D02*
X13650000Y57300000D01*
X4586813Y58768748D02*
X6110936Y58629865D01*
X6110936Y58629865D02*
X7630999Y58451453D01*
X10654507Y57976599D02*
X12156077Y57680451D01*
X12156077Y57680451D02*
X13591602Y57358398D01*
X3350000Y58800000D02*
X3396142Y58846142D01*
X7630999Y58451453D02*
X9145816Y58233656D01*
X9145816Y58233656D02*
X10654507Y57976599D01*
X-13591602Y57358398D02*
X-13650000Y57300000D01*
X-10654507Y57976599D02*
X-12156077Y57680451D01*
X-7630999Y58451453D02*
X-9145816Y58233656D01*
X-6110936Y58629865D02*
X-7630999Y58451453D01*
X-4586813Y58768748D02*
X-6110936Y58629865D01*
X-3396142Y58846142D02*
X-4586813Y58768748D01*
X-9145816Y58233656D02*
X-10654507Y57976599D01*
X-3350000Y58800000D02*
X-3396142Y58846142D01*
X-12156077Y57680451D02*
X-13591602Y57358398D01*
D14*
%TO.N,GND1*%
X-3250000Y56450000D02*
X-5750000Y56450000D01*
X-7400000Y52800000D02*
X-4500000Y49900000D01*
D15*
X-1500000Y49900000D02*
X1500000Y49900000D01*
X1500000Y48900000D02*
X1500000Y49900000D01*
D14*
X-4500000Y49900000D02*
X-1500000Y49900000D01*
X-7400000Y54800000D02*
X-7400000Y52800000D01*
D15*
X-1500000Y48900000D02*
X1500000Y48900000D01*
D14*
X-5750000Y56450000D02*
X-7400000Y54800000D01*
%TO.N,Net-(D1-K)*%
X1875000Y57400000D02*
X400000Y57400000D01*
D15*
X-1400000Y57400000D02*
X400000Y57400000D01*
D14*
X2250000Y57025000D02*
X1875000Y57400000D01*
X2250000Y56450000D02*
X2250000Y57025000D01*
%TO.N,Net-(J1-Pin_2)*%
X-4100000Y52200000D02*
X-2750000Y53550000D01*
X-2750000Y53550000D02*
X-2750000Y56450000D01*
%TO.N,Net-(J1-Pin_3)*%
X-2250000Y53250000D02*
X-2250000Y56450000D01*
X-3300000Y52200000D02*
X-2250000Y53250000D01*
%TO.N,Net-(J1-Pin_4)*%
X-2500000Y52200000D02*
X-1750000Y52950000D01*
X-1750000Y52950000D02*
X-1750000Y56450000D01*
%TO.N,Net-(J1-Pin_5)*%
X-1700000Y52200000D02*
X-1250000Y52650000D01*
X-1250000Y52650000D02*
X-1250000Y56450000D01*
%TO.N,Net-(J1-Pin_6)*%
X-900000Y52200000D02*
X-750000Y52350000D01*
X-750000Y52350000D02*
X-750000Y56450000D01*
%TO.N,Net-(J1-Pin_7)*%
X-100000Y52200000D02*
X-250000Y52350000D01*
X-250000Y52350000D02*
X-250000Y56450000D01*
%TO.N,Net-(J1-Pin_8)*%
X700000Y52200000D02*
X250000Y52650000D01*
X250000Y52650000D02*
X250000Y56450000D01*
%TO.N,Net-(J1-Pin_9)*%
X1500000Y52200000D02*
X750000Y52950000D01*
X750000Y52950000D02*
X750000Y56450000D01*
%TO.N,Net-(J1-Pin_10)*%
X1250000Y53250000D02*
X1250000Y56450000D01*
X2300000Y52200000D02*
X1250000Y53250000D01*
%TO.N,Net-(J1-Pin_11)*%
X3100000Y52200000D02*
X1750000Y53550000D01*
X1750000Y53550000D02*
X1750000Y56450000D01*
%TD*%
%TA.AperFunction,Conductor*%
%TO.N,GND1*%
G36*
X1193583Y60829630D02*
G01*
X1906856Y60811310D01*
X2743281Y60779535D01*
X3455644Y60742916D01*
X4291191Y60689969D01*
X5002125Y60635090D01*
X5836369Y60560985D01*
X6545291Y60487907D01*
X7377791Y60392665D01*
X8084156Y60301466D01*
X8914429Y60185120D01*
X9617710Y60075892D01*
X10445342Y59938474D01*
X11144922Y59811345D01*
X11969454Y59652900D01*
X12664808Y59508002D01*
X13485886Y59328559D01*
X14176358Y59166073D01*
X14993529Y58965685D01*
X15678623Y58785780D01*
X16491487Y58564495D01*
X17170596Y58367388D01*
X17978725Y58125261D01*
X18651289Y57911184D01*
X19454329Y57648255D01*
X20119695Y57417491D01*
X20917348Y57133779D01*
X21574791Y56886675D01*
X22366779Y56582184D01*
X23015793Y56319037D01*
X23801692Y55993823D01*
X24441623Y55715018D01*
X25221137Y55369086D01*
X25851400Y55075014D01*
X26624224Y54708364D01*
X27244018Y54399555D01*
X28010073Y54012067D01*
X28618567Y53689126D01*
X29377718Y53280678D01*
X29974243Y52944180D01*
X30726257Y52514682D01*
X31310004Y52165336D01*
X32054889Y51714531D01*
X32624786Y51353282D01*
X33362688Y50880781D01*
X33917755Y50508616D01*
X34648816Y50013966D01*
X35187824Y49632148D01*
X35912455Y49114636D01*
X36433857Y48724804D01*
X37152766Y48183387D01*
X37654680Y47787634D01*
X38368960Y47220811D01*
X38848993Y46821900D01*
X39560206Y46227562D01*
X40015056Y45829398D01*
X40725774Y45204253D01*
X41150364Y44812871D01*
X41864897Y44151551D01*
X42251081Y43776778D01*
X42976818Y43070156D01*
X43310073Y42729702D01*
X44060818Y41960767D01*
X44309357Y41693461D01*
X45116217Y40824077D01*
X45185024Y40746154D01*
X46136538Y39667390D01*
X47124592Y38488335D01*
X47126853Y38485469D01*
X47338585Y38200271D01*
X47372282Y38154747D01*
X47375429Y38150065D01*
X47511654Y37925986D01*
X47591102Y37794053D01*
X47593714Y37789248D01*
X47700177Y37570991D01*
X47775173Y37414469D01*
X47777255Y37409601D01*
X47860218Y37190145D01*
X47922879Y37019345D01*
X47924443Y37014468D01*
X47985626Y36792557D01*
X48032920Y36612182D01*
X48033983Y36607350D01*
X48073950Y36383435D01*
X48104353Y36196495D01*
X48104938Y36191757D01*
X48123912Y35967021D01*
X48136544Y35775987D01*
X48136677Y35771388D01*
X48134845Y35547194D01*
X48129219Y35354350D01*
X48128932Y35349939D01*
X48120934Y35270684D01*
X48106515Y35127793D01*
X48082449Y34935294D01*
X48081777Y34931094D01*
X48039098Y34712666D01*
X47996647Y34522443D01*
X47995627Y34518492D01*
X47933130Y34305466D01*
X47872581Y34119503D01*
X47871255Y34115829D01*
X47789501Y33909806D01*
X47711348Y33729975D01*
X47709758Y33726599D01*
X47609472Y33529253D01*
X47514354Y33357261D01*
X47512543Y33354198D01*
X47394583Y33167116D01*
X47283368Y33004680D01*
X47281380Y33001940D01*
X47146712Y32826607D01*
X47119800Y32794366D01*
X47020414Y32675303D01*
X47018292Y32672891D01*
X46868037Y32510748D01*
X46727758Y32371967D01*
X46725566Y32369903D01*
X46562042Y32223259D01*
X46559890Y32221417D01*
X46408082Y32097437D01*
X46405833Y32095685D01*
X46229446Y31964732D01*
X46227000Y31963008D01*
X46194218Y31941076D01*
X46063012Y31853297D01*
X45874143Y31738476D01*
X45871369Y31736886D01*
X45697842Y31643338D01*
X45499123Y31546405D01*
X45496106Y31545033D01*
X45319185Y31470392D01*
X45314686Y31468494D01*
X45107759Y31390266D01*
X45104485Y31389135D01*
X44916920Y31330283D01*
X44703513Y31271443D01*
X44699934Y31270571D01*
X44597526Y31248868D01*
X44508055Y31229907D01*
X44289854Y31190959D01*
X44286006Y31190396D01*
X44104100Y31169635D01*
X44091722Y31168223D01*
X43870416Y31149536D01*
X43866416Y31149331D01*
X43671557Y31145738D01*
X43448973Y31147554D01*
X43444758Y31147734D01*
X43251321Y31162611D01*
X43029158Y31185028D01*
X43024803Y31185624D01*
X42834714Y31218638D01*
X42614635Y31261639D01*
X42610198Y31262678D01*
X42425557Y31313214D01*
X42209063Y31376726D01*
X42204604Y31378223D01*
X42027492Y31445366D01*
X41816012Y31529284D01*
X41811593Y31531246D01*
X41644291Y31613628D01*
X41439022Y31717938D01*
X41434579Y31720431D01*
X41279836Y31815892D01*
X41081253Y31941103D01*
X41076938Y31944089D01*
X40938571Y32048831D01*
X40913888Y32067789D01*
X40745925Y32196793D01*
X40741792Y32200267D01*
X40628501Y32304368D01*
X40436000Y32482754D01*
X40432069Y32486743D01*
X40394169Y32528886D01*
X40156828Y32793542D01*
X40154964Y32795720D01*
X39716226Y33332960D01*
X39192799Y33939913D01*
X39174108Y33962155D01*
X39172712Y33963206D01*
X38808493Y34385545D01*
X37872873Y35413421D01*
X36910037Y36415849D01*
X35920678Y37392109D01*
X34905507Y38341499D01*
X33865253Y39263337D01*
X32800663Y40156960D01*
X31712503Y41021727D01*
X30601555Y41857016D01*
X29468617Y42662227D01*
X28314502Y43436781D01*
X27140041Y44180122D01*
X25946077Y44891715D01*
X24733469Y45571049D01*
X23503087Y46217636D01*
X23435741Y46250755D01*
X22255816Y46831012D01*
X20992553Y47410735D01*
X19714204Y47956388D01*
X18421688Y48467581D01*
X17115935Y48943945D01*
X15797883Y49385139D01*
X15264463Y49547926D01*
X15263347Y49548661D01*
X15235136Y49556877D01*
X14468478Y49790844D01*
X13867756Y49956691D01*
X13867721Y49956713D01*
X13832167Y49966523D01*
X13798574Y49975799D01*
X13798575Y49975800D01*
X13641884Y50019072D01*
X13451565Y50050012D01*
X13448522Y50050587D01*
X13372056Y50067037D01*
X13353116Y50066017D01*
X13320983Y50071241D01*
X13320972Y50071241D01*
X13320968Y50071242D01*
X13100196Y50082934D01*
X13032053Y50089557D01*
X13018237Y50087274D01*
X12999663Y50088258D01*
X12996326Y50088435D01*
X12996325Y50088434D01*
X12996324Y50088435D01*
X12762084Y50075459D01*
X12742815Y50074392D01*
X12691485Y50073461D01*
X12682998Y50071079D01*
X12671725Y50070454D01*
X12671722Y50070453D01*
X12671708Y50070453D01*
X12378994Y50022137D01*
X12354765Y50018892D01*
X12354125Y50018634D01*
X12354215Y50018232D01*
X12351804Y50017698D01*
X12351598Y50017615D01*
X12350935Y50017506D01*
X12037759Y49930214D01*
X11735848Y49809598D01*
X11448734Y49657070D01*
X11179780Y49474416D01*
X10932133Y49263775D01*
X10881988Y49210774D01*
X10708699Y49027618D01*
X10708695Y49027613D01*
X10708693Y49027611D01*
X10657823Y48960621D01*
X10512078Y48768695D01*
X10344579Y48490040D01*
X10344295Y48489425D01*
X10344188Y48489303D01*
X10343009Y48487076D01*
X10342492Y48487349D01*
X10332649Y48464231D01*
X10208176Y48194942D01*
X10208172Y48194933D01*
X10208171Y48194930D01*
X10205781Y48187830D01*
X10204555Y48184189D01*
X10200524Y48178426D01*
X10185422Y48127357D01*
X10104441Y47886806D01*
X10099726Y47865364D01*
X10094359Y47855589D01*
X10082092Y47785187D01*
X10034610Y47569285D01*
X10034608Y47569273D01*
X10031091Y47536902D01*
X10025301Y47522969D01*
X10020571Y47440816D01*
X10020310Y47437683D01*
X9999492Y47246085D01*
X9999491Y47246065D01*
X9999500Y47083514D01*
X9999500Y46846861D01*
X9999415Y46843617D01*
X9994445Y46748780D01*
X9992515Y46711960D01*
X9982195Y46528215D01*
X9981529Y46521988D01*
X9957401Y46369654D01*
X9929775Y46207067D01*
X9928538Y46201404D01*
X9887588Y46048572D01*
X9842912Y45893502D01*
X9841217Y45888445D01*
X9783878Y45739072D01*
X9722646Y45591244D01*
X9720607Y45586821D01*
X9647491Y45443323D01*
X9570358Y45303760D01*
X9568098Y45299994D01*
X9540438Y45257401D01*
X9480026Y45164377D01*
X9387859Y45034479D01*
X9385476Y45031338D01*
X9284377Y44906492D01*
X9282424Y44904196D01*
X9177275Y44786533D01*
X9174885Y44784006D01*
X9061237Y44670356D01*
X9058709Y44667966D01*
X8941036Y44562808D01*
X8938746Y44560859D01*
X8813874Y44459740D01*
X8810767Y44457384D01*
X8680876Y44365221D01*
X8545215Y44277122D01*
X8541488Y44274886D01*
X8401923Y44197751D01*
X8258411Y44124628D01*
X8254011Y44122599D01*
X8106196Y44061372D01*
X7956772Y44004014D01*
X7951723Y44002322D01*
X7863624Y43976940D01*
X7796693Y43957658D01*
X7643811Y43916693D01*
X7638194Y43915466D01*
X7475635Y43887846D01*
X7323212Y43863705D01*
X7317025Y43863043D01*
X7133748Y43852749D01*
X7013130Y43846428D01*
X7001583Y43845823D01*
X6998337Y43845738D01*
X-6998378Y43845738D01*
X-7001619Y43845822D01*
X-7133628Y43852741D01*
X-7317027Y43863041D01*
X-7323212Y43863703D01*
X-7475647Y43887846D01*
X-7638194Y43915464D01*
X-7643816Y43916692D01*
X-7796706Y43957659D01*
X-7951718Y44002318D01*
X-7956757Y44004006D01*
X-8106198Y44061372D01*
X-8254007Y44122597D01*
X-8258418Y44124631D01*
X-8401911Y44197744D01*
X-8490931Y44246943D01*
X-8541480Y44274880D01*
X-8545236Y44277134D01*
X-8680861Y44365210D01*
X-8810765Y44457382D01*
X-8813905Y44459764D01*
X-8830385Y44473109D01*
X-8938760Y44560869D01*
X-8941024Y44562796D01*
X-9058721Y44667976D01*
X-9061248Y44670366D01*
X-9174870Y44783988D01*
X-9177260Y44786515D01*
X-9282440Y44904212D01*
X-9284380Y44906492D01*
X-9385478Y45031338D01*
X-9387854Y45034471D01*
X-9480027Y45164376D01*
X-9568090Y45299980D01*
X-9570357Y45303758D01*
X-9647493Y45443326D01*
X-9720605Y45586818D01*
X-9722644Y45591240D01*
X-9783870Y45739051D01*
X-9841223Y45888460D01*
X-9842918Y45893517D01*
X-9887579Y46048534D01*
X-9928541Y46201409D01*
X-9929778Y46207073D01*
X-9957394Y46369607D01*
X-9981530Y46521996D01*
X-9982196Y46528223D01*
X-9992509Y46711855D01*
X-9999415Y46843615D01*
X-9999457Y46845232D01*
X-8505643Y46845232D01*
X-8503709Y46821900D01*
X-8497968Y46752611D01*
X-8497650Y46748780D01*
X-8497438Y46743657D01*
X-8497438Y46730782D01*
X-8498724Y46726401D01*
X-8498059Y46718377D01*
X-8495855Y46711670D01*
X-8493734Y46698961D01*
X-8493102Y46693901D01*
X-8485108Y46597417D01*
X-8461344Y46503577D01*
X-8460296Y46498579D01*
X-8458175Y46485866D01*
X-8458721Y46481340D01*
X-8456743Y46473525D01*
X-8453466Y46467275D01*
X-8453465Y46467271D01*
X-8449286Y46455098D01*
X-8447830Y46450214D01*
X-8427430Y46369654D01*
X-8424062Y46356354D01*
X-8385184Y46267723D01*
X-8383326Y46262963D01*
X-8379603Y46252117D01*
X-8379133Y46250747D01*
X-8378927Y46246191D01*
X-8375699Y46238830D01*
X-8371435Y46233200D01*
X-8365298Y46221859D01*
X-8363052Y46217267D01*
X-8358578Y46207067D01*
X-8324173Y46128630D01*
X-8271231Y46047596D01*
X-8268618Y46043211D01*
X-8262477Y46031864D01*
X-8261524Y46027405D01*
X-8257122Y46020666D01*
X-8251994Y46015819D01*
X-8244081Y46005653D01*
X-8241102Y46001481D01*
X-8188163Y45920452D01*
X-8122606Y45849237D01*
X-8119291Y45845323D01*
X-8111384Y45835164D01*
X-8109711Y45830923D01*
X-8104253Y45824995D01*
X-8098398Y45821058D01*
X-8088918Y45812330D01*
X-8085294Y45808706D01*
X-8019744Y45737500D01*
X-8019741Y45737498D01*
X-7943378Y45678061D01*
X-7939462Y45674745D01*
X-7929970Y45666005D01*
X-7927624Y45662101D01*
X-7921278Y45657161D01*
X-7914842Y45654236D01*
X-7904063Y45647193D01*
X-7899897Y45644219D01*
X-7875502Y45625232D01*
X-7823505Y45584761D01*
X-7823503Y45584760D01*
X-7774906Y45558461D01*
X-7738388Y45538699D01*
X-7733985Y45536075D01*
X-7723190Y45529022D01*
X-7720227Y45525551D01*
X-7713156Y45521724D01*
X-7706332Y45519899D01*
X-7694528Y45514721D01*
X-7689925Y45512471D01*
X-7604816Y45466413D01*
X-7604810Y45466410D01*
X-7604804Y45466408D01*
X-7604802Y45466407D01*
X-7513258Y45434980D01*
X-7508480Y45433115D01*
X-7496690Y45427943D01*
X-7493199Y45425009D01*
X-7485599Y45422400D01*
X-7478587Y45421726D01*
X-7475140Y45420853D01*
X-7466071Y45418556D01*
X-7461165Y45417095D01*
X-7369614Y45385667D01*
X-7274141Y45369734D01*
X-7269128Y45368683D01*
X-7256648Y45365524D01*
X-7252715Y45363200D01*
X-7244768Y45361874D01*
X-7237719Y45362365D01*
X-7224888Y45361301D01*
X-7219804Y45360668D01*
X-7124336Y45344738D01*
X-7027541Y45344738D01*
X-7022428Y45344526D01*
X-7011122Y45343589D01*
X-7009583Y45343462D01*
X-7005328Y45341820D01*
X-6997281Y45341820D01*
X-6990417Y45343462D01*
X-6988877Y45343589D01*
X-6977571Y45344526D01*
X-6972459Y45344738D01*
X-6875665Y45344738D01*
X-6780194Y45360668D01*
X-6775109Y45361302D01*
X-6762277Y45362365D01*
X-6757806Y45361445D01*
X-6749862Y45362770D01*
X-6743355Y45365523D01*
X-6730872Y45368683D01*
X-6725857Y45369735D01*
X-6630383Y45385667D01*
X-6538835Y45417094D01*
X-6533929Y45418555D01*
X-6521450Y45421716D01*
X-6516890Y45421545D01*
X-6509261Y45424163D01*
X-6503304Y45427945D01*
X-6491515Y45433117D01*
X-6486740Y45434980D01*
X-6395194Y45466408D01*
X-6395183Y45466413D01*
X-6310084Y45512466D01*
X-6305479Y45514717D01*
X-6293662Y45519901D01*
X-6289135Y45520482D01*
X-6282061Y45524310D01*
X-6276804Y45529024D01*
X-6266009Y45536077D01*
X-6261607Y45538699D01*
X-6176493Y45584762D01*
X-6176489Y45584765D01*
X-6100106Y45644215D01*
X-6095936Y45647193D01*
X-6085789Y45653823D01*
X-6085118Y45654261D01*
X-6080759Y45655574D01*
X-6074428Y45660502D01*
X-6070025Y45666009D01*
X-6060532Y45674748D01*
X-6056620Y45678062D01*
X-5980255Y45737500D01*
X-5914696Y45808715D01*
X-5911071Y45812340D01*
X-5901596Y45821062D01*
X-5897509Y45823078D01*
X-5892057Y45829000D01*
X-5888626Y45835149D01*
X-5885211Y45839537D01*
X-5880688Y45845346D01*
X-5877386Y45849243D01*
X-5811836Y45920453D01*
X-5758900Y46001475D01*
X-5755922Y46005646D01*
X-5748004Y46015819D01*
X-5744304Y46018481D01*
X-5739900Y46025222D01*
X-5737520Y46031869D01*
X-5731387Y46043200D01*
X-5728764Y46047602D01*
X-5675828Y46128628D01*
X-5636953Y46217252D01*
X-5634705Y46221850D01*
X-5629202Y46232022D01*
X-5628545Y46233235D01*
X-5625338Y46236464D01*
X-5622116Y46243809D01*
X-5620863Y46250755D01*
X-5616674Y46262955D01*
X-5614811Y46267731D01*
X-5577276Y46353304D01*
X-5575937Y46356357D01*
X-5575432Y46358351D01*
X-5552177Y46450178D01*
X-5550715Y46455089D01*
X-5546533Y46467271D01*
X-5543896Y46470993D01*
X-5541917Y46478808D01*
X-5541825Y46485860D01*
X-5539707Y46498557D01*
X-5538654Y46503577D01*
X-5514891Y46597416D01*
X-5514891Y46597421D01*
X-5506899Y46693868D01*
X-5506265Y46698955D01*
X-5501489Y46727572D01*
X-5502310Y46733313D01*
X-5501911Y46752611D01*
X-5501712Y46756450D01*
X-5494357Y46845232D01*
X5494357Y46845232D01*
X5496291Y46821900D01*
X5502032Y46752611D01*
X5502350Y46748780D01*
X5502562Y46743657D01*
X5502562Y46730780D01*
X5501275Y46726398D01*
X5501940Y46718367D01*
X5504143Y46711666D01*
X5506264Y46698957D01*
X5506899Y46693869D01*
X5514891Y46597421D01*
X5514891Y46597416D01*
X5538654Y46503577D01*
X5539707Y46498557D01*
X5541825Y46485860D01*
X5541277Y46481334D01*
X5543256Y46473521D01*
X5546533Y46467271D01*
X5550715Y46455089D01*
X5552177Y46450178D01*
X5575432Y46358351D01*
X5575937Y46356357D01*
X5577276Y46353304D01*
X5614811Y46267731D01*
X5616674Y46262955D01*
X5620863Y46250755D01*
X5621068Y46246197D01*
X5624292Y46238848D01*
X5628545Y46233235D01*
X5629202Y46232022D01*
X5634705Y46221850D01*
X5636953Y46217252D01*
X5675828Y46128628D01*
X5728764Y46047602D01*
X5731387Y46043200D01*
X5737520Y46031869D01*
X5738473Y46027406D01*
X5742879Y46020662D01*
X5748004Y46015819D01*
X5755922Y46005646D01*
X5758900Y46001475D01*
X5811836Y45920453D01*
X5877386Y45849243D01*
X5880688Y45845346D01*
X5885211Y45839537D01*
X5888626Y45835149D01*
X5890295Y45830915D01*
X5895743Y45824996D01*
X5901596Y45821062D01*
X5911071Y45812340D01*
X5914696Y45808715D01*
X5980255Y45737500D01*
X6056620Y45678062D01*
X6060532Y45674748D01*
X6070025Y45666009D01*
X6072372Y45662102D01*
X6078704Y45657174D01*
X6085118Y45654261D01*
X6085789Y45653823D01*
X6095936Y45647193D01*
X6100106Y45644215D01*
X6176489Y45584765D01*
X6176493Y45584762D01*
X6261607Y45538699D01*
X6266009Y45536077D01*
X6276804Y45529024D01*
X6279766Y45525552D01*
X6286840Y45521724D01*
X6293662Y45519901D01*
X6305479Y45514717D01*
X6310084Y45512466D01*
X6395183Y45466413D01*
X6395194Y45466408D01*
X6486740Y45434980D01*
X6491515Y45433117D01*
X6503304Y45427945D01*
X6506795Y45425010D01*
X6514425Y45422391D01*
X6521450Y45421716D01*
X6533929Y45418555D01*
X6538835Y45417094D01*
X6630383Y45385667D01*
X6725857Y45369735D01*
X6730872Y45368683D01*
X6743355Y45365523D01*
X6747286Y45363200D01*
X6755236Y45361874D01*
X6762277Y45362365D01*
X6775109Y45361302D01*
X6780194Y45360668D01*
X6875665Y45344738D01*
X6972459Y45344738D01*
X6977571Y45344526D01*
X6988877Y45343589D01*
X6990417Y45343462D01*
X6994672Y45341820D01*
X7002723Y45341820D01*
X7009583Y45343462D01*
X7011122Y45343589D01*
X7022428Y45344526D01*
X7027541Y45344738D01*
X7124336Y45344738D01*
X7219804Y45360668D01*
X7224888Y45361301D01*
X7237719Y45362365D01*
X7242191Y45361444D01*
X7250143Y45362771D01*
X7256648Y45365524D01*
X7269128Y45368683D01*
X7274141Y45369734D01*
X7369614Y45385667D01*
X7461165Y45417095D01*
X7466071Y45418556D01*
X7475140Y45420853D01*
X7478587Y45421726D01*
X7483134Y45421553D01*
X7490738Y45424164D01*
X7496690Y45427943D01*
X7508480Y45433115D01*
X7513258Y45434980D01*
X7604802Y45466407D01*
X7604804Y45466408D01*
X7604810Y45466410D01*
X7604816Y45466413D01*
X7689925Y45512471D01*
X7694528Y45514721D01*
X7706332Y45519899D01*
X7710858Y45520480D01*
X7717936Y45524311D01*
X7723190Y45529022D01*
X7733985Y45536075D01*
X7738388Y45538699D01*
X7774906Y45558461D01*
X7823503Y45584760D01*
X7823505Y45584761D01*
X7875502Y45625232D01*
X7899897Y45644219D01*
X7904063Y45647193D01*
X7914842Y45654236D01*
X7919215Y45655555D01*
X7925573Y45660504D01*
X7929970Y45666005D01*
X7939462Y45674745D01*
X7943378Y45678061D01*
X8019741Y45737498D01*
X8019744Y45737500D01*
X8085294Y45808706D01*
X8088918Y45812330D01*
X8098398Y45821058D01*
X8102487Y45823076D01*
X8107949Y45829009D01*
X8111384Y45835164D01*
X8119291Y45845323D01*
X8122606Y45849237D01*
X8188163Y45920452D01*
X8241102Y46001481D01*
X8244081Y46005653D01*
X8251994Y46015819D01*
X8255695Y46018482D01*
X8260100Y46025225D01*
X8262475Y46031861D01*
X8268618Y46043211D01*
X8271231Y46047596D01*
X8324173Y46128630D01*
X8358578Y46207067D01*
X8363052Y46217267D01*
X8365298Y46221859D01*
X8371435Y46233200D01*
X8374650Y46236440D01*
X8377881Y46243806D01*
X8379133Y46250747D01*
X8379603Y46252117D01*
X8383326Y46262963D01*
X8385184Y46267723D01*
X8424062Y46356354D01*
X8427430Y46369654D01*
X8447830Y46450214D01*
X8449286Y46455098D01*
X8453465Y46467271D01*
X8453466Y46467273D01*
X8456102Y46470994D01*
X8458082Y46478816D01*
X8458175Y46485866D01*
X8460296Y46498579D01*
X8461344Y46503577D01*
X8485108Y46597417D01*
X8493102Y46693898D01*
X8493733Y46698957D01*
X8497438Y46721157D01*
X8497438Y46721160D01*
X8498508Y46727572D01*
X8497688Y46733307D01*
X8498088Y46752648D01*
X8498283Y46756427D01*
X8505643Y46845238D01*
X8498283Y46934052D01*
X8498088Y46937823D01*
X8497688Y46957163D01*
X8498789Y46961221D01*
X8496540Y46974697D01*
X8493796Y46991141D01*
X8493734Y46991516D01*
X8493103Y46996571D01*
X8485108Y47093059D01*
X8461344Y47186897D01*
X8460299Y47191876D01*
X8458175Y47204607D01*
X8458722Y47209134D01*
X8456742Y47216952D01*
X8453466Y47223201D01*
X8449280Y47235394D01*
X8447824Y47240288D01*
X8438569Y47276834D01*
X8424063Y47334119D01*
X8385170Y47422783D01*
X8383327Y47427511D01*
X8383231Y47427791D01*
X8379136Y47439717D01*
X8378931Y47444274D01*
X8375696Y47451648D01*
X8371436Y47457273D01*
X8365290Y47468629D01*
X8363049Y47473216D01*
X8324173Y47561845D01*
X8271224Y47642888D01*
X8268621Y47647259D01*
X8268611Y47647277D01*
X8262483Y47658600D01*
X8261530Y47663059D01*
X8257123Y47669805D01*
X8252005Y47674641D01*
X8244055Y47684856D01*
X8241124Y47688961D01*
X8188164Y47770023D01*
X8122585Y47841260D01*
X8119315Y47845121D01*
X8111387Y47855308D01*
X8109715Y47859545D01*
X8104251Y47865480D01*
X8098407Y47869409D01*
X8088909Y47878152D01*
X8085313Y47881748D01*
X8019744Y47952976D01*
X7943349Y48012436D01*
X7939462Y48015730D01*
X7929972Y48024466D01*
X7927623Y48028373D01*
X7921280Y48033311D01*
X7914858Y48036229D01*
X7904025Y48043306D01*
X7899935Y48046226D01*
X7823509Y48105712D01*
X7738361Y48151791D01*
X7733999Y48154391D01*
X7723190Y48161453D01*
X7720228Y48164923D01*
X7713158Y48168749D01*
X7706340Y48170572D01*
X7694522Y48175755D01*
X7689970Y48177979D01*
X7604810Y48224066D01*
X7513251Y48255498D01*
X7508501Y48257351D01*
X7496695Y48262529D01*
X7493205Y48265463D01*
X7485585Y48268079D01*
X7478569Y48268753D01*
X7466055Y48271922D01*
X7461198Y48273367D01*
X7369614Y48304809D01*
X7274105Y48320746D01*
X7269158Y48321783D01*
X7256626Y48324956D01*
X7252706Y48327273D01*
X7244766Y48328598D01*
X7237735Y48328108D01*
X7224850Y48329176D01*
X7219854Y48329798D01*
X7124335Y48345738D01*
X7027574Y48345738D01*
X7022453Y48345950D01*
X7009579Y48347016D01*
X7005321Y48348659D01*
X6997292Y48348659D01*
X6990419Y48347015D01*
X6989551Y48346943D01*
X6977556Y48345950D01*
X6972436Y48345738D01*
X6875665Y48345738D01*
X6780187Y48329805D01*
X6775122Y48329174D01*
X6762278Y48328109D01*
X6757811Y48329028D01*
X6749857Y48327701D01*
X6743361Y48324954D01*
X6730861Y48321788D01*
X6725857Y48320740D01*
X6630385Y48304809D01*
X6604307Y48295856D01*
X6538823Y48273375D01*
X6533935Y48271920D01*
X6529378Y48270766D01*
X6521432Y48268755D01*
X6516881Y48268926D01*
X6509259Y48266309D01*
X6503301Y48262528D01*
X6491480Y48257343D01*
X6486767Y48255504D01*
X6395190Y48224066D01*
X6310057Y48177994D01*
X6305483Y48175759D01*
X6293664Y48170574D01*
X6289135Y48169992D01*
X6282069Y48166167D01*
X6276811Y48161454D01*
X6266010Y48154397D01*
X6261634Y48151789D01*
X6176491Y48105712D01*
X6100091Y48046247D01*
X6095938Y48043283D01*
X6093868Y48041931D01*
X6085150Y48036236D01*
X6080784Y48034918D01*
X6074431Y48029973D01*
X6070026Y48024465D01*
X6060539Y48015731D01*
X6056624Y48012416D01*
X5980257Y47952977D01*
X5914703Y47881767D01*
X5911079Y47878142D01*
X5901599Y47869416D01*
X5897512Y47867399D01*
X5892050Y47861465D01*
X5888612Y47855308D01*
X5880706Y47845149D01*
X5877391Y47841236D01*
X5850836Y47812388D01*
X5811836Y47770023D01*
X5784269Y47727828D01*
X5758904Y47689004D01*
X5755927Y47684835D01*
X5749314Y47676337D01*
X5748006Y47674656D01*
X5744301Y47671989D01*
X5739902Y47665256D01*
X5737521Y47658609D01*
X5731389Y47647277D01*
X5728764Y47642872D01*
X5675826Y47561843D01*
X5636949Y47473216D01*
X5634700Y47468615D01*
X5628567Y47457281D01*
X5625351Y47454040D01*
X5622117Y47446668D01*
X5620864Y47439726D01*
X5616675Y47427521D01*
X5614810Y47422741D01*
X5609544Y47410735D01*
X5575937Y47334119D01*
X5575936Y47334115D01*
X5575935Y47334112D01*
X5552177Y47240296D01*
X5550714Y47235383D01*
X5546532Y47223200D01*
X5543895Y47219477D01*
X5541918Y47211671D01*
X5541825Y47204612D01*
X5539707Y47191917D01*
X5538654Y47186897D01*
X5514891Y47093056D01*
X5514891Y47093054D01*
X5506899Y46996605D01*
X5506264Y46991517D01*
X5504143Y46978808D01*
X5502155Y46974704D01*
X5501490Y46966680D01*
X5502562Y46959694D01*
X5502562Y46946817D01*
X5502350Y46941704D01*
X5502029Y46937823D01*
X5494357Y46845242D01*
X5494357Y46845232D01*
X-5494357Y46845232D01*
X-5494357Y46845237D01*
X-5494399Y46845738D01*
X-5494648Y46848759D01*
X-5501712Y46934024D01*
X-5501911Y46937863D01*
X-5502310Y46957161D01*
X-5501208Y46961219D01*
X-5506265Y46991519D01*
X-5506899Y46996606D01*
X-5514891Y47093054D01*
X-5514891Y47093056D01*
X-5538654Y47186897D01*
X-5539707Y47191917D01*
X-5541825Y47204612D01*
X-5541277Y47209140D01*
X-5543256Y47216953D01*
X-5546532Y47223200D01*
X-5550714Y47235383D01*
X-5552177Y47240296D01*
X-5575935Y47334112D01*
X-5575936Y47334115D01*
X-5575937Y47334119D01*
X-5609544Y47410735D01*
X-5614810Y47422741D01*
X-5616675Y47427521D01*
X-5620864Y47439726D01*
X-5621069Y47444278D01*
X-5624304Y47451653D01*
X-5628567Y47457281D01*
X-5634700Y47468615D01*
X-5636949Y47473216D01*
X-5675826Y47561843D01*
X-5728764Y47642872D01*
X-5731389Y47647277D01*
X-5737521Y47658609D01*
X-5738473Y47663069D01*
X-5742877Y47669810D01*
X-5748006Y47674656D01*
X-5749314Y47676337D01*
X-5755927Y47684835D01*
X-5758904Y47689004D01*
X-5784269Y47727828D01*
X-5811836Y47770023D01*
X-5850836Y47812388D01*
X-5877391Y47841236D01*
X-5880706Y47845149D01*
X-5888612Y47855308D01*
X-5890284Y47859546D01*
X-5895752Y47865487D01*
X-5901599Y47869416D01*
X-5911079Y47878142D01*
X-5914703Y47881767D01*
X-5980257Y47952977D01*
X-6056624Y48012416D01*
X-6060539Y48015731D01*
X-6070026Y48024465D01*
X-6072373Y48028371D01*
X-6078730Y48033319D01*
X-6085150Y48036236D01*
X-6093868Y48041931D01*
X-6095938Y48043283D01*
X-6100091Y48046247D01*
X-6176491Y48105712D01*
X-6261634Y48151789D01*
X-6266010Y48154397D01*
X-6276811Y48161454D01*
X-6279772Y48164924D01*
X-6286844Y48168752D01*
X-6293664Y48170574D01*
X-6305483Y48175759D01*
X-6310057Y48177994D01*
X-6395190Y48224066D01*
X-6486767Y48255504D01*
X-6491480Y48257343D01*
X-6503300Y48262528D01*
X-6506791Y48265462D01*
X-6514421Y48268081D01*
X-6521432Y48268755D01*
X-6529378Y48270766D01*
X-6533935Y48271920D01*
X-6538823Y48273375D01*
X-6604307Y48295856D01*
X-6630385Y48304809D01*
X-6725857Y48320740D01*
X-6730861Y48321788D01*
X-6743359Y48324953D01*
X-6747285Y48327272D01*
X-6755240Y48328600D01*
X-6762274Y48328109D01*
X-6775122Y48329174D01*
X-6780187Y48329805D01*
X-6875665Y48345738D01*
X-6972436Y48345738D01*
X-6977556Y48345950D01*
X-6989551Y48346943D01*
X-6990419Y48347015D01*
X-6994680Y48348659D01*
X-7002715Y48348659D01*
X-7009579Y48347016D01*
X-7022453Y48345950D01*
X-7027574Y48345738D01*
X-7124335Y48345738D01*
X-7219854Y48329798D01*
X-7224850Y48329176D01*
X-7237730Y48328109D01*
X-7242193Y48329027D01*
X-7250141Y48327701D01*
X-7256623Y48324957D01*
X-7269158Y48321783D01*
X-7274105Y48320746D01*
X-7369614Y48304809D01*
X-7461198Y48273367D01*
X-7466055Y48271922D01*
X-7478568Y48268754D01*
X-7483120Y48268925D01*
X-7490741Y48266309D01*
X-7496691Y48262531D01*
X-7508501Y48257351D01*
X-7513251Y48255498D01*
X-7604810Y48224066D01*
X-7689970Y48177979D01*
X-7694522Y48175755D01*
X-7706340Y48170572D01*
X-7710865Y48169990D01*
X-7717935Y48166164D01*
X-7723190Y48161453D01*
X-7733999Y48154391D01*
X-7738361Y48151791D01*
X-7823509Y48105712D01*
X-7899935Y48046226D01*
X-7904025Y48043306D01*
X-7914857Y48036230D01*
X-7919222Y48034913D01*
X-7925568Y48029973D01*
X-7929972Y48024466D01*
X-7939462Y48015730D01*
X-7943349Y48012436D01*
X-8019744Y47952976D01*
X-8085313Y47881748D01*
X-8088909Y47878152D01*
X-8098405Y47869410D01*
X-8102489Y47867395D01*
X-8107949Y47861464D01*
X-8111384Y47855311D01*
X-8119315Y47845121D01*
X-8122585Y47841260D01*
X-8188164Y47770023D01*
X-8241124Y47688961D01*
X-8244055Y47684856D01*
X-8252004Y47674643D01*
X-8255699Y47671984D01*
X-8260104Y47665242D01*
X-8262481Y47658603D01*
X-8268611Y47647277D01*
X-8268621Y47647259D01*
X-8271224Y47642888D01*
X-8324173Y47561845D01*
X-8363049Y47473216D01*
X-8365290Y47468629D01*
X-8371434Y47457276D01*
X-8374649Y47454037D01*
X-8377882Y47446665D01*
X-8379135Y47439721D01*
X-8383231Y47427791D01*
X-8383327Y47427511D01*
X-8385170Y47422783D01*
X-8424063Y47334119D01*
X-8438569Y47276834D01*
X-8447824Y47240288D01*
X-8449280Y47235394D01*
X-8453465Y47223203D01*
X-8456102Y47219480D01*
X-8458081Y47211666D01*
X-8458175Y47204612D01*
X-8460299Y47191876D01*
X-8461344Y47186897D01*
X-8485108Y47093059D01*
X-8493103Y46996568D01*
X-8493732Y46991524D01*
X-8495855Y46978804D01*
X-8497843Y46974697D01*
X-8498508Y46966674D01*
X-8497438Y46959692D01*
X-8497438Y46946817D01*
X-8497649Y46941704D01*
X-8497971Y46937823D01*
X-8505643Y46845242D01*
X-8505643Y46845232D01*
X-9999457Y46845232D01*
X-9999500Y46846861D01*
X-9999500Y47083615D01*
X-9999494Y47246067D01*
X-9999494Y47246081D01*
X-10020301Y47437544D01*
X-10020562Y47440679D01*
X-10025061Y47518837D01*
X-10031090Y47536823D01*
X-10034616Y47569267D01*
X-10034617Y47569273D01*
X-10034618Y47569279D01*
X-10082064Y47785007D01*
X-10093837Y47852568D01*
X-10099721Y47865286D01*
X-10104453Y47886802D01*
X-10185375Y48127170D01*
X-10199974Y48176540D01*
X-10204542Y48184104D01*
X-10208179Y48194907D01*
X-10208186Y48194924D01*
X-10221656Y48224064D01*
X-10243596Y48271530D01*
X-10332562Y48463999D01*
X-10342189Y48486610D01*
X-10342678Y48487248D01*
X-10343024Y48487065D01*
X-10344115Y48489125D01*
X-10344269Y48489326D01*
X-10344594Y48490029D01*
X-10344595Y48490031D01*
X-10512084Y48768667D01*
X-10512093Y48768679D01*
X-10592129Y48874074D01*
X-10708709Y49027593D01*
X-10762110Y49084035D01*
X-10932138Y49263745D01*
X-10932142Y49263749D01*
X-10932143Y49263750D01*
X-10932148Y49263755D01*
X-11179794Y49474395D01*
X-11448747Y49657047D01*
X-11448760Y49657054D01*
X-11448765Y49657057D01*
X-11735844Y49809568D01*
X-11735849Y49809570D01*
X-11735858Y49809575D01*
X-12037768Y49930191D01*
X-12350941Y50017484D01*
X-12351675Y50017605D01*
X-12351835Y50017682D01*
X-12354220Y50018210D01*
X-12354095Y50018771D01*
X-12354139Y50018792D01*
X-12379195Y50022147D01*
X-12605938Y50059575D01*
X-12671693Y50070430D01*
X-12671696Y50070430D01*
X-12671712Y50070433D01*
X-12683093Y50071063D01*
X-12689729Y50073417D01*
X-12743035Y50074384D01*
X-12996326Y50088418D01*
X-12996331Y50088417D01*
X-12996335Y50088418D01*
X-13018316Y50087254D01*
X-13029176Y50089827D01*
X-13100387Y50082908D01*
X-13136004Y50081021D01*
X-13320983Y50071227D01*
X-13353196Y50065990D01*
X-13368186Y50067865D01*
X-13448674Y50050551D01*
X-13451755Y50049969D01*
X-13641882Y50019063D01*
X-13693901Y50004698D01*
X-13798079Y49975930D01*
X-13798561Y49975797D01*
X-14400560Y49809596D01*
X-14468478Y49790845D01*
X-15235161Y49556869D01*
X-15262976Y49548768D01*
X-15264497Y49547916D01*
X-15773366Y49392621D01*
X-15797883Y49385139D01*
X-17115935Y48943946D01*
X-18421688Y48467581D01*
X-19714204Y47956388D01*
X-20992552Y47410734D01*
X-22255816Y46831011D01*
X-23503087Y46217636D01*
X-24733469Y45571049D01*
X-25946077Y44891715D01*
X-27140041Y44180121D01*
X-28314502Y43436781D01*
X-29468616Y42662227D01*
X-30601555Y41857016D01*
X-31712503Y41021727D01*
X-32800663Y40156960D01*
X-33865253Y39263337D01*
X-34741106Y38487185D01*
X-34905507Y38341498D01*
X-35920678Y37392109D01*
X-36910037Y36415849D01*
X-37872873Y35413421D01*
X-38808493Y34385546D01*
X-39159042Y33979057D01*
X-39172712Y33963206D01*
X-39173837Y33962479D01*
X-39192758Y33939961D01*
X-39716226Y33332961D01*
X-40154916Y32795777D01*
X-40156730Y32793659D01*
X-40394699Y32528299D01*
X-40432071Y32486742D01*
X-40436002Y32482753D01*
X-40628644Y32304234D01*
X-40741788Y32200267D01*
X-40745926Y32196788D01*
X-40938628Y32048780D01*
X-41076945Y31944075D01*
X-41081252Y31941096D01*
X-41279862Y31815866D01*
X-41434604Y31720404D01*
X-41438989Y31717943D01*
X-41644337Y31613591D01*
X-41811584Y31531236D01*
X-41816036Y31529261D01*
X-42027533Y31445334D01*
X-42204622Y31378199D01*
X-42209070Y31376706D01*
X-42425579Y31313189D01*
X-42610195Y31262659D01*
X-42614640Y31261618D01*
X-42834773Y31218605D01*
X-43024811Y31185600D01*
X-43029151Y31185006D01*
X-43251343Y31162585D01*
X-43444781Y31147707D01*
X-43448981Y31147529D01*
X-43671575Y31145711D01*
X-43866433Y31149304D01*
X-43870425Y31149509D01*
X-44091743Y31168196D01*
X-44286030Y31190370D01*
X-44289863Y31190930D01*
X-44508092Y31229883D01*
X-44512533Y31230824D01*
X-44699925Y31270536D01*
X-44703481Y31271402D01*
X-44916962Y31330262D01*
X-45104469Y31389095D01*
X-45107769Y31390234D01*
X-45314742Y31468479D01*
X-45496117Y31545000D01*
X-45499123Y31546366D01*
X-45697881Y31643319D01*
X-45705865Y31647623D01*
X-45871391Y31736857D01*
X-45874130Y31738427D01*
X-46063054Y31853280D01*
X-46227022Y31962980D01*
X-46229503Y31964729D01*
X-46229537Y31964754D01*
X-46405858Y32095658D01*
X-46408093Y32097399D01*
X-46559948Y32221417D01*
X-46562058Y32223224D01*
X-46725613Y32369897D01*
X-46727785Y32371942D01*
X-46803407Y32446757D01*
X-46868059Y32510720D01*
X-47018305Y32672853D01*
X-47020426Y32675264D01*
X-47146733Y32826576D01*
X-47281415Y33001928D01*
X-47283403Y33004668D01*
X-47394602Y33167080D01*
X-47394625Y33167116D01*
X-47512574Y33354182D01*
X-47514383Y33357241D01*
X-47609496Y33529227D01*
X-47709780Y33726570D01*
X-47711369Y33729946D01*
X-47789528Y33909786D01*
X-47871284Y34115815D01*
X-47872610Y34119489D01*
X-47933155Y34305441D01*
X-47995655Y34518484D01*
X-47996674Y34522434D01*
X-48039123Y34712647D01*
X-48081802Y34931078D01*
X-48082474Y34935278D01*
X-48106540Y35127779D01*
X-48114764Y35209281D01*
X-48128957Y35349943D01*
X-48129244Y35354348D01*
X-48134868Y35547161D01*
X-48136699Y35771390D01*
X-48136566Y35775988D01*
X-48123934Y35967012D01*
X-48104959Y36191751D01*
X-48104374Y36196489D01*
X-48073971Y36383424D01*
X-48034000Y36607351D01*
X-48032937Y36612183D01*
X-47985654Y36792510D01*
X-47924451Y37014487D01*
X-47922887Y37019364D01*
X-47860263Y37190055D01*
X-47777267Y37409597D01*
X-47775185Y37414466D01*
X-47700245Y37570868D01*
X-47593721Y37789249D01*
X-47591109Y37794054D01*
X-47511702Y37925916D01*
X-47375436Y38150061D01*
X-47372289Y38154744D01*
X-47338645Y38200194D01*
X-47126837Y38485487D01*
X-47124577Y38488352D01*
X-46136538Y39667390D01*
X-45185024Y40746154D01*
X-45116217Y40824077D01*
X-44309357Y41693461D01*
X-44060818Y41960767D01*
X-43583158Y42450000D01*
X-41355250Y42450000D01*
X-41336330Y42306291D01*
X-41280861Y42172375D01*
X-41192621Y42057379D01*
X-41142783Y42019137D01*
X-41077622Y41969137D01*
X-40943712Y41913671D01*
X-40943710Y41913670D01*
X-40943709Y41913670D01*
X-40871854Y41904210D01*
X-40800001Y41894750D01*
X-40800000Y41894750D01*
X-40799999Y41894750D01*
X-40656291Y41913670D01*
X-40656287Y41913671D01*
X-40522377Y41969137D01*
X-40407379Y42057379D01*
X-40319137Y42172377D01*
X-40263670Y42306290D01*
X-40250689Y42404880D01*
X-40222421Y42468776D01*
X-40213708Y42478064D01*
X-39999596Y42683998D01*
X-38878024Y43708015D01*
X-37730208Y44702604D01*
X-36557016Y45667011D01*
X-35359132Y46600676D01*
X-34137408Y47502934D01*
X-34088822Y47536902D01*
X-32892748Y48373118D01*
X-32833636Y48412200D01*
X-32809031Y48428468D01*
X-32742253Y48449021D01*
X-32724459Y48447970D01*
X-32700001Y48444750D01*
X-32700000Y48444750D01*
X-32699999Y48444750D01*
X-32556291Y48463670D01*
X-32556287Y48463671D01*
X-32422377Y48519137D01*
X-32307379Y48607379D01*
X-32219137Y48722378D01*
X-32178837Y48819671D01*
X-32134996Y48874074D01*
X-32132664Y48875654D01*
X-31625797Y49210774D01*
X-30337627Y50015196D01*
X-29028995Y50785910D01*
X-27700752Y51522419D01*
X-26353868Y52224179D01*
X-24989217Y52890739D01*
X-24574248Y53080249D01*
X-6750500Y53080249D01*
X-6750499Y53080247D01*
X-6738868Y53021770D01*
X-6738867Y53021769D01*
X-6694552Y52955447D01*
X-6628230Y52911132D01*
X-6628229Y52911131D01*
X-6569752Y52899500D01*
X-6569748Y52899500D01*
X-4530247Y52899500D01*
X-4471770Y52911131D01*
X-4471769Y52911132D01*
X-4405447Y52955447D01*
X-4361132Y53021769D01*
X-4361131Y53021770D01*
X-4349500Y53080247D01*
X-4349500Y54419752D01*
X-4361131Y54478229D01*
X-4361132Y54478230D01*
X-4405447Y54544552D01*
X-4471769Y54588867D01*
X-4471770Y54588868D01*
X-4530247Y54600499D01*
X-4530249Y54600500D01*
X-4530252Y54600500D01*
X-6569748Y54600500D01*
X-6569751Y54600500D01*
X-6569751Y54600499D01*
X-6584568Y54597552D01*
X-6628229Y54588868D01*
X-6628229Y54588867D01*
X-6628231Y54588867D01*
X-6694552Y54544552D01*
X-6738867Y54478231D01*
X-6738867Y54478230D01*
X-6738868Y54478229D01*
X-6750499Y54419752D01*
X-6750500Y54419750D01*
X-6750500Y53080249D01*
X-24574248Y53080249D01*
X-23757898Y53453063D01*
X-23690201Y53463208D01*
X-23550001Y53444750D01*
X-23550000Y53444750D01*
X-23549999Y53444750D01*
X-23406291Y53463670D01*
X-23406287Y53463671D01*
X-23272377Y53519137D01*
X-23157379Y53607379D01*
X-23104942Y53675716D01*
X-23069139Y53722375D01*
X-23069138Y53722375D01*
X-23069136Y53722379D01*
X-23068006Y53724337D01*
X-23066621Y53725657D01*
X-23064192Y53728823D01*
X-23063698Y53728443D01*
X-23017435Y53772549D01*
X-23009189Y53776423D01*
X-22210319Y54116477D01*
X-20797923Y54674835D01*
X-19371461Y55196357D01*
X-17932059Y55680630D01*
X-16480500Y56127393D01*
X-15017821Y56536327D01*
X-13954935Y56803941D01*
X-13885118Y56801221D01*
X-13877207Y56798255D01*
X-13793712Y56763671D01*
X-13793710Y56763670D01*
X-13793709Y56763670D01*
X-13721854Y56754210D01*
X-13650001Y56744750D01*
X-13650000Y56744750D01*
X-13649999Y56744750D01*
X-13506291Y56763670D01*
X-13506287Y56763671D01*
X-13372377Y56819137D01*
X-13257375Y56907382D01*
X-13225142Y56949388D01*
X-13168713Y56990589D01*
X-13153912Y56994892D01*
X-12063182Y57239593D01*
X-10573080Y57533480D01*
X-9075916Y57788573D01*
X-7572663Y58004707D01*
X-6064224Y58181755D01*
X-4551779Y58319574D01*
X-3746852Y58371894D01*
X-3678677Y58356599D01*
X-3663328Y58346535D01*
X-3628192Y58319574D01*
X-3627622Y58319137D01*
X-3493712Y58263671D01*
X-3493710Y58263670D01*
X-3493709Y58263670D01*
X-3421854Y58254210D01*
X-3350001Y58244750D01*
X-3350000Y58244750D01*
X-3349999Y58244750D01*
X-3206291Y58263670D01*
X-3206287Y58263671D01*
X-3072376Y58319138D01*
X-3072374Y58319139D01*
X-2969732Y58397899D01*
X-2904563Y58423093D01*
X-2899074Y58423429D01*
X-1518636Y58477218D01*
X-6Y58496934D01*
X1190207Y58481482D01*
X1236047Y58472054D01*
X1256288Y58463670D01*
X1256286Y58463670D01*
X1399999Y58444750D01*
X1400000Y58444750D01*
X1400001Y58444750D01*
X1543707Y58463669D01*
X1544214Y58463879D01*
X1546337Y58464758D01*
X1550643Y58465528D01*
X1551557Y58465773D01*
X1551577Y58465695D01*
X1598611Y58474101D01*
X2504822Y58438791D01*
X2571044Y58416511D01*
X2587675Y58402566D01*
X2863181Y58127061D01*
X2896666Y58065738D01*
X2899500Y58039380D01*
X2899500Y57274500D01*
X2879815Y57207461D01*
X2827011Y57161706D01*
X2775500Y57150500D01*
X2656193Y57150500D01*
X2589154Y57170185D01*
X2544791Y57220043D01*
X2539199Y57231481D01*
X2539198Y57231484D01*
X2539194Y57231487D01*
X2534935Y57237453D01*
X2530419Y57243254D01*
X2530418Y57243258D01*
X2492724Y57277957D01*
X2157634Y57613046D01*
X2141511Y57632902D01*
X2136437Y57640669D01*
X2110477Y57660873D01*
X2104739Y57665941D01*
X2102307Y57668375D01*
X2084561Y57681044D01*
X2044126Y57712517D01*
X2044120Y57712518D01*
X2037655Y57716017D01*
X2031072Y57719235D01*
X2031066Y57719240D01*
X2000548Y57728325D01*
X1981955Y57733861D01*
X1969286Y57738209D01*
X1933488Y57750500D01*
X1933479Y57750500D01*
X1926239Y57751709D01*
X1918954Y57752616D01*
X1918954Y57752617D01*
X1918953Y57752616D01*
X1918953Y57752617D01*
X1897000Y57751709D01*
X1867769Y57750500D01*
X886092Y57750500D01*
X819053Y57770185D01*
X799587Y57788086D01*
X798372Y57786871D01*
X792627Y57792615D01*
X792623Y57792617D01*
X792621Y57792621D01*
X677625Y57880861D01*
X543709Y57936330D01*
X414977Y57953278D01*
X400001Y57955250D01*
X399999Y57955250D01*
X383280Y57953048D01*
X256291Y57936330D01*
X122375Y57880861D01*
X122373Y57880859D01*
X122370Y57880858D01*
X116199Y57876123D01*
X51030Y57850930D01*
X40715Y57850500D01*
X-140715Y57850500D01*
X-207754Y57870185D01*
X-216199Y57876123D01*
X-222370Y57880858D01*
X-222373Y57880859D01*
X-222375Y57880861D01*
X-356291Y57936330D01*
X-483280Y57953048D01*
X-499999Y57955250D01*
X-500001Y57955250D01*
X-514977Y57953278D01*
X-643709Y57936330D01*
X-777625Y57880861D01*
X-777628Y57880858D01*
X-777629Y57880858D01*
X-783801Y57876123D01*
X-848970Y57850930D01*
X-859285Y57850500D01*
X-1040715Y57850500D01*
X-1107754Y57870185D01*
X-1116199Y57876123D01*
X-1122370Y57880858D01*
X-1122373Y57880859D01*
X-1122375Y57880861D01*
X-1256291Y57936330D01*
X-1383280Y57953048D01*
X-1399999Y57955250D01*
X-1400001Y57955250D01*
X-1414977Y57953278D01*
X-1543709Y57936330D01*
X-1677625Y57880861D01*
X-1792621Y57792621D01*
X-1880861Y57677625D01*
X-1936330Y57543709D01*
X-1955250Y57400000D01*
X-1940721Y57289648D01*
X-1951486Y57220617D01*
X-1997865Y57168361D01*
X-2065134Y57149475D01*
X-2075812Y57150063D01*
X-2080250Y57150500D01*
X-2080252Y57150500D01*
X-2419748Y57150500D01*
X-2419750Y57150500D01*
X-2475808Y57139349D01*
X-2524192Y57139349D01*
X-2580250Y57150500D01*
X-2580252Y57150500D01*
X-2919748Y57150500D01*
X-2919751Y57150500D01*
X-2919751Y57150499D01*
X-2934568Y57147552D01*
X-2978229Y57138868D01*
X-2978229Y57138867D01*
X-2978231Y57138867D01*
X-3044552Y57094552D01*
X-3088867Y57028231D01*
X-3088867Y57028230D01*
X-3088868Y57028229D01*
X-3100499Y56969752D01*
X-3100500Y56969750D01*
X-3100500Y53746544D01*
X-3120185Y53679505D01*
X-3136819Y53658863D01*
X-4058863Y52736819D01*
X-4120186Y52703334D01*
X-4146544Y52700500D01*
X-4171962Y52700500D01*
X-4171962Y52700499D01*
X-4310053Y52659953D01*
X-4431128Y52582143D01*
X-4525377Y52473373D01*
X-4585165Y52342457D01*
X-4605647Y52200000D01*
X-4585165Y52057543D01*
X-4525377Y51926627D01*
X-4431128Y51817857D01*
X-4310053Y51740047D01*
X-4310051Y51740046D01*
X-4310049Y51740045D01*
X-4310050Y51740045D01*
X-4171963Y51699500D01*
X-4171961Y51699500D01*
X-4028036Y51699500D01*
X-3889949Y51740045D01*
X-3767039Y51819035D01*
X-3700000Y51838719D01*
X-3632961Y51819035D01*
X-3631128Y51817857D01*
X-3510053Y51740047D01*
X-3510051Y51740046D01*
X-3510049Y51740045D01*
X-3510050Y51740045D01*
X-3371963Y51699500D01*
X-3371961Y51699500D01*
X-3228036Y51699500D01*
X-3089949Y51740045D01*
X-2967039Y51819035D01*
X-2900000Y51838719D01*
X-2832961Y51819035D01*
X-2831128Y51817857D01*
X-2710053Y51740047D01*
X-2710051Y51740046D01*
X-2710049Y51740045D01*
X-2710050Y51740045D01*
X-2571963Y51699500D01*
X-2571961Y51699500D01*
X-2428036Y51699500D01*
X-2289949Y51740045D01*
X-2167039Y51819035D01*
X-2100000Y51838719D01*
X-2032961Y51819035D01*
X-2031128Y51817857D01*
X-1910053Y51740047D01*
X-1910051Y51740046D01*
X-1910049Y51740045D01*
X-1910050Y51740045D01*
X-1771963Y51699500D01*
X-1771961Y51699500D01*
X-1628036Y51699500D01*
X-1489949Y51740045D01*
X-1367039Y51819035D01*
X-1300000Y51838719D01*
X-1232961Y51819035D01*
X-1231128Y51817857D01*
X-1110053Y51740047D01*
X-1110051Y51740046D01*
X-1110049Y51740045D01*
X-1110050Y51740045D01*
X-971963Y51699500D01*
X-971961Y51699500D01*
X-828036Y51699500D01*
X-689949Y51740045D01*
X-567039Y51819035D01*
X-500000Y51838719D01*
X-432961Y51819035D01*
X-431128Y51817857D01*
X-310053Y51740047D01*
X-310051Y51740046D01*
X-310049Y51740045D01*
X-310050Y51740045D01*
X-171963Y51699500D01*
X-171961Y51699500D01*
X-28036Y51699500D01*
X110050Y51740045D01*
X232961Y51819035D01*
X300000Y51838719D01*
X367039Y51819035D01*
X489950Y51740045D01*
X489949Y51740045D01*
X628036Y51699500D01*
X628039Y51699500D01*
X771963Y51699500D01*
X910050Y51740045D01*
X1032961Y51819035D01*
X1100000Y51838719D01*
X1167039Y51819035D01*
X1289950Y51740045D01*
X1289949Y51740045D01*
X1428036Y51699500D01*
X1428039Y51699500D01*
X1571963Y51699500D01*
X1710050Y51740045D01*
X1832961Y51819035D01*
X1900000Y51838719D01*
X1967039Y51819035D01*
X2089950Y51740045D01*
X2089949Y51740045D01*
X2228036Y51699500D01*
X2228039Y51699500D01*
X2371963Y51699500D01*
X2510050Y51740045D01*
X2632961Y51819035D01*
X2700000Y51838719D01*
X2767039Y51819035D01*
X2889950Y51740045D01*
X2889949Y51740045D01*
X3028036Y51699500D01*
X3028039Y51699500D01*
X3171963Y51699500D01*
X3310050Y51740045D01*
X3431126Y51817856D01*
X3431128Y51817857D01*
X3525377Y51926627D01*
X3585165Y52057543D01*
X3605647Y52200000D01*
X3585165Y52342457D01*
X3525377Y52473373D01*
X3431128Y52582143D01*
X3310053Y52659953D01*
X3171962Y52700499D01*
X3171962Y52700500D01*
X3171961Y52700500D01*
X3146544Y52700500D01*
X3079505Y52720185D01*
X3058863Y52736819D01*
X2715435Y53080247D01*
X4349500Y53080247D01*
X4361131Y53021770D01*
X4361132Y53021769D01*
X4405447Y52955447D01*
X4471769Y52911132D01*
X4471770Y52911131D01*
X4530247Y52899500D01*
X4530252Y52899500D01*
X6569752Y52899500D01*
X6628229Y52911131D01*
X6628230Y52911132D01*
X6694552Y52955447D01*
X6738867Y53021769D01*
X6738868Y53021770D01*
X6750499Y53080247D01*
X6750500Y53080249D01*
X6750500Y54419750D01*
X6750499Y54419752D01*
X6738868Y54478229D01*
X6738867Y54478230D01*
X6738867Y54478231D01*
X6694552Y54544552D01*
X6628231Y54588867D01*
X6628229Y54588867D01*
X6628229Y54588868D01*
X6584568Y54597552D01*
X6569751Y54600499D01*
X6569751Y54600500D01*
X6569748Y54600500D01*
X4530252Y54600500D01*
X4530249Y54600500D01*
X4530247Y54600499D01*
X4471770Y54588868D01*
X4471769Y54588867D01*
X4405447Y54544552D01*
X4361132Y54478230D01*
X4361131Y54478229D01*
X4349500Y54419752D01*
X4349500Y53080247D01*
X2715435Y53080247D01*
X2136819Y53658863D01*
X2103334Y53720186D01*
X2100500Y53746544D01*
X2100500Y55625500D01*
X2120185Y55692539D01*
X2172989Y55738294D01*
X2224500Y55749500D01*
X2419748Y55749500D01*
X2475810Y55760651D01*
X2524190Y55760651D01*
X2580252Y55749500D01*
X2919748Y55749500D01*
X2975810Y55760651D01*
X3024190Y55760651D01*
X3080252Y55749500D01*
X3419752Y55749500D01*
X3478229Y55761131D01*
X3478230Y55761132D01*
X3544552Y55805447D01*
X3588867Y55871769D01*
X3588868Y55871770D01*
X3600499Y55930247D01*
X3600500Y55930249D01*
X3600500Y58073347D01*
X3620185Y58140386D01*
X3636819Y58161028D01*
X3801831Y58326040D01*
X3863154Y58359525D01*
X3897555Y58362098D01*
X4551759Y58319576D01*
X6064238Y58181753D01*
X7572674Y58004706D01*
X9075888Y57788577D01*
X10573080Y57533480D01*
X12063172Y57239595D01*
X13153912Y56994893D01*
X13215017Y56961010D01*
X13225142Y56949388D01*
X13257374Y56907383D01*
X13372377Y56819137D01*
X13506287Y56763671D01*
X13506291Y56763670D01*
X13649999Y56744750D01*
X13650000Y56744750D01*
X13650001Y56744750D01*
X13721854Y56754210D01*
X13793709Y56763670D01*
X13793710Y56763670D01*
X13793712Y56763671D01*
X13877207Y56798255D01*
X13946677Y56805724D01*
X13954935Y56803941D01*
X15017803Y56536332D01*
X16480498Y56127394D01*
X17932037Y55680637D01*
X19371476Y55196352D01*
X20797919Y54674837D01*
X22210325Y54116474D01*
X23009189Y53776423D01*
X23063163Y53732054D01*
X23068006Y53724337D01*
X23069136Y53722379D01*
X23069138Y53722375D01*
X23069139Y53722375D01*
X23104942Y53675716D01*
X23157379Y53607379D01*
X23272377Y53519137D01*
X23406287Y53463671D01*
X23406291Y53463670D01*
X23549999Y53444750D01*
X23550000Y53444750D01*
X23550001Y53444750D01*
X23690201Y53463208D01*
X23757898Y53453063D01*
X24989211Y52890742D01*
X26353883Y52224172D01*
X27700736Y51522427D01*
X29028967Y50785926D01*
X30337620Y50015200D01*
X31625803Y49210771D01*
X32132664Y48875654D01*
X32177730Y48822261D01*
X32178837Y48819671D01*
X32219137Y48722378D01*
X32307379Y48607379D01*
X32422377Y48519137D01*
X32556287Y48463671D01*
X32556291Y48463670D01*
X32699999Y48444750D01*
X32700000Y48444750D01*
X32700001Y48444750D01*
X32724460Y48447970D01*
X32793495Y48437204D01*
X32809029Y48428469D01*
X32892741Y48373123D01*
X33930974Y47647259D01*
X34137401Y47502939D01*
X35359140Y46600670D01*
X36557017Y45667010D01*
X37730205Y44702606D01*
X38868614Y43716167D01*
X38871854Y43713151D01*
X40270943Y42314062D01*
X40297823Y42273835D01*
X40319138Y42222377D01*
X40319139Y42222375D01*
X40357504Y42172377D01*
X40407379Y42107379D01*
X40522377Y42019137D01*
X40656287Y41963671D01*
X40656291Y41963670D01*
X40799999Y41944750D01*
X40800000Y41944750D01*
X40800001Y41944750D01*
X40871854Y41954210D01*
X40943709Y41963670D01*
X40943710Y41963670D01*
X40943712Y41963671D01*
X41077622Y42019137D01*
X41077625Y42019139D01*
X41192621Y42107379D01*
X41280861Y42222375D01*
X41336330Y42356291D01*
X41355250Y42500000D01*
X41336330Y42643709D01*
X41280861Y42777625D01*
X41192621Y42892621D01*
X41077625Y42980861D01*
X40943709Y43036330D01*
X40846292Y43049155D01*
X40782399Y43077420D01*
X40774811Y43084400D01*
X39542481Y44316730D01*
X39524948Y44338794D01*
X39523793Y44340647D01*
X39486303Y44373131D01*
X39483084Y44376127D01*
X39472139Y44387074D01*
X39467185Y44390729D01*
X39461108Y44395215D01*
X39457318Y44398247D01*
X39433839Y44418592D01*
X38370970Y45339573D01*
X38365501Y45344940D01*
X38359332Y45351788D01*
X38359330Y45351793D01*
X38311393Y45391198D01*
X38290298Y45409478D01*
X38288580Y45410565D01*
X38282384Y45415044D01*
X37181015Y46320410D01*
X37175424Y46325620D01*
X37169081Y46332304D01*
X37169079Y46332309D01*
X37120151Y46370444D01*
X37098574Y46388182D01*
X37096828Y46389224D01*
X37090500Y46393554D01*
X35965972Y47270043D01*
X35960237Y47275115D01*
X35953721Y47281635D01*
X35953720Y47281635D01*
X35953718Y47281639D01*
X35903796Y47318506D01*
X35881785Y47335663D01*
X35880010Y47336660D01*
X35873593Y47340810D01*
X34726654Y48187837D01*
X34720784Y48192763D01*
X34714105Y48199107D01*
X34714103Y48199111D01*
X34663255Y48234660D01*
X34640793Y48251249D01*
X34638986Y48252204D01*
X34632446Y48256199D01*
X34630810Y48257343D01*
X33464015Y49073088D01*
X33458019Y49077858D01*
X33451177Y49084027D01*
X33451172Y49084034D01*
X33420217Y49104499D01*
X33399409Y49118257D01*
X33392150Y49123331D01*
X33376533Y49134251D01*
X33374708Y49135155D01*
X33368073Y49138975D01*
X33358987Y49144982D01*
X33259482Y49210771D01*
X33219132Y49237449D01*
X33186728Y49271880D01*
X33185810Y49271176D01*
X33160627Y49303994D01*
X33092621Y49392621D01*
X32977625Y49480861D01*
X32843709Y49536330D01*
X32776369Y49545195D01*
X32724173Y49564695D01*
X32178720Y49925326D01*
X32172610Y49929934D01*
X32165610Y49935923D01*
X32165606Y49935929D01*
X32112980Y49968792D01*
X32089688Y49984192D01*
X32087841Y49985048D01*
X32081100Y49988699D01*
X30871814Y50743859D01*
X30865579Y50748312D01*
X30858423Y50754121D01*
X30858419Y50754126D01*
X30804924Y50785631D01*
X30781273Y50800401D01*
X30779420Y50801202D01*
X30772592Y50804672D01*
X29544055Y51528214D01*
X29537704Y51532505D01*
X29530409Y51538119D01*
X29530402Y51538127D01*
X29476122Y51568224D01*
X29452081Y51582384D01*
X29450192Y51583143D01*
X29443286Y51586431D01*
X28196378Y52277838D01*
X28189914Y52281965D01*
X28182474Y52287388D01*
X28182468Y52287395D01*
X28140616Y52309200D01*
X28127437Y52316068D01*
X28103036Y52329598D01*
X28103035Y52329598D01*
X28103025Y52329604D01*
X28101119Y52330313D01*
X28094121Y52333424D01*
X26829738Y52992201D01*
X26823171Y52996158D01*
X26815593Y53001386D01*
X26815591Y53001389D01*
X26759854Y53028613D01*
X26735079Y53041522D01*
X26733157Y53042181D01*
X26726071Y53045113D01*
X25444951Y53670872D01*
X25438299Y53674649D01*
X25430582Y53679682D01*
X25430576Y53679689D01*
X25374107Y53705477D01*
X25349049Y53717717D01*
X25347108Y53718327D01*
X25339965Y53721068D01*
X24021206Y54323324D01*
X24002869Y54333663D01*
X23987810Y54343931D01*
X23959292Y54370895D01*
X23942621Y54392621D01*
X23933584Y54399555D01*
X23827625Y54480861D01*
X23693709Y54536330D01*
X23550000Y54555250D01*
X23530113Y54552631D01*
X23465366Y54561475D01*
X22624970Y54919205D01*
X22618110Y54922641D01*
X22610147Y54927264D01*
X22610144Y54927267D01*
X22552437Y54950079D01*
X22526753Y54961013D01*
X22524789Y54961519D01*
X22517502Y54963889D01*
X21191585Y55488061D01*
X21184638Y55491318D01*
X21176564Y55495730D01*
X21176559Y55495734D01*
X21137711Y55509936D01*
X21118288Y55517038D01*
X21111052Y55519898D01*
X21092320Y55527304D01*
X21090330Y55527763D01*
X21082994Y55529942D01*
X20670833Y55680630D01*
X19743916Y56019514D01*
X19736899Y56022585D01*
X19728705Y56026789D01*
X19728698Y56026795D01*
X19669867Y56046588D01*
X19643667Y56056167D01*
X19641679Y56056571D01*
X19634290Y56058556D01*
X18282981Y56513192D01*
X18275888Y56516079D01*
X18267594Y56520065D01*
X18267585Y56520072D01*
X18208295Y56538320D01*
X18181822Y56547227D01*
X18179816Y56547581D01*
X18172361Y56549380D01*
X17808180Y56661467D01*
X16809675Y56968789D01*
X16802512Y56971490D01*
X16794115Y56975263D01*
X16794111Y56975266D01*
X16739301Y56990589D01*
X16734344Y56991975D01*
X16724863Y56994893D01*
X16707671Y57000185D01*
X16705662Y57000486D01*
X16698160Y57002091D01*
X16260965Y57124321D01*
X15325038Y57385985D01*
X15317808Y57388500D01*
X15309312Y57392055D01*
X15309311Y57392056D01*
X15309309Y57392056D01*
X15309308Y57392057D01*
X15249141Y57407205D01*
X15222253Y57414723D01*
X15220225Y57414973D01*
X15212711Y57416377D01*
X14031864Y57713692D01*
X13986659Y57735561D01*
X13927625Y57780861D01*
X13793709Y57836330D01*
X13650000Y57855250D01*
X13649999Y57855250D01*
X13613921Y57850500D01*
X13536288Y57840279D01*
X13492962Y57842224D01*
X12325910Y58104047D01*
X12318545Y58106185D01*
X12309869Y58109296D01*
X12309866Y58109298D01*
X12248972Y58121307D01*
X12221750Y58127415D01*
X12219722Y58127559D01*
X12212136Y58128572D01*
X10813276Y58404463D01*
X10805868Y58406407D01*
X10797121Y58409289D01*
X10797112Y58409294D01*
X10735941Y58419716D01*
X10708554Y58425118D01*
X10706520Y58425209D01*
X10698904Y58426027D01*
X9293417Y58665499D01*
X9285959Y58667250D01*
X9277149Y58669902D01*
X9277139Y58669907D01*
X9215739Y58678734D01*
X9188201Y58683427D01*
X9186158Y58683465D01*
X9178517Y58684086D01*
X7767356Y58886980D01*
X7759847Y58888538D01*
X7750959Y58890962D01*
X7750953Y58890966D01*
X7689316Y58898200D01*
X7661693Y58902172D01*
X7659661Y58902158D01*
X7652012Y58902579D01*
X6235936Y59068785D01*
X6228380Y59070150D01*
X6219446Y59072341D01*
X6219440Y59072344D01*
X6157641Y59077975D01*
X6129920Y59081229D01*
X6127890Y59081162D01*
X6120232Y59081383D01*
X4700369Y59210765D01*
X4692793Y59211932D01*
X4683799Y59213892D01*
X4683793Y59213895D01*
X4621868Y59217920D01*
X4594072Y59220453D01*
X4592645Y59220369D01*
X4592044Y59220334D01*
X4584375Y59220356D01*
X3945894Y59261857D01*
X3945893Y59261858D01*
X3896980Y59265037D01*
X3896980Y59265038D01*
X3643256Y59281529D01*
X3603859Y59290704D01*
X3493709Y59336330D01*
X3385927Y59350520D01*
X3350001Y59355250D01*
X3349999Y59355250D01*
X3302096Y59348943D01*
X3206291Y59336330D01*
X3180236Y59325537D01*
X3127963Y59316194D01*
X3082974Y59317947D01*
X3055143Y59319757D01*
X3053122Y59319585D01*
X3045481Y59319408D01*
X2735306Y59331494D01*
X2735303Y59331495D01*
X2685391Y59333439D01*
X2685391Y59333440D01*
X1865500Y59365386D01*
X1799279Y59387666D01*
X1794842Y59390916D01*
X1792622Y59392619D01*
X1792621Y59392621D01*
X1677625Y59480861D01*
X1543709Y59536330D01*
X1414977Y59553278D01*
X1400001Y59555250D01*
X1399999Y59555250D01*
X1383280Y59553048D01*
X1256291Y59536330D01*
X1122375Y59480861D01*
X1122374Y59480860D01*
X1031632Y59411232D01*
X966463Y59386038D01*
X954539Y59385618D01*
X78820Y59396986D01*
X71174Y59397560D01*
X62055Y59398814D01*
X62048Y59398817D01*
X775Y59398021D01*
X-30Y59398011D01*
X-27911Y59398373D01*
X-29908Y59398098D01*
X-37558Y59397523D01*
X-406992Y59392726D01*
X-1463194Y59379015D01*
X-1470855Y59379389D01*
X-1480002Y59380404D01*
X-1480010Y59380407D01*
X-1541999Y59377991D01*
X-1569928Y59377629D01*
X-1571940Y59377298D01*
X-1579558Y59376527D01*
X-3004226Y59321015D01*
X-3011890Y59321191D01*
X-3021068Y59321970D01*
X-3021075Y59321972D01*
X-3082999Y59317946D01*
X-3110890Y59316860D01*
X-3110910Y59316856D01*
X-3115504Y59316332D01*
X-3115728Y59318298D01*
X-3177056Y59324228D01*
X-3178201Y59324694D01*
X-3206291Y59336330D01*
X-3333280Y59353048D01*
X-3349999Y59355250D01*
X-3350001Y59355250D01*
X-3364977Y59353278D01*
X-3493709Y59336330D01*
X-3603858Y59290705D01*
X-3643254Y59281530D01*
X-4543199Y59223032D01*
X-4550862Y59223010D01*
X-4560070Y59223551D01*
X-4560071Y59223550D01*
X-4560072Y59223551D01*
X-4621876Y59217919D01*
X-4649725Y59216109D01*
X-4651717Y59215674D01*
X-4659282Y59214510D01*
X-6079136Y59085128D01*
X-6086794Y59084906D01*
X-6096005Y59085207D01*
X-6096013Y59085209D01*
X-6157659Y59077973D01*
X-6185440Y59075442D01*
X-6187413Y59074957D01*
X-6194927Y59073598D01*
X-7611034Y58907388D01*
X-7618682Y58906968D01*
X-7627894Y58907029D01*
X-7627901Y58907031D01*
X-7678110Y58899811D01*
X-7689325Y58898199D01*
X-7701701Y58896746D01*
X-7717046Y58894946D01*
X-7719001Y58894412D01*
X-7726500Y58892853D01*
X-9137689Y58689956D01*
X-9145332Y58689337D01*
X-9154546Y58689161D01*
X-9215711Y58678739D01*
X-9243347Y58674766D01*
X-9245302Y58674176D01*
X-9252738Y58672429D01*
X-10658232Y58432956D01*
X-10665842Y58432140D01*
X-10675061Y58431724D01*
X-10735957Y58419713D01*
X-10742613Y58418578D01*
X-10763457Y58415028D01*
X-10765379Y58414394D01*
X-10772777Y58412450D01*
X-12171655Y58136555D01*
X-12179238Y58135543D01*
X-12188430Y58134888D01*
X-12188438Y58134889D01*
X-12248990Y58121304D01*
X-12276372Y58115904D01*
X-12278288Y58115216D01*
X-12285638Y58113081D01*
X-13492961Y57842224D01*
X-13536287Y57840279D01*
X-13617187Y57850930D01*
X-13649999Y57855250D01*
X-13650001Y57855250D01*
X-13664977Y57853278D01*
X-13793709Y57836330D01*
X-13927625Y57780861D01*
X-13986659Y57735561D01*
X-14031864Y57713692D01*
X-15172691Y57426454D01*
X-15180222Y57425047D01*
X-15189370Y57423915D01*
X-15189374Y57423916D01*
X-15189377Y57423915D01*
X-15189378Y57423915D01*
X-15216328Y57416380D01*
X-15249148Y57407204D01*
X-15276205Y57400392D01*
X-15278078Y57399608D01*
X-15285312Y57397093D01*
X-15314415Y57388957D01*
X-16658424Y57013201D01*
X-16665927Y57011595D01*
X-16675032Y57010227D01*
X-16675041Y57010228D01*
X-16734355Y56991972D01*
X-16761232Y56984458D01*
X-16763088Y56983623D01*
X-16770257Y56980921D01*
X-18132935Y56561514D01*
X-18140389Y56559716D01*
X-18149451Y56558114D01*
X-18149464Y56558114D01*
X-18208297Y56538320D01*
X-18234956Y56530115D01*
X-18236776Y56529239D01*
X-18243876Y56526349D01*
X-19595161Y56071721D01*
X-19602565Y56069730D01*
X-19611600Y56067890D01*
X-19611603Y56067890D01*
X-19611605Y56067889D01*
X-19611606Y56067889D01*
X-19669892Y56046579D01*
X-19678544Y56043667D01*
X-19696340Y56037681D01*
X-19698144Y56036754D01*
X-19705151Y56033687D01*
X-20513109Y55738294D01*
X-21044237Y55544111D01*
X-21051595Y55541926D01*
X-21060565Y55539855D01*
X-21060571Y55539855D01*
X-21118270Y55517044D01*
X-21144495Y55507457D01*
X-21146277Y55506482D01*
X-21153224Y55503226D01*
X-21365775Y55419198D01*
X-22479130Y54979059D01*
X-22486421Y54976687D01*
X-22495334Y54974384D01*
X-22495341Y54974384D01*
X-22495346Y54974381D01*
X-22495349Y54974381D01*
X-22552442Y54950078D01*
X-22564313Y54945384D01*
X-22578395Y54939818D01*
X-22580148Y54938799D01*
X-22586999Y54935367D01*
X-23465365Y54561475D01*
X-23530112Y54552631D01*
X-23550000Y54555250D01*
X-23693709Y54536330D01*
X-23827625Y54480861D01*
X-23942621Y54392621D01*
X-23963293Y54365678D01*
X-24010154Y54328373D01*
X-25302431Y53738209D01*
X-25309580Y53735465D01*
X-25318363Y53732702D01*
X-25318373Y53732701D01*
X-25342176Y53721074D01*
X-25374130Y53705466D01*
X-25384574Y53700696D01*
X-25399521Y53693871D01*
X-25401223Y53692759D01*
X-25407881Y53688980D01*
X-26689006Y53063218D01*
X-26696083Y53060289D01*
X-26704795Y53057298D01*
X-26704802Y53057297D01*
X-26733825Y53042175D01*
X-26759838Y53028622D01*
X-26766252Y53025488D01*
X-26784915Y53016373D01*
X-26786587Y53015218D01*
X-26793156Y53011262D01*
X-27226080Y52785696D01*
X-28057533Y52352488D01*
X-28064531Y52349377D01*
X-28073157Y52346162D01*
X-28073168Y52346160D01*
X-28112401Y52324404D01*
X-28127451Y52316060D01*
X-28148752Y52304961D01*
X-28152191Y52303170D01*
X-28153834Y52301971D01*
X-28160293Y52297848D01*
X-29407197Y51606442D01*
X-29414112Y51603149D01*
X-29422653Y51599711D01*
X-29422664Y51599709D01*
X-29476138Y51568215D01*
X-29500545Y51554682D01*
X-29502156Y51553441D01*
X-29508510Y51549150D01*
X-30024885Y51245032D01*
X-30737019Y50825622D01*
X-30743858Y50822145D01*
X-30752309Y50818486D01*
X-30752316Y50818485D01*
X-30804976Y50785600D01*
X-30829001Y50771451D01*
X-30830566Y50770180D01*
X-30836817Y50765716D01*
X-30855377Y50754126D01*
X-32046117Y50010545D01*
X-32052857Y50006896D01*
X-32061205Y50003022D01*
X-32061209Y50003021D01*
X-32061212Y50003019D01*
X-32112958Y49968806D01*
X-32112980Y49968792D01*
X-32136648Y49954013D01*
X-32138202Y49952682D01*
X-32144308Y49948078D01*
X-32724174Y49564695D01*
X-32776371Y49545195D01*
X-32843709Y49536330D01*
X-32977625Y49480861D01*
X-33092621Y49392621D01*
X-33160627Y49303994D01*
X-33185810Y49271176D01*
X-33186727Y49271880D01*
X-33219131Y49237449D01*
X-33333655Y49161731D01*
X-33340299Y49157906D01*
X-33348541Y49153816D01*
X-33348553Y49153813D01*
X-33399402Y49118262D01*
X-33422694Y49102863D01*
X-33424204Y49101500D01*
X-33430196Y49096731D01*
X-34598634Y48279837D01*
X-34605174Y48275843D01*
X-34613324Y48271532D01*
X-34613330Y48271531D01*
X-34663255Y48234660D01*
X-34686123Y48218673D01*
X-34687597Y48217272D01*
X-34693459Y48212353D01*
X-35840400Y47365324D01*
X-35846834Y47361162D01*
X-35854850Y47356652D01*
X-35854858Y47356650D01*
X-35883763Y47334120D01*
X-35903774Y47318523D01*
X-35912473Y47312097D01*
X-35926255Y47301921D01*
X-35927692Y47300481D01*
X-35933430Y47295407D01*
X-37057972Y46418907D01*
X-37064280Y46414591D01*
X-37072193Y46409864D01*
X-37072201Y46409861D01*
X-37120153Y46370442D01*
X-37142152Y46353296D01*
X-37143551Y46351820D01*
X-37149138Y46346615D01*
X-38250502Y45441252D01*
X-38256712Y45436761D01*
X-38264486Y45431839D01*
X-38264497Y45431835D01*
X-38311391Y45391200D01*
X-38332957Y45373473D01*
X-38334318Y45371961D01*
X-38339779Y45366601D01*
X-39417331Y44432895D01*
X-39423417Y44428249D01*
X-39431061Y44423127D01*
X-39431070Y44423124D01*
X-39476896Y44381283D01*
X-39497991Y44363005D01*
X-39499307Y44361464D01*
X-39504638Y44355953D01*
X-40557530Y43394642D01*
X-40563492Y43389840D01*
X-40571008Y43384515D01*
X-40571018Y43384511D01*
X-40615756Y43341481D01*
X-40636356Y43322674D01*
X-40637637Y43321093D01*
X-40642804Y43315467D01*
X-40999389Y42972505D01*
X-41037890Y42947319D01*
X-41077625Y42930861D01*
X-41192621Y42842621D01*
X-41280861Y42727625D01*
X-41336330Y42593709D01*
X-41355250Y42450000D01*
X-43583158Y42450000D01*
X-43310073Y42729702D01*
X-42976818Y43070156D01*
X-42251081Y43776778D01*
X-41864897Y44151551D01*
X-41150364Y44812871D01*
X-40725774Y45204253D01*
X-40015056Y45829398D01*
X-39560206Y46227562D01*
X-38848993Y46821900D01*
X-38368960Y47220811D01*
X-37654680Y47787634D01*
X-37152766Y48183387D01*
X-36433857Y48724804D01*
X-35912455Y49114636D01*
X-35187824Y49632148D01*
X-34648816Y50013966D01*
X-33917755Y50508616D01*
X-33362688Y50880781D01*
X-32624786Y51353282D01*
X-32054889Y51714531D01*
X-31310004Y52165336D01*
X-30726257Y52514682D01*
X-29974243Y52944180D01*
X-29377718Y53280678D01*
X-28618567Y53689126D01*
X-28010073Y54012067D01*
X-27244018Y54399555D01*
X-26624224Y54708364D01*
X-25851400Y55075014D01*
X-25221137Y55369086D01*
X-24441623Y55715018D01*
X-23801692Y55993823D01*
X-23015793Y56319037D01*
X-22366779Y56582184D01*
X-21574791Y56886675D01*
X-20917348Y57133779D01*
X-20119695Y57417491D01*
X-19454329Y57648255D01*
X-18651289Y57911184D01*
X-17978725Y58125261D01*
X-17170596Y58367388D01*
X-16491487Y58564495D01*
X-15678623Y58785780D01*
X-14993529Y58965685D01*
X-14176358Y59166073D01*
X-13485886Y59328559D01*
X-12664808Y59508002D01*
X-11969454Y59652900D01*
X-11144922Y59811345D01*
X-10445342Y59938474D01*
X-9617710Y60075892D01*
X-8914429Y60185120D01*
X-8084156Y60301466D01*
X-7377791Y60392665D01*
X-6545291Y60487907D01*
X-5836369Y60560985D01*
X-5002125Y60635090D01*
X-4291191Y60689969D01*
X-3455644Y60742916D01*
X-2743281Y60779535D01*
X-1906856Y60811310D01*
X-1193583Y60829630D01*
X-356798Y60840222D01*
X356798Y60840222D01*
X1193583Y60829630D01*
G37*
%TD.AperFunction*%
%TD*%
M02*
