%TF.GenerationSoftware,KiCad,Pcbnew,7.0.6*%
%TF.CreationDate,2023-07-09T17:07:21+09:00*%
%TF.ProjectId,robotrace_v2_Linesensor,726f626f-7472-4616-9365-5f76325f4c69,rev?*%
%TF.SameCoordinates,Original*%
%TF.FileFunction,Legend,Top*%
%TF.FilePolarity,Positive*%
%FSLAX46Y46*%
G04 Gerber Fmt 4.6, Leading zero omitted, Abs format (unit mm)*
G04 Created by KiCad (PCBNEW 7.0.6) date 2023-07-09 17:07:21*
%MOMM*%
%LPD*%
G01*
G04 APERTURE LIST*
%ADD10C,0.150000*%
%ADD11C,0.120000*%
%ADD12R,0.300000X1.000000*%
%ADD13R,2.000000X1.300000*%
G04 APERTURE END LIST*
D10*
X-283333Y58345180D02*
X-283333Y57630895D01*
X-283333Y57630895D02*
X-330952Y57488038D01*
X-330952Y57488038D02*
X-426190Y57392800D01*
X-426190Y57392800D02*
X-569047Y57345180D01*
X-569047Y57345180D02*
X-664285Y57345180D01*
X716666Y57345180D02*
X145238Y57345180D01*
X430952Y57345180D02*
X430952Y58345180D01*
X430952Y58345180D02*
X335714Y58202323D01*
X335714Y58202323D02*
X240476Y58107085D01*
X240476Y58107085D02*
X145238Y58059466D01*
D11*
%TO.C,J1*%
X-5850000Y56250000D02*
X-5850000Y54800000D01*
X-5850000Y52500000D02*
X-5850000Y52800000D01*
X-5850000Y52500000D02*
X-5050000Y52500000D01*
X-5050000Y52500000D02*
X-5050000Y52800000D01*
X-4950000Y54500000D02*
X4950000Y54500000D01*
X-3660000Y56250000D02*
X-5850000Y56250000D01*
X-3660000Y56250000D02*
X-3660000Y56750000D01*
X3660000Y56250000D02*
X5850000Y56250000D01*
X5050000Y52500000D02*
X5050000Y52800000D01*
X5850000Y56250000D02*
X5850000Y54800000D01*
X5850000Y52500000D02*
X5050000Y52500000D01*
X5850000Y52500000D02*
X5850000Y52800000D01*
%TD*%
%LPC*%
D12*
%TO.C,J1*%
X-3250000Y56450000D03*
X-2750000Y56450000D03*
X-2250000Y56450000D03*
X-1750000Y56450000D03*
X-1250000Y56450000D03*
X-750000Y56450000D03*
X-250000Y56450000D03*
X250000Y56450000D03*
X750000Y56450000D03*
X1250000Y56450000D03*
X1750000Y56450000D03*
X2250000Y56450000D03*
X2750000Y56450000D03*
X3250000Y56450000D03*
D13*
X-5550000Y53750000D03*
X5550000Y53750000D03*
%TD*%
%LPD*%
M02*
