%TF.GenerationSoftware,KiCad,Pcbnew,7.0.6*%
%TF.CreationDate,2023-07-09T17:07:21+09:00*%
%TF.ProjectId,robotrace_v2_Linesensor,726f626f-7472-4616-9365-5f76325f4c69,rev?*%
%TF.SameCoordinates,Original*%
%TF.FileFunction,Legend,Bot*%
%TF.FilePolarity,Positive*%
%FSLAX46Y46*%
G04 Gerber Fmt 4.6, Leading zero omitted, Abs format (unit mm)*
G04 Created by KiCad (PCBNEW 7.0.6) date 2023-07-09 17:07:21*
%MOMM*%
%LPD*%
G01*
G04 APERTURE LIST*
G04 Aperture macros list*
%AMRoundRect*
0 Rectangle with rounded corners*
0 $1 Rounding radius*
0 $2 $3 $4 $5 $6 $7 $8 $9 X,Y pos of 4 corners*
0 Add a 4 corners polygon primitive as box body*
4,1,4,$2,$3,$4,$5,$6,$7,$8,$9,$2,$3,0*
0 Add four circle primitives for the rounded corners*
1,1,$1+$1,$2,$3*
1,1,$1+$1,$4,$5*
1,1,$1+$1,$6,$7*
1,1,$1+$1,$8,$9*
0 Add four rect primitives between the rounded corners*
20,1,$1+$1,$2,$3,$4,$5,0*
20,1,$1+$1,$4,$5,$6,$7,0*
20,1,$1+$1,$6,$7,$8,$9,0*
20,1,$1+$1,$8,$9,$2,$3,0*%
G04 Aperture macros list end*
%ADD10C,0.150000*%
%ADD11C,0.120000*%
%ADD12RoundRect,0.237500X0.065464X0.338557X-0.341467X0.048028X-0.065464X-0.338557X0.341467X-0.048028X0*%
%ADD13RoundRect,0.237500X-0.341466X-0.048034X0.065470X-0.338556X0.341466X0.048034X-0.065470X0.338556X0*%
%ADD14RoundRect,0.237500X0.004777X0.344795X-0.344587X-0.012899X-0.004777X-0.344795X0.344587X0.012899X0*%
%ADD15RoundRect,0.237500X0.178856X0.294817X-0.303595X0.163512X-0.178856X-0.294817X0.303595X-0.163512X0*%
%ADD16RoundRect,0.237500X-0.270025X-0.214459X0.228015X-0.258680X0.270025X0.214459X-0.228015X0.258680X0*%
%ADD17RoundRect,0.237500X-0.344587X0.012899X0.004777X-0.344795X0.344587X-0.012899X-0.004777X0.344795X0*%
%ADD18RoundRect,0.237500X-0.303595X-0.163512X0.178856X-0.294817X0.303595X0.163512X-0.178856X0.294817X0*%
%ADD19RoundRect,0.237500X0.124102X0.321722X-0.327659X0.107451X-0.124102X-0.321722X0.327659X-0.107451X0*%
%ADD20RoundRect,0.237500X-0.327659X-0.107451X0.124102X-0.321722X0.327659X0.107451X-0.124102X0.321722X0*%
%ADD21RoundRect,0.237500X0.228011X0.258684X-0.270029X0.214454X-0.228011X-0.258684X0.270029X-0.214454X0*%
%ADD22RoundRect,0.250000X-0.508223X-0.223236X0.052129X-0.552637X0.508223X0.223236X-0.052129X0.552637X0*%
%ADD23RoundRect,0.250000X-0.046085X0.553174X-0.539612X0.130170X0.046085X-0.553174X0.539612X-0.130170X0*%
%ADD24RoundRect,0.250000X0.240612X0.500231X-0.399215X0.385684X-0.240612X-0.500231X0.399215X-0.385684X0*%
%ADD25RoundRect,0.237500X0.365821X-0.072370X0.002015X0.372905X-0.365821X0.072370X-0.002015X-0.372905X0*%
%ADD26RoundRect,0.250000X0.148693X0.534804X-0.460935X0.309296X-0.148693X-0.534804X0.460935X-0.309296X0*%
%ADD27RoundRect,0.250000X-0.460935X-0.309296X0.148693X-0.534804X0.460935X0.309296X-0.148693X0.534804X0*%
%ADD28RoundRect,0.237500X-0.187246X-0.322493X0.352040X-0.123005X0.187246X0.322493X-0.352040X0.123005X0*%
%ADD29RoundRect,0.237500X-0.241147X-0.284448X0.324854X-0.183118X0.241147X0.284448X-0.324854X0.183118X0*%
%ADD30RoundRect,0.237500X0.372849X-0.006771X-0.063732X0.367425X-0.372849X0.006771X0.063732X-0.367425X0*%
%ADD31RoundRect,0.237500X0.002015X-0.372905X0.365821X0.072370X-0.002015X0.372905X-0.365821X-0.072370X0*%
%ADD32RoundRect,0.250000X-0.399215X-0.385684X0.240612X-0.500231X0.399215X0.385684X-0.240612X0.500231X0*%
%ADD33RoundRect,0.250000X-0.539612X-0.130170X-0.046085X-0.553174X0.539612X0.130170X0.046085X0.553174X0*%
%ADD34RoundRect,0.250000X-0.554106X-0.033040X-0.142847X-0.536395X0.554106X0.033040X0.142847X0.536395X0*%
%ADD35RoundRect,0.237500X0.352040X0.123005X-0.187246X0.322493X-0.352040X-0.123005X0.187246X-0.322493X0*%
%ADD36RoundRect,0.250000X0.052120X0.552638X-0.508227X0.223227X-0.052120X-0.552638X0.508227X-0.223227X0*%
%ADD37RoundRect,0.237500X0.324851X0.183124X-0.241152X0.284444X-0.324851X-0.183124X0.241152X-0.284444X0*%
%ADD38RoundRect,0.250000X-0.140037X0.537136X-0.553925X0.035941X0.140037X-0.537136X0.553925X-0.035941X0*%
%ADD39RoundRect,0.237500X-0.127484X-0.350443X0.368207X-0.059041X0.127484X0.350443X-0.368207X0.059041X0*%
%ADD40RoundRect,0.155000X0.212500X0.155000X-0.212500X0.155000X-0.212500X-0.155000X0.212500X-0.155000X0*%
%ADD41RoundRect,0.237500X-0.063732X-0.367425X0.372849X0.006771X0.063732X0.367425X-0.372849X-0.006771X0*%
%ADD42RoundRect,0.237500X0.368206X0.059047X-0.127490X0.350441X-0.368206X-0.059047X0.127490X-0.350441X0*%
G04 APERTURE END LIST*
D10*
X-32850080Y46426682D02*
X-32855487Y47007922D01*
X-32385016Y46758715D02*
X-32966074Y47572578D01*
X-32966074Y47572578D02*
X-33276117Y47351222D01*
X-33276117Y47351222D02*
X-33325958Y47257128D01*
X-33325958Y47257128D02*
X-33337044Y47190703D01*
X-33337044Y47190703D02*
X-33320460Y47085523D01*
X-33320460Y47085523D02*
X-33237452Y46969257D01*
X-33237452Y46969257D02*
X-33143358Y46919416D01*
X-33143358Y46919416D02*
X-33076933Y46908330D01*
X-33076933Y46908330D02*
X-32971753Y46924913D01*
X-32971753Y46924913D02*
X-32661710Y47146269D01*
X-33647177Y46559713D02*
X-33597336Y46653807D01*
X-33597336Y46653807D02*
X-33586250Y46720232D01*
X-33586250Y46720232D02*
X-33602834Y46825412D01*
X-33602834Y46825412D02*
X-33630503Y46864168D01*
X-33630503Y46864168D02*
X-33724597Y46914009D01*
X-33724597Y46914009D02*
X-33791022Y46925095D01*
X-33791022Y46925095D02*
X-33896202Y46908511D01*
X-33896202Y46908511D02*
X-34051223Y46797833D01*
X-34051223Y46797833D02*
X-34101065Y46703739D01*
X-34101065Y46703739D02*
X-34112151Y46637314D01*
X-34112151Y46637314D02*
X-34095567Y46532134D01*
X-34095567Y46532134D02*
X-34067898Y46493379D01*
X-34067898Y46493379D02*
X-33973803Y46443538D01*
X-33973803Y46443538D02*
X-33907379Y46432452D01*
X-33907379Y46432452D02*
X-33802199Y46449035D01*
X-33802199Y46449035D02*
X-33647177Y46559713D01*
X-33647177Y46559713D02*
X-33541997Y46576297D01*
X-33541997Y46576297D02*
X-33475572Y46565211D01*
X-33475572Y46565211D02*
X-33381478Y46515369D01*
X-33381478Y46515369D02*
X-33270800Y46360348D01*
X-33270800Y46360348D02*
X-33254217Y46255168D01*
X-33254217Y46255168D02*
X-33265303Y46188743D01*
X-33265303Y46188743D02*
X-33315144Y46094649D01*
X-33315144Y46094649D02*
X-33470165Y45983971D01*
X-33470165Y45983971D02*
X-33575345Y45967388D01*
X-33575345Y45967388D02*
X-33641770Y45978474D01*
X-33641770Y45978474D02*
X-33735864Y46028315D01*
X-33735864Y46028315D02*
X-33846542Y46183336D01*
X-33846542Y46183336D02*
X-33863126Y46288516D01*
X-33863126Y46288516D02*
X-33852040Y46354941D01*
X-33852040Y46354941D02*
X-33802199Y46449035D01*
X33230482Y46259158D02*
X33778460Y46453034D01*
X33695551Y45927132D02*
X34276595Y46741005D01*
X34276595Y46741005D02*
X33966549Y46962355D01*
X33966549Y46962355D02*
X33861368Y46978936D01*
X33861368Y46978936D02*
X33794944Y46967849D01*
X33794944Y46967849D02*
X33700851Y46918006D01*
X33700851Y46918006D02*
X33617844Y46801739D01*
X33617844Y46801739D02*
X33601263Y46696559D01*
X33601263Y46696559D02*
X33612350Y46630134D01*
X33612350Y46630134D02*
X33662192Y46536041D01*
X33662192Y46536041D02*
X33972239Y46314691D01*
X33540235Y47266711D02*
X32997653Y47654074D01*
X32997653Y47654074D02*
X32765412Y46591183D01*
X-40275445Y40192097D02*
X-40383197Y40763287D01*
X-39876173Y40600890D02*
X-40591561Y41299618D01*
X-40591561Y41299618D02*
X-40857742Y41027089D01*
X-40857742Y41027089D02*
X-40890222Y40925684D01*
X-40890222Y40925684D02*
X-40889428Y40858345D01*
X-40889428Y40858345D02*
X-40854569Y40757734D01*
X-40854569Y40757734D02*
X-40752371Y40657916D01*
X-40752371Y40657916D02*
X-40650966Y40625436D01*
X-40650966Y40625436D02*
X-40583627Y40626229D01*
X-40583627Y40626229D02*
X-40483015Y40661089D01*
X-40483015Y40661089D02*
X-40216834Y40933618D01*
X-40940900Y39510775D02*
X-40541627Y39919568D01*
X-40741264Y39715172D02*
X-41456652Y40413899D01*
X-41456652Y40413899D02*
X-41287908Y40382213D01*
X-41287908Y40382213D02*
X-41153230Y40383800D01*
X-41153230Y40383800D02*
X-41052619Y40418660D01*
X-42088834Y39766644D02*
X-42155379Y39698511D01*
X-42155379Y39698511D02*
X-42187859Y39597107D01*
X-42187859Y39597107D02*
X-42187065Y39529768D01*
X-42187065Y39529768D02*
X-42152206Y39429156D01*
X-42152206Y39429156D02*
X-42049214Y39261999D01*
X-42049214Y39261999D02*
X-41878884Y39095635D01*
X-41878884Y39095635D02*
X-41709347Y38996611D01*
X-41709347Y38996611D02*
X-41607942Y38964131D01*
X-41607942Y38964131D02*
X-41540603Y38964925D01*
X-41540603Y38964925D02*
X-41439991Y38999784D01*
X-41439991Y38999784D02*
X-41373446Y39067916D01*
X-41373446Y39067916D02*
X-41340966Y39169321D01*
X-41340966Y39169321D02*
X-41341760Y39236660D01*
X-41341760Y39236660D02*
X-41376619Y39337271D01*
X-41376619Y39337271D02*
X-41479611Y39504428D01*
X-41479611Y39504428D02*
X-41649941Y39670792D01*
X-41649941Y39670792D02*
X-41819478Y39769817D01*
X-41819478Y39769817D02*
X-41920883Y39802296D01*
X-41920883Y39802296D02*
X-41988222Y39801503D01*
X-41988222Y39801503D02*
X-42088834Y39766644D01*
X-14719743Y54954912D02*
X-14523161Y55501926D01*
X-14168370Y55104975D02*
X-14430980Y56069877D01*
X-14430980Y56069877D02*
X-14798562Y55969835D01*
X-14798562Y55969835D02*
X-14877952Y55898877D01*
X-14877952Y55898877D02*
X-14911395Y55840424D01*
X-14911395Y55840424D02*
X-14932332Y55736023D01*
X-14932332Y55736023D02*
X-14894816Y55598180D01*
X-14894816Y55598180D02*
X-14823858Y55518790D01*
X-14823858Y55518790D02*
X-14765405Y55485347D01*
X-14765405Y55485347D02*
X-14661004Y55464410D01*
X-14661004Y55464410D02*
X-14293423Y55564452D01*
X-15721875Y55373085D02*
X-15546802Y54729817D01*
X-15592179Y55803193D02*
X-15174861Y55176504D01*
X-15174861Y55176504D02*
X-15772182Y55013936D01*
X5209383Y56725705D02*
X5583526Y57170549D01*
X5778573Y56675167D02*
X5867015Y57671248D01*
X5867015Y57671248D02*
X5487555Y57704941D01*
X5487555Y57704941D02*
X5388479Y57665931D01*
X5388479Y57665931D02*
X5336835Y57622710D01*
X5336835Y57622710D02*
X5280979Y57532057D01*
X5280979Y57532057D02*
X5268345Y57389760D01*
X5268345Y57389760D02*
X5307354Y57290683D01*
X5307354Y57290683D02*
X5350575Y57239039D01*
X5350575Y57239039D02*
X5441228Y57183184D01*
X5441228Y57183184D02*
X5820688Y57149491D01*
X4260734Y56809936D02*
X4829924Y56759398D01*
X4545329Y56784667D02*
X4633771Y57780748D01*
X4633771Y57780748D02*
X4716002Y57630028D01*
X4716002Y57630028D02*
X4802444Y57526740D01*
X4802444Y57526740D02*
X4893097Y57470884D01*
X40868077Y39683794D02*
X41441647Y39778059D01*
X41267350Y39275001D02*
X41982737Y39973728D01*
X41982737Y39973728D02*
X41716556Y40246257D01*
X41716556Y40246257D02*
X41615944Y40281117D01*
X41615944Y40281117D02*
X41548605Y40281910D01*
X41548605Y40281910D02*
X41447200Y40249430D01*
X41447200Y40249430D02*
X41345002Y40149612D01*
X41345002Y40149612D02*
X41310143Y40049001D01*
X41310143Y40049001D02*
X41309349Y39981662D01*
X41309349Y39981662D02*
X41341829Y39880257D01*
X41341829Y39880257D02*
X41608010Y39607728D01*
X40535349Y40024455D02*
X40402258Y40160719D01*
X40402258Y40160719D02*
X40369779Y40262124D01*
X40369779Y40262124D02*
X40370572Y40329463D01*
X40370572Y40329463D02*
X40406225Y40497413D01*
X40406225Y40497413D02*
X40509217Y40664570D01*
X40509217Y40664570D02*
X40781745Y40930752D01*
X40781745Y40930752D02*
X40883150Y40963232D01*
X40883150Y40963232D02*
X40950489Y40962438D01*
X40950489Y40962438D02*
X41051101Y40927579D01*
X41051101Y40927579D02*
X41184192Y40791315D01*
X41184192Y40791315D02*
X41216671Y40689910D01*
X41216671Y40689910D02*
X41215878Y40622571D01*
X41215878Y40622571D02*
X41181018Y40521959D01*
X41181018Y40521959D02*
X41010688Y40355596D01*
X41010688Y40355596D02*
X40909283Y40323116D01*
X40909283Y40323116D02*
X40841944Y40323910D01*
X40841944Y40323910D02*
X40741333Y40358769D01*
X40741333Y40358769D02*
X40608242Y40495033D01*
X40608242Y40495033D02*
X40575762Y40596438D01*
X40575762Y40596438D02*
X40576556Y40663777D01*
X40576556Y40663777D02*
X40611415Y40764389D01*
X15115843Y54917565D02*
X15562529Y55289506D01*
X15667215Y54767502D02*
X15929826Y55732404D01*
X15929826Y55732404D02*
X15562244Y55832446D01*
X15562244Y55832446D02*
X15457843Y55811509D01*
X15457843Y55811509D02*
X15399390Y55778067D01*
X15399390Y55778067D02*
X15328432Y55698677D01*
X15328432Y55698677D02*
X15290916Y55560833D01*
X15290916Y55560833D02*
X15311854Y55456433D01*
X15311854Y55456433D02*
X15345296Y55397980D01*
X15345296Y55397980D02*
X15424686Y55327022D01*
X15424686Y55327022D02*
X15792268Y55226980D01*
X15056819Y55970004D02*
X14459499Y56132572D01*
X14459499Y56132572D02*
X14681091Y55677454D01*
X14681091Y55677454D02*
X14543248Y55714970D01*
X14543248Y55714970D02*
X14438847Y55694032D01*
X14438847Y55694032D02*
X14380394Y55660590D01*
X14380394Y55660590D02*
X14309436Y55581200D01*
X14309436Y55581200D02*
X14246910Y55351461D01*
X14246910Y55351461D02*
X14267847Y55247061D01*
X14267847Y55247061D02*
X14301289Y55188608D01*
X14301289Y55188608D02*
X14380679Y55117649D01*
X14380679Y55117649D02*
X14656366Y55042618D01*
X14656366Y55042618D02*
X14760766Y55063555D01*
X14760766Y55063555D02*
X14819219Y55096998D01*
X-24204504Y51510484D02*
X-24107397Y52083579D01*
X-23688206Y51755364D02*
X-24116747Y52658887D01*
X-24116747Y52658887D02*
X-24460946Y52495633D01*
X-24460946Y52495633D02*
X-24526589Y52411795D01*
X-24526589Y52411795D02*
X-24549207Y52348363D01*
X-24549207Y52348363D02*
X-24551418Y52241906D01*
X-24551418Y52241906D02*
X-24490198Y52112832D01*
X-24490198Y52112832D02*
X-24406360Y52047189D01*
X-24406360Y52047189D02*
X-24342928Y52024571D01*
X-24342928Y52024571D02*
X-24236472Y52022359D01*
X-24236472Y52022359D02*
X-23892273Y52185613D01*
X-25407493Y52046685D02*
X-25235393Y52128312D01*
X-25235393Y52128312D02*
X-25128937Y52126101D01*
X-25128937Y52126101D02*
X-25065505Y52103482D01*
X-25065505Y52103482D02*
X-24918236Y52015221D01*
X-24918236Y52015221D02*
X-24793584Y51863528D01*
X-24793584Y51863528D02*
X-24630330Y51519329D01*
X-24630330Y51519329D02*
X-24632542Y51412873D01*
X-24632542Y51412873D02*
X-24655160Y51349441D01*
X-24655160Y51349441D02*
X-24720803Y51265603D01*
X-24720803Y51265603D02*
X-24892902Y51183976D01*
X-24892902Y51183976D02*
X-24999359Y51186188D01*
X-24999359Y51186188D02*
X-25062790Y51208806D01*
X-25062790Y51208806D02*
X-25146629Y51274449D01*
X-25146629Y51274449D02*
X-25248662Y51489573D01*
X-25248662Y51489573D02*
X-25246451Y51596030D01*
X-25246451Y51596030D02*
X-25223833Y51659461D01*
X-25223833Y51659461D02*
X-25158190Y51743300D01*
X-25158190Y51743300D02*
X-24986090Y51824926D01*
X-24986090Y51824926D02*
X-24879634Y51822715D01*
X-24879634Y51822715D02*
X-24816202Y51800097D01*
X-24816202Y51800097D02*
X-24732364Y51734454D01*
X24562864Y51395600D02*
X25068105Y51683002D01*
X25079162Y51150719D02*
X25507703Y52054242D01*
X25507703Y52054242D02*
X25163504Y52217496D01*
X25163504Y52217496D02*
X25057048Y52215284D01*
X25057048Y52215284D02*
X24993616Y52192666D01*
X24993616Y52192666D02*
X24909778Y52127023D01*
X24909778Y52127023D02*
X24848558Y51997948D01*
X24848558Y51997948D02*
X24850769Y51891492D01*
X24850769Y51891492D02*
X24873387Y51828060D01*
X24873387Y51828060D02*
X24939030Y51744222D01*
X24939030Y51744222D02*
X25283229Y51580968D01*
X24173932Y52686850D02*
X24604181Y52482783D01*
X24604181Y52482783D02*
X24443138Y52032127D01*
X24443138Y52032127D02*
X24420520Y52095559D01*
X24420520Y52095559D02*
X24354877Y52179397D01*
X24354877Y52179397D02*
X24139753Y52281431D01*
X24139753Y52281431D02*
X24033296Y52279219D01*
X24033296Y52279219D02*
X23969865Y52256601D01*
X23969865Y52256601D02*
X23886026Y52190958D01*
X23886026Y52190958D02*
X23783993Y51975834D01*
X23783993Y51975834D02*
X23786204Y51869377D01*
X23786204Y51869377D02*
X23808823Y51805946D01*
X23808823Y51805946D02*
X23874466Y51722107D01*
X23874466Y51722107D02*
X24089590Y51620074D01*
X24089590Y51620074D02*
X24196046Y51622285D01*
X24196046Y51622285D02*
X24259478Y51644903D01*
X-4793754Y56661707D02*
X-4503851Y57165517D01*
X-4224565Y56712255D02*
X-4313025Y57708335D01*
X-4313025Y57708335D02*
X-4692484Y57674636D01*
X-4692484Y57674636D02*
X-4783136Y57618779D01*
X-4783136Y57618779D02*
X-4826356Y57567134D01*
X-4826356Y57567134D02*
X-4865364Y57468057D01*
X-4865364Y57468057D02*
X-4852727Y57325760D01*
X-4852727Y57325760D02*
X-4796870Y57235107D01*
X-4796870Y57235107D02*
X-4745225Y57191887D01*
X-4745225Y57191887D02*
X-4646148Y57152880D01*
X-4646148Y57152880D02*
X-4266689Y57186579D01*
X-5253247Y57529223D02*
X-5304892Y57572443D01*
X-5304892Y57572443D02*
X-5403969Y57611450D01*
X-5403969Y57611450D02*
X-5641131Y57590389D01*
X-5641131Y57590389D02*
X-5731783Y57534531D01*
X-5731783Y57534531D02*
X-5775004Y57482887D01*
X-5775004Y57482887D02*
X-5814011Y57383810D01*
X-5814011Y57383810D02*
X-5805586Y57288945D01*
X-5805586Y57288945D02*
X-5745517Y57150860D01*
X-5745517Y57150860D02*
X-5125780Y56632220D01*
X-5125780Y56632220D02*
X-5742401Y56577459D01*
X24393323Y47347495D02*
X24499558Y47340283D01*
X24499558Y47340283D02*
X24629925Y47374122D01*
X24629925Y47374122D02*
X24825475Y47424880D01*
X24825475Y47424880D02*
X24931710Y47417668D01*
X24931710Y47417668D02*
X25013813Y47369404D01*
X24852102Y47188278D02*
X24958337Y47181066D01*
X24958337Y47181066D02*
X25088703Y47214905D01*
X25088703Y47214905D02*
X25226283Y47354979D01*
X25226283Y47354979D02*
X25395207Y47642339D01*
X25395207Y47642339D02*
X25450683Y47830677D01*
X25450683Y47830677D02*
X25416844Y47961043D01*
X25416844Y47961043D02*
X25358873Y48050359D01*
X25358873Y48050359D02*
X25194667Y48146887D01*
X25194667Y48146887D02*
X25088432Y48154099D01*
X25088432Y48154099D02*
X24958065Y48120260D01*
X24958065Y48120260D02*
X24820486Y47980186D01*
X24820486Y47980186D02*
X24651562Y47692826D01*
X24651562Y47692826D02*
X24596086Y47504488D01*
X24596086Y47504488D02*
X24629925Y47374122D01*
X24629925Y47374122D02*
X24687896Y47284806D01*
X24687896Y47284806D02*
X24852102Y47188278D01*
X24209432Y48726054D02*
X24619947Y48484734D01*
X24619947Y48484734D02*
X24419679Y48050088D01*
X24419679Y48050088D02*
X24402759Y48115271D01*
X24402759Y48115271D02*
X24344788Y48204586D01*
X24344788Y48204586D02*
X24139531Y48325246D01*
X24139531Y48325246D02*
X24033296Y48332459D01*
X24033296Y48332459D02*
X23968113Y48315539D01*
X23968113Y48315539D02*
X23878797Y48257568D01*
X23878797Y48257568D02*
X23758137Y48052311D01*
X23758137Y48052311D02*
X23750925Y47946076D01*
X23750925Y47946076D02*
X23767844Y47880893D01*
X23767844Y47880893D02*
X23825815Y47791577D01*
X23825815Y47791577D02*
X24031073Y47670918D01*
X24031073Y47670918D02*
X24137308Y47663705D01*
X24137308Y47663705D02*
X24202491Y47680625D01*
X-32219725Y42494335D02*
X-32178403Y42592470D01*
X-32178403Y42592470D02*
X-32168070Y42726760D01*
X-32168070Y42726760D02*
X-32152570Y42928195D01*
X-32152570Y42928195D02*
X-32111248Y43026329D01*
X-32111248Y43026329D02*
X-32038936Y43088308D01*
X-31920146Y42876539D02*
X-31878823Y42974674D01*
X-31878823Y42974674D02*
X-31868490Y43108964D01*
X-31868490Y43108964D02*
X-31956292Y43284576D01*
X-31956292Y43284576D02*
X-32173216Y43537667D01*
X-32173216Y43537667D02*
X-32333329Y43651300D01*
X-32333329Y43651300D02*
X-32467619Y43661633D01*
X-32467619Y43661633D02*
X-32570920Y43635811D01*
X-32570920Y43635811D02*
X-32715543Y43511854D01*
X-32715543Y43511854D02*
X-32756865Y43413719D01*
X-32756865Y43413719D02*
X-32767198Y43279429D01*
X-32767198Y43279429D02*
X-32679397Y43103817D01*
X-32679397Y43103817D02*
X-32462472Y42850727D01*
X-32462472Y42850727D02*
X-32302360Y42737093D01*
X-32302360Y42737093D02*
X-32168070Y42726760D01*
X-32168070Y42726760D02*
X-32064769Y42752582D01*
X-32064769Y42752582D02*
X-31920146Y42876539D01*
X-33051288Y42659635D02*
X-33009966Y42757769D01*
X-33009966Y42757769D02*
X-33004799Y42824914D01*
X-33004799Y42824914D02*
X-33030622Y42928215D01*
X-33030622Y42928215D02*
X-33061611Y42964370D01*
X-33061611Y42964370D02*
X-33159745Y43005693D01*
X-33159745Y43005693D02*
X-33226890Y43010859D01*
X-33226890Y43010859D02*
X-33330191Y42985037D01*
X-33330191Y42985037D02*
X-33474814Y42861080D01*
X-33474814Y42861080D02*
X-33516137Y42762945D01*
X-33516137Y42762945D02*
X-33521303Y42695800D01*
X-33521303Y42695800D02*
X-33495480Y42592499D01*
X-33495480Y42592499D02*
X-33464491Y42556344D01*
X-33464491Y42556344D02*
X-33366357Y42515021D01*
X-33366357Y42515021D02*
X-33299212Y42509855D01*
X-33299212Y42509855D02*
X-33195911Y42535678D01*
X-33195911Y42535678D02*
X-33051288Y42659635D01*
X-33051288Y42659635D02*
X-32947987Y42685457D01*
X-32947987Y42685457D02*
X-32880842Y42680291D01*
X-32880842Y42680291D02*
X-32782708Y42638968D01*
X-32782708Y42638968D02*
X-32658751Y42494345D01*
X-32658751Y42494345D02*
X-32632928Y42391045D01*
X-32632928Y42391045D02*
X-32638095Y42323900D01*
X-32638095Y42323900D02*
X-32679417Y42225765D01*
X-32679417Y42225765D02*
X-32824040Y42101808D01*
X-32824040Y42101808D02*
X-32927341Y42075986D01*
X-32927341Y42075986D02*
X-32994486Y42081152D01*
X-32994486Y42081152D02*
X-33092620Y42122474D01*
X-33092620Y42122474D02*
X-33216577Y42267097D01*
X-33216577Y42267097D02*
X-33242400Y42370398D01*
X-33242400Y42370398D02*
X-33237233Y42437543D01*
X-33237233Y42437543D02*
X-33195911Y42535678D01*
X-6259318Y53025334D02*
X-6173962Y53088991D01*
X-6173962Y53088991D02*
X-6096998Y53199523D01*
X-6096998Y53199523D02*
X-5981551Y53365319D01*
X-5981551Y53365319D02*
X-5896195Y53428976D01*
X-5896195Y53428976D02*
X-5802448Y53445760D01*
X-5807363Y53202999D02*
X-5722007Y53266656D01*
X-5722007Y53266656D02*
X-5645043Y53377187D01*
X-5645043Y53377187D02*
X-5631736Y53573074D01*
X-5631736Y53573074D02*
X-5690478Y53901191D01*
X-5690478Y53901191D02*
X-5770919Y54080294D01*
X-5770919Y54080294D02*
X-5881450Y54157258D01*
X-5881450Y54157258D02*
X-5983589Y54187349D01*
X-5983589Y54187349D02*
X-6171084Y54153782D01*
X-6171084Y54153782D02*
X-6256440Y54090125D01*
X-6256440Y54090125D02*
X-6333404Y53979594D01*
X-6333404Y53979594D02*
X-6346711Y53783707D01*
X-6346711Y53783707D02*
X-6287969Y53455590D01*
X-6287969Y53455590D02*
X-6207529Y53276487D01*
X-6207529Y53276487D02*
X-6096998Y53199523D01*
X-6096998Y53199523D02*
X-5994858Y53169432D01*
X-5994858Y53169432D02*
X-5807363Y53202999D01*
X-6763660Y53950942D02*
X-6818925Y53989424D01*
X-6818925Y53989424D02*
X-6921065Y54019515D01*
X-6921065Y54019515D02*
X-7155434Y53977556D01*
X-7155434Y53977556D02*
X-7240790Y53913899D01*
X-7240790Y53913899D02*
X-7279272Y53858633D01*
X-7279272Y53858633D02*
X-7309362Y53756494D01*
X-7309362Y53756494D02*
X-7292579Y53662746D01*
X-7292579Y53662746D02*
X-7220530Y53530517D01*
X-7220530Y53530517D02*
X-6557344Y53068732D01*
X-6557344Y53068732D02*
X-7166703Y52959640D01*
X44414787Y35390658D02*
X45189180Y36023363D01*
X45189180Y36023363D02*
X45038536Y36207742D01*
X45038536Y36207742D02*
X44911274Y36288241D01*
X44911274Y36288241D02*
X44777264Y36301735D01*
X44777264Y36301735D02*
X44673384Y36278353D01*
X44673384Y36278353D02*
X44495752Y36194714D01*
X44495752Y36194714D02*
X44385124Y36104327D01*
X44385124Y36104327D02*
X44267750Y35946936D01*
X44267750Y35946936D02*
X44224127Y35849803D01*
X44224127Y35849803D02*
X44210633Y35715793D01*
X44210633Y35715793D02*
X44264143Y35575037D01*
X44264143Y35575037D02*
X44414787Y35390658D01*
X43751953Y36201926D02*
X43631438Y36349430D01*
X43631438Y36349430D02*
X43608056Y36453310D01*
X43608056Y36453310D02*
X43614803Y36520315D01*
X43614803Y36520315D02*
X43665173Y36684453D01*
X43665173Y36684453D02*
X43782548Y36841844D01*
X43782548Y36841844D02*
X44077554Y37082875D01*
X44077554Y37082875D02*
X44181435Y37106257D01*
X44181435Y37106257D02*
X44248440Y37099510D01*
X44248440Y37099510D02*
X44345573Y37055887D01*
X44345573Y37055887D02*
X44466088Y36908383D01*
X44466088Y36908383D02*
X44489470Y36804503D01*
X44489470Y36804503D02*
X44482723Y36737498D01*
X44482723Y36737498D02*
X44439100Y36640365D01*
X44439100Y36640365D02*
X44254721Y36489721D01*
X44254721Y36489721D02*
X44150841Y36466339D01*
X44150841Y36466339D02*
X44083836Y36473086D01*
X44083836Y36473086D02*
X43986702Y36516709D01*
X43986702Y36516709D02*
X43866187Y36664212D01*
X43866187Y36664212D02*
X43842805Y36768093D01*
X43842805Y36768093D02*
X43849552Y36835097D01*
X43849552Y36835097D02*
X43893175Y36932231D01*
X-15419842Y51067148D02*
X-15347040Y51144851D01*
X-15347040Y51144851D02*
X-15290759Y51267216D01*
X-15290759Y51267216D02*
X-15206337Y51450762D01*
X-15206337Y51450762D02*
X-15133535Y51528465D01*
X-15133535Y51528465D02*
X-15044212Y51561506D01*
X-15006270Y51321679D02*
X-14933468Y51399382D01*
X-14933468Y51399382D02*
X-14877187Y51521746D01*
X-14877187Y51521746D02*
X-14898608Y51716912D01*
X-14898608Y51716912D02*
X-15014254Y52029542D01*
X-15014254Y52029542D02*
X-15124998Y52191666D01*
X-15124998Y52191666D02*
X-15247362Y52247948D01*
X-15247362Y52247948D02*
X-15353206Y52259568D01*
X-15353206Y52259568D02*
X-15531851Y52193485D01*
X-15531851Y52193485D02*
X-15604653Y52115782D01*
X-15604653Y52115782D02*
X-15660934Y51993418D01*
X-15660934Y51993418D02*
X-15639513Y51798251D01*
X-15639513Y51798251D02*
X-15523868Y51485622D01*
X-15523868Y51485622D02*
X-15413123Y51323497D01*
X-15413123Y51323497D02*
X-15290759Y51267216D01*
X-15290759Y51267216D02*
X-15184916Y51255596D01*
X-15184916Y51255596D02*
X-15006270Y51321679D01*
X-16443418Y51500878D02*
X-16212127Y50875619D01*
X-16352277Y51940773D02*
X-15881159Y51353456D01*
X-15881159Y51353456D02*
X-16461757Y51138686D01*
X15678488Y50951067D02*
X15784331Y50962686D01*
X15784331Y50962686D02*
X15906696Y51018968D01*
X15906696Y51018968D02*
X16090242Y51103390D01*
X16090242Y51103390D02*
X16196085Y51115009D01*
X16196085Y51115009D02*
X16285408Y51081968D01*
X16158143Y50875182D02*
X16263987Y50886802D01*
X16263987Y50886802D02*
X16386351Y50943083D01*
X16386351Y50943083D02*
X16497095Y51105208D01*
X16497095Y51105208D02*
X16612740Y51417837D01*
X16612740Y51417837D02*
X16634162Y51613004D01*
X16634162Y51613004D02*
X16577881Y51735368D01*
X16577881Y51735368D02*
X16505079Y51813071D01*
X16505079Y51813071D02*
X16326433Y51879154D01*
X16326433Y51879154D02*
X16220590Y51867534D01*
X16220590Y51867534D02*
X16098225Y51811253D01*
X16098225Y51811253D02*
X15987481Y51649128D01*
X15987481Y51649128D02*
X15871836Y51336498D01*
X15871836Y51336498D02*
X15850414Y51141332D01*
X15850414Y51141332D02*
X15906696Y51018968D01*
X15906696Y51018968D02*
X15979498Y50941265D01*
X15979498Y50941265D02*
X16158143Y50875182D01*
X15790497Y52077403D02*
X15209899Y52292172D01*
X15209899Y52292172D02*
X15390363Y51819236D01*
X15390363Y51819236D02*
X15256378Y51868798D01*
X15256378Y51868798D02*
X15150535Y51857178D01*
X15150535Y51857178D02*
X15089353Y51829038D01*
X15089353Y51829038D02*
X15011650Y51756236D01*
X15011650Y51756236D02*
X14929046Y51532929D01*
X14929046Y51532929D02*
X14940666Y51427085D01*
X14940666Y51427085D02*
X14968807Y51365903D01*
X14968807Y51365903D02*
X15041609Y51288200D01*
X15041609Y51288200D02*
X15309577Y51189076D01*
X15309577Y51189076D02*
X15415420Y51200696D01*
X15415420Y51200696D02*
X15476603Y51228836D01*
X-18949956Y53479501D02*
X-19296891Y54417390D01*
X-19296891Y54417390D02*
X-19520198Y54334786D01*
X-19520198Y54334786D02*
X-19637662Y54240563D01*
X-19637662Y54240563D02*
X-19693943Y54118198D01*
X-19693943Y54118198D02*
X-19705563Y54012355D01*
X-19705563Y54012355D02*
X-19684141Y53817189D01*
X-19684141Y53817189D02*
X-19634579Y53683205D01*
X-19634579Y53683205D02*
X-19523835Y53521080D01*
X-19523835Y53521080D02*
X-19446132Y53448278D01*
X-19446132Y53448278D02*
X-19323767Y53391997D01*
X-19323767Y53391997D02*
X-19173263Y53396897D01*
X-19173263Y53396897D02*
X-18949956Y53479501D01*
X-20521087Y53609138D02*
X-20289797Y52983879D01*
X-20429946Y54049033D02*
X-19958828Y53461716D01*
X-19958828Y53461716D02*
X-20539426Y53246946D01*
X-9293305Y56032370D02*
X-9469531Y57016720D01*
X-9469531Y57016720D02*
X-9703900Y56974761D01*
X-9703900Y56974761D02*
X-9836130Y56902712D01*
X-9836130Y56902712D02*
X-9913094Y56792181D01*
X-9913094Y56792181D02*
X-9943184Y56690042D01*
X-9943184Y56690042D02*
X-9956491Y56494155D01*
X-9956491Y56494155D02*
X-9931316Y56353534D01*
X-9931316Y56353534D02*
X-9850876Y56174430D01*
X-9850876Y56174430D02*
X-9787218Y56089074D01*
X-9787218Y56089074D02*
X-9676687Y56012110D01*
X-9676687Y56012110D02*
X-9527674Y55990411D01*
X-9527674Y55990411D02*
X-9293305Y56032370D01*
X-10390224Y56755138D02*
X-10445489Y56793620D01*
X-10445489Y56793620D02*
X-10547628Y56823710D01*
X-10547628Y56823710D02*
X-10781997Y56781752D01*
X-10781997Y56781752D02*
X-10867353Y56718095D01*
X-10867353Y56718095D02*
X-10905835Y56662829D01*
X-10905835Y56662829D02*
X-10935926Y56560690D01*
X-10935926Y56560690D02*
X-10919142Y56466942D01*
X-10919142Y56466942D02*
X-10847093Y56334713D01*
X-10847093Y56334713D02*
X-10183907Y55872927D01*
X-10183907Y55872927D02*
X-10793267Y55763835D01*
X37414429Y42624335D02*
X38065203Y43383607D01*
X38065203Y43383607D02*
X37884424Y43538553D01*
X37884424Y43538553D02*
X37744968Y43595365D01*
X37744968Y43595365D02*
X37610678Y43585032D01*
X37610678Y43585032D02*
X37512544Y43543710D01*
X37512544Y43543710D02*
X37352431Y43430076D01*
X37352431Y43430076D02*
X37259463Y43321608D01*
X37259463Y43321608D02*
X37171662Y43145996D01*
X37171662Y43145996D02*
X37145839Y43042695D01*
X37145839Y43042695D02*
X37156172Y42908405D01*
X37156172Y42908405D02*
X37233650Y42779282D01*
X37233650Y42779282D02*
X37414429Y42624335D01*
X37378244Y43972402D02*
X36872063Y44406252D01*
X36872063Y44406252D02*
X36546691Y43368077D01*
X-43129506Y36752567D02*
X-43903899Y37385272D01*
X-43903899Y37385272D02*
X-44054543Y37200893D01*
X-44054543Y37200893D02*
X-44108053Y37060137D01*
X-44108053Y37060137D02*
X-44094559Y36926127D01*
X-44094559Y36926127D02*
X-44050936Y36828994D01*
X-44050936Y36828994D02*
X-43933562Y36671603D01*
X-43933562Y36671603D02*
X-43822934Y36581216D01*
X-43822934Y36581216D02*
X-43645302Y36497577D01*
X-43645302Y36497577D02*
X-43541422Y36474195D01*
X-43541422Y36474195D02*
X-43407412Y36487689D01*
X-43407412Y36487689D02*
X-43280150Y36568188D01*
X-43280150Y36568188D02*
X-43129506Y36752567D01*
X-44093628Y35572540D02*
X-43732082Y36015050D01*
X-43912855Y35793795D02*
X-44687248Y36426501D01*
X-44687248Y36426501D02*
X-44516363Y36409866D01*
X-44516363Y36409866D02*
X-44382354Y36423360D01*
X-44382354Y36423360D02*
X-44285220Y36466983D01*
X-45259696Y35725860D02*
X-45319953Y35652108D01*
X-45319953Y35652108D02*
X-45343335Y35548227D01*
X-45343335Y35548227D02*
X-45336588Y35481223D01*
X-45336588Y35481223D02*
X-45292965Y35384089D01*
X-45292965Y35384089D02*
X-45175591Y35226698D01*
X-45175591Y35226698D02*
X-44991212Y35076054D01*
X-44991212Y35076054D02*
X-44813579Y34992414D01*
X-44813579Y34992414D02*
X-44709699Y34969033D01*
X-44709699Y34969033D02*
X-44642694Y34975780D01*
X-44642694Y34975780D02*
X-44545561Y35019403D01*
X-44545561Y35019403D02*
X-44485303Y35093154D01*
X-44485303Y35093154D02*
X-44461921Y35197035D01*
X-44461921Y35197035D02*
X-44468668Y35264039D01*
X-44468668Y35264039D02*
X-44512291Y35361173D01*
X-44512291Y35361173D02*
X-44629666Y35518564D01*
X-44629666Y35518564D02*
X-44814045Y35669208D01*
X-44814045Y35669208D02*
X-44991677Y35752848D01*
X-44991677Y35752848D02*
X-45095558Y35776229D01*
X-45095558Y35776229D02*
X-45162562Y35769482D01*
X-45162562Y35769482D02*
X-45259696Y35725860D01*
X6446813Y52941767D02*
X6548952Y52971858D01*
X6548952Y52971858D02*
X6659483Y53048822D01*
X6659483Y53048822D02*
X6825280Y53164268D01*
X6825280Y53164268D02*
X6927419Y53194359D01*
X6927419Y53194359D02*
X7021167Y53177575D01*
X6932334Y52951598D02*
X7034474Y52981688D01*
X7034474Y52981688D02*
X7145005Y53058653D01*
X7145005Y53058653D02*
X7225445Y53237756D01*
X7225445Y53237756D02*
X7284187Y53565873D01*
X7284187Y53565873D02*
X7270880Y53761760D01*
X7270880Y53761760D02*
X7193916Y53872291D01*
X7193916Y53872291D02*
X7108560Y53935948D01*
X7108560Y53935948D02*
X6921065Y53969515D01*
X6921065Y53969515D02*
X6818926Y53939424D01*
X6818926Y53939424D02*
X6708395Y53862460D01*
X6708395Y53862460D02*
X6627954Y53683357D01*
X6627954Y53683357D02*
X6569212Y53355240D01*
X6569212Y53355240D02*
X6582519Y53159353D01*
X6582519Y53159353D02*
X6659483Y53048822D01*
X6659483Y53048822D02*
X6744839Y52985165D01*
X6744839Y52985165D02*
X6932334Y52951598D01*
X5572994Y53194957D02*
X6135480Y53094257D01*
X5854237Y53144607D02*
X6030463Y54128957D01*
X6030463Y54128957D02*
X6099035Y53971552D01*
X6099035Y53971552D02*
X6175999Y53861021D01*
X6175999Y53861021D02*
X6261355Y53797364D01*
X32364348Y42350378D02*
X32467649Y42324556D01*
X32467649Y42324556D02*
X32601939Y42334889D01*
X32601939Y42334889D02*
X32803374Y42350388D01*
X32803374Y42350388D02*
X32906675Y42324566D01*
X32906675Y42324566D02*
X32978986Y42262587D01*
X32787884Y42112797D02*
X32891185Y42086975D01*
X32891185Y42086975D02*
X33025475Y42097308D01*
X33025475Y42097308D02*
X33185588Y42210942D01*
X33185588Y42210942D02*
X33402513Y42464032D01*
X33402513Y42464032D02*
X33490314Y42639644D01*
X33490314Y42639644D02*
X33479981Y42773934D01*
X33479981Y42773934D02*
X33438659Y42872069D01*
X33438659Y42872069D02*
X33294035Y42996026D01*
X33294035Y42996026D02*
X33190735Y43021848D01*
X33190735Y43021848D02*
X33056445Y43011515D01*
X33056445Y43011515D02*
X32896332Y42897882D01*
X32896332Y42897882D02*
X32679407Y42644791D01*
X32679407Y42644791D02*
X32591606Y42469179D01*
X32591606Y42469179D02*
X32601939Y42334889D01*
X32601939Y42334889D02*
X32643261Y42236754D01*
X32643261Y42236754D02*
X32787884Y42112797D01*
X32860166Y43367897D02*
X32353985Y43801746D01*
X32353985Y43801746D02*
X32028613Y42763572D01*
X39284297Y35998225D02*
X39381430Y35954602D01*
X39381430Y35954602D02*
X39515440Y35941108D01*
X39515440Y35941108D02*
X39716454Y35920867D01*
X39716454Y35920867D02*
X39813587Y35877244D01*
X39813587Y35877244D02*
X39873845Y35803492D01*
X39659337Y35689724D02*
X39756470Y35646101D01*
X39756470Y35646101D02*
X39890480Y35632607D01*
X39890480Y35632607D02*
X40068112Y35716247D01*
X40068112Y35716247D02*
X40326243Y35927148D01*
X40326243Y35927148D02*
X40443617Y36084539D01*
X40443617Y36084539D02*
X40457111Y36218549D01*
X40457111Y36218549D02*
X40433730Y36322429D01*
X40433730Y36322429D02*
X40313214Y36469933D01*
X40313214Y36469933D02*
X40216081Y36513556D01*
X40216081Y36513556D02*
X40082071Y36527050D01*
X40082071Y36527050D02*
X39904439Y36443410D01*
X39904439Y36443410D02*
X39646308Y36232508D01*
X39646308Y36232508D02*
X39528934Y36075117D01*
X39528934Y36075117D02*
X39515440Y35941108D01*
X39515440Y35941108D02*
X39538822Y35837227D01*
X39538822Y35837227D02*
X39659337Y35689724D01*
X39086889Y36390365D02*
X38966374Y36537868D01*
X38966374Y36537868D02*
X38942992Y36641749D01*
X38942992Y36641749D02*
X38949739Y36708753D01*
X38949739Y36708753D02*
X39000109Y36872892D01*
X39000109Y36872892D02*
X39117484Y37030283D01*
X39117484Y37030283D02*
X39412490Y37271313D01*
X39412490Y37271313D02*
X39516371Y37294695D01*
X39516371Y37294695D02*
X39583375Y37287948D01*
X39583375Y37287948D02*
X39680509Y37244325D01*
X39680509Y37244325D02*
X39801024Y37096822D01*
X39801024Y37096822D02*
X39824406Y36992941D01*
X39824406Y36992941D02*
X39817659Y36925937D01*
X39817659Y36925937D02*
X39774036Y36828803D01*
X39774036Y36828803D02*
X39589657Y36678159D01*
X39589657Y36678159D02*
X39485776Y36654777D01*
X39485776Y36654777D02*
X39418772Y36661524D01*
X39418772Y36661524D02*
X39321638Y36705147D01*
X39321638Y36705147D02*
X39201123Y36852651D01*
X39201123Y36852651D02*
X39177741Y36956531D01*
X39177741Y36956531D02*
X39184488Y37023536D01*
X39184488Y37023536D02*
X39228111Y37120669D01*
X20484457Y52967358D02*
X20831393Y53905247D01*
X20831393Y53905247D02*
X20608086Y53987851D01*
X20608086Y53987851D02*
X20457581Y53992752D01*
X20457581Y53992752D02*
X20335217Y53936471D01*
X20335217Y53936471D02*
X20257514Y53863669D01*
X20257514Y53863669D02*
X20146770Y53701544D01*
X20146770Y53701544D02*
X20097208Y53567560D01*
X20097208Y53567560D02*
X20075786Y53372393D01*
X20075786Y53372393D02*
X20087406Y53266550D01*
X20087406Y53266550D02*
X20143687Y53144186D01*
X20143687Y53144186D02*
X20261151Y53049962D01*
X20261151Y53049962D02*
X20484457Y52967358D01*
X19982827Y54219141D02*
X19402229Y54433911D01*
X19402229Y54433911D02*
X19582693Y53960975D01*
X19582693Y53960975D02*
X19448709Y54010537D01*
X19448709Y54010537D02*
X19342865Y53998917D01*
X19342865Y53998917D02*
X19281683Y53970777D01*
X19281683Y53970777D02*
X19203980Y53897975D01*
X19203980Y53897975D02*
X19121376Y53674668D01*
X19121376Y53674668D02*
X19132996Y53568824D01*
X19132996Y53568824D02*
X19161137Y53507642D01*
X19161137Y53507642D02*
X19233939Y53429939D01*
X19233939Y53429939D02*
X19501907Y53330815D01*
X19501907Y53330815D02*
X19607751Y53342435D01*
X19607751Y53342435D02*
X19668933Y53370575D01*
X-24189135Y47524076D02*
X-24131166Y47613393D01*
X-24131166Y47613393D02*
X-24097329Y47743760D01*
X-24097329Y47743760D02*
X-24046574Y47939311D01*
X-24046574Y47939311D02*
X-23988604Y48028627D01*
X-23988604Y48028627D02*
X-23906502Y48076893D01*
X-23826890Y47847505D02*
X-23768921Y47936821D01*
X-23768921Y47936821D02*
X-23735084Y48067189D01*
X-23735084Y48067189D02*
X-23790564Y48255526D01*
X-23790564Y48255526D02*
X-23959492Y48542883D01*
X-23959492Y48542883D02*
X-24097074Y48682954D01*
X-24097074Y48682954D02*
X-24227442Y48716791D01*
X-24227442Y48716791D02*
X-24333676Y48709577D01*
X-24333676Y48709577D02*
X-24497880Y48613046D01*
X-24497880Y48613046D02*
X-24555850Y48523730D01*
X-24555850Y48523730D02*
X-24589687Y48393362D01*
X-24589687Y48393362D02*
X-24534207Y48205025D01*
X-24534207Y48205025D02*
X-24365278Y47917668D01*
X-24365278Y47917668D02*
X-24227696Y47777597D01*
X-24227696Y47777597D02*
X-24097329Y47743760D01*
X-24097329Y47743760D02*
X-23991094Y47750974D01*
X-23991094Y47750974D02*
X-23826890Y47847505D01*
X-25442054Y48057994D02*
X-25277850Y48154525D01*
X-25277850Y48154525D02*
X-25171615Y48161739D01*
X-25171615Y48161739D02*
X-25106432Y48144821D01*
X-25106432Y48144821D02*
X-24951931Y48069933D01*
X-24951931Y48069933D02*
X-24814350Y47929862D01*
X-24814350Y47929862D02*
X-24621288Y47601454D01*
X-24621288Y47601454D02*
X-24614074Y47495219D01*
X-24614074Y47495219D02*
X-24630992Y47430035D01*
X-24630992Y47430035D02*
X-24688962Y47340719D01*
X-24688962Y47340719D02*
X-24853166Y47244188D01*
X-24853166Y47244188D02*
X-24959401Y47236974D01*
X-24959401Y47236974D02*
X-25024584Y47253892D01*
X-25024584Y47253892D02*
X-25113901Y47311861D01*
X-25113901Y47311861D02*
X-25234564Y47517117D01*
X-25234564Y47517117D02*
X-25241778Y47623351D01*
X-25241778Y47623351D02*
X-25224860Y47688535D01*
X-25224860Y47688535D02*
X-25166891Y47777852D01*
X-25166891Y47777852D02*
X-25002687Y47874382D01*
X-25002687Y47874382D02*
X-24896452Y47881597D01*
X-24896452Y47881597D02*
X-24831268Y47864678D01*
X-24831268Y47864678D02*
X-24741952Y47806709D01*
X10746402Y55772238D02*
X10922611Y56756591D01*
X10922611Y56756591D02*
X10688241Y56798546D01*
X10688241Y56798546D02*
X10539228Y56776844D01*
X10539228Y56776844D02*
X10428699Y56699878D01*
X10428699Y56699878D02*
X10365043Y56614521D01*
X10365043Y56614521D02*
X10284605Y56435416D01*
X10284605Y56435416D02*
X10259433Y56294795D01*
X10259433Y56294795D02*
X10272743Y56098908D01*
X10272743Y56098908D02*
X10302835Y55996769D01*
X10302835Y55996769D02*
X10379801Y55886239D01*
X10379801Y55886239D02*
X10512032Y55814193D01*
X10512032Y55814193D02*
X10746402Y55772238D01*
X9246436Y56040747D02*
X9808923Y55940056D01*
X9527680Y55990401D02*
X9703888Y56974754D01*
X9703888Y56974754D02*
X9772463Y56817351D01*
X9772463Y56817351D02*
X9849430Y56706821D01*
X9849430Y56706821D02*
X9934787Y56643165D01*
X-38612009Y36840360D02*
X-38588083Y36944117D01*
X-38588083Y36944117D02*
X-38600876Y37078195D01*
X-38600876Y37078195D02*
X-38620064Y37279313D01*
X-38620064Y37279313D02*
X-38596138Y37383069D01*
X-38596138Y37383069D02*
X-38535495Y37456504D01*
X-38382229Y37268179D02*
X-38358304Y37371936D01*
X-38358304Y37371936D02*
X-38371096Y37506014D01*
X-38371096Y37506014D02*
X-38487645Y37664018D01*
X-38487645Y37664018D02*
X-38744668Y37876268D01*
X-38744668Y37876268D02*
X-38921859Y37960836D01*
X-38921859Y37960836D02*
X-39055938Y37948044D01*
X-39055938Y37948044D02*
X-39153298Y37904931D01*
X-39153298Y37904931D02*
X-39274584Y37758060D01*
X-39274584Y37758060D02*
X-39298510Y37654304D01*
X-39298510Y37654304D02*
X-39285717Y37520225D01*
X-39285717Y37520225D02*
X-39169169Y37362222D01*
X-39169169Y37362222D02*
X-38912146Y37149971D01*
X-38912146Y37149971D02*
X-38734954Y37065403D01*
X-38734954Y37065403D02*
X-38600876Y37078195D01*
X-38600876Y37078195D02*
X-38503515Y37121309D01*
X-38503515Y37121309D02*
X-38382229Y37268179D01*
X-39261552Y36203369D02*
X-38897694Y36643980D01*
X-39079623Y36423675D02*
X-39850693Y37060426D01*
X-39850693Y37060426D02*
X-39679897Y37042897D01*
X-39679897Y37042897D02*
X-39545819Y37055689D01*
X-39545819Y37055689D02*
X-39448458Y37098803D01*
X-40426801Y36362792D02*
X-40487444Y36289357D01*
X-40487444Y36289357D02*
X-40511369Y36185600D01*
X-40511369Y36185600D02*
X-40504973Y36118561D01*
X-40504973Y36118561D02*
X-40461860Y36021201D01*
X-40461860Y36021201D02*
X-40345311Y35863197D01*
X-40345311Y35863197D02*
X-40161723Y35711590D01*
X-40161723Y35711590D02*
X-39984531Y35627021D01*
X-39984531Y35627021D02*
X-39880774Y35603096D01*
X-39880774Y35603096D02*
X-39813735Y35609492D01*
X-39813735Y35609492D02*
X-39716375Y35652606D01*
X-39716375Y35652606D02*
X-39655732Y35726041D01*
X-39655732Y35726041D02*
X-39631806Y35829798D01*
X-39631806Y35829798D02*
X-39638202Y35896837D01*
X-39638202Y35896837D02*
X-39681316Y35994197D01*
X-39681316Y35994197D02*
X-39797865Y36152201D01*
X-39797865Y36152201D02*
X-39981453Y36303808D01*
X-39981453Y36303808D02*
X-40158645Y36388377D01*
X-40158645Y36388377D02*
X-40262401Y36412302D01*
X-40262401Y36412302D02*
X-40329440Y36405906D01*
X-40329440Y36405906D02*
X-40426801Y36362792D01*
X-28133213Y49281969D02*
X-28639999Y50144041D01*
X-28639999Y50144041D02*
X-28845254Y50023377D01*
X-28845254Y50023377D02*
X-28944275Y49909928D01*
X-28944275Y49909928D02*
X-28978111Y49779561D01*
X-28978111Y49779561D02*
X-28970897Y49673326D01*
X-28970897Y49673326D02*
X-28915417Y49484989D01*
X-28915417Y49484989D02*
X-28843019Y49361836D01*
X-28843019Y49361836D02*
X-28705438Y49221765D01*
X-28705438Y49221765D02*
X-28616121Y49163795D01*
X-28616121Y49163795D02*
X-28485754Y49129959D01*
X-28485754Y49129959D02*
X-28338468Y49161306D01*
X-28338468Y49161306D02*
X-28133213Y49281969D01*
X-29871530Y49420061D02*
X-29707326Y49516591D01*
X-29707326Y49516591D02*
X-29601091Y49523806D01*
X-29601091Y49523806D02*
X-29535908Y49506887D01*
X-29535908Y49506887D02*
X-29381407Y49431999D01*
X-29381407Y49431999D02*
X-29243826Y49291928D01*
X-29243826Y49291928D02*
X-29050764Y48963520D01*
X-29050764Y48963520D02*
X-29043550Y48857285D01*
X-29043550Y48857285D02*
X-29060468Y48792101D01*
X-29060468Y48792101D02*
X-29118438Y48702785D01*
X-29118438Y48702785D02*
X-29282642Y48606254D01*
X-29282642Y48606254D02*
X-29388877Y48599040D01*
X-29388877Y48599040D02*
X-29454060Y48615958D01*
X-29454060Y48615958D02*
X-29543377Y48673928D01*
X-29543377Y48673928D02*
X-29664040Y48879183D01*
X-29664040Y48879183D02*
X-29671254Y48985417D01*
X-29671254Y48985417D02*
X-29654336Y49050601D01*
X-29654336Y49050601D02*
X-29596367Y49139918D01*
X-29596367Y49139918D02*
X-29432162Y49236448D01*
X-29432162Y49236448D02*
X-29325928Y49243663D01*
X-29325928Y49243663D02*
X-29260744Y49226744D01*
X-29260744Y49226744D02*
X-29171428Y49168775D01*
X166666Y57340419D02*
X214285Y57292800D01*
X214285Y57292800D02*
X357142Y57245180D01*
X357142Y57245180D02*
X452380Y57245180D01*
X452380Y57245180D02*
X595237Y57292800D01*
X595237Y57292800D02*
X690475Y57388038D01*
X690475Y57388038D02*
X738094Y57483276D01*
X738094Y57483276D02*
X785713Y57673752D01*
X785713Y57673752D02*
X785713Y57816609D01*
X785713Y57816609D02*
X738094Y58007085D01*
X738094Y58007085D02*
X690475Y58102323D01*
X690475Y58102323D02*
X595237Y58197561D01*
X595237Y58197561D02*
X452380Y58245180D01*
X452380Y58245180D02*
X357142Y58245180D01*
X357142Y58245180D02*
X214285Y58197561D01*
X214285Y58197561D02*
X166666Y58149942D01*
X-785714Y57245180D02*
X-214286Y57245180D01*
X-500000Y57245180D02*
X-500000Y58245180D01*
X-500000Y58245180D02*
X-404762Y58102323D01*
X-404762Y58102323D02*
X-309524Y58007085D01*
X-309524Y58007085D02*
X-214286Y57959466D01*
X-36393601Y43585001D02*
X-37044375Y44344273D01*
X-37044375Y44344273D02*
X-37225154Y44189327D01*
X-37225154Y44189327D02*
X-37302632Y44060203D01*
X-37302632Y44060203D02*
X-37312965Y43925913D01*
X-37312965Y43925913D02*
X-37287142Y43822612D01*
X-37287142Y43822612D02*
X-37199341Y43647000D01*
X-37199341Y43647000D02*
X-37106373Y43538532D01*
X-37106373Y43538532D02*
X-36946261Y43424899D01*
X-36946261Y43424899D02*
X-36848126Y43383576D01*
X-36848126Y43383576D02*
X-36713836Y43373243D01*
X-36713836Y43373243D02*
X-36574380Y43430055D01*
X-36574380Y43430055D02*
X-36393601Y43585001D01*
X-37633210Y43275129D02*
X-37591888Y43373263D01*
X-37591888Y43373263D02*
X-37586722Y43440408D01*
X-37586722Y43440408D02*
X-37612544Y43543709D01*
X-37612544Y43543709D02*
X-37643534Y43579865D01*
X-37643534Y43579865D02*
X-37741668Y43621187D01*
X-37741668Y43621187D02*
X-37808813Y43626354D01*
X-37808813Y43626354D02*
X-37912114Y43600531D01*
X-37912114Y43600531D02*
X-38056737Y43476574D01*
X-38056737Y43476574D02*
X-38098059Y43378440D01*
X-38098059Y43378440D02*
X-38103226Y43311295D01*
X-38103226Y43311295D02*
X-38077403Y43207994D01*
X-38077403Y43207994D02*
X-38046414Y43171838D01*
X-38046414Y43171838D02*
X-37948279Y43130516D01*
X-37948279Y43130516D02*
X-37881134Y43125349D01*
X-37881134Y43125349D02*
X-37777834Y43151172D01*
X-37777834Y43151172D02*
X-37633210Y43275129D01*
X-37633210Y43275129D02*
X-37529910Y43300952D01*
X-37529910Y43300952D02*
X-37462765Y43295785D01*
X-37462765Y43295785D02*
X-37364630Y43254463D01*
X-37364630Y43254463D02*
X-37240673Y43109840D01*
X-37240673Y43109840D02*
X-37214851Y43006539D01*
X-37214851Y43006539D02*
X-37220017Y42939394D01*
X-37220017Y42939394D02*
X-37261339Y42841260D01*
X-37261339Y42841260D02*
X-37405963Y42717303D01*
X-37405963Y42717303D02*
X-37509263Y42691480D01*
X-37509263Y42691480D02*
X-37576408Y42696646D01*
X-37576408Y42696646D02*
X-37674543Y42737969D01*
X-37674543Y42737969D02*
X-37798500Y42882592D01*
X-37798500Y42882592D02*
X-37824322Y42985893D01*
X-37824322Y42985893D02*
X-37819156Y43053038D01*
X-37819156Y43053038D02*
X-37777834Y43151172D01*
X29405807Y48553906D02*
X29912579Y49415986D01*
X29912579Y49415986D02*
X29707321Y49536646D01*
X29707321Y49536646D02*
X29560035Y49567990D01*
X29560035Y49567990D02*
X29429668Y49534151D01*
X29429668Y49534151D02*
X29340353Y49476181D01*
X29340353Y49476181D02*
X29202774Y49336107D01*
X29202774Y49336107D02*
X29130378Y49212952D01*
X29130378Y49212952D02*
X29074901Y49024615D01*
X29074901Y49024615D02*
X29067689Y48918380D01*
X29067689Y48918380D02*
X29101528Y48788013D01*
X29101528Y48788013D02*
X29200550Y48674565D01*
X29200550Y48674565D02*
X29405807Y48553906D01*
X28639984Y50164077D02*
X29050498Y49922757D01*
X29050498Y49922757D02*
X28850230Y49488111D01*
X28850230Y49488111D02*
X28833310Y49553294D01*
X28833310Y49553294D02*
X28775339Y49642610D01*
X28775339Y49642610D02*
X28570082Y49763270D01*
X28570082Y49763270D02*
X28463847Y49770482D01*
X28463847Y49770482D02*
X28398664Y49753563D01*
X28398664Y49753563D02*
X28309349Y49695592D01*
X28309349Y49695592D02*
X28188689Y49490334D01*
X28188689Y49490334D02*
X28181476Y49384099D01*
X28181476Y49384099D02*
X28198396Y49318916D01*
X28198396Y49318916D02*
X28256367Y49229601D01*
X28256367Y49229601D02*
X28461624Y49108941D01*
X28461624Y49108941D02*
X28567859Y49101728D01*
X28567859Y49101728D02*
X28633042Y49118648D01*
D11*
%TO.C,R8*%
X-33679087Y47612767D02*
X-34093707Y47316748D01*
X-34286293Y48463252D02*
X-34700913Y48167233D01*
%TO.C,R7*%
X34286283Y48463254D02*
X34700908Y48167242D01*
X33679092Y47612758D02*
X34093717Y47316746D01*
%TO.C,R10*%
X-41548227Y40927141D02*
X-41904192Y40562688D01*
X-42295808Y41657312D02*
X-42651773Y41292859D01*
%TO.C,R4*%
X-15067002Y56342732D02*
X-15558570Y56208946D01*
X-15341430Y57351054D02*
X-15832998Y57217268D01*
%TO.C,R1*%
X4910063Y58112076D02*
X5417515Y58067019D01*
X5002485Y59152981D02*
X5509937Y59107924D01*
%TO.C,R9*%
X42295808Y41667312D02*
X42651773Y41302859D01*
X41548227Y40937141D02*
X41904192Y40572688D01*
%TO.C,R3*%
X15067002Y56342732D02*
X15558570Y56208946D01*
X15341430Y57351054D02*
X15832998Y57217268D01*
%TO.C,R6*%
X-24765939Y52807069D02*
X-25226236Y52588750D01*
X-25213764Y53751250D02*
X-25674061Y53532931D01*
%TO.C,R5*%
X25213764Y53751250D02*
X25674061Y53532931D01*
X24765939Y52807069D02*
X25226236Y52588750D01*
%TO.C,R2*%
X-4910054Y58112081D02*
X-5417505Y58067016D01*
X-5002495Y59152984D02*
X-5509946Y59107919D01*
%TO.C,Q5*%
X26173030Y48190192D02*
X28638581Y46740826D01*
X25200030Y46534997D02*
X26173030Y48190192D01*
X27665580Y45085631D02*
X25200030Y46534997D01*
%TO.C,Q8*%
X-33003012Y41361540D02*
X-35174528Y39500325D01*
X-34252499Y42819340D02*
X-33003012Y41361540D01*
X-36424015Y40958126D02*
X-34252499Y42819340D01*
%TO.C,Q2*%
X-7489933Y52382804D02*
X-10305173Y51878798D01*
X-7828286Y54272756D02*
X-7489933Y52382804D01*
X-10643527Y53768750D02*
X-7828286Y54272756D01*
%TO.C,D9*%
X45583014Y38274553D02*
X47139469Y36369547D01*
X47139469Y36369547D02*
X46001112Y35439470D01*
X46001112Y35439470D02*
X44444657Y37344476D01*
%TO.C,Q4*%
X-16602468Y50244927D02*
X-19284831Y49252691D01*
X-17268585Y52045674D02*
X-16602468Y50244927D01*
X-19950947Y51053438D02*
X-17268585Y52045674D01*
%TO.C,Q3*%
X17268585Y52045674D02*
X19950947Y51053438D01*
X16602468Y50244927D02*
X17268585Y52045674D01*
X19284831Y49252691D02*
X16602468Y50244927D01*
%TO.C,D4*%
X-22201893Y55243435D02*
X-19894687Y56096897D01*
X-21691898Y53864738D02*
X-22201893Y55243435D01*
X-19384691Y54718200D02*
X-21691898Y53864738D01*
%TO.C,D2*%
X-12123547Y58290962D02*
X-9702046Y58724478D01*
X-11864495Y56843968D02*
X-12123547Y58290962D01*
X-9442994Y57277484D02*
X-11864495Y56843968D01*
%TO.C,D7*%
X39032071Y42991650D02*
X37164264Y44592555D01*
X39988709Y44107779D02*
X39032071Y42991650D01*
X38120902Y45708684D02*
X39988709Y44107779D01*
%TO.C,D10*%
X-47139469Y36369547D02*
X-45583014Y38274553D01*
X-46001112Y35439470D02*
X-47139469Y36369547D01*
X-44444657Y37344476D02*
X-46001112Y35439470D01*
%TO.C,Q1*%
X7838286Y54272756D02*
X10653527Y53768750D01*
X7499933Y52382804D02*
X7838286Y54272756D01*
X10315173Y51878798D02*
X7499933Y52382804D01*
%TO.C,Q7*%
X34262499Y42819340D02*
X36434015Y40958126D01*
X33013012Y41361540D02*
X34262499Y42819340D01*
X35184528Y39500325D02*
X33013012Y41361540D01*
%TO.C,Q9*%
X41266585Y36117767D02*
X43076122Y33903004D01*
X39779751Y34902973D02*
X41266585Y36117767D01*
X41589288Y32688210D02*
X39779751Y34902973D01*
%TO.C,D3*%
X21691898Y53864738D02*
X19384691Y54718200D01*
X22201893Y55243435D02*
X21691898Y53864738D01*
X19894687Y56096897D02*
X22201893Y55243435D01*
%TO.C,Q6*%
X-25200032Y46535034D02*
X-27665557Y45085625D01*
X-26173061Y48190211D02*
X-25200032Y46535034D01*
X-28638587Y46740803D02*
X-26173061Y48190211D01*
%TO.C,D1*%
X11864512Y56843994D02*
X9443004Y57277468D01*
X12123539Y58290993D02*
X11864512Y56843994D01*
X9702031Y58724466D02*
X12123539Y58290993D01*
%TO.C,Q10*%
X-39775416Y34892907D02*
X-41596525Y32687649D01*
X-41255869Y36115470D02*
X-39775416Y34892907D01*
X-43076978Y33910212D02*
X-41255869Y36115470D01*
%TO.C,D6*%
X-31593527Y50462358D02*
X-29472831Y51709052D01*
X-30848551Y49195112D02*
X-31593527Y50462358D01*
X-28727855Y50441806D02*
X-30848551Y49195112D01*
%TO.C,C1*%
X115835Y58640000D02*
X-115835Y58640000D01*
X115835Y59360000D02*
X-115835Y59360000D01*
%TO.C,D8*%
X-39988709Y44107779D02*
X-38120902Y45708684D01*
X-39032071Y42991650D02*
X-39988709Y44107779D01*
X-37164264Y44592555D02*
X-39032071Y42991650D01*
%TO.C,D5*%
X30848577Y49195131D02*
X28727859Y50441788D01*
X31593531Y50462389D02*
X30848577Y49195131D01*
X29472812Y51709046D02*
X31593531Y50462389D01*
%TD*%
%LPC*%
D12*
%TO.C,R8*%
X-34932649Y47359784D03*
X-33447351Y48420216D03*
%TD*%
D13*
%TO.C,R7*%
X34932658Y47359797D03*
X33447342Y48420203D03*
%TD*%
D14*
%TO.C,R10*%
X-42737589Y40457209D03*
X-41462411Y41762791D03*
%TD*%
D15*
%TO.C,R4*%
X-16330473Y56540368D03*
X-14569527Y57019632D03*
%TD*%
D16*
%TO.C,R1*%
X4301076Y58690704D03*
X6118924Y58529296D03*
%TD*%
D17*
%TO.C,R9*%
X42737589Y40467209D03*
X41462411Y41772791D03*
%TD*%
D18*
%TO.C,R3*%
X14569527Y57019632D03*
X16330473Y56540368D03*
%TD*%
D19*
%TO.C,R6*%
X-26044464Y52778956D03*
X-24395536Y53561044D03*
%TD*%
D20*
%TO.C,R5*%
X26044464Y52778956D03*
X24395536Y53561044D03*
%TD*%
D21*
%TO.C,R2*%
X-6118923Y58529281D03*
X-4301077Y58690719D03*
%TD*%
D22*
%TO.C,Q5*%
X26406367Y46939440D03*
X28173633Y45900560D03*
%TD*%
D23*
%TO.C,Q8*%
X-34261747Y41547044D03*
X-35818253Y40212956D03*
%TD*%
D24*
%TO.C,Q2*%
X-8481041Y53180631D03*
X-10498959Y52819369D03*
%TD*%
D25*
%TO.C,D9*%
X44966383Y37867594D03*
X46073617Y36512406D03*
%TD*%
D26*
%TO.C,Q4*%
X-17718664Y50855609D03*
X-19641336Y50144391D03*
%TD*%
D27*
%TO.C,Q3*%
X17718664Y50855609D03*
X19641336Y50144391D03*
%TD*%
D28*
%TO.C,D4*%
X-21210653Y54826431D03*
X-19569347Y55433569D03*
%TD*%
D29*
%TO.C,D2*%
X-11221306Y57705802D03*
X-9498694Y58014198D03*
%TD*%
D30*
%TO.C,D7*%
X38914362Y44060573D03*
X37585638Y45199427D03*
%TD*%
D31*
%TO.C,D10*%
X-46073617Y36512406D03*
X-44966383Y37867594D03*
%TD*%
D32*
%TO.C,Q1*%
X8491041Y53180631D03*
X10508959Y52819369D03*
%TD*%
D33*
%TO.C,Q7*%
X34271747Y41547044D03*
X35828253Y40212956D03*
%TD*%
D34*
%TO.C,Q9*%
X41051477Y34863752D03*
X42348523Y33276248D03*
%TD*%
D35*
%TO.C,D3*%
X21210653Y54826431D03*
X19569347Y55433569D03*
%TD*%
D36*
%TO.C,Q6*%
X-26406376Y46939456D03*
X-28173624Y45900544D03*
%TD*%
D37*
%TO.C,D1*%
X11221309Y57705817D03*
X9498691Y58014183D03*
%TD*%
D38*
%TO.C,Q10*%
X-41047330Y34860346D03*
X-42352670Y33279654D03*
%TD*%
D39*
%TO.C,D6*%
X-30544313Y50226562D03*
X-29035687Y51113438D03*
%TD*%
D40*
%TO.C,C1*%
X567500Y59000000D03*
X-567500Y59000000D03*
%TD*%
D41*
%TO.C,D8*%
X-38914362Y44060573D03*
X-37585638Y45199427D03*
%TD*%
D42*
%TO.C,D5*%
X30544321Y50226575D03*
X29035679Y51113425D03*
%TD*%
%LPD*%
M02*
