%TF.GenerationSoftware,KiCad,Pcbnew,7.0.6*%
%TF.CreationDate,2023-07-09T17:07:21+09:00*%
%TF.ProjectId,robotrace_v2_Linesensor,726f626f-7472-4616-9365-5f76325f4c69,rev?*%
%TF.SameCoordinates,Original*%
%TF.FileFunction,Paste,Bot*%
%TF.FilePolarity,Positive*%
%FSLAX46Y46*%
G04 Gerber Fmt 4.6, Leading zero omitted, Abs format (unit mm)*
G04 Created by KiCad (PCBNEW 7.0.6) date 2023-07-09 17:07:21*
%MOMM*%
%LPD*%
G01*
G04 APERTURE LIST*
G04 Aperture macros list*
%AMRoundRect*
0 Rectangle with rounded corners*
0 $1 Rounding radius*
0 $2 $3 $4 $5 $6 $7 $8 $9 X,Y pos of 4 corners*
0 Add a 4 corners polygon primitive as box body*
4,1,4,$2,$3,$4,$5,$6,$7,$8,$9,$2,$3,0*
0 Add four circle primitives for the rounded corners*
1,1,$1+$1,$2,$3*
1,1,$1+$1,$4,$5*
1,1,$1+$1,$6,$7*
1,1,$1+$1,$8,$9*
0 Add four rect primitives between the rounded corners*
20,1,$1+$1,$2,$3,$4,$5,0*
20,1,$1+$1,$4,$5,$6,$7,0*
20,1,$1+$1,$6,$7,$8,$9,0*
20,1,$1+$1,$8,$9,$2,$3,0*%
G04 Aperture macros list end*
%ADD10RoundRect,0.237500X0.065464X0.338557X-0.341467X0.048028X-0.065464X-0.338557X0.341467X-0.048028X0*%
%ADD11RoundRect,0.237500X-0.341466X-0.048034X0.065470X-0.338556X0.341466X0.048034X-0.065470X0.338556X0*%
%ADD12RoundRect,0.237500X0.004777X0.344795X-0.344587X-0.012899X-0.004777X-0.344795X0.344587X0.012899X0*%
%ADD13RoundRect,0.237500X0.178856X0.294817X-0.303595X0.163512X-0.178856X-0.294817X0.303595X-0.163512X0*%
%ADD14RoundRect,0.237500X-0.270025X-0.214459X0.228015X-0.258680X0.270025X0.214459X-0.228015X0.258680X0*%
%ADD15RoundRect,0.237500X-0.344587X0.012899X0.004777X-0.344795X0.344587X-0.012899X-0.004777X0.344795X0*%
%ADD16RoundRect,0.237500X-0.303595X-0.163512X0.178856X-0.294817X0.303595X0.163512X-0.178856X0.294817X0*%
%ADD17RoundRect,0.237500X0.124102X0.321722X-0.327659X0.107451X-0.124102X-0.321722X0.327659X-0.107451X0*%
%ADD18RoundRect,0.237500X-0.327659X-0.107451X0.124102X-0.321722X0.327659X0.107451X-0.124102X0.321722X0*%
%ADD19RoundRect,0.237500X0.228011X0.258684X-0.270029X0.214454X-0.228011X-0.258684X0.270029X-0.214454X0*%
%ADD20RoundRect,0.250000X-0.508223X-0.223236X0.052129X-0.552637X0.508223X0.223236X-0.052129X0.552637X0*%
%ADD21RoundRect,0.250000X-0.046085X0.553174X-0.539612X0.130170X0.046085X-0.553174X0.539612X-0.130170X0*%
%ADD22RoundRect,0.250000X0.240612X0.500231X-0.399215X0.385684X-0.240612X-0.500231X0.399215X-0.385684X0*%
%ADD23RoundRect,0.237500X0.365821X-0.072370X0.002015X0.372905X-0.365821X0.072370X-0.002015X-0.372905X0*%
%ADD24RoundRect,0.250000X0.148693X0.534804X-0.460935X0.309296X-0.148693X-0.534804X0.460935X-0.309296X0*%
%ADD25RoundRect,0.250000X-0.460935X-0.309296X0.148693X-0.534804X0.460935X0.309296X-0.148693X0.534804X0*%
%ADD26RoundRect,0.237500X-0.187246X-0.322493X0.352040X-0.123005X0.187246X0.322493X-0.352040X0.123005X0*%
%ADD27RoundRect,0.237500X-0.241147X-0.284448X0.324854X-0.183118X0.241147X0.284448X-0.324854X0.183118X0*%
%ADD28RoundRect,0.237500X0.372849X-0.006771X-0.063732X0.367425X-0.372849X0.006771X0.063732X-0.367425X0*%
%ADD29RoundRect,0.237500X0.002015X-0.372905X0.365821X0.072370X-0.002015X0.372905X-0.365821X-0.072370X0*%
%ADD30RoundRect,0.250000X-0.399215X-0.385684X0.240612X-0.500231X0.399215X0.385684X-0.240612X0.500231X0*%
%ADD31RoundRect,0.250000X-0.539612X-0.130170X-0.046085X-0.553174X0.539612X0.130170X0.046085X0.553174X0*%
%ADD32RoundRect,0.250000X-0.554106X-0.033040X-0.142847X-0.536395X0.554106X0.033040X0.142847X0.536395X0*%
%ADD33RoundRect,0.237500X0.352040X0.123005X-0.187246X0.322493X-0.352040X-0.123005X0.187246X-0.322493X0*%
%ADD34RoundRect,0.250000X0.052120X0.552638X-0.508227X0.223227X-0.052120X-0.552638X0.508227X-0.223227X0*%
%ADD35RoundRect,0.237500X0.324851X0.183124X-0.241152X0.284444X-0.324851X-0.183124X0.241152X-0.284444X0*%
%ADD36RoundRect,0.250000X-0.140037X0.537136X-0.553925X0.035941X0.140037X-0.537136X0.553925X-0.035941X0*%
%ADD37RoundRect,0.237500X-0.127484X-0.350443X0.368207X-0.059041X0.127484X0.350443X-0.368207X0.059041X0*%
%ADD38RoundRect,0.155000X0.212500X0.155000X-0.212500X0.155000X-0.212500X-0.155000X0.212500X-0.155000X0*%
%ADD39RoundRect,0.237500X-0.063732X-0.367425X0.372849X0.006771X0.063732X0.367425X-0.372849X-0.006771X0*%
%ADD40RoundRect,0.237500X0.368206X0.059047X-0.127490X0.350441X-0.368206X-0.059047X0.127490X-0.350441X0*%
G04 APERTURE END LIST*
D10*
%TO.C,R8*%
X-34932649Y47359784D03*
X-33447351Y48420216D03*
%TD*%
D11*
%TO.C,R7*%
X34932658Y47359797D03*
X33447342Y48420203D03*
%TD*%
D12*
%TO.C,R10*%
X-42737589Y40457209D03*
X-41462411Y41762791D03*
%TD*%
D13*
%TO.C,R4*%
X-16330473Y56540368D03*
X-14569527Y57019632D03*
%TD*%
D14*
%TO.C,R1*%
X4301076Y58690704D03*
X6118924Y58529296D03*
%TD*%
D15*
%TO.C,R9*%
X42737589Y40467209D03*
X41462411Y41772791D03*
%TD*%
D16*
%TO.C,R3*%
X14569527Y57019632D03*
X16330473Y56540368D03*
%TD*%
D17*
%TO.C,R6*%
X-26044464Y52778956D03*
X-24395536Y53561044D03*
%TD*%
D18*
%TO.C,R5*%
X26044464Y52778956D03*
X24395536Y53561044D03*
%TD*%
D19*
%TO.C,R2*%
X-6118923Y58529281D03*
X-4301077Y58690719D03*
%TD*%
D20*
%TO.C,Q5*%
X26406367Y46939440D03*
X28173633Y45900560D03*
%TD*%
D21*
%TO.C,Q8*%
X-34261747Y41547044D03*
X-35818253Y40212956D03*
%TD*%
D22*
%TO.C,Q2*%
X-8481041Y53180631D03*
X-10498959Y52819369D03*
%TD*%
D23*
%TO.C,D9*%
X44966383Y37867594D03*
X46073617Y36512406D03*
%TD*%
D24*
%TO.C,Q4*%
X-17718664Y50855609D03*
X-19641336Y50144391D03*
%TD*%
D25*
%TO.C,Q3*%
X17718664Y50855609D03*
X19641336Y50144391D03*
%TD*%
D26*
%TO.C,D4*%
X-21210653Y54826431D03*
X-19569347Y55433569D03*
%TD*%
D27*
%TO.C,D2*%
X-11221306Y57705802D03*
X-9498694Y58014198D03*
%TD*%
D28*
%TO.C,D7*%
X38914362Y44060573D03*
X37585638Y45199427D03*
%TD*%
D29*
%TO.C,D10*%
X-46073617Y36512406D03*
X-44966383Y37867594D03*
%TD*%
D30*
%TO.C,Q1*%
X8491041Y53180631D03*
X10508959Y52819369D03*
%TD*%
D31*
%TO.C,Q7*%
X34271747Y41547044D03*
X35828253Y40212956D03*
%TD*%
D32*
%TO.C,Q9*%
X41051477Y34863752D03*
X42348523Y33276248D03*
%TD*%
D33*
%TO.C,D3*%
X21210653Y54826431D03*
X19569347Y55433569D03*
%TD*%
D34*
%TO.C,Q6*%
X-26406376Y46939456D03*
X-28173624Y45900544D03*
%TD*%
D35*
%TO.C,D1*%
X11221309Y57705817D03*
X9498691Y58014183D03*
%TD*%
D36*
%TO.C,Q10*%
X-41047330Y34860346D03*
X-42352670Y33279654D03*
%TD*%
D37*
%TO.C,D6*%
X-30544313Y50226562D03*
X-29035687Y51113438D03*
%TD*%
D38*
%TO.C,C1*%
X567500Y59000000D03*
X-567500Y59000000D03*
%TD*%
D39*
%TO.C,D8*%
X-38914362Y44060573D03*
X-37585638Y45199427D03*
%TD*%
D40*
%TO.C,D5*%
X30544321Y50226575D03*
X29035679Y51113425D03*
%TD*%
M02*
