M48
; DRILL file {KiCad 7.0.6} date Sun Jul  9 17:07:21 2023
; FORMAT={-:-/ absolute / inch / decimal}
; #@! TF.CreationDate,2023-07-09T17:07:21+09:00
; #@! TF.GenerationSoftware,Kicad,Pcbnew,7.0.6
; #@! TF.FileFunction,Plated,1,2,PTH
FMAT,2
INCH
; #@! TA.AperFunction,Plated,PTH,ViaDrill
T1C0.0118
; #@! TA.AperFunction,Plated,PTH,ViaDrill
T2C0.0157
%
G90
G05
T1
X-0.1614Y2.0551
X-0.1299Y2.0551
X-0.0984Y2.0551
X-0.0669Y2.0551
X-0.0354Y2.0551
X-0.0039Y2.0551
X0.0276Y2.0551
X0.0591Y2.0551
X0.0906Y2.0551
X0.122Y2.0551
T2
X-1.6063Y1.6713
X-1.2874Y1.9291
X-0.9272Y2.126
X-0.5374Y2.2559
X-0.1319Y2.315
X-0.0591Y1.9646
X-0.0591Y1.9252
X-0.0551Y2.2598
X-0.0197Y2.2598
X-0.0197Y1.9646
X-0.0197Y1.9252
X0.0157Y2.2598
X0.0197Y1.9646
X0.0197Y1.9252
X0.0551Y2.3228
X0.0591Y1.9646
X0.0591Y1.9252
X0.1319Y2.315
X0.5374Y2.2559
X0.9272Y2.126
X1.2874Y1.9291
X1.6063Y1.6732
T0
M30
